<svg width="20" height="20" viewBox="0 0 20 20" fill="none" xmlns="http://www.w3.org/2000/svg">
<g clip-path="url(#clip0_316_13045)">
<path d="M9.99991 0.384766C4.6826 0.384766 0.384521 4.68284 0.384521 10.0002C0.384521 15.3175 4.6826 19.6155 9.99991 19.6155C15.3172 19.6155 19.6153 15.3175 19.6153 10.0002C19.6153 4.68284 15.3172 0.384766 9.99991 0.384766ZM14.1345 14.1348C13.7595 14.5098 13.1538 14.5098 12.7788 14.1348L9.99991 11.3559L7.22106 14.1348C6.84606 14.5098 6.24029 14.5098 5.86529 14.1348C5.49029 13.7598 5.49029 13.154 5.86529 12.779L8.64414 10.0002L5.86529 7.2213C5.49029 6.8463 5.49029 6.24053 5.86529 5.86553C6.24029 5.49053 6.84606 5.49053 7.22106 5.86553L9.99991 8.64438L12.7788 5.86553C13.1538 5.49053 13.7595 5.49053 14.1345 5.86553C14.5095 6.24053 14.5095 6.8463 14.1345 7.2213L11.3557 10.0002L14.1345 12.779C14.4999 13.1444 14.4999 13.7598 14.1345 14.1348Z" fill="#6B7371"/>
</g>
<defs>
<clipPath id="clip0_316_13045">
<rect width="20" height="20" fill="white"/>
</clipPath>
</defs>
</svg>
