<svg width="20" height="20" viewBox="0 0 20 20" fill="none" xmlns="http://www.w3.org/2000/svg">
<path fill-rule="evenodd" clip-rule="evenodd" d="M4 0C1.79086 0 0 1.79086 0 4V16C0 18.2091 1.79086 20 4 20H16C18.2091 20 20 18.2091 20 16V4C20 1.79086 18.2091 0 16 0H4ZM6.44889 10.8878H13.56C13.8119 10.8878 14.023 10.8026 14.1933 10.6322C14.3637 10.4618 14.4489 10.2507 14.4489 9.99887C14.4489 9.74702 14.3637 9.53591 14.1933 9.36554C14.023 9.19517 13.8119 9.10999 13.56 9.10999H6.44889C6.19703 9.10999 5.98592 9.19517 5.81555 9.36554C5.64518 9.53591 5.56 9.74702 5.56 9.99887C5.56 10.2507 5.64518 10.4618 5.81555 10.6322C5.98592 10.8026 6.19703 10.8878 6.44889 10.8878Z" fill="#5E5C5A"/>
</svg>
