<svg width="20" height="20" viewBox="0 0 20 20" fill="none" xmlns="http://www.w3.org/2000/svg">
<path fill-rule="evenodd" clip-rule="evenodd" d="M4 0C1.79086 0 0 1.79086 0 4V16C0 18.2091 1.79086 20 4 20H16C18.2091 20 20 18.2091 20 16V4C20 1.79086 18.2091 0 16 0H4ZM8.76 11.2544L6.84889 9.34332C6.68593 9.18036 6.47852 9.09888 6.22667 9.09888C5.97481 9.09888 5.76741 9.18036 5.60444 9.34332C5.44148 9.50628 5.36 9.71369 5.36 9.96554C5.36 10.2174 5.44148 10.4248 5.60444 10.5878L8.13778 13.1211C8.31556 13.2989 8.52296 13.3878 8.76 13.3878C8.99704 13.3878 9.20444 13.2989 9.38222 13.1211L14.4044 8.09888C14.5674 7.93591 14.6489 7.7285 14.6489 7.47665C14.6489 7.2248 14.5674 7.01739 14.4044 6.85443C14.2415 6.69147 14.0341 6.60999 13.7822 6.60999C13.5304 6.60999 13.323 6.69147 13.16 6.85443L8.76 11.2544Z" fill="#5E5C5A"/>
</svg>
