<?xml version="1.0" encoding="UTF-8"?>
<svg width="344px" height="184px" viewBox="0 0 344 184" version="1.1" xmlns="http://www.w3.org/2000/svg" xmlns:xlink="http://www.w3.org/1999/xlink">
    <title>AFE56643-41F4-485E-B2AC-A26C0501054E</title>
    <defs>
        <rect id="path-1" x="0" y="0" width="344" height="184"></rect>
        <linearGradient x1="0%" y1="50.0031504%" x2="99.8651837%" y2="50.0031504%" id="linearGradient-3">
            <stop stop-color="#CA6138" offset="0%"></stop>
            <stop stop-color="#DC8C54" offset="100%"></stop>
        </linearGradient>
        <linearGradient x1="1.1129326e-12%" y1="50.1663682%" x2="100.048268%" y2="50.1663682%" id="linearGradient-4">
            <stop stop-color="#CA6138" offset="0%"></stop>
            <stop stop-color="#DC8C54" offset="100%"></stop>
        </linearGradient>
    </defs>
    <g id="Patient---Mobile" stroke="none" stroke-width="1" fill="none" fill-rule="evenodd">
        <g id="home_schedule_first_appt" transform="translate(-16.000000, -128.000000)">
            <g id="ill_schedule_appt_woman" transform="translate(16.000000, 128.000000)">
                <mask id="mask-2" fill="white">
                    <use xlink:href="#path-1"></use>
                </mask>
                <use id="Mask" fill="#FFFFFF" xlink:href="#path-1"></use>
                <g id="3-female" mask="url(#mask-2)">
                    <g transform="translate(8.000000, 12.000000)">
                        <rect id="Rectangle" fill="#494D7F" fill-rule="nonzero" transform="translate(224.897098, 107.634817) rotate(-10.180000) translate(-224.897098, -107.634817) " x="220.942098" y="90.8798172" width="7.91" height="33.51" rx="0.47"></rect>
                        <rect id="Rectangle" fill="#37B99A" fill-rule="nonzero" transform="translate(216.666660, 107.629397) rotate(-10.180000) translate(-216.666660, -107.629397) " x="212.71166" y="90.8743971" width="7.91" height="33.51" rx="0.47"></rect>
                        <rect id="Rectangle" fill="#07233E" fill-rule="nonzero" transform="translate(175.868959, 107.630437) rotate(-10.180000) translate(-175.868959, -107.630437) " x="171.913959" y="90.8754373" width="7.91" height="33.51" rx="0.47"></rect>
                        <rect id="Rectangle" fill="#494D7F" fill-rule="nonzero" transform="translate(167.805845, 107.634971) rotate(-10.180000) translate(-167.805845, -107.634971) " x="163.850845" y="90.8799712" width="7.91" height="33.51" rx="0.47"></rect>
                        <rect id="Rectangle" fill="#494D7F" fill-rule="nonzero" transform="translate(156.945000, 106.315000) rotate(-180.000000) translate(-156.945000, -106.315000) " x="152.99" y="87.88" width="7.91" height="36.87" rx="3.33"></rect>
                        <rect id="Rectangle" fill="#07233E" fill-rule="nonzero" transform="translate(148.675000, 106.315000) rotate(180.000000) translate(-148.675000, -106.315000) " x="144.72" y="87.88" width="7.91" height="36.87" rx="3.33"></rect>
                        <rect id="Rectangle" fill="#EE584B" fill-rule="nonzero" transform="translate(140.335000, 106.315000) rotate(-180.000000) translate(-140.335000, -106.315000) " x="136.38" y="87.88" width="7.91" height="36.87" rx="3.33"></rect>
                        <rect id="Rectangle" fill="#494D7F" fill-rule="nonzero" transform="translate(131.915000, 106.315000) rotate(-180.000000) translate(-131.915000, -106.315000) " x="127.96" y="87.88" width="7.91" height="36.87" rx="3.33"></rect>
                        <rect id="Rectangle" fill="#37B99A" fill-rule="nonzero" transform="translate(123.435000, 106.315000) rotate(180.000000) translate(-123.435000, -106.315000) " x="119.48" y="87.88" width="7.91" height="36.87" rx="3.33"></rect>
                        <rect id="Rectangle" fill="#FFFFFF" fill-rule="nonzero" transform="translate(148.715000, 96.285000) rotate(-180.000000) translate(-148.715000, -96.285000) " x="146.05" y="93.93" width="5.33" height="4.71"></rect>
                        <rect id="Rectangle" fill="#FFFFFF" fill-rule="nonzero" transform="translate(157.015000, 96.285000) rotate(-180.000000) translate(-157.015000, -96.285000) " x="154.35" y="93.93" width="5.33" height="4.71"></rect>
                        <rect id="Rectangle" fill="#FFFFFF" fill-rule="nonzero" transform="translate(223.018851, 97.104340) rotate(170.030000) translate(-223.018851, -97.104340) " x="220.353851" y="94.74934" width="5.33" height="4.71"></rect>
                        <rect id="Rectangle" fill="#FFFFFF" fill-rule="nonzero" transform="translate(214.693207, 97.103877) rotate(170.030000) translate(-214.693207, -97.103877) " x="212.028207" y="94.7488775" width="5.33" height="4.71"></rect>
                        <rect id="Rectangle" fill="#FFFFFF" fill-rule="nonzero" transform="translate(140.345000, 96.285000) rotate(-180.000000) translate(-140.345000, -96.285000) " x="137.68" y="93.93" width="5.33" height="4.71"></rect>
                        <rect id="Rectangle" fill="#FFFFFF" fill-rule="nonzero" transform="translate(131.975000, 96.285000) rotate(-180.000000) translate(-131.975000, -96.285000) " x="129.31" y="93.93" width="5.33" height="4.71"></rect>
                        <rect id="Rectangle" fill="#FFFFFF" fill-rule="nonzero" transform="translate(123.585000, 96.285000) rotate(-180.000000) translate(-123.585000, -96.285000) " x="120.92" y="93.93" width="5.33" height="4.71"></rect>
                        <path d="M112.06,82.59 L236.19,82.59 L236.19,129.36 L112.06,129.36 L112.06,82.59 Z M231.53,124.69 L231.53,87.26 L116.72,87.26 L116.72,124.69 L231.53,124.69 Z" id="Shape" fill="#ECE5CB" fill-rule="nonzero"></path>
                        <rect id="Rectangle" fill="#ECE5CB" fill-rule="nonzero" transform="translate(173.155000, 132.360000) rotate(-180.000000) translate(-173.155000, -132.360000) " x="92.02" y="129.36" width="162.27" height="6"></rect>
                        <rect id="Rectangle" fill="#ECE5CB" fill-rule="nonzero" transform="translate(242.700000, 147.365000) rotate(-180.000000) translate(-242.700000, -147.365000) " x="239.7" y="135.36" width="6" height="24.01"></rect>
                        <rect id="Rectangle" fill="#134D82" fill-rule="nonzero" opacity="0.17" style="mix-blend-mode: multiply;" transform="translate(242.700000, 136.810000) rotate(-180.000000) translate(-242.700000, -136.810000) " x="239.7" y="135.36" width="6" height="2.9"></rect>
                        <rect id="Rectangle" fill="#ECE5CB" fill-rule="nonzero" transform="translate(101.780000, 147.365000) rotate(-180.000000) translate(-101.780000, -147.365000) " x="98.78" y="135.36" width="6" height="24.01"></rect>
                        <rect id="Rectangle" fill="#134D82" fill-rule="nonzero" opacity="0.17" style="mix-blend-mode: multiply;" transform="translate(101.780000, 136.810000) rotate(-180.000000) translate(-101.780000, -136.810000) " x="98.78" y="135.36" width="6" height="2.9"></rect>
                        <polygon id="Path" fill="#C07F52" fill-rule="nonzero" points="138.42 74.71 128.75 74.71 128.52 70.25 138.65 70.25"></polygon>
                        <polygon id="Path" fill="#C07F52" fill-rule="nonzero" points="136.99 80.71 130.18 80.71 129.4 74.71 137.77 74.71"></polygon>
                        <path d="M137.16,82.09 L130,82.09 L129.3,80.92 C129.2751,80.8768758 129.27498,80.8237708 129.299686,80.7805351 C129.324392,80.7372993 129.370205,80.7104412 129.42,80.71 L137.71,80.71 C137.759795,80.7104412 137.805608,80.7372993 137.830314,80.7805351 C137.85502,80.8237708 137.8549,80.8768758 137.83,80.92 L137.16,82.09 Z" id="Path" fill="#C07F52" fill-rule="nonzero"></path>
                        <ellipse id="Oval" fill="#C9916B" fill-rule="nonzero" cx="133.59" cy="70.25" rx="5.07" ry="2.94"></ellipse>
                        <path d="M133.59,72.64 C132.2,72.64 128.99,72.41 128.99,70.25 C128.99,69.09 130.2,67.86 133.59,67.86 C135.3,67.86 138.18,68.17 138.18,70.25 C138.18,71.34 137.39,72.64 133.59,72.64 Z" id="Path" fill="#333333" fill-rule="nonzero"></path>
                        <path d="M129.58,76.06 C130.801147,75.3917659 132.193799,75.1027907 133.58,75.23 C134.82,75.23 136.67,75.35 137.58,76.01 L137.75,74.71 L129.4,74.71 L129.58,76.06 Z" id="Path" fill="#485F96" fill-rule="nonzero" opacity="0.32" style="mix-blend-mode: multiply;"></path>
                        <polygon id="Path" fill="#485F96" fill-rule="nonzero" opacity="0.32" style="mix-blend-mode: multiply;" points="130.15 80.43 130.18 80.71 136.99 80.71 137.03 80.43"></polygon>
                        <path d="M120,61.27 C120,61.27 122.85,60.92 124.53,62.01 C126.956405,63.8358265 129.114173,65.9935947 130.94,68.42 C131.329979,68.9719803 131.611631,69.5929727 131.77,70.25 L129.38,70.25 C129.38,70.25 129.02,69.36 128.31,69.25 C127.527705,69.1632217 126.838906,68.6952878 126.47,68 C126.368988,67.3669874 125.830819,66.8960898 125.19,66.88 C124.3,66.72 124.09,66.12 123.89,65.37 C123.666395,64.6370816 123.005497,64.1243856 122.24,64.09 C121.41,63.96 121.36,62.94 121.33,62.61 C121.3,62.28 120.89,62.32 120.57,62.03 C120.352638,61.7983917 120.161483,61.5435177 120,61.27 L120,61.27 Z" id="Path" fill="#21312A" fill-rule="nonzero"></path>
                        <path d="M135.66,70.25 C135.66,70.25 139.18,62.06 141.55,58.54 C143.01478,56.3800488 144.689599,54.3702666 146.55,52.54 C146.632516,52.801699 146.653057,53.0789993 146.61,53.35 C146.334529,53.8057246 146.122571,54.2969279 145.98,54.81 C146.132954,55.3527633 146.132954,55.9272367 145.98,56.47 C145.66,57.1 145.04,57.26 145.04,57.8 C145.04,58.34 145.46,58.8 145.04,59.47 C144.62,60.14 143.89,59.99 143.71,60.52 C143.53,61.05 143.76,61.58 143.52,62.11 C143.28,62.64 142.66,62.68 142.52,63.04 C142.38,63.4 142.41,63.83 142.02,64.3 C141.63,64.77 141.02,64.69 140.8,65.1 C140.662632,65.5736172 140.43887,66.0177503 140.14,66.41 C139.75,66.8 139.6,66.56 139.41,66.98 C139.22,67.4 139.31,67.55 139,67.98 C138.69,68.41 138.22,68.42 138,68.84 C137.78,69.26 137.43,70.25 137.43,70.25 L135.66,70.25 Z" id="Path" fill="#21312A" fill-rule="nonzero"></path>
                        <path d="M130.41,44 C132.271537,47.8661664 133.587426,51.9720101 134.32,56.2 C134.992661,60.8678851 135.230348,65.5881549 135.03,70.3 L131.24,70.3 C131.24,70.3 129.65,59.93 129.81,58.72 C129.97,57.51 129.55,57.27 129.53,56.72 C129.53,55.72 130,55.32 129.93,54.89 C129.86,54.46 129.5,54.18 129.59,53.4 C129.68,52.62 130.06,52.56 130.06,52.01 C130.06,51.46 129.46,51.01 129.69,50.12 C129.92,49.23 130.41,49.12 130.41,48.47 C130.41,47.82 130.02,47.4 129.97,46.47 C129.98814,45.6288756 130.13657,44.7956476 130.41,44 L130.41,44 Z" id="Path" fill="#21312A" fill-rule="nonzero"></path>
                        <path d="M133.27,70.25 C133.27,70.25 132.21,65.18 131.59,62.72 C130.736588,59.5986535 129.542756,56.5805396 128.03,53.72 C127.110216,52.2879724 125.945826,51.0288058 124.59,50 C124.64401,50.5288454 124.761523,51.0492602 124.94,51.55 C125.214475,52.2161686 125.214475,52.9638314 124.94,53.63 C124.555464,54.3947131 124.700191,55.3193583 125.3,55.93 C125.863466,56.6234487 126.015808,57.5641588 125.7,58.4 C125.359309,59.2187035 125.553611,60.16246 126.19,60.78 C126.830234,61.2863325 127.055053,62.156997 126.74,62.91 C126.412024,63.9608311 126.605211,65.1050903 127.26,65.99 C128.12,66.99 128.43,67.16 128.38,67.82 C128.330931,68.8698019 128.709819,69.8946041 129.43,70.66 L133.27,70.25 Z" id="Path" fill="#37B99A" fill-rule="nonzero"></path>
                        <g id="Group" opacity="0.28" style="mix-blend-mode: multiply;" stroke-width="1" fill="none" fill-rule="evenodd" transform="translate(123.000000, 51.000000)">
                            <path d="M2.89,1.49 C2.37,1.65 2.27,1.7 2.14,1.74 L2.14,1.86 C2.55,1.74 2.82,1.63 2.98,1.58 L2.89,1.49 Z M2.17,1.77 L2.32,1.77 L2.17,1.77 Z M2.62,1.58 L2.34,1.69 C2.4299415,1.64522593 2.5236331,1.60841851 2.62,1.58 L2.62,1.58 Z M2.88,1.51 C2.7179067,1.5503617 2.56040717,1.60732961 2.41,1.68 C2.5625511,1.61254321 2.71959405,1.55574044 2.88,1.51 L2.88,1.51 Z" id="Shape" fill="#000000" fill-rule="nonzero"></path>
                            <path d="M3.37,2 C3.14822566,2.07715645 2.92090312,2.13733007 2.69,2.18 C2.47679507,2.1950603 2.26569343,2.23191932 2.06,2.29 L2.06,2.29 C1.37115233,2.33584499 0.842771388,2.91970761 0.865706541,3.60969809 C0.888641694,4.29968856 1.45462845,4.84717462 2.145,4.84717462 C2.83537155,4.84717462 3.40135831,4.29968856 3.42429346,3.60969809 C3.44722861,2.91970761 2.91884767,2.33584499 2.23,2.29 L2.03,2.34 L2.03,2.45 C2.51252726,2.37145664 2.99001813,2.26460554 3.46,2.13 L3.37,2 Z M3.37,2.12 L3.24,2.12 L3.37,2.12 Z" id="Shape" fill="#000000" fill-rule="nonzero"></path>
                            <path d="M3.64,2.62 L3.76,2.62 L3.64,2.62 Z" id="Path" fill="#000000" fill-rule="nonzero"></path>
                            <path d="M3.88,2.68 L3.82,2.59 L3.75,2.59 L3.64,2.59 L3.06,2.73 C2.27,2.97 2.4,2.97 2.06,3.06 C2.21,3 2.06,3.06 1.8,3.12 L1.8,3.12 L1.93,3.12 L1.93,3.12 L1.83,3.12 C1.83,3.12 1.83,3.2 1.83,3.23 C2.28033621,3.11717972 2.72430562,2.98031697 3.16,2.82 L3.88,2.68 Z M1.88,3.15 L2.04,3.15 L1.88,3.15 Z M2.25,3.05 L2.4,3.05 L2.25,3.05 Z M2.71,2.87 L2.42,2.97 C2.52771238,2.92953781 2.63794568,2.89613378 2.75,2.87 L2.71,2.87 Z M2.5,2.96 L2.96,2.79 L2.5,2.96 Z" id="Shape" fill="#000000" fill-rule="nonzero"></path>
                            <path d="M3.86,2.68 C3.68,2.68 3.77,2.68 3.78,2.68 C3.79,2.68 3.82,2.71 3.86,2.68 Z" id="Path" fill="#000000" fill-rule="nonzero"></path>
                            <path d="M4.26,3.18 L4.2,3.1 L3.73,3.27 C3.04995398,3.39617637 2.38113794,3.5767567 1.73,3.81 L1.73,3.81 L1.86,3.81 L1.73,3.81 C1.73,3.81 1.73,3.81 1.73,3.88 C2.3028541,3.68399147 2.88730832,3.52368402 3.48,3.4 C3.74820529,3.35970487 4.01026758,3.28578986 4.26,3.18 L4.26,3.18 Z M2.2,3.67 L1.91,3.78 C2.00287624,3.73402829 2.09999912,3.69718858 2.2,3.67 L2.2,3.67 Z M1.99,3.76 L2.45,3.59 L1.99,3.76 Z" id="Shape" fill="#000000" fill-rule="nonzero"></path>
                            <path d="M3.23,3.52 C3.29,3.52 3.23,3.52 3.31,3.52 C3.13,3.53 3.22,3.52 3.23,3.52 Z" id="Path" fill="#000000" fill-rule="nonzero"></path>
                            <path d="M4.37,3.83 L4.67,3.75 L4.61,3.67 C4.15169335,3.74270099 3.70016302,3.85307507 3.26,4 C2.82472275,4.17640787 2.37229343,4.30710967 1.91,4.39 L1.91,4.49 C2.35929511,4.4118191 2.79861111,4.28438393 3.22,4.11 C3.59628175,3.98977447 3.98056652,3.89620948 4.37,3.83 L4.37,3.83 Z M3.63,3.92 L3.78,3.92 L3.63,3.92 Z M2.49,4.35 L2.62,4.35 L2.49,4.35 Z" id="Shape" fill="#000000" fill-rule="nonzero"></path>
                            <path d="M4,4.62 C4.34507579,4.54942602 4.68069631,4.43867124 5,4.29 L5,4.21 C4.74,4.29 4.42,4.4 3.94,4.52 L3.94,4.52 C4.08,4.52 4.12,4.52 3.94,4.52 L3.83,4.52 L3.25,4.66 C2.59,4.86 2.57,4.89 2.37,4.95 L2.46,5.04 C3.19,4.83 3.2,4.76 3.4,4.74 L3.94,4.61 L4.05,4.61 L4,4.62 Z M4.37,4.42 L4.44,4.42 L4.44,4.42 C4.3,4.45 4.3,4.44 4.39,4.42 L4.37,4.42 Z M2.43,4.98 L2.58,4.98 L2.43,4.98 Z M2.89,4.8 L2.6,4.9 C2.69915547,4.8548861 2.80317297,4.82133207 2.91,4.8 L2.89,4.8 Z M2.68,4.89 C2.83020148,4.82519436 2.98375297,4.76844707 3.14,4.72 C2.9888431,4.7642793 2.84166168,4.82114484 2.7,4.89 L2.68,4.89 Z" id="Shape" fill="#000000" fill-rule="nonzero"></path>
                            <path d="M3.8,4.55 L3.91,4.55 L3.8,4.55 Z" id="Path" fill="#000000" fill-rule="nonzero"></path>
                            <path d="M3.94,4.64 C4,4.64 3.94,4.64 4.02,4.64 L4.02,4.64 L3.91,4.64 L3.94,4.64 Z" id="Path" fill="#000000" fill-rule="nonzero"></path>
                            <path d="M3.58,5.26 L3.7,5.26 L3.58,5.26 Z" id="Path" fill="#000000" fill-rule="nonzero"></path>
                            <path d="M4,5.28 C4.62,5.15 4.45,5.04 5.35,4.85 L5.29,4.75 L5.29,4.75 C4.95,4.85 4.6,5.01 3.69,5.24 L3.69,5.24 L3.58,5.24 L3,5.38 L2.68,5.48 L2.68,5.48 L2.93,5.39 L2.68,5.48 C2.68398241,5.51321439 2.68398241,5.54678561 2.68,5.58 L2.98,5.47 L4,5.28 Z" id="Shape" fill="#000000" fill-rule="nonzero"></path>
                            <path d="M3.8,5.33 C3.62,5.33 3.72,5.33 3.72,5.33 C3.72,5.33 3.76,5.35 3.8,5.33 Z" id="Path" fill="#000000" fill-rule="nonzero"></path>
                            <path d="M4.67,5.72 C4.9169729,5.67660704 5.15842439,5.60618369 5.39,5.51 L5.7,5.43 C5.70305764,5.40342098 5.70305764,5.37657902 5.7,5.35 C5.56,5.35 5.61,5.35 5.7,5.35 L5.7,5.35 L5.46,5.42 L5.46,5.42 L4.99,5.57 C4.51536154,5.6475437 4.04733512,5.76120726 3.59,5.91 C3.28,6.02 3.05,6.1 2.86,6.15 C2.86494103,6.18650021 2.86494103,6.22349979 2.86,6.26 L2.94,6.26 L2.86,6.26 L2.86,6.26 C2.99,6.26 3.19,6.16 3.59,6.01 C3.94316742,5.88947971 4.30396481,5.79259894 4.67,5.72 Z M3.93,5.81 L4.06,5.81 L3.93,5.81 Z" id="Shape" fill="#000000" fill-rule="nonzero"></path>
                            <path d="M6,6 L6,5.93 C5.75,6.01 5.42,6.12 4.92,6.24 L4.92,6.24 C5.06,6.24 5.1,6.24 4.92,6.24 L4.81,6.24 L4.22,6.37 C3.43,6.62 3.56,6.61 3.22,6.71 C3.37,6.64 3.22,6.71 2.89,6.78 C2.89,6.78 2.89,6.86 2.89,6.9 C3.36127986,6.78779081 3.82543917,6.64754123 4.28,6.48 L5.28,6.25 C5.52611506,6.185448 5.76684012,6.10186292 6,6 L6,6 Z M3.41,6.7 L3.56,6.7 L3.41,6.7 Z M3.86,6.52 L3.58,6.63 C3.66960044,6.58179728 3.76330118,6.54163982 3.86,6.51 L3.86,6.52 Z M3.65,6.61 L4.11,6.44 L3.65,6.61 Z" id="Shape" fill="#000000" fill-rule="nonzero"></path>
                            <path d="M4.76,6.27 L4.88,6.27 C4.79,6.25 4.73,6.27 4.76,6.27 Z" id="Path" fill="#000000" fill-rule="nonzero"></path>
                            <path d="M5,6.33 C4.82,6.33 4.92,6.33 4.92,6.33 C4.92,6.33 4.94,6.35 5,6.33 Z" id="Path" fill="#000000" fill-rule="nonzero"></path>
                            <path d="M5.42,6.82 C5.57,6.76 5.62,6.82 5.9,6.68 C6.02630538,6.63363318 6.15696727,6.60013013 6.29,6.58 L6.29,6.48 C6.00757188,6.53410847 5.72999581,6.61102714 5.46,6.71 C5.03350202,6.87199021 4.5956506,7.00234293 4.15,7.1 C3.66143212,7.15492088 3.18324581,7.27951873 2.73,7.47 C2.72565578,7.51322445 2.72565578,7.55677555 2.73,7.6 L3.1,7.45 C3.88620694,7.29065918 4.66118496,7.08021257 5.42,6.82 L5.42,6.82 Z M5.78,6.64 L5.92,6.64 L5.78,6.64 Z M4.77,7.04 L4.64,7.04 L4.77,7.04 Z M3.49,7.21 C2.5920632,7.25875503 1.89622402,8.01364628 1.9206105,8.912575 C1.94499698,9.81150372 2.68074056,10.5275584 3.58,10.5275584 C4.47925944,10.5275584 5.21500302,9.81150372 5.2393895,8.912575 C5.26377598,8.01364628 4.5679368,7.25875503 3.67,7.21 C4.63982594,7.25882395 5.39385361,8.0720032 5.36943391,9.04275023 C5.34501421,10.0134973 4.55105413,10.787736 3.58,10.787736 C2.60894587,10.787736 1.81498579,10.0134973 1.79056609,9.04275023 C1.76614639,8.0720032 2.52017406,7.25882395 3.49,7.21 Z" id="Shape" fill="#000000" fill-rule="nonzero"></path>
                            <path d="M5.26,7.44 L5.39,7.44 L5.26,7.44 Z" id="Path" fill="#000000" fill-rule="nonzero"></path>
                            <path d="M5.39,7.41 L5.39,7.41 L5.28,7.41 L4.7,7.55 C3.91,7.8 4.04,7.79 3.7,7.88 C3.41930771,7.93299935 3.14212273,8.00313048 2.87,8.09 L2.58,8.15 L2.58,8.15 L3.06,8.05 L6.58,7.05 L6.58,6.99 C6.19186688,7.15309602 5.79452083,7.2933358 5.39,7.41 L5.39,7.41 Z M4.37,7.73 L4.09,7.84 C4.17724854,7.77938916 4.27120413,7.72905581 4.37,7.69 L4.37,7.73 Z M4.16,7.82 L4.62,7.65 L4.16,7.82 Z" id="Shape" fill="#000000" fill-rule="nonzero"></path>
                            <polygon id="Path" fill="#000000" fill-rule="nonzero" points="2.54 8.19 2.54 8.19 2.99 8.07"></polygon>
                            <polygon id="Path" fill="#000000" fill-rule="nonzero" points="1.94 0.57 2 0.57 1.93 0.5 1.93 0.5 1.93 0.58"></polygon>
                            <path d="M2.52,1.09 L2.44,1.09 L2.52,1.09 L2.52,1.09 L2.14,1.2 C2.14,1.2 2.14,1.27 2.14,1.31 L2.6,1.19 L2.52,1.09 Z" id="Shape" fill="#000000" fill-rule="nonzero"></path>
                            <path d="M7.11,14.11 C6.97,14.11 6.9,14.11 6.98,14.11 L7.14,14.11 L7.11,14.11 Z" id="Path" fill="#000000" fill-rule="nonzero"></path>
                            <path d="M6.52,14.37 L7.06,14.24 L7.17,14.24 L7.17,14.24 C7.51703753,14.1669654 7.8531629,14.0493215 8.17,13.89 L8.34,13.89 L8.34,13.8 C7.94020944,13.9477704 7.53299072,14.074609 7.12,14.18 C7.23,14.18 7.25,14.18 7.04,14.18 L6.34,14.34 C5.55,14.59 5.69,14.58 5.34,14.67 C5.05644379,14.7249178 4.7760403,14.7950186 4.5,14.88 L4.17,14.95 L4.24,15.04 C5.0131247,14.8640335 5.77458741,14.6402704 6.52,14.37 L6.52,14.37 Z M7.52,14.02 L7.59,14.02 L7.59,14.02 C7.45,14.05 7.44,14 7.54,14 L7.52,14.02 Z M5.83,14.49 L6.29,14.32 L5.83,14.49 Z M6.04,14.4 L5.75,14.5 C5.85044252,14.4582934 5.95411961,14.4248492 6.06,14.4 L6.04,14.4 Z M5.73,14.54 L5.58,14.54 L5.73,14.54 Z M5.36,14.64 L5.21,14.64 L5.36,14.64 Z M4.7,14.78 C4.52592884,14.828217 4.34888201,14.8649626 4.17,14.89 L4.7,14.78 Z" id="Shape" fill="#000000" fill-rule="nonzero"></path>
                            <path d="M7.06,14.24 C7.06,14.24 7.06,14.24 7.06,14.24 L7.14,14.24 L7.14,14.24 L7.06,14.24 Z" id="Path" fill="#000000" fill-rule="nonzero"></path>
                            <path d="M8.5,14.48 L8.5,14.38 C8.13663362,14.4246161 7.78043234,14.5153466 7.44,14.65 C7.01561983,14.8054976 6.58131795,14.9324474 6.14,15.03 C5.628382,15.0941084 5.12741878,15.225233 4.65,15.42 L4.73,15.51 L5.05,15.38 C5.86660854,15.2245318 6.67177649,15.0140522 7.46,14.75 C7.79961515,14.6347475 8.14721037,14.5445064 8.5,14.48 Z M5.68,15.11 C5.55,15.11 5.18,15.24 5.51,15.11 C5.67,15.1 5.87,15.08 5.68,15.11 Z M7.8,14.57 L7.95,14.57 L7.8,14.57 Z M6.65,15.01 C6.65,15.01 6.65,15.01 6.78,15.01 L6.65,15.01 Z" id="Shape" fill="#000000" fill-rule="nonzero"></path>
                            <path d="M7.08,15.43 L7.2,15.43 L7.08,15.43 Z" id="Path" fill="#000000" fill-rule="nonzero"></path>
                            <path d="M7.51,15.44 C8.07,15.33 7.98,15.24 8.6,15.08 L8.6,14.98 C8.3,15.08 7.94,15.22 7.22,15.4 L7.22,15.4 C7.36,15.4 7.4,15.4 7.22,15.4 L7.11,15.4 L6.52,15.54 C5.73,15.79 5.86,15.78 5.52,15.87 C5.68,15.8 5.46,15.87 5.16,15.96 L5.23,16.05 C5.6820025,15.9474034 6.12639036,15.8137529 6.56,15.65 L7.51,15.44 Z M7.66,15.3 L7.74,15.3 L7.74,15.3 C7.57,15.33 7.57,15.33 7.66,15.3 Z M5.31,15.94 L5.47,15.94 L5.31,15.94 Z M5.69,15.84 L5.83,15.84 L5.69,15.84 Z M6.14,15.66 L5.86,15.76 L6.14,15.66 Z M5.93,15.75 L6.39,15.58 L5.93,15.75 Z" id="Shape" fill="#000000" fill-rule="nonzero"></path>
                            <path d="M7.29,15.5 C7.11,15.5 7.21,15.5 7.21,15.5 L7.29,15.5 Z" id="Path" fill="#000000" fill-rule="nonzero"></path>
                            <path d="M8.7,15.74 L8.7,15.63 C8.16958631,15.7046872 7.653659,15.8598026 7.17,16.09 C6.56550666,16.2008546 5.97042253,16.3579836 5.39,16.56 L5.39,16.56 L5.64,16.47 L5.39,16.57 C5.38559489,16.6031878 5.38559489,16.6368122 5.39,16.67 C5.90319434,16.4919307 6.42769106,16.3482788 6.96,16.24 C7.52624049,16.0287187 8.10797564,15.8615534 8.7,15.74 Z M8.27,15.74 C8.43,15.74 8.62,15.67 8.44,15.74 C8.26,15.81 7.93,15.82 8.27,15.72 L8.27,15.74 Z M5.42,16.59 C5.570521,16.5289009 5.72405273,16.4754986 5.88,16.43 L5.42,16.59 Z M6.63,16.24 C6.44,16.24 6.51,16.24 6.68,16.24 C6.85,16.24 6.86,16.17 6.63,16.22 L6.63,16.24 Z" id="Shape" fill="#000000" fill-rule="nonzero"></path>
                            <path d="M6.66,16.33 C6.73,16.33 6.66,16.33 6.74,16.33 C6.56,16.34 6.66,16.33 6.66,16.33 Z" id="Path" fill="#000000" fill-rule="nonzero"></path>
                            <path d="M7.8,16.64 C8.04731998,16.5981074 8.28893835,16.5276354 8.52,16.43 L8.8,16.36 L8.8,16.27 C8.65,16.27 8.7,16.27 8.8,16.27 L8.8,16.27 L8.55,16.34 C8.55,16.34 8.55,16.34 8.55,16.34 L8.08,16.49 C7.60559448,16.5686887 7.1376533,16.6823316 6.68,16.83 C6.25672874,17.0013618 5.81807502,17.1319534 5.37,17.22 C5.37,17.22 5.37,17.29 5.37,17.32 C5.820197,17.245758 6.25995699,17.118194 6.68,16.94 C7.04598707,16.8143528 7.42020956,16.7141146 7.8,16.64 Z M7.07,16.73 L7.21,16.73 L7.07,16.73 Z M5.92,17.16 L6.05,17.16 L5.92,17.16 Z" id="Shape" fill="#000000" fill-rule="nonzero"></path>
                            <path d="M7.23,17.36 L7.34,17.36 L7.23,17.36 Z" id="Path" fill="#000000" fill-rule="nonzero"></path>
                            <path d="M5.5,17.86 L5.5,17.86 C5.5,17.86 5.5,17.93 5.5,17.96 C6.59,17.68 6.57,17.6 6.81,17.57 L7.35,17.44 L7.45,17.44 L7.45,17.44 C7.8143675,17.371933 8.16766578,17.2541669 8.5,17.09 L8.9,16.98 L8.9,16.88 L8.9,16.88 C8.56,16.98 8.19,17.14 7.36,17.35 L7.36,17.35 C7.5,17.35 7.54,17.35 7.36,17.35 L7.24,17.35 L6.66,17.49 C5.87,17.73 6,17.73 5.66,17.82 C5.78,17.82 5.66,17.82 5.5,17.82 L5.5,17.82 L5.5,17.86 Z M7.82,17.23 L7.9,17.23 L7.9,17.23 C7.73,17.26 7.73,17.25 7.82,17.23 Z M6.13,17.7 L6.59,17.53 L6.13,17.7 Z M6.34,17.61 L6.06,17.71 L6.34,17.61 Z M6.04,17.75 L5.89,17.75 L6.04,17.75 Z" id="Shape" fill="#000000" fill-rule="nonzero"></path>
                            <path d="M7.35,17.45 C7.35,17.45 7.35,17.45 7.35,17.45 L7.43,17.45 L7.43,17.45 L7.35,17.45 Z" id="Path" fill="#000000" fill-rule="nonzero"></path>
                            <path d="M7.45,18.09 C7.96014766,17.9023212 8.48108082,17.7453734 9.01,17.62 L9.01,17.51 L8.95,17.51 C8.82,17.51 8.45,17.65 8.78,17.51 C8.85660319,17.505588 8.93339681,17.505588 9.01,17.51 L9.01,17.51 C8.54,17.6 8.27,17.77 7.16,18.06 L7.16,18.06 C7.3,18.06 7.34,18.06 7.16,18.06 L7.05,18.06 L6.46,18.19 C6.19846177,18.2654535 5.94138694,18.3555966 5.69,18.46 L5.69,18.56 C5.92,18.49 6.18,18.41 6.46,18.3 L7.45,18.09 Z M5.67,18.51 L5.82,18.46 L5.67,18.51 Z M6.12,18.32 L5.84,18.43 C5.9299415,18.3852259 6.0236331,18.3484185 6.12,18.32 L6.12,18.32 Z M5.91,18.41 C6.05,18.41 6.19,18.3 6.37,18.25 L5.91,18.41 Z" id="Shape" fill="#000000" fill-rule="nonzero"></path>
                            <path d="M7,18.08 L7.12,18.08 L7,18.08 Z" id="Path" fill="#000000" fill-rule="nonzero"></path>
                            <path d="M7.24,18.14 C7.05,18.14 7.15,18.14 7.16,18.14 C7.17,18.14 7.2,18.17 7.24,18.14 Z" id="Path" fill="#000000" fill-rule="nonzero"></path>
                            <path d="M8.1,18.53 C8.34731998,18.4881074 8.58893835,18.4176354 8.82,18.32 L9.12,18.25 L9.12,18.16 L9.12,18.16 C8.95,18.16 9.01,18.16 9.12,18.16 L9.12,18.16 L8.86,18.23 C8.86,18.23 8.86,18.23 8.86,18.23 L8.39,18.37 C7.91573124,18.4538238 7.44791893,18.5707769 6.99,18.72 C6.46,18.9 6.13,19 5.92,19.05 C5.92330266,19.0799091 5.92330266,19.1100909 5.92,19.14 C6.26387159,19.0696071 6.59914497,18.9623196 6.92,18.82 C7.30582625,18.6950074 7.70018866,18.5980878 8.1,18.53 Z M7.37,18.62 L7.49,18.62 L7.37,18.62 Z M6.22,19.06 L6.35,19.06 L6.22,19.06 Z" id="Shape" fill="#000000" fill-rule="nonzero"></path>
                            <path d="M8.62,19.09 C8.83301758,19.052151 9.03882585,18.981299 9.23,18.88 L9.23,18.79 C9.01,18.86 8.72,18.95 8.33,19.05 L8.33,19.05 C8.47,19.05 8.5,19.05 8.33,19.05 L8.22,19.05 L7.63,19.19 C6.84,19.43 6.98,19.42 6.63,19.52 C6.77,19.46 6.63,19.52 6.39,19.52 L6.39,19.52 L6.48,19.52 L6.48,19.52 L6.41,19.52 L6.48,19.58 L6.75,19.58 C7.02,19.5 7.33,19.4 7.68,19.27 L8.62,19.09 Z M6.84,19.51 L6.99,19.51 L6.84,19.51 Z M7.29,19.32 L7.01,19.43 C7.0999415,19.3852259 7.1936331,19.3484185 7.29,19.32 Z M7.08,19.42 C7.2325511,19.3525432 7.38959405,19.2957404 7.55,19.25 C7.38879194,19.2932231 7.23155726,19.3500953 7.08,19.42 L7.08,19.42 Z" id="Shape" fill="#000000" fill-rule="nonzero"></path>
                            <path d="M8.19,19.08 L8.31,19.08 L8.19,19.08 Z" id="Path" fill="#000000" fill-rule="nonzero"></path>
                            <path d="M8.33,19.17 C8.39,19.17 8.33,19.17 8.41,19.17 C8.23,19.18 8.32,19.17 8.33,19.17 Z" id="Path" fill="#000000" fill-rule="nonzero"></path>
                            <path d="M3,8.09 L2.51,8.22 L2.51,8.28 C3.24866061,8.14480666 3.97457638,7.94743785 4.68,7.69 L5.68,7.46 C5.97151226,7.38488866 6.25592211,7.28450871 6.53,7.16 L6.53,7.16 L3.01,8.16 L3,8.09 Z M4,7.83 L3.85,7.83 L4,7.83 Z" id="Shape" fill="#000000" fill-rule="nonzero"></path>
                            <path d="M5.4,7.54 C5.47,7.54 5.4,7.54 5.48,7.54 C5.3,7.55 5.4,7.54 5.4,7.54 Z" id="Path" fill="#000000" fill-rule="nonzero"></path>
                            <path d="M2.61,8.84 L2.61,8.84 L2.67,8.84 L2.61,8.84 L2.61,8.95 C3.38,8.75 3.8,8.56 3.95,8.54 L4.49,8.41 L4.59,8.41 L4.59,8.41 C4.93722113,8.33762479 5.27343057,8.21995149 5.59,8.06 C5.96003772,7.93639754 6.34219656,7.85259078 6.73,7.81 C6.73559468,7.77690142 6.73559468,7.74309858 6.73,7.71 C6.43213895,7.7222722 6.13827694,7.78307124 5.86,7.89 C5.46,8 5.46,8.07 4.56,8.3 C4.67,8.3 4.68,8.3 4.48,8.3 L4.39,8.3 L3.78,8.44 C2.99,8.69 3.12,8.68 2.78,8.77 C2.94,8.75 2.82,8.78 2.61,8.84 Z M6.15,7.84 C6.31,7.84 6.5,7.78 6.32,7.84 C6.14,7.9 5.82,7.91 6.15,7.81 L6.15,7.84 Z M5,8.2 L5.08,8.2 L5.08,8.2 C4.9,8.23 4.9,8.22 5,8.2 Z M3.31,8.67 L3.77,8.5 L3.31,8.67 Z M3.52,8.58 L3.24,8.68 L3.52,8.58 Z M3.22,8.72 L3.07,8.72 L3.22,8.72 Z M2.85,8.82 L2.69,8.82 L2.85,8.82 Z" id="Shape" fill="#000000" fill-rule="nonzero"></path>
                            <path d="M4.56,8.29 C4.43,8.29 4.36,8.34 4.43,8.29 L4.6,8.29 L4.56,8.29 Z" id="Path" fill="#000000" fill-rule="nonzero"></path>
                            <path d="M4.52,8.42 C4.52,8.42 4.52,8.42 4.52,8.42 L4.6,8.42 L4.6,8.42 L4.52,8.42 Z" id="Path" fill="#000000" fill-rule="nonzero"></path>
                            <path d="M3.7,9.18 L3.82,9.18 L3.7,9.18 Z" id="Path" fill="#000000" fill-rule="nonzero"></path>
                            <path d="M2.86,9.4 L2.86,9.4 L3.05,9.34 L2.86,9.4 L2.92,9.49 C3.02786186,9.44029536 3.14240344,9.40660666 3.26,9.39 L3.8,9.26 L3.91,9.26 L3.91,9.26 C4.25689682,9.19136753 4.59316096,9.07703772 4.91,8.92 C6.14,8.55 5.91,8.8 6.98,8.41 C6.98398241,8.37678561 6.98398241,8.34321439 6.98,8.31 C6.67297774,8.41805016 6.35890778,8.50492057 6.04,8.57 C5.28081838,8.7056019 4.53472755,8.90634382 3.81,9.17 L3.81,9.17 C3.95,9.17 3.99,9.17 3.81,9.17 L3.7,9.17 L3.11,9.31 L2.86,9.4 Z M6.72,8.49 L6.58,8.49 L6.72,8.49 Z M5.44,8.66 C5.6,8.66 5.8,8.59 5.62,8.66 C6.58982594,8.70882395 7.34385361,9.5220032 7.31943391,10.4927502 C7.29501421,11.4634973 6.50105413,12.237736 5.53,12.237736 C4.55894587,12.237736 3.76498579,11.4634973 3.74056609,10.4927502 C3.71614639,9.5220032 4.47017406,8.70882395 5.44,8.66 L5.44,8.66 Z" id="Shape" fill="#000000" fill-rule="nonzero"></path>
                            <path d="M3.81,9.27 L3.81,9.27 C3.87,9.27 3.81,9.27 3.89,9.27 L3.89,9.27 L3.81,9.27 Z" id="Path" fill="#000000" fill-rule="nonzero"></path>
                            <path d="M5.58,9.35 C5.17596891,9.41735789 4.78035851,9.5279947 4.4,9.68 C4.06234138,9.75313888 3.72858449,9.84325324 3.4,9.95 L3.46,10.02 L3.84,9.89 C4.05,9.89 4.37,9.8 4.52,9.75 L5.06,9.57 C5.81533868,9.44573187 6.55822523,9.25499073 7.28,9 L7.28,8.91 L6.98,9.02 C7.07704647,8.97573158 7.17733951,8.93895746 7.28,8.91 L7.28,8.91 C6.77,9.07 6.8,9.09 6.5,9.17 C6.66,9.05 6,9.27 5.58,9.35 Z M5.26,9.43 L5.78,9.32 C5.60906497,9.36720751 5.43540905,9.40394241 5.26,9.43 Z M7.12,8.93 L6.84,9.03 C6.92902255,8.98564585 7.02302065,8.9520751 7.12,8.93 L7.12,8.93 Z M6.81,9.07 L6.67,9.07 L6.81,9.07 Z" id="Shape" fill="#000000" fill-rule="nonzero"></path>
                            <path d="M7,9.61 C6.87,9.61 6.8,9.61 6.88,9.61 L7.04,9.61 L7,9.61 Z" id="Path" fill="#000000" fill-rule="nonzero"></path>
                            <path d="M4.43,10.32 C4.1936817,10.3593108 3.95992988,10.4127398 3.73,10.48 L3.73,10.57 L3.83,10.57 C4.70145604,10.4122377 5.56036268,10.1916625 6.4,9.91 L6.94,9.78 C6.94,9.78 6.94,9.78 7.05,9.78 L7.05,9.78 L7.4,9.7 C7.39619981,9.66677498 7.39619981,9.63322502 7.4,9.6 L7.4,9.6 L7.4,9.6 L7.06,9.69 L6.98,9.69 L6.28,9.85 C5.55,10.08 5.6,10.1 5.28,10.18 C4.99437619,10.2115 4.71063871,10.2582333 4.43,10.32 L4.43,10.32 Z M4.11,10.4 L4.63,10.29 L4.11,10.4 Z M5.76,9.98 L6.22,9.81 L5.76,9.98 Z M5.97,9.89 L5.69,10 C5.78958187,9.95351396 5.89338979,9.9166789 6,9.89 L5.97,9.89 Z M5.67,10.03 L5.52,10.03 L5.67,10.03 Z" id="Shape" fill="#000000" fill-rule="nonzero"></path>
                            <path d="M7,9.74 L7,9.74 C7.06,9.74 7,9.74 7.07,9.74 L7.07,9.74 C7,9.72 7,9.73 7,9.74 Z" id="Path" fill="#000000" fill-rule="nonzero"></path>
                            <path d="M5.06,10.79 L5.17,10.79 C5.09,10.77 5.05,10.79 5.06,10.79 Z" id="Path" fill="#000000" fill-rule="nonzero"></path>
                            <path d="M5.17,10.88 L5.28,10.88 L5.28,10.88 C5.64396676,10.8103911 5.99706127,10.692693 6.33,10.53 C6.74478246,10.4036507 7.16969076,10.3133159 7.6,10.26 C7.6,10.26 7.6,10.19 7.6,10.15 L7.43,10.15 C6.6669504,10.2828718 5.91730198,10.4836704 5.19,10.75 L5.19,10.75 L5.08,10.75 L4.5,10.88 L3.88,11.09 L3.88,11.21 C4.44,11.05 4.47,10.99 4.65,10.97 L5.17,10.88 Z M6.81,10.27 C6.97,10.22 7.16,10.2 6.98,10.27 C6.8,10.34 6.47,10.37 6.81,10.27 Z M4.17,11.03 L3.89,11.14 C3.97772096,11.0828639 4.07165855,11.0358951 4.17,11 L4.17,11.03 Z M3.96,11.12 L4.42,10.95 L3.96,11.12 Z" id="Shape" fill="#000000" fill-rule="nonzero"></path>
                            <path d="M5.17,10.88 L5.17,10.88 C5.23,10.88 5.17,10.88 5.25,10.88 L5.25,10.88 L5.17,10.88 Z" id="Path" fill="#000000" fill-rule="nonzero"></path>
                            <path d="M4.37,11.75 C4.71682933,11.6762206 5.05286121,11.5586095 5.37,11.4 C6.15823205,11.2479531 6.93636742,11.0475749 7.7,10.8 C7.70465217,10.766829 7.70465217,10.733171 7.7,10.7 C7.01315442,10.9160705 6.31554766,11.0963134 5.61,11.24 C5.21,11.34 5.22,11.42 4.31,11.64 C4.42,11.64 4.44,11.64 4.23,11.64 L4.15,11.64 L3.74,11.74 L3.74,11.86 L4.26,11.74 L4.37,11.74 L4.37,11.75 Z M7.17,11 L7,11 L7.17,11 Z M5.9,11.17 C6.06,11.12 6.25,11.1 6.07,11.17 C5.89,11.24 5.56,11.27 5.9,11.17 L5.9,11.17 Z" id="Shape" fill="#000000" fill-rule="nonzero"></path>
                            <polygon id="Path" fill="#000000" fill-rule="nonzero" points="4.31 11.65 4.18 11.65 4.34 11.65"></polygon>
                            <path d="M4.29,11.78 C4.35,11.78 4.29,11.78 4.37,11.78 L4.37,11.78 L4.26,11.78 L4.29,11.78 Z" id="Path" fill="#000000" fill-rule="nonzero"></path>
                            <path d="M6.23,11.86 C6.58914272,11.7392697 6.95684277,11.6456733 7.33,11.58 C7.52410219,11.5425401 7.71475759,11.4890228 7.9,11.42 C7.9,11.42 7.9,11.36 7.9,11.33 L7.63,11.41 C7.15598242,11.4949989 6.68825029,11.6119319 6.23,11.76 C5.80561983,11.9154976 5.37131795,12.0424474 4.93,12.14 C4.4932515,12.1837342 4.06532602,12.2915579 3.66,12.46 C3.66,12.46 3.66,12.53 3.66,12.57 C4.12008973,12.3937842 4.60053406,12.276193 5.09,12.22 C5.48015078,12.134894 5.86173006,12.0143953 6.23,11.86 L6.23,11.86 Z M6.59,11.68 L6.72,11.68 L6.59,11.68 Z M5.57,12.08 L5.44,12.08 L5.57,12.08 Z M4.47,12.22 C4.34,12.22 3.97,12.35 4.3,12.22 C4.46,12.21 4.66,12.19 4.47,12.22 L4.47,12.22 Z" id="Shape" fill="#000000" fill-rule="nonzero"></path>
                            <path d="M5,12.89 L5.54,12.71 C6.38799727,12.5693068 7.22143343,12.3517431 8.03,12.06 C8.03,12.06 8.03,11.99 8.03,11.95 L8,11.95 C7.21,12.2 7.34,12.19 7,12.28 C6.71574727,12.3317331 6.43515623,12.4018809 6.16,12.49 C5.75644383,12.5545758 5.36089051,12.6618445 4.98,12.81 C3.73,13.09 3.98,13.11 3.65,13.17 L3.65,13.17 L3.65,13.25 C3.89781488,13.1924553 4.14165548,13.1189691 4.38,13.03 C4.54,13 4.86,13 5,12.89 Z M7.43,12.16 L7.89,11.99 L7.43,12.16 Z M7.64,12.07 L7.36,12.18 C7.45315668,12.1346746 7.55021787,12.0978583 7.65,12.07 L7.64,12.07 Z M7.34,12.21 L7.19,12.21 L7.34,12.21 Z M6.8,12.32 C6.8,12.32 6.8,12.32 6.8,12.32 C6.8,12.32 6.58,12.39 6.81,12.32 L6.8,12.32 Z M6.3,12.47 L5.78,12.58 C5.95431054,12.5327784 6.13129448,12.4960458 6.31,12.47 L6.3,12.47 Z" id="Shape" fill="#000000" fill-rule="nonzero"></path>
                            <path d="M3.69,13.89 L4.07,13.8 L4.17,13.8 L4.17,13.8 C4.51682933,13.7262206 4.85286121,13.6086095 5.17,13.45 C5.98302652,13.2931945 6.78477978,13.0827343 7.57,12.82 L8.11,12.67 L8.11,12.55 L7.58,12.72 C6.87200601,12.9502403 6.15067705,13.1372515 5.42,13.28 C5.02,13.39 5.02,13.46 4.12,13.69 L4.04,13.69 L3.95,13.69 L3.64,13.76 C3.6494911,13.8057626 3.66637927,13.8496719 3.69,13.89 Z M7.99,12.62 L8.12,12.62 L7.99,12.62 Z M7,13 L6.87,13 C6.87,13 6.81,13.06 7,13 Z M5.73,13.17 C5.89,13.17 6.08,13.11 5.9,13.17 C5.72,13.23 5.37,13.29 5.7,13.19 L5.73,13.17 Z M4.57,13.56 L4.65,13.56 L4.65,13.56 C4.45,13.61 4.45,13.6 4.54,13.58 L4.57,13.56 Z" id="Shape" fill="#000000" fill-rule="nonzero"></path>
                            <path d="M4.11,13.67 C3.98,13.67 3.91,13.67 3.98,13.67 L4.15,13.67 L4.11,13.67 Z" id="Path" fill="#000000" fill-rule="nonzero"></path>
                            <path d="M4.07,13.8 C4.07,13.8 4.07,13.8 4.07,13.8 L4.15,13.8 L4.15,13.8 L4.07,13.8 Z" id="Path" fill="#000000" fill-rule="nonzero"></path>
                            <path d="M7.6,13.39 L7.71,13.39 L7.6,13.39 Z" id="Path" fill="#000000" fill-rule="nonzero"></path>
                            <path d="M4.06,14.46 C4.53483485,14.2939581 5.02339665,14.1701445 5.52,14.09 C6.96,13.74 6.91,13.64 7.17,13.61 L7.71,13.48 L7.82,13.48 L7.82,13.48 L8.3,13.36 L8.3,13.23 L7.74,13.38 L7.74,13.38 C7.88,13.38 7.92,13.38 7.74,13.38 L7.63,13.38 L7.04,13.52 C6.32,13.75 6.36,13.77 6.04,13.85 C5.75644379,13.9049178 5.4760403,13.9750186 5.2,14.06 C4.79679667,14.1262091 4.40141116,14.2334323 4.02,14.38 L3.92,14.38 L3.92,14.46 C3.96628464,14.4684446 4.01371536,14.4684446 4.06,14.46 L4.06,14.46 Z M8.19,13.26 L8.24,13.26 C8.09,13.29 8.09,13.29 8.19,13.26 L8.19,13.26 Z M6.49,13.73 L6.95,13.56 L6.49,13.73 Z M6.7,13.64 L6.42,13.74 L6.7,13.64 Z M6.4,13.78 L6.25,13.78 L6.4,13.78 Z M6.03,13.88 L5.87,13.88 L6.03,13.88 Z M5.86,13.88 L5.86,13.88 C5.7,14 5.63,14 5.86,13.89 L5.86,13.88 Z M5.36,14.03 L4.84,14.14 C5.01039,14.0830173 5.1840328,14.0362673 5.36,14 L5.36,14.03 Z" id="Shape" fill="#000000" fill-rule="nonzero"></path>
                            <path d="M7.71,13.48 C7.71,13.48 7.71,13.48 7.71,13.48 C7.71,13.48 7.71,13.48 7.78,13.48 L7.78,13.48 L7.71,13.48 Z" id="Path" fill="#000000" fill-rule="nonzero"></path>
                        </g>
                        <path d="M131.8,71.1 C131.8,71.1 132.17,60.8 133.11,56.03 C133.716205,52.5941588 134.993905,49.3115571 136.87,46.37 C138,44.69 138.82,43.95 138.87,44.14 C139.011633,44.6418604 138.943044,45.1797427 138.68,45.63 C138.32,46.02 137.97,46.17 137.97,46.8 C137.97,47.43 138.4,47.8 138.21,48.48 C138.02,49.16 137.7,49.22 137.58,50.05 C137.46,50.88 137.82,50.79 137.7,51.73 C137.58,52.67 136.95,52.67 136.92,53.25 C136.89,53.83 137.35,54.43 137.11,55.36 C136.87,56.29 136.33,56.26 136.29,56.85 C136.25,57.44 136.68,57.75 136.6,58.65 C136.52,59.55 135.9,59.74 135.74,60.21 C135.58,60.68 136.17,61.03 136.06,61.78 C135.95,62.53 134.24,70 134.24,70 L131.8,71.1 Z" id="Path" fill="#426F61" fill-rule="nonzero"></path>
                        <path d="M136.83,70.25 C138.212025,67.6581806 139.889895,65.2353373 141.83,63.03 C143.94,60.76 147.43,58.73 148.68,58.67 C148.709788,58.9865389 148.587279,59.2983804 148.35,59.51 C147.846746,59.8905728 147.533064,60.4705196 147.49,61.1 C147.49,61.88 147.56,62.43 147.04,62.85 C146.52,63.27 145.5,63.34 145.19,63.85 C144.88,64.36 145.24,65.1 144.64,65.65 C144.04,66.2 143.29,65.96 142.71,66.38 C142.087989,66.8589406 141.624551,67.5140267 141.38,68.26 C140.815074,69.2807245 139.736583,69.9101636 138.57,69.9 L137.96,70.68 L136.83,70.25 Z" id="Path" fill="#37B99A" fill-rule="nonzero"></path>
                        <path d="M142.2,47.76 C140.472587,50.0148012 138.930867,52.4059712 137.59,54.91 C135.435931,60.400708 133.847707,66.0968711 132.85,71.91 L136.65,71.91 C137.02583,71.7106912 137.274496,71.3339245 137.31,70.91 C137.296629,70.3437475 137.576396,69.8106771 138.05,69.5 C138.45,69.27 138.6,68.41 138.49,67.74 C138.287317,66.9638702 138.525176,66.1390348 139.11,65.59 C139.782949,65.0555412 140.194387,64.2581525 140.24,63.4 C140.24,62.62 139.85,61.13 140.05,60.4 C140.25,59.67 141.26,58.87 141.38,57.94 C141.5,57.01 140.87,55.59 141.3,54.61 C141.73,53.63 142.3,53.36 142.43,52.38 C142.56,51.4 141.89,50.82 141.89,50.38 C141.89,49.94 142.28,49.68 142.36,49.17 C142.385873,48.6943601 142.33179,48.2177491 142.2,47.76 L142.2,47.76 Z" id="Path" fill="#4E7568" fill-rule="nonzero"></path>
                        <g id="Group" opacity="0.24" style="mix-blend-mode: multiply;" stroke-width="1" fill="none" fill-rule="evenodd" transform="translate(133.000000, 48.000000)">
                            <path d="" id="Path" fill="#000000" fill-rule="nonzero"></path>
                            <path d="" id="Path" fill="#000000" fill-rule="nonzero"></path>
                            <path d="M7.15,6.19 C6.86711639,6.16967864 6.588094,6.11252947 6.32,6.02 C6.1578288,5.97233813 5.98884344,5.95205989 5.82,5.96 L5.82,6.04 L6.07,6.04 C6.6322921,6.17141553 7.20405921,6.25835088 7.78,6.3 C8.14,6.3 7.78,6.23 8.41,6.41 C8.40458823,6.37688632 8.40458823,6.34311368 8.41,6.31 C7.65,6.14 8.22,6.31 7.15,6.19 Z M8.32,6.41 L8.17,6.41 L8.32,6.41 Z" id="Shape" fill="#000000" fill-rule="nonzero"></path>
                            <path d="M5.45,6.6 L5.45,6.68 L5.78,6.68 C6.07532465,6.67579793 6.37027449,6.70261155 6.66,6.76 L8.22,6.99 C8.22488923,6.96355744 8.22488923,6.93644256 8.22,6.91 C7.85,6.86 7.22,6.77 6.77,6.68 C6.32,6.59 5.81,6.64 5.45,6.6 Z" id="Shape" fill="#000000" fill-rule="nonzero"></path>
                            <path d="M6.76,7.41 C6.47984388,7.39358771 6.20359078,7.33631572 5.94,7.24 C5.67890517,7.19457344 5.41490118,7.16783886 5.15,7.16 L5.15,7.24 L5.68,7.3 C6.24201647,7.4309504 6.81401764,7.5145763 7.39,7.55 C7.77,7.6 7.28,7.47 8.2,7.71 C8.20492875,7.67684886 8.20492875,7.64315114 8.2,7.61 L8.14,7.61 C7.23,7.36 7.86,7.55 6.76,7.41 Z M7.76,7.6 L7.91,7.6 L7.76,7.6 Z" id="Shape" fill="#000000" fill-rule="nonzero"></path>
                            <path d="M7.27,8.12 C6.41,7.88 7.05,8.12 5.94,7.94 C5.66020177,7.92092988 5.38431899,7.86373467 5.12,7.77 C5.03501375,7.74554654 4.94799422,7.72881201 4.86,7.72 L4.86,7.72 L4.86,7.72 L4.86,7.8 L4.86,7.8 C5.42129321,7.9365403 5.99348976,8.02354095 6.57,8.06 C6.95,8.11 6.44,7.98 7.45,8.24 C7.85,8.24 7.57,8.24 8.08,8.32 L8.28,8.32 C8.28,8.32 8.28,8.25 8.28,8.22 C7.94107763,8.21588904 7.60314814,8.18243068 7.27,8.12 Z M6.98,8.12 L7.13,8.12 L6.98,8.12 Z" id="Shape" fill="#000000" fill-rule="nonzero"></path>
                            <path d="M8.33,8.94 L8.33,8.94 C8.10862874,8.8968633 7.88490752,8.86681119 7.66,8.85 C7.61,8.85 7.73,8.85 7.66,8.85 C7.59,8.85 6.66,8.78 7.02,8.78 C7.02,8.78 6.02,8.66 5.19,8.5 L4.53,8.42 L4.53,8.52 C4.7250745,8.51584396 4.91990725,8.53599907 5.11,8.58 C7.62,9 7.06,8.78 8.26,8.98 L8.35,8.98 L8.33,8.94 Z" id="Shape" fill="#000000" fill-rule="nonzero"></path>
                            <path d="M6.16,9.25 C5.87646557,9.23456025 5.59677323,9.17727386 5.33,9.08 C4.98,8.99 4.8,9.08 4.43,8.98 L4.29,8.98 L4.29,9.07 C4.44,9.07 4.68,9.13 5.06,9.16 C5.62142097,9.29589164 6.19356057,9.38288363 6.77,9.42 C7.16,9.42 6.65,9.34 7.66,9.6 C8.06,9.6 7.78,9.6 8.29,9.68 L8.42,9.68 L8.42,9.58 C8.11351821,9.56265895 7.80907801,9.51916749 7.51,9.45 C6.63,9.2 7.25,9.38 6.16,9.25 Z M7.16,9.44 L7.31,9.44 L7.16,9.44 Z" id="Shape" fill="#000000" fill-rule="nonzero"></path>
                            <path d="M7,10 C6.15,9.77 6.77,10 5.68,9.83 C5.39711639,9.80967864 5.118094,9.75252947 4.85,9.66 C4.58583783,9.61084625 4.3184805,9.58076855 4.05,9.57 L4.05,9.65 L4.58,9.71 C5.1422921,9.84141553 5.71405921,9.92835088 6.29,9.97 C6.68,9.97 6.16,9.88 7.18,10.14 L7.8,10.23 L8.32,10.23 L8.32,10.14 C7.8766379,10.1339088 7.43477613,10.0870446 7,10 L7,10 Z M6.69,10.01 L6.85,10.01 L6.69,10.01 Z" id="Shape" fill="#000000" fill-rule="nonzero"></path>
                            <path d="M6.58,10.58 C6.58,10.58 5.58,10.45 4.75,10.3 C4.38,10.24 4.09,10.22 3.83,10.2 C3.82601759,10.2332144 3.82601759,10.2667856 3.83,10.3 C4.11132551,10.3029646 4.39206414,10.3263595 4.67,10.37 C7.16,10.79 6.67,10.58 7.82,10.77 L7.88,10.77 L7.88,10.77 L8.02,10.77 L8.02,10.77 L8.02,10.77 L8.02,10.77 C7.84,10.77 7.49,10.68 7.18,10.66 C7.13,10.66 7.25,10.66 7.18,10.66 C7.11,10.66 6.22,10.58 6.58,10.58 Z" id="Shape" fill="#000000" fill-rule="nonzero"></path>
                            <path d="M6.37,11.2 C6.08585578,11.1894573 5.80540865,11.1320163 5.54,11.03 C5.2,10.94 5,11.03 4.64,10.93 C4.31186134,10.8546737 3.97664409,10.8144477 3.64,10.81 L3.64,10.91 C3.78,10.91 3.92,10.91 4.08,10.91 C4.47670854,10.9901983 4.87722045,11.0502751 5.28,11.09 C5.84245322,11.2205772 6.41415454,11.3075025 6.99,11.35 C7.19473063,11.3420062 7.39892848,11.3760392 7.59,11.45 L7.66,11.36 C6.87,11.16 7.43,11.33 6.37,11.2 Z M5.37,11.01 C5.31,11.01 5.03,11.01 5.37,11.01 C5.35,11 5.39,11 5.38,11 L5.37,11.01 Z M7.54,11.43 L7.39,11.43 L7.54,11.43 Z" id="Shape" fill="#000000" fill-rule="nonzero"></path>
                            <path d="M4.35,11.55 C4.06183908,11.4464066 3.75569753,11.4021861 3.45,11.42 C3.44531646,11.4498172 3.44531646,11.4801828 3.45,11.51 L3.63,11.51 C4.02,11.51 3.51,11.42 4.52,11.69 C4.73145308,11.7036048 4.94185771,11.7303228 5.15,11.77 C5.44488561,11.7654941 5.73953504,11.7889321 6.03,11.84 L7.2,12.02 C7.20180999,11.993364 7.20180999,11.966636 7.2,11.94 C4.49,11.53 4.91,11.71 4.35,11.55 Z M4.07,11.55 L4.22,11.55 L4.07,11.55 Z" id="Shape" fill="#000000" fill-rule="nonzero"></path>
                            <path d="M6.37,12.49 C6.09020177,12.4709299 5.81431899,12.4137347 5.55,12.32 C5.25190302,12.2713303 4.9515099,12.2379533 4.65,12.22 C4.19884425,12.1284474 3.74027764,12.0782394 3.28,12.07 L3.28,12.07 L7.01,12.6 L7.01,12.54 C6.79596988,12.53395 6.58237288,12.5172627 6.37,12.49 Z" id="Shape" fill="#000000" fill-rule="nonzero"></path>
                            <polygon id="Path" fill="#000000" fill-rule="nonzero" points="9.09 0.74 9.09 0.81 9.4 0.81 9.4 0.73"></polygon>
                            <path d="M9.25,1.37 L9.25,1.37 C9.06,1.37 8.92,1.37 8.73,1.37 L8.73,1.45 L9.15,1.5 L9.24,1.5 C9.24376476,1.47011811 9.24376476,1.43988189 9.24,1.41 C9.2,1.36 9,1.35 9.25,1.37 Z" id="Path" fill="#000000" fill-rule="nonzero"></path>
                            <path d="M8.39,1.94 L8.39,2.01 C8.56,2.01 8.76,2.08 8.96,2.11 L8.96,2.02 L8.85,2.02 C8.69488377,2.00485995 8.54111999,1.97811843 8.39,1.94 Z" id="Path" fill="#000000" fill-rule="nonzero"></path>
                            <path d="M8.83,2.75 L9,2.75 L8.94,2.64 C8.62679051,2.63090293 8.31526002,2.59070545 8.01,2.52 L8.01,2.52 L7.95,2.61 L8.19,2.67 C8.6,2.71 8.32,2.68 8.83,2.75 Z" id="Path" fill="#000000" fill-rule="nonzero"></path>
                            <path d="M8.64,3.22 C8.24,3.16 7.92,3.14 7.64,3.11 L7.57,3.21 L7.66,3.21 C7.95503725,3.19995258 8.25026136,3.22343632 8.54,3.28 L9.37,3.41 C9.36623524,3.38011811 9.36623524,3.34988189 9.37,3.32 L8.64,3.22 Z" id="Path" fill="#000000" fill-rule="nonzero"></path>
                            <path d="M9.22,4 C9.16,4 8.22,3.92 8.58,3.93 C8.71,3.93 8.28,3.93 8.27,3.93 L7.27,3.77 L7.21,3.85 C8.86,4.12 8.77,4.02 9.49,4.12 L9.49,4 L9.22,4 C9.14,4 9.26,4 9.22,4 Z" id="Shape" fill="#000000" fill-rule="nonzero"></path>
                            <path d="M7.2,4.37 C7.43,4.37 7.43,4.46 8.4,4.55 C8.56,4.55 8.91,4.66 9.34,4.73 C9.34447574,4.70352114 9.34447574,4.67647886 9.34,4.65 C9.11532872,4.6233981 8.89409928,4.57311868 8.68,4.5 C8.33,4.4 8.15,4.5 7.78,4.39 C7.45104768,4.31944388 7.11630607,4.27927489 6.78,4.27 L6.72,4.37 C6.87970504,4.38373957 7.04029496,4.38373957 7.2,4.37 L7.2,4.37 Z M8.51,4.47 L8.51,4.47 C8.51,4.47 8.2,4.45 8.51,4.47 Z" id="Shape" fill="#000000" fill-rule="nonzero"></path>
                            <path d="M7.66,5 C7.18,4.92 6.81,4.91 6.46,4.88 L6.41,4.96 L6.66,4.96 C6.95819337,4.95574999 7.25613768,4.97918381 7.55,5.03 C8.26,5.15 8.73,5.22 9.06,5.26 L9.06,5.19 C8.73,5.18 8.16,5.1 7.66,5 Z" id="Shape" fill="#000000" fill-rule="nonzero"></path>
                            <path d="M8,5.74 C7.71741394,5.7175481 7.43865802,5.66045351 7.17,5.57 C6.82,5.48 6.65,5.57 6.28,5.47 L6.09,5.47 L6.09,5.55 C6.36775967,5.60211384 6.64818731,5.63883651 6.93,5.66 C7.48803232,5.79591424 8.05685332,5.88291039 8.63,5.92 L8.63,5.92 L8.69,5.82 C8.45855522,5.80776668 8.22810398,5.7810477 8,5.74 L8,5.74 Z" id="Shape" fill="#000000" fill-rule="nonzero"></path>
                            <path d="M4.48,19.15 C4.14,19.06 3.94,19.15 3.58,19.05 C2.4,18.82 2.78,19.05 1.85,18.84 L1.85,18.93 C2.22809252,19.007612 2.61528534,19.0311803 3,19 C3.39558717,19.0864283 3.79646459,19.1465599 4.2,19.18 C4.4,19.18 4.89,19.35 5.47,19.42 C5.47,19.42 5.47,19.35 5.47,19.32 L5.34,19.32 C5.04633798,19.3075501 4.75631223,19.2502194 4.48,19.15 L4.48,19.15 Z" id="Shape" fill="#000000" fill-rule="nonzero"></path>
                            <path d="M3.11,19.64 C2.26,19.41 2.88,19.64 1.79,19.47 L1.7,19.47 L1.7,19.56 C1.93171751,19.5957276 2.16558243,19.6157732 2.4,19.62 C2.78,19.62 2.28,19.53 3.28,19.8 C3.69,19.8 3.41,19.8 3.91,19.88 C4.20819337,19.87575 4.50613768,19.8991838 4.8,19.95 L5.55,20.07 L5.55,20 L4.91,19.9 C4.12,19.74 3.64,19.79 3.11,19.64 Z M2.82,19.64 L2.97,19.64 L2.82,19.64 Z" id="Shape" fill="#000000" fill-rule="nonzero"></path>
                            <path d="M4.92,20.55 C4.63711639,20.5296786 4.358094,20.4725295 4.09,20.38 C3.75,20.29 3.56,20.38 3.19,20.28 C2.08,20.06 2.37,20.28 1.54,20.08 L1.54,20.18 C1.89557387,20.249046 2.25848817,20.2725682 2.62,20.25 C2.85,20.25 2.86,20.34 3.82,20.43 C4.372346,20.5604314 4.93406656,20.6473644 5.5,20.69 C5.5,20.69 5.5,20.63 5.5,20.6 L4.92,20.55 Z" id="Shape" fill="#000000" fill-rule="nonzero"></path>
                            <path d="M4.1,21.07 C3.81633161,21.055607 3.53648488,20.998289 3.27,20.9 C2.93,20.81 2.74,20.9 2.37,20.8 C2.04228197,20.7222855 1.70680045,20.6820277 1.37,20.68 L1.37,20.78 C1.5,20.78 1.64,20.78 1.79,20.78 C1.94,20.78 2.02,20.87 2.99,20.96 C3.55245322,21.0905772 4.12415454,21.1775025 4.7,21.22 C4.88378999,21.2037144 5.06882608,21.2311271 5.24,21.3 L5.24,21.3 L5.13,21.3 L5.24,21.3 C5.24,21.3 5.24,21.25 5.24,21.22 C4.63,21 5.13,21.2 4.1,21.07 Z M3.1,20.88 C3.04,20.88 2.76,20.88 3.1,20.88 C3.08,20.88 3.13,20.89 3.11,20.88 L3.1,20.88 Z" id="Shape" fill="#000000" fill-rule="nonzero"></path>
                            <path d="M3.36,21.58 C2.61,21.45 2.12,21.5 1.59,21.35 L1.23,21.26 L1.23,21.36 L1.76,21.5 C1.97145308,21.5136048 2.18185771,21.5403228 2.39,21.58 C2.68490495,21.5748809 2.97961288,21.5983236 3.27,21.65 C3.9,21.76 4.34,21.82 4.66,21.86 L4.72,21.79 L3.36,21.58 Z M1.3,21.36 L1.45,21.36 L1.3,21.36 Z" id="Shape" fill="#000000" fill-rule="nonzero"></path>
                            <path d="M4.31,22.39 C4.0305103,22.3687121 3.75491757,22.311577 3.49,22.22 C3.19190302,22.1713303 2.8915099,22.1379533 2.59,22.12 C1.53,21.91 1.73,22.06 1.05,21.94 L1.05,22.04 C1.38222502,22.0784416 1.71777498,22.0784416 2.05,22.04 C2.44670854,22.1201983 2.84722045,22.1802751 3.25,22.22 C3.43,22.22 3.88,22.37 4.41,22.44 L4.41,22.34 L4.31,22.39 Z" id="Shape" fill="#000000" fill-rule="nonzero"></path>
                            <path d="M3,22.79 C2.66,22.7 2.47,22.79 2.11,22.69 C1.70542083,22.6053764 1.29333056,22.5618221 0.88,22.56 L0.88,22.65 C1.09972934,22.665433 1.32027066,22.665433 1.54,22.65 C1.93558717,22.7364283 2.33646459,22.7965599 2.74,22.83 C3.25700384,22.9513104 3.78149018,23.038168 4.31,23.09 C4.31468354,23.0601828 4.31468354,23.0298172 4.31,23 L3.84,22.95 C3.55359824,22.9387629 3.27047831,22.8848353 3,22.79 L3,22.79 Z" id="Shape" fill="#000000" fill-rule="nonzero"></path>
                            <path d="M1.13,23.21 L0.72,23.11 C0.714405319,23.1430986 0.714405319,23.1769014 0.72,23.21 L1.29,23.35 L1.92,23.44 C2.21505282,23.4292472 2.5103575,23.4527374 2.8,23.51 L3.93,23.69 L4.01,23.61 C3.67,23.61 3.27,23.5 2.92,23.43 C2.31998256,23.3871315 1.72254058,23.3137029 1.13,23.21 Z M0.84,23.21 L0.99,23.21 L0.84,23.21 Z" id="Shape" fill="#000000" fill-rule="nonzero"></path>
                            <path d="M0.61,23.86 L1.15,23.86 L0.62,23.75 C0.62,23.75 0.61,23.83 0.61,23.86 Z" id="Path" fill="#000000" fill-rule="nonzero"></path>
                            <path d="M3.25,12.16 C3.51603529,12.1859513 3.78396471,12.1859513 4.05,12.16 C4.4465076,12.2413355 4.84707889,12.3014212 5.25,12.34 C5.8091952,12.4699543 6.37752497,12.5568753 6.95,12.6 L7,12.6 L7,12.6 L3.27,12.07 L3.25,12.16 Z" id="Path" fill="#000000" fill-rule="nonzero"></path>
                            <path d="M5.24,13 C4.95697302,12.9807268 4.67781373,12.9235496 4.41,12.83 C4.07,12.74 3.87,12.83 3.51,12.73 L3.14,12.66 L3.14,12.74 C3.46892419,12.8140431 3.80338824,12.8608681 4.14,12.88 C4.70142097,13.0158916 5.27356057,13.1028836 5.85,13.14 C6.23,13.14 5.73,13.06 6.73,13.32 L7.06,13.32 C7.05514703,13.2901963 7.05514703,13.2598037 7.06,13.23 C6.90501466,13.2139055 6.75131902,13.1871758 6.6,13.15 C5.7,12.92 6.34,13.1 5.24,13 Z M6.24,13.19 L6.39,13.19 L6.24,13.19 Z" id="Shape" fill="#000000" fill-rule="nonzero"></path>
                            <path d="M5.58,13.65 C4.73,13.42 5.35,13.65 4.26,13.47 C3.97633161,13.455607 3.69648488,13.398289 3.43,13.3 C3.2871933,13.2826237 3.1428067,13.2826237 3,13.3 L3,13.39 L3.15,13.39 C3.71046395,13.530704 4.28304401,13.6177629 4.86,13.65 C5.25,13.65 4.73,13.57 5.74,13.83 C6.15,13.83 5.87,13.83 6.37,13.91 C6.87,13.99 6.95,13.91 7.12,13.96 L7.12,13.89 C6.60166943,13.8462484 6.08706327,13.7660501 5.58,13.65 L5.58,13.65 Z M5.27,13.66 L5.42,13.66 L5.27,13.66 Z" id="Shape" fill="#000000" fill-rule="nonzero"></path>
                            <path d="M4.41,14.1 C4.1,14.02 3.77,14.01 3.62,13.98 C3.43551192,13.9377368 3.24844029,13.9076717 3.06,13.89 C3.06,13.89 3.06,13.89 3.06,13.89 L2.85,13.89 L2.85,14 L3,14 L3.47,14.08 C4.03,14.16 4.09,14.14 4.47,14.22 C5.00818536,14.3793675 5.56936322,14.4469793 6.13,14.42 C6.35,14.42 6.36,14.51 7.22,14.59 L7.22,14.49 C7.0604969,14.507833 6.8995031,14.507833 6.74,14.49 C5.37,14.17 6,14.47 4.41,14.1 Z M3.32,13.94 C3.01,13.88 3.47,13.94 3.54,13.94 L3.32,13.94 Z" id="Shape" fill="#000000" fill-rule="nonzero"></path>
                            <path d="M6.16,15 C5.82,14.91 5.63,15 5.26,14.9 C3.94,14.65 4.6,14.9 2.97,14.57 L2.74,14.57 L2.74,14.67 L3.03,14.67 C3.56499006,14.8282542 4.12269371,14.8958547 4.68,14.87 C4.91,14.87 4.92,14.96 5.88,15.05 C6.1,15.05 6.65,15.24 7.27,15.29 L7.27,15.2 L7.01,15.2 C6.71897976,15.171753 6.43308233,15.1044831 6.16,15 L6.16,15 Z" id="Shape" fill="#000000" fill-rule="nonzero"></path>
                            <path d="M5.46,15.63 C5.85,15.63 5.34,15.54 6.35,15.8 C6.56155603,15.8178596 6.77190552,15.8479095 6.98,15.89 L7.16,15.89 L7.16,15.78 C6.82277336,15.7753111 6.48721666,15.7316887 6.16,15.65 C5.3,15.42 5.93,15.65 4.83,15.47 C4.5492105,15.4585469 4.27220043,15.401118 4.01,15.3 C3.65,15.21 3.48,15.3 3.11,15.2 L2.57,15.11 L2.57,15.18 C2.95126566,15.2707474 3.33916243,15.3309383 3.73,15.36 C4.29857624,15.4958259 4.87707511,15.5861118 5.46,15.63 L5.46,15.63 Z M6.07,15.71 L5.92,15.71 L6.07,15.71 Z M3.87,15.29 L3.87,15.29 C3.84,15.28 3.56,15.27 3.87,15.29 L3.87,15.29 Z" id="Shape" fill="#000000" fill-rule="nonzero"></path>
                            <path d="M6.79,16.36 C6.05,16.23 5.55,16.28 5.02,16.14 C4.16,15.9 4.79,16.14 3.69,15.96 C3.4105103,15.9387121 3.13491757,15.881577 2.87,15.79 C2.74897339,15.7577242 2.62502415,15.7376243 2.5,15.73 L2.5,15.83 L2.59,15.83 C3.1522921,15.9614155 3.72405921,16.0483509 4.3,16.09 C4.69,16.09 4.17,16 5.18,16.27 C5.59,16.27 5.3,16.27 5.81,16.35 C6.10490495,16.3448809 6.39961288,16.3683236 6.69,16.42 L6.98,16.42 C6.97623524,16.3901181 6.97623524,16.3598819 6.98,16.33 L6.79,16.36 Z M4.71,16.15 L4.86,16.15 L4.71,16.15 Z" id="Shape" fill="#000000" fill-rule="nonzero"></path>
                            <path d="M6.42,17 C3.3,16.5 3.7,16.69 3.13,16.53 C2.88956075,16.4310314 2.62923524,16.3899274 2.37,16.41 L2.37,16.49 L2.37,16.49 C2.76,16.49 2.25,16.4 3.26,16.66 C3.47155603,16.6778596 3.68190552,16.7079095 3.89,16.75 C4.18505282,16.7392472 4.4803575,16.7627374 4.77,16.82 C5.77,16.98 6.25,17.05 6.58,17.08 L6.64,17.01 L6.42,17 Z M2.84,16.54 L2.99,16.54 L2.84,16.54 Z" id="Shape" fill="#000000" fill-rule="nonzero"></path>
                            <path d="M2.23,17.08 L2.23,17.08 L2.7,17.16 C3.26,17.24 3.32,17.22 3.7,17.3 C4.2374568,17.4628631 4.79924068,17.5305479 5.36,17.5 C5.53,17.5 5.57,17.56 6.02,17.62 L6.11,17.55 L5.96,17.55 C5.19158186,17.4787577 4.42726816,17.3686164 3.67,17.22 C3.36,17.15 3.03,17.13 2.88,17.1 L2.32,17.01 C2.32,17.01 2.32,17.01 2.32,17.01 L2.24,17.01 L2.23,17.08 Z M2.8,17.08 L2.58,17.08 C2.27,17 2.73,17.05 2.8,17.08 L2.8,17.08 Z" id="Shape" fill="#000000" fill-rule="nonzero"></path>
                            <path d="M4.19,18.06 L4.82,18.15 C5.08286868,18.1278768 5.34713132,18.1278768 5.61,18.15 L5.61,18.07 C5.06965392,18.0373387 4.53191411,17.9705387 4,17.87 C3.15,17.64 3.78,17.87 2.68,17.7 C2.47313945,17.6866968 2.26847759,17.6497906 2.07,17.59 L2.07,17.68 C2.46763513,17.7699814 2.87264352,17.8235363 3.28,17.84 C3.69,17.93 3.18,17.8 4.19,18.06 Z M3.91,17.97 L3.76,17.97 L3.91,17.97 Z" id="Shape" fill="#000000" fill-rule="nonzero"></path>
                            <path d="M5.37,18.71 C5.02,18.61 4.84,18.71 4.47,18.6 C3.14,18.35 3.81,18.6 2.18,18.27 L1.98,18.27 L1.98,18.37 C2.06320085,18.3633546 2.14679915,18.3633546 2.23,18.37 C2.76856291,18.5275339 3.32943199,18.5951085 3.89,18.57 C4.28670854,18.6501983 4.68722045,18.7102751 5.09,18.75 C5.21862904,18.7610142 5.34588945,18.7844569 5.47,18.82 C5.47,18.82 5.47,18.75 5.47,18.72 L5.37,18.71 Z" id="Shape" fill="#000000" fill-rule="nonzero"></path>
                        </g>
                        <path d="M96.55,112.28 C97.78,116.56 99.3,125.96 100.76,127.48 C102.719881,129.325209 105.318335,130.339502 108.01,130.31 C111.22,130.39 117.25,128.48 117.79,129.39 L118.32,130.31 C118.32,130.31 110.99,134.51 107.63,135.96 C105.247428,136.916294 102.760173,137.587618 100.22,137.96 L100.37,139.26 C99.3041328,140.176503 98.0570114,140.85799 96.71,141.26 C95.855819,141.441498 94.982778,141.518729 94.11,141.49 C93.2033298,139.608697 92.6604657,137.572957 92.51,135.49 C92.28,132.13 92.2,129 91.06,126.79 C89.92,124.58 85.25,114.49 85.25,114.49 L96.55,112.28 Z" id="Path" fill="#E7794F" fill-rule="nonzero"></path>
                        <path d="M100.22,138 C102.760173,137.627618 105.247428,136.956294 107.63,136 C110.99,134.55 118.32,130.35 118.32,130.35 L117.79,129.43 C117.25,128.52 111.22,130.43 108.01,130.35 C106.888448,130.324674 105.775291,130.149797 104.7,129.83 C105.11,134.17 101.21,136.77 101.21,136.77 L98.21,136.61 C96.97,136.55 94.3,134.9 92.41,134.44 C92.41,134.81 92.41,135.17 92.49,135.54 C92.6404657,137.622957 93.1833298,139.658697 94.09,141.54 C94.962778,141.568729 95.835819,141.491498 96.69,141.31 C98.0370114,140.90799 99.2841328,140.226503 100.35,139.31 L100.22,138 Z" id="Path" fill="#332828" fill-rule="nonzero"></path>
                        <path d="M77.65,139.18 C77.29,142.66 78.15,147.84 77.72,150.02 C77.29,152.2 76.56,154.45 76.27,155.61 C76.0593288,157.244639 75.962429,158.891935 75.98,160.54 L81.35,160.54 L81.56,158.87 C83.6704901,159.429738 85.8250221,159.807785 88,160 C92.3969443,160.231906 96.8030557,160.231906 101.2,160 C101.325043,159.32364 101.076766,158.632284 100.55,158.19 C99.67,157.61 98.01,157.75 94.09,156.19 C90.17,154.63 87.27,152.19 86.98,150.1 C86.69,148.01 86.65,139 86.65,139 L77.65,139.18 Z" id="Path" fill="#E7794F" fill-rule="nonzero"></path>
                        <path d="M100.5,158.22 C99.62,157.64 97.96,157.78 94.04,156.22 C92.4715168,155.625152 90.9938855,154.81397 89.65,153.81 L88.09,155.13 C86.64,156.36 84.54,158.54 84.54,158.54 C84.54,158.54 83.96,158.69 82.65,157.74 C80.7740873,156.344363 78.7642272,155.138447 76.65,154.14 C76.49,154.7 76.35,155.14 76.26,155.57 C76.0493288,157.204639 75.952429,158.851935 75.97,160.5 L81.34,160.5 L81.55,158.83 C83.6625691,159.403806 85.8204874,159.795242 88,160 C92.3969443,160.231906 96.8030557,160.231906 101.2,160 C101.301958,159.324158 101.035011,158.645348 100.5,158.22 L100.5,158.22 Z" id="Path" fill="#332828" fill-rule="nonzero"></path>
                        <path d="M63.84,156.93 C56.37,155.93 47.84,152.09 46.19,147.93 C44.54,143.77 44.88,129.38 45.13,124.13 L43.32,123.97 L41.51,124.13 C41.76,129.38 42.08,143.75 40.44,147.93 C38.8,152.11 30.27,155.93 22.8,156.93 C15.33,157.93 10.74,158.82 10.65,160.54 L76,160.54 C75.9,158.82 71.3,157.91 63.84,156.93 Z" id="Path" fill="#795D5C" fill-rule="nonzero"></path>
                        <ellipse id="Oval" fill="#795D5C" fill-rule="nonzero" cx="43.15" cy="119.26" rx="7.39" ry="5.5"></ellipse>
                        <path d="M37.24,84.55 C37.24,84.55 34.12,76.34 33.47,74.7 C32.82,73.06 36.59,67 36.09,61.9 C35.59,56.8 30.19,51.23 28.71,48.44 C27.23,45.65 25.59,39.44 24.44,39.25 C23.29,39.06 14.59,37 14.59,37 C11.64,40.2 6.8,46.8 6.06,54.18 C5.32,61.56 10.24,83.07 13.06,89.31 C15.88,95.55 20.37,103.75 20.37,103.75 C20.37,103.75 26.44,111.96 39.73,111.63 C44.11,111.52 49.91,109.44 55.73,106.69 C53.62,97.55 51.64,88.46 49.21,79.61 C43.22,82 37.24,84.55 37.24,84.55 Z" id="Path" fill="#181E29" fill-rule="nonzero"></path>
                        <path d="M98,107.52 C97.6266825,107.406624 97.3533914,107.086483 97.3,106.7 C97.3,106.7 94.3,79.13 84.5,75.19 C74.7,71.25 63.5,74.04 56.6,76.67 C54.48,77.48 51.82,78.54 49.17,79.61 C51.6,88.46 53.58,97.55 55.69,106.69 C63.9313863,102.631994 71.8628242,97.9727341 79.42,92.75 L86.65,114.42 C88.8098835,114.904008 91.0501165,114.904008 93.21,114.42 C95.0440824,114.03379 96.8124781,113.383694 98.46,112.49 C98.46,112.49 98.94,107.76 98,107.52 Z" id="Path" fill="#EE584B" fill-rule="nonzero"></path>
                        <path d="M69.3,91.17 C77.51,90.84 85.39,90.95 87.9,95.32 C90.41,99.69 90.53,112.72 90.31,118.96 C90.09,125.2 90,135.7 90,135.7 C90,135.7 90.54,135.56 90.54,136.11 C90.54,136.66 90.32,139.28 90.32,139.28 C87.9391514,139.955831 85.4748802,140.29248 83,140.28 C80.7721109,140.301304 78.5449059,140.191113 76.33,139.95 C76.5771788,136.709573 76.6472831,133.458069 76.54,130.21 C76.33,125.83 74.9,119.81 74.9,116.31 C74.9,112.81 75.12,110.4 75.12,110.4 L66.48,111.28 L69.3,91.17 Z" id="Path" fill="#EE584B" fill-rule="nonzero"></path>
                        <path d="M68.32,68.57 C69.8,68.41 73.57,67.57 73.57,67.57 C73.57,67.57 75.05,63.8 76.74,63.36 C78.2226997,63.1434553 79.7321352,63.5011414 80.96,64.36 C81.12,64.63 83.75,61.73 84.29,62.12 C84.83,62.51 83.69,64.36 82.65,65.45 C81.61,66.54 80.79,66.82 80.41,67.86 C80.03,68.9 78.55,72.57 77.07,73.17 C74.3475981,73.8137425 71.5573559,74.1260078 68.76,74.1 C68.65,73.88 68.32,68.57 68.32,68.57 Z" id="Path" fill="#E7794F" fill-rule="nonzero"></path>
                        <path d="M34.4,61.4 C37.68,64.58 43.26,70.27 43.26,70.27 L65.47,69 L66.24,76.12 C66.24,76.12 47.53,83.56 41.07,83.12 C37.3417586,82.9153332 33.9516226,80.8932124 32,77.71 L34.4,61.4 Z" id="Path" fill="#2D313A" fill-rule="nonzero"></path>
                        <path d="M12.19,39.84 C14.69,41.84 21.13,45.99 22.47,46.14 L24.77,42.8 L27.23,44.93 C26.23,42.22 25.23,39.36 24.44,39.25 C23.29,39.08 14.59,37 14.59,37 C14.11,37.52 12.7,39.2 12.19,39.84 Z" id="Path" fill="#FFFFFF" fill-rule="nonzero" opacity="0.1"></path>
                        <polygon id="Path" fill="#FDF2DD" fill-rule="nonzero" points="68.59 68.19 69.3 74.04 65.2 74.43 64.65 68.84"></polygon>
                        <path d="M73.24,70.3201072 C73.0871629,70.322377 72.9423317,70.2518182 72.85,70.13 C72.7699024,70.0267657 72.734354,69.8958164 72.7512539,69.7662505 C72.7681538,69.6366846 72.8361021,69.5192349 72.94,69.44 L91.81,54.83 C91.9456203,54.689294 92.1507865,54.6404973 92.3352323,54.7050787 C92.5196782,54.76966 92.6495936,54.9357813 92.66782,55.1303547 C92.6860465,55.3249282 92.5892431,55.5122872 92.42,55.61 L73.54,70.22 C73.4545521,70.2869838 73.3485486,70.3223183 73.24,70.3201072 L73.24,70.3201072 Z" id="Path" fill="#332828" fill-rule="nonzero"></path>
                        <path d="M37.24,84.55 C36.4105891,85.5363475 35.5116243,86.4620473 34.55,87.32 C33.597216,88.183507 32.5955624,88.9915075 31.55,89.74 C30.5046983,90.4877108 29.4049678,91.15624 28.26,91.74 C27.123274,92.3714874 25.8899854,92.8107409 24.61,93.04 C25.7922628,92.5600087 26.9271783,91.97079 28,91.28 C28.53,90.94 29.06,90.6 29.58,90.28 C30.1,89.96 30.63,89.56 31.14,89.19 C32.14,88.4 37.24,84.55 37.24,84.55 Z" id="Path" fill="#795D5C" fill-rule="nonzero" opacity="0.44" style="mix-blend-mode: multiply;"></path>
                        <path d="M42.33,83.89 C41.7398056,85.1319582 41.047423,86.3227224 40.26,87.45 C39.4812117,88.5855427 38.615266,89.6587804 37.67,90.66 C36.7262831,91.6744949 35.6807892,92.5893021 34.55,93.39 C33.4238445,94.2023015 32.1699277,94.8208104 30.84,95.22 C32.034529,94.5722066 33.1602879,93.8049483 34.2,92.93 L34.96,92.27 C35.22,92.05 35.46,91.82 35.7,91.59 C36.19,91.13 36.7,90.65 37.13,90.15 C38.05,89.15 38.94,88.15 39.8,87.1 C40.66,86.05 41.49,85 42.33,83.89 Z" id="Path" fill="#795D5C" fill-rule="nonzero" opacity="0.44" style="mix-blend-mode: multiply;"></path>
                        <path d="M69.69,62.06 C69.640471,62.069706 69.589529,62.069706 69.54,62.06 L55.86,57.88 C55.7355445,57.8432123 55.6312889,57.7575971 55.5710003,57.642672 C55.5107117,57.5277468 55.4995284,57.3933068 55.54,57.27 C55.5770359,57.1452855 55.6621478,57.0404188 55.7765742,56.978516 C55.8910007,56.9166132 56.0253474,56.9027564 56.15,56.94 L69.83,61.1 C70.1061424,61.13866 70.2986599,61.3938576 70.2599999,61.67 C70.22134,61.9461423 69.9661424,62.1386599 69.69,62.1 L69.69,62.06 Z" id="Path" fill="#332828" fill-rule="nonzero"></path>
                        <path d="M55.71,67 C57.3279167,65.7155593 58.6855808,64.1338806 59.71,62.34 C60.3500492,61.2042797 61.4392395,60.3910176 62.71,60.1 C64.1612526,59.6114797 65.6405943,59.210755 67.14,58.9 C67.8492416,59.0678217 68.4251733,59.5835252 68.67,60.27 C68.6984273,60.4881986 68.5916153,60.7018227 68.4,60.81 L67,60.47 L66.13,60.75 C66.13,60.75 66.95,61.08 66.95,61.75 C66.95,62.42 67.66,62.51 67.66,63.01 C67.6580959,63.850207 67.3237495,64.6555145 66.73,65.25 C65.9470999,65.8345075 65.2325883,66.5054104 64.6,67.25 C64.16,67.96 61.79,71.36 60.88,71.36 C60.66,71.36 57.21,70.26 56.72,69.61 C56.2795908,68.7837859 55.9404737,67.9074535 55.71,67 L55.71,67 Z" id="Path" fill="#E7794F" fill-rule="nonzero"></path>
                        <path d="M58.17,74.91 C55.5454247,77.6247376 52.5965722,80.0059864 49.39,82 C43.15,85.6 39.39,87.49 33.47,86.1 C27.55,84.71 20.47,76.66 16.97,71.9 C13.47,67.14 1,55.6 11,48.28 C14.17,45.94 22.17,53.85 26.59,61.73 C29.9350621,67.3136495 33.8420278,72.5408076 38.25,77.33 C40.9242185,76.3961055 43.5164264,75.2421549 46,73.88 C47.39,73.01 50,71.14 52.17,69.57 C53.8077897,71.7194667 55.8450476,73.5326263 58.17,74.91 Z" id="Path" fill="#232932" fill-rule="nonzero"></path>
                        <path d="M61.54,71.25 C61.54,71.25 60.21,72.84 58.17,74.91 C55.8450476,73.5326263 53.8077897,71.7194667 52.17,69.57 C54.13,68.16 55.71,67 55.71,67 C56.5254667,68.0900245 57.5235481,69.0305893 58.66,69.78 C60.14,70.59 61.54,71.25 61.54,71.25 Z" id="Path" fill="#FDF2DD" fill-rule="nonzero"></path>
                        <path d="M6.5,57.79 C10.94,56.43 18,61.51 18.75,71.91 C19.5,82.31 17.66,91.82 21.81,97.18 C25.96,102.54 32.54,106.92 40.63,105.72 C48.72,104.52 54.75,95.87 62,95 C69.25,94.13 72.94,97 74.58,101 C76.22,105 72.72,111.51 65.72,114.9 C55.8953988,119.501807 44.9958994,121.317813 34.21,120.15 C21.08,118.73 12.65,112.06 8.82,103.15 C4.99,94.24 1.35,81.43 1,71.36 C0.65,61.29 3.65,58.67 6.5,57.79 Z" id="Path" fill="#E9DDD5" fill-rule="nonzero"></path>
                        <path d="M33.73,24.74 C33.6808067,24.7527017 33.6291933,24.7527017 33.58,24.74 C33.4936362,24.6508147 33.4936362,24.5091853 33.58,24.42 C34.0895604,23.6071838 34.5182741,22.7464069 34.86,21.85 C34.8801393,21.7934769 34.922492,21.7476323 34.9772461,21.7230874 C35.0320001,21.6985425 35.0944039,21.6974272 35.15,21.72 C35.2047132,21.7421249 35.2482428,21.7853049 35.2708082,21.839838 C35.2933736,21.894371 35.2930824,21.9556838 35.27,22.01 C34.9205098,22.9518739 34.4712886,23.8536688 33.93,24.7 C33.874719,24.7469865 33.7991004,24.7621102 33.73,24.74 Z" id="Path" fill="#181E29" fill-rule="nonzero"></path>
                        <path d="M17.36,10.69 C17.36,11.69 16.48,12.53 15.12,13.41 C13.8042976,14.0828134 13.1033387,15.5544172 13.41,17 C13.72,18.54 15.04,19.16 14.68,20 C14.32,20.84 13.49,21.9 14.22,23.24 C14.95,24.58 17.59,25.11 18.44,25.1200081 C19.29,25.13 34.76,15.93 34.76,15.93 C35.696435,14.7762379 35.8979325,13.1913834 35.28,11.84 C34.14,9.75 32.45,10.08 31.5,9.61 C30.55,9.14 30.71,7.21 29.5,6.66 C28.29,6.11 26.76,7.36 26.13,7.13 C25.1555683,6.64704478 24.4740989,5.72352338 24.3,4.65 C24,3.27 24.13,2.29 23.12,1.51 C22.1936508,0.798786958 20.89832,0.823697166 20,1.57 C19.21,2.22 18,1.22 16.81,1.47 C14.917656,1.95126344 13.5947634,3.65742399 13.6,5.61 C13.6,8.07 14.77,9.01 15.71,9.48 C16.65,9.95 17.36,9.89 17.36,10.69 Z" id="Path" fill="#E8DBCB" fill-rule="nonzero"></path>
                        <path d="M34.76,15.94 C35.55,17.19 35.25,19.2 34.99,20.47 C34.7027801,21.5843698 34.3282902,22.6744028 33.87,23.73 C33.7805221,25.5342486 33.4058821,27.3129447 32.76,29 C31.94,30.8 31.33,32.67 28.52,32.87 C27.3957757,32.9489495 26.4255505,33.6874205 26.05,34.75 C25.74,35.62 25.41,36.62 25.2,37.35 C24.74,39 24.12,42.72 24.12,42.72 C22.2494338,42.0833199 20.4250901,41.3181647 18.66,40.43 C17.1624291,39.7749687 15.8249496,38.8025666 14.74,37.58 C15.8173246,34.9946 16.7160993,32.3383699 17.43,29.63 C17.94,26.84 18.13,24.69 18.13,24.69 C20.87,24.38 22.71,22.55 24.13,19.95 C25.6072015,19.5906675 26.8787002,18.6541529 27.66,17.35 C28.2552494,16.2980895 28.623175,15.1329919 28.74,13.93 C29.591855,14.6363622 30.5835965,15.1543852 31.65,15.45 C32.6659412,15.7251101 33.7086857,15.889401 34.76,15.94 Z" id="Path" fill="#E7794F" fill-rule="nonzero"></path>
                        <path d="M33.93,22.2 C34.2375138,23.1576234 34.6535509,24.0769313 35.17,24.94 C35.2354513,25.1210521 35.2145262,25.3220934 35.1131927,25.485786 C35.0118592,25.6494785 34.8412413,25.7578528 34.65,25.78 C34.2836825,25.8026299 33.9163175,25.8026299 33.55,25.78 L33.93,22.2 Z" id="Path" fill="#E7794F" fill-rule="nonzero"></path>
                        <path d="M32.89,27.26 C32,27 31.17,26.4 31,26.82 C30.83,27.24 31.11,28.02 32.39,28.48 C32.5672921,28.5457785 32.7520196,28.5894414 32.94,28.61 C33.0987776,28.2053112 33.2323661,27.7911868 33.34,27.37 L32.89,27.26 Z" id="Path" fill="#FFFFFF" fill-rule="nonzero"></path>
                        <path d="M31.68,22.3 C31.68,22.58 31.52,22.8 31.28,22.77 C31.04,22.74 30.98,22.5 31.01,22.22 C31.04,21.94 31.16,21.72 31.41,21.75 C31.66,21.78 31.71,22 31.68,22.3 Z" id="Path" fill="#181E29" fill-rule="nonzero"></path>
                        <g id="Group" opacity="0.44" style="mix-blend-mode: multiply;" stroke-width="1" fill="none" fill-rule="evenodd" transform="translate(15.000000, 3.000000)">
                            <path d="M3.36,5.91 C3.3144792,5.37577966 3.14683392,4.85915847 2.87,4.4 C2.74343239,4.20362982 2.57637018,4.03656761 2.38,3.91 C2.28285585,3.848107 2.17881837,3.79776628 2.07,3.76 C1.94,3.7 1.79,3.64 1.65,3.56 C1.36043831,3.40600411 1.11055354,3.18692706 0.92,2.92 C0.722122304,2.62518974 0.623985222,2.27470016 0.64,1.92 C0.700449422,1.30247859 1.02963409,0.742864654 1.54,0.39 C1.22810504,0.866474973 1.08060686,1.43188465 1.12,2 C1.22411153,2.46133377 1.55564705,2.83807868 2,3 C2.11316668,3.0578012 2.23009798,3.10791461 2.35,3.15 C2.50565033,3.20809387 2.65345557,3.28535571 2.79,3.38 C3.07005025,3.56867372 3.29173688,3.83192659 3.43,4.14 C3.65325946,4.71415696 3.6279048,5.35526762 3.36,5.91 Z" id="Path" fill="#C29068" fill-rule="nonzero"></path>
                            <path d="M6.29,4.11 C6.36054674,3.74447006 6.38073407,3.37100458 6.35,3 C6.32896246,2.87791523 6.26938739,2.76577391 6.18,2.68 L6.11,2.68 L6.06,2.68 L6,2.68 L5.73,2.51 C5.35632774,2.28493008 5.03295744,1.98538706 4.78,1.63 C4.65319056,1.44622194 4.5647599,1.23875 4.52,1.02 C4.47295153,0.800495714 4.50113007,0.571545098 4.6,0.37 C4.62542241,0.766170432 4.82267665,1.13145607 5.14,1.37 C5.42842772,1.60732613 5.73999599,1.81503831 6.07,1.99 L6.38,2.17 L6.47,2.17 L6.64,2.3 C6.84365472,2.49905952 6.95277846,2.77550633 6.94,3.06 C6.92182246,3.2963895 6.85000352,3.52552611 6.73,3.73 C6.60595827,3.88071602 6.45716654,4.00921797 6.29,4.11 L6.29,4.11 Z" id="Path" fill="#C29068" fill-rule="nonzero"></path>
                            <path d="M3.67,9.1 C3.81808905,9.63822114 3.90200518,10.1920676 3.92,10.75 C3.96908643,11.3491301 3.82543318,11.9482693 3.51,12.46 C3.4151071,12.5932632 3.30045731,12.7112851 3.17,12.81 L2.96,12.94 L2.79,13.04 C2.5735677,13.1706195 2.37233117,13.3249008 2.19,13.5 C1.83296539,13.8210824 1.58188218,14.2430417 1.47,14.71 C1.41288179,14.945468 1.39597699,15.1888972 1.42,15.43 C1.42,15.69 1.47,15.95 1.5,16.23 C1.5258635,16.5227632 1.5258635,16.8172368 1.5,17.11 C1.46460057,17.426142 1.35120339,17.7285345 1.17,17.99 L1.06,18.15 C1.03256142,18.1979796 1.00914789,18.2481514 0.99,18.3 C0.948205045,18.4057724 0.921281892,18.5168305 0.91,18.63 C0.895926767,18.879192 0.936896753,19.1284261 1.03,19.36 C1.21857695,19.848064 1.62622533,20.2186535 2.13,20.36 C1.54291653,20.3176829 1.02014145,19.9729544 0.75,19.45 C0.599233215,19.1867613 0.510323433,18.8926751 0.49,18.59 C0.485243306,18.4278687 0.50548043,18.2659717 0.55,18.11 C0.572962001,18.0307623 0.603086189,17.9537783 0.64,17.88 L0.74,17.69 C0.852889381,17.4879563 0.914682518,17.2613815 0.92,17.03 C0.921566855,16.7777898 0.89473115,16.5262051 0.84,16.28 C0.787966273,16.0022276 0.751244186,15.7218044 0.73,15.44 C0.685381602,15.1383074 0.685381602,14.8316926 0.73,14.53 C0.885072521,13.9179708 1.23630378,13.3735623 1.73,12.98 C1.95203438,12.7841895 2.19718845,12.6162758 2.46,12.48 L2.66,12.39 L2.8,12.31 C2.89202165,12.251048 2.97604919,12.1804649 3.05,12.1 C3.34249771,11.6883274 3.51553365,11.2038267 3.55,10.7 C3.61896037,10.1692349 3.65901946,9.63511363 3.67,9.1 L3.67,9.1 Z" id="Path" fill="#C29068" fill-rule="nonzero"></path>
                            <path d="M5.8,15.75 C5.9178307,15.4117107 5.98521977,15.057918 6,14.7 C6.03422555,14.4094206 5.92178899,14.1208335 5.7,13.93 C5.52567147,13.8309245 5.3672332,13.7061966 5.23,13.56 C5.06929172,13.3821351 4.95884147,13.1646862 4.91,12.93 C4.83813126,12.4950919 4.91195674,12.0486235 5.12,11.66 C5.29458644,11.2904707 5.55107858,10.9655806 5.87,10.71 C6.13085694,10.4995292 6.34535174,10.2373688 6.5,9.94 C6.76206929,9.28097052 6.80416046,8.55489787 6.62,7.87 C6.80304795,8.20050763 6.93137509,8.55847279 7,8.93 C7.06291613,9.3243218 7.03556314,9.72777849 6.92,10.11 C6.78028282,10.487467 6.55823932,10.8290724 6.27,11.11 C6.04262055,11.3527814 5.85982298,11.6337481 5.73,11.94 C5.59991344,12.2103587 5.54796004,12.5116884 5.58,12.81 C5.60031706,12.9372672 5.65185272,13.0575171 5.73,13.16 C5.83903032,13.2909144 5.96323491,13.4084052 6.1,13.51 C6.26755274,13.6750739 6.37941856,13.8883182 6.42,14.12 C6.46604106,14.3308492 6.46604106,14.5491508 6.42,14.76 C6.30034821,15.1371067 6.08703528,15.4777193 5.8,15.75 L5.8,15.75 Z" id="Path" fill="#C29068" fill-rule="nonzero"></path>
                            <path d="M9.06,8.88 C8.92805794,9.4274777 9.01411937,10.0048064 9.3,10.49 C9.36322304,10.5994054 9.44434843,10.697432 9.54,10.78 C9.58194683,10.8251986 9.62891776,10.8654594 9.68,10.9 L9.88,11.09 C10.0193137,11.247389 10.1096734,11.4420098 10.14,11.65 C10.1654367,11.8568272 10.137909,12.0667263 10.06,12.26 C9.91456805,12.5801628 9.69106672,12.8586799 9.41,13.07 C9.28121037,13.1714266 9.14405239,13.2617502 9,13.34 L8.83,13.44 L8.71,13.53 C8.5704696,13.7161692 8.5294959,13.9582865 8.6,14.18 C8.66196618,14.48272 8.79957611,14.7648203 9,15 C8.71321665,14.8601101 8.4785141,14.6324136 8.33,14.35 C8.25211679,14.193693 8.20460937,14.0240237 8.19,13.85 C8.17318133,13.6498106 8.22235134,13.4496184 8.33,13.28 C8.38227979,13.1978038 8.44628924,13.1236876 8.52,13.06 L8.63,12.97 L8.72,12.91 L9.03,12.64 C9.21531682,12.4753509 9.36504456,12.2745796 9.47,12.05 C9.55660522,11.8886817 9.53683448,11.6909743 9.42,11.55 L9.3,11.42 C9.2349738,11.361625 9.1747774,11.2980844 9.12,11.23 C9.01078161,11.0942124 8.92309046,10.9424393 8.86,10.78 C8.569186,10.1585793 8.6461683,9.42724749 9.06,8.88 L9.06,8.88 Z" id="Path" fill="#C29068" fill-rule="nonzero"></path>
                            <path d="M16.24,12.34 C16.4604638,11.9244166 16.4788802,11.4308574 16.29,11 C16.1273419,10.6018127 15.798446,10.2948432 15.39,10.16 C14.8301803,9.97971003 14.3543185,9.60328205 14.05,9.1 C13.7797776,8.59380563 13.7797776,7.98619437 14.05,7.48 C14.0428972,7.96825403 14.2094671,8.44315552 14.52,8.82 C14.8232188,9.16207835 15.2192577,9.40873414 15.66,9.53 C15.9542279,9.63009168 16.2188702,9.80193731 16.43,10.03 C16.6383368,10.2612059 16.7800374,10.544607 16.84,10.85 C16.9150057,11.1351501 16.9150057,11.4348499 16.84,11.72 C16.7262858,11.9955554 16.51168,12.2173147 16.24,12.34 L16.24,12.34 Z" id="Path" fill="#C29068" fill-rule="nonzero"></path>
                            <path d="M13.71,10.92 C13.5506659,11.0071656 13.371608,11.0519301 13.19,11.05 C13.0122188,11.0487111 12.8348856,11.0319816 12.66,11 C12.5714003,10.9895663 12.4842123,10.969446 12.4,10.94 C12.2993184,10.9149467 12.2019696,10.8780213 12.11,10.83 C11.9145373,10.720989 11.7547828,10.5577616 11.65,10.36 C11.4935423,10.0017471 11.4382067,9.60748113 11.49,9.22 C11.5254561,8.88340617 11.5822369,8.54940163 11.66,8.22 L11.72,7.97 C11.7303938,7.89703496 11.7303938,7.82296504 11.72,7.75 C11.7116902,7.60519909 11.6778354,7.46300911 11.62,7.33 C11.4879274,7.05276729 11.2706873,6.82501559 11,6.68 C10.7192825,6.51750477 10.4106383,6.40897053 10.09,6.36 C9.75948882,6.29865776 9.42051118,6.29865776 9.09,6.36 C9.41320088,6.25957305 9.75269728,6.22222844 10.09,6.25 C10.4348759,6.27041877 10.7734228,6.35167004 11.09,6.49 C11.4235065,6.6385007 11.7029356,6.88649411 11.89,7.2 C11.9839184,7.3660823 12.0418398,7.55006792 12.06,7.74 C12.0648071,7.83327144 12.0648071,7.92672856 12.06,8.02 C12.0649455,8.10659611 12.0649455,8.19340389 12.06,8.28 C12.06,8.62 12.06,8.95 12.06,9.28 C12.06,9.44 12.06,9.6 12.06,9.74 C12.072809,9.86592701 12.099642,9.99002955 12.14,10.11 C12.22,10.32 12.39,10.45 12.71,10.6 C12.85,10.68 13,10.74 13.15,10.81 C13.3279071,10.8821663 13.5180139,10.9195087 13.71,10.92 Z" id="Path" fill="#C29068" fill-rule="nonzero"></path>
                            <path d="M9.53,4 C9.42677555,4.30864269 9.24395819,4.58459341 9,4.8 C8.77859132,5.01943361 8.52583698,5.20478679 8.25,5.35 C7.97008518,5.49629079 7.67022739,5.60073563 7.36,5.66 C7.20034495,5.67485822 7.03965505,5.67485822 6.88,5.66 L6.44,5.66 C5.93642944,5.66531122 5.45653444,5.87458874 5.11,6.24 C4.7,6.6 4.32,7.06 3.84,7.42 C4.09710932,6.88705407 4.40167166,6.37833454 4.75,5.9 C4.94605138,5.64183253 5.19062766,5.42443139 5.47,5.26 C5.77383964,5.08374649 6.11874021,4.99062334 6.47,4.99 L6.9,4.99 L7.28,4.99 C7.54271723,4.95971024 7.80108056,4.89931362 8.05,4.81 C8.31249693,4.72655702 8.56687469,4.6194506 8.81,4.49 C9.07322115,4.36370895 9.31593881,4.1985261 9.53,4 Z" id="Path" fill="#C29068" fill-rule="nonzero"></path>
                        </g>
                        <path d="M31.36,24.46 C30.3707512,24.4536869 29.4009639,24.1844933 28.55,23.68 C27.44,22.94 28.27,20.68 28.37,20.41 L28.42,20.28 L28.55,20.28 C29.5128145,20.1750254 30.4855831,20.2053192 31.44,20.37 C32.2371273,20.5117058 32.9844034,20.8560726 33.61,21.37 L33.7,21.46 L33.7,21.59 C33.5197863,22.4767088 33.1810238,23.3236152 32.7,24.09 C32.3209018,24.3877971 31.8381919,24.5210827 31.36,24.46 L31.36,24.46 Z M28.74,20.69 C28.51,21.38 28.15,22.88 28.8,23.31 C29.8,24 31.94,24.2 32.33,23.78 C32.7479833,23.1147931 33.0426912,22.379717 33.2,21.61 C32.6557946,21.1940286 32.0225417,20.9099206 31.35,20.78 C30.4875386,20.6373993 29.6102356,20.6071475 28.74,20.69 L28.74,20.69 Z" id="Shape" fill="#181E29" fill-rule="nonzero"></path>
                        <path d="M34.88,22.42 C34.8440541,22.4302815 34.8059459,22.4302815 34.77,22.42 C34.382161,22.1582679 33.9277229,22.0125702 33.46,22 C33.3399085,22.0200197 33.2238528,21.9469477 33.19,21.83 C33.1648828,21.7089361 33.2399723,21.5896763 33.36,21.56 C33.9387459,21.5359883 34.5109961,21.6895188 35,22 C35.0524613,22.0271949 35.0910375,22.075234 35.1062631,22.1323298 C35.1214886,22.1894257 35.1119545,22.2502942 35.08,22.3 C35.0437166,22.3767482 34.9647935,22.424102 34.88,22.42 Z" id="Path" fill="#181E29" fill-rule="nonzero"></path>
                        <path d="M28.58,20.71 C28.5472647,20.7189293 28.5127353,20.7189293 28.48,20.71 L28,20.45 C26.9,19.85 24.3,18.45 23.44,18.74 C23.3574273,18.7606547 23.2901931,18.8204183 23.26,18.9 C23.2008462,18.9947678 23.082149,19.0333252 22.9785957,18.9914107 C22.8750423,18.9494963 22.8165823,18.8392324 22.84,18.73 C22.9229919,18.532059 23.0868124,18.3791599 23.29,18.31 C24.22,17.99 26.21,18.96 28.22,20.06 L28.65,20.29 C28.7020105,20.3175568 28.7408097,20.3648057 28.7577229,20.4211831 C28.7746361,20.4775605 28.7682528,20.5383643 28.74,20.59 C28.7089818,20.6533317 28.6494835,20.6979554 28.58,20.71 L28.58,20.71 Z" id="Path" fill="#181E29" fill-rule="nonzero"></path>
                        <path d="M24.35,19.38 C23.3511943,18.4258305 21.8964388,18.1232413 20.6,18.6 C18.4,19.43 18.1,22.35 19.19,23.81 C20.28,25.27 22.78,25.11 22.78,25.11 C22.9023688,24.0345061 23.1130806,22.9709132 23.41,21.93 C23.6504457,21.054879 23.9649132,20.2018023 24.35,19.38 L24.35,19.38 Z" id="Path" fill="#E7794F" fill-rule="nonzero"></path>
                        <path d="M21.6,20.3 C21.0717135,20.485944 20.6718067,20.9243183 20.535027,21.4674142 C20.3982473,22.0105101 20.5428081,22.5860096 20.92,23 C21.4879955,23.5087112 22.2400081,23.7617923 23,23.7 C23.1,23.18 23.24,22.55 23.42,21.93 C23.6,21.31 23.71,20.99 23.84,20.63 C23.1869639,20.1734049 22.3569716,20.0511116 21.6,20.3 Z" id="Path" fill="#D5554D" fill-rule="nonzero"></path>
                        <path d="M267.54,38 C268.1,38.47 270.33,37 270.33,37 L271.42,36.51 L272.42,37.51 C271.191393,38.4337922 270.046931,39.4644774 269,40.59 C268.13,41.74 267.58,44.31 268.56,48.19 C269.54,52.07 273.49,62.31 275.13,64.93 C276.77,67.55 279.56,71.17 279.56,71.17 L282,58.31 L279.7,57.55 C279.7,57.55 274.02,49.18 273.47,47.64 C272.92,46.1 272.16,44.47 272.54,43.7 C272.92,42.93 275.27,38.78 275.6,38.18 C275.93,37.58 275.05,35.88 274.89,35.5 C273.836064,34.8158058 272.638199,34.3845742 271.39,34.24 C270.9,34.35 269.15,34.32 268.71,34.43 C268.27,34.54 267.23,34.68 267.26,34.98 C267.29,35.28 270.54,35.39 270.54,35.39 C269.900983,35.6345492 269.301272,35.9714653 268.76,36.39 C268.36,36.81 267.21,37.69 267.54,38 Z" id="Path" fill="#DC8C54" fill-rule="nonzero"></path>
                        <path d="M266.58,38.29 C267.16,37.87 268.83,39.05 269.15,39.29 C269.796361,39.6803824 270.464073,40.0342695 271.15,40.35 C271.15,40.35 272.32,42.73 270.79,43.06 C269.26,43.39 268.46,41.23 268.11,40.74 C267.76,40.25 266.09,38.64 266.58,38.29 Z" id="Path" fill="#DC8C54" fill-rule="nonzero"></path>
                        <path d="M258.13,157.88 C265.6,156.88 274.13,153.04 275.78,148.88 C277.43,144.72 277.09,130.33 276.84,125.08 L278.65,124.91 L280.46,125.08 C280.21,130.33 279.89,144.69 281.53,148.88 C283.17,153.07 291.7,156.88 299.17,157.88 C306.64,158.88 311.23,159.77 311.32,161.49 L246,161.49 C246.07,159.77 250.67,158.87 258.13,157.88 Z" id="Path" fill="#795D5C" fill-rule="nonzero"></path>
                        <ellipse id="Oval" fill="#795D5C" fill-rule="nonzero" cx="278.82" cy="120.22" rx="7.39" ry="5.5"></ellipse>
                        <path d="M241.17,118.49 C245,123.42 257.47,133.81 262.51,136.98 C267.55,140.15 273.01,142.67 275.86,145.19 C278.71,147.71 281.65,151.54 282.64,152.52 C283.63,153.5 286.58,156.02 287.34,157.45 C288.1,158.88 288.66,160.07 289.2,159.74 C289.74,159.41 290.13,157.06 288.58,153.62 C287.03,150.18 285.21,144.51 285.21,144.51 L286.28,143.85 L284.39,139.34 C284.39,139.34 284.14,139.91 282.39,139.01 C280.64,138.11 271.72,131.29 268.85,127.44 C265.98,123.59 255.23,114.64 252.77,113.24 C250.31,111.84 241.17,118.49 241.17,118.49 Z" id="Path" fill="#DC8C54" fill-rule="nonzero"></path>
                        <path d="M289.2,159.74 C289.75,159.42 290.13,157.06 288.58,153.62 C287.03,150.18 285.21,144.51 285.21,144.51 L286.28,143.85 L284.39,139.34 C284.39,139.34 284.14,139.91 282.39,139.01 L281.87,138.7 L281.24,139.28 C281.24,139.28 283.81,143.39 284.03,144.43 C284.25,145.47 285.73,149.9 285.73,149.9 C284.519416,150.555149 283.385732,151.343361 282.35,152.25 L282.61,152.52 C283.61,153.52 286.55,156.02 287.31,157.45 C288.07,158.88 288.66,160.07 289.2,159.74 Z" id="Path" fill="#332828" fill-rule="nonzero"></path>
                        <path d="M254.76,114.64 C259.52,118.74 266.76,124.57 268.76,128.83 C270.76,133.09 273.19,139.34 273.27,142.13 C273.262501,145.699223 273.015278,149.263912 272.53,152.8 C272.2,154.6 271.3,157.97 271.79,158.38 C272.182246,158.628105 272.655525,158.714156 273.11,158.62 C273.11,158.62 276.31,152.96 277.78,149.68 C278.592523,147.914088 279.306943,146.104668 279.92,144.26 L281.07,144.67 L284.43,139.34 C283.32564,137.545046 281.941519,135.938116 280.33,134.58 C277.86,132.58 277.21,127.93 276.14,125.58 C275.07,123.23 272.94,119.02 272.94,119.02 L264.65,115.57 L254.76,114.64 Z" id="Path" fill="url(#linearGradient-3)" fill-rule="nonzero"></path>
                        <path d="M305.51,66.08 C305.51,66.08 312.51,97.7 307.15,104.38 C301.79,111.06 276.95,116.38 268.09,114.66 C259.23,112.94 249.49,113.79 245.87,116.3 C242.25,118.81 239.64,123.96 234.71,125.17 C229.78,126.38 229.13,125.6 228.59,125.28 C228.05,124.96 230.34,120.35 230.67,116.74 C231,113.13 230.99,103.17 236.57,98.36 C242.15,93.55 256.57,91.47 262.51,90.81 C268.45,90.15 279.68,89.72 279.68,89.72 C279.68,89.72 280.68,81.29 281.33,77.57 C281.98,73.85 282.33,70.9 282.33,70.9 C282.33,70.9 292.4,67.72 296.66,66.63 C299.561003,65.9703702 302.549647,65.7846352 305.51,66.08 Z" id="Path" fill="#6C7A78" fill-rule="nonzero"></path>
                        <path d="M281.22,53.17 C278,57.66 276.51,62 277.5,65 C278.162841,66.9021501 279.081254,68.7053353 280.23,70.36 C280.23,70.36 291.61,70.25 296.54,68.72 C301.47,67.19 305.54,66.09 305.54,66.09 C305.54,66.09 304.66,53.09 304.22,49.46 C303.78,45.83 300.72,41.58 300.72,41.58 C300.72,41.58 294.43,38.49 291.23,40.95 C288.03,43.41 281.22,53.17 281.22,53.17 Z" id="Path" fill="#485CA8" fill-rule="nonzero"></path>
                        <path d="M315.47,58.75 C311,57.38 304,62.47 303.22,72.86 C302.44,83.25 304.31,92.78 300.16,98.14 C296.01,103.5 289.43,107.88 281.34,106.68 C273.25,105.48 267.22,96.83 260,96 C252.78,95.17 249.06,98 247.42,102 C245.78,106 249.28,112.5 256.28,115.9 C266.106135,120.496875 277.004249,122.312651 287.79,121.15 C300.92,119.73 309.35,113.05 313.18,104.15 C317.01,95.25 320.62,82.37 320.95,72.31 C321.28,62.25 318.32,59.63 315.47,58.75 Z" id="Path" fill="#E9DDD5" fill-rule="nonzero"></path>
                        <path d="M280,12.14 C279.042402,13.9192996 278.573158,15.920487 278.64,17.94 C278.74,19.36 278.69,20.34 278.8,21.94 C278.91,23.54 278.85,27.09 280.17,28.62 C281.49,30.15 285,30.08 285.7,30 C285.7,30 287.4,35.3 287.51,37.6 C287.764597,39.9895404 287.327245,42.4019159 286.25,44.55 C284.94,47.12 281.25,53.14 281.25,53.14 C282.889143,53.3757564 284.531117,52.7296092 285.57,51.44 C287.65,49.2 290.99,44.11 294.21,42.8 C296.287675,41.9957595 298.49229,41.56906 300.72,41.54 C300.72,41.54 299.08,38.09 297.88,34.7 C296.68,31.31 295.47,26.44 295.47,26.44 C295.47,26.44 295.31,11.89 290.33,10.3 C285.35,8.71 280,12.14 280,12.14 Z" id="Path" fill="#DC8C54" fill-rule="nonzero"></path>
                        <path d="M288.42,17.19 C289.530289,16.4613198 290.959094,16.4302588 292.1,17.11 C294.04,18.28 293.82,21.11 292.53,22.29 C291.24,23.47 288.9,22.9 288.9,22.9 C288.981766,21.8582687 288.981766,20.8117313 288.9,19.77 C288.808669,18.8986322 288.648162,18.0359109 288.42,17.19 L288.42,17.19 Z" id="Path" fill="url(#linearGradient-4)" fill-rule="nonzero"></path>
                        <path d="M290.86,18.54 C291.337015,18.8095997 291.645424,19.3020546 291.679729,19.84891 C291.714033,20.3957654 291.469584,20.9229015 291.03,21.25 C290.397138,21.6141804 289.646404,21.7147572 288.94,21.53 C288.94,21.01 288.94,20.4 288.86,19.77 C288.78,19.14 288.75,18.84 288.69,18.47 C289.383801,18.1493449 290.188307,18.1752967 290.86,18.54 Z" id="Path" fill="#D5554D" fill-rule="nonzero"></path>
                        <path d="M279.09,18.65 C278.588683,19.5465039 277.980951,20.3791969 277.28,21.13 C277.02,21.5 277.38,21.91 277.75,22 C278.167454,22.0633027 278.588102,22.1033644 279.01,22.12 L279.09,18.65 Z" id="Path" fill="#DC8C54" fill-rule="nonzero"></path>
                        <path d="M281.19,19 C281.19,19.26 281.11,19.46 280.89,19.46 C280.67,19.46 280.59,19.26 280.59,19 C280.59,18.74 280.66,18.54 280.89,18.54 C281.12,18.54 281.19,18.76 281.19,19 Z" id="Path" fill="#181E29" fill-rule="nonzero"></path>
                        <path d="M282.87,17.57 C282.87,17.57 282.48,16.97 281.12,16.86 C279.76,16.75 279.47,17.26 279.51,17.62 C280.005382,17.468957 280.522438,17.401368 281.04,17.42 C281.653019,17.4212299 282.264963,17.4713892 282.87,17.57 L282.87,17.57 Z" id="Path" fill="#21312A" fill-rule="nonzero"></path>
                        <path d="M281.88,24.13 C281.995053,23.9083291 281.963357,23.6389168 281.8,23.45 C281.619126,23.2813453 281.376822,23.1945498 281.13,23.21 C280.851285,23.2232901 280.573896,23.2567105 280.3,23.31 C280.02,23.36 279.69,23.42 279.3,23.45 L278.86,23.45 L278.86,23.45 C278.86,24.1 278.95,24.83 279.05,25.55 L279.29,25.55 C280.347766,25.5847285 281.340454,25.0404748 281.88,24.13 L281.88,24.13 Z" id="Path" fill="#BC4F31" fill-rule="nonzero"></path>
                        <path d="M281.63,23.62 C281.26,23.25 280.52,23.62 279.35,23.7 L278.9,23.7 C278.9,24.21 278.97,24.76 279.04,25.31 C279.126595,25.3149894 279.213405,25.3149894 279.3,25.31 C281,25.29 282,24 281.63,23.62 Z" id="Path" fill="#FFFFFF" fill-rule="nonzero"></path>
                        <path d="M279.74,12.68 C279.74,12.68 277.22,10.88 277.74,8.8 C277.883154,7.90492282 278.461247,7.13927038 279.282915,6.75649339 C280.104583,6.3737164 281.062661,6.4237381 281.84,6.89 C283.438586,7.543465 285.275002,6.93698103 286.17,5.46 C287.130134,3.94448926 288.750867,2.9727916 290.54,2.84 C292.62,2.67 294.81,4.37 296.18,4.84 C297.55,5.31 299.73,2.76 301.65,2.54 C303.581559,2.17154722 305.473003,3.34554662 306,5.24 C306.483043,7.02870229 308.149767,8.23707693 310,8.14 C311.65,8.14 314.33,7.65 316.19,9.78 C318.05,11.91 316.3,14.87 317.55,16.13 C318.8,17.39 322.37,17.13 323.74,19.91 C325.11,22.69 321.27,24.5 322.37,26.64 C323.434081,28.5423693 325.248308,29.9102965 327.37,30.41 C328.500038,30.9089476 329.336153,31.9020185 329.635294,33.1005384 C329.934435,34.2990584 329.66304,35.5685549 328.9,36.54 C327.04,38.62 325.79,38.01 325.29,39.77 C324.79,41.53 325.09,45 322,45.4 C318.91,45.8 317.24,43.05 317.51,40.4 C317.78,37.75 316.51,36.84 314.72,37.55 C312.93,38.26 308.92,40.18 307.11,37.88 C305.3,35.58 305.97,33.45 306.24,31.37 C306.51,29.29 303.78,28.2 302.46,28.14 C301.14,28.08 297.76,29.84 295.3,27.92 C293.492682,26.5675649 292.434955,24.4372668 292.45,22.18 C292.29,20.37 292.18,19.39 290.21,18.84 C288.24,18.29 287.45,18.95 286.21,17.75 C285.296854,16.7904059 284.854028,15.4765669 285,14.16 C284.98077,13.4445945 284.755033,12.7500196 284.35,12.16 C283.747682,12.1105036 283.142318,12.1105036 282.54,12.16 C281.6,12.3 279.74,12.68 279.74,12.68 Z" id="Path" fill="#000000" fill-rule="nonzero"></path>
                        <path d="M296.92,57.16 C296.92,57.16 296.44,58.36 295.6,60.24 C294.487513,59.2958688 293.281214,58.4682133 292,57.77 C289.912767,56.8208891 287.63066,56.3788593 285.34,56.48 C286.1,55 286.61,53.99 286.61,53.99 C288.676352,53.6577823 290.791559,53.8083795 292.79,54.43 C295.93,55.46 296.92,57.16 296.92,57.16 Z" id="Path" fill="#FFFFFF" fill-rule="nonzero" opacity="0.07"></path>
                        <path d="M295.6,60.24 C293.76,64.39 290.18,71.88 286.19,77.3 C280.4,85.17 274.05,87.42 269.45,83.81 C264.85,80.2 262.29,70.81 261.68,68.44 C261.07,66.07 259.61,61.7 259.61,61.7 C257.885426,61.2086241 256.132068,60.8245552 254.36,60.55 C252.26,60.31 251.61,57.89 251.52,56.82 C251.43,55.75 251.2,55.26 251.65,55.26 C252.1,55.26 252.59,55.96 252.88,56.7 C253.226438,57.2995853 253.701086,57.8152105 254.27,58.21 L258.66,58.34 C258.017568,58.0115837 257.413826,57.6124429 256.86,57.15 C256.24,56.58 255.54,55.8 256.12,55.59 C256.7,55.38 257.88,56.08 258.95,56.45 C260.02,56.82 262.64,57.07 264.04,58.26 C265.44,59.45 269.41,67.16 270.6,69.66 C271.79,72.16 273.6,76.35 273.6,76.35 C273.6,76.35 277.5,71 279.26,68 C280.49,65.88 283.59,59.92 285.36,56.5 C287.642373,56.3957633 289.917189,56.830856 292,57.77 C293.281214,58.4682133 294.487513,59.2958688 295.6,60.24 L295.6,60.24 Z" id="Path" fill="#DC8C54" fill-rule="nonzero"></path>
                        <path d="M302.69,89.93 C302.28,96.83 303.1,114.47 307.2,115.05 C311.3,115.63 317.63,113.16 321.15,109.47 L317.79,90.1 L318.94,85.5 C318.94,85.5 322.14,101.34 322.94,105.2 C323.74,109.06 324.58,118.41 325.94,122.43 C327.3,126.45 328.41,131.05 325.94,134.43 C323.47,137.81 311.26,142.89 303.94,141 C296.62,139.11 296.8,129.26 297.29,126.31 C297.78,123.36 299.67,113.26 299.92,109.49 C300.17,105.72 301.07,96.6 301.07,96.6 L302.69,89.93 Z" id="Path" fill="#37B99A" fill-rule="nonzero"></path>
                        <path d="M277.74,149.68 C278.552523,147.914088 279.266943,146.104668 279.88,144.26 L281.03,144.67 L284.39,139.34 C283.399457,137.731673 282.187582,136.270691 280.79,135 C279.73,136.93 280.08,141.19 279.74,142.95 C279.190278,144.847907 278.439349,146.681648 277.5,148.42 C276.052563,147.908015 274.568282,147.506859 273.06,147.22 C272.9,149.53 272.67,151.81 272.49,152.8 C272.16,154.6 271.26,157.97 271.75,158.38 C272.142246,158.628105 272.615525,158.714156 273.07,158.62 C273.07,158.62 276.27,153 277.74,149.68 Z" id="Path" fill="#3A2F2E" fill-rule="nonzero"></path>
                        <path d="M194.51,81.63 L194.18,81.63 C194.18,81.32 197.82,50.69 201.53,41.96 L201.84,42.09 C198.15,50.73 194.55,81.32 194.51,81.63 Z" id="Path" fill="#99B1A9" fill-rule="nonzero" opacity="0.94"></path>
                        <path d="M204.36,80.58 C204.25,79.81 200.62,69.91 200.02,66.77 C199.55,64.35 199.74,56.97 199.74,56.97 L196.11,56.97 C196.11,56.97 196.3,64.35 195.83,66.77 C195.23,69.91 191.6,79.77 191.49,80.58 C191.4272,80.9533332 191.397086,81.331433 191.4,81.71 L204.4,81.71 C204.419465,81.3328861 204.406081,80.9547937 204.36,80.58 L204.36,80.58 Z" id="Path" fill="#89A79E" fill-rule="nonzero" opacity="0.52"></path>
                        <rect id="Rectangle" fill="#89A79E" fill-rule="nonzero" opacity="0.94" x="195.85" y="56.38" width="4.12" height="1" rx="0.25"></rect>
                        <path d="M202.22,54 C201.105585,55.1010058 199.682583,55.8369211 198.14,56.11 C198.61364,54.6179453 199.522562,53.3015751 200.75,52.33 C201.934221,51.3212689 203.333089,50.5961833 204.84,50.21 C204.348866,51.6987814 203.439269,53.0145732 202.22,54 L202.22,54 Z" id="Path" fill="#95AEA6" fill-rule="nonzero"></path>
                        <path d="M204.33,38.3 C204.18,37.51 204.04,35.85 203.85,35.18 C203.834973,35.1590568 203.810776,35.1466369 203.785,35.1466369 C203.759224,35.1466369 203.735027,35.1590568 203.72,35.18 C203.08,35.74 202.07,36.97 201.56,37.51 C201.4,36.84 200.99,35.13 200.74,34.34 C200.728361,34.3086447 200.698446,34.2878388 200.665,34.2878388 C200.631554,34.2878388 200.601639,34.3086447 200.59,34.34 C200.04615,35.5533764 199.630561,36.8202535 199.35,38.12 C198.797715,39.9204483 199.809552,41.8277151 201.61,42.3799999 C203.410448,42.9322846 205.317715,41.9204482 205.87,40.12 C206.35924,38.8719389 206.695034,37.5690597 206.87,36.24 C206.875356,36.2095102 206.860049,36.1791229 206.832361,36.1652786 C206.804672,36.1514344 206.771178,36.1574212 206.75,36.18 C206.16,36.57 205,37.6 204.33,38.3 Z" id="Path" fill="#D5554D" fill-rule="nonzero"></path>
                        <path d="M190.59,110.44 C190.59,110.44 190.07,102.12 191.48,102.12 C192.89,102.12 193.19,110.44 193.19,110.44 C193.19,110.44 195.03,99.24 196.19,99.15 C197.35,99.06 196.62,110.44 196.62,110.44 C196.62,110.44 197.75,101.29 198.62,101.31 C199.49,101.33 198.85,110.44 198.85,110.44 C198.85,110.44 200.1,102.64 200.92,102.67 C202.09,102.67 200.25,110.44 200.25,110.44 L190.59,110.44 Z" id="Path" fill="#2D544B" fill-rule="nonzero"></path>
                        <path d="M191,110.44 C191,110.44 188.7,105.44 189.22,104.98 C189.74,104.52 192.57,110.44 192.57,110.44 C192.57,110.44 193.29,101.98 194.04,101.89 C194.79,101.8 194.94,110.44 194.94,110.44 C194.94,110.44 195.86,100.88 196.87,100.71 C197.88,100.54 197.62,110.44 197.62,110.44 C197.62,110.44 199.36,103.82 200.02,103.77 C200.68,103.72 199.59,110.44 199.59,110.44 L191,110.44 Z" id="Path" fill="#426E60" fill-rule="nonzero"></path>
                        <polygon id="Path" fill="#FDF1DD" fill-rule="nonzero" points="199.19 124.5 191.73 124.5 189.91 110.44 201 110.44"></polygon>
                        <path d="M191,118.86 L190.95,118.42 L199.95,118.42 L199.9,118.86 L191,118.86 Z M190.77,117.03 L190.77,117.47 L200.04,117.47 L200.1,117.03 L190.77,117.03 Z M190.59,115.64 L190.59,116.09 L200.22,116.09 L200.28,115.64 L190.59,115.64 Z" id="Shape" fill="#455A8B" fill-rule="nonzero" opacity="0.1" style="mix-blend-mode: multiply;"></path>
                    </g>
                </g>
            </g>
        </g>
    </g>
</svg>