<?xml version="1.0" encoding="UTF-8"?><svg id="Layer_1" xmlns="http://www.w3.org/2000/svg" viewBox="0 0 1554 874"><defs><style>.cls-1{isolation:isolate;}.cls-2{fill:#149a9d;}.cls-3{fill:#fff;}</style></defs><rect class="cls-2" x="-23" y="-7.3" width="1600" height="900"/><g class="cls-1"><g class="cls-1"><path class="cls-3" d="M76.7,803.5v-9.3h5.9c.9,0,1.9-.5,2.9-1.5s1.5-2,1.5-3v-71.2c0-1-.5-2.1-1.4-3.1s-1.9-1.6-3-1.6h-5.9v-9h39.3c23.6,0,35.4,8.3,35.4,25s-1.7,11-5.1,14.4c-3.4,3.4-8.3,5.7-14.8,7.1v.4c16.1,2.1,24.1,10,24.1,23.8s-1.1,9.8-3.3,13.7-5.2,6.8-9,8.7c-3.8,2-7.8,3.4-12.1,4.3-4.2.9-8.8,1.3-13.7,1.3h-40.9.1ZM103.4,747.3h12.1c6.4,0,11.3-1.2,14.6-3.7,3.3-2.4,5-6.7,5-12.7s-1.6-10.3-4.9-12.6c-3.2-2.3-8.1-3.5-14.6-3.5h-12.3v32.4l.1.1ZM103.4,793.6h13.8c7,0,12.4-1.5,16-4.4s5.4-7.8,5.4-14.5-1.8-11.6-5.5-14.1-9.2-3.8-16.5-3.8h-13.3v36.8h.1Z"/></g><g class="cls-1"><path class="cls-3" d="M188.5,804.5c-13.2,0-19.7-6.1-19.7-18.3v-43.1c0-.8-.4-1.7-1.1-2.7-.9-.8-1.8-1.1-2.7-1.1h-5.5v-9.6h24.5v51.7c0,4.1.9,7.2,2.8,9.1,1.9,1.9,4.9,2.9,9,2.9,6.8,0,13.8-2.4,21-7.3v-46.8h-10.6v-9.6h25.8v60.9c0,.9.4,1.8,1.3,2.7.8.8,1.6,1.3,2.7,1.3h5.6v9h-21.3c-1,0-1.8-.6-2.4-1.7-.7-1-1-3.3-1-6.9v-1.8c-8.6,7.6-18.1,11.4-28.5,11.4l.1-.1Z"/><path class="cls-3" d="M245.6,803.5v-9h5.5c1,0,1.9-.4,2.7-1.1.8-.8,1.1-1.6,1.1-2.7v-47.5c0-.8-.4-1.6-1.1-2.7-.8-.8-1.6-1.3-2.5-1.3h-6.2v-9.6h22.3c1.1,0,1.9.5,2.3,1.4.4.8.6,2.5.6,5.1v54.6c0,1,.4,1.9,1.3,2.7.8.8,1.6,1.1,2.5,1.1h5.5v9h-34ZM268.3,719.4c-1.7,1.6-3.8,2.5-6.2,2.5s-4.5-.8-6.2-2.5c-1.7-1.6-2.5-3.7-2.5-6.1s.8-4.5,2.5-6.1,3.8-2.5,6.2-2.5,4.5.8,6.2,2.5c1.7,1.6,2.5,3.7,2.5,6.1s-.8,4.5-2.5,6.1Z"/></g><g class="cls-1"><path class="cls-3" d="M283.4,803.5v-9h5.4c1,0,1.9-.4,2.7-1.2.8-.8,1.2-1.7,1.2-2.6v-72.6c0-.8-.4-1.6-1.1-2.7-.8-.8-1.8-1.3-2.8-1.3h-5.8v-9.3h22.1c1.9,0,2.8,1.3,2.8,3.8v82.1c0,1,.4,1.9,1.3,2.7.8.8,1.6,1.1,2.5,1.1h5.5v9h-33.8Z"/></g><g class="cls-1"><path class="cls-3" d="M352.5,804.4c-5.5,0-10.2-1-14.2-3s-7.2-4.7-9.6-8.2-4.1-7.4-5.2-11.7-1.7-9-1.7-14c0-10.9,2.8-20.1,8.4-27.5s13.6-11.1,23.9-11.1,16.9,2.9,22.7,8.7v-23.4h-10.7v-9.3h23.1c1.9,0,2.8,1.3,2.8,3.8v81.9c0,.9.4,1.8,1.3,2.7.8.8,1.6,1.3,2.5,1.3h5.5v9h-21.3c-.9,0-1.6-.7-2-2.1-.5-1.1-.8-3.8-1-8-6.7,7.3-14.9,11-24.5,11v-.1ZM356.9,794.9c7.4,0,14.1-3.3,19.9-9.9v-39.3c-5.5-4.1-11.5-6.2-17.8-6.2s-13.2,2.6-16.5,7.8-4.9,11.8-4.9,19.7.9,11.5,2.7,16.7,5.1,8.5,9.7,9.9c2.3.8,4.6,1.3,6.9,1.3h0Z"/><path class="cls-3" d="M405.3,803.5v-9h5.5c1,0,1.9-.4,2.7-1.1.8-.8,1.1-1.6,1.1-2.7v-47.5c0-.8-.4-1.6-1.1-2.7-.8-.8-1.6-1.3-2.5-1.3h-6.2v-9.6h22.3c1.1,0,1.9.5,2.3,1.4.4.8.6,2.5.6,5.1v54.6c0,1,.4,1.9,1.3,2.7.8.8,1.6,1.1,2.5,1.1h5.5v9h-34ZM428,719.4c-1.7,1.6-3.8,2.5-6.2,2.5s-4.5-.8-6.2-2.5c-1.7-1.6-2.5-3.7-2.5-6.1s.8-4.5,2.5-6.1,3.8-2.5,6.2-2.5,4.5.8,6.2,2.5c1.7,1.6,2.5,3.7,2.5,6.1s-.8,4.5-2.5,6.1Z"/></g><g class="cls-1"><path class="cls-3" d="M443,803.5v-9h5.5c1,0,1.9-.4,2.7-1.1.8-.8,1.1-1.6,1.1-2.7v-47.5c0-.8-.4-1.6-1.1-2.7-.8-.8-1.7-1.3-2.7-1.3h-6.1v-9.6h21.6c1.1,0,2,.6,2.7,1.8.8,1.2,1,3.6.8,7.2v2c8.5-7.9,18.1-11.8,29-11.8s10.1,1.2,13.7,3.7c3.8,3.2,5.6,8.1,5.6,14.7v43.6c0,1,.4,1.9,1.3,2.7.8.8,1.6,1.1,2.4,1.1h4.7v9h-33.7v-9h10.2v-42.3c0-4.2-.9-7.2-2.6-8.9s-4.7-2.5-9-2.5c-6,0-13.2,2.4-21.6,7v46.7h10.3v9h-34.8v-.1Z"/></g><g class="cls-1"><path class="cls-3" d="M557.1,827.8c-20.8,0-31.2-5.8-31.2-17.5s1.3-7.7,3.9-10.3c2.2-2.4,5.1-4.6,8.9-6.3-3.9-2.2-5.8-5.5-5.8-10s2.5-9.4,7.5-13.7c-5.7-4.2-8.6-10.1-8.6-17.5s2.7-13.7,8-17.7c5.4-4,12.1-6,20.2-6s6.3.3,9.2.8h25.4v9.6h-6.3c-.8,0-1.5.2-2.1.7-.7.5-1,1.1-1,1.8,2.2,3,3.2,6.6,3.2,10.7,0,7.5-2.8,13.2-8.3,17.1-5.5,3.9-12.2,5.8-20,5.8s-9.4-.8-13.7-2.4c-1.3,1.9-2,3.9-2,6.2,0,3.5,2.3,5.2,6.9,5.2h20.7c14.9,0,22.4,6.1,22.4,18.3s-.7,7-2,10.2c-4.7,10-16.5,14.9-35.4,14.9l.1.1ZM557.8,818c14.9,0,22.3-4,22.3-12.1s-1-5.5-3-6.6-4.8-1.7-8.5-1.7h-24c-3.3,2.7-4.9,5.9-4.9,9.6s.5,4.3,1.6,5.9c1.1,1.6,2.6,2.7,4.7,3.3,2,.7,3.9,1.1,5.6,1.3,1.7.2,3.8.4,6.1.4l.1-.1ZM549.7,762.8c2.5,2.4,5.9,3.7,10.4,3.7s7.9-1.2,10.4-3.7c2.5-2.4,3.8-5.9,3.8-10.3s-1.2-8-3.7-10.5-6-3.7-10.5-3.7-8,1.2-10.4,3.7-3.7,6-3.7,10.5,1.2,7.8,3.7,10.3Z"/></g><g class="cls-1"><path class="cls-3" d="M622.5,803.5v-9h5.9c.9,0,1.9-.5,2.9-1.5s1.5-2,1.5-3v-71.2c0-1-.5-2.1-1.4-3.1s-1.9-1.6-3-1.6h-5.9v-9.3h39.2v9.3h-12.5v34h44.4v-34h-12.5v-9.3h39.3v9.3h-5.9c-1.1,0-2.2.5-3.1,1.6-.9,1-1.4,2.1-1.4,3.1v71.2c0,1,.5,2,1.5,3s2,1.5,3,1.5h5.9v9h-39.3v-9h12.5v-36.8h-44.4v36.8h12.5v9h-39.2Z"/></g><g class="cls-1"><path class="cls-3" d="M761.7,804.4c-11.9,0-21.2-3.2-27.7-9.7s-9.8-15.7-9.8-27.8,3.2-20.4,9.7-27.5,15.2-10.6,26.2-10.6c21.8,0,32.7,11.8,32.7,35.5v2.8c0,.7-.1,1.3-.1,1.8h-52.6c.6,17.1,8.1,25.7,22.7,25.7s14.8-2.8,19-8.3h8.7v10.4c-7.2,5.1-16.9,7.6-28.9,7.6l.1.1ZM740.4,759.8h37.1c-.3-6.8-1.7-12.1-4.2-15.9-2.5-3.8-6.9-5.7-13.2-5.7-11.8,0-18.4,7.2-19.7,21.6h0Z"/></g><g class="cls-1"><path class="cls-3" d="M821.8,804.4c-7.2,0-13-1.9-17.4-5.6-4.4-3.8-6.6-9.2-6.6-16.4s2.8-13.5,8.5-17.1c5.6-3.6,12.5-5.4,20.7-5.4s11.7.7,16.9,2v-9.7c0-4.8-1.3-8.1-3.8-10s-6.3-2.8-11.1-2.8c-7.8,0-14.2,2.3-19.2,6.9h-7v-11.7c8.1-3.9,17.7-5.8,28.9-5.8s15.6,1.6,20.4,4.8c4.7,3.2,7.1,8.9,7.1,17.1v39.3c0,1.5.4,2.6,1.3,3.2.8.8,1.9,1.3,3.2,1.3h3.8v7.6c-.5.4-1.8.9-3.9,1.7-1.5.4-3.4.6-5.8.6-7.8,0-12.3-3.3-13.4-10-5.3,6.7-12.8,10-22.6,10h0ZM826.6,794.6c6.4,0,12.2-2.7,17.3-8.2v-16.1c-2.6-.6-4.8-.9-6.6-1.1-3.2-.2-5.6-.3-7.2-.3-11.5,0-17.2,4.3-17.2,13s4.6,12.7,13.7,12.7h0Z"/></g><g class="cls-1"><path class="cls-3" d="M871.4,803.5v-9h5.4c1,0,2-.4,2.8-1.2s1.2-1.7,1.2-2.6v-72.6c0-.8-.4-1.6-1.1-2.7-.8-.8-1.8-1.3-2.8-1.3h-5.8v-9.3h22.1c1.9,0,2.8,1.3,2.8,3.8v82.1c0,1,.4,1.9,1.3,2.7.8.8,1.6,1.1,2.5,1.1h5.5v9h-33.9Z"/></g><g class="cls-1"><path class="cls-3" d="M937.4,804.5c-7.1,0-12.2-1.4-15.2-4.1-3.7-2.8-5.5-7.6-5.5-14.4v-46.8h-9.4v-9.6h9.4v-19.9h15.2v19.9h16.8v9.6h-16.8v45.1c0,3.9.8,6.5,2.3,8s4.2,2.2,8,2.2h7.5v8.2c-3.8,1.2-7.8,1.8-12.3,1.8Z"/></g><g class="cls-1"><path class="cls-3" d="M978.3,747.8v46.7h10.3v9h-34.8v-9h5.5c1,0,1.9-.4,2.7-1.1s1.1-1.6,1.1-2.7v-72.6c0-.8-.4-1.6-1.1-2.7-.8-.8-1.7-1.3-2.7-1.3h-5.9v-9.3h22.1c1.9,0,2.8,1.3,2.8,3.8v32c8.5-7.9,18.1-11.8,29-11.8s10.1,1.2,13.7,3.7c3.8,3.2,5.6,8.1,5.6,14.7v43.6c0,1,.4,1.9,1.3,2.7.8.8,1.6,1.1,2.4,1.1h4.7v9h-33.7v-9h10.2v-42.3c0-4.2-.9-7.2-2.6-8.9-1.7-1.7-4.7-2.5-9-2.5-6,0-13.2,2.4-21.6,7v-.1Z"/></g><g class="cls-1"><path class="cls-3" d="M1045.8,826.4v-8.5c8.3-2.5,15.1-7.9,20.4-16.2l-25-58c-.6-1.3-1.3-2.4-2.1-3.2-.9-.8-2-1.3-3.1-1.3h-2.7v-9.6h32.7v9.6h-10.9l18.9,45.4,15.2-37.2c1-2.5,1.4-4.5,1-5.9-.4-1.5-1.9-2.3-4.5-2.3h-3.7v-9.6h30.2v9.6h-3.2c-2,0-3.8,1.6-5.5,4.7l-23.4,54c-6,14-13.2,23.5-21.6,28.5h-12.8.1Z"/></g><g class="cls-1"><path class="cls-3" d="M1174.8,804.5c-7.9,0-14.8-1.6-20.6-4.7-1,0-1.7,1.2-2.1,3.7h-10.7v-28.8h11.1l1.4,12c5,5,11.8,7.5,20.6,7.5s10.2-1.3,13.6-3.9c3.4-2.6,5.1-6.7,5.1-12.1s-.6-6.1-1.7-8.2c-2.4-3.6-6.6-6.3-12.7-8-15.2-3.8-25-7.9-29.3-12.5-2.3-2.4-3.9-5.1-4.8-8-1.1-2.9-1.7-6.5-1.7-10.9,0-8.9,3-15.6,8.9-20s13.4-6.6,22.4-6.6,13.2,1.4,17.8,4.1c1.1,0,1.8-1,2.1-3.1h10.3v26.1h-10.9l-1.4-9.9c-4.9-4.5-10.9-6.8-17.9-6.8-11.6,0-17.3,4.9-17.3,14.7s.6,5.3,1.7,7c1.9,3.4,5.8,5.9,11.7,7.5.2,0,3.2,1,9.2,2.7,3.4.9,6.2,1.8,8.3,2.5,2.2.8,4.6,1.8,7.3,3.2,2.7,1.4,4.9,3,6.8,5s3.3,4.3,4.4,7c1.1,3.2,1.7,7,1.7,11.6,0,10-3,17.3-9,22s-14.1,7.1-24.3,7.1v-.2Z"/></g><g class="cls-1"><path class="cls-3" d="M1213.3,803.5v-9h5.4c1,0,2-.4,2.8-1.2s1.2-1.7,1.2-2.6v-72.6c0-.8-.4-1.6-1.1-2.7-.8-.8-1.8-1.3-2.8-1.3h-5.8v-9.3h22.1c1.9,0,2.8,1.3,2.8,3.8v82.1c0,1,.4,1.9,1.3,2.7.8.8,1.6,1.1,2.5,1.1h5.5v9h-33.9Z"/></g><g class="cls-1"><path class="cls-3" d="M1288.2,804.4c-11.9,0-21.2-3.2-27.7-9.7s-9.8-15.7-9.8-27.8,3.2-20.4,9.7-27.5c6.5-7,15.2-10.6,26.2-10.6,21.8,0,32.7,11.8,32.7,35.5v2.8c0,.7-.1,1.3-.1,1.8h-52.6c.6,17.1,8.1,25.7,22.7,25.7s14.8-2.8,19-8.3h8.7v10.4c-7.2,5.1-16.9,7.6-28.9,7.6l.1.1ZM1266.9,759.8h37.1c-.3-6.8-1.7-12.1-4.2-15.9-2.5-3.8-6.9-5.7-13.2-5.7-11.8,0-18.4,7.2-19.7,21.6h0Z"/><path class="cls-3" d="M1362.6,804.4c-11.9,0-21.2-3.2-27.7-9.7s-9.8-15.7-9.8-27.8,3.2-20.4,9.7-27.5c6.5-7,15.2-10.6,26.2-10.6,21.8,0,32.7,11.8,32.7,35.5v2.8c0,.7-.1,1.3-.1,1.8h-52.6c.6,17.1,8.1,25.7,22.7,25.7s14.8-2.8,19-8.3h8.7v10.4c-7.2,5.1-16.9,7.6-28.9,7.6l.1.1ZM1341.3,759.8h37.1c-.3-6.8-1.7-12.1-4.2-15.9-2.5-3.8-6.9-5.7-13.2-5.7-11.8,0-18.4,7.2-19.7,21.6h0Z"/><path class="cls-3" d="M1398.6,826.4v-8.5h5.5c.8,0,1.7-.4,2.7-1.1.8-.9,1.1-1.8,1.1-2.7v-70.9c0-.8-.4-1.6-1.1-2.7-.8-.8-1.7-1.3-2.7-1.3h-6.1v-9.6h21.6c.9,0,1.8.5,2.5,1.6.6,1.1.8,3.5.8,7v1.8c7.2-7.5,15.6-11.3,25-11.3s9.5,1,13.3,3.1,6.8,4.9,8.9,8.5,3.7,7.5,4.7,11.6c1,4.2,1.5,8.6,1.5,13.3,0,10.9-2.8,19.9-8.2,26.9-5.5,7-13.5,10.5-23.9,10.5s-15.9-2.3-21-6.8v22h11v8.5h-35.5l-.1.1ZM1440,793.6c13.6,0,20.4-9,20.4-27.1s-6.4-26.6-19.3-26.6-12.1,2.6-18,7.9v39.2c4.7,4.4,10.3,6.6,16.9,6.6h0Z"/></g></g><path class="cls-3" d="M574.7,483c-13.6-54.5,3.6-114.6,45.4-152.5,84-77.1,215-34.9,246.4,72.6,6.6,22.2,8.3,45.8,5.1,68.9-1,7-7.5,11.9-14.5,10.9s-11.9-7.5-10.9-14.5c3.6-19.5,3-39.9-1.8-59.2-4.8-19.3-13.9-37.5-26.5-52.9-54.8-68.1-158.7-64-209.8,6.4-24.7,33.2-33.4,77.6-23.5,117.8,1.4,6.5-8,8.9-9.8,2.4h0l-.1.1Z"/><path class="cls-3" d="M542.5,430.5c-38-6.7-77.4,19.7-89.3,55.8-10,29.1.2,61.2,24.2,80.2,17.9,14.5,40.9,21.3,63.7,21.2,84.4-1.1,171.5-2.1,255.8-1.1l55.3.5c8.2.1,17.1.2,25.2-1.4,51.5-8.8,86.7-59.5,64.1-109.6-7.1-15.6-19.1-28.5-33.5-37.7-7.3-4.6-15.3-8.4-23.8-11-2.5-.8-3.9-3.4-3.1-5.9.7-2.3,3.1-3.6,5.4-3.1,39,7.8,72.9,39,79.3,79.3,8.9,53.9-32.3,101.6-83.9,111.7-7.5,1.6-15.2,2.4-22.8,2.6-2.2,0-58.5.6-62.3.7-83.7,1.1-170.3.2-254.2-.8-49.6.1-95.5-35.7-103.9-85-9.6-50.6,27-99.5,74.8-113.9,9.8-3,20.1-4.5,30.3-4.6,6.3-.3,11.6,4.7,11.7,11,.2,7-6.3,12.6-13.1,11.4h0l.1-.3Z"/><path class="cls-3" d="M640.6,123.7c-4.8,0-8.7,3.9-8.7,8.7v14.7c0,4.8,3.9,8.7,8.7,8.7s8.7-3.9,8.7-8.7v-14.7c0-4.8-3.9-8.7-8.7-8.7Z"/><path class="cls-3" d="M649.3,195.9v-14.7c0-4.8-3.9-8.7-8.7-8.7s-8.7,3.9-8.7,8.7v14.7c0,4.8,3.9,8.7,8.7,8.7s8.7-3.9,8.7-8.7Z"/><path class="cls-3" d="M623.6,155.4h-14.7c-4.8,0-8.7,3.9-8.7,8.7s3.9,8.7,8.7,8.7h14.7c4.8,0,8.7-3.9,8.7-8.7s-3.9-8.7-8.7-8.7Z"/><path class="cls-3" d="M672.4,155.4h-14.7c-4.8,0-8.7,3.9-8.7,8.7s3.9,8.7,8.7,8.7h14.7c4.8,0,8.7-3.9,8.7-8.7s-3.9-8.7-8.7-8.7Z"/><path class="cls-3" d="M494.4,261.7c-4.8,0-8.7,3.9-8.7,8.7v14.7c0,4.8,3.9,8.7,8.7,8.7s8.7-3.9,8.7-8.7v-14.7c0-4.8-3.9-8.7-8.7-8.7Z"/><path class="cls-3" d="M494.4,310.5c-4.8,0-8.7,3.9-8.7,8.7v14.7c0,4.8,3.9,8.7,8.7,8.7s8.7-3.9,8.7-8.7v-14.7c0-4.8-3.9-8.7-8.7-8.7Z"/><path class="cls-3" d="M486,302.1c0-4.8-3.9-8.7-8.7-8.7h-14.7c-4.8,0-8.7,3.9-8.7,8.7s3.9,8.7,8.7,8.7h14.7c4.8,0,8.7-3.9,8.7-8.7Z"/><path class="cls-3" d="M511.4,310.9h14.7c4.8,0,8.7-3.9,8.7-8.7s-3.9-8.7-8.7-8.7h-14.7c-4.8,0-8.7,3.9-8.7,8.7s3.9,8.7,8.7,8.7h0Z"/><path class="cls-3" d="M998.2,204.5c-4.8,0-8.7,3.9-8.7,8.7v14.7c0,4.8,3.9,8.7,8.7,8.7s8.7-3.9,8.7-8.7v-14.7c0-4.8-3.9-8.7-8.7-8.7Z"/><path class="cls-3" d="M998.2,253.3c-4.8,0-8.7,3.9-8.7,8.7v14.7c0,4.8,3.9,8.7,8.7,8.7s8.7-3.9,8.7-8.7v-14.7c0-4.8-3.9-8.7-8.7-8.7h0Z"/><path class="cls-3" d="M981.2,236.3h-14.7c-4.8,0-8.7,3.9-8.7,8.7s3.9,8.7,8.7,8.7h14.7c4.8,0,8.7-3.9,8.7-8.7s-3.9-8.7-8.7-8.7Z"/><path class="cls-3" d="M1015.3,253.7h14.7c4.8,0,8.7-3.9,8.7-8.7s-3.9-8.7-8.7-8.7h-14.7c-4.8,0-8.7,3.9-8.7,8.7s3.9,8.7,8.7,8.7Z"/><path class="cls-3" d="M985.8,490c46-8.6,96.6-53.3,116.6-94.9l.3-.7c.2-.4.3-.9.4-1.3,0-.5.1-.9,0-1.1,0-.2-.1-.3-.2-.3,0,0-.3-.2-.6-.1-.3,0-.4.1-.5.3l-3.1,1.3c-24.8,9.6-51.8,13.5-78.4,10.5-122.3-15.4-182.5-151.2-120.6-255.4.9-1.4,2.7-4.4,3.6-5.7.9-1.3,2.8-4.2,3.8-5.6l2-2.7,2-2.7c.3-.4.5-.8.6-1.3.9-3.3-2.5-6-5.8-4.4-50.6,15.8-93.7,54.1-117.1,101.5-7.1,14.7-12.2,31-12.6,47.2,0,4.8-4.1,8.6-8.9,8.5s-8.6-4.1-8.5-8.9c2.1-19.3,9.3-36.9,18-53,27.8-49.1,73.9-88.6,128.2-105.1,12.3-2.9,21.5,11.1,14.1,21.3-1.6,2.3-4,5.4-5.5,7.8-16.3,24.6-24.8,54.1-24.3,83.5,1.3,103.9,105.7,176.4,204.2,148.6l3-.9c13-4.2,25.4,8.1,20.6,21.1-.5,1.4-1.2,2.7-1.9,4-9.4,16.8-22,31.6-35.6,45.1-19.3,18.6-41.2,34.8-65.8,45.6-8.3,3.6-17,6.4-25.9,8.4-2.9.6-5.8-1.2-6.5-4.1-.7-3,1.3-6,4.4-6.5h0Z"/><path class="cls-3" d="M645.7,392.3c6.2-8,13.8-14.8,22.6-20.2,13.3-8.2,28.5-12.5,44-12.5,5.7,0,10.3-4.6,10.3-10.3s-4.6-10.3-10.3-10.3c-19.3,0-38.2,5.4-54.8,15.6-10.9,6.7-20.3,15.1-28.1,25.1-3.5,4.5-2.7,10.9,1.8,14.4,1.6,1.2,3.4,1.9,5.3,2.1,3.4.3,6.9-1,9.1-3.9h.1Z"/><path class="cls-3" d="M622.1,413.6c-5.5-1.3-11,2.2-12.3,7.8-1.7,7.6-2.6,15.3-2.6,23.1,0,5.3,4.1,9.7,9.3,10.2h1c5.7,0,10.3-4.6,10.3-10.3s.7-12.5,2.1-18.6c1.2-5.5-2.2-11-7.8-12.3h0v.1Z"/></svg>