<?xml version="1.0" encoding="UTF-8"?>
<svg width="344px" height="184px" viewBox="0 0 344 184" version="1.1" xmlns="http://www.w3.org/2000/svg" xmlns:xlink="http://www.w3.org/1999/xlink">
    <title>C0FEF39A-04EF-4526-A07E-0219776748B9</title>
    <defs>
        <rect id="path-1" x="0" y="0" width="344" height="184"></rect>
        <linearGradient x1="50.4377345%" y1="50.2587851%" x2="51.5584655%" y2="50.8035958%" id="linearGradient-3">
            <stop stop-color="#134D82" offset="0%"></stop>
            <stop stop-color="#FFFFFF" offset="100%"></stop>
        </linearGradient>
        <linearGradient x1="67.5315667%" y1="50%" x2="21.3223624%" y2="50%" id="linearGradient-4">
            <stop stop-color="#FFFFFF" offset="0%"></stop>
            <stop stop-color="#A9BED1" offset="100%"></stop>
        </linearGradient>
        <linearGradient x1="42.1123301%" y1="50.8985507%" x2="35.7151238%" y2="32.1449275%" id="linearGradient-5">
            <stop stop-color="#134D82" offset="0%"></stop>
            <stop stop-color="#FFFFFF" offset="100%"></stop>
        </linearGradient>
        <linearGradient x1="59.1521366%" y1="54.0911587%" x2="50.3053592%" y2="27.5123558%" id="linearGradient-6">
            <stop stop-color="#134D82" offset="0%"></stop>
            <stop stop-color="#FFFFFF" offset="100%"></stop>
        </linearGradient>
        <linearGradient x1="48.5282427%" y1="52.6540101%" x2="40.5695323%" y2="15.497869%" id="linearGradient-7">
            <stop stop-color="#134D82" offset="0%"></stop>
            <stop stop-color="#FFFFFF" offset="100%"></stop>
        </linearGradient>
        <linearGradient x1="44.3849415%" y1="44.6534121%" x2="50.4190342%" y2="50.4567437%" id="linearGradient-8">
            <stop stop-color="#BEBDBD" offset="0%"></stop>
            <stop stop-color="#FFFFFF" offset="100%"></stop>
        </linearGradient>
        <linearGradient x1="0%" y1="50.0283854%" x2="99.6282528%" y2="50.0283854%" id="linearGradient-9">
            <stop stop-color="#CA6138" offset="0%"></stop>
            <stop stop-color="#DC8C54" offset="100%"></stop>
        </linearGradient>
        <linearGradient x1="-0.270392254%" y1="50.2211453%" x2="100%" y2="50.2211453%" id="linearGradient-10">
            <stop stop-color="#CA6138" offset="0%"></stop>
            <stop stop-color="#DC8C54" offset="100%"></stop>
        </linearGradient>
        <linearGradient x1="0%" y1="49.55744%" x2="99.9044419%" y2="49.55744%" id="linearGradient-11">
            <stop stop-color="#CA6138" offset="0%"></stop>
            <stop stop-color="#DC8C54" offset="100%"></stop>
        </linearGradient>
        <linearGradient x1="48.2472783%" y1="43.4150092%" x2="62.0503767%" y2="57.272558%" id="linearGradient-12">
            <stop stop-color="#FFFFFF" offset="0%"></stop>
            <stop stop-color="#F0929C" offset="100%"></stop>
        </linearGradient>
        <linearGradient x1="34.7708895%" y1="16.4416853%" x2="52.0215633%" y2="77.7025014%" id="linearGradient-13">
            <stop stop-color="#FFFFFF" offset="0%"></stop>
            <stop stop-color="#E7794F" offset="100%"></stop>
        </linearGradient>
        <linearGradient x1="48.9630589%" y1="41.3231252%" x2="63.4934561%" y2="56.4423199%" id="linearGradient-14">
            <stop stop-color="#FFFFFF" offset="0%"></stop>
            <stop stop-color="#F0929C" offset="100%"></stop>
        </linearGradient>
        <linearGradient x1="27.9851808%" y1="57.1016949%" x2="64.3497664%" y2="33.5889831%" id="linearGradient-15">
            <stop stop-color="#822A20" offset="0%"></stop>
            <stop stop-color="#DC8C54" offset="100%"></stop>
        </linearGradient>
        <linearGradient x1="-1.20222501%" y1="50.5517361%" x2="89.7721156%" y2="49.572675%" id="linearGradient-16">
            <stop stop-color="#CC8D73" offset="0%"></stop>
            <stop stop-color="#D49770" offset="100%"></stop>
        </linearGradient>
        <linearGradient x1="37.3689334%" y1="46.102737%" x2="62.1856467%" y2="53.8473171%" id="linearGradient-17">
            <stop stop-color="#E0B292" offset="0%"></stop>
            <stop stop-color="#EBBB8D" offset="100%"></stop>
        </linearGradient>
        <linearGradient x1="47.8787028%" y1="69.2562346%" x2="66.9300352%" y2="17.4095838%" id="linearGradient-18">
            <stop stop-color="#E9DDD5" offset="0%"></stop>
            <stop stop-color="#FFFFFF" offset="100%"></stop>
        </linearGradient>
    </defs>
    <g id="Patient---Mobile" stroke="none" stroke-width="1" fill="none" fill-rule="evenodd">
        <g id="home_specialty_appt" transform="translate(-16.000000, -128.000000)">
            <g id="ill_connected_to_care_woman" transform="translate(16.000000, 128.000000)">
                <mask id="mask-2" fill="white">
                    <use xlink:href="#path-1"></use>
                </mask>
                <use id="Mask" fill="#FFFFFF" xlink:href="#path-1"></use>
                <g id="5-female" mask="url(#mask-2)">
                    <g transform="translate(0.000000, 2.000000)">
                        <rect id="Rectangle" stroke="none" fill="#6C7A78" fill-rule="nonzero" x="54.94" y="172.31" width="289.06" height="8.96"></rect>
                        <path d="M216.2,102.27 C217.39,100.27 215.29,99.73 212.64,101.27 C209.99,102.81 194.47,113.27 194.47,113.27 C194.47,113.27 202.47,107.42 204.56,105.27 C206.65,103.12 209.85,100.12 207.89,99.21 C205.93,98.3 196.09,106.04 192.34,107.97 C188.892002,109.933164 185.553705,112.083027 182.34,114.41 C182.34,114.41 183.46,112.6 184.78,110.26 C186.1,107.92 190.36,101.26 187.67,99.74 C184.98,98.22 182.67,105.33 176.84,111.24 C171.01,117.15 166.09,125.57 164,129.63 C161.91,133.69 145.43,159.69 137.78,169.5 C135.28,172.7 131.47,176.82 127.45,181.28 L159.61,181.28 C168.84,163.41 179.73,139.28 182.4,136.56 C185.58,133.31 194.64,129.64 202.7,124.35 C210.76,119.06 215,114.05 215,112.69 C215,111.33 212.93,112.42 211,113.97 C209.07,115.52 201.84,119.64 201.84,119.64 C204.315225,118.12336 206.693198,116.453435 208.96,114.64 C210.69,113 215.35,109.1 215.69,107.87 C216.03,106.64 215.11,105.87 212.79,107.28 C211.07,108.28 204.21,113.01 200.79,115.38 C202.5,114.2 205,112.46 207.02,111 C210.34,108.55 215,104.26 216.2,102.27 Z" id="Path" stroke="none" fill="#F7C7CB" fill-rule="nonzero"></path>
                        <path d="M295,10.08 L295,86.61 C294.992067,88.4099149 294.268749,90.1328065 292.989456,91.3989687 C291.710163,92.6651309 289.979901,93.3706366 288.18,93.3601185 L155.57,93.3601185 C153.770099,93.3706366 152.039837,92.6651309 150.760544,91.3989687 C149.481251,90.1328065 148.757933,88.4099149 148.75,86.61 L148.75,10.08 C148.757933,8.28008506 149.481251,6.55719346 150.760544,5.29103125 C152.039837,4.02486905 153.770099,3.31936345 155.57,3.32963747 L288.15,3.32963747 C289.955077,3.31134527 291.693067,4.01330272 292.978869,5.28033318 C294.26467,6.54736364 294.992109,8.27484382 295,10.08 Z" id="Path" stroke="none" fill="#FFFFFF" fill-rule="nonzero"></path>
                        <path d="M290,3 C293.683739,3 296.67,5.98626072 296.67,9.67 L296.67,88.06 C296.67,91.7437393 293.683739,94.73 290,94.73 L155.49,94.73 C151.806261,94.73 148.819932,91.7437393 148.819932,88.06 L148.819932,9.7 C148.81202,7.92581384 149.511226,6.22155601 150.762959,4.96419242 C152.014693,3.70682883 153.715796,3 155.49,3 L290,3 Z M290,2.75 L155.49,2.75 C153.65562,2.75 151.896517,3.4793864 150.600353,4.7774264 C149.304189,6.07546639 148.577345,7.83562205 148.579935,9.67 L148.579935,88.06 C148.572021,89.8978383 149.296513,91.6631407 150.593255,92.9655128 C151.889997,94.2678849 153.652144,95 155.49,95 L290,95 C291.835298,95 293.595427,94.2709307 294.893179,92.9731789 C296.190931,91.6754272 296.92,89.9152981 296.92,88.08 L296.92,9.7 C296.92,5.87818953 293.82181,2.78 290,2.78 L290,2.75 Z" id="Shape" stroke="none" fill="#BCBDC2" fill-rule="nonzero"></path>
                        <rect id="Rectangle" stroke="none" fill="#37B99A" fill-rule="nonzero" transform="translate(255.230000, 27.435000) rotate(-90.000000) translate(-255.230000, -27.435000) " x="245.875" y="25.095" width="18.71" height="4.68"></rect>
                        <rect id="Rectangle" stroke="none" fill="#485CA8" fill-rule="nonzero" transform="translate(263.600000, 29.770000) rotate(-90.000000) translate(-263.600000, -29.770000) " x="256.58" y="27.43" width="14.04" height="4.68"></rect>
                        <rect id="Rectangle" stroke="none" fill="#EE584B" fill-rule="nonzero" transform="translate(246.870000, 30.060000) rotate(-90.000000) translate(-246.870000, -30.060000) " x="240.15" y="27.72" width="13.44" height="4.68"></rect>
                        <rect id="Rectangle" stroke="none" fill="#EBA266" fill-rule="nonzero" transform="translate(238.510000, 28.620000) rotate(-90.000000) translate(-238.510000, -28.620000) " x="230.34" y="26.28" width="16.34" height="4.68"></rect>
                        <rect id="Rectangle" stroke="none" fill="#F0B41C" fill-rule="nonzero" transform="translate(230.130000, 34.655000) rotate(-90.000000) translate(-230.130000, -34.655000) " x="227.995" y="32.315" width="4.27" height="4.68"></rect>
                        <path d="M268.63,37.34 C268.624547,37.6398443 268.379894,37.8800496 268.08,37.88 L226.08,37.88 C225.867665,37.9088282 225.657918,37.811709 225.54254,37.6311396 C225.427162,37.4505702 225.427162,37.2194298 225.54254,37.0388604 C225.657918,36.858291 225.867665,36.7611718 226.08,36.79 L268.08,36.79 C268.383757,36.79 268.63,37.0362434 268.63,37.34 Z" id="Path" stroke="none" fill="#BCC1C0" fill-rule="nonzero"></path>
                        <rect id="Rectangle" stroke="none" fill="#E0E5F3" fill-rule="nonzero" opacity="0.5" x="151.26" y="4.15" width="43.78" height="50.96"></rect>
                        <rect id="Rectangle" stroke="none" fill="#E5E3E2" fill-rule="nonzero" x="151.26" y="41.08" width="43.78" height="51.83"></rect>
                        <rect id="Rectangle" stroke="none" fill="#FFFFFF" fill-rule="nonzero" x="160.08" y="47.41" width="25.27" height="3.44"></rect>
                        <rect id="Rectangle" stroke="none" fill="#6C7A78" fill-rule="nonzero" x="161.67" y="55.06" width="22.09" height="1"></rect>
                        <rect id="Rectangle" stroke="none" fill="#6C7A78" fill-rule="nonzero" x="164.81" y="58.3" width="15.8" height="1"></rect>
                        <rect id="Rectangle" stroke="none" fill="#6C7A78" fill-rule="nonzero" x="163.14" y="61.55" width="19.14" height="1"></rect>
                        <rect id="Rectangle" stroke="none" fill="#6C7A78" fill-rule="nonzero" x="161.67" y="65.75" width="22.09" height="1"></rect>
                        <rect id="Rectangle" stroke="none" fill="#6C7A78" fill-rule="nonzero" x="169.03" y="68.99" width="7.36" height="1"></rect>
                        <rect id="Rectangle" stroke="none" fill="#6C7A78" fill-rule="nonzero" x="167.56" y="72.24" width="10.31" height="1"></rect>
                        <path d="M177.51,13.53 C176.82,15 177.16,15.58 177.3,17.18 C177.44,18.78 176.41,19.1 175.93,20.45 C175.45,21.8 175.8,22.45 175.66,24.1 C175.52,25.75 174.98,25.89 174.5,27.43 C174.02,28.97 174.5,31.08 174.84,33.97 C174.896126,36.4384792 174.664566,38.905096 174.15,41.32 L167.87,41.32 C168.35,37.04 169.03,30.17 168.62,28.65 C168,26.41 168.96,22.65 169.57,21.54 C170.130342,20.4320349 170.346273,19.1817258 170.19,17.95 C170.05,16.95 170.67,16.54 171.42,15.77 C172.17,15 172.17,13.34 172.51,11.93 C172.85,10.52 174.51,9.93 174.57,8.72 C174.73,6.57 176.94,4.61 178.16,4.61 C179.16,5.61 178.02,8.5 177.81,9.61 C177.6,10.72 178.19,12.06 177.51,13.53 Z" id="Path" stroke="none" fill="#94BA9C" fill-rule="nonzero"></path>
                        <path d="M177.51,13.53 C176.82,15 177.16,15.58 177.3,17.18 C177.44,18.78 176.41,19.1 175.93,20.45 C175.45,21.8 175.8,22.45 175.66,24.1 C175.52,25.75 174.98,25.89 174.5,27.43 C174.02,28.97 174.5,31.08 174.84,33.97 C174.896126,36.4384792 174.664566,38.905096 174.15,41.32 L170.15,41.32 C170.42853,39.1849123 170.558842,37.0330963 170.54,34.88 C170.34,32.04 169.62,30.65 170.39,28.78 C171.16,26.91 172.44,27.05 172.08,24.5 C171.72,21.95 171.77,20.27 173.62,18.45 C175.47,16.63 174.23,14.79 174.34,13.3 C174.45,11.81 175.82,11.48 176.08,9.99 C176.34,8.5 176.19,6.66 178.17,4.61 C179.17,5.61 178.03,8.5 177.82,9.61 C177.61,10.72 178.19,12.06 177.51,13.53 Z" id="Path" stroke="none" fill="url(#linearGradient-3)" fill-rule="nonzero" opacity="0.17" style="mix-blend-mode: multiply;"></path>
                        <path d="M170.51,41.31 C171.51,37.31 171.37,30.54 170.85,28.71 C170.19,26.42 170.85,22.43 171.19,20.55 C171.53,18.67 170.8,17.03 170.55,15.84 C170.3,14.65 171.5,13.91 171.77,12.44 C172.04,10.97 170.77,9.97 170.48,8.69 C170.19,7.41 170.03,4.61 169.64,4.61 C168.839426,5.28430403 168.162614,6.09309337 167.64,7 C167,8.28 167.64,10.3 166.72,11.12 C165.705743,11.8959552 165.208294,13.1723554 165.43,14.43 C165.55,16.17 165.03,16.21 164.53,18.18 C164.03,20.15 165.59,21.76 165.53,23.91 C165.47,26.06 164.4,25.91 163.45,29.64 C162.77,32.3 164.33,38.14 165.3,41.31 L170.51,41.31 Z" id="Path" stroke="none" fill="#46739E" fill-rule="nonzero"></path>
                        <path d="M170.51,41.31 C171.51,37.31 171.37,30.54 170.85,28.71 C170.19,26.42 170.85,22.43 171.19,20.55 C171.53,18.67 170.8,17.03 170.55,15.84 C170.3,14.65 171.5,13.91 171.77,12.44 C172.04,10.97 170.77,9.97 170.48,8.69 C170.19,7.41 170.03,4.61 169.64,4.61 C169.64,6.9 168.32,7.04 168.64,8.78 C168.96,10.52 170.08,11.35 168.73,12.72 C167.38,14.09 167.86,14.56 167.97,17.17 C168.08,19.78 166.07,20.17 166.97,22.57 C167.97,25.41 168.15,28.07 167.09,30.03 C165.8,32.42 167.27,36.51 166.9,39.27 C167.06901,39.9224345 167.136468,40.5970177 167.1,41.27 L170.51,41.31 Z" id="Path" stroke="none" fill="url(#linearGradient-4)" fill-rule="nonzero" opacity="0.88" style="mix-blend-mode: multiply;"></path>
                        <path d="M189.49,6.78 C188.83,6.69 187.36,8.14 186.7,9.07 C186.04,10 184.29,10.14 183.55,11.59 C182.81,13.04 183.35,14.3 181.42,15.46 C179.49,16.62 178.42,18.01 176.88,20.69 C175.496019,23.2854238 174.556362,26.0942539 174.1,29 C173.71336,31.4503758 172.806349,33.7895113 171.44,35.86 C170.699097,37.6031234 170.311608,39.4759881 170.3,41.37 L173.52,41.37 C174.33,40.14 175.68,38.79 175.98,37.63 C176.39,36.05 176.15,33.48 177.05,31.94 C177.95,30.4 180.52,27.94 180.61,26.34 C180.7,24.74 182.28,22.84 183.55,21.95 C184.82,21.06 184.94,18.31 185.68,17.01 C186.42,15.71 188.01,15.14 188.09,13.65 C188.015923,12.4160309 188.369055,11.1941939 189.09,10.19 C189.85,9.35 190.14,6.88 189.49,6.78 Z" id="Path" stroke="none" fill="#A9C8AF" fill-rule="nonzero"></path>
                        <path d="M189.66,6.89 L189.49,6.78 C188.75,8.84 187.49,9.4 186.99,10.89 C186.49,12.38 185.31,12.2 184.49,14.44 C183.67,16.68 180.43,17.51 179.83,20.74 C179.12,24.53 175.38,24.05 175.52,31.17 C175.58,34.28 173.37,34.57 172.29,37.28 C171.841386,38.5628182 171.667624,39.9256556 171.78,41.28 L173.51,41.28 C174.33,40.06 175.68,38.71 175.98,37.55 C176.39,35.97 176.15,33.4 177.05,31.86 C177.95,30.32 180.52,27.86 180.61,26.26 C180.7,24.66 182.28,22.76 183.55,21.87 C184.82,20.98 184.94,18.23 185.68,16.93 C186.42,15.63 188.01,15.06 188.09,13.57 C188.015923,12.3360309 188.369055,11.1141939 189.09,10.11 C189.78,9.43 190.07,7.38 189.66,6.89 Z" id="Path" stroke="none" fill="url(#linearGradient-5)" fill-rule="nonzero" opacity="0.17" style="mix-blend-mode: multiply;"></path>
                        <path d="M186.42,41.32 C187.227252,39.8327256 187.720761,38.195636 187.87,36.51 C187.87,34.51 188.02,31.94 188.78,30.96 C189.473522,30.1254271 189.769229,29.0302155 189.59,27.96 C189.532519,26.9127451 189.689036,25.8647598 190.05,24.88 C190.208733,24.2980372 190.191333,23.6820739 190,23.11 C189.64,23.81 189.34,23.85 188.63,24.74 C187.92,25.63 188.23,26.05 187.21,27.45 C186.134354,28.7854044 185.360012,30.3374988 184.94,32 C184.59,33.73 183.17,35.55 181.94,37.18 C181.072671,38.4086462 180.482412,39.8109387 180.21,41.29 L186.42,41.32 Z" id="Path" stroke="none" fill="#94BA9C" fill-rule="nonzero"></path>
                        <path d="M186.42,41.32 C187.227252,39.8327256 187.720761,38.195636 187.87,36.51 C187.87,34.51 188.02,31.94 188.78,30.96 C189.473522,30.1254271 189.769229,29.0302155 189.59,27.96 C189.532519,26.9127451 189.689036,25.8647598 190.05,24.88 C190.208733,24.2980372 190.191333,23.6820739 190,23.11 C189.71,25.42 188.77,25.21 188.6,26.58 C188.43,27.95 188.43,28.88 187.69,29.81 C186.95,30.74 187,32 186,34.21 C185,36.42 183.14,38.53 182.8,40.06 C182.73,40.36 182.65,40.81 182.57,41.32 L186.42,41.32 Z" id="Path" stroke="none" fill="url(#linearGradient-6)" fill-rule="nonzero" opacity="0.17" style="mix-blend-mode: multiply;"></path>
                        <path d="M161.82,41.32 C161.012011,39.1289366 160.530203,36.8310832 160.39,34.5 C160.39,31.73 160.24,28.02 159.5,26.63 C158.795616,25.339042 158.515708,23.8590291 158.7,22.4 C158.757829,20.9293692 158.606313,19.4579846 158.25,18.03 C158.09105,17.1956791 158.10808,16.3373592 158.3,15.51 C158.673768,16.3252473 159.125894,17.1022339 159.65,17.83 C160.34,19.09 160.04,19.68 161.04,21.67 C162.147749,23.6886875 162.908343,25.8791973 163.29,28.15 C163.63,30.6 165.03,33.15 166.23,35.5 C167.105854,37.3359966 167.67989,39.3012257 167.93,41.32 L161.82,41.32 Z" id="Path" stroke="none" fill="#A9C8AF" fill-rule="nonzero"></path>
                        <path d="M161.82,41.32 C161.012011,39.1289366 160.530203,36.8310832 160.39,34.5 C160.39,31.73 160.24,28.02 159.5,26.63 C158.795616,25.339042 158.515708,23.8590291 158.7,22.4 C158.757829,20.9293692 158.606313,19.4579846 158.25,18.03 C158.09105,17.1956791 158.10808,16.3373592 158.3,15.51 C158.58,18.8 159.51,18.51 159.68,20.43 C159.85,22.35 159.84,23.7 160.58,25.02 C161.32,26.34 161.24,28.02 162.24,31.24 C163.24,34.46 165.06,37.37 165.4,39.53 C165.46,39.97 165.54,40.59 165.62,41.32 L161.82,41.32 Z" id="Path" stroke="none" fill="url(#linearGradient-7)" fill-rule="nonzero" opacity="0.17" style="mix-blend-mode: multiply;"></path>
                        <path d="M186,24.52 C185.64,25.36 184.47,25.92 182.7,26.71 C180.93,27.5 180.09,28.04 178.5,30.63 C177.257548,32.7580751 176.372471,35.0754891 175.88,37.49 C175.580405,38.7881524 175.203058,40.0671249 174.75,41.32 L178.18,41.32 L178.18,41 C178.18,38.76 181.18,36.24 181.93,34.28 C182.571315,32.4524572 183.593932,30.7821839 184.93,29.38 C186.155428,28.1894725 187.006884,26.6672776 187.38,25 C187.461913,24.2022148 187.688979,23.4261247 188.05,22.71 C187.16472,23.0363419 186.433491,23.6819638 186,24.52 L186,24.52 Z" id="Path" stroke="none" fill="#134D82" fill-rule="nonzero"></path>
                        <path d="M186,26.48 C185.28,27.88 184.11,27.22 182,29.18 C179.89,31.14 180.91,31.33 179.06,34.27 C177.686364,36.1310537 176.827516,38.3212867 176.57,40.62 C176.57,40.83 176.49,41.06 176.44,41.32 L178.15,41.32 L178.15,41 C178.15,38.76 181.15,36.24 181.9,34.28 C182.541315,32.4524572 183.563932,30.7821839 184.9,29.38 C186.136411,28.1933204 186.998509,26.6707442 187.38,25 C187.461913,24.2022148 187.688979,23.4261247 188.05,22.71 C186.56,24.52 186.7,25.08 186,26.48 Z" id="Path" stroke="none" fill="url(#linearGradient-8)" fill-rule="nonzero" opacity="0.26" style="mix-blend-mode: multiply;"></path>
                        <path d="M166,17.36 C165.44,16.12 165.14,12.68 165.62,11.99 C165.766693,11.7713673 165.941528,11.5729966 166.14,11.4 C166.301859,11.2590099 166.414055,11.0696794 166.46,10.86 C166.666371,10.1500408 167.144232,9.5500201 167.79,9.19 C168.316248,8.86435196 168.921196,8.68805294 169.54,8.68 C169.97678,8.66577097 170.3662,8.40096526 170.54,8 C170.792664,7.42032036 171.175988,6.9069399 171.66,6.5 C172.139872,6.0761657 172.716938,5.77732794 173.34,5.63 C173.656197,5.5532432 173.925078,5.34613157 174.08,5.06 C174.299831,4.66969678 174.655882,4.37417484 175.08,4.23 C175.08,4.23 186.24,4.17 187.38,4.23 C188.52,4.29 189.81,4.91 189.88,6 C189.928579,6.89267292 189.928579,7.78732708 189.88,8.68 C188.935864,8.9314362 188.089186,9.46104554 187.45,10.2 C186.54,11.37 186.23,12.99 184.79,13.47 C183.35,13.95 182.01,14.25 181.37,14.53 C180.73,14.81 180.03,16.18 178.87,16.61 C177.173986,16.9100619 175.451504,17.0340538 173.73,16.98 L166,17.36 Z" id="Path" stroke="none" fill="#000000" fill-rule="nonzero"></path>
                        <path d="M168.2,30.71 C162.11,33.21 159.09,36.45 158.38,38.71 C157.67,40.97 157.87,41.3 157.87,41.3 L188.93,41.3 C188.93,41.3 188.77,36.16 185.34,32.97 C181.91,29.78 176.64,29.12 176.24,29.12 C175.84,29.12 168.2,30.71 168.2,30.71 Z" id="Path" stroke="none" fill="#EE584B" fill-rule="nonzero"></path>
                        <path d="M168.56,22.82 C168.56,22.82 168.86,27.38 168.89,28.34 C168.979538,29.189903 168.731756,30.0409799 168.2,30.71 C168.2,30.71 172.4,38.05 173.2,37.95 C174,37.85 176.27,29.11 176.27,29.11 C175.588323,28.3014084 175.148184,27.3171606 175,26.27 C174.79,24.67 174.54,22.12 174.54,22.12 L168.56,22.82 Z" id="Path" stroke="none" fill="url(#linearGradient-9)" fill-rule="nonzero"></path>
                        <path d="M174.88,25.66 C174.69,24.09 174.5,22.12 174.5,22.12 L171.38,22.49 L168.82,23.2 C169.958106,24.7066659 171.704294,25.6328411 173.59,25.73 C174.18,25.72 174.59,25.69 174.88,25.66 Z" id="Path" stroke="none" fill="#134D82" fill-rule="nonzero" opacity="0.17" style="mix-blend-mode: multiply;"></path>
                        <path d="M167.36,15.58 C166.9,17.98 167.23,21.87 168.97,23.37 C170.306834,24.5269415 172.216506,24.7453031 173.78,23.92 C174.78,23.37 175.33,20.67 175.62,17.58 C175.85,15.13 175.16,15.03 175.16,15.03 C174.285592,14.8397729 173.436474,14.5477836 172.63,14.16 C171.814433,13.577647 171.261146,12.6974174 171.09,11.71 C171.09,11.71 169.09,11.49 168.18,14.23 C168.045663,14.7509693 167.760387,15.220631 167.36,15.58 L167.36,15.58 Z" id="Path" stroke="none" fill="#DC8C54" fill-rule="nonzero"></path>
                        <circle id="Oval" stroke="none" fill="#242638" fill-rule="nonzero" cx="168.76" cy="17.26" r="1"></circle>
                        <path d="M167.71,15.79 C168.439797,15.2056647 169.46889,15.1770788 170.23,15.72 C169.40987,15.4333108 168.512951,15.4582252 167.71,15.79 Z" id="Path" stroke="none" fill="#21312A" fill-rule="nonzero"></path>
                        <path d="M174.06,17 C174.06,17.13 173.99,17.19 173.86,17.19 C173.807864,17.1965985 173.755606,17.1787136 173.718446,17.1415536 C173.681286,17.1043935 173.663401,17.0521363 173.67,17 C173.666659,16.9495128 173.685981,16.9001613 173.722712,16.8653631 C173.759444,16.8305649 173.809767,16.8139369 173.86,16.82 C174,16.86 174.06,16.92 174.06,17 Z" id="Path" stroke="none" fill="#242638" fill-rule="nonzero"></path>
                        <path d="M172.37,15.66 C173.095593,15.0776174 174.118793,15.0450054 174.88,15.58 C174.061256,15.3018035 173.169367,15.3302303 172.37,15.66 L172.37,15.66 Z" id="Path" stroke="none" fill="#21312A" fill-rule="nonzero"></path>
                        <path d="M173,20.66 C173.08,21.09 172.51,21.66 171.52,21.66 C170.53,21.66 170.02,21.06 170.03,20.66 C170.04,20.26 170.55,20.56 171.54,20.56 C172.53,20.56 172.88,20.21 173,20.66 Z" id="Path" stroke="none" fill="#FFFFFF" fill-rule="nonzero"></path>
                        <path d="M167.45,20 C166.603236,20.181072 165.727454,19.8624067 165.195057,19.1795085 C164.66266,18.4966104 164.567258,17.5695501 164.949418,16.7925365 C165.331578,16.0155229 166.124106,15.5251747 166.99,15.5299647 L167.45,20 Z" id="Path" stroke="none" fill="url(#linearGradient-10)" fill-rule="nonzero"></path>
                        <path d="M167.34,19 C166.56,19.07 165.9,18.79 165.82,18 C165.74,17.21 166.34,16.83 167.11,16.76 L167.34,19 Z" id="Path" stroke="none" fill="#DC8C54" fill-rule="nonzero"></path>
                        <path d="M175.22,20.05 C176.066764,20.231072 176.942546,19.9124067 177.474943,19.2295085 C178.00734,18.5466104 178.102742,17.6195501 177.720582,16.8425365 C177.338422,16.0655229 176.545894,15.5751747 175.68,15.5799647 L175.22,20.05 Z" id="Path" stroke="none" fill="url(#linearGradient-11)" fill-rule="nonzero"></path>
                        <path d="M175.33,19 C176.1,19.07 176.76,18.79 176.84,18 C176.92,17.21 176.33,16.83 175.56,16.75 L175.33,19 Z" id="Path" stroke="none" fill="#DC8C54" fill-rule="nonzero"></path>
                        <path d="M175.63,16.07 C175.52,15.07 175.15,15.07 175.15,15.07 C174.276468,14.8720066 173.427849,14.5768347 172.62,14.19 C171.8104,13.6081748 171.261113,12.732188 171.09,11.75 C170.324281,11.7351156 169.591526,12.0611916 169.09,12.64 C169.6579,12.3933355 170.27085,12.2673401 170.89,12.27 C170.89,12.27 171.35,15.19 172.68,15.94 C173.580559,16.4116324 174.566786,16.6972981 175.58,16.78 L175.63,16.07 Z" id="Path" stroke="none" fill="#134D82" fill-rule="nonzero" opacity="0.17" style="mix-blend-mode: multiply;"></path>
                        <path d="M168.61,30.64 C168.2,30.91 167.88,30.16 168.36,30.07 C168.84,29.98 168.91,30.44 168.61,30.64 Z M169.17,30.79 C168.91,30.53 168.37,30.93 168.71,31.25 C169.05,31.57 169.46,31 169.17,30.79 L169.17,30.79 Z M169.78,31.22 C169.45,31.03 169.04,31.55 169.45,31.78 C169.86,32.01 170.13,31.43 169.78,31.22 L169.78,31.22 Z M170.48,31.53 C170.12,31.39 169.82,31.98 170.26,32.14 C170.428447,32.2007513 170.614249,32.1134468 170.675,31.945 C170.735751,31.7765532 170.648447,31.5907513 170.48,31.53 L170.48,31.53 Z M171.23,31.72 C171.059589,31.696927 170.901412,31.8126633 170.871834,31.9820662 C170.842256,32.1514692 170.951853,32.3139598 171.12,32.35 C171.290411,32.373073 171.448588,32.2573367 171.478166,32.0879338 C171.507744,31.9185308 171.398147,31.7560402 171.23,31.72 L171.23,31.72 Z M172.01,31.79 C171.852251,31.8177773 171.737228,31.9548239 171.737228,32.115 C171.737228,32.2751761 171.852251,32.4122227 172.01,32.44 C172.167406,32.4098896 172.280424,32.2710417 172.277959,32.1108006 C172.275494,31.9505596 172.158258,31.8152541 172,31.79 L172.01,31.79 Z M172.8,31.79 C172.623269,31.80933 172.49567,31.9682689 172.515,32.145 C172.53433,32.3217311 172.693269,32.44933 172.87,32.43 C173.29,32.37 173.23,31.72 172.8,31.75 L172.8,31.79 Z M173.8,31.68 C173.64536,31.5916345 173.448366,31.6453603 173.36,31.8 C173.271634,31.9546397 173.32536,32.1516344 173.48,32.24 C173.58718,32.2971625 173.716714,32.2928031 173.819808,32.2285641 C173.922902,32.164325 173.983893,32.0499656 173.979808,31.9285641 C173.975722,31.8071625 173.90718,31.6971625 173.8,31.64 L173.8,31.68 Z M174.51,31.37 C174.392484,31.3342721 174.264957,31.3712962 174.184844,31.4644004 C174.104731,31.5575046 174.087143,31.689128 174.14,31.8 C174.38,32.35 175.19,31.52 174.51,31.33 L174.51,31.37 Z M174.89,30.97 C174.61,31.21 174.97,31.76 175.34,31.46 C175.71,31.16 175.19,30.68 174.89,30.93 L174.89,30.97 Z M175.55,30.3 C175.13,30.42 175.35,30.98 175.71,30.92 C175.827898,30.8914188 175.921592,30.802111 175.955788,30.685718 C175.989985,30.569325 175.959489,30.4435297 175.875788,30.355718 C175.792087,30.2679062 175.667898,30.2314187 175.55,30.26 L175.55,30.3 Z M175.78,29.6 C175.54,29.74 175.62,30.05 175.88,30.15 C176.47,30.34 176.41,29.18 175.78,29.56 L175.78,29.6 Z M175.78,28.86 C175.6,29.07 175.78,29.34 176.04,29.36 C176.69,29.36 176.26,28.27 175.78,28.82 L175.78,28.86 Z" id="Shape" stroke="none" fill="#FFFFFF" fill-rule="nonzero"></path>
                        <path d="M185.67,30.89 C186.4958,30.0677365 187.239329,29.1667942 187.89,28.2 C188.43,27.46 188.81,26.41 188.65,26.25 C188.49,26.09 188.36,26.15 188.36,26.15 C188.36,26.15 188.62,25.73 188.73,25.57 C188.84,25.41 188.73,24.89 188.41,25.2 C188.157503,25.4421427 187.923514,25.7028733 187.71,25.98 C187.71,25.98 188.02,25.5 188.25,25.1 C188.48,24.7 188.61,24.36 188.31,24.23 C188.01,24.1 185.93,26.86 185.93,26.86 C185.93,26.86 186.58,25.52 187.03,24.74 C187.48,23.96 187.29,23.94 187.08,23.86 C186.87,23.78 185.98,24.94 185.59,25.49 C185.2,26.04 183.59,27.7 183.59,27.7 L183.5,31.27 L185.67,30.89 Z" id="Path" stroke="none" fill="#DC8C54" fill-rule="nonzero"></path>
                        <path d="M188.31,24.23 C188.02,24.11 185.93,26.86 185.93,26.86 L185.77,27.23 L186.56,27.69 C186.56,27.69 187.36,26.52 187.71,25.98 C187.71,25.98 188.02,25.5 188.25,25.1 C188.48,24.7 188.61,24.36 188.31,24.23 Z" id="Path" stroke="none" fill="url(#linearGradient-12)" fill-rule="nonzero" opacity="0.55" style="mix-blend-mode: multiply;"></path>
                        <path d="M187.31,27.88 C186.590157,27.2317564 185.76051,26.717037 184.86,26.36 C184.29,27 183.64,27.7 183.64,27.7 L183.56,31.17 L183.78,31.23 L185.67,30.89 C186.32781,30.2573542 186.920755,29.5605593 187.44,28.81 C187.285031,28.5261182 187.238814,28.1954948 187.31,27.88 L187.31,27.88 Z" id="Path" stroke="none" fill="#DC8C54" fill-rule="nonzero"></path>
                        <path d="M184.86,26.36 C184.29,27 183.64,27.7 183.64,27.7 L183.64,29.46 L184.09,29.36 C184.660358,29.2773958 185.239642,29.2773958 185.81,29.36 L187.35,27.9 C186.619764,27.2405713 185.776154,26.7188211 184.86,26.36 L184.86,26.36 Z" id="Path" stroke="none" fill="url(#linearGradient-13)" fill-rule="nonzero" opacity="0.49"></path>
                        <path d="M182.05,30 C182.124282,28.2359546 182.375543,26.483829 182.8,24.77 C182.944554,24.7531343 183.089561,24.7976178 183.19979,24.8926432 C183.31002,24.9876686 183.375383,25.1245385 183.38,25.27 C183.422337,25.8559028 183.422337,26.4440972 183.38,27.03 C183.898988,27.5185003 184.249194,28.1593784 184.38,28.86 C184.427597,29.5591909 184.427597,30.2608091 184.38,30.96 L185.78,30.86 C185.78,30.86 186.43,35.26 186.78,37.15 C187.13,39.04 187.43,41.21 187.43,41.21 L183,41.21 C183,41.21 182.72,39.21 182.51,36.29 C182.3,33.37 182,31.69 182.05,30 Z" id="Path" stroke="none" fill="#DC8C54" fill-rule="nonzero"></path>
                        <path d="M188.73,25.57 C188.85,25.4 188.73,24.89 188.41,25.2 C188.157503,25.4421427 187.923514,25.7028733 187.71,25.98 L187.79,25.85 L186.66,27.34 L187.31,27.88 C187.56,27.53 187.99,26.78 188.36,26.15 C188.36,26.15 188.62,25.73 188.73,25.57 Z" id="Path" stroke="none" fill="url(#linearGradient-14)" fill-rule="nonzero" opacity="0.55" style="mix-blend-mode: multiply;"></path>
                        <path d="M171.23,16.76 L171.23,16.7 C171.010873,17.3528317 170.708372,17.9746387 170.33,18.55 C170.2,18.83 170.49,19.05 170.75,19.06 C171.03106,19.0596989 171.311751,19.0396495 171.59,19" id="Path" stroke="url(#linearGradient-15)" stroke-width="0.07" fill="none"></path>
                        <path d="M290,5.46 C292.337781,5.46551365 294.23,7.36221235 294.23,9.7 L294.23,88.06 C294.224502,90.3938834 292.333883,92.284502 290,92.29 L155.49,92.29 C153.156117,92.284502 151.265498,90.3938834 151.26,88.06 L151.26,9.7 C151.26,7.36221235 153.152219,5.46551365 155.49,5.46 L290,5.46 Z M290,2.78 L155.49,2.78 C153.65562,2.78 151.896517,3.5093864 150.600353,4.8074264 C149.304189,6.10546639 148.577345,7.86562205 148.579935,9.7 L148.579935,88.06 C148.572021,89.8978383 149.296513,91.6631407 150.593255,92.9655128 C151.889997,94.2678849 153.652144,95 155.49,95 L290,95 C291.835298,95 293.595427,94.2709307 294.893179,92.9731789 C296.190931,91.6754272 296.92,89.9152981 296.92,88.08 L296.92,9.7 C296.92,5.87818953 293.82181,2.78 290,2.78 Z" id="Shape" stroke="none" fill="#242638" fill-rule="nonzero"></path>
                        <rect id="Rectangle" stroke="none" fill="#CFD2D2" fill-rule="nonzero" x="216.16" y="44.37" width="64.68" height="1"></rect>
                        <rect id="Rectangle" stroke="none" fill="#CFD2D2" fill-rule="nonzero" x="216.16" y="48.2" width="46.28" height="1"></rect>
                        <rect id="Rectangle" stroke="none" fill="#CFD2D2" fill-rule="nonzero" x="216.16" y="52.03" width="56.05" height="1"></rect>
                        <rect id="Rectangle" stroke="none" fill="#CFD2D2" fill-rule="nonzero" x="216.16" y="56.99" width="64.68" height="1"></rect>
                        <rect id="Rectangle" stroke="none" fill="#CFD2D2" fill-rule="nonzero" x="216.16" y="60.81" width="21.56" height="1"></rect>
                        <rect id="Rectangle" stroke="none" fill="#CFD2D2" fill-rule="nonzero" x="216.16" y="64.64" width="30.18" height="1"></rect>
                        <rect id="Rectangle" stroke="none" fill="#CFD2D2" fill-rule="nonzero" x="216.16" y="69.6" width="64.68" height="1"></rect>
                        <rect id="Rectangle" stroke="none" fill="#CFD2D2" fill-rule="nonzero" x="216.16" y="73.43" width="64.68" height="1"></rect>
                        <rect id="Rectangle" stroke="none" fill="#CFD2D2" fill-rule="nonzero" x="216.16" y="77.26" width="30.18" height="1"></rect>
                        <path d="M231.05,156.34 C231.05,156.34 229.74,151.66 229.35,149.86 C228.96,148.06 228.24,143.28 228.58,143.12 C228.92,142.96 232.14,148.82 232.92,150.89 C233.7,152.96 235.24,157.8 235.24,157.8 L231.05,156.34 Z" id="Path" stroke="none" fill="#32574E" fill-rule="nonzero"></path>
                        <path d="M238.08,157.94 C237.96275,154.21242 238.133256,150.481349 238.59,146.78 C239.43,140.95 241.7,136.58 242.02,136.51 C242.34,136.44 242.65,143.86 242.57,147.22 C242.49,150.58 242.21,157.02 242.21,157.02 L238.08,157.94 Z" id="Path" stroke="none" fill="#2D544B" fill-rule="nonzero"></path>
                        <path d="M251,158.1 C250.716552,154.382061 250.716552,150.647939 251,146.93 C251.58,141.07 253.65,136.6 254,136.51 C254.35,136.42 255,143.83 255,147.19 C255,150.55 255.09,157 255.09,157 L251,158.1 Z" id="Path" stroke="none" fill="#2D544B" fill-rule="nonzero"></path>
                        <path d="M233.75,156.68 C232.780538,153.125752 232.111517,149.496311 231.75,145.83 C231.48,141.23 231.67,138.92 231.94,138.83 C232.21,138.74 233.94,143.45 234.26,145.93 C234.58,148.41 235.86,156.56 235.86,156.56 L233.75,156.68 Z" id="Path" stroke="none" fill="#2D544B" fill-rule="nonzero"></path>
                        <path d="M281,157 C280.360363,153.367654 280.025862,149.688144 280,146 C280.11,141.4 280.49,139.11 280.76,139.07986 C281.03,139.05 282.37,143.86 282.49,146.35 C282.61,148.84 283.19,157.08 283.19,157.08 L281,157 Z" id="Path" stroke="none" fill="#2D544B" fill-rule="nonzero"></path>
                        <path d="M235.17,156.67 C235.17,156.67 235.23,148.98 235.58,145.74 C235.93,142.5 236.96,138.33 237.22,138.33 C237.48,138.33 238.04,144.69 238.15,147.15 C238.26,149.61 238.35,156.67 238.35,156.67 L235.17,156.67 Z" id="Path" stroke="none" fill="#375A51" fill-rule="nonzero"></path>
                        <path d="M242.1,156 C242.000735,152.322148 242.21148,148.64247 242.73,145 C243.54,140.47 244.28,138.27 244.55,138.279966 C244.82,138.29 245.4,143.28 245.14,145.72 C244.88,148.16 244.14,156.44 244.14,156.44 L242.1,156 Z" id="Path" stroke="none" fill="#2D544B" fill-rule="nonzero"></path>
                        <path d="M247.81,157.06 C247.81,157.06 247.86,149.36 248.21,146.12 C248.56,142.88 249.58,138.71 249.84,138.71 C250.1,138.71 250.66,145.08 250.78,147.53 C250.9,149.98 250.99,157.06 250.99,157.06 L247.81,157.06 Z" id="Path" stroke="none" fill="#375A51" fill-rule="nonzero"></path>
                        <path d="M243.78,157.41 C243.780565,154.226268 244.098808,151.050536 244.73,147.93 C245.73,143.93 248.27,139.54 248.73,139.59 C249.19,139.64 248.55,145.25 247.97,149.11 C247.39,152.97 246.97,156.71 246.97,156.71 L243.78,157.41 Z" id="Path" stroke="none" fill="#48655C" fill-rule="nonzero"></path>
                        <path d="M281.33,158.52 C281.380833,155.334608 281.749324,152.162232 282.43,149.05 C283.5,145.05 286.1,140.72 286.52,140.77 C286.94,140.82 286.25,146.44 285.61,150.28 C284.97,154.12 284.51,157.87 284.51,157.87 L281.33,158.52 Z" id="Path" stroke="none" fill="#48655C" fill-rule="nonzero"></path>
                        <path d="M255.28,155.06 C255.28,155.06 254.89,150.2 254.86,148.36 C254.83,146.52 255.04,141.7 255.4,141.6 C255.76,141.5 257.79,147.88 258.16,150.07 C258.53,152.26 259.11,157.29 259.11,157.29 L255.28,155.06 Z" id="Path" stroke="none" fill="#365950" fill-rule="nonzero"></path>
                        <path d="M263.6,157.84 C263.494615,154.111954 263.671788,150.38128 264.13,146.68 C264.98,140.85 267.25,136.49 267.58,136.41 C267.91,136.33 268.2,143.77 268.11,147.13 C268.02,150.49 267.74,156.93 267.74,156.93 L263.6,157.84 Z" id="Path" stroke="none" fill="#2D544B" fill-rule="nonzero"></path>
                        <path d="M276.61,157.86 C276.012867,154.175936 275.695294,150.451977 275.66,146.72 C275.73,140.84 277.4,136.21 277.66,136.09 C277.92,135.97 279.25,143.3 279.66,146.64 C280.07,149.98 280.6,156.4 280.6,156.4 L276.61,157.86 Z" id="Path" stroke="none" fill="#2D544B" fill-rule="nonzero"></path>
                        <path d="M259.83,156.59 C258.805882,153.050236 258.080012,149.430921 257.66,145.77 C257.31,141.18 257.46,138.87 257.73,138.77 C258,138.67 259.81,143.36 260.17,145.82 C260.53,148.28 262,156.47 262,156.47 L259.83,156.59 Z" id="Path" stroke="none" fill="#2D544B" fill-rule="nonzero"></path>
                        <path d="M260,156.57 C260,156.57 260.41,148.9 260.92,145.68 C261.43,142.46 262.64,138.34 262.92,138.359927 C263.2,138.38 263.43,144.75 263.43,147.21 C263.43,149.67 263.18,156.75 263.18,156.75 L260,156.57 Z" id="Path" stroke="none" fill="#375A51" fill-rule="nonzero"></path>
                        <path d="M271,156.28 C270.296711,152.653019 269.898651,148.973474 269.81,145.28 C269.86,140.68 270.22,138.39 270.49,138.35 C270.76,138.31 272.15,143.11 272.3,145.6 C272.45,148.09 273.13,156.32 273.13,156.32 L271,156.28 Z" id="Path" stroke="none" fill="#2D544B" fill-rule="nonzero"></path>
                        <path d="M272.23,156.86 C272.23,156.86 272.98,149.21 273.63,146.01 C274.28,142.81 275.63,138.76 275.93,138.789834 C276.23,138.82 276.17,145.2 276.06,147.65 C275.95,150.1 275.4,157.17 275.4,157.17 L272.23,156.86 Z" id="Path" stroke="none" fill="#375A51" fill-rule="nonzero"></path>
                        <path d="M267.15,157.52 C267.24062,154.336609 267.652713,151.170524 268.38,148.07 C269.5,144.12 272.16,139.79 272.57,139.85 C272.98,139.91 272.23,145.51 271.57,149.35 C270.91,153.19 270.37,156.92 270.37,156.92 L267.15,157.52 Z" id="Path" stroke="none" fill="#48655C" fill-rule="nonzero"></path>
                        <rect id="Rectangle" stroke="none" fill="#795D5C" fill-rule="nonzero" x="229.56" y="154.94" width="55.73" height="18.08"></rect>
                        <rect id="Rectangle" stroke="none" fill="url(#linearGradient-16)" fill-rule="nonzero" x="229.56" y="164.22" width="55.73" height="8.4"></rect>
                        <rect id="Rectangle" stroke="none" fill="url(#linearGradient-17)" fill-rule="nonzero" x="229.56" y="155.38" width="55.73" height="8.4"></rect>
                        <path d="M241.56,160.92 C241.56,161.32 241.34,161.65 241.07,161.65 C240.8,161.65 240.59,161.32 240.59,160.92 C240.59,160.52 240.81,160.2 241.07,160.2 C241.33,160.2 241.56,160.53 241.56,160.92 Z" id="Path" stroke="none" fill="#A2806F" fill-rule="nonzero"></path>
                        <path d="M266.63,160.64 C266.63,161.04 266.41,161.36 266.14,161.36 C265.87,161.36 265.66,161.04 265.66,160.64 C265.66,160.24 265.87,159.92 266.14,159.92 C266.41,159.92 266.63,160.25 266.63,160.64 Z" id="Path" stroke="none" fill="#A2806F" fill-rule="nonzero"></path>
                        <path d="M282.05,159.39 C282.05,159.79 281.84,160.11 281.57,160.11 C281.3,160.11 281.08,159.79 281.08,159.39 C281.08,158.99 281.3,158.67 281.57,158.67 C281.84,158.67 282.05,159 282.05,159.39 Z" id="Path" stroke="none" fill="#A2806F" fill-rule="nonzero"></path>
                        <rect id="Rectangle" stroke="none" fill="#9D8785" fill-rule="nonzero" opacity="0.56" style="mix-blend-mode: multiply;" x="229.56" y="154.94" width="11.53" height="18.08"></rect>
                        <path d="M119.78,169.57 C115.21,157.02 105.7,136.09 93.9,126.57 C86.144914,120.540827 77.4754148,115.790833 68.22,112.5 L30.36,109.08 C19.68,111.43 9.36,112.7 1.42108547e-14,118.14 L1.42108547e-14,181.28 L125,181.28 C122.8,176.59 120.82,172.44 119.78,169.57 Z" id="Path" stroke="none" fill="#37B99A" fill-rule="nonzero"></path>
                        <path d="M36.77,40.05 C31.14,45.79 18.18,42.86 17.08,33.57 C16.5070434,28.7893703 18.6233017,24.0835814 22.58,21.34 C22.58,21.34 16.22,10.09 24.78,5.69 C33.34,1.29 40.56,9.36 40.56,9.36 C40.56,9.36 42.51,-3.24 52.05,0.8 C61.59,4.84 54.25,21.34 54.25,21.34 L36.77,40.05 Z" id="Path" stroke="none" fill="#21312A" fill-rule="nonzero"></path>
                        <path d="M45.54,20.12 C54.54,14.12 73.68,15.65 80.64,25.34 C87.6,35.03 87.31,47.05 85.25,53.94 C83.19,60.83 43.58,78.72 43.48,78.44 C43.38,78.16 30.24,65.77 30.54,49.1 C30.84,32.43 39.56,24.13 45.54,20.12 Z" id="Path" stroke="none" fill="#21312A" fill-rule="nonzero"></path>
                        <path d="M43.68,67.6 C42.68,80.35 41.4,86.82 39.11,95.19 C36.82,103.56 34.36,107.36 30.36,109.08 C33.0298708,118.526817 36.5925942,127.698151 41,136.47 C50.52,154.74 59.08,161.39 62.69,167.29 C62.69,167.29 67.69,151.29 68.4,137.04 C68.8740606,128.864664 68.8105906,120.667016 68.21,112.5 C67.651265,109.871863 67.4161852,107.185236 67.51,104.5 C67.7,100.31 72.59,83.19 72.59,83.19 L43.68,67.6 Z" id="Path" stroke="none" fill="#FACAC9" fill-rule="nonzero"></path>
                        <path d="M80.48,33.87 C86.86,43.72 83.6,64.5 81.58,74.41 C79.56,84.32 73,92 64.16,92 C55.32,92 48.57,83.76 44.71,71.66 C40.85,59.56 39.95,45.79 45.26,36.66 C50.57,27.53 69.66,17.18 80.48,33.87 Z" id="Path" stroke="none" fill="#F9D0D0" fill-rule="nonzero"></path>
                        <path d="M56.76,54.41 C56.7964251,54.7560402 56.6323373,55.0925594 56.3372669,55.2769614 C56.0421964,55.4613633 55.6678036,55.4613633 55.3727331,55.2769614 C55.0776627,55.0925594 54.9135749,54.7560402 54.95,54.41 C54.9987516,53.9468583 55.3892995,53.5952628 55.855,53.5952628 C56.3207005,53.5952628 56.7112484,53.9468583 56.76,54.41 L56.76,54.41 Z" id="Path" stroke="none" fill="#242638" fill-rule="nonzero"></path>
                        <path d="M79.21,53.65 C79.2140546,54.0189436 78.9949294,54.3538194 78.6552268,54.4978263 C78.3155243,54.6418332 77.9224883,54.5664652 77.6601526,54.3070124 C77.3978169,54.0475595 77.3181107,53.6553802 77.4583554,53.3141072 C77.5986,52.9728343 77.9310341,52.7500223 78.3,52.75 C78.5404228,52.7473285 78.7719187,52.8409689 78.9428704,53.0100421 C79.1138222,53.1791153 79.2100148,53.4095624 79.21,53.65 L79.21,53.65 Z" id="Path" stroke="none" fill="#242638" fill-rule="nonzero"></path>
                        <path d="M50.26,51.6 C51.6608085,49.9509719 53.6546602,48.919917 55.81,48.73 C56.8699201,48.5977702 57.9444099,48.6416959 58.99,48.86 C60.0419064,49.0458852 61.0373183,49.470047 61.9,50.1 C60.84,50.1 59.9,50.1 58.9,50.17 C57.9,50.24 56.97,50.28 56.03,50.39 C55.09,50.5 54.15,50.66 53.2,50.85 C52.25,51.04 51.3,51.34 50.26,51.6 Z" id="Path" stroke="none" fill="#21312A" fill-rule="nonzero"></path>
                        <path d="M71.68,49.59 C73.2330764,48.0817507 75.3150994,47.2417621 77.48,47.25 C78.5466404,47.2165142 79.6113598,47.3618569 80.63,47.68 C81.6589608,47.9665577 82.6094893,48.482852 83.41,49.19 C82.41,49.09 81.41,49.03 80.41,48.97 C79.41,48.91 78.48,48.9 77.53,48.97 C76.58,49.04 75.63,49.05 74.67,49.16 C73.71,49.27 72.74,49.42 71.68,49.59 Z" id="Path" stroke="none" fill="#21312A" fill-rule="nonzero"></path>
                        <path d="M45.74,73.79 C39.28,75.17 33.33,72.93 31.74,65.52 C30.2,58.34 34.67,53.63 41.13,52.25 L45.74,73.79 Z" id="Path" stroke="none" fill="#FACAC9" fill-rule="nonzero"></path>
                        <path d="M44.63,68.58 C41,69.35 37.7,68.31 36.92,64.58 C36.14,60.85 38.71,58.58 42.34,57.82 L44.63,68.58 Z" id="Path" stroke="none" fill="#F29696" fill-rule="nonzero"></path>
                        <polyline id="Path" stroke="#9C575F" stroke-width="0.18" fill="none" points="67.61 54.88 73.94 63.35 67.08 64.07"></polyline>
                        <path d="M75.41,71.43 C75.5448804,73.2647511 74.8923146,75.0701656 73.6155237,76.3946691 C72.3387329,77.7191726 70.5584633,78.4375067 68.72,78.37 C66.9085192,78.4858685 65.1296385,77.8482707 63.8042148,76.6080528 C62.4787912,75.367835 61.724574,73.635177 61.72,71.82 C61.65,68.73 64.17,70.09 68.72,69.96 C73.27,69.83 75.34,68.5 75.41,71.43 Z" id="Path" stroke="none" fill="#EF5123" fill-rule="nonzero"></path>
                        <path d="M75.3,71.94 C75.39,75.06 71.76,76.81 68.72,76.83 C65.68,76.85 62,75.44 61.86,72.32 C61.72,69.2 64.24,71.45 68.69,71.32 C73.14,71.19 75.21,68.82 75.3,71.94 Z" id="Path" stroke="none" fill="#FFFFFF" fill-rule="nonzero"></path>
                        <path d="M61.9,71.65 C61.8825743,71.8729934 61.8825743,72.0970066 61.9,72.32 C61.9294037,73.3453265 62.3775284,74.3138542 63.14,75 C64.64,75.11 66.75,75.23 68.67,75.23 C70.59,75.23 72.52,75.15 73.79,75.08 C74.7601403,74.3298603 75.3197496,73.1661695 75.3,71.94 C75.3,71.77 75.3,71.62 75.3,71.48 C73.6499832,72.3904243 71.8581582,73.0158726 70,73.33 C67.2020396,73.4555957 64.4172142,72.8780023 61.9,71.65 L61.9,71.65 Z" id="Path" stroke="none" fill="#F29696" fill-rule="nonzero"></path>
                        <path d="M39.3,51.3 C39.3,51.3 43.06,65.42 44.71,67.8 C44.71,67.8 44.07,56.25 45.26,49.28 C46.2299897,44.4876398 47.8693895,39.8555779 50.13,35.52 C50.13,35.52 49.94,41.39 50.03,44.24 C50.079938,45.8681268 50.2335827,47.4914165 50.49,49.1 C50.49,49.1 60.21,46.47 67.73,46.1 C76.26,45.64 84.42,46.1 84.42,46.1 C84.42,46.1 83.51,19.2 61.77,22.78 C40.03,26.36 38.39,43.78 39.3,51.3 Z" id="Path" stroke="none" fill="#21312A" fill-rule="nonzero"></path>
                        <path d="M55.72,23.69 C56.7977341,24.9346808 57.5774945,26.4087017 58,28 C58.5033085,29.5579791 58.884462,31.1528053 59.14,32.77 C59.39,34.38 59.58,36 59.67,37.62 C59.7649438,39.2452813 59.7649438,40.8747187 59.67,42.5 C59.67,42.5 58.67,34.5 58.36,32.89 C58.05,31.28 57.79,29.72 57.42,28.16 L57.18,27 L56.79,25.86 C56.65,25.49 56.48,25.12 56.33,24.75 C56.18,24.38 55.92,24.05 55.72,23.69 Z" id="Path" stroke="none" fill="#3D6D99" fill-rule="nonzero"></path>
                        <path d="M61.59,22.5 C62.9169011,23.6908773 64.0149461,25.1142691 64.83,26.7 C65.6964274,28.2626662 66.4226036,29.8990726 67,31.59 C67.5606695,33.2761176 67.9984815,35.0006289 68.31,36.75 C68.6107238,38.4835332 68.754639,40.2406371 68.74,42 C68.66,41.57 68.59,41.13 68.52,40.7 L68.27,39.4 C68.1,38.54 67.92,37.68 67.71,36.84 C67.28,35.14 66.81,33.45 66.25,31.84 C65.7009997,30.1920364 65.0599928,28.5761649 64.33,27 C63.9657822,26.2064824 63.5550687,25.4351425 63.1,24.69 C62.6655108,23.9148521 62.1600091,23.1817073 61.59,22.5 Z" id="Path" stroke="none" fill="#3D6D99" fill-rule="nonzero"></path>
                        <path d="M67.92,22.23 C69.4017314,23.3161619 70.6640339,24.6734764 71.64,26.23 C73.6653407,29.3089486 75.1405922,32.7162384 76,36.3 C76.4579928,38.0814215 76.620153,39.9259942 76.48,41.76 C76.4275815,40.8550002 76.3038645,39.9555444 76.11,39.07 C75.9407539,38.1846598 75.7203851,37.3098624 75.45,36.45 C74.9272907,34.7239114 74.3096842,33.0279974 73.6,31.37 C72.8873296,29.7163345 72.0827401,28.103817 71.19,26.54 C70.97,26.14 70.73,25.76 70.49,25.39 C70.25,25.02 69.99,24.64 69.72,24.28 C69.1862741,23.5412055 68.5835663,22.8547883 67.92,22.23 L67.92,22.23 Z" id="Path" stroke="none" fill="#3D6D99" fill-rule="nonzero"></path>
                        <path d="M74.79,23.14 C76.1547869,24.2964624 77.3647627,25.6240747 78.39,27.09 C79.4416351,28.5399245 80.3524343,30.0869437 81.11,31.71 C81.8808138,33.3308817 82.4613467,35.0355676 82.84,36.79 C83.2490353,38.5404374 83.3203098,40.3528468 83.05,42.13 L83.05,40.8 C83.05,40.36 82.97,39.92 82.9,39.49 C82.83,39.06 82.76,38.62 82.67,38.2 L82.35,36.92 C81.8504991,35.2299985 81.211641,33.5843536 80.44,32 C79.6983561,30.4102423 78.8601229,28.8673589 77.93,27.38 C77.47,26.63 76.93,25.9 76.44,25.2 C75.95,24.5 75.37,23.83 74.79,23.14 Z" id="Path" stroke="none" fill="#3D6D99" fill-rule="nonzero"></path>
                        <path d="M84.12,46.1 C84.12,46.1 85.55,45.89 84.94,43.9 C82.94,42.76 74.21,42.95 68.44,43.72 C62.2224721,44.6109693 56.1725904,46.4242486 50.49,49.1 C50.49,49.1 60.21,46.47 67.73,46.1 C73.1897325,45.819482 78.6602675,45.819482 84.12,46.1 L84.12,46.1 Z" id="Path" stroke="none" fill="#21312A" fill-rule="nonzero" opacity="0.24" style="mix-blend-mode: multiply;"></path>
                        <path d="M44,41.39 C43.7725976,47.5075302 43.9362642,53.6333399 44.49,59.73 L44.57,59.39 C44.557972,56.0071337 44.7952815,52.627981 45.28,49.28 C46.2499897,44.4876398 47.8893895,39.8555779 50.15,35.52 C50.73,29.78 51.09,24.76 51.09,24.76 C46.7990849,29.2673068 44.281182,35.1731918 44,41.39 L44,41.39 Z" id="Path" stroke="none" fill="#21312A" fill-rule="nonzero" opacity="0.29" style="mix-blend-mode: multiply;"></path>
                        <path d="M15.33,146 C15.7698854,148.112087 15.7902719,150.290049 15.39,152.41 C15.0507771,154.520293 14.5322322,156.597818 13.84,158.62 C13.1549636,160.644546 12.315842,162.613641 11.33,164.51 C10.3785604,166.426563 9.16342854,168.200454 7.72,169.78 C8.72,167.88 9.48,165.96 10.25,164.01 C11.02,162.06 11.75,160.11 12.4,158.14 C13.05,156.17 13.69,154.14 14.23,152.14 C14.8081787,150.136919 15.1768217,148.079221 15.33,146 Z" id="Path" stroke="none" fill="#E9DDD5" fill-rule="nonzero" opacity="0.17" style="mix-blend-mode: multiply;"></path>
                        <path d="M188.45,125.73 C193.75,124.84 196.66,123.73 199.83,121.67 C198.567135,118.57139 196.884754,115.660871 194.83,113.02 L194.49,113.25 L194.82,113.01 C193.964807,111.945048 192.976773,110.993982 191.88,110.18 C191.27,109.74 190.73,109.38 190.27,109.09 C186.66,111.25 182.35,114.35 182.35,114.35 C181.62,115.7 184.09,119.42 182.61,123.75 C181.74,126.28 180.45,129.23 178.52,131.06 C181.11,128.88 185.51,126.23 188.45,125.73 Z" id="Path" stroke="none" fill="url(#linearGradient-18)" fill-rule="nonzero" opacity="0.35" style="mix-blend-mode: multiply;"></path>
                        <path d="M169.84,139 C166.893209,137.458757 164.324884,135.283196 162.32,132.63 C162.212122,132.457786 162.023212,132.353209 161.82,132.353209 C161.616788,132.353209 161.427878,132.457786 161.32,132.63 C161.1,133.01 160.85,133.4 160.6,133.82 C160.470707,134.021004 160.470707,134.278996 160.6,134.48 C163.37,138.28 168.76,141.61 173.53,143.48 C174.980575,144.071067 176.483986,144.523095 178.02,144.83 C178.281054,144.879629 178.543071,144.74862 178.66,144.51 C178.86,144.11 179.06,143.72 179.26,143.35 C179.349658,143.181422 179.352193,142.979878 179.266804,142.809098 C179.181414,142.638319 179.018657,142.51942 178.83,142.49 C175.659553,141.836568 172.620881,140.656928 169.84,139 Z" id="Path" stroke="none" fill="#37B99A" fill-rule="nonzero"></path>
                        <path d="M179.49,101 C180.91,101.39 182.18,100 182.49,99.15 C182.8,98.3 181.75,97.97 181.75,97.97 C181.330807,98.2561852 180.956684,98.6033443 180.64,99 C180.219155,99.6443838 179.835205,100.312123 179.49,101 L179.49,101 Z" id="Path" stroke="none" fill="#94BA9C" fill-rule="nonzero"></path>
                        <rect id="Rectangle" stroke="none" fill="#FFFFFF" fill-rule="nonzero" transform="translate(202.649145, 100.031295) rotate(-53.190000) translate(-202.649145, -100.031295) " x="175.699145" y="81.7712947" width="53.9" height="36.52"></rect>
                        <path d="M171.54,110.71 L204.13,67.17 L233.76,89.34 L201.17,132.88 L171.54,110.71 Z M204.22,67.84 L172.22,110.61 L201.08,132.2 L233.08,89.44 L204.22,67.84 Z" id="Shape" stroke="none" fill="#969E9D" fill-rule="nonzero"></path>
                        <path d="M194.29,91.66 C194.137111,91.4778275 194.137111,91.2121725 194.29,91.03 C194.449999,90.8273929 194.741595,90.7876298 194.95,90.94 L214.56,105.62 C214.712077,105.713052 214.798412,105.884139 214.782918,106.061751 C214.767425,106.239363 214.652771,106.392917 214.486879,106.458232 C214.320988,106.523546 214.132423,106.489375 214,106.37 L194.34,91.69 L194.29,91.66 Z" id="Path" stroke="none" fill="#CFD2D2" fill-rule="nonzero"></path>
                        <path d="M191.47,95.43 C191.302042,95.2602407 191.280922,94.9941272 191.42,94.8 C191.495422,94.7003157 191.607448,94.6347831 191.731304,94.6178937 C191.855159,94.6010042 191.980641,94.6341496 192.08,94.71 L211.69,109.38 C211.825761,109.480034 211.897842,109.644898 211.87909,109.812487 C211.860338,109.980077 211.753602,110.124932 211.59909,110.192487 C211.444577,110.260042 211.265761,110.240034 211.13,110.14 L191.52,95.46 L191.47,95.43 Z" id="Path" stroke="none" fill="#CFD2D2" fill-rule="nonzero"></path>
                        <path d="M188.65,99.19 C188.479404,99.0254961 188.45797,98.7597156 188.6,98.57 C188.675422,98.4703157 188.787448,98.4047831 188.911304,98.3878937 C189.035159,98.3710042 189.160641,98.4041496 189.26,98.48 L208.87,113.15 C209.079868,113.30464 209.12464,113.600132 208.97,113.81 C208.81536,114.019868 208.519868,114.06464 208.31,113.91 L188.7,99.23 L188.65,99.19 Z" id="Path" stroke="none" fill="#CFD2D2" fill-rule="nonzero"></path>
                        <path d="M185.83,103 C185.631178,102.831553 185.606553,102.533823 185.775,102.335 C185.943447,102.136178 186.241177,102.111553 186.44,102.28 L206.05,116.96 C206.202077,117.053052 206.288412,117.224139 206.272918,117.401751 C206.257425,117.579363 206.142771,117.732917 205.976879,117.798232 C205.810988,117.863546 205.622423,117.829375 205.49,117.71 L185.88,103 L185.83,103 Z" id="Path" stroke="none" fill="#CFD2D2" fill-rule="nonzero"></path>
                        <path d="M183,106.73 C182.801177,106.561553 182.776553,106.263823 182.945,106.065 C183.113447,105.866177 183.411177,105.841553 183.61,106.01 L203.22,120.69 C203.323565,120.76216 203.392928,120.873708 203.411837,120.998509 C203.430747,121.123311 203.397541,121.250399 203.32,121.35 C203.244578,121.449684 203.132552,121.515217 203.008696,121.532106 C202.884841,121.548996 202.759359,121.51585 202.66,121.44 L183.05,106.77 L183,106.73 Z" id="Path" stroke="none" fill="#CFD2D2" fill-rule="nonzero"></path>
                        <g id="Group" stroke="none" stroke-width="1" fill="none" fill-rule="evenodd" transform="translate(202.000000, 80.000000)">
                            <circle id="Oval" fill="#485CA8" fill-rule="nonzero" cx="10.83" cy="7.83" r="7.12"></circle>
                            <path d="M3.07,7.36 C4.27062398,7.14957538 5.50393315,7.22494427 6.67,7.58 C7.49,7.76 8.18,7.3 8.67,7.76 C9.16,8.22 11.04,9.57 11.39,9.86 C11.74,10.15 11.79,11.31 12.1,12.13 C12.41,12.95 13.25,15.05 12.73,16.22 C12.3592093,17.026386 11.9139439,17.7963939 11.4,18.52 L0.31,9.3 C1.09006633,8.47418002 2.02881659,7.81433382 3.07,7.36 L3.07,7.36 Z" id="Path" fill="#37B99A" fill-rule="nonzero"></path>
                            <ellipse id="Oval" fill="#E59B7C" fill-rule="nonzero" transform="translate(10.334879, 4.835357) rotate(-50.130000) translate(-10.334879, -4.835357) " cx="10.334879" cy="4.83535719" rx="1" ry="1"></ellipse>
                            <path d="M10.64,5.1 C10.5034572,5.31086316 10.2229984,5.37318733 10.01,5.24 C9.9213681,5.1551186 9.87124749,5.03772109 9.87124749,4.915 C9.87124749,4.79227891 9.9213681,4.6748814 10.01,4.59 C10.1465428,4.37913684 10.4270016,4.31681267 10.64,4.45 C10.7286319,4.5348814 10.7787525,4.65227891 10.7787525,4.775 C10.7787525,4.89772109 10.7286319,5.0151186 10.64,5.1 Z" id="Path" fill="#EF5123" fill-rule="nonzero"></path>
                            <path d="M8.19,7.93 C7.71,8.65 5.19,13.37 5.19,13.37 L6.76,14.68 L11.24,10.27 C11.24,10.27 10.11,9.47 9.75,9.2 C9.39,8.93 8.19,7.93 8.19,7.93 Z" id="Path" fill="#FFFFFF" fill-rule="nonzero"></path>
                            <path d="M11.24,10.27 C10.5142997,10.410177 9.76247532,10.2972268 9.11,9.95 C8.56741692,9.41943722 8.23980625,8.70724012 8.19,7.95 C8.45,7.67 9.32,6.7 9.45,6.48 L10.12,6.99 L10.12,6.93 L10.86,7.6 L11.64,8.2 L11.59,8.26 L12.22,8.83 C11.8668876,9.29145898 11.5397156,9.77220149 11.24,10.27 L11.24,10.27 Z" id="Path" fill="#D69474" fill-rule="nonzero"></path>
                            <ellipse id="Oval" fill="#E59B7C" fill-rule="nonzero" transform="translate(13.767326, 7.624942) rotate(-50.130000) translate(-13.767326, -7.624942) " cx="13.7673257" cy="7.62494211" rx="1" ry="1"></ellipse>
                            <path d="M14.08,7.88 C13.939694,8.09215576 13.6560709,8.1541983 13.44,8.02 C13.264758,7.83489745 13.264758,7.54510255 13.44,7.36 C13.5134222,7.19831112 13.6805986,7.10027122 13.8575545,7.11512685 C14.0345105,7.12998248 14.1830011,7.25452293 14.2284377,7.42619012 C14.2738743,7.59785732 14.2064369,7.77954924 14.06,7.88 L14.08,7.88 Z" id="Path" fill="#EF5123" fill-rule="nonzero"></path>
                            <path d="M12.43,2.89 C11.7442012,3.07549777 11.143616,3.49237457 10.73,4.07 C10.1405562,4.77346338 9.67400985,5.57132525 9.35,6.43 C9.26861943,7.05402432 9.37662216,7.68810486 9.66,8.25 C9.93425254,8.58834323 10.2744893,8.8673374 10.66,9.07 C11.1935554,9.17404621 11.746323,9.10757415 12.24,8.88 C12.9016904,8.51217891 13.4966838,8.03550806 14,7.47 C14.5878209,6.92694517 15.0194453,6.23634617 15.25,5.47 C15.4047507,4.65307371 15.0878925,3.81842286 14.43,3.31 C13.8622891,2.87227923 13.1258314,2.7176231 12.43,2.89 Z" id="Path" fill="#E59B7C" fill-rule="nonzero"></path>
                            <path d="M11,4.62 C11.12,4.57 11.42,4.78 11.63,4.95 C11.8327075,5.0797532 11.9954153,5.2632322 12.1,5.48 C12.1,5.57 11.71,6.05 11.45,5.97 C11.1350295,5.82941513 10.8650782,5.60445567 10.67,5.32 C10.6462373,5.04432253 10.7722175,4.77709188 11,4.62 Z" id="Path" fill="#134D82" fill-rule="nonzero" opacity="0.17" style="mix-blend-mode: multiply;"></path>
                            <path d="M13.78,6.92 C13.78,6.8 13.55,6.55 13.35,6.37 C13.1905054,6.19974134 12.9858793,6.07835296 12.76,6.02 C12.68,6.02 12.29,6.49 12.41,6.73 C12.600456,7.00600574 12.8634648,7.2240262 13.17,7.36 C13.38,7.4 13.74,7.09 13.78,6.92 Z" id="Path" fill="#134D82" fill-rule="nonzero" opacity="0.17" style="mix-blend-mode: multiply;"></path>
                            <polyline id="Path" stroke="#EF5123" stroke-width="0.08" points="11.54 6.33 12.28 6.94 12.53 5.49"></polyline>
                            <path d="M14.44,3.35 C13.8790449,2.89829342 13.1419333,2.72875776 12.44,2.89 C11.7542012,3.07549777 11.153616,3.49237457 10.74,4.07 L10.38,4.56 C10.49,4.64 10.56,4.62 10.73,4.42 C10.9,4.22 11.02,4.03 11.23,4.02 C11.44,4.01 11.72,3.53 12.03,3.28 C12.2601483,3.12385258 12.5240253,3.02447031 12.8,2.99 C13.2020938,3.38674837 13.626091,3.76066715 14.07,4.11 C14.73,4.61 15.13,4.94 15.13,4.94 C15.057957,5.25549662 14.9400357,5.55872275 14.78,5.84 C14.45,6.26 14.62,6.53 14.41,6.76 C14.2,6.99 14.13,7.08 14.03,7.2 C13.9626911,7.26974188 13.9626911,7.38025812 14.03,7.45 C14.6034409,6.92272782 15.0277039,6.25356506 15.26,5.51 C15.4147507,4.69307371 15.0978925,3.85842286 14.44,3.35 L14.44,3.35 Z" id="Path" fill="#242638" fill-rule="nonzero"></path>
                            <path d="M11.57,5.17 C11.5530237,5.18772638 11.5295442,5.1977505 11.505,5.1977505 C11.4804558,5.1977505 11.4569763,5.18772638 11.44,5.17 C11.4018857,5.13111565 11.4018857,5.06888435 11.44,5.03 C11.4779938,5.00813908 11.5257958,5.01357004 11.5579171,5.04339697 C11.5900384,5.07322391 11.5989905,5.12049323 11.58,5.16 L11.57,5.17 Z" id="Path" fill="#242638" fill-rule="nonzero"></path>
                            <path d="M13.3,6.6 C13.259356,6.63352958 13.200644,6.63352958 13.16,6.6 C13.1381391,6.56200625 13.14357,6.51420422 13.173397,6.48208291 C13.2032239,6.44996159 13.2504932,6.44100947 13.29,6.46 C13.3265408,6.4982012 13.3307402,6.55699302 13.3,6.6 L13.3,6.6 Z" id="Path" fill="#242638" fill-rule="nonzero"></path>
                            <path d="M11.12,5.54 C10.99352,5.44205613 10.8880859,5.31961656 10.81,5.18 C10.7709695,4.88322119 10.9074711,4.59071775 11.16,4.43 C11.27,4.38 11.46,4.43 11.83,4.75 C12.01,4.89 12.29,5.17 12.29,5.31 C12.29,5.45 12.12,5.6 11.97,5.72 C11.8715994,5.8211211 11.7272021,5.86292034 11.59,5.83 C11.4181535,5.76042481 11.2592616,5.66238516 11.12,5.54 L11.12,5.54 Z M11.22,4.54 C11.0446929,4.66656855 10.9465414,4.87419676 10.96,5.09 C11.1313764,5.32878576 11.3624,5.51843203 11.63,5.64 C11.6843776,5.66277835 11.7456224,5.66277835 11.8,5.64 C11.9377981,5.55742213 12.0515714,5.44020122 12.13,5.3 C12.0273929,5.13088302 11.891268,4.98454873 11.73,4.87 C11.33,4.57 11.24,4.57 11.22,4.58 L11.22,4.54 Z" id="Shape" fill="#242638" fill-rule="nonzero"></path>
                            <path d="M12.88,7 C12.7342952,6.8892515 12.6090764,6.75387984 12.51,6.6 C12.4424316,6.47522696 12.4424316,6.32477304 12.51,6.2 C12.59,6.03 12.76,5.83 12.86,5.81 C12.96,5.79 13.32,6.01 13.49,6.16 C13.83,6.47 13.95,6.64 13.92,6.77 C13.8033919,7.04066066 13.5441904,7.22248862 13.25,7.24 C13.1093794,7.19047363 12.9825558,7.10820967 12.88,7 L12.88,7 Z M12.93,6 C12.8093334,6.10801711 12.7137649,6.24113038 12.65,6.39 C12.6301886,6.44836462 12.6301886,6.51163538 12.65,6.57 C12.823061,6.80969154 13.0534037,7.00221682 13.32,7.13 C13.5321739,7.09686237 13.7149603,6.96257027 13.81,6.77 C13.81,6.77 13.81,6.66 13.43,6.32 C13.2839147,6.18415688 13.1145403,6.07575727 12.93,6 L12.93,6 Z" id="Shape" fill="#242638" fill-rule="nonzero"></path>
                            <path d="M12.72,6 L12.72,6 C12.5493032,5.81161533 12.3542514,5.64683021 12.14,5.51 L12.21,5.38 C12.4433042,5.51900374 12.6554645,5.69075255 12.84,5.89 L12.84,5.89 L12.72,6 Z" id="Path" fill="#242638" fill-rule="nonzero"></path>
                            <path d="M13.89,6.86 L13.89,6.71 L14,6.71 C14.35,6.71 14.57,6.78 14.63,6.89 C14.6566667,6.92555556 14.6566667,6.97444444 14.63,7.01 L14.49,6.95 C14.49,6.95 14.49,6.95 14.49,6.95 C14.3232759,6.88854641 14.1476253,6.85476745 13.97,6.85 L13.89,6.86 Z" id="Path" fill="#242638" fill-rule="nonzero"></path>
                            <path d="M11.09,4.53 C11.01,4.2 10.86,3.98 10.79,3.97 C10.72,3.96 10.79,3.97 10.79,3.97 L10.67,3.87 C10.7062668,3.81318969 10.7742459,3.78519832 10.84,3.8 C11.01,3.8 11.18,4.18 11.25,4.48 L11.09,4.53 Z" id="Path" fill="#242638" fill-rule="nonzero"></path>
                            <path d="M11.53,4.32 C11.6297799,4.31968928 11.7285351,4.3401214 11.82,4.38 C12.0089384,4.45565526 12.1721025,4.5841036 12.29,4.75 C12.3477867,4.83466423 12.3885443,4.92976534 12.41,5.03 C12.3267203,4.9781116 12.2465806,4.92134594 12.17,4.86 L11.74,4.51 L11.53,4.32 Z" id="Path" fill="#242638" fill-rule="nonzero"></path>
                            <path d="M13.15,5.57 C13.2601076,5.57310019 13.3686544,5.59684481 13.47,5.64 C13.5684999,5.67747514 13.6598285,5.7315958 13.74,5.8 C13.8370845,5.85190091 13.9249328,5.91947651 14,6 C14.0658122,6.08763626 14.1072183,6.19115155 14.12,6.3 L13.88,6.11 L13.42,5.75 C13.31,5.71 13.23,5.65 13.15,5.57 Z" id="Path" fill="#242638" fill-rule="nonzero"></path>
                            <path d="M10.61,6.66 C10.8883614,6.78395079 11.1503452,6.94181282 11.39,7.13 C11.6127809,7.30722967 11.7966108,7.52850646 11.93,7.78 C11.588746,7.90643065 11.2057481,7.83749102 10.93,7.6 C10.664313,7.36549975 10.5425767,7.00789949 10.61,6.66 Z" id="Path" fill="#F27248" fill-rule="nonzero"></path>
                            <path d="M11.24,7.33 C11.4611098,7.49320915 11.6914964,7.64346127 11.93,7.78 C11.7966108,7.52850646 11.6127809,7.30722967 11.39,7.13 C11.1503452,6.94181282 10.8883614,6.78395079 10.61,6.66 C10.7725321,6.9236378 10.9868534,7.15156683 11.24,7.33 L11.24,7.33 Z" id="Path" fill="#134D82" fill-rule="nonzero" opacity="0.12" style="mix-blend-mode: multiply;"></path>
                        </g>
                        <path d="M207.7,94.16 L207.77,94.07 L208.03,94.28 L207.96,94.37 L207.7,94.16 Z M207.52,94.02 L207.27,93.79 L207.35,93.71 L207.6,93.93 L207.52,94.02 Z M208.14,94.5 L208.21,94.41 L208.48,94.59 L208.42,94.69 L208.14,94.5 Z M207.14,93.64 L206.9,93.39 L206.99,93.32 L207.22,93.56 L207.14,93.64 Z M208.65,94.81 L208.65,94.71 L208.94,94.88 L208.89,94.98 L208.65,94.81 Z M206.75,93.23 L206.54,92.97 L206.62,92.9 C206.687958,92.9879143 206.761439,93.0714162 206.84,93.15 L206.75,93.23 Z M209.14,95.08 L209.14,94.98 L209.44,95.13 L209.39,95.23 L209.14,95.08 Z M206.4,92.8 C206.327716,92.7108097 206.260926,92.6173036 206.2,92.52 L206.29,92.46 L206.48,92.73 L206.4,92.8 Z M209.64,95.32 L209.64,95.22 L209.95,95.34 L209.95,95.45 L209.64,95.32 Z M206.07,92.32 L205.89,92.03 L205.98,92.03 L206.16,92.31 L206.07,92.32 Z M210.17,95.5 L210.17,95.4 L210.49,95.5 L210.49,95.61 L210.17,95.5 Z M205.77,91.84 L205.61,91.54 L205.71,91.54 L205.87,91.83 L205.77,91.84 Z M210.7,95.67 L210.7,95.56 L211.02,95.64 L211.02,95.75 L210.7,95.67 Z M205.51,91.34 C205.51,91.24 205.42,91.13 205.37,91.03 L205.48,91.03 L205.61,91.33 L205.51,91.34 Z M211.25,95.8 L211.25,95.69 L211.58,95.75 L211.58,95.86 L211.25,95.8 Z M205.25,90.8 L205.13,90.49 L205.23,90.49 L205.35,90.8 L205.25,90.8 Z M211.76,95.87 L211.76,95.76 L212.09,95.76 L212.09,96 L211.76,95.87 Z M205.06,90.27 C205.03586,90.1809703 205.015838,90.0908746 205,90 L205.11,90 L205.2,90.32 L205.06,90.27 Z M212.33,96 L212.33,95.88 L212.66,95.88 L212.66,96 L212.33,96 Z M204.92,89.8 C204.92,89.69 204.86,89.58 204.84,89.47 L204.95,89.47 C204.95,89.58 205,89.69 205.02,89.8 L204.92,89.8 Z M212.92,96.01 L212.92,95.9 L213.25,95.9 L213.25,96 L212.92,96.01 Z M204.83,89.25 C204.83,89.14 204.83,89.03 204.78,88.92 L204.89,88.92 C204.89,89.03 204.89,89.14 204.89,89.25 L204.83,89.25 Z M213.45,96 L213.45,95.89 L213.79,95.89 L213.79,96 L213.45,96 Z M204.72,88.71 C204.72,88.59 204.72,88.48 204.72,88.37 L204.83,88.37 C204.83,88.48 204.83,88.59 204.83,88.7 L204.72,88.71 Z M214,95.9 L214,95.78 L214.32,95.78 L214.32,95.89 L214,95.9 Z M204.68,88.1 C204.68,87.99 204.68,87.88 204.68,87.77 L204.79,87.77 C204.79,87.88 204.79,87.99 204.79,88.1 L204.68,88.1 Z M214.55,95.8 L214.55,95.69 L214.87,95.61 L214.87,95.72 L214.55,95.8 Z M204.68,87.54 C204.68,87.43 204.68,87.32 204.68,87.21 L204.8,87.21 C204.8,87.32 204.8,87.43 204.8,87.54 L204.68,87.54 Z M215.1,95.66 L215.1,95.55 L215.42,95.45 L215.42,95.56 L215.1,95.66 Z M204.72,87 C204.72,86.89 204.72,86.78 204.77,86.67 L204.88,86.67 C204.88,86.77 204.88,86.88 204.88,86.99 L204.72,87 Z M215.64,95.5 L215.64,95.4 L215.95,95.28 L215.95,95.38 L215.64,95.5 Z M204.8,86.5 C204.8,86.39 204.8,86.28 204.87,86.17 L204.97,86.17 L204.91,86.5 L204.8,86.5 Z M216.17,95.34 L216.17,95.24 L216.47,95.1 L216.52,95.2 L216.17,95.34 Z M204.92,85.95 C204.92,85.84 204.97,85.73 205,85.62 L205.11,85.62 L205.02,85.95 L204.92,85.95 Z M216.67,95 L216.67,94.9 L216.96,94.74 L217.02,94.84 L216.67,95 Z M205.07,85.32 C205.07,85.21 205.14,85.11 205.18,85 L205.28,85 C205.28,85.1 205.21,85.21 205.17,85.31 L205.07,85.32 Z M217.16,94.72 L217.1,94.63 L217.38,94.44 L217.44,94.53 L217.16,94.72 Z M205.26,84.79 C205.26,84.69 205.34,84.58 205.39,84.48 L205.49,84.48 L205.36,84.78 L205.26,84.79 Z M217.62,94.41 L217.56,94.31 L217.82,94.11 L217.89,94.2 L217.62,94.41 Z M205.48,84.3 C205.525177,84.1958588 205.578684,84.0955332 205.64,84 L205.74,84 C205.680181,84.0912634 205.629916,84.1884422 205.59,84.29 L205.48,84.3 Z M218.07,94.08 L218,94 L218.25,93.78 L218.32,93.87 L218.07,94.08 Z M205.75,83.8 C205.8007,83.6999571 205.857473,83.6031096 205.92,83.51 L206.01,83.57 L205.84,83.85 L205.75,83.8 Z M218.49,93.7 L218.41,93.62 C218.491578,93.5484074 218.568407,93.4715781 218.64,93.39 L218.72,93.46 L218.49,93.7 Z M206,83.32 L206.19,83.04 L206.28,83.11 L206.09,83.38 L206,83.32 Z M218.84,93.32 L218.75,93.24 C218.838539,93.1656051 218.922055,93.0854297 219,93 L219.05,93 L219.13,93.07 L219.13,93.12 L218.84,93.32 Z M206.37,82.86 L206.57,82.62 L206.57,82.62 L206.65,82.69 L206.65,82.69 L206.46,82.93 L206.37,82.86 Z M206.81,82.5 L206.73,82.43 L206.95,82.18 L207.03,82.26 L206.81,82.5 Z M219.19,92.74 C219.262156,92.657698 219.32896,92.5708531 219.39,92.48 L219.48,92.54 L219.28,92.81 L219.19,92.74 Z M207.19,82.1 L207.11,82.02 L207.36,81.79 L207.43,81.87 L207.19,82.1 Z M219.52,92.29 L219.7,92.01 L219.79,92.07 L219.61,92.36 L219.52,92.29 Z M207.6,81.73 L207.53,81.64 L207.79,81.43 L207.85,81.51 L207.6,81.73 Z M219.81,91.82 C219.869239,91.7267116 219.922674,91.6298614 219.97,91.53 L220.07,91.53 L219.91,91.83 L219.81,91.82 Z M208,81.38 L207.93,81.29 L208.21,81.09 L208.27,81.19 L208,81.38 Z M220,91.38 L220.14,91.08 L220.24,91.08 C220.24,91.18 220.15,91.28 220.1,91.38 L220,91.38 Z M208.49,81.06 L208.43,80.97 L208.71,80.79 L208.77,80.89 L208.49,81.06 Z M220.29,90.83 C220.34,90.72 220.37,90.62 220.41,90.52 L220.52,90.52 L220.4,90.84 L220.29,90.83 Z M209,80.78 L208.95,80.68 L209.25,80.53 L209.25,80.63 L209,80.78 Z M220.52,90.31 C220.52,90.2 220.59,90.09 220.62,89.99 L220.73,89.99 C220.73,90.1 220.66,90.2 220.63,90.31 L220.52,90.31 Z M209.52,80.53 L209.47,80.43 L209.78,80.29 L209.83,80.4 L209.52,80.53 Z M220.69,89.77 C220.722515,89.6648812 220.749222,89.5580531 220.77,89.45 L220.88,89.45 C220.88,89.56 220.88,89.67 220.8,89.78 L220.69,89.77 Z M210,80.31 L210,80.21 L210.32,80.1 L210.32,80.2 L210,80.31 Z M220.78,89.23 C220.78,89.12 220.78,89.01 220.83,88.9 L220.94,88.9 C220.94,89.01 220.94,89.12 220.94,89.23 L220.78,89.23 Z M210.5,80.14 L210.5,80.03 L210.83,79.94 L210.83,80.05 C210.717224,80.0686946 210.606652,80.0988508 210.5,80.14 Z M220.83,88.68 C220.83,88.58 220.83,88.46 220.83,88.35 L221,88.35 L221,88.69 L220.83,88.68 Z M211,80 L211,79.89 L211.33,79.83 L211.33,79.94 L211,80 Z M220.84,88.14 L220.84,87.8 L221,87.8 L221,88.14 L220.84,88.14 Z M211.55,79.9 L211.55,79.79 L211.88,79.79 L211.88,79.9 L211.55,79.9 Z M220.84,87.59 C220.84,87.48 220.84,87.37 220.84,87.26 L221,87.26 C221,87.37 221,87.48 221,87.59 L220.84,87.59 Z M212.1,79.83 L212.1,79.72 L212.43,79.72 L212.43,79.83 L212.1,79.83 Z M220.8,87.04 C220.805487,86.9300684 220.805487,86.8199316 220.8,86.71 L220.91,86.71 C220.91,86.82 220.91,86.93 220.91,87.04 L220.8,87.04 Z M212.65,79.8 L212.65,79.69 L213,79.69 L213,79.8 L212.65,79.8 Z M220.73,86.49 C220.73,86.38 220.73,86.27 220.66,86.16 L220.77,86.16 C220.77,86.27 220.77,86.38 220.84,86.49 L220.73,86.49 Z M213.21,79.81 L213.21,79.7 L213.55,79.7 L213.55,79.81 L213.21,79.81 Z M220.61,85.94 C220.61,85.84 220.61,85.73 220.53,85.62 L220.64,85.62 C220.64,85.73 220.7,85.84 220.72,85.95 L220.61,85.94 Z M213.76,79.86 L213.76,79.75 L214.09,79.75 L214.09,79.86 L213.76,79.86 Z M220.47,85.41 L220.36,85.09 L220.46,85.09 C220.46,85.19 220.54,85.3 220.57,85.4 L220.47,85.41 Z M214.3,79.94 L214.3,79.83 L214.63,79.9 L214.63,80.01 L214.3,79.94 Z M220.3,84.89 C220.262739,84.7842237 220.219332,84.6807141 220.17,84.58 L220.27,84.58 C220.32,84.68 220.36,84.79 220.4,84.89 L220.3,84.89 Z M214.86,80.06 L214.86,79.95 L215.19,80.05 L215.19,80.15 L214.86,80.06 Z M220.08,84.38 L219.93,84.08 L220.03,84.08 L220.18,84.38 L220.08,84.38 Z M215.39,80.22 L215.39,80.11 L215.71,80.23 L215.71,80.33 L215.39,80.22 Z M219.82,83.88 L219.65,83.6 L219.75,83.54 C219.81,83.63 219.86,83.73 219.92,83.83 L219.82,83.88 Z M215.91,80.42 L215.91,80.31 L216.22,80.45 L216.22,80.55 L215.91,80.42 Z M219.53,83.42 C219.472428,83.3260805 219.408968,83.2359001 219.34,83.15 L219.43,83.08 L219.63,83.36 L219.53,83.42 Z M216.42,80.66 L216.42,80.56 L216.71,80.71 L216.66,80.81 L216.42,80.66 Z M219.22,83 L219.01,82.74 L219.1,82.67 L219.31,82.93 L219.22,83 Z M216.91,81 L216.97,80.9 L217.26,81.08 L217.19,81.18 L216.91,81 Z M218.91,82.62 L218.68,82.37 L218.76,82.3 C218.841782,82.3784779 218.918597,82.4619729 218.99,82.55 L218.91,82.62 Z M217.42,81.3 L217.48,81.21 L217.76,81.4 L217.69,81.49 L217.42,81.3 Z M218.53,82.22 L218.29,81.99 L218.36,81.91 C218.448027,81.9814025 218.531522,82.0582179 218.61,82.14 L218.53,82.22 Z M217.87,81.63 L217.93,81.54 L218.09,81.66 L218.19,81.76 L218.12,81.84 L218.01,81.75 L217.87,81.63 Z" id="Shape" stroke="none" fill="#485CA8" fill-rule="nonzero"></path>
                        <path d="M167.66,129.06 C167.66,129.06 179.32,131.06 178.66,131.6 C180.59,129.77 181.88,126.81 182.75,124.28 C184.23,119.96 181.75,116.28 182.49,114.89 C182.49,114.89 183.61,113.08 184.93,110.73 C186.25,108.38 190.52,101.73 187.82,100.22 C185.12,98.71 182.82,105.8 176.99,111.71 C172.09,116.71 167.8,123.55 165.3,128.01 C166.105651,128.31567 166.893551,128.666219 167.66,129.06 Z" id="Path" stroke="none" fill="#F7C7CB" fill-rule="nonzero"></path>
                        <path d="M183.86,102.69 C185.24,103.33 186.8,102.1 187.3,101.33 C187.8,100.56 186.75,99.99 186.75,99.99 C186.249967,100.218124 185.787919,100.521659 185.38,100.89 C184.838404,101.459611 184.330857,102.060654 183.86,102.69 L183.86,102.69 Z" id="Path" stroke="none" fill="#37B99A" fill-rule="nonzero"></path>
                        <path d="M68.32,181.28 C68.15,177.15 66.45,172.7 63.03,167.09 L62.38,167.49 C65.71,172.96 67.38,177.28 67.56,181.28 L68.32,181.28 Z" id="Path" stroke="none" fill="#21312A" fill-rule="nonzero" opacity="0.17" style="mix-blend-mode: multiply;"></path>
                    </g>
                </g>
            </g>
        </g>
    </g>
</svg>