<?xml version="1.0" encoding="UTF-8"?>
<svg width="344px" height="184px" viewBox="0 0 344 184" version="1.1" xmlns="http://www.w3.org/2000/svg" xmlns:xlink="http://www.w3.org/1999/xlink">
    <title>C3239A80-C945-47B0-B737-335E6AAEB619</title>
    <defs>
        <rect id="path-1" x="0" y="0" width="344" height="184"></rect>
        <linearGradient x1="18.7188612%" y1="95.2538342%" x2="76.797153%" y2="-4.81450336%" id="linearGradient-3">
            <stop stop-color="#CA6138" offset="0%"></stop>
            <stop stop-color="#DC8C54" offset="100%"></stop>
        </linearGradient>
        <linearGradient x1="0%" y1="50.1113586%" x2="114.516129%" y2="50.1113586%" id="linearGradient-4">
            <stop stop-color="#CA6138" offset="0%"></stop>
            <stop stop-color="#DC8C54" offset="100%"></stop>
        </linearGradient>
        <linearGradient x1="14.4569829%" y1="56.2450166%" x2="81.438683%" y2="47.0009162%" id="linearGradient-5">
            <stop stop-color="#CA6138" offset="0%"></stop>
            <stop stop-color="#DC8C54" offset="100%"></stop>
        </linearGradient>
        <linearGradient x1="71.3639597%" y1="52.3397724%" x2="26.3362911%" y2="46.4218846%" id="linearGradient-6">
            <stop stop-color="#822A20" offset="0%"></stop>
            <stop stop-color="#DC8C54" offset="100%"></stop>
        </linearGradient>
    </defs>
    <g id="Patient---Mobile" stroke="none" stroke-width="1" fill="none" fill-rule="evenodd">
        <g id="assess_inter_goals" transform="translate(-16.000000, -88.000000)">
            <g id="ill_assess_goal_woman" transform="translate(16.000000, 88.000000)">
                <mask id="mask-2" fill="white">
                    <use xlink:href="#path-1"></use>
                </mask>
                <use id="Mask" fill="#FFFFFF" xlink:href="#path-1"></use>
                <g id="11-female" mask="url(#mask-2)">
                    <g transform="translate(10.000000, 6.000000)">
                        <path d="M131.61,63.76 C134.51,67.53 135.61,73.44 134.96,78.17 C134.47,81.81 131.86,85.08 130.74,87.78 C125.74,99.4 141.04,101.36 131.67,111.78 C124.44,119.42 135.09,121.95 135.15,130.99 C135.06,148.16 112.62,148.22 112.53,130.99 C112.59,121.99 123.24,119.41 116.01,111.78 C106.63,101.33 122.01,99.4 116.94,87.78 C115.82,85.09 113.21,81.78 112.72,78.17 C110.66,62.21 124.4,54.47 131.61,63.76 Z" id="Path" stroke="none" fill="#37B99A" fill-rule="nonzero" opacity="0.32"></path>
                        <path d="M123.71,72 C123.32,76.86 125.16,86.7 125.32,92.13 C125.53,96.03 124.57,99.76 125.03,109.13 C125.74,123.3 126.65,107.59 126.41,140.35 C126.27,147.67 127.07,163.82 127.41,171.13 C125.74,172.13 120.11,173.05 118.1,171.23 C119.67,129.39 121.87,132.75 121.53,118.61 C120.67,100.54 123.08,98.26 123.22,90.61 C123.38,84.73 122.55,71.81 123.71,72 Z" id="Path" stroke="none" fill="#FFFEF2" fill-rule="nonzero"></path>
                        <g id="Group" opacity="0.38" stroke="none" stroke-width="1" fill="none" fill-rule="evenodd" transform="translate(0.000000, 127.000000)">
                            <path d="M25.91,45.65 C25.91,45.65 22.68,31.86 24.91,19.76 C27.14,7.66 31.84,4.44 36.36,7.12 C38.92,8.64 38.36,18.12 35.92,24.58 C33.48,31.04 31.06,43.64 30.92,45.65 L25.91,45.65 Z" id="Path" fill="#37B99A" fill-rule="nonzero"></path>
                            <path d="M31.1,45.65 C31.1,45.65 33.1,29.89 37.5,19.26 C41.9,8.63 46.79,4 50,5.83 C53.21,7.66 50.29,13.28 47.75,17.44 C45.21,21.6 38.75,30.31 37.06,34.39 C35.584828,38.0297759 34.4532356,41.7995185 33.68,45.65 L31.1,45.65 Z" id="Path" fill="#37B99A" fill-rule="nonzero"></path>
                            <path d="M22.83,45.65 C23.0171858,37.520305 22.683168,29.38697 21.83,21.3 C20.76,12.48 18.94,7.52 19.57,3.36 C20.2,-0.8 23.37,-0.29 24.22,3.79 C25.07,7.87 25.13,17.07 25.13,23.06 C25.13,29.25 24.57,45.65 24.57,45.65 L22.83,45.65 Z" id="Path" fill="#37B99A" fill-rule="nonzero"></path>
                            <path d="M17.29,45.65 C16.8144051,40.3322914 15.7512562,35.0836226 14.12,30 C11.52,22.19 7.12,14.87 7.93,11.57 C8.74,8.27 13.42,9.88 15.46,15.93 C17.4639432,21.4078095 18.5813133,27.1701987 18.77,33 C18.98,39.4 18.98,45.67 18.98,45.67 L17.29,45.65 Z" id="Path" fill="#37B99A" fill-rule="nonzero"></path>
                            <path d="M10.67,45.65 C10.67,45.65 9.47,38.26 6,34.81 C2.53,31.36 -0.1,29.18 1.45,25.6 C3,22.02 9.19,22.6 11.3,27.5 C13.94,33.56 13.69,45.65 13.69,45.65 L10.67,45.65 Z" id="Path" fill="#37B99A" fill-rule="nonzero"></path>
                            <path d="M12.13,45.65 C12.0039462,42.3301565 11.4390409,39.0416003 10.45,35.87 C8.84,31.23 6,28.52 2.2,24.48 C1.880767,24.8020097 1.62617862,25.182195 1.45,25.6 C-0.1,29.18 2.58,31.36 6.02,34.81 C9.46,38.26 10.67,45.65 10.67,45.65 L12.13,45.65 Z" id="Path" fill="#37B99A" fill-rule="nonzero" opacity="0.15" style="mix-blend-mode: multiply;"></path>
                        </g>
                        <path d="M191.660002,28.28 C191.664045,39.7240559 184.77289,50.0433176 174.200734,54.4246367 C163.628579,58.8059559 151.458121,56.3862191 143.365951,48.2940491 C135.273781,40.201879 132.854044,28.0314212 137.235363,17.4592655 C141.616682,6.88710988 151.935944,-0.00404455098 163.38,-1.77940531e-06 C170.880322,-1.77940531e-06 178.073451,2.97949145 183.37698,8.28302023 C188.680509,13.586549 191.660002,20.7796777 191.660002,28.28 Z" id="Path" stroke="none" fill="#F0B41C" fill-rule="nonzero" opacity="0.23"></path>
                        <path d="M71.52,157.14 L72.31,169.87 C72.31,169.87 76.31,169.76 76.37,170.01 C76.43,170.26 69.37,172.12 69.37,172.12 C69.37,172.12 69.03,169.38 68.66,167.6 C68.29,165.82 67.25,159.95 67.12,158.23 L71.52,157.14 Z" id="Path" stroke="none" fill="#DC8C54" fill-rule="nonzero"></path>
                        <path d="M46.82,151.29 C45.9,151.97 37.56,157.62 36.73,158.08 C35.9,158.54 34.73,159.23 34.73,159.23 C34.73,159.23 36.46,162.23 37.31,163.67 C37.6027797,164.248128 37.9691566,164.785928 38.4,165.27 C38.1018606,164.334603 37.9106416,163.368443 37.83,162.39 C37.7729887,161.824767 37.7729887,161.255233 37.83,160.69 L48.78,154.92 L46.82,151.29 Z" id="Path" stroke="none" fill="url(#linearGradient-3)" fill-rule="nonzero"></path>
                        <path d="M71.69,159.91 L71.89,163.08 C71.4257523,163.07863 70.9617613,163.101997 70.5,163.15 C69.5999422,163.351035 68.7687212,163.785615 68.09,164.41 C67.99,163.83 67.89,163.23 67.79,162.63 L67.89,160.97 L71.69,159.91 Z M44.69,153.07 L43.97,153.25 L43.66,153.46 C43.4329571,154.855113 43.3926028,156.274239 43.54,157.68 L47.74,155.46 L44.69,153.07 Z" id="Shape" stroke="none" fill="#B1ADA9" fill-rule="nonzero" opacity="0.29" style="mix-blend-mode: multiply;"></path>
                        <path d="M55.34,114.52 C54.4245574,117.226974 53.9124056,120.053918 53.82,122.91 C53.63,126.91 53.76,134.7 53.82,137.1 C53.88,139.5 54.47,143.92 54.47,143.92 L43.69,153.32 C43.69,153.32 44.06,154.32 44.79,155.9 C45.1909645,156.777179 45.8324423,157.52268 46.64,158.05 C46.64,158.05 55.24,152.58 57.64,150.12 C60.04,147.66 60.78,146.93 61.57,143.73 C62.36,140.53 63.17,130.73 63.17,130.73 C63.17,130.73 64.74,140.1 64.98,142.5 C65.22,144.9 65.26,149.13 65.26,150.42 C65.26,152.42 66.67,162.86 66.67,162.86 C67.5660832,163.046986 68.4930706,163.026463 69.38,162.8 C70.4220692,162.51446 71.428474,162.111898 72.38,161.6 C72.38,161.6 71.55,150.94 71.73,148.6 C71.91,146.26 71.92,137.42 71.85,132.2 C71.78,126.98 71.55,121.75 70.85,118.43 C70.1973185,115.983299 69.2327431,113.630676 67.98,111.43 L55.34,114.52 Z" id="Path" stroke="none" fill="#485CA8" fill-rule="nonzero"></path>
                        <path d="M55.16,112.86 L55.34,114.52 C55.34,114.52 60.09,114.22 62.62,113.74 C64.5223493,113.286759 66.3322315,112.508679 67.97,111.44 L55.16,112.86 Z" id="Path" stroke="none" fill="#DC8C54" fill-rule="nonzero"></path>
                        <path d="M69.24,171.24 C69.8129021,171.384726 70.3994906,171.468525 70.99,171.49 C71.7154749,171.003995 72.386067,170.440698 72.99,169.81 C72.99,169.81 75.23,169.81 75.62,169.81 C75.9205355,169.77155 76.225573,169.788496 76.52,169.86 C76.6194562,169.933741 76.6957828,170.034353 76.74,170.15 L69.45,172.65 L69.24,171.24 Z" id="Path" stroke="none" fill="#674636" fill-rule="nonzero"></path>
                        <path d="M35.68,158.56 C35.68,158.56 36,159.8 36.14,160.15 C36.647556,160.784578 37.2097028,161.373493 37.82,161.91 C37.82,161.91 38.24,164.1 38.34,164.48 C38.437904,164.766308 38.4852763,165.067461 38.48,165.37 C38.427587,165.481179 38.3442674,165.574914 38.24,165.64 L34.33,159 L35.68,158.56 Z" id="Path" stroke="none" fill="#674636" fill-rule="nonzero"></path>
                        <path d="M52,109.55 C52,109.55 48.55,109.55 47.93,111.9 C47.31,114.25 50.62,117.62 52.12,119.08 C53.62,120.54 57.7,123.15 57.91,123.8 C58.19,124.65 58,125.88 58.47,127.09 C58.8417157,127.685357 59.319649,128.207355 59.88,128.63 C60.03,128.53 59.88,128.26 59.88,128.26 C59.88,128.26 60.58,129.11 60.62,129.05 C60.66,128.99 60.83,128.84 60.56,128.41 C60.3141096,127.968132 60.0904963,127.514231 59.89,127.05 L60.5,128.05 C60.8299074,128.418028 61.194974,128.752951 61.59,129.05 C61.59,129.05 61.79,128.74 61.67,128.56 C61.55,128.38 61.05,127.89 60.95,127.69 L60.44,126.6 C60.6754375,126.965827 60.92909,127.319606 61.2,127.66 C61.41,127.88 61.93,128.33 61.93,128.33 C61.93,128.33 62.17,128.13 62.07,127.91 C61.8892927,127.579363 61.6854519,127.261906 61.46,126.96 C61.1643474,126.404736 60.9328574,125.817624 60.77,125.21 C60.7199686,124.878544 60.7199686,124.541456 60.77,124.21 C60.77,124.21 61.07,125.05 61.17,125.39 C61.2988505,125.789403 61.5100671,126.157329 61.79,126.47 C61.88,126.47 62.04,126.21 61.99,125.84 C61.94,125.47 61.68,124.55 61.59,124.1 C61.5008066,123.625504 61.2984095,123.179544 61,122.8 C60.59,122.33 59.51,121.2 59.3,121.03 C57.8873365,119.591947 56.5521192,118.079814 55.3,116.5 C54.03,114.81 51.98,112.22 51.98,112.22 L52,109.55 Z" id="Path" stroke="none" fill="#DC8C54" fill-rule="nonzero"></path>
                        <path d="M72.3,160.23 C72.36,161.1 72.41,161.64 72.41,161.64 C71.458474,162.151898 70.4520692,162.55446 69.41,162.84 C68.5230706,163.066463 67.5960832,163.086986 66.7,162.9 C66.7,162.9 66.63,162.39 66.53,161.58 C68.5285152,161.554084 70.4974341,161.093418 72.3,160.23 Z M44.7,152.44 L43.7,153.32 C43.7,153.32 44.07,154.32 44.8,155.9 C45.2009645,156.777179 45.8424423,157.52268 46.65,158.05 L47.75,157.34 C46.3305498,155.99476 45.2803423,154.307542 44.7,152.44 Z" id="Shape" stroke="none" fill="#FFFFFF" fill-rule="nonzero" opacity="0.19"></path>
                        <path d="M55,116 C55.2364335,115.985141 55.4735665,115.985141 55.71,116 C55.95,116 56.18,116 56.41,116 C56.6414785,116.011831 56.8719552,116.038553 57.1,116.08 C57.3408215,116.117642 57.5782456,116.17449 57.81,116.25 C57.5771963,116.331704 57.335497,116.385415 57.09,116.41 C56.8504162,116.429988 56.6095838,116.429988 56.37,116.41 C56.1295222,116.390971 55.8916191,116.347411 55.66,116.28 C55.4255767,116.225188 55.2023239,116.130475 55,116 L55,116 Z" id="Path" stroke="none" fill="#B1ADA9" fill-rule="nonzero" opacity="0.28" style="mix-blend-mode: multiply;"></path>
                        <path d="M54.47,143.92 C54.63,144.11 54.75,144.3 54.88,144.48 L55.25,145.04 C55.37,145.23 55.49,145.42 55.6,145.61 C55.7250805,145.80656 55.8386061,146.010238 55.94,146.22 C55.7209679,146.123072 55.521128,145.987587 55.35,145.82 C55.1810906,145.652988 55.0302571,145.468636 54.9,145.27 C54.7689019,145.071267 54.6646647,144.856068 54.59,144.63 C54.5058139,144.402957 54.4651056,144.162099 54.47,143.92 L54.47,143.92 Z" id="Path" stroke="none" fill="#B1ADA9" fill-rule="nonzero" opacity="0.28" style="mix-blend-mode: multiply;"></path>
                        <path d="M71.33,149.88 C71.2572121,150.200164 71.1429117,150.509447 70.99,150.8 C70.8391758,151.088001 70.6687759,151.365319 70.48,151.63 C70.29,151.89 70.09,152.13 69.89,152.38 C69.6800034,152.61922 69.4830512,152.869583 69.3,153.13 C69.3411085,152.798045 69.4500303,152.478087 69.62,152.19 C69.772081,151.906933 69.9459382,151.636117 70.14,151.38 C70.33,151.12 70.52,150.87 70.72,150.63 C70.92,150.39 71.11,150.12 71.33,149.88 Z" id="Path" stroke="none" fill="#B1ADA9" fill-rule="nonzero" opacity="0.28" style="mix-blend-mode: multiply;"></path>
                        <path d="M58.06,93.44 C56.24,95.06 53.5,96.32 51.93,98.12 C50.36,99.92 49.31,102.96 48.53,105.31 C47.943647,107.245638 47.4794004,109.216181 47.14,111.21 C47.14,111.21 51.8,112.4 53.82,112.04 L55.07,112.91 L68.32,112.34 L69.32,114.34 C70.4876845,113.437233 71.2930636,112.145788 71.59,110.7 C72.007531,107.84151 71.9024936,104.930957 71.28,102.11 C70.73,99.69 70.21,98.03 68.41,96.83 C67.0802936,96.0496672 65.8821959,95.0641897 64.86,93.91 C64.56,93.33 58.06,93.44 58.06,93.44 Z" id="Path" stroke="none" fill="#F7EFEA" fill-rule="nonzero"></path>
                        <path d="M64.44,87.93 L64.52,87.87 C64.0904227,87.8104505 63.6681693,87.7065628 63.26,87.56 C61.89,87.07 60.45,86.8 59.09,86.3 C59.09,86.67 59.17,87.03 59.19,87.3 C59.2547706,88.8045709 59.1710321,90.3118625 58.94,91.8 C58.7450044,92.3848417 58.4469788,92.9300932 58.06,93.41 C58.06,93.41 59.38,95.47 60.48,97.05 C61.1570009,98.0174652 61.9129145,98.9272374 62.74,99.77 C62.74,99.77 63.48,98.02 63.98,96.64 C64.48,95.26 64.88,93.88 64.88,93.88 C64.5206375,93.169084 64.3258271,92.3864248 64.31,91.59 C64.31,90.38 64.44,87.93 64.44,87.93 Z" id="Path" stroke="none" fill="url(#linearGradient-4)" fill-rule="nonzero"></path>
                        <path d="M53.64,100.61 C53.9482795,101.3796 54.1533922,102.1866 54.25,103.01 C54.346737,103.832907 54.3835007,104.66176 54.36,105.49 C54.3170257,107.137197 54.1059304,108.775699 53.73,110.38 C53.73,109.55 53.73,108.73 53.73,107.92 L53.8,105.48 C53.8,104.66 53.8,103.86 53.8,103.05 C53.8,102.24 53.74,101.43 53.64,100.61 Z" id="Path" stroke="none" fill="#B1ADA9" fill-rule="nonzero" opacity="0.49" style="mix-blend-mode: multiply;"></path>
                        <path d="M55.16,102.59 C55.2337501,102.867839 55.2773352,103.152819 55.29,103.44 C55.3050627,103.723133 55.3050627,104.006867 55.29,104.29 C55.2702783,104.858932 55.220207,105.426405 55.14,105.99 C55.14,106.27 55.05,106.55 55,106.82 C54.95,107.09 54.88,107.38 54.81,107.65 C54.6798993,108.205372 54.4991424,108.747642 54.27,109.27 C54.35,108.71 54.97,104.27 54.97,104.27 C55.05,103.71 55.14,103.16 55.16,102.59 Z" id="Path" stroke="none" fill="#B1ADA9" fill-rule="nonzero" opacity="0.35" style="mix-blend-mode: multiply;"></path>
                        <path d="M71.67,100.06 C70.7502728,99.5457766 69.798291,99.0914976 68.82,98.7 C68.66,98.86 68.9,99.29 69.16,99.42 L70.45,100.02 L68.34,99.28 C68.34,99.28 68.17,99.41 68.25,99.56 C68.7434511,99.8779917 69.2618068,100.155563 69.8,100.39 L67.8,100.06 C67.8,100.06 67.64,100.31 67.88,100.43 C68.12,100.55 69.29,101.01 69.29,101.01 L67.47,100.65 C67.4846597,100.919843 67.6837365,101.143805 67.95,101.19 L68.66,101.43 L69.3,101.85 C69.3,101.85 68.54,102.85 68.56,102.85 C68.51,103.6 67.22,108.91 67.22,110.74 C67.22,112.84 67.8,114.01 68.63,114.05 C71.29,114.18 71.2,109.18 70.43,104.05 C70.82,103 72.5,100.68 71.67,100.06 Z" id="Path" stroke="none" fill="#DC8C54" fill-rule="nonzero"></path>
                        <path d="M58.57,99 C58.69,99.22 58.8,99.42 58.9,99.62 C59,99.82 59.11,100.03 59.2,100.24 C59.29,100.45 59.39,100.66 59.47,100.88 C59.5501814,101.106373 59.6038725,101.341272 59.63,101.58 C59.4605113,101.410807 59.3065596,101.226734 59.17,101.03 C59.0410947,100.832262 58.9274328,100.624997 58.83,100.41 C58.72295,100.193808 58.642368,99.965492 58.59,99.73 C58.5332399,99.4906264 58.5264316,99.2421223 58.57,99 L58.57,99 Z" id="Path" stroke="none" fill="#B1ADA9" fill-rule="nonzero" opacity="0.35" style="mix-blend-mode: multiply;"></path>
                        <path d="M62.62,110.88 C62.7617858,110.689634 62.9341169,110.524061 63.13,110.39 C63.3208398,110.261213 63.5214502,110.147534 63.73,110.05 L64.34,109.79 L64.97,109.55 C64.8609873,109.763784 64.6992154,109.946207 64.5,110.08 C64.3117153,110.215682 64.1107854,110.332891 63.9,110.43 C63.7,110.52 63.49,110.61 63.28,110.68 C63.07,110.75 62.86,110.82 62.62,110.88 Z" id="Path" stroke="none" fill="#B1ADA9" fill-rule="nonzero" opacity="0.35" style="mix-blend-mode: multiply;"></path>
                        <path d="M48.66,109.82 C48.9127731,109.765277 49.1718011,109.745093 49.43,109.76 C49.6794309,109.768017 49.9273877,109.801525 50.17,109.86 C50.4156949,109.908746 50.656624,109.979017 50.89,110.07 C51.1291782,110.160565 51.3573048,110.277983 51.57,110.42 C51.3172998,110.44533 51.0627002,110.44533 50.81,110.42 C50.56,110.42 50.32,110.34 50.08,110.29 C49.84,110.24 49.61,110.18 49.37,110.11 C49.1269733,110.029702 48.8897485,109.932807 48.66,109.82 L48.66,109.82 Z" id="Path" stroke="none" fill="#B1ADA9" fill-rule="nonzero" opacity="0.35" style="mix-blend-mode: multiply;"></path>
                        <path d="M39.39,80.34 C39.04,78.73 41.39,77.86 42.62,78.34 C43.85,78.82 44.78,77.86 45.56,77.45 C46.34,77.04 47.94,76.39 49,77.08 C49.9800038,77.8057398 51.2937315,77.8917577 52.36,77.3 C53.238576,76.5297079 54.3229465,76.0327047 55.48,75.87 C57.08,75.74 57.89,76.6 58.56,76.58 C59.78,76.58 60.81,75.49 62.56,75.97 C63.68,76.27 66.49,77.5 66.04,80.29 C65.64,82.79 60.89,85.9 60.89,85.9 C60.89,85.9 58.89,88.27 56.79,87.9 C55.1,87.64 55.17,86.54 53.79,86.61 C52.41,86.68 51.87,87.06 50.42,86.52 C49.42,86.15 49.23,84.95 48.09,85.03 C46.95,85.11 46.71,85.73 45.09,85.11 C43.47,84.49 43.36,82.59 42.27,82.57 C40.8805286,82.6740515 39.6371195,81.7112729 39.39,80.34 L39.39,80.34 Z" id="Path" stroke="none" fill="#000000" fill-rule="nonzero"></path>
                        <path d="M63.59,79 C64.338313,79.1775995 64.9898361,79.6358136 65.41,80.28 C65.8819958,81.1188357 66.2194337,82.0265436 66.41,82.97 C66.6294695,83.9538949 66.7002556,84.9651243 66.62,85.97 C66.6253917,87.1835259 65.8991534,88.2807773 64.78,88.75 C63.6933559,89.1616161 62.4769559,89.0433036 61.49,88.43 C60.3696568,87.6254641 59.654349,86.3736754 59.53,85 C59.4389737,84.5909656 59.3721907,84.1769111 59.33,83.76 C60.2272518,83.6032516 60.9283667,82.8981304 61.08,82 C61.29,80.93 62.55,80.46 62.95,80.09 C63.2352401,79.7739714 63.4530132,79.4030764 63.59,79 L63.59,79 Z" id="Path" stroke="none" fill="#DC8C54" fill-rule="nonzero"></path>
                        <path d="M59.76,82.69 C59.0062759,82.4538538 58.1838602,82.6672164 57.64,83.24 C57.2721081,83.7011146 57.1265414,84.3011188 57.2422285,84.8795543 C57.3579156,85.4579898 57.7230557,85.9558526 58.24,86.24 C58.960776,86.5061188 59.7647978,86.4171947 60.41,86 C60.2015165,85.4174019 60.0409824,84.8187436 59.93,84.21 C59.832956,83.7086674 59.7761086,83.2003846 59.76,82.69 L59.76,82.69 Z" id="Path" stroke="none" fill="url(#linearGradient-5)" fill-rule="nonzero"></path>
                        <path d="M58.59,83.85 C58.3813616,84.0881819 58.297855,84.4111029 58.3648731,84.7205689 C58.4318912,85.0300348 58.6415143,85.2894756 58.93,85.42 C59.347564,85.5270854 59.7906309,85.4622464 60.16,85.24 C60.065524,84.9110148 59.9887472,84.5772028 59.93,84.24 C59.87,83.95 59.84,83.69 59.81,83.47 C59.3662077,83.3978256 58.9143121,83.53858 58.59,83.85 L58.59,83.85 Z" id="Path" stroke="none" fill="#DC8C54" fill-rule="nonzero"></path>
                        <path d="M63,83.33 C63,83.48 63,83.61 62.86,83.63 C62.72,83.65 62.66,83.54 62.63,83.39 C62.6,83.24 62.63,83.11 62.77,83.08 C62.91,83.05 62.92,83.17 63,83.33 Z" id="Path" stroke="none" fill="#000000" fill-rule="nonzero"></path>
                        <path d="M66.11,82.78 C66.11,82.92 66.11,83.05 65.98,83.07 C65.85,83.09 65.79,82.98 65.76,82.84 C65.73,82.7 65.76,82.56 65.89,82.54 C66.02,82.52 66.09,82.63 66.11,82.78 Z" id="Path" stroke="none" fill="#000000" fill-rule="nonzero"></path>
                        <path d="M66,81.5 C65.32,81.5 65.22,81.83 65.26,82.01 C65.4938477,81.8969383 65.7432628,81.8194174 66,81.78 L66.11,81.78 C66.08328,81.6830587 66.0464094,81.5892062 66,81.5 L66,81.5 Z" id="Path" stroke="none" fill="#21312A" fill-rule="nonzero"></path>
                        <path d="M61.78,82.58 C61.78,82.58 61.91,82.25 62.57,82.06 C63.23,81.87 63.42,82.06 63.44,82.28 C63.1816821,82.2381738 62.9183179,82.2381738 62.66,82.28 C62.3597302,82.3583627 62.0656087,82.4586314 61.78,82.58 L61.78,82.58 Z" id="Path" stroke="none" fill="#21312A" fill-rule="nonzero"></path>
                        <path d="M64.09,82.25 L64.09,82.17 C64.5512536,82.8394459 65.0881295,83.4534978 65.69,84 C65.92,84.28 65.69,84.63 65.37,84.72 C65.0404116,84.7992098 64.7065219,84.8593099 64.37,84.9" id="Path" stroke="url(#linearGradient-6)" stroke-width="0.08" fill="none"></path>
                        <path d="M63,86.32 C63.3769846,86.2097552 63.7612698,86.1262149 64.15,86.07 L64.48,86.07 C64.6293527,86.0502932 64.7806473,86.0502932 64.93,86.07 C65.1739347,86.1337552 65.4142791,86.2105319 65.65,86.3 C65.2580631,86.61489 64.7726776,86.7907543 64.27,86.8 C63.7962015,86.8378675 63.3303089,86.6617821 63,86.32 L63,86.32 Z" id="Path" stroke="none" fill="#DE4F31" fill-rule="nonzero"></path>
                        <polygon id="Path" stroke="none" fill="#FAE1E4" fill-rule="nonzero" points="135.41 130.23 171.85 130.23 172.43 130.43 185.1 143.09 185.16 143.29 148.08 143.29 135.22 130.43"></polygon>
                        <polygon id="Path" stroke="none" fill="#FFFFFF" fill-rule="nonzero" opacity="0.47" points="171.82 130.43 171.24 130.23 171.85 130.23 172.43 130.43 185.1 143.09 185.16 143.29 184.55 143.29 184.49 143.09"></polygon>
                        <polygon id="Path" stroke="none" fill="#F4B0B7" fill-rule="nonzero" points="147.88 143.09 185.1 143.09 185.29 143.68 185.29 171.92 184.9 172.3 148.46 172.3 147.88 172.11 147.88 143.48 148.03 143.53"></polygon>
                        <polygon id="Path" stroke="none" fill="#FFFFFF" fill-rule="nonzero" opacity="0.21" points="147.88 143.48 148.26 143.09 185.1 143.09 185.29 143.68 148.46 143.68"></polygon>
                        <polygon id="Path" stroke="none" fill="#E5E5E4" fill-rule="nonzero" style="mix-blend-mode: multiply;" points="148.46 143.68 148.46 172.3 147.88 172.11 147.88 143.48"></polygon>
                        <polygon id="Path" stroke="none" fill="#F0929C" fill-rule="nonzero" points="135.22 130.43 135.41 130.23 148.27 143.09 147.98 143.38 148.03 143.53 147.88 143.48 147.88 172.11 135.22 159.44 135.02 158.86 135.02 130.62"></polygon>
                        <rect id="Rectangle" stroke="none" fill="#FFFFFF" fill-rule="nonzero" opacity="0.16" transform="translate(141.649666, 136.881385) rotate(-44.990000) translate(-141.649666, -136.881385) " x="141.374666" y="127.786385" width="1" height="18.19"></rect>
                        <polygon id="Path" stroke="none" fill="#FFFFFF" fill-rule="nonzero" opacity="0.18" points="148.27 143.09 147.88 143.48 148.46 143.68"></polygon>
                        <polygon id="Path" stroke="none" fill="#8E9396" fill-rule="nonzero" opacity="0.41" style="mix-blend-mode: multiply;" points="135.22 130.64 135.22 159.05 147.87 171.7 148.46 171.92 185.29 171.92 184.9 172.3 148.46 172.3 147.88 172.11 135.22 159.44 135.02 158.86 135.02 130.62"></polygon>
                        <polygon id="Path" stroke="none" fill="#FFFFFF" fill-rule="nonzero" opacity="0.21" points="184.8 143.09 185.1 143.09 185.29 143.68 185.29 171.92 184.9 172.3 184.8 172.3"></polygon>
                        <polygon id="Path" stroke="none" fill="#FAE1E4" fill-rule="nonzero" points="160.49 101.23 196.93 101.23 197.51 101.43 210.18 114.09 210.24 114.29 173.16 114.29 160.3 101.43"></polygon>
                        <polygon id="Path" stroke="none" fill="#FFFFFF" fill-rule="nonzero" opacity="0.47" points="196.9 101.43 196.31 101.23 196.93 101.23 197.51 101.43 210.18 114.09 210.24 114.29 209.63 114.29 209.56 114.09"></polygon>
                        <polygon id="Path" stroke="none" fill="#F4B0B7" fill-rule="nonzero" points="172.96 114.09 210.18 114.09 210.37 114.67 210.37 142.91 209.98 143.3 173.54 143.3 172.96 143.11 172.96 114.48 173.11 114.53"></polygon>
                        <polygon id="Path" stroke="none" fill="#FFFFFF" fill-rule="nonzero" opacity="0.21" points="172.96 114.48 173.34 114.09 210.18 114.09 210.37 114.67 173.54 114.67"></polygon>
                        <polygon id="Path" stroke="none" fill="#E5E5E4" fill-rule="nonzero" style="mix-blend-mode: multiply;" points="173.54 114.67 173.54 143.3 172.96 143.11 172.96 114.48"></polygon>
                        <polygon id="Path" stroke="none" fill="#F0929C" fill-rule="nonzero" points="160.3 101.43 160.49 101.23 173.35 114.09 173.06 114.38 173.11 114.53 172.96 114.48 172.96 143.11 160.3 130.44 160.1 129.86 160.1 101.62"></polygon>
                        <rect id="Rectangle" stroke="none" fill="#FFFFFF" fill-rule="nonzero" opacity="0.16" transform="translate(166.727412, 107.863495) rotate(-44.990000) translate(-166.727412, -107.863495) " x="166.452412" y="98.7684946" width="1" height="18.19"></rect>
                        <polygon id="Path" stroke="none" fill="#FFFFFF" fill-rule="nonzero" opacity="0.18" points="173.35 114.09 172.96 114.48 173.54 114.67"></polygon>
                        <polygon id="Path" stroke="none" fill="#8E9396" fill-rule="nonzero" opacity="0.41" style="mix-blend-mode: multiply;" points="160.3 101.64 160.3 130.05 172.95 142.69 173.54 142.91 210.37 142.91 209.98 143.3 173.54 143.3 172.96 143.11 160.3 130.44 160.1 129.86 160.1 101.62"></polygon>
                        <polygon id="Path" stroke="none" fill="#FFFFFF" fill-rule="nonzero" opacity="0.21" points="209.88 114.09 210.18 114.09 210.37 114.67 210.37 142.91 209.98 143.3 209.88 143.3"></polygon>
                        <polygon id="Path" stroke="none" fill="#FAE1E4" fill-rule="nonzero" points="273.5 43.35 309.94 43.35 310.52 43.55 323.19 56.21 323.25 56.4 286.17 56.4 273.31 43.55"></polygon>
                        <polygon id="Path" stroke="none" fill="#FFFFFF" fill-rule="nonzero" opacity="0.47" points="309.91 43.55 309.33 43.35 309.94 43.35 310.52 43.55 323.19 56.21 323.25 56.4 322.64 56.4 322.58 56.21"></polygon>
                        <polygon id="Path" stroke="none" fill="#F4B0B7" fill-rule="nonzero" points="285.98 56.21 323.19 56.21 323.38 56.79 323.38 85.03 323 85.42 286.56 85.42 285.98 85.23 285.98 56.6 286.12 56.65"></polygon>
                        <polygon id="Path" stroke="none" fill="#FFFFFF" fill-rule="nonzero" opacity="0.21" points="285.98 56.6 286.36 56.21 323.19 56.21 323.38 56.79 286.56 56.79"></polygon>
                        <polygon id="Path" stroke="none" fill="#E5E5E4" fill-rule="nonzero" style="mix-blend-mode: multiply;" points="286.56 56.79 286.56 85.42 285.98 85.23 285.98 56.6"></polygon>
                        <polygon id="Path" stroke="none" fill="#FFFFFF" fill-rule="nonzero" opacity="0.18" points="286.36 56.21 285.98 56.6 286.56 56.79"></polygon>
                        <polygon id="Path" stroke="none" fill="#FFFFFF" fill-rule="nonzero" opacity="0.21" points="322.89 56.21 323.19 56.21 323.38 56.79 323.38 85.03 323 85.42 322.89 85.42"></polygon>
                        <polygon id="Path" stroke="none" fill="#FAE1E4" fill-rule="nonzero" points="258.49 43.35 294.92 43.35 295.5 43.55 308.17 56.21 308.24 56.4 271.15 56.4 258.29 43.55"></polygon>
                        <polygon id="Path" stroke="none" fill="#FAE1E4" fill-rule="nonzero" points="235.05 43.24 271.49 43.24 272.07 43.43 284.74 56.1 284.8 56.29 247.72 56.29 234.86 43.43"></polygon>
                        <polygon id="Path" stroke="none" fill="#F4B0B7" fill-rule="nonzero" points="247.52 56.1 284.74 56.1 284.93 56.68 284.93 84.92 284.54 85.31 248.1 85.31 247.52 85.11 247.52 56.48 247.67 56.53"></polygon>
                        <polygon id="Path" stroke="none" fill="#FFFFFF" fill-rule="nonzero" opacity="0.21" points="247.52 56.48 247.91 56.1 284.74 56.1 284.93 56.68 248.1 56.68"></polygon>
                        <polygon id="Path" stroke="none" fill="#E5E5E4" fill-rule="nonzero" style="mix-blend-mode: multiply;" points="248.1 56.68 248.1 85.31 247.52 85.11 247.52 56.48"></polygon>
                        <polygon id="Path" stroke="none" fill="#F0929C" fill-rule="nonzero" points="234.86 43.43 235.05 43.24 247.91 56.1 247.62 56.39 247.67 56.53 247.52 56.48 247.52 85.11 234.86 72.45 234.66 71.86 234.66 43.63"></polygon>
                        <rect id="Rectangle" stroke="none" fill="#FFFFFF" fill-rule="nonzero" opacity="0.16" transform="translate(241.300530, 49.878537) rotate(-44.990000) translate(-241.300530, -49.878537) " x="241.02553" y="40.7835372" width="1" height="18.19"></rect>
                        <polygon id="Path" stroke="none" fill="#FFFFFF" fill-rule="nonzero" opacity="0.18" points="247.91 56.1 247.52 56.48 248.1 56.68"></polygon>
                        <polygon id="Path" stroke="none" fill="#8E9396" fill-rule="nonzero" opacity="0.41" style="mix-blend-mode: multiply;" points="234.86 43.64 234.86 72.05 247.51 84.7 248.1 84.92 284.93 84.92 284.54 85.31 248.1 85.31 247.52 85.11 234.86 72.45 234.66 71.86 234.66 43.63"></polygon>
                        <polygon id="Path" stroke="none" fill="#FFFFFF" fill-rule="nonzero" opacity="0.21" points="284.44 56.1 284.74 56.1 284.93 56.68 284.93 84.92 284.54 85.31 284.44 85.31"></polygon>
                        <polygon id="Path" stroke="none" fill="#FAE1E4" fill-rule="nonzero" points="197.9 72.23 234.34 72.23 234.92 72.42 247.59 85.09 247.65 85.28 210.56 85.28 197.71 72.42"></polygon>
                        <polygon id="Path" stroke="none" fill="#FFFFFF" fill-rule="nonzero" opacity="0.47" points="234.31 72.42 233.72 72.23 234.34 72.23 234.92 72.42 247.59 85.09 247.65 85.28 247.04 85.28 246.97 85.09"></polygon>
                        <polygon id="Path" stroke="none" fill="#F4B0B7" fill-rule="nonzero" points="210.37 85.09 247.59 85.09 247.78 85.67 247.78 113.91 247.39 114.3 210.95 114.3 210.37 114.11 210.37 85.48 210.52 85.53"></polygon>
                        <polygon id="Path" stroke="none" fill="#FFFFFF" fill-rule="nonzero" opacity="0.21" points="210.37 85.48 210.75 85.09 247.59 85.09 247.78 85.67 210.95 85.67"></polygon>
                        <polygon id="Path" stroke="none" fill="#E5E5E4" fill-rule="nonzero" style="mix-blend-mode: multiply;" points="210.95 85.67 210.95 114.3 210.37 114.11 210.37 85.48"></polygon>
                        <polygon id="Path" stroke="none" fill="#F0929C" fill-rule="nonzero" points="197.71 72.42 197.9 72.23 210.76 85.09 210.47 85.38 210.52 85.53 210.37 85.48 210.37 114.11 197.71 101.44 197.51 100.85 197.51 72.62"></polygon>
                        <rect id="Rectangle" stroke="none" fill="#FFFFFF" fill-rule="nonzero" opacity="0.16" transform="translate(204.142376, 78.865572) rotate(-44.990000) translate(-204.142376, -78.865572) " x="203.867376" y="69.7705719" width="1" height="18.19"></rect>
                        <polygon id="Path" stroke="none" fill="#FFFFFF" fill-rule="nonzero" opacity="0.18" points="210.76 85.09 210.37 85.48 210.95 85.67"></polygon>
                        <polygon id="Path" stroke="none" fill="#8E9396" fill-rule="nonzero" opacity="0.41" style="mix-blend-mode: multiply;" points="197.71 72.64 197.71 101.05 210.36 113.69 210.95 113.91 247.78 113.91 247.39 114.3 210.95 114.3 210.37 114.11 197.71 101.44 197.51 100.85 197.51 72.62"></polygon>
                        <polygon id="Path" stroke="none" fill="#FFFFFF" fill-rule="nonzero" opacity="0.21" points="247.29 85.09 247.59 85.09 247.78 85.67 247.78 113.91 247.39 114.3 247.29 114.3"></polygon>
                        <polygon id="Path" stroke="none" fill="#F4B0B7" fill-rule="nonzero" points="172.33 143.71 172.33 115.28 210.17 115.28 210.17 85.83 248.19 85.83 247.91 56.1 323.19 56.21 323.38 172.65 148.53 172.65 148.53 143.71"></polygon>
                        <polygon id="Path" stroke="none" fill="#FAE1E4" fill-rule="nonzero" points="135.15 146.48 147.89 156.15 127.51 156.15 116.95 147.08"></polygon>
                        <polygon id="Path" stroke="none" fill="#FAE1E4" fill-rule="nonzero" points="116.95 147.08 127.62 156.3 107.25 156.3 98.1 147.19"></polygon>
                        <polygon id="Path" stroke="none" fill="#F4B0B7" fill-rule="nonzero" points="106.78 156.15 153.21 156.15 153.45 156.47 153.45 172.43 152.96 172.65 107.51 172.65 106.78 172.54 106.78 156.37 106.96 156.39"></polygon>
                        <polygon id="Path" stroke="none" fill="#FFFFFF" fill-rule="nonzero" opacity="0.21" points="127.3 156.36 127.51 156.15 147.89 156.15 147.99 156.47 127.62 156.47"></polygon>
                        <polygon id="Path" stroke="none" fill="#FFFFFF" fill-rule="nonzero" opacity="0.18" points="127.52 156.15 127.3 156.36 127.62 156.47"></polygon>
                        <polygon id="Path" stroke="none" fill="#FFFFFF" fill-rule="nonzero" opacity="0.21" points="106.78 156.25 106.99 156.04 127.36 156.04 127.47 156.36 107.1 156.36"></polygon>
                        <polygon id="Path" stroke="none" fill="#E5E5E4" fill-rule="nonzero" style="mix-blend-mode: multiply;" points="107.1 156.36 107.1 172.2 106.78 172.09 106.78 156.25"></polygon>
                        <polygon id="Path" stroke="none" fill="#F0929C" fill-rule="nonzero" points="97.97 147.19 98.08 147.08 107.25 156.3 106.86 156.39 106.86 156.39 106.78 172.2 97.97 163.24 97.86 162.92 97.86 147.3"></polygon>
                        <rect id="Rectangle" stroke="none" fill="#FFFFFF" fill-rule="nonzero" opacity="0.16" transform="translate(103.329455, 152.600647) rotate(-44.990000) translate(-103.329455, -152.600647) " x="103.179455" y="147.570647" width="1" height="10.06"></rect>
                        <polygon id="Path" stroke="none" fill="#FFFFFF" fill-rule="nonzero" opacity="0.18" points="106.99 156.04 106.78 156.25 107.1 156.36"></polygon>
                        <path d="M298,11.76 C298,11.76 293.9,18 287.66,19.52 C281.42,21.04 275,20.23 270.88,26 C270.88,26 277.29,31.94 289.18,30.42 C301.07,28.9 297.54,27.42 297.54,27.42 L298,11.76 Z" id="Path" stroke="none" fill="#EE584B" fill-rule="nonzero"></path>
                        <path d="M290.72,51.09 C290.72,49.32 293.72,47.88 297.53,47.88 C301.34,47.88 304.35,49.32 304.35,51.09 L290.72,51.09 Z" id="Path" stroke="none" fill="#A0B09C" fill-rule="nonzero"></path>
                        <rect id="Rectangle" stroke="none" fill="#A0B09C" fill-rule="nonzero" x="296.98" y="11.17" width="1.1" height="38.57"></rect>
                    </g>
                </g>
            </g>
        </g>
    </g>
</svg>