<?xml version="1.0" encoding="UTF-8"?>
<svg width="344px" height="184px" viewBox="0 0 344 184" version="1.1" xmlns="http://www.w3.org/2000/svg" xmlns:xlink="http://www.w3.org/1999/xlink">
    <title>146AD7AE-0472-4818-AA6E-9BD6217080DF</title>
    <defs>
        <rect id="path-1" x="0" y="0" width="344" height="184"></rect>
        <linearGradient x1="0%" y1="50.0380518%" x2="100.574516%" y2="50.0380518%" id="linearGradient-3">
            <stop stop-color="#DC8C54" offset="31%"></stop>
            <stop stop-color="#CA6138" offset="100%"></stop>
        </linearGradient>
        <linearGradient x1="15.0780326%" y1="55.7896805%" x2="81.3899073%" y2="46.6120983%" id="linearGradient-4">
            <stop stop-color="#CA6138" offset="0%"></stop>
            <stop stop-color="#DC8C54" offset="100%"></stop>
        </linearGradient>
        <linearGradient x1="70.9040402%" y1="51.4761937%" x2="26.9464958%" y2="45.5464999%" id="linearGradient-5">
            <stop stop-color="#822A20" offset="0%"></stop>
            <stop stop-color="#DC8C54" offset="100%"></stop>
        </linearGradient>
    </defs>
    <g id="Patient---Mobile" stroke="none" stroke-width="1" fill="none" fill-rule="evenodd">
        <g id="assess_inter_encourage" transform="translate(-16.000000, -88.000000)">
            <g id="ill_assess_get_know_you_woman" transform="translate(16.000000, 88.000000)">
                <mask id="mask-2" fill="white">
                    <use xlink:href="#path-1"></use>
                </mask>
                <use id="Mask" fill="#FFFFFF" xlink:href="#path-1"></use>
                <g id="10-female" mask="url(#mask-2)">
                    <g transform="translate(15.000000, 10.000000)">
                        <path d="M3.37997996,120.08 C3.37109057,128.135826 6.33343322,135.911975 11.7,141.92 L111.6,141.92 C118.867739,133.381637 121.534202,121.84461 118.750211,110.983069 C115.96622,100.121529 108.078865,91.2896179 97.6,87.3 C97.66,86.47 97.69,85.62 97.69,84.77 C97.3682025,65.7941752 81.8935531,50.5797245 62.915,50.5797245 C43.9364469,50.5797245 28.4617975,65.7941752 28.14,84.77 C28.14,85.91 28.2,87.05 28.31,88.16 C13.6573615,91.8148679 3.37643303,104.978415 3.37997996,120.08 Z" id="Path" stroke="none" fill="#ADD8AD" fill-rule="nonzero" opacity="0.69"></path>
                        <path d="M256.079997,130.13 C256.077663,134.163514 257.558234,138.057132 260.24,141.07 L310.3,141.07 C313.934881,136.792558 315.268493,131.017435 313.877164,125.579322 C312.485834,120.14121 308.542531,115.716174 303.3,113.71 C303.3,113.29 303.3,112.86 303.3,112.44 C303.451529,106.115129 300.163882,100.204767 294.710244,96.9977788 C289.256605,93.7907903 282.493395,93.7907903 277.039756,96.9977788 C271.586118,100.204767 268.298471,106.115129 268.45,112.44 C268.449535,113.004543 268.479579,113.568699 268.54,114.13 C261.212556,115.980438 256.078975,122.572517 256.079997,130.13 Z" id="Path" stroke="none" fill="#F2F0D4" fill-rule="nonzero"></path>
                        <path d="M140.349933,120.38 C140.333985,128.160296 143.181596,135.674429 148.35,141.49 L245,141.49 C252.021833,133.238185 254.598707,122.090152 251.910511,111.593858 C249.222314,101.097564 241.60394,92.5606264 231.48,88.7 C231.53,87.89 231.56,87.07 231.56,86.25 C231.769528,74.1023276 225.408766,62.7866672 214.922105,56.6515397 C204.435444,50.5164121 191.454556,50.5164121 180.967895,56.6515397 C170.481234,62.7866672 164.120472,74.1023276 164.33,86.25 C164.327695,87.3420116 164.381097,88.4334298 164.49,89.52 C150.311429,93.0426582 140.355265,105.770381 140.349933,120.38 Z" id="Path" stroke="none" fill="#D7E4D4" fill-rule="nonzero"></path>
                        <path d="M138.76,35.33 C141.62,39.06 142.67,44.9 142.07,49.57 C141.58,53.16 139,56.4 137.89,59.07 C132.89,70.56 148.07,72.49 138.81,82.8 C131.66,90.35 142.19,92.86 142.25,101.8 C142.16,118.8 119.99,118.8 119.9,101.8 C119.96,92.89 130.48,90.36 123.34,82.8 C114.07,72.48 129.23,70.57 124.26,59.07 C123.15,56.41 120.56,53.16 120.08,49.57 C118.05,33.79 131.62,26.15 138.76,35.33 Z" id="Path" stroke="none" fill="#C1DEA4" fill-rule="nonzero"></path>
                        <path d="M131,43.46 C130.61,48.27 132.42,57.99 132.59,63.36 C132.8,67.21 131.85,70.89 132.3,80.18 C133,94.18 133.9,78.66 133.66,111.03 C133.53,118.27 134.32,134.23 134.66,141.46 C133.01,142.46 127.45,143.35 125.46,141.55 C127.02,100.2 129.19,103.55 128.85,89.55 C128,71.7 130.39,69.45 130.52,61.86 C130.62,56.05 129.8,43.29 131,43.46 Z" id="Path" stroke="none" fill="#FDF3E2" fill-rule="nonzero"></path>
                        <path d="M58.91,78.3 C58.74,78.57 58.1,78.79 57.91,78.89 C57.72,78.99 57.69,80.17 57.56,80.29 C57.43,80.41 57.02,80.13 57.02,80.13 C56.9282512,80.2693267 56.828064,80.4029096 56.72,80.53 C56.62,80.5833333 56.5,80.5833333 56.4,80.53 C56.4337842,80.5923865 56.4337842,80.6676135 56.4,80.73 C56.1897899,80.8570507 55.9647723,80.9578049 55.73,81.03 L52.81,77.15 L55.68,75.75 C56.318518,75.9070272 56.9221644,76.1817202 57.46,76.56 C58.0146785,77.0766244 58.5018688,77.6612529 58.91,78.3 L58.91,78.3 Z" id="Path" stroke="none" fill="#D49669" fill-rule="nonzero"></path>
                        <path d="M60.2,75.14 C59.32,75.14 58.13,76.42 57.38,77.04 C57.1384197,77.2001133 56.8392572,77.2475415 56.56,77.17 C56.15,77 55.88,76.17 55.3,76.26 C54.72,76.35 53.82,77.26 53.09,77.26 C52.6238379,77.241501 52.2053467,76.9689058 52,76.55 C51.44,74.97 52.78,73.93 53.31,73.19 C53.84,72.45 55.82,71.76 57.84,72.67 C58.9992081,73.0325042 59.8906447,73.9654908 60.2,75.14 L60.2,75.14 Z" id="Path" stroke="none" fill="#886C64" fill-rule="nonzero"></path>
                        <path d="M54.37,77.8 C54.1551813,77.5556634 54.0487789,77.2345744 54.075173,76.9103048 C54.101567,76.5860352 54.2584951,76.28638 54.51,76.08 C54.7545498,75.8294954 55.1021654,75.7077486 55.4495738,75.7509293 C55.7969822,75.79411 56.1042162,75.9972505 56.28,76.3 L54.37,77.8 Z" id="Path" stroke="none" fill="#CC7566" fill-rule="nonzero"></path>
                        <circle id="Oval" stroke="none" fill="#383832" fill-rule="nonzero" cx="57.48" cy="78.23" r="1"></circle>
                        <path d="M56.25,80.24 C56.2126605,80.3944418 56.2126605,80.5555582 56.25,80.71 C56.2608145,80.7585574 56.2893373,80.8013415 56.33,80.83 C56.3679221,80.8140256 56.4020105,80.7901638 56.43,80.76 C56.4637842,80.6976135 56.4637842,80.6223865 56.43,80.56 C56.53,80.6133333 56.65,80.6133333 56.75,80.56 C56.66,80.4 56.43,80.34 56.25,80.24 Z" id="Path" stroke="none" fill="#BC4A36" fill-rule="nonzero"></path>
                        <path d="M53.66,73.36 C53.1152628,72.1460084 51.9794769,71.3017409 50.66,71.13 C49.6232744,71.2207725 48.6177025,71.5309658 47.71,72.04 C47.3463926,72.2010516 46.9569457,72.2958735 46.56,72.32 C46.56,72.32 46.56,72.71 47.09,72.84 C46.608831,72.9510413 46.1060329,72.9233007 45.64,72.76 C45.64,72.76 45.88,73.68 47.43,73.91 C48.259364,74.0697886 49.1177599,73.972085 49.89,73.63 C49.218573,73.950355 48.5046185,74.1726238 47.77,74.29 C48.2424923,74.4926052 48.7641501,74.5517264 49.27,74.46 C50.27,74.35 50.87,73.51 51.69,73.46 C52.2817871,73.4402976 52.8720123,73.5318842 53.43,73.73 L53.66,73.36 Z" id="Path" stroke="none" fill="#886C64" fill-rule="nonzero"></path>
                        <path d="M60.31,76.22 C60.3035512,77.1184836 60.0091349,77.9912177 59.47,78.71 C59.0654527,78.5230289 58.6774086,78.3022452 58.31,78.05 C57.9576267,77.7587455 57.644962,77.4225469 57.38,77.05 C58.13,76.43 59.32,75.11 60.2,75.15 C60.2774066,75.5012958 60.3143139,75.860303 60.31,76.22 L60.31,76.22 Z" id="Path" stroke="none" fill="#886C64" fill-rule="nonzero"></path>
                        <path d="M54.72,77.38 L54.72,77.38 C54.5637289,77.0187117 54.6518424,76.59817 54.94,76.33 C55.2034344,76.0897058 55.6065656,76.0897058 55.87,76.33 C55.87,76.33 55.87,76.33 55.87,76.33 C55.6312488,76.1052193 55.2587512,76.1052193 55.02,76.33 C54.7350963,76.5793611 54.6494715,76.9870981 54.81,77.33 C54.81,77.33 54.81,77.33 54.81,77.33 L54.72,77.38 Z" id="Path" stroke="none" fill="#DB9179" fill-rule="nonzero"></path>
                        <path d="M60.77,142.49 C60.77,142.49 56.89,142.59 52.1,142.59 C47.31,142.59 43.44,142.54 43.44,142.49 C43.44,142.44 47.32,142.38 52.1,142.38 C56.88,142.38 60.77,142.43 60.77,142.49 Z" id="Path" stroke="none" fill="#D8D6D4" fill-rule="nonzero"></path>
                        <path d="M30.53,107.88 C30.2301487,108.283048 29.8730478,108.640149 29.47,108.94 C29.12,109.09 26.17,110.34 24.05,111.51 C21.93,112.68 15.65,117.51 14.69,118.11 C13.5042838,118.693883 12.2695302,119.172392 11,119.54 C11.0193896,120.765866 10.8816007,121.989163 10.59,123.18 C10.19,124.18 9.68,127.07 10.59,127.62 C10.8073674,127.330203 10.9327751,126.981848 10.95,126.62 C11.1499036,125.608743 11.6398301,124.677535 12.36,123.94 C13.5578083,122.734188 14.9015435,121.682715 16.36,120.81 C17.92,120.03 26.48,115.69 29.51,114.22 C31.4874224,113.363853 33.2727322,112.119237 34.76,110.56 L30.53,107.88 Z" id="Path" stroke="none" fill="#C25C4A" fill-rule="nonzero"></path>
                        <path d="M46.08,113.43 C45.5769167,116.929925 45.746621,120.493716 46.58,123.93 C47.74,128.28 49.36,132.37 49.77,133.93 C49.9210934,135.236929 49.7280501,136.560655 49.21,137.77 C50.2569815,138.328547 51.1447852,139.144087 51.79,140.14 C52.34,141.4 53,142.31 53.79,142.41 C54.2749,142.468644 54.7651,142.468644 55.25,142.41 C55.2898068,142.26413 55.2701091,142.108421 55.1950063,141.977139 C55.1199882,141.845858 54.9958821,141.749762 54.85,141.71 C54.1583424,141.544296 53.5910046,141.051608 53.33,140.39 C52.9236782,138.508508 52.6529821,136.600267 52.52,134.68 C52.17,131.35 50.6,120.99 50.52,119.38 C50.44,117.77 51.16,112.92 50.52,113.31 C50.42,113.43 46.08,113.43 46.08,113.43 Z" id="Path" stroke="none" fill="#C25C4A" fill-rule="nonzero"></path>
                        <path d="M50.42,77.3 C48.3783342,77.398762 46.4104594,78.0941241 44.76,79.3 C42.34,81.3 37.99,86.42 34.31,93.04 C30.63,99.66 27.23,106 27.23,106 C27.23,106 33.45,111.86 39.71,113.07 C44.0828482,113.802303 48.5260022,114.023789 52.95,113.73 C52.95,113.73 53.66,101.4 53.76,98.02 C53.86,94.64 54.46,88.77 54.46,86.7 C54.4698908,85.5298242 54.3694464,84.3613216 54.16,83.21 L56.33,81.9 C56.33,81.9 55.27,79.98 54.16,78.42 C53.4260422,77.413357 52.5580185,76.511689 51.58,75.74 L50.42,77.3 Z" id="Path" stroke="none" fill="#FDF1DD" fill-rule="nonzero"></path>
                        <path d="M54.28,99.69 L53.94,99.69 C53.94,99.56 54.24,86.26 53.65,84.6 C53.3416799,83.7446732 52.6549733,83.0801184 51.79,82.8 C50.5469201,82.4768877 49.2244072,82.7832325 48.25,83.62 C46.06,85.17 44.06,91.02 42.73,94.9 C42.4,95.9 42.12,96.71 41.87,97.36 L41.55,97.24 C41.79,96.59 42.08,95.76 42.41,94.79 C43.75,90.87 45.77,84.96 48.05,83.34 C49.1098233,82.4375566 50.5465015,82.1158006 51.89,82.48 C52.858317,82.7840852 53.6281899,83.5243476 53.97,84.48 C54.58,86.2 54.29,99.14 54.28,99.69 Z" id="Path" stroke="none" fill="#C58971" fill-rule="nonzero"></path>
                        <path d="M41.48,97.16 L39.16,103.39 C39.0953498,103.557284 39.1531183,103.747095 39.3,103.85 L40.43,104.68 C40.5241334,104.749382 40.6341491,104.794076 40.75,104.81 L53.64,106.49 C53.7606107,106.507079 53.8828058,106.472201 53.9762294,106.39403 C54.0696529,106.315859 54.1255375,106.201732 54.13,106.08 L54.46,99.53 L41.48,97.16 Z" id="Path" stroke="none" fill="#7B5A4B" fill-rule="nonzero"></path>
                        <path d="M53.11,97.46 C53.45,97.88 55.01,98.9 55.11,99.36 C55.2609614,99.9717818 55.2881605,100.607561 55.19,101.23 C55.03,101.23 54.88,99.96 54.88,99.96 C54.88,99.96 54.88,101.27 54.73,101.29 C54.58,101.31 54.62,99.98 54.62,99.98 C54.62,99.98 54.49,101.38 54.33,101.4 C54.17,101.42 54.33,100.04 54.33,100.04 C54.2062139,100.261988 54.058682,100.469874 53.89,100.66 C53.76,100.76 53.34,100.89 53.28,100.81 C53.22,100.73 53.74,100.4 53.74,100.4 L53.89,99.96 L52.37,99.09 L53.11,97.46 Z" id="Path" stroke="none" fill="#D49669" fill-rule="nonzero"></path>
                        <path d="M53.11,97.46 L52.35,99.09 L52.88,99.39 C53.0691545,98.8038132 53.1801126,98.1952245 53.21,97.58 L53.21,97.58 C53.1733951,97.5428437 53.1399463,97.5027051 53.11,97.46 L53.11,97.46 Z" id="Path" stroke="none" fill="#B1ADA9" fill-rule="nonzero" opacity="0.5" style="mix-blend-mode: multiply;"></path>
                        <path d="M43.49,97.65 C43.91,100 47.16,105.12 47.66,105.04 C48.16,104.96 48.87,104.13 48.87,104.13 L43.49,97.65 Z" id="Path" stroke="none" fill="#B1ADA9" fill-rule="nonzero" opacity="0.5" style="mix-blend-mode: multiply;"></path>
                        <path d="M51.86,83.22 C53.36,83.76 53.86,85.37 53.42,87.46 C52.98,89.55 50.27,94.28 50.27,94.28 C50.27,94.28 50.61,94.39 50.38,94.89 L53.11,97.46 C52.6248371,98.930351 52.005566,100.353001 51.26,101.71 C50.12,103.71 49.26,104.58 48.91,104.58 C48.56,104.58 46.44,102.39 45,100.42 C43.56,98.45 42.84,96.97 43.22,95.42 C44.0612549,92.4779236 45.2602071,89.6501428 46.79,87 C48.57,84.05 50.2,82.61 51.86,83.22 Z" id="Path" stroke="none" fill="#FDF3E2" fill-rule="nonzero"></path>
                        <path d="M49.56,136.61 C49.3403243,137.016651 49.1563026,137.441574 49.01,137.88 C49.01,138.18 49.66,142.4 49.66,142.4 L50.07,142.4 L50.07,138.69 C50.6534815,138.789539 51.1547502,139.160849 51.42,139.69 C51.8109152,140.646157 52.2966761,141.560727 52.87,142.42 C53.7077436,142.495721 54.5489891,142.525765 55.39,142.51 C55.3984791,142.16444 55.1968512,141.848161 54.88,141.71 C54.4602844,141.590663 54.0758997,141.371015 53.76,141.07 C53.5229768,141.103608 53.2828746,141.034487 53.1,140.88 C52.87,140.63 52.01,139.22 51.38,138.19 C50.92828,137.507646 50.2990434,136.961386 49.56,136.61 L49.56,136.61 Z" id="Path" stroke="none" fill="#C48578" fill-rule="nonzero"></path>
                        <path d="M12.26,119.12 C11.7994536,119.139116 11.341251,119.195974 10.89,119.29 C10.61,119.4 7.33,122.15 7.33,122.15 L7.54,122.5 L10.71,120.57 C10.8713523,121.187578 10.8112005,121.84217 10.54,122.42 C10.06,123.31 9.02,124.58 9.15,125.05 C9.22,125.31 10.74,128.05 10.74,128.05 C10.74,128.05 11.09,128 11.17,127.42 C11.25,126.84 11.11,126.15 11.17,125.79 C10.8490343,125.202469 10.6676815,124.548914 10.64,123.88 C10.9684014,123.03362 11.3629547,122.214421 11.82,121.43 C12.17352,120.714178 12.3256189,119.915658 12.26,119.12 L12.26,119.12 Z" id="Path" stroke="none" fill="#C48578" fill-rule="nonzero"></path>
                        <path d="M50.92,77.68 C52.216609,79.3696146 53.3044807,81.2095952 54.16,83.16 L56.09,82 L55.76,81.68 L55.76,82.1 C55.6534854,81.9520574 55.5329252,81.8147528 55.4,81.69 C55.4211914,81.8492983 55.4211914,82.0107017 55.4,82.17 L55.27,81.94 C55.09,81.63 54.62,80.94 54.62,80.94 C54.7801671,81.4151994 54.8973049,81.9038313 54.97,82.4 C54.8095308,82.1153544 54.6659493,81.8215133 54.54,81.52 C54.1289403,80.7570823 53.6679368,80.0221493 53.16,79.32 L54.41,82.47 C54.1075519,81.8468681 53.7737925,81.2394261 53.41,80.65 C52.6476068,79.6052307 51.8157249,78.6129861 50.92,77.68 L50.92,77.68 Z" id="Path" stroke="none" fill="#B1ADA9" fill-rule="nonzero" opacity="0.2" style="mix-blend-mode: multiply;"></path>
                        <path d="M41.77,97.21 L41.48,97.21 L39.16,103.44 C39.0990149,103.607401 39.156097,103.794956 39.3,103.9 L40.57,104.84 C40.57,104.84 41.08,102.46 41.35,100.68 C41.58,99.09 41.74,97.59 41.77,97.21 Z" id="Path" stroke="none" fill="#B1ADA9" fill-rule="nonzero" opacity="0.5" style="mix-blend-mode: multiply;"></path>
                        <path d="M14.11,119 L14.11,118.89 C16.28,118.14 18.7,116.18 20.82,114.46 C21.7796849,113.651479 22.7810564,112.893774 23.82,112.19 C25.1107147,111.429175 26.482604,110.815346 27.91,110.36 L28,110.36 L28,110.47 L27.9,110.47 C26.4819107,110.920434 25.1197854,111.531042 23.84,112.29 C22.7968777,112.984319 21.795174,113.738936 20.84,114.55 C18.72,116.24 16.3,118.2 14.11,119 Z" id="Path" stroke="none" fill="#D7866B" fill-rule="nonzero"></path>
                        <path d="M51.88,135.2 C51.81,134.11 51.59,132.47 51.1,128.88 L51.05,128.46 C50.81,126.71 50.54,125.09 50.29,123.66 C50.0326706,122.392434 49.8556516,121.109881 49.76,119.82 L49.87,119.82 C49.9711512,121.102674 50.1481273,122.378238 50.4,123.64 C50.65,125.07 50.92,126.64 51.16,128.45 L51.22,128.87 C51.7,132.46 51.92,134.1 51.99,135.2 L51.88,135.2 Z" id="Path" stroke="none" fill="#D7866B" fill-rule="nonzero"></path>
                        <path d="M256.23,137.66 L256.23,137.54 C257.77,137.03 262.57,134.34 264.77,131.03 C266.138935,128.983336 267.206522,126.750496 267.94,124.4 C267.99,124.02 268.25,122.19 268.54,122.01 C268.574508,121.992205 268.615492,121.992205 268.65,122.01 C268.686087,122.025202 268.714798,122.053913 268.73,122.09 C268.634908,122.907553 268.408674,123.704438 268.06,124.45 C267.331066,126.816561 266.259714,129.063705 264.88,131.12 C262.62,134.43 257.78,137.14 256.23,137.66 Z M268.57,122.11 C268.305884,122.661983 268.149747,123.259375 268.11,123.87 C268.38235,123.321065 268.538925,122.721995 268.57,122.11 L268.57,122.11 Z" id="Shape" stroke="none" fill="#BF7B6C" fill-rule="nonzero"></path>
                        <path d="M271.29,137.83 C271.113472,137.839906 270.936528,137.839906 270.76,137.83 C270.254229,137.808635 269.756371,137.696871 269.29,137.5 C269.42,135.93 269.48,133.93 269.53,133.62 L272,134 C271.980163,134.749085 271.896527,135.495118 271.75,136.23 C271.62,136.74 271.42,137.36 271.29,137.83 Z" id="Path" stroke="none" fill="#FFFFFF" fill-rule="nonzero"></path>
                        <path d="M279.11,136.18 C278.973257,136.29218 278.829644,136.395715 278.68,136.49 C278.249416,136.75027 277.774995,136.929872 277.28,137.02 C276.51,135.65 275.51,133.95 275.38,133.67 L277.3,132.14 C277.783418,132.937766 278.214331,133.766188 278.59,134.62 C278.78,135.09 279,135.72 279.11,136.18 Z" id="Path" stroke="none" fill="#FFFFFF" fill-rule="nonzero"></path>
                        <path d="M278.56,115.67 C279.679011,117.377608 279.996763,119.48865 279.43,121.45 C278.55,124.01 276.43,128.99 276.43,129.53 C276.43,130.07 277.15,131.01 277.54,132.04 C276.829662,133.01951 275.823636,133.74511 274.67,134.11 C273.052052,134.422013 271.383225,134.346625 269.8,133.89 C268.58,133.63 267.92,133.43 267.92,133.43 C267.92,133.43 269.01,129.33 269.6,127.43 C270.451743,124.980199 271.498426,122.60259 272.73,120.32 C273.464099,119.059126 274.131679,117.760683 274.73,116.43 L275.03,114.43 L278.56,115.67 Z" id="Path" stroke="none" fill="#B9B6B2" fill-rule="nonzero"></path>
                        <path d="M274.22,116 C274.037154,116.375168 273.82657,116.73617 273.59,117.08 C273.102949,116.841196 272.673167,116.500099 272.33,116.08 C272.568898,115.759492 272.840346,115.464585 273.14,115.2 L274.22,116 Z" id="Path" stroke="none" fill="#C0804F" fill-rule="nonzero"></path>
                        <path d="M275.33,109.25 C274.78335,109.802079 274.399308,110.494047 274.22,111.25 C273.903173,112.485298 273.400791,113.665389 272.73,114.75 C272.965648,115.126981 273.259252,115.464456 273.6,115.75 C273.954851,116.019731 274.33301,116.257336 274.73,116.46 L275.52,113.01 L275.33,109.25 Z" id="Path" stroke="none" fill="#B9B6B2" fill-rule="nonzero"></path>
                        <path d="M274.75,110.76 C274.55,110.76 274.93,111.16 274.88,111.42 C274.542195,112.046323 274.302729,112.720875 274.17,113.42 C274.234671,113.939833 274.478696,114.420811 274.86,114.78 C274.86,114.78 274.27,114.41 274.18,114.47 C274.09,114.53 274.89,115.17 274.89,115.17 C274.89,115.17 274.22,114.88 274.19,115 C274.16,115.12 274.94,115.58 274.94,115.58 L275.16,114.58 L275.16,111.3 C275.16,111.3 274.88,110.76 274.75,110.76 Z" id="Path" stroke="none" fill="#B1ADA9" fill-rule="nonzero" style="mix-blend-mode: multiply;"></path>
                        <path d="M277.11,108.27 C277.807739,108.444686 278.46603,108.750079 279.05,109.17 C279.940609,110.104069 280.64336,111.200632 281.12,112.4 C281.49,113.4 282.12,116.2 280.83,116.57 C279.54,116.94 279.12,114.05 279.12,114.05 L278.56,115.67 C278.56,115.67 277.44,115.46 276.37,115.13 C275.912625,115.018922 275.472084,114.847414 275.06,114.62 C274.452218,114.307639 274.18664,113.580563 274.45,112.95 C274.775874,112.286895 275.014524,111.584389 275.16,110.86 C275.22,110.38 275.33,109.25 275.33,109.25 L277.11,108.27 Z" id="Path" stroke="none" fill="#B9B6B2" fill-rule="nonzero"></path>
                        <path d="M273,102.32 C272.943748,102.560082 272.943748,102.809918 273,103.05 C273.075321,103.286508 273.19401,103.506929 273.35,103.7 L273.48,103.7 C273.48,103.7 273.41,103.36 273.36,103.01 C273.31,102.66 273.11,102.3 273,102.32 Z" id="Path" stroke="none" fill="#FDC688" fill-rule="nonzero"></path>
                        <path d="M273.34,103.71 C272.986136,103.366589 272.581367,103.079878 272.14,102.86 C272,102.86 272.94,103.86 273.09,103.96 C273.24,104.06 273.34,103.71 273.34,103.71 Z" id="Path" stroke="none" fill="#FDC688" fill-rule="nonzero"></path>
                        <path d="M273.74,103.48 C273.863194,103.401944 273.998304,103.344522 274.14,103.31 C273.91371,103.232121 273.748519,103.036196 273.71,102.8 C273.668309,102.602097 273.716874,102.395907 273.842508,102.237415 C273.968142,102.078923 274.157806,101.984579 274.36,101.98 C274.746363,101.987353 275.079144,102.254399 275.17,102.63 C275.216031,102.874519 275.216031,103.125481 275.17,103.37 C275.447757,103.493119 275.688913,103.686043 275.87,103.93 C276.014448,104.288002 276.066046,104.676711 276.02,105.06 L273.74,103.48 Z" id="Path" stroke="none" fill="#896A5D" fill-rule="nonzero"></path>
                        <path d="M272.73,105.08 C272.700727,105.11842 272.680245,105.162798 272.67,105.21 L272.75,105.31 C272.772185,105.233516 272.765054,105.151507 272.73,105.08 Z" id="Path" stroke="none" fill="#896A5D" fill-rule="nonzero"></path>
                        <path d="M272.58,105.18 C272.76,105.13 272.81,105.46 272.82,105.54 C272.83,105.62 272.91,106.2 272.69,106.23 C272.47,106.26 272.46,105.77 272.44,105.65 C272.42,105.53 272.46,105.21 272.58,105.18 Z" id="Path" stroke="none" fill="#EBBD6D" fill-rule="nonzero"></path>
                        <path d="M272.56,105.28 C272.65,105.28 272.67,105.5 272.68,105.57 C272.69,105.64 272.68,106.11 272.62,106.13 C272.56,106.15 272.5,105.76 272.5,105.66 C272.5,105.56 272.5,105.31 272.56,105.28 Z" id="Path" stroke="none" fill="#866759" fill-rule="nonzero"></path>
                        <path d="M273.24,103.94 C272.969075,104.210129 272.793548,104.561182 272.74,104.94 C272.713336,105.134716 272.74464,105.332972 272.83,105.51 L272.59,106.13 C272.577245,106.163107 272.578575,106.199989 272.593681,106.232091 C272.608788,106.264193 272.63636,106.288726 272.67,106.3 L272.85,106.35 C272.825707,106.720363 272.912773,107.089524 273.1,107.41 C273.25,107.64 273.59,107.71 273.93,107.89 C274.475487,108.246285 274.950178,108.700632 275.33,109.23 L277.11,108.23 C276.648425,107.847363 276.210926,107.436581 275.8,107 C275.568847,106.637939 275.473207,106.205787 275.53,105.78 C275.53,105.44 275.66,104.51 274.85,104.03 C274.04,103.55 273.51,103.64 273.24,103.94 Z" id="Path" stroke="none" fill="#C0804F" fill-rule="nonzero"></path>
                        <path d="M273.08,105.16 C273.307939,104.953324 273.643059,104.916986 273.91,105.07 C274.015004,105.127073 274.106959,105.205406 274.18,105.3 C274.18,105.3 273.26,105.3 273.18,105.3 C273.1,105.3 273.08,105.16 273.08,105.16 Z" id="Path" stroke="none" fill="#896A5D" fill-rule="nonzero"></path>
                        <path d="M272.76,106.52 C272.76,106.46 272.99,106.42 273.14,106.46 C273.29,106.5 273.41,106.56 273.4,106.66 C273.39,106.76 273.2,106.91 273.01,106.9 C272.82,106.89 272.79,106.85 272.79,106.85 C272.780294,106.800471 272.780294,106.749529 272.79,106.7 C272.770565,106.641959 272.760439,106.581207 272.76,106.52 Z" id="Path" stroke="none" fill="#C25C4A" fill-rule="nonzero"></path>
                        <path d="M273.07,104.15 C273.049116,104.074756 273.049116,103.995244 273.07,103.92 C273.12089,103.870168 273.18244,103.832554 273.25,103.81 C273.798037,103.937567 274.336112,104.104671 274.86,104.31 C275.336455,104.509953 275.701746,104.90812 275.86,105.4 L275.12,105.5 C275.12,105.5 274.79,105.5 274.62,104.98 C274.476183,104.535999 274.084187,104.218482 273.62,104.17 C273.438794,104.13502 273.253268,104.128274 273.07,104.15 L273.07,104.15 Z" id="Path" stroke="none" fill="#896A5D" fill-rule="nonzero"></path>
                        <path d="M274.08,105.42 L274.08,105.3 L274.26,105.24 C274.7,105.09 275.14,104.96 275.26,105.16 L275.16,105.22 C275.07,105.09 274.53,105.22 274.3,105.35 L274.08,105.42 Z" id="Path" stroke="none" fill="#EBBD6D" fill-rule="nonzero"></path>
                        <path d="M275,105.26 C275.07657,105.069929 275.265358,104.949426 275.47,104.96 C275.63361,104.981425 275.780772,105.070385 275.87578,105.205296 C275.970787,105.340207 276.004958,105.508738 275.97,105.67 C275.96619,105.843629 275.88343,106.00605 275.745197,106.111184 C275.606964,106.216319 275.428341,106.252698 275.26,106.21 L275,105.26 Z" id="Path" stroke="none" fill="#C25C4A" fill-rule="nonzero"></path>
                        <path d="M273.2,103.84 C273.228016,103.713538 273.331704,103.617826 273.46,103.6 C273.517349,103.487567 273.633806,103.417693 273.76,103.42 C274.357073,103.500048 274.939634,103.665051 275.49,103.91 C276.17,104.2 276.24,104.33 276.24,104.48 C276.215504,104.689368 276.175393,104.896612 276.12,105.1 C276.12,105.1 276.19,105.1 276.19,105.15 C276.135456,105.319875 276.072036,105.486772 276,105.65 C276,105.65 276.08,105.65 276.07,105.74 C276.06,105.83 275.96,106.11 275.7,106.14 C275.447859,105.563078 275.110792,105.027142 274.7,104.55 C274.298811,104.144641 273.767826,103.893308 273.2,103.84 L273.2,103.84 Z" id="Path" stroke="none" fill="#FDC688" fill-rule="nonzero"></path>
                        <path d="M276,105.65 L275.31,104.84 C275.31,104.84 275.8,105.27 275.91,105.38 C275.952952,105.430239 275.999761,105.477048 276.05,105.52 L276,105.65 Z" id="Path" stroke="none" fill="#B1ADA9" fill-rule="nonzero" opacity="0.31" style="mix-blend-mode: multiply;"></path>
                        <path d="M276.12,105.1 C275.94,104.94 275.18,104.39 274.94,104.23 C274.94,104.23 275.77,104.66 275.94,104.78 C276.016631,104.819998 276.087311,104.870483 276.15,104.93 L276.12,105.1 Z" id="Path" stroke="none" fill="#B1ADA9" fill-rule="nonzero" opacity="0.31" style="mix-blend-mode: multiply;"></path>
                        <path d="M273.46,103.6 C273.823115,103.691515 274.175188,103.822285 274.51,103.99 C274.51,103.99 274.21,103.79 273.99,103.67 C273.846267,103.597959 273.695463,103.540989 273.54,103.5 L273.46,103.6 Z" id="Path" stroke="none" fill="#B1ADA9" fill-rule="nonzero" opacity="0.31" style="mix-blend-mode: multiply;"></path>
                        <path d="M272.74,106.66 C272.849778,106.650116 272.960222,106.650116 273.07,106.66 C273.179501,106.645177 273.290499,106.645177 273.4,106.66 C273.290534,106.675326 273.179466,106.675326 273.07,106.66 L272.91,106.66 C272.853732,106.669511 272.796268,106.669511 272.74,106.66 L272.74,106.66 Z" id="Path" stroke="none" fill="#B1ADA9" fill-rule="nonzero" opacity="0.52" style="mix-blend-mode: multiply;"></path>
                        <path d="M273.59,105.11 C273.738169,105.090304 273.887875,105.132905 274.003476,105.22766 C274.119077,105.322415 274.190231,105.460847 274.2,105.61 C274.2,105.96 274.07,106.21 273.72,106.23 C273.557464,106.242091 273.397725,106.182771 273.282477,106.067523 C273.167229,105.952275 273.107909,105.792536 273.12,105.63 C273.111823,105.498334 273.157082,105.368933 273.24554,105.271065 C273.333997,105.173197 273.45818,105.115131 273.59,105.11 Z" id="Path" stroke="none" fill="#EBBD6D" fill-rule="nonzero"></path>
                        <path d="M273.61,105.21 C273.73107,105.196045 273.852623,105.231793 273.946863,105.30907 C274.041102,105.386346 274.099969,105.498542 274.11,105.62 C274.11,105.9 274,106.11 273.71,106.13 C273.57562,106.139324 273.443905,106.089277 273.349622,105.99307 C273.255339,105.896863 273.207964,105.764165 273.22,105.63 C273.214573,105.522208 273.252936,105.416796 273.326377,105.337707 C273.399817,105.258617 273.502101,105.212562 273.61,105.21 L273.61,105.21 Z" id="Path" stroke="none" fill="#896A5D" fill-rule="nonzero"></path>
                        <path d="M273.14,105.59 C273.021854,105.539412 272.888146,105.539412 272.77,105.59 L272.77,105.48 C272.918778,105.40969 273.091222,105.40969 273.24,105.48 L273.14,105.59 Z" id="Path" stroke="none" fill="#EBBD6D" fill-rule="nonzero"></path>
                        <path d="M275.57,106.29 C275.594345,106.438589 275.528661,106.587538 275.402528,106.669768 C275.276394,106.751999 275.113606,106.751999 274.987472,106.669768 C274.861339,106.587538 274.795655,106.438589 274.82,106.29 C274.850099,106.106295 275.008846,105.971441 275.195,105.971441 C275.381154,105.971441 275.539901,106.106295 275.57,106.29 L275.57,106.29 Z" id="Path" stroke="none" fill="#FDC688" fill-rule="nonzero"></path>
                        <path d="M273.59,117.06 C273.51,117.19 273.42,117.32 273.33,117.45 C272.78,118.22 271.89,119.21 271.42,119.78 C270.95,120.35 270.22,121.4 270.05,121.62 C269.824163,121.901013 269.55794,122.147017 269.26,122.35 C269.15,122.4 268.65,122.35 268.69,122.27 C268.73,122.19 269.09,122.12 269.16,122.09 C269.23,122.06 269.41,121.79 269.32,121.64 C269.23,121.49 268.47,121.56 268.47,121.56 C268.47,121.56 268.55,121.98 268.57,122.1 C268.59,122.22 268.63,122.370019 268.57,122.36 C268.51,122.35 268.11,121.59 268.11,121.59 L267.68,121.72 C267.609942,121.860337 267.522597,121.991355 267.42,122.11 C267.380851,122.121672 267.339149,122.121672 267.3,122.11 C267.342643,121.928343 267.417127,121.755676 267.52,121.6 C267.627561,121.499871 267.741104,121.406365 267.86,121.32 L267.43,121.43 C267.38,121.43 267.26,121.62 267.15,121.67 C267.090288,121.700289 267.019712,121.700289 266.96,121.67 C267.060396,121.554088 267.167231,121.443914 267.28,121.34 C267.436267,121.249102 267.600233,121.172138 267.77,121.11 C267.77,121.11 267.21,121.11 267.17,121.05 C267.13,120.99 267.92,120.89 268.17,120.89 C268.406344,120.910845 268.638602,120.964702 268.86,121.05 C268.86,121.05 269.73,119.77 270.32,118.84 C270.73,118.22 271.62,116.98 272.32,116.1 C272.670171,116.506754 273.103157,116.834051 273.59,117.06 L273.59,117.06 Z" id="Path" stroke="none" fill="#C0804F" fill-rule="nonzero"></path>
                        <path d="M280.23,108.76 C280.44,108.47 280.52,108.54 280.71,108.67 C280.9,108.8 280.85,108.81 280.96,108.78 C281.07,108.75 280.79,108.89 280.85,108.92 C280.939525,108.978303 281.020329,109.049007 281.09,109.13 C281.15,109.19 281.28,109.26 281.28,109.31 C281.28,109.36 281.48,109.48 281.42,109.68 C281.267501,109.950137 281.093611,110.207627 280.9,110.45 C281.11731,111.439553 281.274266,112.4414 281.37,113.45 C281.44,114.6 281.51,115.86 280.68,116.34 C280.15,116.65 279.58,115.34 279.63,113.81 C279.63,112.75 279.79,111.39 279.72,110.49 C279.72,110.14 279.64,109.7 279.64,109.35 C279.64,109 279.79,108.96 279.84,108.66 C279.919146,108.503749 280.009377,108.353365 280.11,108.21 C280.11,108.21 280.11,108.21 280.21,108.36 C280.31,108.51 280.23,108.76 280.23,108.76 Z" id="Path" stroke="none" fill="#C0804F" fill-rule="nonzero"></path>
                        <path d="M280.5,108.42 C280.346241,108.445561 280.19967,108.503508 280.07,108.59 C279.958671,108.801864 279.874667,109.026994 279.82,109.26 C279.892959,109.295617 279.98092,109.274674 280.03,109.21 C280.111837,109.082694 280.175769,108.944734 280.22,108.8 L280.48,108.8 C280.401923,108.822554 280.332309,108.867802 280.28,108.93 C280.22,109.02 280,109.52 280,109.52 C280,109.52 280.18,109.52 280.25,109.52 C280.3267,109.393721 280.396794,109.263546 280.46,109.13 L280.66,109.13 C280.579055,109.148907 280.503693,109.186589 280.44,109.24 C280.39408,109.412761 280.373863,109.591345 280.38,109.77 L280.54,109.77 C280.64,109.77 280.66,109.41 280.66,109.41 L280.84,109.35 C280.786157,109.392372 280.73598,109.439204 280.69,109.49 C280.63,109.56 280.69,109.88 280.69,109.88 C280.69,109.88 280.69,109.88 280.84,109.88 C280.99,109.88 280.84,109.61 280.84,109.61 C280.946457,109.619448 281.053543,109.619448 281.16,109.61 C281.241837,109.601546 281.320582,109.574157 281.39,109.53 C281.414157,109.431459 281.414157,109.328541 281.39,109.23 C281.34,109.13 281.24,109.14 281.22,109.07 C281.2,109 281.22,108.97 281.17,108.87 C281.12,108.77 281.01,108.81 280.97,108.75 C280.93,108.69 280.97,108.69 280.88,108.6 C280.79,108.51 280.67,108.39 280.5,108.42 Z" id="Path" stroke="none" fill="#CC9871" fill-rule="nonzero"></path>
                        <path d="M278.43,112 C278.498717,112.544308 278.60904,113.08255 278.76,113.61 C278.76,113.61 278.36,112.87 278.27,112.69 C278.18,112.51 278.05,112.54 278.13,112.83 C278.281039,113.255595 278.454617,113.672852 278.65,114.08 L278.15,113.59 C278.03,113.46 278.01,113.59 278.15,113.8 C278.29,114.01 278.7,114.8 278.7,114.8 C278.7,114.8 278.32,114.48 278.23,114.39 C278.14,114.3 278.08,114.47 278.32,114.78 C278.473044,115.056929 278.473044,115.393071 278.32,115.67 L278.44,115.67 L278.55,115.67 L279.11,114.05 C278.880148,113.229429 278.706413,112.394166 278.59,111.55 C278.57,111.15 278.42,111.71 278.43,112 Z" id="Path" stroke="none" fill="#B1ADA9" fill-rule="nonzero" style="mix-blend-mode: multiply;"></path>
                        <path d="M275.78,114.87 L275.69,114.87 C275.03,114.76 275.03,113.58 275.03,113.2 C275.054073,112.86119 275.114418,112.525939 275.21,112.2 C275.292083,111.912153 275.348964,111.617709 275.38,111.32 C275.375256,110.874858 275.318198,110.431818 275.21,110 C275.153665,109.790901 275.120136,109.576317 275.11,109.36 C275.129442,109.340943 275.160558,109.340943 275.18,109.36 C275.213137,109.36 275.24,109.386863 275.24,109.42 C275.25018,109.622475 275.280327,109.823449 275.33,110.02 C275.44642,110.460662 275.506896,110.914229 275.51,111.37 C275.481093,111.677867 275.424191,111.98246 275.34,112.28 C275.240575,112.605453 275.176866,112.940761 275.15,113.28 C275.15,114.28 275.34,114.76 275.71,114.82 C275.820021,114.838931 275.932879,114.809806 276.02,114.74 C276.2242,114.526727 276.341818,114.245154 276.35,113.95 C276.35,113.82 276.35,113.65 276.35,113.46 C276.360574,113.041825 276.393957,112.624538 276.45,112.21 C276.45,112.1 276.54,111.85 276.63,111.54 C276.877603,110.761324 277.051698,109.96116 277.15,109.15 C277.166942,108.860676 277.122644,108.571034 277.02,108.3 C276.994702,108.281505 276.984778,108.248451 276.995706,108.21908 C277.006634,108.18971 277.035751,108.171181 277.066985,108.173721 C277.09822,108.176261 277.12396,108.19925 277.13,108.23 C277.251764,108.520572 277.30316,108.835799 277.28,109.15 C277.174272,109.970584 276.996929,110.78034 276.75,111.57 C276.66,111.88 276.6,112.13 276.58,112.23 C276.520128,112.637409 276.486725,113.04827 276.48,113.46 C276.48,113.65 276.48,113.83 276.48,113.96 C276.469053,114.290806 276.333289,114.605206 276.1,114.84 C275.999542,114.884945 275.887061,114.89549 275.78,114.87 Z" id="Path" stroke="none" fill="#CD834D" fill-rule="nonzero"></path>
                        <path d="M275.36,115.54 L275.36,115.54 C275.17,115.54 274.99,115.37 274.83,115.09 C274.462217,114.453579 274.375292,113.692991 274.59,112.99 C274.992418,112.280442 275.196227,111.475567 275.18,110.66 C275.171263,110.178687 275.198002,109.697384 275.26,109.22 C275.26,109.22 275.26,109.22 275.26,109.22 C275.203069,109.694428 275.179677,110.17228 275.19,110.65 C275.2053,111.474366 274.994321,112.287153 274.58,113 C274.395807,113.672432 274.481944,114.390238 274.82,115 C274.97,115.26 275.14,115.41 275.31,115.43 C275.372157,115.431839 275.432767,115.410446 275.48,115.37 C275.69,115.19 275.72,114.61 275.76,114.04 C275.768207,113.68429 275.804992,113.329815 275.87,112.98 C275.995336,112.478142 276.159154,111.986688 276.36,111.51 C276.547886,111.072523 276.701677,110.621179 276.82,110.16 C277.040753,109.487448 277.065037,108.765872 276.89,108.08 C277.1,108.22 277.04,109.41 276.89,110.23 C276.773127,110.694859 276.619304,111.149639 276.43,111.59 C276.229154,112.066688 276.065336,112.558142 275.94,113.06 C275.87711,113.389924 275.840329,113.724294 275.83,114.06 C275.83,114.66 275.76,115.23 275.54,115.43 C275.495936,115.487963 275.431681,115.52723 275.36,115.54 L275.36,115.54 Z" id="Path" stroke="none" fill="#FFFFFF" fill-rule="nonzero"></path>
                        <path d="M281,140.31 C281,140.31 281,140.24 281,140.22 C281.026025,140.198159 281.063975,140.198159 281.09,140.22 L281.09,140.22 L281.17,140.22 C281.085207,140.017314 280.981411,139.823114 280.86,139.64 C280.68,139.79 280.31,140.09 280.21,140.2 C280.11,140.31 279.95,140.64 279.79,140.85 C279.213249,141.353825 278.590523,141.802455 277.93,142.19 C277.940357,142.286287 277.991283,142.373589 278.07,142.43 L278.18,142.37 L278.18,142.37 C278.18424,142.34015 278.18424,142.30985 278.18,142.28 C278.158159,142.253975 278.158159,142.216025 278.18,142.19 C278.209227,142.1666 278.250773,142.1666 278.28,142.19 L278.28,142.28 L278.42,142.2 C278.399271,142.165319 278.382499,142.128422 278.37,142.09 C278.353261,142.06596 278.353261,142.03404 278.37,142.01 C278.396025,141.988159 278.433975,141.988159 278.46,142.01 L278.46,142.06 L278.46,142.06 L278.6,141.97 C278.579618,141.94222 278.562819,141.911982 278.55,141.88 C278.531525,141.852844 278.531525,141.817156 278.55,141.79 C278.579227,141.7666 278.620773,141.7666 278.65,141.79 C278.660686,141.819968 278.677745,141.847263 278.7,141.87 L278.85,141.78 L278.85,141.7 C278.837085,141.68861 278.829686,141.67222 278.829686,141.655 C278.829686,141.63778 278.837085,141.62139 278.85,141.61 C278.876025,141.588159 278.913975,141.588159 278.94,141.61 L278.99,141.68 L279.13,141.59 L279.13,141.52 C279.07,141.46 279.13,141.36 279.22,141.43 C279.248404,141.451765 279.272199,141.478958 279.29,141.51 L279.43,141.41 C279.403412,141.384957 279.382891,141.354175 279.37,141.32 C279.348159,141.293975 279.348159,141.256025 279.37,141.23 C279.407512,141.226167 279.443436,141.246125 279.46,141.28 C279.46,141.28 279.46,141.28 279.46,141.28 C279.507249,141.247973 279.547973,141.207249 279.58,141.16 C279.74,140.96 280.12,140.35 280.12,140.35 L280.34,140.6 L280.45,140.51 L280.4,140.51 C280.379778,140.479734 280.379778,140.440266 280.4,140.41 C280.4,140.41 280.48,140.41 280.5,140.41 L280.56,140.47 L280.67,140.39 C280.641966,140.370429 280.620939,140.342392 280.61,140.31 C280.588159,140.283975 280.588159,140.246025 280.61,140.22 C280.636025,140.198159 280.673975,140.198159 280.7,140.22 C280.695959,140.239796 280.695959,140.260204 280.7,140.28 L280.81,140.21 C280.888457,140.197777 280.965656,140.238408 281,140.31 Z" id="Path" stroke="none" fill="#EBA266" fill-rule="nonzero"></path>
                        <path d="M280.93,139.66 C280.725698,139.827846 280.531993,140.008192 280.35,140.2 C280.22,140.36 280.04,140.7 279.89,140.91 C279.298053,141.396209 278.665768,141.831114 278,142.21 C277.968372,142.074589 278.005816,141.932302 278.1,141.83 C278.332806,141.540366 278.537088,141.228919 278.71,140.9 C278.838917,140.510387 278.838917,140.089613 278.71,139.7 C278.367891,138.979519 277.980447,138.281452 277.55,137.61 C277.47,137.45 277.34,137.25 277.24,137.08 C277.223142,137.066727 277.213301,137.046456 277.213301,137.025 C277.213301,137.003544 277.223142,136.983273 277.24,136.97 C277.727654,136.859492 278.198447,136.684626 278.64,136.45 C278.807807,136.351812 278.968233,136.241519 279.12,136.12 C279.13139,136.107085 279.14778,136.099686 279.165,136.099686 C279.18222,136.099686 279.19861,136.107085 279.21,136.12 C279.42,136.77 279.65,137.48 279.82,137.91 C280.03773,138.475156 280.360021,138.994214 280.77,139.44 L280.93,139.66 Z" id="Path" stroke="none" fill="#EBA266" fill-rule="nonzero"></path>
                        <path d="M270.56,142.32 C270.565068,142.279762 270.599445,142.249682 270.64,142.25 C270.64,142.25 270.7,142.25 270.7,142.32 C270.694479,142.343007 270.694479,142.366993 270.7,142.39 L270.79,142.39 C270.832528,142.176006 270.852637,141.958163 270.85,141.74 C270.564924,141.76164 270.281194,141.798358 270,141.85 C269.8,141.91 269.54,142.06 269.29,142.15 C268.531415,142.254957 267.76406,142.281764 267,142.23 C266.963321,142.31973 266.963321,142.42027 267,142.51 L267.13,142.51 C267.13,142.51 267.13,142.45 267.13,142.41 C267.135008,142.375288 267.164931,142.349641 267.2,142.35 C267.2,142.35 267.28,142.35 267.27,142.42 C267.26,142.49 267.27,142.49 267.27,142.52 L267.44,142.52 C267.430226,142.483985 267.430226,142.446015 267.44,142.41 C267.46404,142.393261 267.49596,142.393261 267.52,142.41 C267.52,142.41 267.57,142.41 267.57,142.5 C267.565321,142.519726 267.565321,142.540274 267.57,142.56 L267.57,142.56 L267.74,142.56 L267.74,142.46 C267.752079,142.425662 267.783654,142.401982 267.82,142.4 C267.837807,142.399751 267.854806,142.407425 267.866396,142.420947 C267.877986,142.434468 267.88297,142.45244 267.88,142.47 C267.88,142.47 267.88,142.53 267.88,142.57 L268,142.57 C268,142.57 268,142.51 268,142.48 C268,142.44134 268.03134,142.41 268.07,142.41 C268.106256,142.419341 268.131184,142.452579 268.13,142.49 L268.13,142.57 L268.3,142.57 C268.305678,142.543636 268.305678,142.516364 268.3,142.49 C268.3,142.4 268.42,142.37 268.43,142.49 C268.434941,142.5265 268.434941,142.5635 268.43,142.6 L268.61,142.6 C268.605059,142.5635 268.605059,142.5265 268.61,142.49 C268.637156,142.471525 268.672844,142.471525 268.7,142.49 C268.721841,142.516025 268.721841,142.553975 268.7,142.58 C268.7,142.58 268.7,142.58 268.7,142.64 L268.87,142.64 C269.12,142.56 269.78,142.26 269.78,142.26 L269.78,142.59 L270,142.59 C270,142.59 270,142.59 270,142.53 C269.998816,142.492579 270.023744,142.459341 270.06,142.45 C270.09558,142.443496 270.130256,142.465168 270.14,142.5 C270.134322,142.526364 270.134322,142.553636 270.14,142.58 L270.28,142.58 C270.275147,142.550196 270.275147,142.519804 270.28,142.49 C270.292079,142.455662 270.323654,142.431982 270.36,142.43 C270.394712,142.435008 270.420359,142.464931 270.42,142.5 L270.42,142.58 L270.55,142.58 C270.55,142.58 270.56,142.34 270.56,142.32 Z" id="Path" stroke="none" fill="#EBA266" fill-rule="nonzero"></path>
                        <path d="M270.86,141.73 C270.5978,141.754091 270.337316,141.794166 270.08,141.85 C269.89,141.91 269.55,142.1 269.3,142.19 C268.537917,142.251782 267.772083,142.251782 267.01,142.19 C267.062998,142.060582 267.174363,141.964066 267.31,141.93 C267.655519,141.812757 267.990127,141.665529 268.31,141.49 C268.623625,141.232654 268.847674,140.882578 268.95,140.49 C269.070031,139.705414 269.13685,138.913606 269.15,138.12 C269.15,137.93 269.15,137.69 269.15,137.49 C269.151075,137.466578 269.163806,137.445249 269.183912,137.433186 C269.204017,137.421123 269.228827,137.419927 269.25,137.43 C269.71612,137.609021 270.20354,137.726674 270.7,137.78 C270.893197,137.790276 271.086803,137.790276 271.28,137.78 C271.28,137.78 271.35,137.78 271.33,137.85 C271.14,138.51 270.95,139.23 270.85,139.68 C270.717886,140.270814 270.694168,140.88071 270.78,141.48 C270.817535,141.559456 270.844434,141.643514 270.86,141.73 Z" id="Path" stroke="none" fill="#EBA266" fill-rule="nonzero"></path>
                        <path d="M278.56,115.67 C277.3127,115.579335 276.10227,115.206632 275.02,114.58 L274.76,116.26 C275.360734,116.644315 276.048518,116.871284 276.76,116.92 C277.527621,116.973085 278.298287,116.878025 279.03,116.64 C278.87,116.25 278.7,115.93 278.56,115.67 Z" id="Path" stroke="none" fill="#C77539" fill-rule="nonzero"></path>
                        <path d="M254,141.1 C254,141.46 253.89,142.36 253.89,142.36 C253.89,142.36 253.71,142.36 253.73,142.52 C253.75,142.68 254.02,142.6 254.2,142.52 C254.3,142.34 254.68,141.05 254.68,141.05 L254,141.1 Z" id="Path" stroke="none" fill="#C58971" fill-rule="nonzero"></path>
                        <path d="M259.54,140.89 C259.817626,141.326901 259.93759,141.845566 259.88,142.36 C259.88,142.36 259.7,142.36 259.72,142.52 C259.74,142.68 260.01,142.6 260.18,142.52 C260.285519,142.27795 260.369185,142.026951 260.43,141.77 C260.388996,141.437928 260.388996,141.102072 260.43,140.77 L259.54,140.89 Z" id="Path" stroke="none" fill="#C58971" fill-rule="nonzero"></path>
                        <path d="M256.07,141.1 C256.217358,141.502624 256.394516,141.893707 256.6,142.27 C256.630557,142.304164 256.630557,142.355836 256.6,142.39 C256.55,142.39 256.5,142.46 256.51,142.52 C256.52,142.58 256.51,142.52 256.6,142.58 C256.702902,142.594933 256.807116,142.56334 256.884403,142.493781 C256.961691,142.424223 257.004049,142.323901 257,142.22 C257,141.78 256.84,141.1 256.84,141.1 L256.07,141.1 Z" id="Path" stroke="none" fill="#C58971" fill-rule="nonzero"></path>
                        <path d="M260.45,140.78 C260.59,141.45 261.34,141.55 261.5,142.27 C261.526667,142.305556 261.526667,142.354444 261.5,142.39 C261.5,142.39 261.4,142.46 261.41,142.52 C261.42,142.58 261.74,142.59 261.8,142.46 C261.877955,142.219492 261.877955,141.960508 261.8,141.72 C261.638852,141.407413 261.533921,141.068927 261.49,140.72 L260.45,140.78 Z" id="Path" stroke="none" fill="#C58971" fill-rule="nonzero"></path>
                        <path d="M253.49,137.29 C253.26,137.61 252.77,137.66 252.78,137.75 C252.79,137.84 253.01,138.02 253.63,137.96 C254.25,137.9 253.49,137.29 253.49,137.29 Z" id="Path" stroke="none" fill="#C58971" fill-rule="nonzero"></path>
                        <path d="M252.78,137.75 C252.78,137.75 252.83,137.84 252.93,137.88 C253.03,137.92 252.93,137.71 252.93,137.65 C252.93,137.59 252.78,137.71 252.78,137.75 Z" id="Path" stroke="none" fill="#383832" fill-rule="nonzero"></path>
                        <path d="M253.18,136.79 C253.18,136.79 254.49,135.71 255.28,136.29 C255.69257,136.643946 256.011919,137.093783 256.21,137.6 C256.21,137.6 260.28,137.26 261.33,138.26 C262.38,139.26 262.06,141.26 262.06,141.26 C260.792783,141.428377 259.517785,141.531845 258.24,141.57 C255.95,141.66 253.9,141.57 253.9,141.57 C253.9,141.57 253.73,139.7 253.69,138.99 C253.594963,138.241284 253.424085,137.504164 253.18,136.79 Z" id="Path" stroke="none" fill="#EBBD6D" fill-rule="nonzero"></path>
                        <path d="M204.36,132.63 C204.36,133.83 204.61,137.45 204.61,138.49 C204.61,139.53 204.4,141.49 204.4,141.49 C205.008747,141.77918 205.667311,141.948913 206.34,141.99 C206.898897,141.907681 207.415326,141.644196 207.81,141.24 C207.81,141.24 207.47,140.83 207.52,139.24 C207.57,137.65 208.18,132.42 208.18,132.42 L204.36,132.63 Z" id="Path" stroke="none" fill="#D4A998" fill-rule="nonzero"></path>
                        <path d="M182.58,128.55 C182.58,128.55 184.03,128.14 184.91,127.81 C185.79,127.48 188.19,125.94 189.02,125.65 L190.27,128.85 C190.27,128.85 186.63,130.05 186.05,130.42 C185.47,130.79 184.51,130.94 184.55,132.19 L183.7,132.71 L182.58,128.55 Z" id="Path" stroke="none" fill="#D4A998" fill-rule="nonzero"></path>
                        <path d="M204.4,140.73 C204.21908,141.231528 204.114579,141.757404 204.09,142.29 C204.09,142.46 205.29,142.46 205.94,142.48 C206.59,142.5 208.74,142.6 209.36,142.58 C209.950416,142.624915 210.543981,142.604795 211.13,142.52 C211.13,142.39 210.99,142.19 210.59,142.03 C210.19,141.87 208.83,141.58 208.51,141.38 C208.19,141.18 207.9,140.99 207.74,140.87 C207.58,140.75 206.93,141.76 206.57,141.87 C206.21,141.98 205.87,141.6 205.41,141.36 C204.95,141.12 204.61,140.72 204.4,140.73 Z" id="Path" stroke="none" fill="#7D6356" fill-rule="nonzero"></path>
                        <path d="M183.73,128.13 C183.196945,128.14135 182.668256,128.228903 182.16,128.39 C182.01,128.47 182.43,129.58 182.63,130.19 C182.83,130.8 183.5,132.86 183.74,133.43 C183.98,134 184.27,135.01 184.39,134.98 C184.51,134.95 184.63,134.75 184.63,134.32 C184.63,133.89 184.49,132.58 184.56,132.21 C184.63,131.84 184.71,131.51 184.77,131.31 C184.83,131.11 183.66,130.87 183.4,130.58 C183.14,130.29 183.34,129.82 183.47,129.32 C183.6,128.82 183.81,128.32 183.73,128.13 Z" id="Path" stroke="none" fill="#7D6356" fill-rule="nonzero"></path>
                        <path d="M187.28,104.82 C188.347017,102.001067 189.651713,99.2779316 191.18,96.68 C192.69,94.2 199,86.21 199,86.21 L198,106.15 C198,106.15 198.25,108.65 195.17,108.57 C192.09,108.49 187.69,105.91 187.28,104.82 Z" id="Path" stroke="none" fill="#7D6356" fill-rule="nonzero"></path>
                        <path d="M209.05,97.43 C209.55,100.92 210.63,113.14 210.22,118.29 C209.81,123.44 208.47,132.83 208.47,132.83 L203.82,132.92 C203.82,132.92 203.82,127.52 203.98,124.61 C204.14,121.7 204.48,119.87 204.48,118.37 C204.48,116.87 203.65,111.97 203.65,111.97 C203.65,111.97 202.82,119.54 200.91,122.45 C199,125.36 190.43,129.93 190.43,129.93 C189.61821,128.482406 188.977251,126.945448 188.52,125.35 C188.52,125.35 191.4,123.35 193.12,122.06 C194.84,120.77 196.45,119.9 196.67,119.06 C196.89,118.22 196.28,111.85 196.23,108.64 C196.062111,105.260875 196.098844,101.874687 196.34,98.5 L209.05,97.43 Z" id="Path" stroke="none" fill="#FDF3E2" fill-rule="nonzero"></path>
                        <path d="M217,78.5 C217.69,78.5 218.64,78.56 218.81,78.91 C219.168559,79.9673914 219.39036,81.0663129 219.47,82.18 C219.458209,82.7655524 219.387858,83.3484557 219.26,83.92 L216.9,83.46 L217.25,82.51 C217.25,82.51 217.01,81.18 216.96,80.93 C216.91,80.68 217,78.5 217,78.5 Z" id="Path" stroke="none" fill="#F7DCD1" fill-rule="nonzero"></path>
                        <path d="M206.81,71.83 C206.02,72.24 203.69,73.32 202.07,74.03 C200.304203,74.677195 198.750743,75.7981776 197.58,77.27 L198.66,85 C198.66,85 197.72,89.82 197.13,92.44 C196.680346,94.4996834 196.346489,96.5829505 196.13,98.68 C198.714378,98.8941978 201.31024,98.9342884 203.9,98.8 C205.750067,98.6424886 207.561257,98.179554 209.26,97.43 C209.26,97.43 209.34,94.43 209.55,92.82 C209.76,91.21 210.34,88.12 210.34,88.12 C210.771737,89.9115629 211.426868,91.6417806 212.29,93.27 C213.5,95.27 215.45,95.27 216.16,94.27 C216.87,93.27 219.16,85.42 219.29,85.04 C219.42,84.66 219.8,84.04 219.68,83.82 C218.735954,83.3997478 217.713349,83.1850008 216.68,83.19 C216.39,83.39 216.32,83.91 216.16,84.49 C216,85.07 215.24,86.79 214.95,87.66 C214.746148,88.3168157 214.579221,88.9845267 214.45,89.66 C214.19213,88.7943382 214.011424,87.9075414 213.91,87.01 C213.324202,83.6772306 212.519119,80.3867488 211.5,77.16 C210.608621,76.2231637 209.667247,75.3352013 208.68,74.5 C207.956865,73.6842412 207.329451,72.7884143 206.81,71.83 Z" id="Path" stroke="none" fill="#C25C4A" fill-rule="nonzero"></path>
                        <path d="M216.28,77.54 C216.28,77.26 216.66,77.62 216.84,77.76 C217.02,77.9 218,78.76 218,78.76 C217.685151,78.8035751 217.367836,78.8269562 217.05,78.83 C217.05,78.83 216.21,78.14 216.28,77.54 Z" id="Path" stroke="none" fill="#F7DCD1" fill-rule="nonzero"></path>
                        <path d="M210.08,67.78 C210.312944,66.431303 210.86116,65.1566987 211.68,64.06 C212.52,63.28 212.99,63.52 212.99,63.52 C213.489293,63.1486724 214.112431,62.9839348 214.73,63.06 C215.559529,63.278355 216.333252,63.6703289 217,64.21 C217.46,64.44 218.37,64.51 218.49,64.82 C218.61,65.13 217.63,65.37 217.63,65.37 L214.96,65.91 L212.51,67.91 L210.08,67.78 Z" id="Path" stroke="none" fill="#7B5A4B" fill-rule="nonzero"></path>
                        <path d="M211.16,67 C211.06,67.26 210.48,67.44 210.16,67.55 C209.431386,68.9958712 208.581685,70.3774702 207.62,71.68 C208.066523,72.5097406 208.603092,73.2877664 209.22,74 C209.690814,74.505833 210.254342,74.9165971 210.88,75.21 C210.88,75.21 211.44,74.1 211.88,73.38 C212.32,72.66 212.81,71.9 212.81,71.9 C213.206136,72.0966286 213.656273,72.1564124 214.09,72.07 C214.82,71.94 215.35,70.57 215.35,70.57 C215.455096,70.5176601 215.518263,70.4071166 215.51,70.29 C215.51,70.29 215.68,70.29 215.69,70.16 C215.741825,70.0241083 215.812519,69.8961871 215.9,69.78 C215.989845,69.8304825 216.083457,69.8739453 216.18,69.91 C216.3,69.91 216.49,69.91 216.56,69.91 C216.634746,69.6195772 216.655089,69.3178275 216.62,69.02 C216.62,68.67 216.62,68.3 216.62,68.3 C216.938703,68.0466987 217.20962,67.73853 217.42,67.39 C217.719494,66.7662388 217.776517,66.0534421 217.58,65.39 C217.233787,65.3450929 216.896523,65.2472864 216.58,65.1 C215.88,64.82 215.05,64.4 215.05,64.4 C215.05,64.4 214.28,65.61 213.81,66.18 C213.34,66.75 212.55,67.5 212.55,67.5 C212.390942,67.2601426 212.213758,67.032812 212.02,66.82 C211.62,66.38 211.16,67 211.16,67 Z" id="Path" stroke="none" fill="#F7DCD1" fill-rule="nonzero"></path>
                        <path d="M215.31,67.55 C215.31,67.6438884 215.233888,67.72 215.14,67.72 C215.048249,67.7150298 214.97497,67.6417509 214.97,67.55 C214.969852,67.4543666 215.044514,67.3753129 215.14,67.37 C215.186874,67.3699188 215.231702,67.3891956 215.263887,67.4232737 C215.296072,67.4573519 215.312757,67.503207 215.31,67.55 L215.31,67.55 Z" id="Path" stroke="none" fill="#7B5A4B" fill-rule="nonzero"></path>
                        <path d="M214.66,66.59 C215.142218,66.5585335 215.621964,66.6810963 216.03,66.94 C216.15,67.11 216.25,67.45 216.1,67.4 C215.95,67.35 215.6,67.11 215.34,66.96 C215.08,66.81 214.66,66.59 214.66,66.59 Z" id="Path" stroke="none" fill="#7B5A4B" fill-rule="nonzero"></path>
                        <path d="M212.33,67.2 C212.33,67.2 212.39,66.45 211.8,66.2 C211.21,65.95 210.68,66.53 210.54,67.09 C210.416566,67.4184529 210.433378,67.7831762 210.586505,68.098881 C210.739631,68.4145858 211.015644,68.6535887 211.35,68.76 L212.33,67.2 Z" id="Path" stroke="none" fill="#F6D5C8" fill-rule="nonzero"></path>
                        <path d="M215.49,70.32 C215.49,70.32 215.66,70.32 215.67,70.19 C215.68,70.06 215,70 215,70 C215,70 215.14,70.53 215.33,70.62 C215.442509,70.5650306 215.507028,70.4440558 215.49,70.32 Z" id="Path" stroke="none" fill="#D1A095" fill-rule="nonzero"></path>
                        <path d="M217,78.5 C216.33,78.5 216,78.5 215.9,78.66 C215.8,78.82 215.96,79.18 215.96,79.18 C215.96,79.18 215.63,79.41 215.63,79.64 C215.6385,79.7932021 215.694413,79.9399736 215.79,80.06 C215.692409,80.2148016 215.650112,80.3980878 215.67,80.58 C215.727954,80.730106 215.837992,80.8543426 215.98,80.93 C215.914838,81.1453162 215.963835,81.3789942 216.11,81.55 C216.36,81.86 217.03,82 217.11,81.86 C217.19,81.72 216.66,81.45 216.66,81.45 L217.74,81.53 C218,81.55 217,78.5 217,78.5 Z" id="Path" stroke="none" fill="#F7DCD1" fill-rule="nonzero"></path>
                        <path d="M206.43,72.16 C206.43,72.16 206.75,71.77 206.89,71.58 C207.03,71.39 207.33,70.91 207.62,71.02 C207.91,71.13 208.39,71.87 208.76,72.45 C209.13,73.03 210.88,75.24 210.88,75.24 L211.17,74.63 C211.386325,75.0552995 211.560489,75.5007579 211.69,75.96 C211.666753,76.6563512 211.562723,77.3476476 211.38,78.02 C211.21,78.71 210.3,80.85 210.3,80.85 C210.3,80.85 208.74,78.21 207.76,76.19 C207.155192,74.9054477 206.708591,73.552212 206.43,72.16 L206.43,72.16 Z" id="Path" stroke="none" fill="#7B5A4B" fill-rule="nonzero"></path>
                        <path d="M211.67,77.44 C211.67,78.52 211.02,81.44 208.36,85.18 C205.716936,88.6052766 202.559548,91.6007472 199,94.06 C196.156147,96.0072179 193.215732,97.8095151 190.19,99.46 L190.64,100.71 C190.64,100.71 198.5,96.56 202.64,92.9 C205.64,90.2 208.78,86.9 210.15,84.54 C211.235876,82.8079984 211.90034,80.8454327 212.09,78.81 L211.67,77.44 Z" id="Path" stroke="none" fill="#A0B09C" fill-rule="nonzero"></path>
                        <path d="M200.78,97.86 C201.216248,98.2251631 201.624091,98.622977 202,99.05 C202.12,99.15 202.42,99.96 202.6,100.05 C202.433615,100.203701 202.186877,100.232016 201.99,100.12 C201.738214,99.9798137 201.551497,99.7464173 201.47,99.47 L201.1,99.26 L200.78,97.86 Z" id="Path" stroke="none" fill="#F6D5C7" fill-rule="nonzero"></path>
                        <path d="M196.83,97.68 C197.06,98.31 197.94,99.81 198.03,100.12 C198.12,100.43 198.61,101.57 198.61,101.57 L201.38,99.95 C201.27072,99.1898658 201.044724,98.4511629 200.71,97.76 C200.216886,97.3128675 199.755754,96.8316859 199.33,96.32 L196.83,97.68 Z" id="Path" stroke="none" fill="#F7DCD1" fill-rule="nonzero"></path>
                        <path d="M197.58,77.27 C195.92,78.98 192.47,85.54 192.3,87.2 C192.13,88.86 193.84,92.57 194.51,93.69 C195.239794,94.8352485 195.836965,96.0597845 196.29,97.34 C196.29,97.8 196.59,98.09 197,97.93 C197.94368,97.4383165 198.834929,96.8519686 199.66,96.18 C199.87,95.89 199.66,95.52 199.25,95.18 C198.441278,93.8276071 197.850703,92.3562307 197.5,90.82 C197.206475,89.7149808 196.801045,88.6427694 196.29,87.62 L198.21,85.71 C198.83,85.08 199.66,83.96 200.16,83.38 C200.66,82.8 201.7,80.38 200.74,78.72 C200.047332,77.6759829 198.823185,77.1142697 197.58,77.27 L197.58,77.27 Z" id="Path" stroke="none" fill="#C25C4A" fill-rule="nonzero"></path>
                        <path d="M211.5,69.44 C211.440702,70.28318 211.577617,71.1286308 211.9,71.91 C212.09,72.23 212.24,72.45 212.35,72.6 L212.79,71.93 C213.099527,72.0854066 213.444106,72.1577683 213.79,72.14 L213.88,72.08 C212.914974,71.3714667 212.105047,70.4730598 211.5,69.44 Z" id="Path" stroke="none" fill="#B1ADA9" fill-rule="nonzero" style="mix-blend-mode: multiply;"></path>
                        <path d="M216.54,69.89 C216.614746,69.5995772 216.635089,69.2978275 216.6,69 C216.6,68.65 216.6,68.28 216.6,68.28 L215.86,69.81 C215.949845,69.8604825 216.043457,69.9039453 216.14,69.94 C216.28,70 216.47,70 216.54,69.89 Z" id="Path" stroke="none" fill="#F7DDD1" fill-rule="nonzero"></path>
                        <path d="M122.14,91.24 C122.14,97.83 112.78,94.15 112.45,100.24 C112.18,105.09 121.98,103.92 120.45,109.56 C118.57,116.5 114.85,112.1 112.54,117.56 C109.83,123.95 109.44,124.35 104.12,124.35 C98.8,124.35 99.51,121.35 97.41,117.49 C95.1,113.24 89.53,117.02 88.68,109.88 C88.01,104.21 97.11,105.26 96.68,100.26 C96.15,94.26 86.98,97.9 86.98,91.26 C86.98,84.62 95.98,88.32 96.68,82.31 C97.46,75.58 87.9,76.9 89.43,71.25 C91.3,64.31 100.76,71.37 101.33,65.98 C101.84,61.07 99.24,53.51 104.56,53.51 C109.88,53.51 108.11,59.39 107.79,65.98 C107.53,71.4 117.79,64.31 119.69,71.25 C121.21,76.9 111.69,75.58 112.44,82.31 C113.15,88.3 122.14,84.65 122.14,91.24 Z" id="Path" stroke="none" fill="#F2D4AD" fill-rule="nonzero"></path>
                        <path d="M105.1,65.24 C104.81,68.99 106.22,76.58 106.35,80.76 C106.51,83.76 105.77,86.62 106.12,93.89 C106.67,104.81 107.37,92.7 107.18,117.95 C107.08,123.6 107.69,136.05 108,141.69 C106.44,142.85 102.16,142.9 100.81,141.76 C102.03,109.5 103.72,112.1 103.46,101.19 C102.8,87.26 104.66,85.5 104.77,79.58 C104.85,75.06 104.21,65.1 105.1,65.24 Z" id="Path" stroke="none" fill="#D7866B" fill-rule="nonzero"></path>
                        <path d="M100.06,142.45 L77.57,142.45 C77.2695883,142.484373 76.9652931,142.450182 76.68,142.35 C76.9637329,142.243221 77.2688076,142.205516 77.57,142.24 L100.06,142.24 C100.361192,142.205516 100.666267,142.243221 100.95,142.35 C100.664707,142.450182 100.360412,142.484373 100.06,142.45 L100.06,142.45 Z" id="Path" stroke="none" fill="#D8D6D4" fill-rule="nonzero"></path>
                        <path d="M96.7,113.44 C95.8645491,112.188699 95.1734798,110.846817 94.64,109.44 L94.8,109.44 C95.3167886,110.84315 95.9875528,112.184679 96.8,113.44 L96.7,113.44 Z" id="Path" stroke="none" fill="#886C64" fill-rule="nonzero"></path>
                        <path d="M81.47,129.16 C81.3,130.3 80.77,134.01 80.77,134.01 L83.13,134.54 C83.5314397,133.676677 83.8853028,132.79202 84.19,131.89 C84.4263368,131.15255 84.5806031,130.391279 84.65,129.62 L81.47,129.16 Z" id="Path" stroke="none" fill="#BC4A36" fill-rule="nonzero"></path>
                        <path d="M90.24,128.1 C90.9632412,129.17415 91.8238745,130.149086 92.8,131 C93.74,131.87 95.01,132.87 95.01,132.87 L96.81,130.75 C96.81,130.75 95.65,129.2 94.81,128.17 C93.97,127.14 93.54,126.58 93.54,126.58 L90.24,128.1 Z" id="Path" stroke="none" fill="#BC4A36" fill-rule="nonzero"></path>
                        <path d="M88.48,99 C87.54,99.5 86.18,99.74 85.48,101.25 C84.78,102.76 84.74,108.44 84.74,108.44 L91.95,109.44 C91.95,109.44 93.95,112.2 94.31,112.09 C94.67,111.98 95.93,108.43 95.66,105.28 C95.39,102.13 94.77,101.17 93.87,100.35 C92.97,99.53 92.47,99.17 92.18,98.9 C91.89,98.63 88.48,99 88.48,99 Z" id="Path" stroke="none" fill="#D7866B" fill-rule="nonzero"></path>
                        <path d="M85.44,101.27 C84.8870782,102.360755 84.4060526,103.486488 84,104.64 C83.2817159,105.825511 82.8026913,107.140281 82.59,108.51 C82.59,109.65 82.75,110.42 83.17,110.37 C83.59,110.32 85.17,108.75 85.17,108.75 C85.17,108.75 85.46,105.54 85.57,104.39 C85.6021735,103.348225 85.5587262,102.305488 85.44,101.27 L85.44,101.27 Z" id="Path" stroke="none" fill="#DB927A" fill-rule="nonzero"></path>
                        <path d="M85.49,94.46 C85.3725248,94.8936779 85.4151227,95.3551547 85.61,95.76 C85.81,96.09 85.96,96.36 85.87,96.64 C85.78,96.92 85.87,97.03 85.94,97.13 C86.01,97.23 86.35,97.13 86.61,96.8 C86.87,96.47 87.28,95.9 87.28,95.9 L87,94.12 L85.49,94.46 Z" id="Path" stroke="none" fill="#886C64" fill-rule="nonzero"></path>
                        <path d="M86.7,94.33 C86.7961291,95.4448839 87.2893912,96.4881864 88.09,97.27 C88.3527008,97.4396898 88.6573349,97.5331571 88.97,97.54 C89.0268582,97.8272131 89.0268582,98.1227869 88.97,98.41 C88.8488589,98.6586815 88.6621524,98.8695908 88.43,99.02 C88.3583597,99.7649483 88.3583597,100.515052 88.43,101.26 C88.53,102.26 88.77,103.16 89.04,103.18 C89.31,103.2 90.36,101.88 90.91,101.11 C91.4634509,100.464467 91.8786675,99.7123128 92.13,98.9 C91.8571737,98.5069631 91.6823093,98.054373 91.62,97.58 C91.46,96.67 91.01,93.58 91.01,93.58 L86.7,94.33 Z" id="Path" stroke="none" fill="#F3D8B5" fill-rule="nonzero"></path>
                        <path d="M87.92,96.59 C88.0066613,96.6523429 88.1160269,96.674216 88.22,96.65 C88.3324471,96.6206948 88.4291987,96.549027 88.49,96.45 C88.3774167,96.3985187 88.2531944,96.377815 88.13,96.39 C88.0320754,96.4193014 87.9540406,96.4936203 87.92,96.59 Z" id="Path" stroke="none" fill="#D7866B" fill-rule="nonzero"></path>
                        <path d="M88,94.39 L87.72,94.47 C87.64,95.16 87.49,96.21 87.72,96.17 C87.9120779,96.1141405 88.0918904,96.022538 88.25,95.9" id="Path" stroke="#DB927A" stroke-width="0.1" fill="none"></path>
                        <path d="M88.13,96.39 C88.0320754,96.4193014 87.9540406,96.4936203 87.92,96.59 L88.49,96.45 C88.3774167,96.3985187 88.2531944,96.377815 88.13,96.39 Z" id="Path" stroke="none" fill="#B1ADA9" fill-rule="nonzero" opacity="0.5" style="mix-blend-mode: multiply;"></path>
                        <path d="M89,97.54 C89.0576453,97.8271354 89.0576453,98.1228646 89,98.41 C89.3072561,98.3102375 89.5784682,98.1224753 89.78,97.87 C90.1568069,97.4127273 90.3960795,96.8578924 90.47,96.27 C90.2323044,96.918858 89.6764967,97.3990456 89,97.54 Z" id="Path" stroke="none" fill="#B1ADA9" fill-rule="nonzero" style="mix-blend-mode: multiply;"></path>
                        <path d="M89.36,94.18 C89.8203503,94.4638042 90.2183703,94.8380111 90.53,95.28 C90.8600314,95.8202853 91.3871446,96.2111379 92,96.37 C92.5686157,96.4488543 93.0981412,96.0649483 93.2,95.5 C93.2897894,95.222352 93.2409835,94.9184857 93.0687637,94.6829207 C92.8965439,94.4473556 92.6218026,94.308669 92.33,94.31 C91.8384903,94.2062199 91.4198082,93.8866993 91.19,93.44 L89.36,94.18 Z" id="Path" stroke="none" fill="#886C64" fill-rule="nonzero"></path>
                        <path d="M84.59,94.62 C85.8265844,94.681107 87.0661794,94.6174521 88.29,94.43 C89.5920244,94.2026973 90.8730471,93.8682266 92.12,93.43 C92.64,93.16 93,92.96 92.89,92.92 C92.4574702,93.0114044 92.0200997,93.0781785 91.58,93.12 C91.39,93.04 91.07,91.54 90.7,90.99 C90.4557249,90.4663236 89.8607853,90.2052351 89.31,90.38 C88.81,90.59 88.6,90.97 88.2,90.89 C87.8,90.81 87.1,90.38 86.67,90.71 C86.24,91.04 86.46,93.11 86.4,93.39 C86.34,93.67 85.59,94.02 85.15,94.2 C84.71,94.38 84.33,94.59 84.59,94.62 Z" id="Path" stroke="none" fill="#CA9580" fill-rule="nonzero"></path>
                        <path d="M91.51,93 C91.4264658,92.8255605 91.356265,92.6450441 91.3,92.46 C89.6716404,92.6162113 88.0352704,92.6729833 86.4,92.63 C86.4161982,92.8697267 86.4161982,93.1102733 86.4,93.35 C86.3871812,93.3819817 86.3703821,93.4122201 86.35,93.44 C87.4477379,93.5027894 88.5489076,93.4659722 89.64,93.33 C90.25,93.25 91.31,93 91.51,93 Z" id="Path" stroke="none" fill="#C77539" fill-rule="nonzero"></path>
                        <path d="M89.05,94.62 C89.05,94.62 88.8899995,94.75 88.83,94.75 C88.7768166,94.7453496 88.7346504,94.7031834 88.73,94.65 C88.7297638,94.5929489 88.7731846,94.545186 88.83,94.54 C88.8899995,94.54 89.05,94.56 89.05,94.62 Z" id="Path" stroke="none" fill="#383832" fill-rule="nonzero"></path>
                        <path d="M87.31,95 C87.3101421,95.0283488 87.2982452,95.0554257 87.2772685,95.0744954 C87.2562919,95.0935651 87.228207,95.1028353 87.2,95.1 C87.2,95.1 87,95 87,95 C87,95 87.16,94.87 87.21,94.87 C87.2426473,94.8684835 87.2739755,94.8830163 87.2939024,94.9089212 C87.3138293,94.9348262 87.31984,94.968834 87.31,95 Z" id="Path" stroke="none" fill="#383832" fill-rule="nonzero"></path>
                        <path d="M84.69,108.06 C86.1266231,108.066604 87.5594976,108.207213 88.97,108.48 C89.7443097,108.667913 90.5086194,108.89487 91.26,109.16 C92.3205001,111.22336 92.8432992,113.520925 92.78,115.84 C92.54,119.27 92.4,125.42 92.4,125.42 L93.53,126.62 C91.6857195,128.783845 89.0119323,130.066245 86.17,130.15 C83.6054441,130.171017 81.0613672,129.692092 78.68,128.74 C77.8767835,128.516997 77.0623066,128.336744 76.24,128.2 C76.1502326,128.186649 76.0708241,128.134632 76.0227242,128.057672 C75.9746243,127.980713 75.9626645,127.88654 75.99,127.8 C76.4408611,126.227336 76.9715489,124.678662 77.58,123.16 C78.58,120.86 80.2,118.84 80.98,116.69 C81.54,115.12 82.11,113.26 82.67,111.91 C83.23,110.56 84.69,108.06 84.69,108.06 Z" id="Path" stroke="none" fill="#B9B6B2" fill-rule="nonzero"></path>
                        <path d="M91.24,112.22 C90.81,112.31 90.51,112.64 90.58,112.96 C90.65,113.28 91.04,113.46 91.48,113.37 C91.92,113.28 92.14,112.64 92.14,112.64 C92.14,112.64 91.67,112.14 91.24,112.22 Z" id="Path" stroke="none" fill="#383832" fill-rule="nonzero"></path>
                        <path d="M91.68,124.29 C91.5136261,124.188935 91.3134186,124.159544 91.1250174,124.208529 C90.9366162,124.257513 90.7760782,124.380697 90.68,124.55 C90.4,124.9 90.68,125.55 90.68,125.55 C90.68,125.55 91.37,125.64 91.68,125.29 C91.9545556,125.013202 91.9545556,124.566798 91.68,124.29 L91.68,124.29 Z" id="Path" stroke="none" fill="#383832" fill-rule="nonzero"></path>
                        <path d="M92.16,119 C92.2558928,119.150067 92.4219125,119.240623 92.6,119.240003 C92.6,118.83 92.6,118.43 92.65,118.04 L92.54,118.04 C92.16,118.34 92,118.75 92.16,119 Z" id="Path" stroke="none" fill="#383832" fill-rule="nonzero"></path>
                        <path d="M86,123.15 C85.824427,122.973378 85.5591163,122.921221 85.3297494,123.018238 C85.1003826,123.115254 84.9530238,123.34196 84.9574792,123.590961 C84.9619346,123.839962 85.1173093,124.061251 85.35,124.15 C85.72,124.4 86.35,124.15 86.35,124.15 C86.35,124.15 86.36,123.39 86,123.15 Z" id="Path" stroke="none" fill="#383832" fill-rule="nonzero"></path>
                        <path d="M78.32,124.24 C78.32,124.24 78.05,124.87 78.32,125.24 C78.4334679,125.441456 78.6510814,125.561444 78.8820048,125.549878 C79.1129282,125.538313 79.3174644,125.397183 79.4102364,125.185399 C79.5030083,124.973614 79.4680679,124.727582 79.32,124.55 C79,124.18 78.32,124.24 78.32,124.24 Z" id="Path" stroke="none" fill="#383832" fill-rule="nonzero"></path>
                        <path d="M83.9,129 C83.59,128.93 83.25,129.21 83.14,129.64 C83.1197959,129.738979 83.1197959,129.841021 83.14,129.94 L84.21,130.07 C84.2385078,130.023838 84.2588077,129.973088 84.27,129.92 C84.40583,129.563766 84.2446515,129.162997 83.9,129 L83.9,129 Z" id="Path" stroke="none" fill="#383832" fill-rule="nonzero"></path>
                        <polygon id="Path" stroke="none" fill="#383832" fill-rule="nonzero" points="88.36 129.86 88.36 129.86 88.46 129.86"></polygon>
                        <path d="M87,118.53 C87,118.53 87.18,117.87 86.88,117.53 C86.7665414,117.294731 86.5158834,117.157807 86.2566114,117.189469 C85.9973394,117.22113 85.7869981,117.414351 85.7334907,117.67001 C85.6799833,117.925668 85.7951857,118.187023 86.02,118.32 C86.35,118.67 87,118.53 87,118.53 Z" id="Path" stroke="none" fill="#383832" fill-rule="nonzero"></path>
                        <path d="M80.72,119.44 C80.72,119.44 81.05,118.84 80.83,118.44 C80.7278913,118.256168 80.5704291,118.109203 80.38,118.02 C80.21,118.36 80.02,118.7 79.83,119.02 C80.07,119.42 80.72,119.44 80.72,119.44 Z" id="Path" stroke="none" fill="#383832" fill-rule="nonzero"></path>
                        <path d="M85.75,112.18 C85.75,112.18 85.14,111.87 84.75,112.1 C84.5032638,112.172953 84.328832,112.392877 84.3139751,112.649743 C84.2991182,112.906609 84.447031,113.145178 84.6837109,113.246091 C84.9203907,113.347004 85.1949408,113.288561 85.37,113.1 C85.75,112.86 85.75,112.18 85.75,112.18 Z" id="Path" stroke="none" fill="#383832" fill-rule="nonzero"></path>
                        <path d="M91.68,110.06 C91.5301661,109.654035 91.4327134,109.23062 91.39,108.8 C90.5591539,108.467622 89.7073084,108.190355 88.84,107.97 C87.5251405,107.689763 86.1843912,107.548984 84.84,107.549995 C84.84,107.549995 84.5,108.4 84.23,108.9 C86.7466819,109.028809 89.2432955,109.417543 91.68,110.06 L91.68,110.06 Z" id="Path" stroke="none" fill="#787774" fill-rule="nonzero"></path>
                        <path d="M91.8,116.17 C90.61,114.85 87.11,108.44 86.53,105.98 C86.2398042,103.759083 86.5866027,101.501425 87.53,99.47 L87.75,99.37 C87.32,100.11 86.16,103.53 86.75,105.95 C87.34,108.37 90.75,114.75 91.98,116.07 L91.8,116.17 Z" id="Path" stroke="none" fill="#886C64" fill-rule="nonzero"></path>
                        <path d="M80.27,133.41 C81.0099269,133.45259 81.7436552,133.569853 82.46,133.76 C83.045258,133.889244 83.6151244,134.080317 84.16,134.33 C84.16,134.33 82.36,139.1 82.16,139.98 C81.96,140.86 81.66,142.14 81.66,142.14 L76.89,141.43 C76.9721438,141.118574 77.2394357,140.891177 77.56,140.86 C78.12,140.8 79.37,140.59 79.37,140.59 L80.27,133.41 Z" id="Path" stroke="none" fill="#F7EBD8" fill-rule="nonzero"></path>
                        <path d="M76.84,141.43 L76.84,141.7 L76.99,141.7 C76.99,141.7 76.99,141.64 76.99,141.6 C76.99,141.56 76.99,141.6 77.06,141.6 C77.0725043,141.621658 77.0725043,141.648342 77.06,141.67 C77.06,141.67 77.06,141.73 77.06,141.76 L77.26,141.76 L77.26,141.66 C77.2785641,141.649282 77.3014359,141.649282 77.32,141.66 C77.32,141.66 77.38,141.66 77.32,141.66 L77.32,141.78 L77.52,141.78 C77.5247093,141.743485 77.5247093,141.706515 77.52,141.67 C77.52,141.67 77.52,141.62 77.58,141.62 C77.64,141.62 77.64,141.62 77.58,141.67 C77.5848174,141.709855 77.5848174,141.750145 77.58,141.79 L77.79,141.79 L77.79,141.66 C77.79,141.66 77.79,141.66 77.86,141.66 C77.8790571,141.679442 77.8790571,141.710558 77.86,141.73 C77.8648174,141.769855 77.8648174,141.810145 77.86,141.85 L78.04,141.85 C78.04,141.85 78.04,141.77 78.04,141.73 C78.04,141.69 78.04,141.67 78.1,141.73 C78.1185641,141.719282 78.1414359,141.719282 78.16,141.73 C78.1551833,141.776542 78.1551833,141.823458 78.16,141.87 L78.32,141.87 C78.3151826,141.830145 78.3151826,141.789855 78.32,141.75 C78.32,141.68 78.44,141.75 78.42,141.75 C78.4,141.75 78.42,141.82 78.42,141.86 L78.61,141.86 C78.614853,141.830196 78.614853,141.799804 78.61,141.77 C78.61,141.7 78.73,141.7 78.73,141.77 C78.73,141.84 78.73,141.84 78.73,141.88 L78.88,141.88 L78.88,141.88 C78.8894451,141.847336 78.8894451,141.812664 78.88,141.78 C78.8690372,141.754855 78.8765232,141.725477 78.8981824,141.708645 C78.9198417,141.691813 78.9501583,141.691813 78.9718176,141.708645 C78.9934768,141.725477 79.0009628,141.754855 78.99,141.78 C78.9948174,141.819855 78.9948174,141.860145 78.99,141.9 L79.17,141.9 C79.165059,141.8635 79.165059,141.8265 79.17,141.79 C79.17,141.79 79.17,141.79 79.24,141.79 C79.2525043,141.811658 79.2525043,141.838342 79.24,141.86 C79.235147,141.889804 79.235147,141.920196 79.24,141.95 L79.38,141.95 C79.3847093,141.913485 79.3847093,141.876515 79.38,141.84 C79.38,141.77 79.48,141.77 79.49,141.84 C79.4965297,141.879734 79.4965297,141.920266 79.49,141.96 L79.65,141.96 C79.6549288,141.926849 79.6549288,141.893151 79.65,141.86 C79.6595379,141.838123 79.6811344,141.823979 79.705,141.823979 C79.7288656,141.823979 79.7504621,141.838123 79.76,141.86 C79.7649165,141.899849 79.7649165,141.940151 79.76,141.98 L79.91,141.98 C79.9045882,141.946886 79.9045882,141.913114 79.91,141.88 C79.91,141.81 80.03,141.88 80.02,141.88 C80.015147,141.909804 80.015147,141.940196 80.02,141.97 L80.14,141.97 C80.14,141.97 80.14,141.9 80.14,141.87 C80.1290372,141.844855 80.1365232,141.815477 80.1581824,141.798645 C80.1798417,141.781813 80.2101583,141.781813 80.2318176,141.798645 C80.2534768,141.815477 80.2609628,141.844855 80.25,141.87 C80.2549165,141.909849 80.2549165,141.950151 80.25,141.99 L80.38,141.99 L80.38,141.89 C80.3849301,141.860816 80.4104052,141.839587 80.44,141.84 C80.44,141.84 80.5,141.84 80.44,141.89 C80.4449165,141.929849 80.4449165,141.970151 80.44,142.01 L80.58,142.01 L80.58,141.9 C80.569282,141.881436 80.569282,141.858564 80.58,141.84 C80.6131371,141.84 80.64,141.866863 80.64,141.9 L80.64,142.03 L80.76,142.03 C80.76,142.03 80.76,141.96 80.76,141.93 C80.7785641,141.919282 80.8014359,141.919282 80.82,141.93 C80.82,141.93 80.82,142.01 80.82,142.04 L80.96,142.04 C80.9656777,142.013636 80.9656777,141.986364 80.96,141.96 C80.9695379,141.938123 80.9911344,141.923979 81.015,141.923979 C81.0388656,141.923979 81.0604621,141.938123 81.07,141.96 C81.0749288,141.993151 81.0749288,142.026849 81.07,142.06 L81.24,142.06 L81.3,141.76 L76.84,141.43 Z" id="Path" stroke="none" fill="#4C4C47" fill-rule="nonzero"></path>
                        <path d="M93.68,132.75 C94.0654103,132.127426 94.5072718,131.541625 95,131 C95.3869091,130.547062 95.8191615,130.134914 96.29,129.77 C96.29,129.77 99.66,133.6 100.29,134.23 C100.92,134.86 101.96,135.68 101.96,135.68 L99.1,139.57 C98.8583913,139.349744 98.7822131,139.000928 98.91,138.7 C99.12,138.19 99.52,136.99 99.52,136.99 L93.68,132.75 Z" id="Path" stroke="none" fill="#F7EBD8" fill-rule="nonzero"></path>
                        <path d="M99.16,139.55 L99.37,139.71 L99.46,139.59 L99.39,139.52 C99.39,139.52 99.39,139.46 99.39,139.44 L99.46,139.5 L99.58,139.34 L99.5,139.28 C99.5,139.28 99.5,139.23 99.5,139.2 C99.5,139.17 99.5,139.2 99.57,139.2 L99.67,139.27 L99.79,139.11 L99.71,139.04 C99.6932608,139.01596 99.6932608,138.98404 99.71,138.96 C99.71,138.96 99.71,138.96 99.79,138.96 L99.89,139.04 L100.01,138.87 L99.92,138.78 C99.9074097,138.770557 99.9,138.755738 99.9,138.74 C99.9,138.724262 99.9074097,138.709443 99.92,138.7 C99.9545209,138.721099 99.9849988,138.748191 100.01,138.78 L100.12,138.63 L100.02,138.56 C100.02,138.56 100.02,138.51 100.02,138.48 C100.02,138.45 100.02,138.48 100.09,138.48 L100.21,138.56 L100.3,138.43 L100.2,138.36 C100.189042,138.337055 100.193736,138.309695 100.211716,138.291716 C100.229695,138.273736 100.257055,138.269042 100.28,138.28 L100.37,138.34 L100.49,138.19 L100.41,138.13 C100.35,138.13 100.41,138 100.41,138.03 C100.443624,138.048257 100.474028,138.071904 100.5,138.1 L100.59,137.98 L100.59,137.98 C100.568235,137.951596 100.541042,137.927801 100.51,137.91 C100.45,137.91 100.51,137.78 100.56,137.81 C100.597514,137.830974 100.631302,137.858005 100.66,137.89 L100.77,137.74 L100.68,137.68 C100.68,137.68 100.68,137.63 100.68,137.61 C100.68,137.59 100.68,137.61 100.76,137.61 L100.84,137.67 L100.92,137.55 C100.900429,137.521966 100.872392,137.500939 100.84,137.49 C100.77,137.49 100.84,137.36 100.89,137.39 L100.99,137.46 L101.09,137.33 L101,137.27 C100.94,137.27 101,137.14 101.06,137.18 L101.15,137.24 L101.24,137.12 L101.16,137.06 C101.1,137.06 101.16,136.94 101.24,136.98 C101.258949,137.002079 101.282969,137.019236 101.31,137.03 L101.38,136.94 L101.29,136.87 C101.23,136.87 101.29,136.74 101.29,136.77 L101.4,136.85 L101.48,136.74 L101.39,136.74 C101.39,136.74 101.39,136.69 101.39,136.66 C101.39,136.63 101.39,136.66 101.46,136.66 L101.56,136.73 L101.65,136.61 L101.55,136.55 C101.55,136.55 101.55,136.55 101.55,136.47 C101.572776,136.449628 101.607224,136.449628 101.63,136.47 L101.73,136.54 L101.81,136.45 L101.73,136.39 C101.71741,136.380557 101.71,136.365738 101.71,136.35 C101.71,136.334262 101.71741,136.319443 101.73,136.31 C101.73,136.31 101.73,136.31 101.8,136.31 L101.89,136.38 L101.98,136.26 C101.947014,136.223386 101.930482,136.174849 101.934261,136.125712 C101.938041,136.076576 101.961802,136.031138 102,136 C101.97898,136.01018 101.953713,136.004453 101.939137,135.986204 C101.924562,135.967954 101.924562,135.942046 101.939137,135.923796 C101.953713,135.905547 101.97898,135.89982 102,135.91 L102.08,135.96 L102.19,135.83 L101.95,135.63 L99.16,139.55 Z" id="Path" stroke="none" fill="#4C4C47" fill-rule="nonzero"></path>
                        <path d="M90,104.79 C90.5079274,105.604707 91.0761847,106.380211 91.7,107.11 C92.21,107.67 92.86,108.31 92.86,108.31 C92.86,108.31 93.08,109.31 93.32,110.02 C93.56,110.73 93.91,111.75 93.91,111.75 C93.91,111.75 92.42,111.75 90.78,109.65 C89.8779227,108.488546 89.1997244,107.16945 88.78,105.76 L90,104.79 Z" id="Path" stroke="none" fill="#C25C4A" fill-rule="nonzero"></path>
                        <path d="M84.69,105.18 C84.0737929,105.96911 83.5251848,106.808748 83.05,107.69 C82.78,108.43 82.53,109.69 83.43,110.05 C84.05,110.27 85.26,108.64 85.68,107.55 C85.9037485,106.985006 86.0940771,106.407342 86.25,105.82 C86.062618,105.540076 85.7886233,105.329311 85.47,105.22 C84.9,105 84.69,105.18 84.69,105.18 Z" id="Path" stroke="none" fill="#C25C4A" fill-rule="nonzero"></path>
                        <path d="M84.69,105.18 C85.0963355,105.603991 85.6629685,105.836456 86.25,105.82 L86.79,104.63 L86.79,102.91 C86.79,102.91 87.02,102.22 86.62,102.4 C86.22,102.58 85.87,102.7 85.79,103.03 C85.7565831,103.371825 85.6792806,103.707923 85.56,104.03 C85.45,104.11 84.69,105.18 84.69,105.18 Z" id="Path" stroke="none" fill="#DEB995" fill-rule="nonzero"></path>
                        <path d="M86.06,102 C86.6799718,101.89715 87.3165883,101.991593 87.88,102.27 C87.96,102.47 88.33,104.87 88.3,104.93 C88.27,104.99 86.57,104.82 86.57,104.82 L86.06,102 Z" id="Path" stroke="none" fill="#4C4C47" fill-rule="nonzero"></path>
                        <path d="M85.79,103.31 C86.1125254,103.161869 86.4470641,103.041435 86.79,102.95 C86.91,102.87 87.17,102.29 87.27,102.28 C87.37,102.27 87.18,102.94 87.09,103.09 C86.9658416,103.21472 86.8155664,103.31035 86.65,103.37 C86.7686255,103.335959 86.8854431,103.295907 87,103.25 C87.14,103.19 87.3,102.62 87.38,102.59 C87.46,102.56 87.38,103.21 87.38,103.21 C87.38,103.21 87.57,102.95 87.6,103.04 C87.5433913,103.310019 87.4455807,103.569723 87.31,103.81 C86.9721301,104.145858 86.5962601,104.441184 86.19,104.69 L85.79,103.31 Z" id="Path" stroke="none" fill="#DEB995" fill-rule="nonzero"></path>
                        <path d="M87.31,103.57 C87.31,103.42 87.99,103.38 88.37,103.34 C88.8348314,103.257738 89.302724,103.467893 89.55,103.87 C89.83,104.38 90.01,104.79 90.01,104.79 C89.8454763,105.000339 89.6613131,105.194547 89.46,105.37 C89.2679801,105.521947 89.0601075,105.652705 88.84,105.76 C88.84,105.76 88.54,105.07 88.1,105.07 C87.592259,105.094002 87.0833859,105.070567 86.58,105 C86.1906316,104.866934 85.8306845,104.659795 85.52,104.39 C85.52,104.26 85.71,104.32 85.71,104.32 C85.71,104.32 85.51,104.1 85.56,103.99 C85.61,103.88 86.03,104.27 86.23,104.35 C86.3679103,104.405301 86.5124754,104.442282 86.66,104.46 C86.4387826,104.332492 86.2367704,104.174249 86.06,103.99 C85.87,103.75 85.8,103.59 85.87,103.53 C85.94,103.47 86.21,103.78 86.36,103.86 L86.76,104.07 C86.5584734,103.913391 86.3710871,103.73939 86.2,103.55 C86.09,103.37 86.02,103.3 86.09,103.26 C86.16,103.22 86.45,103.48 86.61,103.57 C86.8262624,103.719429 87.0663472,103.831017 87.32,103.9 C87.521747,103.93592 87.728253,103.93592 87.93,103.9 C88.0979765,103.853487 88.2618584,103.793286 88.42,103.72 C88.1891142,103.762279 87.9547129,103.78237 87.72,103.78 C87.38,103.75 87.29,103.68 87.31,103.57 Z" id="Path" stroke="none" fill="#F3D8B5" fill-rule="nonzero"></path>
                        <path d="M91.49,116 C93.0816982,114.845905 94.7952985,113.870058 96.6,113.09 C97.275606,113.760205 97.7590716,114.599363 98,115.52 C97.93,115.83 93.6,118.64 92.89,118.6 C92.36,118.6 91.39,116.38 91.49,116 Z" id="Path" stroke="none" fill="#7B5A4B" fill-rule="nonzero"></path>
                        <path d="M91.67,115.88 C93.2299176,114.767669 94.9064967,113.828785 96.67,113.08 C97.3040846,113.734976 97.7616851,114.540078 98,115.42 C96.512083,116.557769 94.8815479,117.495747 93.15,118.21 C92.64,118.19 91.58,116.22 91.67,115.88 Z" id="Path" stroke="none" fill="#C77539" fill-rule="nonzero"></path>
                        <path d="M95.16,115.25 L94.61,115.53 C94.5665459,115.554156 94.5150361,115.559263 94.4676847,115.54411 C94.4203334,115.528958 94.3813578,115.494895 94.36,115.45 C94.3155671,115.358679 94.3508048,115.24856 94.44,115.2 L94.99,114.92 C95.0813215,114.875567 95.1914395,114.910805 95.24,115 C95.2641556,115.043454 95.2692627,115.094964 95.2541102,115.142315 C95.2389578,115.189667 95.2048954,115.228642 95.16,115.25 L95.16,115.25 Z" id="Path" stroke="none" fill="#F2D4AD" fill-rule="nonzero"></path>
                        <path d="M80.8,134.71 C80.8,135.07 80.8,135.42 80.74,135.78 C80.74,135.95 80.74,136.13 80.74,136.31 L80.67,136.83 C80.6166667,137.183333 80.5566667,137.516667 80.49,137.83 C80.4286667,138.167539 80.3485421,138.501391 80.25,138.83 C80.25,138.47 80.25,138.12 80.31,137.77 C80.37,137.42 80.38,137.06 80.43,136.71 L80.51,136.19 C80.51,136.01 80.57,135.84 80.61,135.66 C80.63,135.41 80.7,135.06 80.8,134.71 Z" id="Path" stroke="none" fill="#FFFFFF" fill-rule="nonzero"></path>
                        <path d="M96.32,130.58 C96.5356889,130.745831 96.7426334,130.922735 96.94,131.11 L97.52,131.69 C97.91,132.08 98.28,132.47 98.65,132.87 L100.58,134.96 L100.88,135.24 C100.762125,135.170272 100.648583,135.093464 100.54,135.01 L100.38,134.89 L100.22,134.76 L99.61,134.21 C99.41,134.02 99.22,133.82 99.03,133.63 C98.84,133.44 98.66,133.23 98.47,133.04 C98.47,133 96.69,131 96.32,130.58 Z" id="Path" stroke="none" fill="#FFFFFF" fill-rule="nonzero"></path>
                        <path d="M158.52,124.53 C159.99,115.53 161.09,105.44 161.09,105.44 L148.42,104.89 C148.24,118.11 145.12,134.26 146.59,149.32 C147.177488,156.416148 148.219628,163.467296 149.71,170.43 C150.01,172.52 155.91,171.93 158.09,171.64 C157.74,171.11 157.42,169.53 157.42,165.47 C157.42,156.84 157.05,133.53 158.52,124.53 Z" id="Path" stroke="none" fill="#DC8C54" fill-rule="nonzero"></path>
                        <path d="M173.56,124.4 C174.78,115.4 175.61,105.25 175.61,105.25 L162.93,105 C163.11,118.22 160.43,134.46 162.31,149.46 C163.097365,156.530604 164.32981,163.544521 166,170.46 C166.36,172.55 172.24,171.8 174.41,171.46 C174.05,170.93 173.69,169.36 173.58,165.31 C173.34,156.73 172.34,133.44 173.56,124.4 Z" id="Path" stroke="none" fill="#DC8C54" fill-rule="nonzero"></path>
                        <path d="M146.31,155.44 C146.31,155.44 147.51,165.88 147.78,168.59 C147.913208,169.965793 147.969962,171.347918 147.95,172.73 C147.95,173.282285 148.397715,173.73 148.95,173.73 L162.65,173.73 C162.824116,173.740906 162.995308,173.681363 163.125075,173.564761 C163.254842,173.448159 163.332289,173.284287 163.34,173.11 C163.34,172.48 163.24,171.59 162.34,171.39 C161.28827,171.093632 160.258996,170.722693 159.26,170.28 C158.706128,170.040175 158.348273,169.493562 158.35,168.89 L159.04,155.21 L146.31,155.44 Z" id="Path" stroke="none" fill="#6C7A78" fill-rule="nonzero"></path>
                        <path d="M148,172.73 C148,173.282285 148.447715,173.73 149,173.73 L162.7,173.73 C162.874116,173.740906 163.045308,173.681363 163.175075,173.564761 C163.304842,173.448159 163.382289,173.284287 163.39,173.11 C163.404576,172.950332 163.404576,172.789668 163.39,172.63 L148,172.63 L148,172.73 Z" id="Path" stroke="none" fill="#21353C" fill-rule="nonzero"></path>
                        <path d="M162.38,155.67 C162.38,155.67 163.57,166.11 163.84,168.82 C163.976623,170.208897 164.030052,171.604723 164,173 C164,173.552285 164.447715,174 165,174 L178.7,174 C178.874116,174.010906 179.045308,173.951363 179.175075,173.834761 C179.304842,173.718159 179.382289,173.554287 179.39,173.38 C179.39,172.75 179.3,171.86 178.39,171.66 C177.342942,171.359234 176.317295,170.988398 175.32,170.55 C174.760689,170.316678 174.400138,169.765946 174.41,169.16 L175.09,155.48 L162.38,155.67 Z" id="Path" stroke="none" fill="#6C7A78" fill-rule="nonzero"></path>
                        <path d="M164,173 C164,173.552285 164.447715,174 165,174 L178.7,174 C178.874116,174.010906 179.045308,173.951363 179.175075,173.834761 C179.304842,173.718159 179.382289,173.554287 179.39,173.38 C179.404801,173.220342 179.404801,173.059658 179.39,172.9 L164,172.9 L164,173 Z" id="Path" stroke="none" fill="#21353C" fill-rule="nonzero"></path>
                        <path d="M189,53.79 C183.43,54.57 179,46.89 179,46.89 C177.388238,49.467028 176.006247,52.1808167 174.87,55 C172.264093,55.9035864 169.55098,56.4616741 166.8,56.66 C162.982559,56.8833693 159.154891,56.4573215 155.48,55.4 C155.23,53.65 152.97,48.71 152.97,48.71 L151.1,57.58 C150.009316,57.0102251 148.771808,56.7836392 147.55,56.93 C145.31,57.15 144.55,58.34 143.8,59.68 C143.291522,52.4030061 144.191287,45.0962385 146.45,38.16 C149.03,30.33 153.85,29.45 158.85,27.6 L169.24,27.09 C171.876143,27.6534744 174.404899,28.6359417 176.73,30 C180.29,32.13 183.66,37.44 185.37,40.67 C187.08,43.9 194.56,53 189,53.79 Z" id="Path" stroke="none" fill="#EE584B" fill-rule="nonzero"></path>
                        <path d="M171.66,64.11 C171.902598,65.1927999 172.254399,66.2482011 172.71,67.26 C173.37,68.6 174.31,70.72 174.31,70.72 C174.31,70.72 186,59 188.82,54.11 C188.99,53.83 189.15,53.53 189.32,53.22 C189.13,51.7 188.88,50.3 186.89,49.22 C185.817073,48.6171414 184.584713,48.3587996 183.36,48.48 L183.36,48.6 C179.83,55.26 171.66,64.11 171.66,64.11 Z" id="Path" stroke="none" fill="#DC8C54" fill-rule="nonzero"></path>
                        <path d="M176.08,68.9 L174.31,70.72 C174.31,70.72 173.37,68.6 172.71,67.26 C172.254399,66.2482011 171.902598,65.1927999 171.66,64.11 C171.66,64.11 173.47,67.75 176.08,68.9 Z" id="Path" stroke="none" fill="#134D82" fill-rule="nonzero" opacity="0.17" style="mix-blend-mode: multiply;"></path>
                        <path d="M160.88,15.88 C161.099305,18.4291939 161.035583,20.994836 160.69,23.53 C160.39,25.89 159.86,27.01 158.85,27.63 C159.931993,30.0822315 161.244559,32.4260994 162.77,34.63 C166.04,39.22 168.61,40.7 169.77,42.16 C170.194693,39.374772 170.328747,36.5529449 170.17,33.74 C169.978427,31.5076274 169.644414,29.2897761 169.17,27.1 C168.916541,26.4097698 168.748622,25.6910799 168.67,24.96 C168.75323,22.951291 168.9435,20.9484482 169.24,18.96 L160.88,15.88 Z" id="Path" stroke="none" fill="url(#linearGradient-3)" fill-rule="nonzero"></path>
                        <path d="M143.86,60.31 C142.86,59.74 142.11,57.93 142.34,57.5 C143.342767,56.0139325 144.885269,54.9772276 146.64,54.61 C149.13,54.19 151.8,55.26 151.83,55.49 C151.86,55.72 151.45,57.99 151.02,58.15 C150.59,58.31 143.86,60.31 143.86,60.31 Z" id="Path" stroke="none" fill="#EE584B" fill-rule="nonzero"></path>
                        <path d="M144.17,54.28 C144.602334,53.8946379 145.100195,53.5898254 145.64,53.38 C146.182092,53.1652912 146.750463,53.0240393 147.33,52.96 C147.910459,52.9031888 148.495981,52.9267443 149.07,53.03 C149.639792,53.126272 150.184114,53.3371968 150.67,53.65 C150.131175,53.496108 149.578511,53.3956236 149.02,53.35 C148.471135,53.3000345 147.918865,53.3000345 147.37,53.35 C146.822563,53.4045377 146.280664,53.5048894 145.75,53.65 C145.205519,53.8122311 144.676725,54.0230796 144.17,54.28 L144.17,54.28 Z" id="Path" stroke="none" fill="#F0929C" fill-rule="nonzero" opacity="0.17" style="mix-blend-mode: multiply;"></path>
                        <path d="M143.35,57.93 C143.763155,57.4017831 144.276241,56.9600539 144.86,56.63 C145.439427,56.2938218 146.066591,56.0476768 146.72,55.9 C147.374794,55.7456844 148.048175,55.6850801 148.72,55.72 C149.390007,55.7500798 150.046789,55.9168277 150.65,56.21 C150.015649,56.0778164 149.367458,56.0240805 148.72,56.05 C148.079765,56.0678969 147.443073,56.151672 146.82,56.3 C146.196351,56.4417684 145.58959,56.6496091 145.01,56.92 C144.418143,57.1888367 143.860801,57.5279428 143.35,57.93 L143.35,57.93 Z" id="Path" stroke="none" fill="#F0929C" fill-rule="nonzero" opacity="0.17" style="mix-blend-mode: multiply;"></path>
                        <path d="M169.59,56.37 L169.38,56.37 C169.52,55.66 169.93,54.18 170.38,52.62 C170.94,50.62 171.57,48.27 171.71,47.3 C171.95,45.71 171.38,44.3 169.77,42.3 L169.93,42.17 C171.58,44.17 172.16,45.69 171.93,47.34 C171.79,48.34 171.15,50.64 170.59,52.69 C170.13,54.19 169.73,55.66 169.59,56.37 Z" id="Path" stroke="none" fill="#134D82" fill-rule="nonzero" opacity="0.17" style="mix-blend-mode: multiply;"></path>
                        <path d="M126.84,7.41 C126.27,4.75 130.18,3.3 132.19,4.14 C134.2,4.98 135.77,3.34 137.06,2.67 C138.35,2 141,0.91 142.75,2 C144.5,3.09 146.75,3.44 148.32,2.38 C149.89,1.32 151.2,0.25 153.49,0.05 C156.13,-0.17 157.49,1.26 158.58,1.22 C160.58,1.16 162.3,-0.59 165.22,0.22 C167.07,0.73 171.72,2.77 170.98,7.38 C170.31,11.52 162.45,16.68 162.45,16.68 C162.45,16.68 159.17,20.59 155.66,20.06 C152.86,19.63 152.99,17.81 150.77,17.93 C148.55,18.05 147.59,18.67 145.19,17.78 C143.51,17.16 143.19,15.18 141.33,15.32 C139.47,15.46 139.04,16.46 136.42,15.45 C133.8,14.44 133.55,11.27 131.75,11.24 C129.26,11.18 127.42,10.14 126.84,7.41 Z" id="Path" stroke="none" fill="#000000" fill-rule="nonzero"></path>
                        <path d="M166.91,5.13 C168.142771,5.43041391 169.21522,6.18827773 169.91,7.25 C170.67128,8.6392821 171.204726,10.1417093 171.49,11.7 C171.841066,13.3081013 171.955606,14.9588236 171.83,16.6 C171.68,19.04 170.36,20.71 168.83,21.2 C167.030421,21.8769359 165.019098,21.6850298 163.38,20.68 C161.32,19.38 160.59,17.06 160.23,15.18 C160.070938,14.5016672 159.957352,13.8134695 159.89,13.12 C161.385863,12.8608966 162.551411,11.6792718 162.79,10.18 C163.14,8.41 165.22,7.62 165.88,7.01 C166.351895,6.46286037 166.702891,5.82220865 166.91,5.13 Z" id="Path" stroke="none" fill="#DC8C54" fill-rule="nonzero"></path>
                        <path d="M160.56,11.29 C159.313308,10.9061897 157.956815,11.2627535 157.06,12.21 C155.55,13.83 156.52,16.44 158.06,17.21 C159.6,17.98 161.64,16.81 161.64,16.81 C161.295998,15.832241 161.028526,14.8292194 160.84,13.81 C160.680152,12.9787294 160.586525,12.1360843 160.56,11.29 L160.56,11.29 Z" id="Path" stroke="none" fill="url(#linearGradient-4)" fill-rule="nonzero"></path>
                        <path d="M158.62,13.23 C158.244065,13.6130595 158.086754,14.1599246 158.201689,14.6841875 C158.316623,15.2084504 158.68829,15.6393473 159.19,15.83 C159.870402,15.9918202 160.58702,15.8843275 161.19,15.53 C161.06,15.04 160.91,14.46 160.8,13.85 C160.69,13.24 160.65,12.93 160.61,12.57 C159.880852,12.476322 159.148655,12.7191615 158.62,13.23 L158.62,13.23 Z" id="Path" stroke="none" fill="#DC8C54" fill-rule="nonzero"></path>
                        <path d="M165.84,12.36 C165.84,12.61 165.84,12.83 165.61,12.86 C165.38,12.89 165.28,12.71 165.24,12.46 C165.2,12.21 165.24,11.99 165.46,11.95 C165.68,11.91 165.79,12.1 165.84,12.36 Z" id="Path" stroke="none" fill="#000000" fill-rule="nonzero"></path>
                        <path d="M171.08,11.44 C171.08,11.69 171.08,11.9 170.87,11.93 C170.66,11.96 170.54,11.78 170.5,11.54 C170.46,11.3 170.5,11.09 170.72,11.05 C170.94,11.01 171,11.2 171.08,11.44 Z" id="Path" stroke="none" fill="#000000" fill-rule="nonzero"></path>
                        <path d="M170.81,9.33 C169.68,9.42 169.51,9.88 169.59,10.17 C169.978372,9.98373273 170.393317,9.85891189 170.82,9.8 L171,9.8 L170.85,9.36 L170.81,9.33 Z" id="Path" stroke="none" fill="#21312A" fill-rule="nonzero"></path>
                        <path d="M163.92,11.12 C163.92,11.12 164.13,10.57 165.22,10.26 C166.31,9.95 166.62,10.31 166.65,10.62 C166.221842,10.5758496 165.789329,10.6028817 165.37,10.7 C164.875956,10.7999544 164.390983,10.9404292 163.92,11.12 L163.92,11.12 Z" id="Path" stroke="none" fill="#21312A" fill-rule="nonzero"></path>
                        <path d="M167.73,10.57 L167.73,10.44 C168.488087,11.5740522 169.381314,12.6116735 170.39,13.53 C170.78,13.99 170.33,14.53 169.85,14.72 C169.309591,14.8516107 168.762005,14.9517788 168.21,15.02" id="Path" stroke="url(#linearGradient-5)" stroke-width="0.14" fill="none"></path>
                        <path d="M171,16.39 C171.104851,16.8814968 170.995826,17.3943943 170.700124,17.8007472 C170.404421,18.2071001 169.94992,18.4685948 169.45,18.52 C168.956816,18.6310894 168.439649,18.5296625 168.024958,18.2405204 C167.610268,17.9513782 167.336283,17.5011768 167.27,17 C167.13,16.17 167.87,16.44 169.09,16.23 C170.31,16.02 170.83,15.59 171,16.39 Z" id="Path" stroke="none" fill="#EF5123" fill-rule="nonzero"></path>
                        <path d="M171,16.53 C171.15,17.37 170.23,17.98 169.4,18.1 C168.57,18.22 167.52,17.98 167.4,17.1 C167.28,16.22 168.01,16.77 169.21,16.57 C170.41,16.37 170.81,15.69 171,16.53 Z" id="Path" stroke="none" fill="#FFFFFF" fill-rule="nonzero"></path>
                        <path d="M155.4,54.93 C147.78,63.56 139.98,76.62 135.4,106.17 C135.4,106.17 140.4,111.5 156.51,112.42 C172.62,113.34 179.28,111.31 179.28,111.31 C180.250709,100.441632 180.250709,89.5083683 179.28,78.64 C177.62,61.75 175.37,54.52 175.37,54.52 L155.4,54.93 Z" id="Path" stroke="none" fill="#21312A" fill-rule="nonzero"></path>
                        <path d="M149.79,82.42 C152.05,81.04 155.99,76.42 155.99,76.42 C155.99,76.42 156.99,61.56 158.2,55.42 L157.29,54.99 L155.41,54.99 C151.545179,64.0057253 149.063875,73.553351 148.05,83.31 C148.65367,83.062084 149.235676,82.7643913 149.79,82.42 Z" id="Path" stroke="none" fill="#231E0F" fill-rule="nonzero"></path>
                        <path d="M156,76.49 C155.36085,77.3958992 154.634006,78.2366263 153.83,79 C152.71,80 151.04,81.59 151.04,81.59 C151.04,81.59 144.7,66.29 143.92,60.72 C143.92,60.4 143.83,60.06 143.8,59.72 C144.55,58.38 145.31,57.19 147.55,56.97 C148.771808,56.8236392 150.009316,57.0502251 151.1,57.62 L151.1,57.74 C151.8,65.19 156,76.49 156,76.49 Z" id="Path" stroke="none" fill="#DC8C54" fill-rule="nonzero"></path>
                        <path d="M271.31,22.18 C271.31,6.79 294.61,6.76 294.61,22.18 C303.26,22.18 312.61,20.73 312.61,29.52 C312.599012,33.5692098 309.31921,36.8490116 305.27,36.86 L261,36.86 C251.29,36.86 251.3,22.18 261,22.18 L271.31,22.18 Z" id="Path" stroke="none" fill="#B3E9F1" fill-rule="nonzero"></path>
                        <path d="M17.58,25.56 C17.58,10.16 40.88,10.14 40.88,25.56 C49.53,25.56 58.88,24.1 58.88,32.9 C58.8690116,36.9492098 55.5892098,40.2290116 51.54,40.24 L7.28,40.24 C-2.43,40.24 -2.42,25.56 7.28,25.56 L17.58,25.56 Z" id="Path" stroke="none" fill="#B3E9F1" fill-rule="nonzero"></path>
                        <path d="M54.66,28.09 C54.66,17.43 70.79,17.41 70.79,28.09 C76.79,28.09 83.24,27.09 83.24,33.17 C83.2290368,35.9710529 80.9610529,38.2390368 78.16,38.25 L47.53,38.25 C40.81,38.25 40.82,28.09 47.53,28.09 L54.66,28.09 Z" id="Path" stroke="none" fill="#B3E9F1" fill-rule="nonzero"></path>
                    </g>
                </g>
            </g>
        </g>
    </g>
</svg>