<?xml version="1.0" encoding="UTF-8"?>
<svg width="344px" height="184px" viewBox="0 0 344 184" version="1.1" xmlns="http://www.w3.org/2000/svg" xmlns:xlink="http://www.w3.org/1999/xlink">
    <title>EA718888-C4BF-4E93-BCC6-301F7A0C72C8</title>
    <defs>
        <rect id="path-1" x="0" y="0" width="344" height="184"></rect>
        <linearGradient x1="0.0204379562%" y1="50.1164557%" x2="99.7861314%" y2="50.1164557%" id="linearGradient-3">
            <stop stop-color="#E0B292" offset="0%"></stop>
            <stop stop-color="#EBBB8D" offset="100%"></stop>
        </linearGradient>
        <linearGradient x1="0.714102564%" y1="49.6644444%" x2="99.7564103%" y2="49.6644444%" id="linearGradient-4">
            <stop stop-color="#E0B292" offset="0%"></stop>
            <stop stop-color="#EBBB8D" offset="100%"></stop>
        </linearGradient>
        <linearGradient x1="50.5891937%" y1="-0.132618136%" x2="50.5891937%" y2="100.020008%" id="linearGradient-5">
            <stop stop-color="#37B99A" offset="0%"></stop>
            <stop stop-color="#6C7A78" offset="100%"></stop>
        </linearGradient>
        <linearGradient x1="44.4252675%" y1="43.1563703%" x2="37.3832677%" y2="33.2220646%" id="linearGradient-6">
            <stop stop-color="#6C7A78" offset="0%"></stop>
            <stop stop-color="#FFFFFF" offset="100%"></stop>
        </linearGradient>
        <linearGradient x1="50.1667172%" y1="0.348447248%" x2="50.1667172%" y2="100.076408%" id="linearGradient-7">
            <stop stop-color="#37B99A" offset="0%"></stop>
            <stop stop-color="#6C7A78" offset="100%"></stop>
        </linearGradient>
        <linearGradient x1="50.0652804%" y1="0.167362701%" x2="49.9407396%" y2="100.062652%" id="linearGradient-8">
            <stop stop-color="#37B99A" offset="0%"></stop>
            <stop stop-color="#6C7A78" offset="100%"></stop>
        </linearGradient>
        <linearGradient x1="63.0886759%" y1="2.55693183%" x2="23.811621%" y2="88.3815431%" id="linearGradient-9">
            <stop stop-color="#37B99A" offset="0%"></stop>
            <stop stop-color="#6C7A78" offset="100%"></stop>
        </linearGradient>
        <linearGradient x1="42.4590755%" y1="37.0465707%" x2="34.9044735%" y2="23.1211823%" id="linearGradient-10">
            <stop stop-color="#6C7A78" offset="0%"></stop>
            <stop stop-color="#FFFFFF" offset="100%"></stop>
        </linearGradient>
        <linearGradient x1="53.0326227%" y1="8.22498039%" x2="42.4543285%" y2="106.599227%" id="linearGradient-11">
            <stop stop-color="#37B99A" offset="0%"></stop>
            <stop stop-color="#6C7A78" offset="100%"></stop>
        </linearGradient>
        <linearGradient x1="48.5969114%" y1="47.3719063%" x2="45.4112954%" y2="43.3684975%" id="linearGradient-12">
            <stop stop-color="#6C7A78" offset="0%"></stop>
            <stop stop-color="#FFFFFF" offset="100%"></stop>
        </linearGradient>
        <linearGradient x1="48.3076622%" y1="18.2699267%" x2="54.8360538%" y2="111.61742%" id="linearGradient-13">
            <stop stop-color="#37B99A" offset="0%"></stop>
            <stop stop-color="#6C7A78" offset="100%"></stop>
        </linearGradient>
        <linearGradient x1="50.8245681%" y1="49.2859223%" x2="53.3309673%" y2="46.6621359%" id="linearGradient-14">
            <stop stop-color="#6C7A78" offset="0%"></stop>
            <stop stop-color="#FFFFFF" offset="100%"></stop>
        </linearGradient>
        <linearGradient x1="44.3473025%" y1="16.427796%" x2="61.1908439%" y2="104.483071%" id="linearGradient-15">
            <stop stop-color="#37B99A" offset="0%"></stop>
            <stop stop-color="#6C7A78" offset="100%"></stop>
        </linearGradient>
        <linearGradient x1="50.000945%" y1="-0.130479331%" x2="50.000945%" y2="100.034115%" id="linearGradient-16">
            <stop stop-color="#37B99A" offset="0%"></stop>
            <stop stop-color="#6C7A78" offset="100%"></stop>
        </linearGradient>
        <linearGradient x1="85.3685879%" y1="11.1475266%" x2="8.10018102%" y2="84.8323298%" id="linearGradient-17">
            <stop stop-color="#37B99A" offset="0%"></stop>
            <stop stop-color="#6C7A78" offset="100%"></stop>
        </linearGradient>
        <linearGradient x1="49.0908789%" y1="-0.242426199%" x2="49.0908789%" y2="99.2175844%" id="linearGradient-18">
            <stop stop-color="#37B99A" offset="0%"></stop>
            <stop stop-color="#6C7A78" offset="100%"></stop>
        </linearGradient>
        <linearGradient x1="-1.27327935%" y1="50.5444262%" x2="89.8813765%" y2="49.5712272%" id="linearGradient-19">
            <stop stop-color="#E0B292" offset="0%"></stop>
            <stop stop-color="#EBBB8D" offset="100%"></stop>
        </linearGradient>
        <linearGradient x1="37.5921714%" y1="46.1242239%" x2="62.4555981%" y2="53.8361003%" id="linearGradient-20">
            <stop stop-color="#E0B292" offset="0%"></stop>
            <stop stop-color="#EBBB8D" offset="100%"></stop>
        </linearGradient>
        <rect id="path-21" x="0.42" y="0.87" width="79.1" height="51.61"></rect>
    </defs>
    <g id="Patient---Mobile" stroke="none" stroke-width="1" fill="none" fill-rule="evenodd">
        <g id="home_new_patient_sched_screening" transform="translate(-16.000000, -128.000000)">
            <g id="ill_next_appt_scheduled_woman" transform="translate(16.000000, 128.000000)">
                <mask id="mask-2" fill="white">
                    <use xlink:href="#path-1"></use>
                </mask>
                <use id="Mask" fill="#FFFFFF" xlink:href="#path-1"></use>
                <g id="6-female" mask="url(#mask-2)">
                    <g transform="translate(19.000000, 4.000000)" id="Female_version_3_">
                        <path d="M179.8,73.3 C187.6,82 189.4,106.8 188.7,115.2 C188,123.6 167.3,137.5 167.3,137.5 L139.2,104.3 C139.2,104.3 149.3,91.9 148.5,84.4 C147.7,76.9 150.8,61.8 163.6,65.1 C176.4,68.4 176.7,69.8 179.8,73.3 Z" id="Path" fill="#BFD6C4" fill-rule="nonzero"></path>
                        <g id="Group" transform="translate(0.000000, 92.000000)" fill-rule="nonzero">
                            <path d="M279.4,8.4 C231.7,12 184.1,14.4 136.7,14.6 C96.8,14.6 56.7,13.1 16.5,10 C7.4,10 0.1,17.4 0.1,26.4 L0.1,61.5 C0.1,69.6 6.6,74.4 13.6,77.7 C29.9,85.3 140.9,85.9 210.5,82.9 C246.1,81.8 274.7,79.6 282.3,76.1 C289.4,72.8 295.801002,68 295.801002,59.9 L295.801002,24.8 C295.9,15.7 288.5,8.4 279.4,8.4 Z" id="Path" fill="#BFD6C5"></path>
                            <path d="M279.4,0.3 C231.7,3.9 184.1,6.3 136.7,6.5 C96.8,6.5 56.7,5 16.5,1.9 C7.4,1.9 0.1,9.3 0.1,18.3 L0.1,53.4 C0.1,61.5 6.6,66.3 13.6,69.6 C29.9,77.2 140.9,77.8 210.5,74.8 C246.1,73.7 274.7,71.5 282.3,68 C289.4,64.7 295.801002,59.9 295.801002,51.8 L295.801002,16.7 C295.9,7.7 288.5,0.3 279.4,0.3 Z" id="Path" fill="#DDE9E8"></path>
                        </g>
                        <g id="Group" transform="translate(46.000000, 127.000000)" fill-rule="nonzero">
                            <g>
                                <path d="M4.4,18.9 L1.3,14 C0.6,12.9 0.9,11.4 2,10.7 L16.7,1.4 C17.8,0.7 19.3,1 20,2.1 L23.1,7 C23.8,8.1 23.5,9.6 22.4,10.3 L7.7,19.6 C6.6,20.3 5.1,20 4.4,18.9 Z" id="Path" fill="#383A4A"></path>
                                <path d="M18.1,1.5 C18.5,1.5 18.9,1.7 19.2,2.1 L22.8,7.7 C23.2,8.3 23,9.1 22.4,9.5 L7,19.2 C6.8,19.3 6.6,19.4 6.3,19.4 C5.9,19.4 5.5,19.2 5.2,18.8 L1.6,13.2 C1.2,12.6 1.4,11.8 2,11.4 L17.4,1.6 C17.7,1.6 17.9,1.5 18.1,1.5 Z M18.1,0.8 C17.7,0.8 17.4,0.9 17,1.1 L1.6,10.9 C0.7,11.5 0.4,12.7 1,13.6 L4.6,19.2 C5,19.8 5.6,20.1 6.3,20.1 C6.7,20.1 7,20 7.4,19.8 L22.8,10 C23.7,9.4 24,8.2 23.4,7.3 L19.8,1.7 C19.4,1.1 18.8,0.8 18.1,0.8 Z" id="Shape" fill="#242638"></path>
                            </g>
                            <rect id="Rectangle" fill="#B8B8B8" transform="translate(5.916950, 14.350100) rotate(-31.606376) translate(-5.916950, -14.350100) " x="5.5669371" y="12.0000134" width="1" height="4.70017319"></rect>
                            <rect id="Rectangle" fill="#B8B8B8" transform="translate(18.864745, 6.310705) rotate(-33.691657) translate(-18.864745, -6.310705) " x="18.5147597" y="3.9608036" width="1" height="4.69980281"></rect>
                        </g>
                        <g id="Group" transform="translate(196.000000, 100.000000)" fill-rule="nonzero">
                            <path d="M9.8,20.6 L3,20.6 C1.7,20.6 0.6,19.5 0.6,18.2 L0.6,6.6 C0.6,6.4 0.7,6.3 0.9,6.3 L12,6.3 C12.2,6.3 12.3,6.4 12.3,6.6 L12.3,18.2 C12.2,19.5 11.1,20.6 9.8,20.6 Z" id="Path" fill="#37B99A"></path>
                            <path d="M13.3,16.3 L12.1,16.3 C10.3,16.3 8.8,14.8 8.8,13 L8.8,11.2 C8.8,9.4 10.3,7.9 12.1,7.9 L13.3,7.9 C15.1,7.9 16.6,9.4 16.6,11.2 L16.6,13 C16.6,14.8 15.1,16.3 13.3,16.3 Z M12.1,9.4 C11.1,9.4 10.2,10.2 10.2,11.3 L10.2,13.1 C10.2,14.1 11,15 12.1,15 L13.3,15 C14.3,15 15.2,14.2 15.2,13.1 L15.2,11.3 C15.2,10.3 14.4,9.4 13.3,9.4 L12.1,9.4 Z" id="Shape" fill="#37B99A"></path>
                            <rect id="Rectangle" fill="#FFFFFF" x="3.1" y="13.5" width="6.8" height="1"></rect>
                            <rect id="Rectangle" fill="#FFFFFF" x="3.1" y="15.3" width="6.8" height="1"></rect>
                            <circle id="Oval" fill="#FFFFFF" cx="6.4" cy="6" r="5.8"></circle>
                            <path d="M11.4,6 C11.4,6.3 11.4,6.6 11.3,7 C10.9,4.7 8.8,2.9 6.3,2.9 C3.8,2.9 1.8,4.7 1.3,7 C1.2,6.7 1.2,6.4 1.2,6 C1.2,3.2 3.5,1 6.2,1 C9.2,1 11.4,3.2 11.4,6 Z" id="Path" fill="#37B99A"></path>
                            <path d="M11.3,7 C10.9,9.3 8.8,11.1 6.3,11.1 C3.8,11.1 1.8,9.3 1.3,7 C1.7,4.7 3.8,2.9 6.3,2.9 C8.8,2.9 10.9,4.6 11.3,7 Z" id="Path" fill="#61433A"></path>
                            <g opacity="0.39" transform="translate(2.000000, 0.000000)" fill="#FFFFFF" id="Path">
                                <path d="M1.4,2.3 C1.5,2.6 1.5,3.1 1.7,3.8 C1.9,4.6 2.3,5.1 2.3,5.4 C2.7,6.6 2.2,7.9 1.5,8.2 C1.4,8.3 1.4,8.3 1.4,8 C1.4,7.4 1.2,6.4 0.9,5.8 C0.2,4.3 0.6,2.9 1.4,2.3 Z"></path>
                                <path d="M7.1,8.2 C7.2,5.6 6,5.6 6.2,3.8 C6.3,3.3 6.5,2.8 6.9,2.4 C7.3,2 6.8,2.7 8,5.2 C8.5,6.4 7.9,7.8 7.1,8.2 Z"></path>
                                <path d="M4.3,6.3 C4.4,3.7 3.2,3.7 3.4,1.9 C3.5,1.4 3.7,0.9 4.1,0.5 C4.5,0.1 4,0.8 5.2,3.3 C5.7,4.6 5.1,6 4.3,6.3 Z"></path>
                            </g>
                        </g>
                        <g id="Group" transform="translate(22.000000, 67.000000)" fill-rule="nonzero">
                            <g transform="translate(3.000000, 20.000000)">
                                <polygon id="Path" fill="url(#linearGradient-3)" points="3 23 13.8 23 15.3 7.2 1.6 7.2"></polygon>
                                <path d="M8.4,19.3 C6.2,19.3 4.2,18.8 2.5,18 L1.8,10.3 L15,10.3 L14.3,18 C12.6,18.8 10.6,19.3 8.4,19.3 Z" id="Path" fill="#714837" opacity="0.34"></path>
                                <path d="M16.2,9.8 L15,17.1 C13.2,18.1 10.9,18.8 8.4,18.8 C5.9,18.8 3.6,18.2 1.8,17.1 L0.6,9.8 L16.2,9.8 Z" id="Path" fill="url(#linearGradient-4)"></path>
                                <circle id="Oval" fill="#F1D39D" cx="8.4" cy="8.3" r="7.8"></circle>
                            </g>
                            <g id="Path">
                                <path d="M7.9,29.8 C8,29.7 8.1,29.6 8.2,29.5 C8.2,29.5 8.2,29.5 8.2,29.5 C8.2,29.5 8.2,29.5 8.3,29.5 C8.5,29.4 8.3,29.5 8.3,29.5 L8.3,29.5 C8.3,29.5 9,29.3 9.1,29.3 C9.1,29.3 9.1,29.3 9.1,29.3 C9.5,29.3 9.8,29.3 10.2,29.3 C10.3,29.3 10.5,29.3 10.5,29.3 C10.5,29.3 10.5,29.3 10.5,29.3 C11.9,22.6 15.8,14.5 17.4,11.4 C19.1,8 25.9,1.8 29,5.2 C32.1,8.6 26.9,13.2 22.6,17 C18.7,20.4 15.5,24.6 13.3,30.1 C13.4,30.2 13.5,30.2 13.6,30.3 C13.8,30.4 13.9,30.5 14.1,30.6 C14.2,30.6 14.4,30.8 14.4,30.8 C14.6,31 14.9,31.2 15.1,31.4 C15.4,31.7 15.7,32 15.9,32.3 C15.9,32.3 15.9,32.3 15.9,32.3 C15.9,32.3 15.9,32.3 15.9,32.3 C14.7,33.5 13.1,34.2 11.2,34.2 C8.9,34.2 6.9,33.1 5.7,31.3 C6.6,31 7.3,30.4 7.9,29.8 Z" fill="url(#linearGradient-5)"></path>
                                <path d="M10.4,29.2 C10.5,29.2 10.5,29.2 10.5,29.2 C10.5,29.2 10.5,29.2 10.5,29.2 C11.9,22.5 15.8,14.4 17.4,11.3 C19.2,8 26,1.8 29,5.1 C24.9,8.7 18.3,14.7 16.2,19.1 C13.9,23.8 12.3,32.2 12.3,32.2 L9.7,31.8 L10.4,29.2 Z" fill="url(#linearGradient-6)" opacity="0.17"></path>
                                <path d="M11.6,30.3 C13.4,24.1 18.3,11.9 17.9,5.7 C17.6,-0.5 14.7,0.3 13.5,1.6 C12.3,2.9 10.6,5.3 10.1,11.6 C9.6,17.9 9.5,30.4 9.5,30.4 L11.6,30.3 Z" fill="url(#linearGradient-7)"></path>
                                <path d="M12.4,31.4 C12.4,31.2 11,16.6 10.3,12.7 C9.6,8.8 7.8,6 6.7,6.1 C5.5,6.2 5.5,10.6 6.7,16.4 C7.8,22.2 10.7,31.3 10.7,31.3 L12.4,31.4 Z" fill="url(#linearGradient-8)"></path>
                                <path d="M24.6,16.5 C27,19.2 22.3,22.1 19.8,24.3 C17.4,26.4 15.6,28.8 15.9,32.2 C15.1,33 14.2,33.5 13.1,33.8 C11.7,29 12.9,22.8 14.7,20.1 C16.6,17.4 22.3,13.9 24.6,16.5 Z" fill="url(#linearGradient-9)"></path>
                                <path d="M14.7,20.2 C16.6,17.4 22.3,13.9 24.6,16.5 C19.6,19.4 14.6,22.4 13,33.5 C11.7,28.8 12.9,22.9 14.7,20.2 Z" fill="url(#linearGradient-10)" opacity="0.17"></path>
                                <path d="M10.5,32.2 C10.7,31.7 10.8,13.6 16.9,9.1 C23,4.5 16.6,18 15.5,21.7 C14.4,25.4 12.7,33.7 12.7,33.7 L10.5,32.2 Z" fill="url(#linearGradient-11)"></path>
                                <path d="M19,8.1 C14.9,15.9 12.4,23.7 11.8,33 L10.5,32.1 C10.7,31.6 10.8,13.5 16.9,9 C17.9,8.2 18.6,8 19,8.1 Z" fill="url(#linearGradient-12)" opacity="0.17"></path>
                                <path d="M6.4,13.6 C10.3,13.9 12.3,29.6 11.4,34.1 L10.6,34.2 C9.7,34.1 8.9,33.8 8.1,33.4 C8.1,32.6 8,31.2 7.8,29 C7.4,24.1 2.6,13.3 6.4,13.6 Z" fill="url(#linearGradient-13)"></path>
                                <path d="M9.7,26.3 C9,21.9 8,18.5 5.8,13.6 C6,13.5 6.2,13.5 6.4,13.5 C10.3,13.8 12.3,29.5 11.4,34 L10.7,34.1 C10.6,32.4 10.2,29.3 9.7,26.3 Z" fill="url(#linearGradient-14)" opacity="0.17"></path>
                                <path d="M9.1,33.8 C8.6,32.5 6.8,28.4 4.4,23.8 C1.6,18.3 1.2,15.1 1.8,14.9 C2.5,14.7 3.9,14.7 5.7,19.2 C7.2,22.9 10.1,33.4 10.3,34.1 C9.9,34.1 9.5,33.9 9.1,33.8 Z" fill="url(#linearGradient-15)"></path>
                                <path d="M2.1,21.3 C6.9,22.8 8.9,32.9 9.1,33.8 C9,33.8 8.9,33.7 8.9,33.7 L7,32.5 C6.6,32.2 6.3,31.8 6,31.4 C6,31.4 5.9,31.3 5.9,31.3 C5.8,31.2 5.8,31.2 5.7,31.1 L5.7,31.1 C3.7,28.1 -1.3,20.2 2.1,21.3 Z" fill="url(#linearGradient-16)"></path>
                                <path d="M21.9,22.7 C25.7,22.6 24.5,26.3 21.3,28.1 C19.3,29.2 15.4,32.7 15.3,33 C15.3,33 15.3,33 15.3,33 L12,34 C12,34 13,30.2 14.1,28.4 C15.1,26.7 17.5,22.9 21.9,22.7 Z" fill="url(#linearGradient-17)"></path>
                                <path d="M12.6,22.4 C15.2,23.3 13.7,30.8 12.9,34.1 C12.4,34.2 11.9,34.3 11.4,34.3 C11.3,34.3 11.2,34.3 11.1,34.3 C11.1,33.9 11.1,33.3 11.1,32.6 C11,29.8 9.4,21.2 12.6,22.4 Z" fill="url(#linearGradient-18)"></path>
                            </g>
                        </g>
                        <g id="Group" transform="translate(199.000000, 9.000000)" fill-rule="nonzero">
                            <g transform="translate(4.000000, 6.000000)">
                                <path d="M84.9,27.5 L90.3,26.5 C90.5,26.5 90.6,26.3 90.6,26.1 L86.1,1 C86.1,0.8 85.9,0.7 85.7,0.7 L80.3,1.7 C80.1,1.7 80,1.9 80,2.1 L84.5,27.3 C84.5,27.4 84.7,27.5 84.9,27.5 Z" id="Path" fill="#6C7A78"></path>
                                <path d="M78.5,27.5 L83.9,26.5 C84.1,26.5 84.2,26.3 84.2,26.1 L79.6,1 C79.6,0.8 79.4,0.7 79.2,0.7 L73.8,1.7 C73.6,1.7 73.5,1.9 73.5,2.1 L78,27.3 C78.1,27.4 78.3,27.5 78.5,27.5 Z" id="Path" fill="#37B99A"></path>
                                <path d="M11.7,27.5 L17.1,26.5 C17.3,26.5 17.4,26.3 17.4,26.1 L12.8,1 C12.8,0.8 12.6,0.7 12.4,0.7 L7,1.7 C6.8,1.7 6.7,1.9 6.7,2.1 L11.2,27.3 C11.3,27.4 11.5,27.5 11.7,27.5 Z" id="Path" fill="#6C7A78"></path>
                                <path d="M5.3,27.5 L10.7,26.5 C10.9,26.5 11,26.3 11,26.1 L6.5,1 C6.5,0.8 6.3,0.7 6.1,0.7 L0.7,1.7 C0.5,1.7 0.4,1.9 0.4,2.1 L4.9,27.3 C4.9,27.4 5.1,27.5 5.3,27.5 Z" id="Path" fill="#494D7F"></path>
                                <rect id="Rectangle" fill="#FFFFFF" transform="translate(83.851860, 5.780995) rotate(170.026206) translate(-83.851860, -5.780995) " x="81.7518324" y="3.93097072" width="4.20005512" height="3.70004856"></rect>
                                <rect id="Rectangle" fill="#FFFFFF" transform="translate(77.278510, 5.787195) rotate(170.026206) translate(-77.278510, -5.787195) " x="75.1784824" y="3.93717072" width="4.20005512" height="3.70004856"></rect>
                            </g>
                            <path d="M0.7,0.4 L98.2,0.4 L98.2,37.1 L0.7,37.1 L0.7,0.4 Z M94.5,33.5 L94.5,4.1 L4.4,4.1 L4.4,33.5 L94.5,33.5 Z" id="Shape" fill="#BFD6C5"></path>
                        </g>
                        <g id="Group" transform="translate(236.000000, 14.000000)">
                            <g fill-rule="nonzero">
                                <path d="M0.2,13.9 C0.2,13.9 2.3,13.7 3.5,14.5 C4.7,15.3 7.5,18.1 8.1,19.2 C8.7,20.3 8.7,20.5 8.7,20.5 L7,20.5 C7,20.5 6.7,19.9 6.2,19.8 C5.7,19.7 5.1,19.4 4.9,18.9 C4.7,18.4 4.6,18.2 4,18.1 C3.4,18 3.2,17.5 3.1,17 C3,16.5 2.5,16.2 1.9,16.1 C1.3,16 1.3,15.3 1.2,15 C1.2,14.8 0.9,14.8 0.7,14.6 C0.4,14.3 0.2,13.9 0.2,13.9 Z" id="Path" fill="#2D544B"></path>
                                <path d="M14.8,20.5 C14.8,20.5 17.4,14.6 19.1,12.1 C20.8,9.6 22.8,7.8 22.8,7.8 C22.8,7.8 22.9,8.2 22.8,8.4 C22.7,8.6 22.3,9.2 22.3,9.5 C22.3,9.8 22.5,10.3 22.3,10.7 C22.1,11.2 21.6,11.3 21.6,11.7 C21.6,12.1 21.9,12.4 21.6,12.9 C21.3,13.4 20.8,13.3 20.6,13.6 C20.5,14 20.6,14.4 20.5,14.8 C20.3,15.2 19.9,15.2 19.8,15.5 C19.7,15.8 19.7,16.1 19.4,16.4 C19.1,16.7 18.7,16.7 18.5,17 C18.3,17.3 18.3,17.7 18,17.9 C17.7,18.2 17.6,18 17.5,18.3 C17.4,18.6 17.4,18.7 17.2,19 C17,19.3 16.6,19.3 16.5,19.6 C16.4,19.9 16.1,20.6 16.1,20.6 L14.8,20.5 Z" id="Path" fill="#2D544B"></path>
                                <path d="M8.1,1.4 C8.1,1.4 10.1,5.4 10.9,10.3 C11.7,15.2 11.3,20.5 11.3,20.5 L8.6,20.5 C8.6,20.5 7.5,13 7.6,12.1 C7.7,11.2 7.4,11.1 7.4,10.6 C7.4,9.9 7.7,9.6 7.7,9.3 C7.6,9 7.4,8.8 7.5,8.2 C7.6,7.7 7.8,7.6 7.8,7.2 C7.8,6.8 7.4,6.5 7.5,5.8 C7.7,5.1 8,5.1 8,4.6 C8,4.1 7.7,3.8 7.7,3.1 C7.8,2.5 8.1,1.4 8.1,1.4 Z" id="Path" fill="#2D544B"></path>
                                <g transform="translate(3.000000, 5.000000)">
                                    <path d="M7.1,15.5 C7.1,15.5 6.4,11.5 5.9,9.7 C5.5,7.9 4.3,4.7 3.4,3.2 C2.5,1.7 0.9,0.5 0.9,0.5 C0.9,0.5 1,1.2 1.1,1.6 C1.3,2.1 1.3,2.7 1.1,3.1 C0.9,3.5 0.8,4.3 1.4,4.8 C1.9,5.3 1.8,6.2 1.7,6.6 C1.5,7 1.4,7.8 2,8.3 C2.6,8.9 2.5,9.3 2.4,9.9 C2.3,10.4 2.1,11.4 2.8,12.1 C3.4,12.8 3.6,13 3.6,13.4 C3.6,13.9 3.7,14.9 4.3,15.5 L7.1,15.5 Z" id="Path" fill="#375A51"></path>
                                    <g opacity="0.17" transform="translate(0.000000, 1.000000)" fill="#000000">
                                        <path d="M1.8,1.3 C1.4,1.4 1.4,1.4 1.3,1.5 C1.3,1.5 1.3,1.6 1.3,1.6 C1.6,1.5 1.8,1.4 1.8,1.3 C1.9,1.3 1.8,1.3 1.8,1.3 Z M1.3,1.5 L1.4,1.5 C1.4,1.5 1.3,1.5 1.3,1.5 Z M1.6,1.4 C1.5,1.4 1.5,1.5 1.4,1.5 C1.4,1.4 1.5,1.4 1.6,1.4 Z M1.8,1.3 C1.9,1.3 1.7,1.3 1.5,1.4 C1.6,1.4 1.7,1.3 1.8,1.3 Z" id="Shape"></path>
                                        <path d="M2.2,1.7 C2,1.8 1.8,1.8 1.7,1.8 C1.5,1.8 1.4,1.8 1.2,1.9 C1.2,1.9 1.2,1.9 1.2,1.9 C1.2,1.9 1.2,1.9 1.2,1.9 C1.3,1.9 1.5,1.9 1.3,1.9 C1.3,1.9 1.2,1.9 1.2,1.9 C1.2,1.9 1.2,2 1.2,2 C1.7,1.9 1.7,1.9 2.2,1.7 C2.2,1.7 2.2,1.7 2.2,1.7 Z M2.2,1.8 C2.1,1.8 2.1,1.8 2.2,1.8 C2.1,1.8 2,1.8 2.2,1.8 Z" id="Shape"></path>
                                        <path d="M2.5,2.2 C2.5,2.1 2.5,2.1 2.5,2.2 C2.5,2.1 2.5,2.1 2.5,2.2 C2.4,2.2 2.3,2.2 2.3,2.2 C2.2,2.2 2,2.3 1.9,2.3 C1.3,2.5 1.4,2.5 1.2,2.5 C1.3,2.5 1.2,2.5 1,2.5 C1,2.5 1,2.5 1,2.5 C1,2.5 1,2.5 1.1,2.5 C1.1,2.5 1.1,2.5 1.1,2.5 C1.1,2.5 1,2.5 1,2.5 C1,2.5 1,2.6 1,2.6 C1.3,2.5 1.6,2.5 2,2.3 C2,2.3 2.3,2.2 2.5,2.2 Z M1.1,2.5 C1.1,2.5 1.2,2.5 1.2,2.5 C1.2,2.5 1.1,2.5 1.1,2.5 Z M1.4,2.4 L1.5,2.4 C1.4,2.4 1.4,2.4 1.4,2.4 Z M1.7,2.3 C1.6,2.3 1.6,2.4 1.5,2.4 C1.5,2.4 1.6,2.3 1.7,2.3 Z M1.6,2.4 C1.7,2.4 1.8,2.3 1.9,2.3 C2,2.2 1.8,2.3 1.6,2.4 Z" id="Shape"></path>
                                        <path d="M2.4,2.1 C2.4,2.1 2.4,2.1 2.4,2.1 C2.4,2.1 2.3,2.1 2.4,2.1 Z" id="Path"></path>
                                        <path d="M2.5,2.2 C2.5,2.2 2.5,2.2 2.5,2.2 C2.4,2.2 2.5,2.2 2.5,2.2 Z" id="Path"></path>
                                        <path d="M2.8,2.5 C2.8,2.5 2.8,2.5 2.8,2.5 C2.7,2.5 2.5,2.5 2.4,2.6 C1.4,2.8 1.2,2.9 1,3 C1,3 1,3 1,3 L1.1,3 C1.1,3 1,3 1,3 C1,3 1,3 1,3.1 C1.4,3 1.7,2.9 2.3,2.8 C2.6,2.6 2.6,2.6 2.8,2.5 Z M1.3,2.9 C1.2,2.9 1.2,3 1.1,3 C1.1,2.9 1.2,2.9 1.3,2.9 Z M1.2,2.9 C1.3,2.9 1.4,2.8 1.5,2.8 C1.5,2.8 1.4,2.8 1.2,2.9 Z M2,2.7 C1.9,2.7 1.9,2.7 2,2.7 C2.2,2.7 2.2,2.7 2,2.7 Z" id="Shape"></path>
                                        <path d="M2.1,2.8 C2.1,2.8 2.1,2.8 2.1,2.8 C2,2.8 2.1,2.8 2.1,2.8 Z" id="Path"></path>
                                        <path d="M2.9,3 C3,3 3,3 3.1,2.9 C3.1,2.9 3.1,2.9 3.1,2.8 C2.8,2.9 2.8,2.8 2.1,3 C1.5,3.2 1.3,3.3 1.1,3.3 C1.1,3.3 1.1,3.3 1.1,3.4 C1.3,3.4 1.5,3.3 2.1,3.1 C2.1,3.2 2.5,3.1 2.9,3 Z M2.3,3.1 C2.3,3.1 2.4,3.1 2.4,3.1 C2.4,3.1 2.2,3.1 2.3,3.1 Z" id="Shape"></path>
                                        <path d="M2.6,3.6 C3,3.5 2.9,3.5 3.3,3.4 C3.3,3.4 3.3,3.4 3.3,3.3 C3.1,3.3 2.9,3.4 2.6,3.6 C2.6,3.5 2.6,3.5 2.6,3.6 C2.7,3.5 2.7,3.5 2.6,3.6 C2.5,3.5 2.4,3.6 2.4,3.6 C2.3,3.6 2.1,3.7 2,3.7 C1.5,3.8 1.5,3.9 1.4,3.9 C1.4,3.9 1.4,3.9 1.5,4 C2,3.9 2,3.8 2.2,3.8 C2.3,3.6 2.4,3.6 2.6,3.6 C2.5,3.6 2.6,3.6 2.6,3.6 C2.6,3.6 2.6,3.6 2.6,3.6 Z M1.5,3.8 L1.6,3.8 C1.5,3.8 1.5,3.8 1.5,3.8 Z M1.8,3.7 C1.7,3.7 1.7,3.8 1.6,3.8 C1.6,3.8 1.7,3.7 1.8,3.7 Z M1.7,3.8 C1.8,3.8 1.9,3.7 2,3.7 C2.1,3.6 1.9,3.7 1.7,3.8 Z" id="Shape"></path>
                                        <path d="M2.6,3.6 C2.6,3.6 2.6,3.6 2.6,3.6 C2.6,3.6 2.6,3.6 2.6,3.6 C2.6,3.6 2.5,3.6 2.6,3.6 C2.5,3.6 2.6,3.6 2.6,3.6 Z" id="Path"></path>
                                        <path d="M2.3,4 C2.3,4 2.4,4 2.3,4 C2.3,4 2.3,4 2.3,4 Z" id="Path"></path>
                                        <path d="M2.6,4 C3.1,3.9 2.9,3.8 3.6,3.7 C3.6,3.7 3.6,3.7 3.6,3.6 C3.5,3.6 3.5,3.6 3.6,3.6 C3.6,3.6 3.6,3.6 3.6,3.6 C3.3,3.7 3.1,3.8 2.4,3.9 C2.4,3.9 2.4,3.9 2.4,3.9 C2.5,3.9 2.5,3.9 2.4,3.9 C2.4,3.9 2.3,3.9 2.3,3.9 C2.2,3.9 2,4 1.9,4 C1.8,4 1.7,4.1 1.7,4.1 C1.7,4.1 1.7,4.1 1.7,4.1 L1.7,4.1 L1.7,4.1 C1.7,4.1 1.7,4.1 1.7,4.1 C1.8,4.1 1.8,4.1 1.9,4 C1.9,4 1.9,4 1.7,4.1 C1.7,4.1 1.7,4.1 1.7,4.2 C1.8,4.2 1.8,4.2 1.9,4.1 C1.9,4.2 2.6,4.1 2.6,4 Z" id="Shape"></path>
                                        <path d="M2.4,4.1 C2.4,4.1 2.4,4.1 2.4,4.1 C2.3,4.1 2.4,4.1 2.4,4.1 Z" id="Path"></path>
                                        <path d="M3.1,4.4 C3.2,4.4 3.1,4.4 3.6,4.2 C3.6,4.2 3.7,4.2 3.8,4.1 C3.8,4.1 3.8,4.1 3.8,4 C3.7,4 3.7,4 3.8,4 C3.8,4 3.8,4 3.8,4 C3.7,4 3.6,4 3.6,4 C3.6,4 3.6,4 3.6,4 C3.6,4 3.6,4 3.3,4.1 C2.9,4.2 3,4.1 2.3,4.3 C2.1,4.4 1.9,4.4 1.8,4.5 C1.8,4.5 1.8,4.6 1.8,4.6 C1.8,4.6 1.8,4.6 1.9,4.6 C1.9,4.6 1.9,4.6 1.8,4.6 C1.8,4.6 1.8,4.6 1.8,4.6 C1.9,4.6 2,4.5 2.3,4.4 C2.3,4.5 2.7,4.4 3.1,4.4 Z" id="Shape"></path>
                                        <path d="M4,4.6 C4,4.6 4,4.5 4,4.6 C3.8,4.6 3.5,4.7 3.2,4.8 C3.2,4.8 3.2,4.8 3.2,4.8 C3.3,4.8 3.3,4.8 3.2,4.8 C3.2,4.8 3.1,4.8 3.1,4.8 C3,4.8 2.8,4.9 2.7,4.9 C2.1,5.1 2.2,5.1 2,5.1 C2.1,5.1 2,5.1 1.8,5.2 C1.8,5.2 1.8,5.3 1.8,5.3 C2.1,5.2 2.4,5.2 2.8,5 C2.8,5 3.5,4.8 3.5,4.8 C3.8,4.7 3.8,4.7 4,4.6 Z M1.9,5.1 C1.8,5.2 1.7,5.2 1.9,5.1 C1.9,5.1 1.9,5.1 1.9,5.1 Z M1.9,5.1 C1.9,5.1 2,5.1 2,5.1 C2,5.1 1.9,5.1 1.9,5.1 Z M2.2,5.1 L2.3,5.1 C2.2,5.1 2.2,5.1 2.2,5.1 Z M2.5,4.9 C2.4,4.9 2.4,5 2.3,5 C2.3,5 2.4,5 2.5,4.9 Z M2.3,5 C2.4,5 2.5,4.9 2.6,4.9 C2.7,4.9 2.6,4.9 2.3,5 Z" id="Shape"></path>
                                        <path d="M3.1,4.8 C3.2,4.8 3.2,4.8 3.1,4.8 C3.2,4.8 3.1,4.8 3.1,4.8 Z" id="Path"></path>
                                        <path d="M3.2,4.8 C3.3,4.8 3.3,4.8 3.2,4.8 C3.2,4.8 3.2,4.8 3.2,4.8 Z" id="Path"></path>
                                        <path d="M3.6,5.2 C3.7,5.2 3.7,5.2 3.9,5.1 C4.1,5 4.1,5 4.2,5 C4.2,5 4.2,5 4.2,4.9 C4.1,5 3.9,5 3.6,5.2 C3.3,5.2 2.9,5.4 2.6,5.4 C2.2,5.4 2,5.5 1.6,5.7 C1.6,5.7 1.6,5.8 1.6,5.8 C1.7,5.8 1.7,5.7 1.9,5.7 C2.8,5.3 2.5,5.6 3.6,5.2 Z M3.9,5 C3.9,5 4,5 4,5 C3.9,5 3.8,5.1 3.9,5 Z M2.2,5.4 C2.3,5.4 2.5,5.4 2.3,5.4 C2.3,5.4 2,5.5 2.2,5.4 Z" id="Shape"></path>
                                        <path d="M3.6,5.6 C3.6,5.6 3.6,5.6 3.6,5.6 C3.7,5.6 3.7,5.6 3.6,5.6 C3.5,5.6 3.5,5.6 3.6,5.6 C3.4,5.7 3.2,5.7 3.1,5.7 C2.5,5.9 2.6,5.9 2.4,5.9 C2.6,5.8 2.1,6 1.8,6 C1.7,6 1.7,6 1.6,6 C1.6,6 1.6,6 1.6,6 C1.7,6 1.9,5.9 1.9,5.9 L4.5,5.2 C4.5,5.2 4.5,5.2 4.5,5.2 C4.2,5.4 4,5.5 3.6,5.6 Z M2.9,5.8 C2.8,5.8 2.8,5.9 2.7,5.9 C2.7,5.9 2.8,5.8 2.9,5.8 Z M2.7,5.9 C2.8,5.9 2.9,5.8 3,5.8 C3.1,5.7 3,5.8 2.7,5.9 Z" id="Shape"></path>
                                        <path d="M1.5,6.1 C1.5,6.2 1.5,6.2 1.5,6.1 L1.8,6 C1.8,6.1 1.6,6.1 1.5,6.1 Z" id="Path"></path>
                                        <path d="M3.5,5.6 C3.5,5.6 3.6,5.6 3.5,5.6 C3.5,5.6 3.5,5.6 3.5,5.6 Z" id="Path"></path>
                                        <path d="M1.1,0.6 C1.2,0.6 1.2,0.6 1.1,0.6 C1.2,0.6 1.1,0.6 1.1,0.6 C1.1,0.6 1.1,0.6 1.1,0.6 C1.1,0.6 1.1,0.6 1.1,0.6 C1.1,0.6 1.1,0.6 1.1,0.6 Z" id="Path"></path>
                                        <path d="M1.6,1 C1.5,1 1.5,1 1.6,1 C1.5,1 1.5,1 1.6,1 C1.6,1 1.5,1 1.6,1 C1.5,1 1.4,1 1.3,1.1 C1.3,1.1 1.3,1.2 1.3,1.2 C1.4,1.1 1.5,1.1 1.6,1 C1.6,1 1.6,1 1.6,1 Z M1.5,1 C1.4,1 1.3,1 1.5,1 C1.5,1 1.5,1 1.5,1 Z" id="Shape"></path>
                                        <path d="M4.8,10.5 C4.7,10.5 4.6,10.5 4.8,10.5 C4.7,10.5 4.8,10.5 4.8,10.5 C4.8,10.5 4.8,10.5 4.8,10.5 Z" id="Path"></path>
                                        <path d="M4.4,10.6 C4.6,10.6 4.7,10.5 4.8,10.5 C4.8,10.5 4.8,10.5 4.9,10.5 C4.9,10.5 4.9,10.5 4.9,10.5 C5.3,10.4 5.2,10.4 5.7,10.3 C5.7,10.3 5.8,10.3 5.8,10.3 C5.8,10.3 5.8,10.3 5.8,10.2 C5.6,10.3 5.5,10.3 4.9,10.5 C5,10.5 5,10.5 4.8,10.5 C4.8,10.5 4.5,10.6 4.3,10.6 C3.7,10.8 3.8,10.8 3.6,10.8 C3.8,10.7 3.3,10.9 3,10.9 C2.9,10.9 2.8,10.9 2.8,10.9 C2.8,10.9 2.8,10.9 2.9,11 C3.7,10.9 4.2,10.7 4.4,10.6 Z M5.1,10.4 C5.1,10.4 5.2,10.4 5.1,10.4 C5.2,10.4 5.2,10.4 5.1,10.4 C5,10.4 5,10.4 5.1,10.4 Z M3.9,10.7 C4,10.7 4.1,10.6 4.2,10.6 C4.3,10.6 4.2,10.6 3.9,10.7 Z M4,10.7 C3.9,10.7 3.9,10.8 3.8,10.8 C3.8,10.7 3.9,10.7 4,10.7 Z M3.8,10.8 C3.8,10.8 3.7,10.8 3.7,10.8 L3.8,10.8 Z M3.5,10.8 C3.5,10.8 3.4,10.8 3.4,10.8 C3.5,10.9 3.5,10.8 3.5,10.8 Z M3.1,10.9 C3,10.9 2.8,11 2.7,11 C2.8,11 3.1,10.9 3.1,10.9 Z" id="Shape"></path>
                                        <path d="M4.8,10.6 C4.8,10.6 4.8,10.6 4.8,10.6 C4.8,10.6 4.8,10.6 4.8,10.6 C4.8,10.5 4.8,10.5 4.8,10.6 C4.8,10.6 4.8,10.6 4.8,10.6 Z" id="Path"></path>
                                        <path d="M5.8,10.7 C5.8,10.7 5.8,10.7 5.8,10.7 C5.6,10.6 5.5,10.7 5.1,10.8 C4.8,10.9 4.4,11 4.2,11.1 C3.8,11.1 3.6,11.2 3.1,11.4 C3.1,11.4 3.1,11.4 3.2,11.5 C3.3,11.5 3.3,11.4 3.4,11.4 C4.4,11.1 4,11.4 5.1,11 C5.1,10.9 5.4,10.8 5.8,10.7 Z M3.8,11.2 C3.7,11.2 3.4,11.3 3.7,11.2 C3.8,11.2 3.9,11.2 3.8,11.2 Z M5.3,10.8 C5.3,10.8 5.4,10.8 5.4,10.8 C5.3,10.8 5.2,10.8 5.3,10.8 Z" id="Shape"></path>
                                        <path d="M5.1,11.4 C5.5,11.3 5.4,11.3 5.9,11.1 C5.9,11.1 5.9,11.1 5.9,11 C5.7,11.1 5.4,11.2 4.9,11.3 C4.9,11.3 4.9,11.3 4.9,11.3 C5,11.3 5,11.3 4.9,11.3 C4.9,11.3 4.8,11.3 4.8,11.3 C4.7,11.3 4.5,11.4 4.4,11.4 C3.8,11.6 3.9,11.6 3.7,11.6 C3.8,11.6 3.7,11.6 3.4,11.7 C3.4,11.7 3.4,11.7 3.5,11.8 C3.8,11.7 4.1,11.7 4.5,11.5 C4.4,11.6 5,11.4 5.1,11.4 Z M3.5,11.8 C3.4,11.8 3.3,11.8 3.5,11.8 C3.5,11.8 3.5,11.8 3.5,11.8 Z M3.5,11.8 C3.5,11.8 3.6,11.8 3.6,11.8 C3.6,11.8 3.5,11.8 3.5,11.8 Z M3.8,11.7 L3.9,11.7 C3.9,11.7 3.8,11.7 3.8,11.7 Z M4.1,11.6 C4,11.6 4,11.7 3.9,11.7 C3.9,11.7 4,11.6 4.1,11.6 Z M4,11.7 C4.1,11.7 4.2,11.6 4.3,11.6 C4.4,11.5 4.2,11.6 4,11.7 Z" id="Shape"></path>
                                        <path d="M4.9,11.5 C4.9,11.5 4.9,11.5 4.9,11.5 C4.8,11.5 4.9,11.5 4.9,11.5 Z" id="Path"></path>
                                        <path d="M5.9,11.7 C5.9,11.6 5.9,11.6 5.9,11.7 C5.7,11.6 5.6,11.7 4.8,11.9 C4,12.1 3.7,12.2 3.5,12.2 C3.5,12.2 3.5,12.2 3.5,12.2 C3.5,12.2 3.6,12.2 3.7,12.1 C3.6,12.1 3.6,12.1 3.5,12.2 C3.5,12.2 3.5,12.2 3.5,12.3 C3.8,12.2 4.1,12.1 4.6,12 C5.2,11.9 5,11.8 5.9,11.7 Z M5.6,11.6 C5.7,11.6 5.9,11.6 5.7,11.6 C5.7,11.6 5.4,11.7 5.6,11.6 Z M3.6,12.2 C3.7,12.2 3.8,12.1 3.9,12.1 C4,12.1 3.8,12.1 3.6,12.2 Z M4.4,12 C4.3,12 4.4,12 4.4,12 C4.6,12 4.6,12 4.4,12 Z" id="Shape"></path>
                                        <path d="M4.5,12.1 C4.5,12.1 4.5,12.1 4.5,12.1 C4.4,12.1 4.5,12.1 4.5,12.1 Z" id="Path"></path>
                                        <path d="M5.3,12.3 C5.4,12.3 5.3,12.3 5.8,12.1 C5.8,12.1 5.9,12.1 6,12.1 C6,12.1 6,12.1 6,12 C6,12 6,12 6,12 C6,12 6,12 6,12 C5.9,12 5.9,12 5.9,12 C5.9,12 5.9,12 5.9,12 C5.9,12 5.9,12 5.6,12.1 C5.2,12.2 5.3,12.1 4.6,12.3 C4,12.5 3.8,12.6 3.7,12.6 C3.7,12.6 3.7,12.6 3.7,12.7 C3.9,12.7 4.1,12.6 4.7,12.4 C4.5,12.5 4.9,12.4 5.3,12.3 Z M4.8,12.4 C4.8,12.4 4.9,12.4 4.9,12.4 C4.8,12.4 4.6,12.4 4.8,12.4 Z" id="Shape"></path>
                                        <path d="M3.6,13.2 C3.6,13.2 3.6,13.2 3.6,13.2 C3.6,13.2 3.6,13.2 3.6,13.2 C4.4,13.1 4.4,13 4.5,13 C4.7,13 4.8,12.9 4.9,12.9 C4.9,12.9 4.9,12.9 5,12.9 C5,12.9 5,12.9 5,12.9 C5.4,12.8 5.3,12.8 5.8,12.7 C5.9,12.7 6,12.6 6.1,12.6 C6.1,12.6 6.1,12.5 6.1,12.5 C5.9,12.6 5.6,12.7 5,12.8 C5,12.8 5,12.8 5,12.8 C5.1,12.8 5.1,12.8 5,12.8 C4.9,12.8 4.9,12.8 4.9,12.8 C4.8,12.8 4.6,12.9 4.5,12.9 C3.9,13.1 4,13.1 3.6,13.2 C3.8,13.1 3.7,13.1 3.6,13.2 C3.6,13.2 3.6,13.2 3.6,13.2 C3.6,13.2 3.6,13.2 3.6,13.2 Z M4.1,13.1 C4.2,13.1 4.3,13 4.4,13 C4.5,12.9 4.3,13 4.1,13.1 Z M4.2,13 C4.1,13 4.1,13.1 4,13.1 C4,13.1 4.1,13 4.2,13 Z M4,13.1 C4,13.1 3.9,13.1 3.9,13.1 L4,13.1 Z M3.7,13.2 C3.7,13.2 3.6,13.2 3.6,13.2 C3.7,13.2 3.7,13.2 3.7,13.2 Z" id="Shape"></path>
                                        <path d="M5,12.9 C4.9,12.9 5,12.9 5,12.9 C5,12.9 5,12.9 5,12.9 C5,12.9 5,12.9 5,12.9 C5,12.9 5,12.9 5,12.9 Z" id="Path"></path>
                                        <path d="M4.7,13.3 C4.7,13.3 4.8,13.3 4.7,13.3 C4.7,13.3 4.7,13.3 4.7,13.3 Z" id="Path"></path>
                                        <path d="M5,13.3 C5.5,13.2 5.3,13.1 6.1,13 C6.1,13 6.1,12.9 6.1,12.9 C6,12.9 5.7,13 6,12.9 C6,12.9 6.1,12.9 6.1,12.9 C6.1,12.9 6.1,12.9 6.1,12.9 C5.8,13 5.6,13.1 4.8,13.3 C4.8,13.3 4.8,13.3 4.8,13.3 C4.9,13.3 4.9,13.3 4.8,13.3 C4.8,13.3 4.7,13.3 4.7,13.3 C4.6,13.3 4.4,13.4 4.3,13.4 C3.9,13.5 3.8,13.6 3.7,13.6 C3.7,13.6 3.7,13.6 3.7,13.7 C3.9,13.7 4,13.6 4.3,13.5 C4.3,13.5 5,13.4 5,13.3 Z M3.7,13.6 L3.8,13.6 C3.8,13.6 3.8,13.6 3.7,13.6 Z M4.1,13.5 C4,13.5 4,13.6 3.9,13.6 C3.9,13.6 4,13.5 4.1,13.5 Z M3.9,13.6 C4,13.6 4.1,13.5 4.2,13.5 C4.3,13.4 4.2,13.5 3.9,13.6 Z" id="Shape"></path>
                                        <path d="M4.8,13.4 C4.9,13.4 4.8,13.4 4.8,13.4 C4.7,13.4 4.8,13.4 4.8,13.4 Z" id="Path"></path>
                                        <path d="M5.5,13.7 C5.6,13.7 5.5,13.7 6,13.5 C6,13.5 6.1,13.5 6.2,13.5 C6.2,13.5 6.2,13.5 6.2,13.4 C6.2,13.4 6.2,13.4 6.2,13.4 C6.2,13.4 6.2,13.4 6.2,13.4 C6.1,13.4 6.1,13.4 6.1,13.4 C6.1,13.4 6.1,13.4 6.1,13.4 C6.1,13.4 6.1,13.4 5.8,13.5 C5.4,13.6 5.5,13.5 4.8,13.7 C4.4,13.8 4.2,13.9 4,13.9 C4,13.9 4,13.9 4,14 C4.2,14 4.2,14 4.7,13.8 C4.7,13.8 5.1,13.7 5.5,13.7 Z" id="Shape"></path>
                                        <path d="M5.9,14.1 C6.1,14.1 6.2,14 6.3,14 C6.3,14 6.3,13.9 6.3,13.9 C6.1,13.9 6,14 5.7,14.1 C5.7,14.1 5.7,14.1 5.7,14.1 C5.8,14.1 5.8,14.1 5.7,14.1 C5.7,14.1 5.6,14.1 5.6,14.1 C5.5,14.1 5.3,14.2 5.2,14.2 C4.6,14.4 4.7,14.4 4.5,14.4 C4.6,14.4 4.5,14.4 4.3,14.4 C4.3,14.4 4.3,14.4 4.3,14.4 C4.3,14.4 4.3,14.4 4.4,14.4 C4.4,14.4 4.4,14.4 4.4,14.4 C4.4,14.4 4.4,14.4 4.4,14.4 C4.4,14.4 4.4,14.4 4.4,14.4 L4.5,14.4 C4.7,14.3 5,14.3 5.3,14.2 C5.1,14.2 5.8,14.1 5.9,14.1 Z M4.3,14.4 C4.3,14.4 4.4,14.4 4.4,14.4 C4.4,14.4 4.3,14.4 4.3,14.4 Z M4.6,14.4 L4.7,14.4 C4.6,14.4 4.6,14.4 4.6,14.4 Z M4.9,14.2 C4.8,14.2 4.8,14.3 4.7,14.3 C4.7,14.3 4.8,14.3 4.9,14.2 Z M4.7,14.3 C4.8,14.3 4.9,14.2 5,14.2 C5.1,14.2 5,14.2 4.7,14.3 Z" id="Shape"></path>
                                        <path d="M5.6,14.1 C5.6,14.1 5.6,14.1 5.6,14.1 C5.6,14.1 5.5,14.1 5.6,14.1 Z" id="Path"></path>
                                        <path d="M5.7,14.1 C5.7,14.1 5.7,14.1 5.7,14.1 C5.6,14.1 5.6,14.1 5.7,14.1 Z" id="Path"></path>
                                        <path d="M6.3,14.4 C6.3,14.4 6.3,14.4 6.3,14.4 C6.3,14.4 6.2,14.4 6.3,14.4 C6.3,14.3 6.3,14.3 6.3,14.4 C6.3,14.3 6.3,14.3 6.3,14.4 C6.2,14.3 6.1,14.4 6,14.4 C5.9,14.4 5.8,14.5 5.7,14.5 L5.9,14.5 C5.9,14.5 5.9,14.5 6,14.5 C6.1,14.4 6.2,14.4 6.3,14.4 Z" id="Shape"></path>
                                        <path d="M1.9,6.1 C1.9,6.1 1.5,6.2 1.5,6.2 C1.5,6.2 1.5,6.2 1.5,6.2 C1.9,6.1 2.3,6 3.1,5.8 C3.1,5.8 3.8,5.6 3.8,5.6 C4.1,5.5 4.2,5.5 4.4,5.4 C4.4,5.4 4.4,5.4 4.4,5.4 L1.9,6.1 C1.9,6.1 1.9,6.1 1.9,6.1 Z M2.6,5.9 C2.6,5.9 2.5,5.9 2.5,5.9 L2.6,5.9 Z" id="Shape"></path>
                                        <path d="M3.6,5.7 C3.7,5.7 3.6,5.7 3.6,5.7 C3.5,5.7 3.6,5.7 3.6,5.7 Z" id="Path"></path>
                                        <path d="M1.6,6.6 C1.6,6.6 1.6,6.6 1.6,6.6 C1.6,6.6 1.6,6.6 1.6,6.6 C1.6,6.6 1.6,6.6 1.6,6.6 C1.6,6.6 1.6,6.6 1.6,6.6 C1.6,6.7 1.6,6.7 1.6,6.6 C2.2,6.5 2.5,6.4 2.6,6.4 C2.8,6.4 2.9,6.3 3,6.3 C3,6.3 3,6.3 3.1,6.3 C3.1,6.3 3.1,6.3 3.1,6.3 C3.5,6.2 3.4,6.2 3.9,6.1 C4.4,6 4.5,5.9 4.7,5.9 C4.7,5.9 4.7,5.9 4.7,5.8 C4.5,5.8 4.5,5.8 4.1,5.9 C3.8,6 3.8,6 3.2,6.2 C3.3,6.2 3.3,6.2 3.1,6.2 C3.1,6.2 2.8,6.3 2.6,6.3 C2,6.5 2.1,6.5 1.9,6.5 C1.8,6.6 1.7,6.6 1.6,6.6 Z M4.1,5.9 C4.2,5.9 4.4,5.9 4.2,5.9 C4.2,5.9 3.9,6 4.1,5.9 Z M3.3,6.2 C3.3,6.2 3.3,6.2 3.3,6.2 C3.4,6.2 3.3,6.2 3.3,6.2 C3.2,6.2 3.2,6.2 3.3,6.2 Z M2.1,6.5 C2.2,6.5 2.3,6.4 2.4,6.4 C2.5,6.4 2.3,6.4 2.1,6.5 Z M2.2,6.4 C2.1,6.4 2.1,6.5 2,6.5 C2,6.5 2.1,6.5 2.2,6.4 Z M2,6.5 C2,6.5 1.9,6.5 1.9,6.5 L2,6.5 Z" id="Shape"></path>
                                        <path d="M3,6.2 C2.9,6.3 2.8,6.3 3,6.2 C2.9,6.2 3,6.2 3,6.2 C3,6.2 3,6.2 3,6.2 Z" id="Path"></path>
                                        <path d="M2.4,6.9 C2.4,6.9 2.4,6.9 2.4,6.9 C2.4,6.9 2.3,6.9 2.4,6.9 Z" id="Path"></path>
                                        <path d="M1.7,7 C1.8,7 1.8,7 1.7,7 C1.8,7 1.8,7 1.8,7 C1.9,7 1.9,7 1.7,7 C1.8,7.1 1.8,7.1 1.7,7 C1.9,7 1.9,7 2,7 C2.2,7 2.3,6.9 2.4,6.9 C2.4,6.9 2.4,6.9 2.5,6.9 C2.5,6.9 2.5,6.9 2.5,6.9 C2.9,6.8 2.8,6.8 3.3,6.7 C4.2,6.4 4,6.6 4.8,6.3 C4.8,6.3 4.8,6.3 4.8,6.2 C4.6,6.3 4.3,6.4 4.1,6.4 C3.5,6.4 3.4,6.6 2.5,6.8 C2.5,6.8 2.5,6.8 2.5,6.8 C2.6,6.8 2.6,6.8 2.5,6.8 C2.5,6.8 2.4,6.8 2.4,6.8 C2.3,6.8 2.1,6.9 2,6.9 C1.9,7 1.8,7 1.7,7 Z M4.6,6.4 C4.5,6.4 4.5,6.4 4.6,6.4 C4.5,6.4 4.4,6.4 4.6,6.4 Z M3.6,6.5 C3.7,6.5 3.9,6.5 3.7,6.5 C3.7,6.5 3.4,6.6 3.6,6.5 Z" id="Shape"></path>
                                        <path d="M2.4,6.9 C2.4,6.9 2.5,6.9 2.4,6.9 C2.5,6.9 2.5,6.9 2.4,6.9 C2.5,6.9 2.5,6.9 2.4,6.9 C2.5,6.9 2.4,6.9 2.4,6.9 Z" id="Path"></path>
                                        <path d="M3.7,7 C3.2,7.1 3.2,7.1 2.8,7.2 C2.3,7.3 2.1,7.4 2,7.4 C2,7.4 2,7.4 2,7.4 C2.1,7.4 2.2,7.3 2.3,7.3 C2.5,7.3 2.7,7.2 2.8,7.2 C2.8,7.2 3.2,7.1 3.2,7.1 C4,7 4.5,6.8 4.8,6.7 C4.8,6.7 4.8,6.7 4.8,6.6 C4.7,6.6 4.7,6.6 4.6,6.7 C4.7,6.7 4.7,6.6 4.8,6.6 C4.8,6.6 4.8,6.6 4.8,6.6 C4.4,6.7 4.4,6.7 4.2,6.8 C4.5,6.8 4,6.9 3.7,7 Z M3.5,7.1 C3.6,7.1 3.9,7 3.9,7 C3.8,7 3.6,7.1 3.5,7.1 Z M4.8,6.7 C4.7,6.7 4.7,6.8 4.6,6.8 C4.7,6.8 4.7,6.7 4.8,6.7 Z M4.6,6.8 C4.6,6.8 4.5,6.8 4.5,6.8 L4.6,6.8 Z" id="Shape"></path>
                                        <path d="M4.8,7.2 C4.7,7.2 4.6,7.2 4.8,7.2 C4.7,7.2 4.8,7.2 4.8,7.2 C4.8,7.2 4.8,7.2 4.8,7.2 Z" id="Path"></path>
                                        <path d="M2.9,7.7 C2.6,7.8 2.5,7.8 2.4,7.8 C2.4,7.8 2.4,7.8 2.4,7.9 C2.4,7.9 2.5,7.9 2.5,7.9 C3.7,7.7 4.2,7.4 4.4,7.4 C4.6,7.4 4.7,7.3 4.8,7.3 C4.8,7.3 4.8,7.3 4.9,7.3 C4.9,7.3 4.9,7.3 4.9,7.3 C5,7.3 5.1,7.3 5.2,7.2 C5.2,7.2 5.2,7.2 5.2,7.1 C5.2,7.1 5.2,7.1 5.2,7.1 C5.2,7.1 5.2,7.1 5.2,7.1 C5.1,7.1 5.1,7.1 5,7.2 C5.1,7.2 5.1,7.2 4.9,7.2 C4.9,7.2 4.6,7.3 4.4,7.3 C3.9,7.5 3.9,7.5 3.7,7.5 C3.7,7.5 3.2,7.6 2.9,7.7 Z M2.7,7.8 C2.8,7.8 3.1,7.7 3.1,7.7 C3,7.7 2.7,7.7 2.7,7.8 Z M3.4,7.6 C3.3,7.6 3.2,7.6 3.4,7.6 C3.4,7.6 3.4,7.6 3.4,7.6 Z M3.9,7.5 C4,7.5 4.1,7.4 4.2,7.4 C4.2,7.3 4.1,7.4 3.9,7.5 Z M4,7.4 C3.9,7.4 3.9,7.5 3.8,7.5 C3.8,7.5 3.9,7.4 4,7.4 Z M3.8,7.5 C3.8,7.5 3.7,7.5 3.7,7.5 L3.8,7.5 Z M3.5,7.6 C3.5,7.6 3.4,7.6 3.4,7.6 C3.4,7.6 3.5,7.6 3.5,7.6 Z" id="Shape"></path>
                                        <path d="M4.7,7.3 C4.7,7.3 4.8,7.3 4.7,7.3 C4.8,7.3 4.8,7.3 4.7,7.3 C4.8,7.3 4.8,7.3 4.7,7.3 C4.8,7.3 4.7,7.3 4.7,7.3 Z" id="Path"></path>
                                        <path d="M3.4,8.1 C3.4,8.1 3.4,8.1 3.4,8.1 C3.5,8.1 3.5,8.1 3.4,8.1 C3.9,8 3.8,8 4.2,7.8 C4.8,7.6 4.9,7.6 5.1,7.6 C5.1,7.6 5.1,7.6 5.1,7.5 C5.1,7.5 5,7.5 5,7.5 C4.5,7.6 4.4,7.8 3.4,8.1 C3.4,8 3.4,8 3.4,8.1 C3.6,8 3.6,8 3.4,8.1 C3.4,8 3.3,8 3.4,8.1 C3.2,8.1 3.1,8.1 2.9,8.1 C2.7,8.2 2.5,8.2 2.5,8.2 C2.5,8.2 2.5,8.3 2.5,8.3 C2.9,8.2 2.9,8.1 3.1,8.1 C3.2,8.2 3.3,8.1 3.4,8.1 Z M4.6,7.7 C4.7,7.7 4.9,7.7 4.7,7.7 C4.6,7.7 4.4,7.7 4.6,7.7 Z M2.7,8.2 C2.6,8.2 2.6,8.3 2.5,8.3 C2.5,8.3 2.6,8.2 2.7,8.2 Z M2.5,8.3 C2.6,8.3 2.7,8.2 2.8,8.2 C2.9,8.1 2.8,8.2 2.5,8.3 Z" id="Shape"></path>
                                        <path d="M3.3,8 C3.4,8 3.4,8 3.3,8 C3.4,8 3.3,8 3.3,8 Z" id="Path"></path>
                                        <path d="M3.4,8.1 C3.4,8.1 3.4,8.1 3.4,8.1 C3.5,8.1 3.5,8.1 3.4,8.1 C3.5,8.1 3.5,8.1 3.4,8.1 C3.4,8.1 3.4,8.1 3.4,8.1 Z" id="Path"></path>
                                        <path d="M2.8,8.7 C3.2,8.6 3.1,8.6 3.6,8.5 C4.5,8.2 4.3,8.4 5.3,8.1 C5.3,8.1 5.3,8 5.3,8 C4.1,8.4 4.5,8.1 3.8,8.4 C3.5,8.4 3.5,8.5 2.8,8.7 C2.9,8.6 2.9,8.6 2.8,8.7 C2.7,8.6 2.7,8.6 2.7,8.6 C2.6,8.6 2.5,8.6 2.4,8.7 C2.4,8.7 2.4,8.8 2.4,8.8 C2.5,8.8 2.7,8.8 2.8,8.7 C2.8,8.8 2.8,8.7 2.8,8.7 C2.8,8.7 2.8,8.7 2.8,8.7 Z M4.9,8.2 C4.8,8.2 4.8,8.2 4.9,8.2 C4.8,8.2 4.7,8.2 4.9,8.2 Z M3.9,8.3 C4,8.3 4.2,8.3 4,8.3 C4,8.3 3.7,8.4 3.9,8.3 Z M3.1,8.6 C3.1,8.6 3.1,8.6 3.1,8.6 C3.2,8.6 3.1,8.6 3.1,8.6 C3,8.6 3,8.6 3.1,8.6 Z" id="Shape"></path>
                                        <path d="M2.8,8.7 C2.7,8.7 2.6,8.7 2.8,8.7 C2.7,8.7 2.8,8.7 2.8,8.7 C2.8,8.7 2.8,8.7 2.8,8.7 Z" id="Path"></path>
                                        <path d="M2.8,8.8 C2.8,8.8 2.8,8.8 2.8,8.8 C2.8,8.7 2.8,8.7 2.8,8.8 C2.8,8.7 2.8,8.8 2.8,8.8 C2.7,8.8 2.8,8.8 2.8,8.8 Z" id="Path"></path>
                                        <path d="M4.2,8.8 C4.3,8.8 4.7,8.7 5,8.6 C5.1,8.6 5.1,8.6 5.4,8.5 C5.4,8.5 5.4,8.5 5.4,8.4 C5.4,8.4 5.3,8.4 5.2,8.5 C4.8,8.6 4.9,8.5 4.2,8.8 C3.9,8.8 3.5,9 3.2,9 C2.8,9 2.7,9.1 2.3,9.2 C2.3,9.2 2.3,9.2 2.3,9.3 C2.4,9.2 2.7,9.2 3.3,9.1 C3.6,9 3.5,9.1 4.2,8.8 Z M4.4,8.7 C4.4,8.7 4.5,8.7 4.5,8.7 C4.4,8.7 4.3,8.7 4.4,8.7 Z M2.9,9.1 C2.8,9.1 2.5,9.2 2.8,9.1 C2.9,9.1 3,9.1 2.9,9.1 Z" id="Shape"></path>
                                        <path d="M3.3,9.6 C3.3,9.6 3.7,9.5 3.7,9.5 C4.7,9.3 5.3,9.1 5.5,9 C5.5,9 5.5,8.9 5.5,8.9 C5.5,8.9 5.5,8.9 5.5,8.9 C4.9,9.1 5,9.1 4.8,9.1 C5,9 4.5,9.2 4.2,9.2 C3.6,9.4 3.6,9.4 3.3,9.6 C2.3,9.7 2.5,9.8 2.3,9.8 C2.3,9.8 2.3,9.8 2.3,9.8 C2.3,9.8 2.3,9.8 2.3,9.8 C2.3,9.8 2.3,9.8 2.3,9.8 C2.3,9.8 2.3,9.8 2.3,9.9 C2.4,9.9 2.5,9.8 2.8,9.7 C2.9,9.6 3.2,9.6 3.3,9.6 Z M5.1,9.1 C5.2,9.1 5.3,9 5.4,9 C5.4,8.9 5.3,9 5.1,9.1 Z M5.2,9 C5.1,9 5.1,9.1 5,9.1 C5,9.1 5.1,9 5.2,9 Z M5,9.1 C5,9.1 4.9,9.1 4.9,9.1 L5,9.1 Z M4.7,9.2 C4.7,9.2 4.6,9.2 4.6,9.2 C4.6,9.2 4.7,9.2 4.7,9.2 Z M4.6,9.2 C4.6,9.2 4.6,9.2 4.6,9.2 C4.5,9.2 4.4,9.2 4.6,9.2 Z M4.2,9.3 C4.1,9.3 3.9,9.4 3.8,9.4 C4,9.3 4.2,9.3 4.2,9.3 Z" id="Shape"></path>
                                        <path d="M2.6,10.1 C2.5,10.1 2.5,10.2 2.6,10.1 C2.6,10.1 2.6,10.1 2.6,10.1 C2.6,10.1 2.6,10.1 2.6,10.1 Z" id="Path"></path>
                                        <path d="M2.3,10.3 C2.4,10.3 2.5,10.3 2.6,10.2 C2.6,10.2 2.6,10.2 2.7,10.2 C2.7,10.2 2.7,10.2 2.7,10.2 C3.1,10.1 3,10.1 3.5,10 C4.5,9.7 4.1,10 5.2,9.6 C5.2,9.6 5.4,9.5 5.6,9.5 C5.6,9.5 5.6,9.5 5.6,9.4 C5.5,9.4 5.4,9.5 5.5,9.4 C5.5,9.4 5.6,9.4 5.6,9.4 C5.6,9.4 5.6,9.4 5.6,9.4 C5.5,9.4 5.4,9.5 5.2,9.5 C3.9,10 4.3,9.7 3.6,9.9 C3.3,10 3.3,10 2.7,10.2 C2.8,10.2 2.8,10.2 2.6,10.2 C2.6,10.2 2.6,10.2 2.5,10.2 C2.5,10.2 2.4,10.2 2.3,10.3 C2.3,10.2 2.3,10.3 2.3,10.3 Z M3.8,9.8 C3.9,9.8 4.1,9.8 3.9,9.8 C3.8,9.8 3.5,9.9 3.8,9.8 Z" id="Shape"></path>
                                        <path d="M2.6,10.2 C2.6,10.2 2.6,10.2 2.6,10.2 C2.7,10.2 2.7,10.2 2.6,10.2 C2.7,10.2 2.7,10.2 2.6,10.2 C2.6,10.2 2.6,10.2 2.6,10.2 Z" id="Path"></path>
                                        <path d="M5.2,9.9 C5.2,9.9 5.2,9.9 5.2,9.9 C5.2,9.9 5.1,9.9 5.2,9.9 Z" id="Path"></path>
                                        <path d="M2.6,10.7 C3.2,10.5 2.9,10.6 3.7,10.4 C4.7,10.2 4.7,10.1 4.9,10.1 C5.1,10.1 5.2,10 5.3,10 C5.3,10 5.3,10 5.4,10 C5.4,10 5.4,10 5.4,10 C5.6,10 5.7,9.9 5.7,9.9 C5.7,9.9 5.7,9.9 5.7,9.8 C5.7,9.8 5.7,9.8 5.7,9.8 C5.6,9.8 5.6,9.8 5.7,9.8 C5.7,9.8 5.7,9.8 5.7,9.8 C5.7,9.8 5.7,9.8 5.7,9.8 C5.6,9.8 5.5,9.9 5.3,9.9 C5.3,9.9 5.3,9.9 5.3,9.9 C5.4,9.9 5.4,9.9 5.3,9.9 C5.3,9.9 5.2,9.9 5.2,9.9 C5.1,9.9 4.9,10 4.8,10 C4.3,10.2 4.3,10.2 4.1,10.2 C4.3,10.1 3.8,10.3 3.5,10.3 C2.9,10.5 2.9,10.5 2.6,10.7 C2.5,10.7 2.5,10.7 2.5,10.7 C2.5,10.7 2.5,10.7 2.5,10.8 C2.5,10.7 2.6,10.7 2.6,10.7 Z M4.4,10.2 C4.5,10.2 4.6,10.1 4.7,10.1 C4.7,10 4.6,10.1 4.4,10.2 Z M4.5,10.1 C4.4,10.1 4.4,10.2 4.3,10.2 C4.3,10.2 4.4,10.2 4.5,10.1 Z M4.3,10.2 C4.3,10.2 4.2,10.2 4.2,10.2 L4.3,10.2 Z M3.9,10.3 C3.9,10.3 3.9,10.3 3.9,10.3 C3.8,10.3 3.7,10.3 3.9,10.3 Z M3.5,10.4 C3.4,10.4 3.2,10.5 3.1,10.5 C3.2,10.5 3.5,10.4 3.5,10.4 Z" id="Shape"></path>
                                        <path d="M5.2,10 C5.2,10 5.3,10 5.2,10 C5.3,10 5.3,10 5.2,10 C5.3,10 5.3,10 5.2,10 C5.3,10 5.2,10 5.2,10 Z" id="Path"></path>
                                    </g>
                                </g>
                                <path d="M10.3,20.5 C10.3,20.5 10.6,13 11.3,9.6 C12,6.2 13.2,3.8 14.1,2.6 C14.9,1.4 15.5,0.9 15.6,1 C15.7,1.1 15.7,1.8 15.4,2.1 C15.1,2.4 14.9,2.5 14.9,2.9 C14.9,3.4 15.2,3.6 15.1,4.1 C15,4.6 14.7,4.6 14.6,5.2 C14.5,5.8 14.8,5.7 14.7,6.4 C14.6,7.1 14.2,7.1 14.1,7.5 C14.1,7.9 14.4,8.4 14.2,9 C14,9.7 13.6,9.6 13.6,10.1 C13.6,10.5 13.9,10.8 13.8,11.4 C13.7,12.1 13.3,12.2 13.2,12.5 C13.1,12.8 13.5,13.1 13.4,13.6 C13.3,14.1 12,20.3 12,20.3 L10.3,20.5 Z" id="Path" fill="#426F61"></path>
                                <path d="M16.8,20.6 C17.3,19.7 18.9,16.7 20.5,15.1 C22,13.5 24.6,12 25.5,12 C25.5,12 25.6,12.3 25.2,12.6 C24.9,12.9 24.6,13.2 24.6,13.7 C24.6,14.3 24.6,14.7 24.3,15 C23.9,15.3 23.2,15.3 23,15.7 C22.8,16 23,16.6 22.6,17 C22.2,17.4 21.6,17.2 21.2,17.5 C20.8,17.8 20.5,18.2 20.2,18.9 C19.9,19.5 19.2,20 18.2,20.1 L17.8,20.7 L16.8,20.6 Z" id="Path" fill="#375A51"></path>
                                <g transform="translate(11.000000, 3.000000)">
                                    <path d="M7,0.1 C7,0.1 4.7,3.1 3.6,5.3 C2.5,7.5 0.3,15 0.1,17.6 L2.8,17.6 C2.8,17.6 3.3,17.2 3.3,16.8 C3.3,16.3 3.6,16.1 3.8,15.9 C4.1,15.7 4.2,15.1 4.1,14.6 C4,14.1 4.1,13.4 4.6,13 C5.1,12.6 5.4,12 5.4,11.4 C5.4,10.8 5.1,9.8 5.3,9.2 C5.4,8.7 6.2,8.1 6.3,7.4 C6.4,6.7 5.9,5.7 6.3,5 C6.7,4.3 7,4.1 7.1,3.4 C7.2,2.7 6.7,2.3 6.7,1.9 C6.7,1.6 7,1.4 7,1 C7.1,0.7 7,0.1 7,0.1 Z" id="Path" fill="#4E7568"></path>
                                    <g opacity="0.17" fill="#000000">
                                        <path d="M6.3,6.7 C6.2,6.7 6.2,6.7 6.3,6.7 C6.2,6.7 6.3,6.7 6.3,6.7 C6.3,6.7 6.3,6.7 6.3,6.7 Z" id="Path"></path>
                                        <path d="M6.2,6.7 C6,6.7 5.9,6.8 6.2,6.7 L6.2,6.7 Z" id="Path"></path>
                                        <path d="M5.9,8.1 C5.7,8.1 5.5,8.1 5.9,8.1 L5.9,8.1 Z" id="Path"></path>
                                        <path d="M5.4,4.7 C5,4.6 5.2,4.7 4.8,4.6 C4.7,4.6 4.5,4.6 4.4,4.6 C4.4,4.6 4.4,4.6 4.4,4.7 C4.5,4.7 4.5,4.7 4.6,4.7 C4.8,4.7 5.3,4.9 5.8,4.9 C6.1,4.9 5.8,4.9 6.3,5 C6.3,5 6.3,5 6.3,4.9 C5.8,4.7 6.2,4.8 5.4,4.7 Z M6.3,4.9 C6.3,4.9 6.2,4.9 6.2,4.9 C6.3,4.9 6.2,4.9 6.3,4.9 Z" id="Shape"></path>
                                        <path d="M4.2,5 C4.2,5.1 4.2,5.1 4.2,5 C4.2,5.1 4.3,5.1 4.4,5.1 C4.9,5.1 4.8,5.1 5,5.2 C5.5,5.3 5.9,5.3 6.1,5.4 C6.1,5.4 6.1,5.4 6.1,5.3 C5.8,5.3 5.4,5.2 5,5.1 C4.8,5.1 4.5,5.1 4.2,5 Z" id="Shape"></path>
                                        <path d="M5.2,5.6 C4.8,5.5 5,5.6 4.6,5.5 C4.4,5.4 4.2,5.5 4,5.4 C4,5.4 4,5.4 4,5.5 C4.1,5.5 4.2,5.5 4.4,5.5 C4.6,5.5 5.1,5.7 5.6,5.7 C5.9,5.7 5.5,5.6 6.2,5.8 C6.2,5.8 6.2,5.7 6.2,5.7 C6.2,5.7 6.2,5.7 6.2,5.7 C5.5,5.6 6,5.7 5.2,5.6 Z M4.4,5.5 C4.4,5.5 4.2,5.5 4.4,5.5 C4.4,5.5 4.5,5.5 4.4,5.5 Z M5.9,5.8 C6,5.8 5.9,5.8 6,5.8 C6,5.8 5.9,5.8 5.9,5.8 Z" id="Shape"></path>
                                        <path d="M5.5,6.1 C4.9,5.9 5.3,6.1 4.5,6 C4.1,5.9 4.3,6 3.9,5.9 C3.8,5.9 3.8,5.9 3.7,5.9 C3.7,5.9 3.7,5.9 3.7,5.9 C3.7,5.9 3.7,5.9 3.8,5.9 C3.8,5.9 3.8,5.9 3.8,5.9 C3.8,5.9 3.8,5.9 3.7,5.9 C3.7,5.9 3.7,5.9 3.7,6 C3.7,6 3.7,6 3.7,6 C3.9,6 4.4,6.2 4.9,6.2 C5.2,6.2 4.8,6.1 5.5,6.3 C5.8,6.3 5.6,6.3 6,6.4 C6.1,6.4 6.1,6.4 6.1,6.4 C6.1,6.4 6.1,6.3 6.1,6.3 C6,6.2 5.7,6.2 5.5,6.1 Z M5.3,6.2 C5.4,6.2 5.3,6.2 5.4,6.2 C5.4,6.2 5.3,6.2 5.3,6.2 Z" id="Shape"></path>
                                        <path d="M6.3,6.8 C6.3,6.7 6.3,6.7 6.3,6.8 C6.2,6.7 6,6.7 5.8,6.7 C5.8,6.7 5.9,6.7 5.8,6.7 C5.8,6.7 5.1,6.6 5.3,6.6 C5.3,6.6 4.6,6.5 4,6.4 C3.8,6.4 3.7,6.4 3.5,6.3 C3.5,6.3 3.5,6.3 3.5,6.4 C3.8,6.4 3.7,6.4 3.9,6.4 C5.8,6.7 5.4,6.6 6.3,6.8 C6.2,6.7 6.2,6.7 6.3,6.8 C6.3,6.7 6.3,6.7 6.3,6.8 Z" id="Shape"></path>
                                        <path d="M4.7,7 C4.3,6.9 4.5,7 4.1,6.9 C3.8,6.8 3.7,6.9 3.5,6.8 C3.5,6.8 3.4,6.8 3.4,6.8 C3.4,6.8 3.4,6.8 3.4,6.9 C3.5,6.9 3.7,6.9 4,7 C4.2,7 4.7,7.2 5.2,7.2 C5.5,7.2 5.1,7.1 5.8,7.3 C6.1,7.3 5.9,7.3 6.3,7.4 C6.3,7.4 6.4,7.4 6.4,7.4 C6.4,7.4 6.4,7.3 6.4,7.3 C6.2,7.3 6,7.3 5.7,7.2 C5.1,6.9 5.5,7.1 4.7,7 Z M5.5,7.1 C5.6,7.1 5.5,7.1 5.6,7.1 C5.5,7.1 5.5,7.1 5.5,7.1 Z" id="Shape"></path>
                                        <path d="M5.3,7.5 C4.7,7.3 5.1,7.5 4.3,7.4 C3.9,7.3 4.1,7.4 3.7,7.3 C3.5,7.2 3.3,7.3 3.1,7.2 C3.1,7.2 3.1,7.2 3.1,7.3 C3.2,7.3 3.3,7.3 3.5,7.3 C3.7,7.3 4.2,7.5 4.7,7.5 C5,7.5 4.6,7.4 5.3,7.6 C5.6,7.6 5.4,7.6 5.8,7.7 C6,7.7 6.1,7.7 6.2,7.7 C6.2,7.7 6.2,7.7 6.2,7.6 C5.9,7.6 5.6,7.6 5.3,7.5 Z M3.6,7.2 C3.6,7.2 3.4,7.2 3.6,7.2 C3.6,7.2 3.7,7.2 3.6,7.2 Z M5.1,7.5 C5.2,7.5 5.1,7.5 5.2,7.5 C5.2,7.5 5.1,7.5 5.1,7.5 Z" id="Shape"></path>
                                        <path d="M5,7.9 C5,7.9 4.3,7.8 3.7,7.7 C3.4,7.7 3.2,7.6 3,7.6 C3,7.6 3,7.7 3,7.7 C3.5,7.7 3.4,7.7 3.6,7.8 C5.4,8.1 5,8 5.9,8.1 C5.9,8.1 5.9,8.1 5.9,8.1 C5.9,8.1 5.9,8.1 5.9,8.1 C5.9,8.1 6,8.1 6,8.1 C6,8.1 6,8.1 6,8.1 C6,8.1 6,8.1 6,8.1 C6,8.1 6,8.1 6,8.1 C5.9,8.1 5.6,8 5.4,8 C5.4,8 5.5,8 5.4,8 C5.4,8 4.7,7.9 5,7.9 Z M5.2,8 C5.1,8 5.1,8 5.2,8 C5,8 5,8 5.2,8 Z" id="Shape"></path>
                                        <path d="M4.8,8.4 C4.4,8.3 4.6,8.4 4.2,8.3 C4,8.2 3.8,8.3 3.6,8.2 C3.1,8.1 3,8.1 2.9,8.1 C2.9,8.1 2.9,8.1 2.9,8.2 C3,8.2 3.1,8.2 3.2,8.2 C3.4,8.2 3.4,8.3 4.1,8.3 C4.3,8.3 4.8,8.5 5.3,8.5 C5.5,8.5 5.3,8.5 5.7,8.6 C5.7,8.6 5.7,8.6 5.7,8.5 C5.2,8.4 5.6,8.5 4.8,8.4 Z M5.7,8.6 C5.7,8.6 5.6,8.6 5.6,8.6 C5.7,8.5 5.6,8.5 5.7,8.6 Z" id="Shape"></path>
                                        <path d="M3.4,8.6 C2.9,8.5 3.1,8.5 2.7,8.5 C2.7,8.5 2.7,8.5 2.7,8.6 C2.7,8.6 2.8,8.6 2.8,8.6 C3.1,8.6 2.7,8.5 3.4,8.7 C3.7,8.7 3.5,8.7 3.9,8.8 C4.4,8.8 4.3,8.8 4.5,8.9 C4.9,9 5.1,9 5.3,9 C5.3,9 5.3,9 5.3,8.9 C3.5,8.6 3.8,8.7 3.4,8.6 Z M3.2,8.6 C3.3,8.6 3.2,8.6 3.3,8.6 C3.3,8.6 3.2,8.6 3.2,8.6 Z" id="Shape"></path>
                                        <path d="M4.8,9.3 C4.4,9.2 4.6,9.3 4.2,9.2 C3.9,9.1 3.8,9.2 3.6,9.1 C2.9,9 3,9 2.6,9 C2.6,9 2.6,9 2.6,9 L5.3,9.4 C5.3,9.4 5.3,9.4 5.3,9.4 C5.2,9.4 5.1,9.3 4.8,9.3 Z" id="Shape"></path>
                                        <path d="M6.9,0.8 C6.9,0.8 6.9,0.8 6.9,0.8 C6.9,0.9 7,0.9 7.1,0.9 C7.1,0.9 7.1,0.9 7.1,0.8 C7,0.8 7,0.8 6.9,0.8 Z" id="Path"></path>
                                        <path d="M7,1.3 C7,1.3 7,1.3 7,1.3 C7,1.3 7,1.3 7,1.3 C6.9,1.3 6.8,1.3 6.6,1.3 C6.6,1.3 6.6,1.3 6.6,1.4 C6.7,1.3 6.8,1.3 7,1.3 C6.9,1.3 7,1.3 7,1.3 C7,1.3 7,1.3 7,1.3 C7,1.3 6.8,1.3 7,1.3 Z" id="Path"></path>
                                        <path d="M6.4,1.7 C6.4,1.7 6.3,1.7 6.4,1.7 C6.5,1.8 6.6,1.8 6.8,1.8 C6.8,1.8 6.8,1.8 6.8,1.7 C6.8,1.7 6.8,1.7 6.7,1.7 C6.5,1.7 6.4,1.7 6.4,1.7 Z" id="Path"></path>
                                        <path d="M6.7,2.3 C6.8,2.3 6.8,2.3 6.9,2.3 C6.9,2.3 6.9,2.2 6.9,2.2 C6.7,2.2 6.5,2.2 6.2,2.1 C6.2,2.1 6.2,2.1 6.2,2.1 C6.2,2.1 6.2,2.1 6.2,2.2 C6.2,2.2 6.3,2.2 6.4,2.2 C6.5,2.2 6.3,2.2 6.7,2.3 Z" id="Path"></path>
                                        <path d="M6.5,2.6 C6.2,2.5 6,2.5 5.8,2.5 C5.8,2.5 5.8,2.5 5.8,2.6 C5.8,2.6 5.8,2.6 5.9,2.6 C6.4,2.6 6.2,2.6 6.5,2.6 C6.6,2.7 6.8,2.7 7,2.8 C7,2.8 7,2.8 7,2.7 C6.9,2.7 6.7,2.6 6.5,2.6 Z" id="Path"></path>
                                        <path d="M7,3.1 C7,3.1 6.3,3 6.5,3 C6.6,3 6.3,3 6.3,3 C6,3 5.8,2.9 5.6,2.9 C5.6,2.9 5.6,2.9 5.6,3 C6.8,3.2 6.7,3.1 7.2,3.2 C7.2,3.2 7.2,3.2 7.2,3.2 C7.1,3.2 7,3.2 7,3.1 C6.9,3.1 7,3.2 7,3.1 Z" id="Shape"></path>
                                        <path d="M5.5,3.4 C5.7,3.4 5.7,3.5 6.4,3.5 C6.5,3.5 6.8,3.6 7.1,3.6 C7.1,3.6 7.1,3.6 7.1,3.5 C6.8,3.5 6.9,3.5 6.6,3.4 C6.3,3.3 6.2,3.4 6,3.3 C5.6,3.2 5.4,3.2 5.3,3.2 C5.3,3.2 5.3,3.2 5.3,3.3 C5.3,3.4 5.4,3.4 5.5,3.4 Z M6.4,3.5 C6.4,3.5 6.5,3.5 6.4,3.5 C6.4,3.5 6.2,3.5 6.4,3.5 Z" id="Shape"></path>
                                        <path d="M5.8,3.9 C5.5,3.8 5.2,3.8 4.9,3.8 C4.9,3.8 4.9,3.8 4.9,3.9 C4.9,3.9 5,3.9 5.1,3.9 C5.6,3.9 5.5,3.9 5.8,3.9 C6.2,4 6.6,4.1 6.8,4.1 C6.8,4.1 6.8,4.1 6.8,4 C6.6,4 6.2,4 5.8,3.9 Z" id="Shape"></path>
                                        <path d="M6.1,4.4 C5.7,4.3 5.9,4.4 5.5,4.3 C5.2,4.2 5.1,4.3 4.9,4.2 C4.9,4.2 4.8,4.2 4.8,4.2 C4.8,4.2 4.8,4.2 4.8,4.3 C4.9,4.3 5.1,4.4 5.4,4.4 C5.6,4.4 6.1,4.6 6.6,4.6 C6.6,4.6 6.6,4.6 6.6,4.6 C6.6,4.6 6.6,4.6 6.6,4.5 C6.5,4.5 6.4,4.5 6.1,4.4 Z M5.4,4.3 C5.3,4.3 5.1,4.3 5.4,4.3 C5.4,4.3 5.4,4.3 5.4,4.3 Z" id="Shape"></path>
                                        <path d="M3.4,14.1 C3.2,14 3,14.1 2.8,14 C1.9,13.8 2.2,14 1.5,13.8 C1.5,13.8 1.5,13.8 1.5,13.9 C1.8,14 2,14 2.3,14 C2.5,14 2.5,14.1 3.2,14.1 C3.3,14.1 3.7,14.2 4.1,14.3 C4.1,14.3 4.1,14.3 4.1,14.2 C4.1,14.2 4,14.2 4,14.2 C3.6,14.2 3.8,14.2 3.4,14.1 Z" id="Shape"></path>
                                        <path d="M2.4,14.5 C1.8,14.3 2.2,14.5 1.4,14.4 C1.4,14.4 1.4,14.4 1.3,14.4 C1.3,14.4 1.3,14.4 1.3,14.5 C1.5,14.5 1.6,14.5 1.8,14.5 C2.1,14.5 1.7,14.4 2.4,14.6 C2.7,14.6 2.5,14.6 2.9,14.7 C3.4,14.7 3.3,14.7 3.5,14.8 C3.7,14.8 3.9,14.9 4,14.9 C4,14.9 4,14.9 4,14.8 C3.8,14.8 3.7,14.7 3.5,14.7 C3.2,14.5 2.8,14.6 2.4,14.5 Z M2.2,14.5 C2.3,14.5 2.2,14.5 2.3,14.5 C2.3,14.5 2.3,14.5 2.2,14.5 Z" id="Shape"></path>
                                        <path d="M3.7,15.1 C3.3,15 3.5,15.1 3.1,15 C2.9,14.9 2.7,15 2.5,14.9 C1.7,14.7 1.9,14.9 1.3,14.7 C1.3,14.7 1.3,14.7 1.3,14.8 C1.6,14.9 1.8,14.9 2.1,14.9 C2.3,14.9 2.3,15 3,15 C3.2,15 3.7,15.2 4.2,15.2 C4.2,15.2 4.2,15.2 4.2,15.1 C4.1,15.2 4,15.2 3.7,15.1 Z" id="Shape"></path>
                                        <path d="M3.1,15.5 C2.7,15.4 2.9,15.5 2.5,15.4 C2.3,15.3 2.1,15.4 1.9,15.3 C1.4,15.2 1.3,15.2 1.2,15.2 C1.2,15.2 1.2,15.2 1.2,15.3 C1.3,15.3 1.4,15.3 1.5,15.3 C1.7,15.3 1.7,15.4 2.4,15.4 C2.6,15.4 3.1,15.6 3.6,15.6 C3.8,15.6 3.6,15.6 4,15.7 C4,15.7 4,15.7 4,15.7 C4,15.7 4,15.7 3.9,15.7 C3.9,15.7 3.9,15.7 4,15.7 C4,15.7 4,15.7 4,15.6 C3.5,15.5 3.9,15.6 3.1,15.5 Z" id="Shape"></path>
                                        <path d="M2.6,15.9 C2.1,15.8 1.7,15.8 1.3,15.7 C1.2,15.7 1.1,15.6 1,15.6 C1,15.6 1,15.6 1,15.7 C1.1,15.7 1.2,15.7 1.4,15.8 C1.7,15.8 1.5,15.8 1.9,15.9 C2.4,15.9 2.3,15.9 2.6,15.9 C2.9,16 3.3,16.1 3.5,16.1 C3.5,16.1 3.5,16.1 3.5,16 C3.3,16 2.9,15.9 2.6,15.9 Z M1.1,15.7 C1.2,15.7 1.1,15.7 1.2,15.7 C1.2,15.7 1.1,15.7 1.1,15.7 Z" id="Shape"></path>
                                        <path d="M3.3,16.5 C2.9,16.4 3.1,16.5 2.7,16.4 C2.4,16.3 2.3,16.4 2.1,16.3 C1.3,16.1 1.5,16.3 1,16.2 C1,16.2 1,16.2 1,16.3 C1.2,16.3 1.4,16.4 1.7,16.3 C1.9,16.3 1.9,16.4 2.6,16.4 C2.6,16.4 2.9,16.5 3.3,16.5 C3.3,16.5 3.3,16.5 3.3,16.5 C3.3,16.5 3.3,16.5 3.3,16.5 Z M2.6,16.3 C2.5,16.3 2.3,16.3 2.6,16.3 C2.6,16.3 2.6,16.3 2.6,16.3 Z" id="Shape"></path>
                                        <path d="M2.3,16.8 C2.1,16.7 1.9,16.8 1.7,16.7 C1.1,16.6 1.1,16.6 0.8,16.6 C0.8,16.6 0.8,16.6 0.8,16.7 C0.9,16.7 1.1,16.7 1.3,16.7 C1.5,16.7 1.5,16.8 2.2,16.8 C2.4,16.8 2.8,17 3.3,17 C3.3,17 3.3,17 3.3,16.9 C3.2,16.9 3.1,16.9 3,16.9 C2.5,16.8 2.7,16.9 2.3,16.8 Z" id="Shape"></path>
                                        <path d="M1,17 C0.8,17 0.8,16.9 0.7,16.9 C0.7,16.9 0.7,16.9 0.7,17 C0.8,17 0.9,17 1.1,17.1 C1.4,17.1 1.2,17.1 1.6,17.2 C2.1,17.2 2,17.2 2.2,17.3 C2.5,17.4 2.8,17.4 3,17.4 C3,17.4 3,17.4 3.1,17.3 C2.9,17.3 2.6,17.2 2.4,17.2 C1.7,17.1 1.4,17.2 1,17 Z M0.8,17.1 C0.9,17.1 0.8,17.1 0.9,17.1 C0.8,17.1 0.8,17.1 0.8,17.1 Z" id="Shape"></path>
                                        <path d="M0.6,17.5 C0.6,17.5 0.6,17.5 0.6,17.5 L1,17.5 C0.9,17.5 0.8,17.5 0.6,17.5 C0.6,17.5 0.6,17.5 0.6,17.5 Z" id="Path"></path>
                                        <path d="M2.6,9.1 C2.8,9.1 3,9.1 3.2,9.1 C3.4,9.1 3.4,9.2 4.1,9.2 C4.3,9.2 4.8,9.4 5.3,9.4 C5.3,9.4 5.3,9.4 5.3,9.4 C5.3,9.4 5.3,9.4 5.3,9.4 L2.6,9.1 C2.6,9 2.6,9 2.6,9.1 Z" id="Path"></path>
                                        <path d="M4,9.7 C3.6,9.6 3.7,9.7 3.4,9.6 C3.2,9.5 3,9.6 2.8,9.5 C2.7,9.5 2.6,9.5 2.5,9.5 C2.5,9.5 2.5,9.5 2.5,9.6 C2.6,9.6 2.8,9.7 3.2,9.7 C3.4,9.7 3.9,9.9 4.4,9.9 C4.7,9.9 4.3,9.8 5,10 C5.2,10 5.2,10 5.2,10 C5.2,10 5.2,10 5.2,9.9 C5.1,9.9 5,9.9 4.9,9.8 C4.4,9.6 4.8,9.8 4,9.7 Z M4.8,9.8 C4.9,9.8 4.8,9.8 4.9,9.8 C4.8,9.8 4.8,9.8 4.8,9.8 Z" id="Shape"></path>
                                        <path d="M4.3,10.1 C3.7,9.9 4.1,10.1 3.3,10 C2.9,9.9 3.1,10 2.7,9.9 C2.6,9.9 2.5,9.9 2.4,9.9 C2.4,9.9 2.4,9.9 2.4,10 C2.4,10 2.5,10 2.5,10 C2.7,10 3.2,10.2 3.7,10.2 C4,10.2 3.6,10.1 4.3,10.3 C4.6,10.3 4.4,10.3 4.8,10.4 C5.2,10.4 5.2,10.4 5.3,10.4 C5.3,10.4 5.3,10.4 5.3,10.3 C4.5,10.2 4.6,10.2 4.3,10.1 Z M2.6,9.9 C2.6,9.9 2.3,9.8 2.6,9.9 C2.6,9.9 2.6,9.9 2.6,9.9 Z M4.1,10.2 C4.2,10.2 4.1,10.2 4.2,10.2 C4.1,10.2 4.1,10.2 4.1,10.2 Z" id="Shape"></path>
                                        <path d="M3.4,10.5 C3.2,10.4 2.9,10.4 2.8,10.4 C2.7,10.4 2.4,10.3 2.4,10.3 C2.4,10.3 2.4,10.3 2.4,10.3 C2.4,10.3 2.4,10.3 2.2,10.3 C2.2,10.3 2.2,10.3 2.2,10.4 C2.2,10.4 2.3,10.4 2.3,10.4 C2.4,10.4 2.5,10.4 2.6,10.5 C3.1,10.5 3.2,10.5 3.4,10.5 C3.9,10.7 4.2,10.7 4.6,10.7 C4.8,10.7 4.8,10.8 5.4,10.8 C5.4,10.8 5.4,10.8 5.4,10.7 C5.3,10.7 5.2,10.7 5.1,10.7 C4.1,10.5 4.6,10.7 3.4,10.5 Z M2.6,10.3 C2.4,10.3 2.7,10.3 2.8,10.3 C2.6,10.3 2.7,10.4 2.6,10.3 Z" id="Shape"></path>
                                        <path d="M4.7,11.1 C4.5,11 4.3,11.1 4.1,11 C3.1,10.8 3.6,11 2.4,10.7 C2.3,10.7 2.3,10.7 2.2,10.7 C2.2,10.7 2.2,10.7 2.2,10.8 C2.3,10.8 2.3,10.8 2.4,10.8 C2.9,10.9 3.2,11 3.6,11 C3.8,11 3.8,11.1 4.5,11.1 C4.7,11.1 5.1,11.2 5.5,11.3 C5.5,11.3 5.5,11.3 5.5,11.2 C5.4,11.2 5.4,11.2 5.3,11.2 C4.8,11.2 5,11.2 4.7,11.1 Z M4.6,11.1 C4.5,11.1 4.3,11.1 4.6,11.1 C4.5,11.1 4.6,11.1 4.6,11.1 Z" id="Shape"></path>
                                        <path d="M4.2,11.6 C4.5,11.6 4.1,11.5 4.8,11.7 C5.1,11.7 4.9,11.7 5.3,11.8 C5.4,11.8 5.4,11.8 5.4,11.8 C5.4,11.8 5.4,11.8 5.4,11.7 C5.1,11.7 4.9,11.7 4.7,11.6 C4.1,11.4 4.5,11.6 3.7,11.5 C3.3,11.4 3.5,11.5 3.1,11.4 C2.8,11.3 2.7,11.4 2.5,11.3 C2.3,11.3 2.2,11.2 2.1,11.2 C2.1,11.2 2.1,11.2 2.1,11.2 C2.2,11.2 2.3,11.3 2.9,11.3 C3.1,11.4 3.6,11.6 4.2,11.6 Z M4.6,11.6 C4.6,11.6 4.5,11.6 4.5,11.6 C4.6,11.6 4.5,11.6 4.6,11.6 Z" id="Shape"></path>
                                        <path d="M5.1,12.1 C4.6,12 4.2,12 3.8,11.9 C3.2,11.7 3.6,11.9 2.8,11.8 C2.4,11.7 2.6,11.8 2.2,11.7 C2.1,11.7 2,11.7 1.9,11.7 C1.9,11.7 1.9,11.7 1.9,11.8 C1.9,11.8 1.9,11.8 2,11.8 C2.2,11.8 2.7,12 3.2,12 C3.5,12 3.1,11.9 3.8,12.1 C4.1,12.1 3.9,12.1 4.3,12.2 C4.9,12.1 4.8,12.1 5.1,12.1 C5.1,12.2 5.2,12.2 5.2,12.2 C5.2,12.2 5.2,12.2 5.2,12.1 C5.2,12.1 5.2,12.1 5.1,12.1 Z M2.2,11.7 C2.1,11.7 1.9,11.6 2.2,11.7 C2.1,11.7 2.2,11.7 2.2,11.7 Z M3.6,11.9 C3.7,11.9 3.6,11.9 3.7,11.9 C3.7,12 3.7,12 3.6,11.9 Z" id="Shape"></path>
                                        <path d="M4.9,12.6 C2.6,12.2 2.9,12.4 2.5,12.2 C2,12.1 2.2,12.1 2,12.1 C2,12.1 2,12.1 2,12.2 C2,12.2 2,12.2 2,12.2 C2.3,12.2 1.9,12.1 2.6,12.3 C2.9,12.3 2.7,12.3 3.1,12.4 C3.6,12.4 3.5,12.4 3.7,12.5 C4.4,12.6 4.8,12.7 5,12.7 C5,12.7 5,12.7 5,12.6 C4.9,12.6 4.9,12.6 4.9,12.6 Z M2.3,12.2 C2.4,12.2 2.3,12.2 2.4,12.2 C2.3,12.2 2.3,12.2 2.3,12.2 Z" id="Shape"></path>
                                        <path d="M1.8,12.5 C1.8,12.6 1.8,12.6 1.8,12.5 C1.8,12.6 1.8,12.6 1.8,12.5 C1.9,12.6 2,12.6 2.1,12.6 C2.5,12.7 2.6,12.6 2.8,12.7 C3.3,12.8 3.6,12.9 4,12.9 C4.1,12.9 4.2,12.9 4.5,13 C4.5,13 4.5,13 4.6,12.9 C4.6,12.9 4.5,12.9 4.5,12.9 C3.5,12.7 4,12.9 2.8,12.6 C2.6,12.5 2.3,12.5 2.2,12.5 C2.2,12.6 1.9,12.5 1.8,12.5 C1.9,12.5 1.9,12.6 1.8,12.5 C1.9,12.6 1.9,12.6 1.8,12.5 Z M2.2,12.6 C2,12.6 2.1,12.6 2,12.6 C1.8,12.5 2.2,12.6 2.2,12.6 Z" id="Shape"></path>
                                        <path d="M3.2,13.3 C3.5,13.3 3.3,13.3 3.7,13.4 C4.2,13.4 4.1,13.4 4.3,13.4 C4.3,13.4 4.3,13.4 4.3,13.3 C3.8,13.2 3.5,13.2 3.1,13.1 C2.5,12.9 2.9,13.1 2.1,13 C1.8,13 1.8,13 1.7,12.9 C1.7,12.9 1.7,12.9 1.7,13 C1.9,13.1 2.3,13.1 2.6,13.1 C2.9,13.2 2.5,13.1 3.2,13.3 Z M3,13.3 C3,13.3 2.9,13.3 2.9,13.3 C3,13.3 3,13.2 3,13.3 Z" id="Shape"></path>
                                        <path d="M4.1,13.8 C3.8,13.7 3.7,13.8 3.5,13.7 C2.5,13.5 3,13.7 1.8,13.4 C1.8,13.4 1.7,13.4 1.7,13.4 C1.7,13.4 1.7,13.4 1.7,13.5 C1.8,13.5 1.8,13.5 1.9,13.5 C2.4,13.6 2.7,13.7 3.1,13.7 C3.3,13.7 3.3,13.8 4,13.8 C3.9,13.8 4,13.9 4.1,13.8 C4.1,13.9 4.1,13.9 4.1,13.8 C4.1,13.8 4.1,13.8 4.1,13.8 Z M4,13.8 C3.9,13.8 3.7,13.8 4,13.8 C3.9,13.8 4,13.8 4,13.8 Z" id="Shape"></path>
                                    </g>
                                </g>
                            </g>
                            <g transform="translate(0.000000, 20.000000)">
                                <rect id="Rectangle" fill="#795D5C" x="0.5" y="0.4" width="24.7" height="8"></rect>
                                <rect id="Rectangle" fill="url(#linearGradient-19)" x="0.5" y="4.5" width="24.7" height="3.7"></rect>
                                <rect id="Rectangle" fill="url(#linearGradient-20)" x="0.5" y="0.6" width="24.7" height="3.7"></rect>
                                <g transform="translate(5.000000, 1.000000)" fill="#A2806F" fill-rule="nonzero" id="Path">
                                    <path d="M0.8,2 C0.8,2.2 0.7,2.3 0.6,2.3 C0.5,2.3 0.4,2.2 0.4,2 C0.4,1.8 0.5,1.7 0.6,1.7 C0.7,1.7 0.8,1.8 0.8,2 Z"></path>
                                    <path d="M11.9,1.9 C11.9,2.1 11.8,2.2 11.7,2.2 C11.6,2.2 11.5,2.1 11.5,1.9 C11.5,1.7 11.6,1.6 11.7,1.6 C11.8,1.6 11.9,1.7 11.9,1.9 Z"></path>
                                    <path d="M18.8,1.3 C18.8,1.5 18.7,1.6 18.6,1.6 C18.5,1.6 18.4,1.5 18.4,1.3 C18.4,1.1 18.5,1 18.6,1 C18.7,1 18.8,1.2 18.8,1.3 Z"></path>
                                </g>
                                <rect id="Rectangle" fill="#9D8785" fill-rule="nonzero" opacity="0.56" x="0.5" y="0.4" width="5.1" height="8"></rect>
                            </g>
                        </g>
                        <circle id="Oval" fill="#FFFFFF" fill-rule="nonzero" cx="199.5" cy="4.2" r="1"></circle>
                        <path d="M109.6,95.3 C109.6,95.5 109.4,95.7 109.2,95.7 C109,95.7 108.8,95.5 108.8,95.3 C108.8,95.1 109,94.9 109.2,94.9 C109.4,94.8 109.6,95 109.6,95.3 Z" id="Path" fill="#FFFFFF" fill-rule="nonzero"></path>
                        <g id="Group" transform="translate(106.000000, 110.000000)" fill-rule="nonzero">
                            <rect id="Rectangle" fill="#485CA8" transform="translate(33.122064, 22.651631) rotate(179.818623) translate(-33.122064, -22.651631) " x="1.0219031" y="0.901522488" width="64.2003217" height="43.500218"></rect>
                            <rect id="Rectangle" fill="#37B99A" transform="translate(33.266129, 45.360731) rotate(179.818623) translate(-33.266129, -45.360731) " x="1.16596837" y="43.660723" width="64.2003217" height="3.40001704"></rect>
                            <rect id="Rectangle" fill="#FFFFFF" transform="translate(33.171906, 22.601473) rotate(179.818623) translate(-33.171906, -22.601473) " x="4.52176211" y="3.20137598" width="57.3002871" height="38.8001944"></rect>
                            <rect id="Rectangle" fill="#F0F0EF" transform="translate(56.158954, 37.405441) rotate(179.818623) translate(-56.158954, -37.405441) " x="52.2589347" y="34.405426" width="7.80003908" height="6.00003006"></rect>
                            <rect id="Rectangle" fill="#F0F0EF" transform="translate(46.981954, 37.463617) rotate(179.818623) translate(-46.981954, -37.463617) " x="43.0819347" y="34.4636022" width="7.80003908" height="6.00003006"></rect>
                            <rect id="Rectangle" fill="#F0F0EF" transform="translate(37.804538, 37.421793) rotate(179.818623) translate(-37.804538, -37.421793) " x="33.9045182" y="34.4217784" width="7.80003908" height="6.00003006"></rect>
                            <rect id="Rectangle" fill="#F0F0EF" transform="translate(28.627538, 37.479870) rotate(179.818623) translate(-28.627538, -37.479870) " x="24.7275182" y="34.4798545" width="7.80003908" height="6.00003006"></rect>
                            <rect id="Rectangle" fill="#F0F0EF" transform="translate(19.450438, 37.538046) rotate(179.818623) translate(-19.450438, -37.538046) " x="15.5504182" y="34.5380307" width="7.80003908" height="6.00003006"></rect>
                            <rect id="Rectangle" fill="#E2E1DF" transform="translate(10.173121, 37.496438) rotate(179.818623) translate(-10.173121, -37.496438) " x="6.27310161" y="34.4964234" width="7.80003908" height="6.00003006"></rect>
                            <rect id="Rectangle" fill="#F0F0EF" transform="translate(56.111780, 29.930841) rotate(179.818623) translate(-56.111780, -29.930841) " x="52.2117604" y="26.930826" width="7.80003908" height="6.00003006"></rect>
                            <rect id="Rectangle" fill="#F0F0EF" transform="translate(46.934680, 29.989017) rotate(179.818623) translate(-46.934680, -29.989017) " x="43.0346604" y="26.9890022" width="7.80003908" height="6.00003006"></rect>
                            <rect id="Rectangle" fill="#EE584B" transform="translate(37.757680, 30.047093) rotate(179.818623) translate(-37.757680, -30.047093) " x="33.8576604" y="27.0470784" width="7.80003908" height="6.00003006"></rect>
                            <rect id="Rectangle" fill="#F0F0EF" transform="translate(28.580363, 30.005270) rotate(179.818623) translate(-28.580363, -30.005270) " x="24.6803439" y="27.0052545" width="7.80003908" height="6.00003006"></rect>
                            <rect id="Rectangle" fill="#F0F0EF" transform="translate(19.403263, 30.063446) rotate(179.818623) translate(-19.403263, -30.063446) " x="15.5032439" y="27.0634307" width="7.80003908" height="6.00003006"></rect>
                            <rect id="Rectangle" fill="#E2E1DF" transform="translate(10.226263, 30.121522) rotate(179.818623) translate(-10.226263, -30.121522) " x="6.32624387" y="27.1215069" width="7.80003908" height="6.00003006"></rect>
                            <rect id="Rectangle" fill="#F0F0EF" transform="translate(56.164822, 22.555924) rotate(179.818623) translate(-56.164822, -22.555924) " x="52.2648027" y="19.5559095" width="7.80003908" height="6.00003006"></rect>
                            <rect id="Rectangle" fill="#F0F0EF" transform="translate(46.887506, 22.514417) rotate(179.818623) translate(-46.887506, -22.514417) " x="42.9874861" y="19.5144022" width="7.80003908" height="6.00003006"></rect>
                            <rect id="Rectangle" fill="#F0F0EF" transform="translate(37.710506, 22.572493) rotate(179.818623) translate(-37.710506, -22.572493) " x="33.8104861" y="19.5724784" width="7.80003908" height="6.00003006"></rect>
                            <rect id="Rectangle" fill="#F0F0EF" transform="translate(28.533406, 22.630670) rotate(179.818623) translate(-28.533406, -22.630670) " x="24.6333861" y="19.6306545" width="7.80003908" height="6.00003006"></rect>
                            <rect id="Rectangle" fill="#F0F0EF" transform="translate(19.356406, 22.688846) rotate(179.818623) translate(-19.356406, -22.688846) " x="15.4563861" y="19.6888307" width="7.80003908" height="6.00003006"></rect>
                            <rect id="Rectangle" fill="#E2E1DF" transform="translate(10.179089, 22.646922) rotate(179.818623) translate(-10.179089, -22.646922) " x="6.27906956" y="19.6469069" width="7.80003908" height="6.00003006"></rect>
                            <rect id="Rectangle" fill="#F0F0EF" transform="translate(56.117648, 15.081324) rotate(179.818623) translate(-56.117648, -15.081324) " x="52.2176284" y="12.0813095" width="7.80003908" height="6.00003006"></rect>
                            <rect id="Rectangle" fill="#F0F0EF" transform="translate(46.940648, 15.139501) rotate(179.818623) translate(-46.940648, -15.139501) " x="43.0406284" y="12.1394856" width="7.80003908" height="6.00003006"></rect>
                            <rect id="Rectangle" fill="#F0F0EF" transform="translate(37.763231, 15.097577) rotate(179.818623) translate(-37.763231, -15.097577) " x="33.8632118" y="12.0975618" width="7.80003908" height="6.00003006"></rect>
                            <rect id="Rectangle" fill="#F0F0EF" transform="translate(28.486231, 15.156070) rotate(179.818623) translate(-28.486231, -15.156070) " x="24.5862118" y="12.1560545" width="7.80003908" height="6.00003006"></rect>
                            <rect id="Rectangle" fill="#F0F0EF" transform="translate(19.309131, 15.214146) rotate(179.818623) translate(-19.309131, -15.214146) " x="15.4091118" y="12.2141307" width="7.80003908" height="6.00003006"></rect>
                            <rect id="Rectangle" fill="#E2E1DF" transform="translate(10.132131, 15.272322) rotate(179.818623) translate(-10.132131, -15.272322) " x="6.23211181" y="12.2723069" width="7.80003908" height="6.00003006"></rect>
                            <rect id="Rectangle" fill="#F0F0EF" transform="translate(56.070474, 7.606724) rotate(179.818623) translate(-56.070474, -7.606724) " x="52.1704541" y="4.60670946" width="7.80003908" height="6.00003006"></rect>
                            <rect id="Rectangle" fill="#F0F0EF" transform="translate(46.893474, 7.664801) rotate(179.818623) translate(-46.893474, -7.664801) " x="42.9934541" y="4.66478562" width="7.80003908" height="6.00003006"></rect>
                            <rect id="Rectangle" fill="#F0F0EF" transform="translate(37.716374, 7.722977) rotate(179.818623) translate(-37.716374, -7.722977) " x="33.8163541" y="4.72296179" width="7.80003908" height="6.00003006"></rect>
                            <rect id="Rectangle" fill="#F0F0EF" transform="translate(28.539374, 7.781153) rotate(179.818623) translate(-28.539374, -7.781153) " x="24.6393541" y="4.78113796" width="7.80003908" height="6.00003006"></rect>
                            <rect id="Rectangle" fill="#F0F0EF" transform="translate(19.361957, 7.739229) rotate(179.818623) translate(-19.361957, -7.739229) " x="15.4619375" y="4.73921412" width="7.80003908" height="6.00003006"></rect>
                            <rect id="Rectangle" fill="#E2E1DF" transform="translate(10.084957, 7.797722) rotate(179.818623) translate(-10.084957, -7.797722) " x="6.18493751" y="4.79770685" width="7.80003908" height="6.00003006"></rect>
                            <path d="M34.9,32 C35,32.1 35.1,32.1 35.2,32.1 C35.4,32 35.6,31.9 35.7,31.8 C35.9,31.7 36,31.5 36.2,31.4 C36.5,31.1 36.8,30.8 37.1,30.5 C37.4,30.2 37.6,29.9 37.8,29.5 C37.9,29.3 38,29.2 38.1,29 C38.2,29.1 38.2,29.1 38.3,29.2 C38.5,29.4 38.8,29.6 39,29.7 C39.2,29.9 39.5,30 39.7,30.2 C39.9,30.4 40.2,30.5 40.4,30.7 C40.5,30.8 40.6,30.7 40.7,30.7 C40.8,30.6 40.8,30.5 40.7,30.4 L40.7,30.4 C40.5,30.2 40.3,30 40.1,29.8 C39.9,29.6 39.7,29.4 39.5,29.2 C39.3,29 39.1,28.8 38.9,28.6 C38.8,28.5 38.7,28.4 38.6,28.3 C38.5,28.2 38.5,28.1 38.4,28 C38.4,27.9 38.3,27.9 38.2,27.8 C38,27.7 37.7,27.7 37.6,27.9 L37.5,28 L37.5,28 C37.5,28 37.5,28 37.5,28.1 L37.5,28.2 L37.4,28.3 C37.4,28.4 37.3,28.5 37.3,28.6 C37.2,28.8 37.1,28.9 37,29.1 C36.8,29.4 36.6,29.8 36.4,30.1 C36.2,30.4 36,30.7 35.7,31 C35.6,31.1 35.4,31.3 35.3,31.4 C35.2,31.5 35,31.6 34.9,31.8 L34.9,31.8 C34.8,31.8 34.8,31.9 34.9,32 Z" id="Path" fill="#FFFFFF"></path>
                        </g>
                        <path d="M96.8,127.5 C96.6,127.5 96.4,127.4 96.4,127.2 L90.2,114.4 C90.1,114.2 90.2,113.9 90.4,113.7 C90.6,113.6 90.9,113.7 91.1,113.9 L97.3,126.7 C97.4,126.9 97.3,127.2 97.1,127.4 C96.9,127.4 96.8,127.5 96.8,127.5 Z" id="Path" fill="#EF5123" fill-rule="nonzero"></path>
                        <g id="Group" transform="translate(238.000000, 115.000000)" fill-rule="nonzero">
                            <path d="M1,2 L4.1,4.5 C4.1,4.5 5.2,3.9 6.2,3.7 C7.2,3.5 8.4,3.8 8.4,3.8 C8.4,3.8 9.3,0.6 9.9,0.5 C10.5,0.4 11.5,3 11.5,3.9 C11.5,4.2 12.6,7.4 12.6,7.4 C12.6,7.4 17.1,4 21.3,3.8 C25.6,3.6 32.9,5.2 36.3,11.4 C39.8,17.6 37.2,22.5 36,23.1 C32,24.9 18.3,24.1 8.5,23.9 C5.2,23.8 2.6,22.1 1.8,18.9 C1.1,16.2 0.4,13.1 0.4,11.3 C0.5,7.5 0.8,5.7 0.9,5.2 C0.9,4.8 0.5,2.3 1,2 Z" id="Path" fill="#181E29"></path>
                            <path d="M4.4,8.8 C4.4,9.2 4.1,9.6 3.6,9.6 C3.2,9.6 2.8,9.3 2.8,8.8 C2.8,8.3 3.1,8 3.6,8 C4.1,8 4.4,8.3 4.4,8.8 Z" id="Path" fill="#E6BC75"></path>
                            <path d="M9.8,8.3 C9.8,8.7 9.5,9.1 9,9.1 C8.6,9.1 8.2,8.8 8.2,8.3 C8.2,7.9 8.5,7.5 9,7.5 C9.5,7.5 9.8,7.9 9.8,8.3 Z" id="Path" fill="#E6BC75"></path>
                        </g>
                        <g id="WINDOW" transform="translate(31.000000, 0.000000)">
                            <rect id="Rectangle" fill="#E3F4FC" fill-rule="nonzero" transform="translate(40.960000, 27.920000) rotate(90.000000) translate(-40.960000, -27.920000) " x="13.97" y="-13" width="53.98" height="81.84"></rect>
                            <g id="Group-2" transform="translate(1.000000, 1.250000)">
                                <mask id="mask-22" fill="white">
                                    <use xlink:href="#path-21"></use>
                                </mask>
                                <use id="Rectangle" fill="#C5E8EF" fill-rule="nonzero" xlink:href="#path-21"></use>
                                <g id="Group" mask="url(#mask-22)">
                                    <g transform="translate(-5.000000, 11.680000)">
                                        <g id="Group" opacity="0.17" stroke-width="1" fill="none" fill-rule="evenodd" transform="translate(0.000000, 3.000000)"></g>
                                        <path d="M24.35,34.63 C24.6174542,33.709855 24.5645677,32.7261653 24.2,31.84 C23.8967172,31.189342 23.9654135,30.4260498 24.38,29.84 C24.7251367,29.3612446 24.9855809,28.8268266 25.15,28.26 C25.6055739,26.691863 25.3920158,25.005116 24.56,23.6 C24.12792,22.9025123 24.0753171,22.0345642 24.42,21.29 C24.5003304,21.1107795 24.5704427,20.927152 24.63,20.74 C25.0194869,19.345383 24.638689,17.8488471 23.63,16.81 C23.0638793,16.2378041 22.9493139,15.3581056 23.35,14.66 C23.5444945,14.3471857 23.6990313,14.0112362 23.81,13.66 C24.4659934,11.4217802 23.3508327,9.04562999 21.21,8.12 L21.21,8.12 C20.8952027,7.98651975 20.7314224,7.6374092 20.83,7.31 L20.83,7.31 C21.6538345,4.4532976 20.1920849,1.43493571 17.44,0.31 C16.1903855,-0.131890415 14.8133905,-0.0350777394 13.6378996,0.577315068 C12.4624088,1.18970787 11.5939689,2.26269436 11.24,3.54 C11.0500985,4.18863676 10.9756332,4.86559373 11.02,5.54 C11.160316,6.91153417 10.3287185,8.19635227 9.02,8.63 C6.6845247,9.30641313 4.86734994,11.1463026 4.22,13.49 C3.75968449,15.0534897 3.75968449,16.7165103 4.22,18.28 C4.63530159,19.563998 4.1893879,20.9700321 3.11,21.78 C2.01581568,22.5489046 1.22095813,23.6723033 0.86,24.96 C0.167544651,27.3550477 0.816960057,29.9374289 2.56,31.72 C2.87194655,32.0432214 2.98647491,32.50897 2.86,32.94 L2.86,32.94 C2.52731835,34.1885368 3.16197984,35.4919356 4.35,36 L4.35,36 C4.48490025,36.059118 4.5569328,36.2074203 4.52,36.35 L4.52,36.35 C4.00338373,38.1259436 4.88518719,40.0094073 6.58,40.75 C6.82556108,40.8433139 7.08031562,40.9103546 7.34,40.95 C7.9516834,41.0352719 8.47468858,41.4332106 8.72,42 C9.53864508,43.8272378 11.0385199,45.2625247 12.9,46 C14.6190665,46.6350112 16.5252308,46.5231668 18.1582382,45.6914723 C19.7912456,44.8597779 21.0026679,43.3838281 21.5,41.62 C21.7358852,40.8456293 21.8505743,40.0394319 21.84,39.23 C21.8087096,38.1321444 22.2844951,37.0809904 23.13,36.38 C23.7050568,35.9342006 24.1306222,35.3237585 24.35,34.63 L24.35,34.63 Z" id="Path" fill="#485CA8" fill-rule="nonzero" opacity="0.17"></path>
                                        <path d="M22.78,33.56 C22.9618429,32.728714 22.8523939,31.860183 22.47,31.1 C22.1652372,30.5600346 22.1652372,29.8999654 22.47,29.36 C22.751929,28.9147839 22.9549077,28.424252 23.07,27.91 C23.3906518,26.4907009 23.0885495,25.0020284 22.24,23.82 C21.8215619,23.240291 21.7202609,22.4899129 21.97,21.82 C22.5299005,20.4383778 22.1244748,18.8531631 20.97,17.91 C20.4366014,17.4227822 20.3045271,16.6344633 20.65,16 C20.8076719,15.7105435 20.9254089,15.4010633 21,15.08 C21.453598,13.0406526 20.2854984,10.9899887 18.3,10.34 L18.3,10.34 C18.0104071,10.2403894 17.8423065,9.9386702 17.91,9.64 L17.91,9.64 C18.4840154,7.02758516 16.9504392,4.41353483 14.39,3.64 C13.2363704,3.32050925 12.0022448,3.4871005 10.9746156,4.10103341 C9.94698631,4.71496633 9.21540542,5.72274019 8.95,6.89 C8.81428103,7.46660992 8.7871517,8.0634552 8.87,8.65 C9.06660346,9.87624702 8.3786342,11.0728966 7.22,11.52 C5.15342695,12.2435341 3.61181516,13.989684 3.15,16.13 C2.83234745,17.5436859 2.94376765,19.0200035 3.47,20.37 C3.92858904,21.4876803 3.60402434,22.7737679 2.67,23.54 C1.72605663,24.2969404 1.07254129,25.356695 0.82,26.54 C0.359782971,28.7183501 1.12702088,30.9740295 2.82,32.42 C3.12804835,32.6787128 3.26677822,33.0871952 3.18,33.48 L3.18,33.48 C2.92608996,34.6336873 3.58744117,35.7921326 4.71,36.16 L4.71,36.16 C4.83836892,36.1986409 4.91631403,36.3285494 4.89,36.46 L4.89,36.46 C4.57734662,38.0387331 5.47834366,39.6058701 7,40.13 C7.22734591,40.2009656 7.46233364,40.2446061 7.7,40.26 C8.25467363,40.2965349 8.75063526,40.618342 9.01,41.11 C9.8590368,42.6940796 11.2950306,43.8823645 13.01,44.42 C14.6083482,44.9121668 16.3395801,44.7148991 17.7862314,43.8757654 C19.2328826,43.0366317 20.2636583,41.6317901 20.63,40 C20.797066,39.3031514 20.8510877,38.5839869 20.79,37.87 C20.6964014,36.8914303 21.0664892,35.925501 21.79,35.26 C22.2908529,34.8117795 22.6373341,34.2168118 22.78,33.56 Z" id="Path" fill="#485CA8" fill-rule="nonzero" opacity="0.17" style="mix-blend-mode: multiply;"></path>
                                        <rect id="Rectangle" fill="#647BBB" fill-rule="nonzero" x="17.07" y="10.99" width="19.74" height="30.3"></rect>
                                        <path d="M19.81,16.82 L19.47,16.82 L19.47,13.74 L19.81,13.74 L19.81,16.82 Z M23.51,13.74 L23.17,13.74 L23.17,16.82 L23.51,16.82 L23.51,13.74 Z M27.21,13.74 L26.87,13.74 L26.87,16.82 L27.21,16.82 L27.21,13.74 Z M30.91,13.74 L30.57,13.74 L30.57,16.82 L30.91,16.82 L30.91,13.74 Z M34.62,13.74 L34.27,13.74 L34.27,16.82 L34.62,16.82 L34.62,13.74 Z" id="Shape" fill="#161632" fill-rule="nonzero"></path>
                                        <path d="M19.81,22.89 L19.47,22.89 L19.47,19.8 L19.81,19.8 L19.81,22.89 Z M23.51,19.8 L23.17,19.8 L23.17,22.89 L23.51,22.89 L23.51,19.8 Z M27.21,19.8 L26.87,19.8 L26.87,22.89 L27.21,22.89 L27.21,19.8 Z M30.91,19.8 L30.57,19.8 L30.57,22.89 L30.91,22.89 L30.91,19.8 Z M34.62,19.8 L34.27,19.8 L34.27,22.89 L34.62,22.89 L34.62,19.8 Z" id="Shape" fill="#161632" fill-rule="nonzero"></path>
                                        <path d="M19.81,29 L19.47,29 L19.47,25.87 L19.81,25.87 L19.81,29 Z M23.51,25.92 L23.17,25.92 L23.17,29 L23.51,29 L23.51,25.92 Z M27.21,25.92 L26.87,25.92 L26.87,29 L27.21,29 L27.21,25.92 Z M30.91,25.92 L30.57,25.92 L30.57,29 L30.91,29 L30.91,25.92 Z M34.62,25.92 L34.27,25.92 L34.27,29 L34.62,29 L34.62,25.92 Z" id="Shape" fill="#161632" fill-rule="nonzero"></path>
                                        <path d="M19.81,35 L19.47,35 L19.47,31.93 L19.81,31.93 L19.81,35 Z M23.51,31.91 L23.17,31.91 L23.17,35 L23.51,35 L23.51,31.91 Z M27.21,31.91 L26.87,31.91 L26.87,35 L27.21,35 L27.21,31.91 Z M30.91,31.91 L30.57,31.91 L30.57,35 L30.91,35 L30.91,31.91 Z M34.62,31.91 L34.27,31.91 L34.27,35 L34.62,35 L34.62,31.91 Z" id="Shape" fill="#161632" fill-rule="nonzero"></path>
                                        <path d="M19.81,41.08 L19.47,41.08 L19.47,38 L19.81,38 L19.81,41.08 Z M23.51,38 L23.17,38 L23.17,41.08 L23.51,41.08 L23.51,38 Z M27.21,38 L26.87,38 L26.87,41.08 L27.21,41.08 L27.21,38 Z M30.91,38 L30.57,38 L30.57,41.08 L30.91,41.08 L30.91,38 Z M34.62,38 L34.27,38 L34.27,41.08 L34.62,41.08 L34.62,38 Z" id="Shape" fill="#161632" fill-rule="nonzero"></path>
                                        <path d="M66.49,34.45 C67.1433655,34.9866165 67.5124048,35.7948126 67.49,36.64 C67.4872334,37.2593966 67.574822,37.8758852 67.75,38.47 C68.1203096,39.8333629 69.0501,40.976438 70.3094906,41.6166123 C71.5688811,42.2567866 73.0403164,42.3343043 74.36,41.83 C75.7940002,41.255863 76.9462302,40.1431175 77.57,38.73 C77.743388,38.3071322 78.1203448,38.0017972 78.57,37.92 C78.7677226,37.8888421 78.9619627,37.8386076 79.15,37.77 C80.4565792,37.205978 81.1352162,35.7542104 80.73,34.39 L80.73,34.39 C80.7007127,34.280246 80.7559374,34.1655485 80.86,34.12 L80.86,34.12 C81.7854262,33.7171999 82.265719,32.6880011 81.98,31.72 L81.98,31.72 C81.8898558,31.3879637 81.9767322,31.0329035 82.21,30.78 C83.5542928,29.4148706 84.0553972,27.4295791 83.52,25.59 C83.2421353,24.6014204 82.6309222,23.7393626 81.79,23.15 C80.9592784,22.5282816 80.6173465,21.4461678 80.94,20.46 C81.3002719,19.2597863 81.3002719,17.9802137 80.94,16.78 C80.468835,14.9784185 79.0995327,13.5485945 77.32,13 C76.3070949,12.6755108 75.6575246,11.6886637 75.76,10.63 C75.7925745,10.1205859 75.735026,9.60941932 75.59,9.12 C75.3156405,8.14106474 74.6485237,7.31924524 73.7469027,6.84949314 C72.8452818,6.37974105 71.7894966,6.30391412 70.83,6.64 C68.7048112,7.51038129 67.5819393,9.84681857 68.23,12.05 L68.23,12.05 C68.3079386,12.3032132 68.1830422,12.5745398 67.94,12.68 L67.94,12.68 C66.2870304,13.4153073 65.4514253,15.2760362 66,17 C66.0850018,17.2716202 66.2060832,17.5305998 66.36,17.77 C66.6639737,18.307298 66.5741313,18.981116 66.14,19.42 C65.3770229,20.2170487 65.0952018,21.3595667 65.4,22.42 C65.4367069,22.565781 65.4904081,22.7067466 65.56,22.84 C65.8143868,23.4160232 65.7733742,24.0796812 65.45,24.62 C64.8096568,25.6988787 64.6432082,26.9942828 64.99,28.2 C65.1213199,28.6289415 65.3205106,29.0340751 65.58,29.4 C65.8789105,29.843017 65.9352654,30.4065654 65.73,30.9 C65.4402421,31.5771797 65.3977659,32.3346712 65.61,33.04 C65.7502693,33.589777 66.0577532,34.0824501 66.49,34.45 L66.49,34.45 Z" id="Path" fill="#37B99A" fill-rule="nonzero" opacity="0.14"></path>
                                        <path d="M67.53,33.53 C68.0869596,34.0378804 68.3691205,34.7804092 68.29,35.53 C68.2490005,36.0800986 68.2928464,36.6332307 68.42,37.17 C68.7048329,38.4101972 69.4885773,39.4780038 70.5863477,40.1215245 C71.6841182,40.7650451 72.998706,40.9272952 74.22,40.57 C75.5554626,40.1578037 76.6735366,39.2338646 77.33,38 C77.5278733,37.6228683 77.9054434,37.3736721 78.33,37.34 C78.5127167,37.329542 78.6937681,37.2993668 78.87,37.25 C80.0775048,36.8496073 80.7890142,35.603388 80.52,34.36 L80.52,34.36 C80.5036385,34.2622636 80.5578274,34.166391 80.65,34.13 L80.65,34.13 C81.4897273,33.8542011 81.9946581,32.9983863 81.83,32.13 L81.83,32.13 C81.7619102,31.8277909 81.8656809,31.5126354 82.1,31.31 C83.399674,30.2020571 83.9838945,28.4686134 83.62,26.8 C83.4214931,25.9026749 82.9200506,25.1010731 82.2,24.53 C81.4840686,23.9381389 81.2368187,22.9491393 81.59,22.09 C81.9904172,21.0544136 82.0739551,19.9231708 81.83,18.84 C81.480007,17.1958904 80.297116,15.8537639 78.71,15.3 C77.8155125,14.9641654 77.2834879,14.042548 77.44,13.1 C77.499748,12.6499819 77.4794352,12.1929432 77.38,11.75 C77.175314,10.8555294 76.6147408,10.0831987 75.8277462,9.61137937 C75.0407515,9.13956003 74.0953919,9.00905331 73.21,9.25 C71.2378509,9.84480661 70.0567394,11.8583621 70.5,13.87 L70.5,13.87 C70.5588483,14.1010521 70.427266,14.3379003 70.2,14.41 L70.2,14.41 C68.7001633,14.9094606 67.8108879,16.4517305 68.13,18 C68.1839027,18.2488624 68.2749203,18.4882049 68.4,18.71 C68.641923,19.2052478 68.5185795,19.8014079 68.1,20.16 C67.3553512,20.8100663 67.0254594,21.8150853 67.24,22.78 C67.2679224,22.9101687 67.3081016,23.0374027 67.36,23.16 C67.5565857,23.6855637 67.4778005,24.2745772 67.15,24.73 C66.497852,25.6371598 66.2649233,26.7799664 66.51,27.87 C66.6038135,28.2731468 66.7698227,28.6559844 67,29 C67.235538,29.4120487 67.235538,29.9179513 67,30.33 C66.7007143,30.912324 66.615758,31.5813551 66.76,32.22 C66.8686872,32.7282748 67.1387847,33.1877913 67.53,33.53 L67.53,33.53 Z" id="Path" fill="#C4E7EE" fill-rule="nonzero" style="mix-blend-mode: multiply;"></path>
                                        <g id="Group" opacity="0.17" stroke-width="1" fill="none" fill-rule="evenodd" transform="translate(3.000000, 24.000000)">
                                            <path d="M26.15,17.76 C28.4042308,16.0111532 29.2965239,13.0221915 28.3699321,10.3237754 C27.4433404,7.62535934 24.9030681,5.81508423 22.05,5.82 C21.637588,5.8209747 21.2260405,5.85777977 20.82,5.93 C19.9205146,2.62706796 16.7148701,0.500196461 13.3220334,0.955271426 C9.92919674,1.41034639 7.39731909,4.30678122 7.4,7.73 C7.39877627,8.35914116 7.48630522,8.98530981 7.66,9.59 C7.20032134,9.46532753 6.7262831,9.40145003 6.25,9.4 C4.27239727,9.40887387 2.46162976,10.5099676 1.54384243,12.2617261 C0.626055097,14.0134845 0.751549308,16.1290312 1.87,17.76 L26.15,17.76 Z" id="Path" fill="#485CA8" fill-rule="nonzero"></path>
                                            <path d="M5.16,17.76 C3.29606022,16.3127207 2.55829691,13.8406235 3.32417326,11.6085119 C4.09004961,9.37640028 6.19015151,7.87802399 8.55,7.88 C8.88533414,7.88047439 9.21996992,7.91059161 9.55,7.97 C10.2962768,5.24026832 12.9469325,3.48369856 15.7516814,3.86019189 C18.5564304,4.23668523 20.6500168,6.63009468 20.65,9.46 C20.6589603,9.97969083 20.5950043,10.498071 20.46,11 C20.841208,10.8951594 21.2346403,10.8413566 21.63,10.84 C23.2691476,10.8422354 24.7718152,11.7534148 25.5316075,13.2058354 C26.2913998,14.658256 26.1829413,16.4122499 25.25,17.76 L5.16,17.76 Z" id="Path" fill="#485CA8" fill-rule="nonzero" opacity="0.55" style="mix-blend-mode: overlay;"></path>
                                        </g>
                                        <g id="Group" opacity="0.19" stroke-width="1" fill="none" fill-rule="evenodd" transform="translate(52.000000, 24.000000)">
                                            <path d="M25.27,17.76 C27.5115376,16.0053052 28.3948144,13.022861 27.4703067,10.3305144 C26.5457991,7.63816785 24.0166451,5.82749637 21.17,5.82 C20.7542953,5.82143819 20.3394663,5.85823753 19.93,5.93 C19.0161754,2.64551074 15.8202417,0.537895378 12.4413013,0.991444426 C9.06236086,1.44499347 6.5353415,4.32079046 6.52,7.73 C6.51877627,8.35914116 6.60630522,8.98530981 6.78,9.59 C6.32018606,9.46599818 5.84623603,9.40213257 5.37,9.4 C3.38793079,9.39845998 1.56934931,10.4989253 0.651147131,12.255486 C-0.26705505,14.0120467 -0.132611917,16.1334112 1,17.76 L25.27,17.76 Z" id="Path" fill="#485CA8" fill-rule="nonzero" opacity="0.52"></path>
                                            <path d="M4.28,17.76 C2.41606022,16.3127207 1.67829691,13.8406235 2.44417326,11.6085119 C3.21004961,9.37640028 5.31015151,7.87802399 7.67,7.88 C8.00533414,7.88047439 8.33996992,7.91059161 8.67,7.97 C9.41627681,5.24026832 12.0669325,3.48369856 14.8716814,3.86019189 C17.6764304,4.23668523 19.7700168,6.63009468 19.77,9.46 C19.7735907,9.97939338 19.7097234,10.4970545 19.58,11 C20.9059232,10.6299663 22.3286403,10.9033083 23.4230363,11.7383501 C24.5174322,12.5733919 25.1567655,13.8734276 25.1500532,15.25 C25.1521067,16.1481605 24.8761437,17.0249542 24.36,17.76 L4.28,17.76 Z" id="Path" fill="#485CA8" fill-rule="nonzero" opacity="0.55" style="mix-blend-mode: overlay;"></path>
                                        </g>
                                        <rect id="Rectangle" fill="#7FD0E0" fill-rule="nonzero" x="77.39" y="19.49" width="9.6" height="21.8"></rect>
                                        <path d="M80.48,21.42 L80.14,21.42 L80.14,24.51 L80.48,24.51 L80.48,21.42 Z M84.18,21.42 L83.84,21.42 L83.84,24.51 L84.18,24.51 L84.18,21.42 Z" id="Shape" fill="#161632" fill-rule="nonzero"></path>
                                        <path d="M80.48,27 L80.14,27 L80.14,30.08 L80.48,30.08 L80.48,27 Z M84.18,27 L83.84,27 L83.84,30.08 L84.18,30.08 L84.18,27 Z" id="Shape" fill="#161632" fill-rule="nonzero"></path>
                                        <path d="M80.48,32.57 L80.14,32.57 L80.14,35.66 L80.48,35.66 L80.48,32.57 Z M84.18,32.57 L83.84,32.57 L83.84,35.66 L84.18,35.66 L84.18,32.57 Z" id="Shape" fill="#161632" fill-rule="nonzero"></path>
                                        <path d="M80.48,38.15 L80.14,38.15 L80.14,41.23 L80.48,41.23 L80.48,38.15 Z M84.18,38.15 L83.84,38.15 L83.84,41.23 L84.18,41.23 L84.18,38.15 Z" id="Shape" fill="#161632" fill-rule="nonzero"></path>
                                        <rect id="Rectangle" fill="#46C7F4" fill-rule="nonzero" x="56.9" y="10.3" width="8.77" height="30.3"></rect>
                                        <path d="M63.8,26.7 L63.8,27.05 L58.48,27.05 L58.48,26.7 L63.8,26.7 Z M58.48,23 L58.48,23.34 L63.8,23.34 L63.8,23 L58.48,23 Z M58.48,19.3 L58.48,19.64 L63.8,19.64 L63.8,19.3 L58.48,19.3 Z M58.48,15.6 L58.48,15.94 L63.8,15.94 L63.8,15.6 L58.48,15.6 Z M58.48,11.9 L58.48,12.24 L63.8,12.24 L63.8,11.9 L58.48,11.9 Z" id="Shape" fill="#161632" fill-rule="nonzero"></path>
                                        <path d="M58.66,37.9 L58.66,38.24 L64,38.24 L64,37.9 L58.66,37.9 Z M58.66,34.2 L58.66,34.54 L64,34.54 L64,34.2 L58.66,34.2 Z M58.66,30.5 L58.66,30.84 L64,30.84 L64,30.5 L58.66,30.5 Z" id="Shape" fill="#161632" fill-rule="nonzero"></path>
                                    </g>
                                </g>
                                <rect id="Rectangle" fill="#E3F4FC" fill-rule="nonzero" mask="url(#mask-22)" x="17.02" y="0" width="1.65" height="53.15"></rect>
                                <path d="M24.42,7.68 C24.0258781,7.63515861 23.728176,7.30166461 23.728176,6.905 C23.728176,6.50833539 24.0258781,6.17484139 24.42,6.13 L24.49,6.13 C24.6474342,5.66191378 25.0861476,5.34660606 25.58,5.34660606 C26.0738524,5.34660606 26.5125658,5.66191378 26.67,6.13 L26.77,6.13 C26.8879651,6.13027028 27.004291,6.15764107 27.11,6.21 C27.3396951,5.77866122 27.8474951,5.57651331 28.3107901,5.73198261 C28.7740852,5.88745192 29.0571551,6.35499443 28.9801632,6.83757627 C28.9031712,7.3201581 28.4886718,7.67640916 28,7.68 L24.42,7.68 Z" id="Path" fill="#FFFFFF" fill-rule="nonzero" mask="url(#mask-22)"></path>
                                <path d="M9.58,9.04 C9.99067775,9.16754911 10.4369145,9.01826262 10.6881667,8.66926786 C10.9394188,8.3202731 10.9394188,7.8497269 10.6881667,7.50073214 C10.4369145,7.15173738 9.99067775,7.00245089 9.58,7.13 C9.47387339,7.11482029 9.36612661,7.11482029 9.26,7.13 C9.09470333,6.48703497 8.52148713,6.03280401 7.85776146,6.01883084 C7.19403578,6.00485767 6.60221043,6.43456144 6.41,7.07 C6.24831394,6.97852819 6.065767,6.93030825 5.88,6.93 C5.31114671,6.93 4.85,7.39114671 4.85,7.96 C4.85,8.52885329 5.31114671,8.99 5.88,8.99 L9.58,9.04 Z" id="Path" fill="#FFFFFF" fill-rule="nonzero" mask="url(#mask-22)"></path>
                                <path d="M65.53,8.88 C66.0766164,8.88 66.5817107,8.58838367 66.8550189,8.11500001 C67.1283271,7.64161636 67.1283271,7.05838364 66.8550189,6.58499999 C66.5817107,6.11161633 66.0766164,5.81999998 65.53,5.82 C65.3526388,5.81816437 65.1764274,5.84866249 65.01,5.91 C64.7438311,4.8834318 63.8280785,4.15864654 62.7678203,4.13539527 C61.707562,4.11214399 60.7609163,4.79608718 60.45,5.81 C59.8521903,5.45626851 59.0968623,5.5148182 58.5607057,5.95644976 C58.024549,6.39808132 57.822397,7.12820668 58.055065,7.78270498 C58.2877329,8.43720327 58.9053882,8.87589493 59.6,8.88 L65.53,8.88 Z" id="Path" fill="#FFFFFF" fill-rule="nonzero" mask="url(#mask-22)"></path>
                            </g>
                        </g>
                    </g>
                </g>
            </g>
        </g>
    </g>
</svg>