<?xml version="1.0" encoding="UTF-8"?>
<svg width="344px" height="184px" viewBox="0 0 344 184" version="1.1" xmlns="http://www.w3.org/2000/svg" xmlns:xlink="http://www.w3.org/1999/xlink">
    <title>DC0C0A0C-75E7-4ED8-BD15-84885F328E53</title>
    <defs>
        <rect id="path-1" x="0" y="0" width="344" height="184"></rect>
        <linearGradient x1="18.8412853%" y1="95.4744418%" x2="77.0691334%" y2="-5.30412314%" id="linearGradient-3">
            <stop stop-color="#CA6138" offset="0%"></stop>
            <stop stop-color="#DC8C54" offset="100%"></stop>
        </linearGradient>
        <linearGradient x1="0%" y1="49.922865%" x2="100.31521%" y2="49.922865%" id="linearGradient-4">
            <stop stop-color="#CA6138" offset="0%"></stop>
            <stop stop-color="#DC8C54" offset="100%"></stop>
        </linearGradient>
        <linearGradient x1="0%" y1="49.9834382%" x2="100.432721%" y2="49.9834382%" id="linearGradient-5">
            <stop stop-color="#CA6138" offset="0%"></stop>
            <stop stop-color="#DC8C54" offset="100%"></stop>
        </linearGradient>
        <linearGradient x1="35.4278388%" y1="71.381471%" x2="73.3388601%" y2="67.0819984%" id="linearGradient-6">
            <stop stop-color="#CA6138" offset="0%"></stop>
            <stop stop-color="#DC8C54" offset="100%"></stop>
        </linearGradient>
        <linearGradient x1="64.823615%" y1="68.3623188%" x2="29.9316556%" y2="41.7855072%" id="linearGradient-7">
            <stop stop-color="#822A20" offset="0%"></stop>
            <stop stop-color="#DC8C54" offset="100%"></stop>
        </linearGradient>
    </defs>
    <g id="Patient---Mobile" stroke="none" stroke-width="1" fill="none" fill-rule="evenodd">
        <g id="assess_inter_safe" transform="translate(-16.000000, -88.000000)">
            <g id="ill_assess_safety_woman" transform="translate(16.000000, 88.000000)">
                <mask id="mask-2" fill="white">
                    <use xlink:href="#path-1"></use>
                </mask>
                <use id="Mask" fill="#FFFFFF" xlink:href="#path-1"></use>
                <g id="8-female" mask="url(#mask-2)">
                    <g transform="translate(14.000000, 8.000000)">
                        <path d="M145.72,0.53 C162.47,-2.66 173.21,9.45 177.18,15 C181.15,20.55 187.94,17.15 199,13.46 C210.06,9.77 218.84,16.85 221.39,25.16 C223.94,33.47 226.2,66.7 242.64,70.39 C259.08,74.08 269.85,94.39 261.64,111.32 C253.43,128.25 262.49,132.86 265.89,148.55 C269.29,164.24 264.76,175.33 264.76,175.33 L58.76,175.33 C58.76,175.33 45.44,150.4 54.23,135.33 C63.02,120.26 65,113.16 58.43,99.62 C51.86,86.08 38.88,70.69 47.66,49.15 C56.44,27.61 79.66,27.61 88.75,28.53 C97.84,29.45 106.61,31.61 118.51,24.22 C130.41,16.83 129.56,3.6 145.72,0.53 Z" id="Path" stroke="none" fill="#F0F0F0" fill-rule="nonzero" style="mix-blend-mode: overlay;"></path>
                        <polygon id="Path" stroke="none" fill="#B2A09A" fill-rule="nonzero" points="28.67 117.64 28.67 113.09 28.11 113.09 28.11 109.7 23.03 109.7 23.03 113.09 21.67 113.09 21.67 117.64 20.32 117.64 20.32 136.17 29.26 136.17 29.26 117.64"></polygon>
                        <polygon id="Path" stroke="none" fill="#CEC3C0" fill-rule="nonzero" points="32.6 117.64 32.6 113.09 31.69 113.09 31.69 109.7 28.11 109.7 28.11 113.09 28.67 113.09 28.67 117.64 29.26 117.64 29.26 136.17 33.73 136.17 33.73 117.64"></polygon>
                        <polygon id="Path" stroke="none" fill="#D5A9A0" fill-rule="nonzero" points="23.03 109.7 27.11 104.17 28.11 109.7"></polygon>
                        <polygon id="Path" stroke="none" fill="#E2C4BD" fill-rule="nonzero" points="27.11 104.17 31.69 109.7 28.11 109.7"></polygon>
                        <rect id="Rectangle" stroke="none" fill="#B2A09A" fill-rule="nonzero" x="27.05" y="96.06" width="1" height="8.3"></rect>
                        <rect id="Rectangle" stroke="none" fill="#B2A09A" fill-rule="nonzero" x="28.9" y="110.51" width="1" height="1"></rect>
                        <rect id="Rectangle" stroke="none" fill="#B2A09A" fill-rule="nonzero" x="29.92" y="110.51" width="1" height="1"></rect>
                        <rect id="Rectangle" stroke="none" fill="#B2A09A" fill-rule="nonzero" x="30.93" y="110.51" width="1" height="1"></rect>
                        <rect id="Rectangle" stroke="none" fill="#B2A09A" fill-rule="nonzero" x="28.9" y="111.84" width="1" height="1"></rect>
                        <rect id="Rectangle" stroke="none" fill="#B2A09A" fill-rule="nonzero" x="29.92" y="111.84" width="1" height="1"></rect>
                        <rect id="Rectangle" stroke="none" fill="#B2A09A" fill-rule="nonzero" x="30.93" y="111.84" width="1" height="1"></rect>
                        <rect id="Rectangle" stroke="none" fill="#CDCAC7" fill-rule="nonzero" x="23.84" y="110.49" width="1" height="1"></rect>
                        <rect id="Rectangle" stroke="none" fill="#CDCAC7" fill-rule="nonzero" x="24.85" y="110.49" width="1" height="1"></rect>
                        <rect id="Rectangle" stroke="none" fill="#CDCAC7" fill-rule="nonzero" x="25.86" y="110.49" width="1" height="1"></rect>
                        <rect id="Rectangle" stroke="none" fill="#CDCAC7" fill-rule="nonzero" x="23.84" y="111.82" width="1" height="1"></rect>
                        <rect id="Rectangle" stroke="none" fill="#CDCAC7" fill-rule="nonzero" x="24.85" y="111.82" width="1" height="1"></rect>
                        <rect id="Rectangle" stroke="none" fill="#CDCAC7" fill-rule="nonzero" x="25.86" y="111.82" width="1" height="1"></rect>
                        <rect id="Rectangle" stroke="none" fill="#CDCAC7" fill-rule="nonzero" x="26.86" y="110.49" width="1" height="1"></rect>
                        <rect id="Rectangle" stroke="none" fill="#CDCAC7" fill-rule="nonzero" x="26.86" y="111.82" width="1" height="1"></rect>
                        <rect id="Rectangle" stroke="none" fill="#CDCAC7" fill-rule="nonzero" x="22.55" y="113.97" width="1" height="1"></rect>
                        <rect id="Rectangle" stroke="none" fill="#CDCAC7" fill-rule="nonzero" x="23.56" y="113.97" width="1" height="1"></rect>
                        <rect id="Rectangle" stroke="none" fill="#CDCAC7" fill-rule="nonzero" x="24.57" y="113.97" width="1" height="1"></rect>
                        <rect id="Rectangle" stroke="none" fill="#CDCAC7" fill-rule="nonzero" x="22.55" y="115.3" width="1" height="1"></rect>
                        <rect id="Rectangle" stroke="none" fill="#CDCAC7" fill-rule="nonzero" x="23.56" y="115.3" width="1" height="1"></rect>
                        <rect id="Rectangle" stroke="none" fill="#CDCAC7" fill-rule="nonzero" x="24.57" y="115.3" width="1" height="1"></rect>
                        <rect id="Rectangle" stroke="none" fill="#CDCAC7" fill-rule="nonzero" x="25.57" y="113.97" width="1" height="1"></rect>
                        <rect id="Rectangle" stroke="none" fill="#CDCAC7" fill-rule="nonzero" x="25.57" y="115.3" width="1" height="1"></rect>
                        <rect id="Rectangle" stroke="none" fill="#CDCAC7" fill-rule="nonzero" x="26.6" y="113.97" width="1" height="1"></rect>
                        <rect id="Rectangle" stroke="none" fill="#CDCAC7" fill-rule="nonzero" x="26.6" y="115.3" width="1" height="1"></rect>
                        <rect id="Rectangle" stroke="none" fill="#CDCAC7" fill-rule="nonzero" x="27.63" y="113.97" width="1" height="1"></rect>
                        <rect id="Rectangle" stroke="none" fill="#CDCAC7" fill-rule="nonzero" x="27.63" y="115.3" width="1" height="1"></rect>
                        <rect id="Rectangle" stroke="none" fill="#CDCAC7" fill-rule="nonzero" x="22.55" y="116.6" width="1" height="1"></rect>
                        <rect id="Rectangle" stroke="none" fill="#CDCAC7" fill-rule="nonzero" x="23.56" y="116.6" width="1" height="1"></rect>
                        <rect id="Rectangle" stroke="none" fill="#CDCAC7" fill-rule="nonzero" x="24.57" y="116.6" width="1" height="1"></rect>
                        <rect id="Rectangle" stroke="none" fill="#CDCAC7" fill-rule="nonzero" x="25.57" y="116.6" width="1" height="1"></rect>
                        <rect id="Rectangle" stroke="none" fill="#CDCAC7" fill-rule="nonzero" x="26.6" y="116.6" width="1" height="1"></rect>
                        <rect id="Rectangle" stroke="none" fill="#CDCAC7" fill-rule="nonzero" x="27.63" y="116.6" width="1" height="1"></rect>
                        <rect id="Rectangle" stroke="none" fill="#CDCAC7" fill-rule="nonzero" x="21.14" y="118.56" width="1" height="1"></rect>
                        <rect id="Rectangle" stroke="none" fill="#CDCAC7" fill-rule="nonzero" x="22.15" y="118.56" width="1" height="1"></rect>
                        <rect id="Rectangle" stroke="none" fill="#CDCAC7" fill-rule="nonzero" x="23.17" y="118.56" width="1" height="1"></rect>
                        <rect id="Rectangle" stroke="none" fill="#CDCAC7" fill-rule="nonzero" x="21.14" y="119.99" width="1" height="1"></rect>
                        <rect id="Rectangle" stroke="none" fill="#CDCAC7" fill-rule="nonzero" x="22.15" y="119.99" width="1" height="1"></rect>
                        <rect id="Rectangle" stroke="none" fill="#CDCAC7" fill-rule="nonzero" x="23.17" y="119.99" width="1" height="1"></rect>
                        <rect id="Rectangle" stroke="none" fill="#CDCAC7" fill-rule="nonzero" x="24.17" y="118.56" width="1" height="1"></rect>
                        <rect id="Rectangle" stroke="none" fill="#CDCAC7" fill-rule="nonzero" x="24.17" y="119.99" width="1" height="1"></rect>
                        <rect id="Rectangle" stroke="none" fill="#CDCAC7" fill-rule="nonzero" x="26.22" y="118.56" width="1" height="1"></rect>
                        <rect id="Rectangle" stroke="none" fill="#CDCAC7" fill-rule="nonzero" x="26.22" y="119.99" width="1" height="1"></rect>
                        <rect id="Rectangle" stroke="none" fill="#CDCAC7" fill-rule="nonzero" x="21.14" y="121.39" width="1" height="1"></rect>
                        <rect id="Rectangle" stroke="none" fill="#CDCAC7" fill-rule="nonzero" x="22.15" y="121.39" width="1" height="1"></rect>
                        <rect id="Rectangle" stroke="none" fill="#CDCAC7" fill-rule="nonzero" x="23.17" y="121.39" width="1" height="1"></rect>
                        <rect id="Rectangle" stroke="none" fill="#CDCAC7" fill-rule="nonzero" x="24.17" y="121.39" width="1" height="1"></rect>
                        <rect id="Rectangle" stroke="none" fill="#CDCAC7" fill-rule="nonzero" x="26.22" y="121.39" width="1" height="1"></rect>
                        <rect id="Rectangle" stroke="none" fill="#CDCAC7" fill-rule="nonzero" x="27.33" y="118.56" width="1" height="1"></rect>
                        <rect id="Rectangle" stroke="none" fill="#CDCAC7" fill-rule="nonzero" x="27.33" y="119.99" width="1" height="1"></rect>
                        <rect id="Rectangle" stroke="none" fill="#CDCAC7" fill-rule="nonzero" x="28.35" y="118.56" width="1" height="1"></rect>
                        <rect id="Rectangle" stroke="none" fill="#CDCAC7" fill-rule="nonzero" x="28.35" y="119.99" width="1" height="1"></rect>
                        <rect id="Rectangle" stroke="none" fill="#CDCAC7" fill-rule="nonzero" x="27.33" y="121.39" width="1" height="1"></rect>
                        <rect id="Rectangle" stroke="none" fill="#CDCAC7" fill-rule="nonzero" x="28.35" y="121.39" width="1" height="1"></rect>
                        <rect id="Rectangle" stroke="none" fill="#CDCAC7" fill-rule="nonzero" x="21.14" y="122.93" width="1" height="1"></rect>
                        <rect id="Rectangle" stroke="none" fill="#CDCAC7" fill-rule="nonzero" x="22.15" y="122.93" width="1" height="1"></rect>
                        <rect id="Rectangle" stroke="none" fill="#CDCAC7" fill-rule="nonzero" x="23.17" y="122.93" width="1" height="1"></rect>
                        <rect id="Rectangle" stroke="none" fill="#CDCAC7" fill-rule="nonzero" x="21.14" y="124.36" width="1" height="1"></rect>
                        <rect id="Rectangle" stroke="none" fill="#CDCAC7" fill-rule="nonzero" x="22.15" y="124.36" width="1" height="1"></rect>
                        <rect id="Rectangle" stroke="none" fill="#CDCAC7" fill-rule="nonzero" x="23.17" y="124.36" width="1" height="1"></rect>
                        <rect id="Rectangle" stroke="none" fill="#CDCAC7" fill-rule="nonzero" x="24.17" y="122.93" width="1" height="1"></rect>
                        <rect id="Rectangle" stroke="none" fill="#CDCAC7" fill-rule="nonzero" x="24.17" y="124.36" width="1" height="1"></rect>
                        <rect id="Rectangle" stroke="none" fill="#CDCAC7" fill-rule="nonzero" x="26.22" y="122.93" width="1" height="1"></rect>
                        <rect id="Rectangle" stroke="none" fill="#CDCAC7" fill-rule="nonzero" x="26.22" y="124.36" width="1" height="1"></rect>
                        <rect id="Rectangle" stroke="none" fill="#CDCAC7" fill-rule="nonzero" x="21.14" y="125.76" width="1" height="1"></rect>
                        <rect id="Rectangle" stroke="none" fill="#CDCAC7" fill-rule="nonzero" x="22.15" y="125.76" width="1" height="1"></rect>
                        <rect id="Rectangle" stroke="none" fill="#CDCAC7" fill-rule="nonzero" x="23.17" y="125.76" width="1" height="1"></rect>
                        <rect id="Rectangle" stroke="none" fill="#CDCAC7" fill-rule="nonzero" x="24.17" y="125.76" width="1" height="1"></rect>
                        <rect id="Rectangle" stroke="none" fill="#CDCAC7" fill-rule="nonzero" x="26.22" y="125.76" width="1" height="1"></rect>
                        <rect id="Rectangle" stroke="none" fill="#CDCAC7" fill-rule="nonzero" x="27.33" y="122.93" width="1" height="1"></rect>
                        <rect id="Rectangle" stroke="none" fill="#CDCAC7" fill-rule="nonzero" x="27.33" y="124.36" width="1" height="1"></rect>
                        <rect id="Rectangle" stroke="none" fill="#CDCAC7" fill-rule="nonzero" x="28.35" y="122.93" width="1" height="1"></rect>
                        <rect id="Rectangle" stroke="none" fill="#CDCAC7" fill-rule="nonzero" x="28.35" y="124.36" width="1" height="1"></rect>
                        <rect id="Rectangle" stroke="none" fill="#CDCAC7" fill-rule="nonzero" x="27.33" y="125.76" width="1" height="1"></rect>
                        <rect id="Rectangle" stroke="none" fill="#CDCAC7" fill-rule="nonzero" x="28.35" y="125.76" width="1" height="1"></rect>
                        <rect id="Rectangle" stroke="none" fill="#CDCAC7" fill-rule="nonzero" x="21.14" y="127.3" width="1" height="1"></rect>
                        <rect id="Rectangle" stroke="none" fill="#CDCAC7" fill-rule="nonzero" x="22.15" y="127.3" width="1" height="1"></rect>
                        <rect id="Rectangle" stroke="none" fill="#CDCAC7" fill-rule="nonzero" x="23.17" y="127.3" width="1" height="1"></rect>
                        <rect id="Rectangle" stroke="none" fill="#CDCAC7" fill-rule="nonzero" x="21.14" y="128.73" width="1" height="1"></rect>
                        <rect id="Rectangle" stroke="none" fill="#CDCAC7" fill-rule="nonzero" x="22.15" y="128.73" width="1" height="1"></rect>
                        <rect id="Rectangle" stroke="none" fill="#CDCAC7" fill-rule="nonzero" x="23.17" y="128.73" width="1" height="1"></rect>
                        <rect id="Rectangle" stroke="none" fill="#CDCAC7" fill-rule="nonzero" x="24.17" y="127.3" width="1" height="1"></rect>
                        <rect id="Rectangle" stroke="none" fill="#CDCAC7" fill-rule="nonzero" x="24.17" y="128.73" width="1" height="1"></rect>
                        <rect id="Rectangle" stroke="none" fill="#CDCAC7" fill-rule="nonzero" x="26.22" y="127.3" width="1" height="1"></rect>
                        <rect id="Rectangle" stroke="none" fill="#CDCAC7" fill-rule="nonzero" x="26.22" y="128.73" width="1" height="1"></rect>
                        <rect id="Rectangle" stroke="none" fill="#CDCAC7" fill-rule="nonzero" x="21.14" y="130.13" width="1" height="1"></rect>
                        <rect id="Rectangle" stroke="none" fill="#CDCAC7" fill-rule="nonzero" x="22.15" y="130.13" width="1" height="1"></rect>
                        <rect id="Rectangle" stroke="none" fill="#CDCAC7" fill-rule="nonzero" x="23.17" y="130.13" width="1" height="1"></rect>
                        <rect id="Rectangle" stroke="none" fill="#CDCAC7" fill-rule="nonzero" x="24.17" y="130.13" width="1" height="1"></rect>
                        <rect id="Rectangle" stroke="none" fill="#CDCAC7" fill-rule="nonzero" x="26.22" y="130.13" width="1" height="1"></rect>
                        <rect id="Rectangle" stroke="none" fill="#CDCAC7" fill-rule="nonzero" x="27.33" y="127.3" width="1" height="1"></rect>
                        <rect id="Rectangle" stroke="none" fill="#CDCAC7" fill-rule="nonzero" x="27.33" y="128.73" width="1" height="1"></rect>
                        <rect id="Rectangle" stroke="none" fill="#CDCAC7" fill-rule="nonzero" x="28.35" y="127.3" width="1" height="1"></rect>
                        <rect id="Rectangle" stroke="none" fill="#CDCAC7" fill-rule="nonzero" x="28.35" y="128.73" width="1" height="1"></rect>
                        <rect id="Rectangle" stroke="none" fill="#CDCAC7" fill-rule="nonzero" x="27.33" y="130.13" width="1" height="1"></rect>
                        <rect id="Rectangle" stroke="none" fill="#CDCAC7" fill-rule="nonzero" x="28.35" y="130.13" width="1" height="1"></rect>
                        <rect id="Rectangle" stroke="none" fill="#CDCAC7" fill-rule="nonzero" x="21.14" y="131.67" width="1" height="1"></rect>
                        <rect id="Rectangle" stroke="none" fill="#CDCAC7" fill-rule="nonzero" x="22.15" y="131.67" width="1" height="1"></rect>
                        <rect id="Rectangle" stroke="none" fill="#CDCAC7" fill-rule="nonzero" x="23.17" y="131.67" width="1" height="1"></rect>
                        <rect id="Rectangle" stroke="none" fill="#CDCAC7" fill-rule="nonzero" x="21.14" y="133.1" width="1" height="1"></rect>
                        <rect id="Rectangle" stroke="none" fill="#CDCAC7" fill-rule="nonzero" x="22.15" y="133.1" width="1" height="1"></rect>
                        <rect id="Rectangle" stroke="none" fill="#CDCAC7" fill-rule="nonzero" x="23.17" y="133.1" width="1" height="1"></rect>
                        <rect id="Rectangle" stroke="none" fill="#CDCAC7" fill-rule="nonzero" x="24.17" y="131.67" width="1" height="1"></rect>
                        <rect id="Rectangle" stroke="none" fill="#CDCAC7" fill-rule="nonzero" x="24.17" y="133.1" width="1" height="1"></rect>
                        <rect id="Rectangle" stroke="none" fill="#CDCAC7" fill-rule="nonzero" x="26.22" y="131.67" width="1" height="1"></rect>
                        <rect id="Rectangle" stroke="none" fill="#CDCAC7" fill-rule="nonzero" x="26.22" y="133.1" width="1" height="1"></rect>
                        <rect id="Rectangle" stroke="none" fill="#CDCAC7" fill-rule="nonzero" x="21.14" y="134.5" width="1" height="1"></rect>
                        <rect id="Rectangle" stroke="none" fill="#CDCAC7" fill-rule="nonzero" x="22.15" y="134.5" width="1" height="1"></rect>
                        <rect id="Rectangle" stroke="none" fill="#CDCAC7" fill-rule="nonzero" x="23.17" y="134.5" width="1" height="1"></rect>
                        <rect id="Rectangle" stroke="none" fill="#CDCAC7" fill-rule="nonzero" x="24.17" y="134.5" width="1" height="1"></rect>
                        <rect id="Rectangle" stroke="none" fill="#CDCAC7" fill-rule="nonzero" x="26.22" y="134.5" width="1" height="1"></rect>
                        <rect id="Rectangle" stroke="none" fill="#CDCAC7" fill-rule="nonzero" x="27.33" y="131.67" width="1" height="1"></rect>
                        <rect id="Rectangle" stroke="none" fill="#CDCAC7" fill-rule="nonzero" x="27.33" y="133.1" width="1" height="1"></rect>
                        <rect id="Rectangle" stroke="none" fill="#CDCAC7" fill-rule="nonzero" x="28.35" y="131.67" width="1" height="1"></rect>
                        <rect id="Rectangle" stroke="none" fill="#CDCAC7" fill-rule="nonzero" x="28.35" y="133.1" width="1" height="1"></rect>
                        <rect id="Rectangle" stroke="none" fill="#CDCAC7" fill-rule="nonzero" x="27.33" y="134.5" width="1" height="1"></rect>
                        <rect id="Rectangle" stroke="none" fill="#CDCAC7" fill-rule="nonzero" x="28.35" y="134.5" width="1" height="1"></rect>
                        <rect id="Rectangle" stroke="none" fill="#B2A09A" fill-rule="nonzero" x="30.4" y="118.55" width="1" height="1"></rect>
                        <rect id="Rectangle" stroke="none" fill="#B2A09A" fill-rule="nonzero" x="31.41" y="118.55" width="1" height="1"></rect>
                        <rect id="Rectangle" stroke="none" fill="#B2A09A" fill-rule="nonzero" x="32.42" y="118.55" width="1" height="1"></rect>
                        <rect id="Rectangle" stroke="none" fill="#B2A09A" fill-rule="nonzero" x="30.4" y="119.98" width="1" height="1"></rect>
                        <rect id="Rectangle" stroke="none" fill="#B2A09A" fill-rule="nonzero" x="31.41" y="119.98" width="1" height="1"></rect>
                        <rect id="Rectangle" stroke="none" fill="#B2A09A" fill-rule="nonzero" x="32.42" y="119.98" width="1" height="1"></rect>
                        <rect id="Rectangle" stroke="none" fill="#B2A09A" fill-rule="nonzero" x="30.4" y="121.37" width="1" height="1"></rect>
                        <rect id="Rectangle" stroke="none" fill="#B2A09A" fill-rule="nonzero" x="31.41" y="121.37" width="1" height="1"></rect>
                        <rect id="Rectangle" stroke="none" fill="#B2A09A" fill-rule="nonzero" x="32.42" y="121.37" width="1" height="1"></rect>
                        <rect id="Rectangle" stroke="none" fill="#B2A09A" fill-rule="nonzero" x="30.4" y="122.81" width="1" height="1"></rect>
                        <rect id="Rectangle" stroke="none" fill="#B2A09A" fill-rule="nonzero" x="31.41" y="122.81" width="1" height="1"></rect>
                        <rect id="Rectangle" stroke="none" fill="#B2A09A" fill-rule="nonzero" x="32.42" y="122.81" width="1" height="1"></rect>
                        <rect id="Rectangle" stroke="none" fill="#B2A09A" fill-rule="nonzero" x="30.4" y="124.2" width="1" height="1"></rect>
                        <rect id="Rectangle" stroke="none" fill="#B2A09A" fill-rule="nonzero" x="31.41" y="124.2" width="1" height="1"></rect>
                        <rect id="Rectangle" stroke="none" fill="#B2A09A" fill-rule="nonzero" x="32.42" y="124.2" width="1" height="1"></rect>
                        <rect id="Rectangle" stroke="none" fill="#B2A09A" fill-rule="nonzero" x="30.4" y="125.63" width="1" height="1"></rect>
                        <rect id="Rectangle" stroke="none" fill="#B2A09A" fill-rule="nonzero" x="31.41" y="125.63" width="1" height="1"></rect>
                        <rect id="Rectangle" stroke="none" fill="#B2A09A" fill-rule="nonzero" x="32.42" y="125.63" width="1" height="1"></rect>
                        <rect id="Rectangle" stroke="none" fill="#B2A09A" fill-rule="nonzero" x="30.4" y="127.02" width="1" height="1"></rect>
                        <rect id="Rectangle" stroke="none" fill="#B2A09A" fill-rule="nonzero" x="31.41" y="127.02" width="1" height="1"></rect>
                        <rect id="Rectangle" stroke="none" fill="#B2A09A" fill-rule="nonzero" x="32.42" y="127.02" width="1" height="1"></rect>
                        <rect id="Rectangle" stroke="none" fill="#B2A09A" fill-rule="nonzero" x="30.4" y="128.45" width="1" height="1"></rect>
                        <rect id="Rectangle" stroke="none" fill="#B2A09A" fill-rule="nonzero" x="31.41" y="128.45" width="1" height="1"></rect>
                        <rect id="Rectangle" stroke="none" fill="#B2A09A" fill-rule="nonzero" x="32.42" y="128.45" width="1" height="1"></rect>
                        <rect id="Rectangle" stroke="none" fill="#B2A09A" fill-rule="nonzero" x="30.4" y="129.84" width="1" height="1"></rect>
                        <rect id="Rectangle" stroke="none" fill="#B2A09A" fill-rule="nonzero" x="31.41" y="129.84" width="1" height="1"></rect>
                        <rect id="Rectangle" stroke="none" fill="#B2A09A" fill-rule="nonzero" x="32.42" y="129.84" width="1" height="1"></rect>
                        <rect id="Rectangle" stroke="none" fill="#B2A09A" fill-rule="nonzero" x="30.4" y="131.27" width="1" height="1"></rect>
                        <rect id="Rectangle" stroke="none" fill="#B2A09A" fill-rule="nonzero" x="31.41" y="131.27" width="1" height="1"></rect>
                        <rect id="Rectangle" stroke="none" fill="#B2A09A" fill-rule="nonzero" x="32.42" y="131.27" width="1" height="1"></rect>
                        <rect id="Rectangle" stroke="none" fill="#B2A09A" fill-rule="nonzero" x="30.4" y="132.66" width="1" height="1"></rect>
                        <rect id="Rectangle" stroke="none" fill="#B2A09A" fill-rule="nonzero" x="31.41" y="132.66" width="1" height="1"></rect>
                        <rect id="Rectangle" stroke="none" fill="#B2A09A" fill-rule="nonzero" x="32.42" y="132.66" width="1" height="1"></rect>
                        <rect id="Rectangle" stroke="none" fill="#B2A09A" fill-rule="nonzero" x="30.4" y="134.1" width="1" height="1"></rect>
                        <rect id="Rectangle" stroke="none" fill="#B2A09A" fill-rule="nonzero" x="31.41" y="134.1" width="1" height="1"></rect>
                        <rect id="Rectangle" stroke="none" fill="#B2A09A" fill-rule="nonzero" x="32.42" y="134.1" width="1" height="1"></rect>
                        <rect id="Rectangle" stroke="none" fill="#B2A09A" fill-rule="nonzero" x="29.53" y="113.82" width="1" height="1"></rect>
                        <rect id="Rectangle" stroke="none" fill="#B2A09A" fill-rule="nonzero" x="30.54" y="113.82" width="1" height="1"></rect>
                        <rect id="Rectangle" stroke="none" fill="#B2A09A" fill-rule="nonzero" x="31.56" y="113.82" width="1" height="1"></rect>
                        <rect id="Rectangle" stroke="none" fill="#B2A09A" fill-rule="nonzero" x="29.53" y="115.15" width="1" height="1"></rect>
                        <rect id="Rectangle" stroke="none" fill="#B2A09A" fill-rule="nonzero" x="30.54" y="115.15" width="1" height="1"></rect>
                        <rect id="Rectangle" stroke="none" fill="#B2A09A" fill-rule="nonzero" x="31.56" y="115.15" width="1" height="1"></rect>
                        <rect id="Rectangle" stroke="none" fill="#B2A09A" fill-rule="nonzero" x="29.53" y="116.45" width="1" height="1"></rect>
                        <rect id="Rectangle" stroke="none" fill="#B2A09A" fill-rule="nonzero" x="30.54" y="116.45" width="1" height="1"></rect>
                        <rect id="Rectangle" stroke="none" fill="#B2A09A" fill-rule="nonzero" x="31.56" y="116.45" width="1" height="1"></rect>
                        <rect id="Rectangle" stroke="none" fill="#FFFFFF" fill-rule="nonzero" opacity="0.29" x="21.67" y="113.09" width="10.93" height="1"></rect>
                        <rect id="Rectangle" stroke="none" fill="#FFFFFF" fill-rule="nonzero" opacity="0.29" x="20.32" y="117.64" width="13.41" height="1"></rect>
                        <path d="M24.85,109.08 C24.85,109.15732 24.7873199,109.22 24.71,109.22 C24.6326801,109.22 24.57,109.15732 24.57,109.08 C24.57,109.00268 24.6326801,108.94 24.71,108.94 C24.7873199,108.94 24.85,109.00268 24.85,109.08 L24.85,109.08 Z" id="Path" stroke="none" fill="#7E7D7A" fill-rule="nonzero" opacity="0.46" style="mix-blend-mode: multiply;"></path>
                        <path d="M25.91,109.08 C25.9127912,109.116175 25.9003372,109.151871 25.8756484,109.178459 C25.8509596,109.205047 25.8162828,109.220108 25.78,109.22 C25.7026801,109.22 25.64,109.15732 25.64,109.08 C25.64,109.00268 25.7026801,108.94 25.78,108.94 C25.8162828,108.939892 25.8509596,108.954953 25.8756484,108.981541 C25.9003372,109.008129 25.9127912,109.043825 25.91,109.08 L25.91,109.08 Z" id="Path" stroke="none" fill="#7E7D7A" fill-rule="nonzero" opacity="0.46" style="mix-blend-mode: multiply;"></path>
                        <path d="M27,109.08 C27,109.15732 26.9373199,109.22 26.86,109.22 C26.7826801,109.22 26.72,109.15732 26.72,109.08 C26.72,109.00268 26.7826801,108.94 26.86,108.94 C26.9373199,108.94 27,109.00268 27,109.08 L27,109.08 Z" id="Path" stroke="none" fill="#7E7D7A" fill-rule="nonzero" opacity="0.46" style="mix-blend-mode: multiply;"></path>
                        <path d="M28.8,109.05 C28.8,109.12 28.8,109.2 28.73,109.21 C28.661254,109.222379 28.595014,109.178219 28.58,109.11 C28.58,109.03 28.58,108.96 28.66,108.95 C28.74,108.94 28.78,109 28.8,109.05 Z" id="Path" stroke="none" fill="#7E7D7A" fill-rule="nonzero" opacity="0.46" style="mix-blend-mode: multiply;"></path>
                        <path d="M29.68,109.06 C29.6893405,109.0905 29.6861532,109.123464 29.6711423,109.151609 C29.6561314,109.179755 29.6305322,109.200765 29.6,109.21 C29.5665598,109.215735 29.5322545,109.207047 29.5055759,109.186085 C29.4788973,109.165123 29.4623391,109.133848 29.46,109.1 C29.4407839,109.030978 29.4810353,108.95942 29.55,108.94 C29.58352,108.937197 29.6166777,108.948591 29.6413943,108.971406 C29.666111,108.994221 29.680117,109.026363 29.68,109.06 Z" id="Path" stroke="none" fill="#7E7D7A" fill-rule="nonzero" opacity="0.46" style="mix-blend-mode: multiply;"></path>
                        <path d="M30.56,109.05 C30.5725842,109.081744 30.5710483,109.117346 30.5557771,109.147889 C30.5405059,109.178431 30.5129458,109.201021 30.48,109.21 C30.42,109.21 30.36,109.21 30.34,109.11 C30.32,109.01 30.34,108.96 30.41,108.95 C30.478746,108.937621 30.544986,108.981781 30.56,109.05 L30.56,109.05 Z" id="Path" stroke="none" fill="#7E7D7A" fill-rule="nonzero" opacity="0.46" style="mix-blend-mode: multiply;"></path>
                        <rect id="Rectangle" stroke="none" fill="#BF7B6C" fill-rule="nonzero" x="18.99" y="128.27" width="16.71" height="12.53"></rect>
                        <rect id="Rectangle" stroke="none" fill="#7D6356" fill-rule="nonzero" x="29.21" y="126.09" width="2.74" height="1.11"></rect>
                        <rect id="Rectangle" stroke="none" fill="#684A3B" fill-rule="nonzero" x="29.64" y="127.2" width="1.88" height="1.07"></rect>
                        <path d="M19.93,140.8 L19.68,140.8 L19.68,128.27 L19.93,128.27 L19.93,140.8 Z M20.88,128.27 L20.62,128.27 L20.62,140.8 L20.88,140.8 L20.88,128.27 Z M21.82,128.27 L21.56,128.27 L21.56,140.8 L21.82,140.8 L21.82,128.27 Z M22.76,128.27 L22.5,128.27 L22.5,140.8 L22.76,140.8 L22.76,128.27 Z M23.7,128.27 L23.44,128.27 L23.44,140.8 L23.7,140.8 L23.7,128.27 Z M24.64,128.27 L24.39,128.27 L24.39,140.8 L24.64,140.8 L24.64,128.27 Z M25.58,128.27 L25.33,128.27 L25.33,140.8 L25.58,140.8 L25.58,128.27 Z M26.58,128.27 L26.32,128.27 L26.32,140.8 L26.58,140.8 L26.58,128.27 Z M27.52,128.27 L27.26,128.27 L27.26,140.8 L27.52,140.8 L27.52,128.27 Z M28.46,128.27 L28.2,128.27 L28.2,140.8 L28.46,140.8 L28.46,128.27 Z M29.4,128.27 L29.1,128.27 L29.1,140.8 L29.35,140.8 L29.4,128.27 Z M30.34,128.27 L30,128.27 L30,140.8 L30.25,140.8 L30.34,128.27 Z M31.29,128.27 L31,128.27 L31,140.8 L31.26,140.8 L31.29,128.27 Z M32.23,128.27 L31.97,128.27 L31.97,140.8 L32.23,140.8 L32.23,128.27 Z M33.17,128.27 L32.91,128.27 L32.91,140.8 L33.17,140.8 L33.17,128.27 Z M34.11,128.27 L33.86,128.27 L33.86,140.8 L34.11,140.8 L34.11,128.27 Z M35.05,128.27 L34.8,128.27 L34.8,140.8 L35,140.8 L35.05,128.27 Z" id="Shape" stroke="none" fill="#C5887B" fill-rule="nonzero"></path>
                        <rect id="Rectangle" stroke="none" fill="#DEB995" fill-rule="nonzero" x="21.56" y="136.78" width="1.69" height="1.57"></rect>
                        <rect id="Rectangle" stroke="none" fill="#4C4C47" fill-rule="nonzero" x="21.75" y="136.95" width="1.31" height="1.22"></rect>
                        <rect id="Rectangle" stroke="none" fill="#DEB995" fill-rule="nonzero" x="31.52" y="136.78" width="1.69" height="1.57"></rect>
                        <rect id="Rectangle" stroke="none" fill="#4C4C47" fill-rule="nonzero" x="31.71" y="136.95" width="1.31" height="1.22"></rect>
                        <rect id="Rectangle" stroke="none" fill="#7A7976" fill-rule="nonzero" x="18.99" y="140.8" width="16.71" height="15.68"></rect>
                        <rect id="Rectangle" stroke="none" fill="#DAB5A6" fill-rule="nonzero" x="18.99" y="156.48" width="16.71" height="18.63"></rect>
                        <rect id="Rectangle" stroke="none" fill="#BF8050" fill-rule="nonzero" x="22.33" y="144.65" width="2.75" height="7.55"></rect>
                        <path d="M23.66,145.25 L22.94,145.25 L22.94,148.37 L23.66,148.37 L23.66,145.25 Z M24.53,148.37 L23.81,148.37 L23.81,145.25 L24.53,145.25 L24.53,148.37 Z M23.66,151.61 L22.94,151.61 L22.94,148.5 L23.66,148.5 L23.66,151.61 Z M24.53,151.61 L23.81,151.61 L23.81,148.5 L24.53,148.5 L24.53,151.61 Z" id="Shape" stroke="none" fill="#54534F" fill-rule="nonzero"></path>
                        <rect id="Rectangle" stroke="none" fill="#F2D4AD" fill-rule="nonzero" x="22.02" y="144.37" width="3.36" height="1"></rect>
                        <rect id="Rectangle" stroke="none" fill="#BF8050" fill-rule="nonzero" x="29.13" y="144.65" width="2.75" height="7.55"></rect>
                        <path d="M30.46,145.25 L29.74,145.25 L29.74,148.37 L30.46,148.37 L30.46,145.25 Z M31.32,148.37 L30.61,148.37 L30.61,145.25 L31.32,145.25 L31.32,148.37 Z M30.46,151.61 L29.74,151.61 L29.74,148.5 L30.46,148.5 L30.46,151.61 Z M31.32,151.61 L30.61,151.61 L30.61,148.5 L31.32,148.5 L31.32,151.61 Z" id="Shape" stroke="none" fill="#54534F" fill-rule="nonzero"></path>
                        <rect id="Rectangle" stroke="none" fill="#F2D4AD" fill-rule="nonzero" x="28.82" y="144.37" width="3.36" height="1"></rect>
                        <rect id="Rectangle" stroke="none" fill="#EAD2BA" fill-rule="nonzero" x="22.44" y="158.24" width="2.75" height="7.55"></rect>
                        <path d="M23.77,158.85 L23.05,158.85 L23.05,162 L23.77,162 L23.77,158.85 Z M24.63,161.96 L23.91,161.96 L23.91,158.85 L24.63,158.85 L24.63,161.96 Z M23.77,165.2 L23.05,165.2 L23.05,162.09 L23.77,162.09 L23.77,165.2 Z M24.63,165.2 L23.91,165.2 L23.91,162.09 L24.63,162.09 L24.63,165.2 Z" id="Shape" stroke="none" fill="#54534F" fill-rule="nonzero"></path>
                        <rect id="Rectangle" stroke="none" fill="#BF7B6C" fill-rule="nonzero" x="22.13" y="157.96" width="3.36" height="1"></rect>
                        <rect id="Rectangle" stroke="none" fill="#EAD2BA" fill-rule="nonzero" x="28.8" y="157.96" width="3.8" height="9.71"></rect>
                        <rect id="Rectangle" stroke="none" fill="#C38477" fill-rule="nonzero" x="29.32" y="158.5" width="2.77" height="9.17"></rect>
                        <path d="M31.56,162 L29.77,162 L29.77,159 L31.56,159 L31.56,162 Z M31.56,164 L29.77,164 L29.77,166.89 L31.56,166.89 L31.56,164 Z M31.56,162.61 L29.77,162.61 L29.77,163.54 L31.56,163.54 L31.56,162.61 Z" id="Shape" stroke="none" fill="#C88F82" fill-rule="nonzero"></path>
                        <polygon id="Path" stroke="none" fill="#B2A09A" fill-rule="nonzero" points="26.86 167.67 26.86 168.73 26.2 168.73 26.2 169.79 25.55 169.79 25.55 170.85 24.9 170.85 24.9 171.91 24.25 171.91 24.25 172.98 23.59 172.98 23.59 174.04 22.94 174.04 22.94 175.12 32.6 175.12 32.6 174.06 32.6 174.04 32.6 173 32.6 172.98 32.6 171.93 32.6 171.91 32.6 170.87 32.6 170.85 32.6 169.81 32.6 169.79 32.6 168.75 32.6 168.73 32.6 167.67"></polygon>
                        <path d="M62,149.24 C63.63,149.24 68.79,163.4 69.33,164.9 C71.53,170.96 70.67,170.75 66.59,170.97 C65.34,171.04 55.5,171.46 54.68,170.53 C53.86,169.6 54.25,168.44 55.48,164.53 C55.89,163.31 60.34,149.27 62,149.24 Z" id="Path" stroke="none" fill="#B1ADA9" fill-rule="nonzero"></path>
                        <path d="M62.09,152 C62.31,153.13 62.04,155.44 62.09,156.66 C62.09,157.52 62.48,158.37 62.58,160.61 C62.72,163.74 62.13,160.66 62.94,167.71 C63.17,169.49 63.33,173.19 63.4,174.98 C62.81,175.51 61.46,175.17 61.05,174.98 C61.62,165.38 60.92,166.14 61.38,162.73 C62.04,158.63 61.38,158.17 61.58,156.33 C61.65,155.43 61.83,154.33 61.93,153.46 C62.14,151.85 61.93,152 62.09,152 Z" id="Path" stroke="none" fill="#666561" fill-rule="nonzero"></path>
                        <rect id="Rectangle" stroke="none" fill="#F4DCB0" fill-rule="nonzero" x="35.7" y="131.69" width="23.52" height="43.42"></rect>
                        <rect id="Rectangle" stroke="none" fill="#A0B09C" fill-rule="nonzero" x="35.7" y="149.97" width="23.52" height="1"></rect>
                        <rect id="Rectangle" stroke="none" fill="#D49467" fill-rule="nonzero" x="39.68" y="134.68" width="5.17" height="14.19"></rect>
                        <path d="M42.18,135.81 L40.83,135.81 L40.83,141.67 L42.18,141.67 L42.18,135.81 Z M43.81,141.67 L42.45,141.67 L42.45,135.81 L43.81,135.81 L43.81,141.67 Z M42.18,147.76 L40.83,147.76 L40.83,141.91 L42.18,141.91 L42.18,147.76 Z M43.81,147.76 L42.45,147.76 L42.45,141.91 L43.81,141.91 L43.81,147.76 Z" id="Shape" stroke="none" fill="#54534F" fill-rule="nonzero"></path>
                        <rect id="Rectangle" stroke="none" fill="#B0BDAC" fill-rule="nonzero" x="39.1" y="134.14" width="6.31" height="1.67"></rect>
                        <rect id="Rectangle" stroke="none" fill="#D49467" fill-rule="nonzero" x="50.1" y="134.68" width="5.17" height="14.19"></rect>
                        <path d="M52.59,135.81 L51.24,135.81 L51.24,141.67 L52.59,141.67 L52.59,135.81 Z M54.22,141.67 L52.87,141.67 L52.87,135.81 L54.22,135.81 L54.22,141.67 Z M52.59,147.76 L51.24,147.76 L51.24,141.91 L52.59,141.91 L52.59,147.76 Z M54.22,147.76 L52.87,147.76 L52.87,141.91 L54.22,141.91 L54.22,147.76 Z" id="Shape" stroke="none" fill="#54534F" fill-rule="nonzero"></path>
                        <rect id="Rectangle" stroke="none" fill="#B0BDAC" fill-rule="nonzero" x="49.51" y="134.14" width="6.31" height="1.67"></rect>
                        <rect id="Rectangle" stroke="none" fill="#D8B092" fill-rule="nonzero" x="43.38" y="153.57" width="8.44" height="21.55"></rect>
                        <rect id="Rectangle" stroke="none" fill="#A0B09C" fill-rule="nonzero" x="44.53" y="155.48" width="6.15" height="19.64"></rect>
                        <rect id="Rectangle" stroke="none" fill="#B0BDAC" fill-rule="nonzero" x="42.26" y="152.61" width="10.69" height="1.91"></rect>
                        <path d="M49.51,163 L45.51,163 L45.51,156.58 L49.51,156.58 L49.51,163 Z M49.51,167.32 L45.51,167.32 L45.51,173.5 L49.51,173.5 L49.51,167.32 Z M49.51,164.32 L45.51,164.32 L45.51,166.32 L49.51,166.32 L49.51,164.32 Z" id="Shape" stroke="#C25C4A" stroke-width="0.11" fill="none"></path>
                        <rect id="Rectangle" stroke="none" fill="#DEAD8A" fill-rule="nonzero" x="39.68" y="115.19" width="4.84" height="2.21"></rect>
                        <rect id="Rectangle" stroke="none" fill="#C5887B" fill-rule="nonzero" x="40.6" y="117.39" width="3.01" height="1.69"></rect>
                        <rect id="Rectangle" stroke="none" fill="#CD9972" fill-rule="nonzero" x="35.7" y="119.09" width="23.52" height="12.61"></rect>
                        <path d="M57.13,131.69 L56.56,131.69 L56.56,119.09 L57.13,119.09 L57.13,131.69 Z M54.45,119.09 L53.89,119.09 L53.89,131.69 L54.45,131.69 L54.45,119.09 Z M51.78,119.09 L51.21,119.09 L51.21,131.69 L51.78,131.69 L51.78,119.09 Z M49.1,119.09 L48.53,119.09 L48.53,131.69 L49.1,131.69 L49.1,119.09 Z M46.42,119.09 L45.86,119.09 L45.86,131.69 L46.42,131.69 L46.42,119.09 Z M43.75,119.09 L43.18,119.09 L43.18,131.69 L43.75,131.69 L43.75,119.09 Z M41.07,119.09 L40.5,119.09 L40.5,131.69 L41.07,131.69 L41.07,119.09 Z M38.39,119.09 L37.83,119.09 L37.83,131.69 L38.39,131.69 L38.39,119.09 Z" id="Shape" stroke="none" fill="#C68D61" fill-rule="nonzero"></path>
                        <path d="M81.42,144.58 C82.0127586,145.381108 82.1560233,146.429203 81.8,147.36 C81.18,148.78 81.25,148.97 82.18,150.15 C83.52,151.76 81.91,152.41 81.86,153.63 C81.9558981,154.403472 82.2796146,155.130964 82.79,155.72 C83.5,156.97 82.79,157.67 82.33,158.5 C81.51,160 82.78,160.86 83.04,161.98 C83.2469146,163.619502 83.0793811,165.284581 82.55,166.85 C81.61,169.13 77.15,170.12 76.8,164.07 C76.61,160.78 77.49,161.34 77.8,159.89 C78.19,158.11 76.02,157.65 77.12,155.72 C77.51,155.04 78.12,154.46 78.05,153.63 C77.98,152.8 77.3,152.26 77.22,151.54 C77.06,150.31 78.41,149.87 78.5,148.76 C78.59,147.65 77.74,147.47 77.93,145.97 C78.25,143.65 80.44,143.33 81.42,144.58 Z" id="Path" stroke="none" fill="#F2D4AD" fill-rule="nonzero"></path>
                        <path d="M80.1,146.86 C80.34,148.27 80.1,151.03 80.16,152.59 C80.16,153.59 80.57,154.69 80.69,157.43 C80.86,161.56 80.2,157.1 81.1,166.17 C81.33,168.33 81.52,172.89 81.61,175.06 C80.7884108,175.493747 79.8007895,175.471043 79,175 C79.64,163 78.9,164.18 79.39,160 C80.1,154.89 79.47,154.41 79.63,152.13 C79.71,151.03 79.9,149.72 80.01,148.61 C80.15,146.65 79.92,146.88 80.1,146.86 Z" id="Path" stroke="none" fill="#C0804F" fill-rule="nonzero"></path>
                        <path d="M230.78,134.84 C230.78,140.11 238.26,137.17 238.52,141.99 C238.74,145.86 230.91,144.93 232.13,149.44 C233.63,154.98 236.59,151.44 238.44,155.81 C240.61,160.91 240.92,161.23 245.17,161.23 C249.42,161.23 248.85,158.84 250.53,155.75 C252.37,152.35 256.82,155.38 257.53,149.68 C258.07,145.15 250.8,145.98 251.15,141.99 C251.57,137.18 258.89,140.11 258.89,134.84 C258.89,129.57 251.71,132.5 251.15,127.7 C250.52,122.33 258.15,123.38 256.94,118.87 C255.44,113.33 247.94,118.97 247.44,114.66 C247.02,110.74 249.11,104.66 244.86,104.66 C240.61,104.66 242.02,109.36 242.28,114.66 C242.49,118.99 234.28,113.33 232.78,118.87 C231.56,123.38 239.19,122.33 238.56,127.7 C238,132.5 230.78,129.58 230.78,134.84 Z" id="Path" stroke="none" fill="#F2D3AC" fill-rule="nonzero"></path>
                        <path d="M244.39,114.079398 C244.63,117.08 243.5,123.14 243.39,126.48 C243.26,128.87 243.85,131.16 243.57,136.96 C243.13,145.68 242.57,135.96 242.72,156.18 C242.8,160.68 242.31,170.63 242.07,175.13 C243.31,176.06 246.73,176.13 247.8,175.19 C246.8,149.43 245.48,151.5 245.69,142.79 C246.22,131.67 244.69,130.27 244.69,125.54 C244.59,121.92 245.1,114 244.39,114.079398 Z" id="Path" stroke="none" fill="#D7856C" fill-rule="nonzero"></path>
                        <path d="M62.86,33.24 C62.86,16.51 88.17,16.49 88.17,33.24 C97.58,33.24 107.7,31.66 107.7,41.24 C107.7,45.658278 104.118278,49.24 99.7,49.24 L51.66,49.24 C41.12,49.24 41.13,33.29 51.66,33.29 L62.86,33.24 Z" id="Path" stroke="none" fill="#CBCDCC" fill-rule="nonzero"></path>
                        <path d="M233,23.84 C233,8.44 256.3,8.42 256.3,23.84 C264.95,23.84 274.3,22.38 274.3,31.18 C274.289012,35.2292098 271.00921,38.5090116 266.96,38.52 L222.67,38.52 C212.96,38.52 212.97,23.84 222.67,23.84 L233,23.84 Z" id="Path" stroke="none" fill="#CBCDCC" fill-rule="nonzero"></path>
                        <path d="M-1.28923724e-05,171.5 C-0.00207857987,172.934595 0.524860646,174.319591 1.48,175.39 L19.29,175.39 C20.5791264,173.867492 21.051115,171.814958 20.5565235,169.882277 C20.0619319,167.949596 18.6620081,166.376102 16.8,165.66 C16.8,165.51 16.8,165.36 16.8,165.21 C16.8913262,162.937371 15.7309466,160.797177 13.7766044,159.633677 C11.8222622,158.470177 9.38773775,158.470177 7.4333956,159.633677 C5.47905344,160.797177 4.31867376,162.937371 4.41,165.21 C4.41,165.41 4.41,165.61 4.41,165.81 C1.81093868,166.473747 -0.00559579835,168.817529 -1.28923724e-05,171.5 Z" id="Path" stroke="none" fill="#E9DDD5" fill-rule="nonzero"></path>
                        <g id="Group" opacity="0.63" stroke="none" stroke-width="1" fill="none" fill-rule="evenodd" transform="translate(194.000000, 151.000000)">
                            <g opacity="0.29" transform="translate(11.000000, 1.000000)" fill="#969E97" fill-rule="nonzero" id="Path">
                                <path d="M11.42,0.53 C16.04,0.53 20.33,1.99 20.49,9.77 L0.05,9.77 C-0.57,2.2 5.23,0.53 11.42,0.53 Z"></path>
                            </g>
                            <path d="M28.83,15.7999996 C28.3327599,15.8032274 27.8382541,15.8738711 27.36,16.01 C28.9,16.6 30.43,17.23 31.96,17.86 L33.37,18.43 C32.4376695,16.8027459 30.7054188,15.7992614 28.83,15.7999996 Z" id="Path" fill="#6CB497" fill-rule="nonzero"></path>
                            <circle id="Oval" fill="#504F4B" fill-rule="nonzero" cx="28.83" cy="21.05" r="3.21"></circle>
                            <path d="M27.5,21.05 C27.5000151,21.5928862 27.8275882,22.0821195 28.3295407,22.2889265 C28.8314932,22.4957334 29.4086271,22.3792439 29.7910652,21.9939304 C30.1735033,21.6086168 30.2856665,21.0306265 30.0751054,20.5302372 C29.8645444,20.0298479 29.372871,19.7059486 28.83,19.71 C28.4755226,19.70999 28.1357076,19.8514865 27.8859947,20.1030768 C27.6362819,20.3546672 27.4973348,20.6955326 27.5,21.05 Z" id="Path" fill="#969E9D" fill-rule="nonzero"></path>
                            <circle id="Oval" fill="#504F4B" fill-rule="nonzero" cx="12" cy="21.05" r="3.21"></circle>
                            <path d="M10.66,21.05 C10.66,21.7900616 11.2599384,22.39 12,22.39 C12.7400616,22.39 13.34,21.7900616 13.34,21.05 C13.34,20.3099384 12.7400616,19.71 12,19.71 C11.2599384,19.71 10.66,20.3099384 10.66,21.05 Z" id="Path" fill="#969E9D" fill-rule="nonzero"></path>
                            <path d="M23.63,21 C25.63,21 26.48,21.23 26.79,20.3 C27.0958207,19.4123993 27.9311916,18.8166589 28.87,18.8166589 C29.8088084,18.8166589 30.6441793,19.4123993 30.95,20.3 C31.26,21.22 31.58,21 37.7,21 C38.94,21 39.7,20.76 40.26,19.64 C40.4908894,17.8793598 40.527777,16.0986916 40.37,14.33 C40.2841617,12.2609122 38.5808669,10.6282202 36.51,10.63 L32.67,10.63 C32.67,10.63 33.31,0.73 23.27,0.56 C11,0.36 9.9,5.3 9.65,10.63 C6.21,10.63 0.83,13.34 0.83,19.08 C0.83,20.36 2.13,21 3.19,21 C7.86,21 9.64,21.24 9.95,20.3 C10.2610228,19.4149624 11.0969026,18.8227175 12.035,18.8227175 C12.9730974,18.8227175 13.8089772,19.4149624 14.12,20.3 C14.43,21.27 14.38,21 23.63,21 Z M11.39,10.63 C11.56,4.29 14.44,2.06 21.77,1.94 C28.37,1.83 30.84,4.65 30.84,10.63 L11.39,10.63 Z" id="Shape" fill="#ADB3AE" fill-rule="nonzero"></path>
                            <rect id="Rectangle" fill="#B5C2B2" fill-rule="nonzero" transform="translate(22.830000, 6.590000) rotate(180.000000) translate(-22.830000, -6.590000) " x="22.07" y="1.94" width="1.52" height="9.3"></rect>
                            <path d="M23.59,21 L25.77,21 C26.2236001,21.0207659 26.6342525,20.7333092 26.77,20.3 C27.0758207,19.4123993 27.9111916,18.8166589 28.85,18.8166589 C29.7888084,18.8166589 30.6241793,19.4123993 30.93,20.3 C31.0657475,20.7333092 31.4763999,21.0207659 31.93,21 L34.11,21 C34.11,18.1060279 31.7639721,15.76 28.87,15.76 C25.9760279,15.76 23.63,18.1060279 23.63,21 L23.59,21 Z" id="Path" fill="#FFFFFF" fill-rule="nonzero" opacity="0.17"></path>
                            <path d="M6.76,21 L8.94,21 C9.3936001,21.0207659 9.80425253,20.7333092 9.94,20.3 C10.2458207,19.4123993 11.0811916,18.8166589 12.02,18.8166589 C12.9588084,18.8166589 13.7941793,19.4123993 14.1,20.3 C14.2357475,20.7333092 14.6463999,21.0207659 15.1,21 L17.28,21 C17.28,18.1060279 14.9339721,15.76 12.04,15.76 C9.14602791,15.76 6.8,18.1060279 6.8,21 L6.76,21 Z" id="Path" fill="#FFFFFF" fill-rule="nonzero" opacity="0.17"></path>
                            <path d="M40.78,14.7200648 L40.78,14.7200648 C41.1224165,14.7200648 41.4,14.9976483 41.4,15.3400648 L41.4,17.0500648 C41.4,17.2144991 41.3346788,17.3721985 41.2184062,17.488471 C41.1021336,17.6047436 40.9444342,17.6700648 40.78,17.6700648 L40.78,17.6700648 C40.2277153,17.6700648 39.78,17.2223496 39.78,16.6700648 L39.78,15.5700648 C39.8547694,15.0770268 40.2813566,14.7144276 40.78,14.7200648 Z" id="Path" fill="#BC4A36" fill-rule="nonzero" transform="translate(40.590000, 16.195032) rotate(180.000000) translate(-40.590000, -16.195032) "></path>
                            <path d="M0.94,17.9 C0.844022342,17.692094 0.892422653,17.4460591 1.06,17.29 C1.38786066,15.8838865 2.07727752,14.5877828 3.06,13.53 C3.09413964,13.2989046 3.27819582,13.1189385 3.51,13.09 C4.55938729,13.875634 4.86321873,15.3177635 4.22,16.46 C3.69638921,17.7484143 2.24286253,18.386548 0.94,17.9 L0.94,17.9 Z" id="Path" fill="#4D4E4E" fill-rule="nonzero" opacity="0.28" style="mix-blend-mode: multiply;"></path>
                            <path d="M1.07,17.27 C0.950520742,15.7426717 1.73173963,14.2856985 3.07,13.54 C3.93643498,14.1407028 4.23304516,15.2848835 3.76756262,16.2308641 C3.30208007,17.1768448 2.21458041,17.6399556 1.21,17.32 L1.07,17.27 Z" id="Path" fill="#F6E8D4" fill-rule="nonzero"></path>
                            <path d="M37.23,18.49 L38.23,18.49 C38.4564367,18.49 38.64,18.3064367 38.64,18.08 L38.64,18.08 C38.64,17.8535633 38.4564367,17.67 38.23,17.67 L37.23,17.67 C37.0035633,17.67 36.82,17.8535633 36.82,18.08 L36.82,18.08 C36.82,18.1887388 36.8631963,18.2930239 36.9400862,18.3699138 C37.0169761,18.4468037 37.1212612,18.49 37.23,18.49 L37.23,18.49 Z" id="Path" fill="#F6E8D4" fill-rule="nonzero"></path>
                            <path d="M4,18.49 L5,18.49 C5.22643675,18.49 5.41,18.3064367 5.41,18.08 L5.41,18.08 C5.41,17.8535633 5.22643675,17.67 5,17.67 L4,17.67 C3.77356325,17.67 3.59,17.8535633 3.59,18.08 L3.59,18.08 C3.59,18.3064367 3.77356325,18.49 4,18.49 L4,18.49 Z" id="Path" fill="#F6E8D4" fill-rule="nonzero"></path>
                            <path d="M19.38,12.89 L21.51,12.89 C21.6812083,12.89 21.82,12.7512083 21.82,12.58 L21.82,12.58 C21.82,12.4087917 21.6812083,12.27 21.51,12.27 L19.38,12.27 C19.2977829,12.27 19.2189332,12.3026606 19.1607969,12.3607969 C19.1026606,12.4189332 19.07,12.4977829 19.07,12.58 L19.07,12.58 C19.07,12.7512083 19.2087917,12.89 19.38,12.89 L19.38,12.89 Z" id="Path" fill="#4D4E4E" fill-rule="nonzero" opacity="0.22" style="mix-blend-mode: multiply;"></path>
                            <path d="M33.23,12.89 L35.35,12.89 C35.5212083,12.89 35.66,12.7512083 35.66,12.58 L35.66,12.58 C35.66,12.4087917 35.5212083,12.27 35.35,12.27 L33.23,12.27 C33.0587917,12.27 32.92,12.4087917 32.92,12.58 L32.92,12.58 C32.92,12.7512083 33.0587917,12.89 33.23,12.89 Z" id="Path" fill="#4D4E4E" fill-rule="nonzero" opacity="0.22" style="mix-blend-mode: multiply;"></path>
                        </g>
                        <path d="M169.09,152.36 L170.26,171 C170.26,171 176.06,170.83 176.19,171.19 C176.32,171.55 166,174.3 166,174.3 C166,174.3 165.51,170.3 165,167.69 C164.49,165.08 162.93,156.48 162.75,153.96 L169.09,152.36 Z" id="Path" stroke="none" fill="#DC8C54" fill-rule="nonzero"></path>
                        <path d="M132.91,143.79 C131.56,144.79 119.34,153.06 118.13,153.79 C116.92,154.52 115.18,155.47 115.18,155.47 C115.18,155.47 117.72,159.79 118.96,161.98 C119.390753,162.825401 119.928502,163.611859 120.56,164.32 C120.12186,162.949484 119.840071,161.533828 119.72,160.1 C119.634086,159.272223 119.634086,158.437777 119.72,157.61 L135.72,149.15 L132.91,143.79 Z" id="Path" stroke="none" fill="url(#linearGradient-3)" fill-rule="nonzero"></path>
                        <path d="M145.4,89.93 C144.047333,93.8889346 143.295651,98.0282442 143.17,102.21 C142.88,108.04 143.08,119.49 143.17,123 C143.26,126.51 144.11,133 144.11,133 L128.32,146.77 C128.32,146.77 128.86,148.3 129.94,150.55 C130.520751,151.836275 131.457679,152.929357 132.64,153.7 C132.64,153.7 145.24,145.7 148.75,142.09 C152.26,138.48 153.34,137.41 154.51,132.73 C155.68,128.05 156.85,113.73 156.85,113.73 C156.85,113.73 159.14,127.46 159.5,130.97 C159.86,134.48 159.91,140.68 159.91,142.58 C159.91,145.58 161.98,160.8 161.98,160.8 C163.302787,161.075031 164.670922,161.044248 165.98,160.71 C167.525787,160.300015 169.019023,159.712788 170.43,158.96 C170.43,158.96 169.22,143.34 169.49,139.83 C169.76,136.32 169.76,123.45 169.67,115.83 C169.58,108.21 169.22,100.53 168.14,95.67 C167.184691,92.0923808 165.769562,88.6537187 163.93,85.44 L145.4,89.93 Z" id="Path" stroke="none" fill="#37B99A" fill-rule="nonzero"></path>
                        <path d="M145.13,87.5 L145.4,89.93 C145.4,89.93 152.35,89.48 156.06,88.78 C158.845071,88.1173961 161.494261,86.9771956 163.89,85.41 L145.13,87.5 Z" id="Path" stroke="none" fill="#DC8C54" fill-rule="nonzero"></path>
                        <path d="M208.64,37 C201.21,37.81 194.52,39.48 189.44,43 C179.02,42.15 169.38,43 161.15,46.76 C152.785671,45.3911719 144.215545,46.0356454 136.15,48.64 C128.551672,46.29767 120.558288,45.5153388 112.65,46.34 C119.5,43.09 126.1,40.62 132.02,40.34 C139.26,37.34 147.23,36.66 155.55,37.08 C164.754657,34.7983162 174.27815,34.084984 183.72,34.97 C191.38,32.77 199.83,34.08 208.64,37 Z" id="Path" stroke="none" fill="#CC9871" fill-rule="nonzero"></path>
                        <path d="M157.09,35.67 C156.076163,34.9660898 154.768893,34.8410466 153.64,35.34 C151.53,36.12 150.78,37.53 149.13,37.79 C147.48,38.05 145.73,38.85 145.25,40.2 C144.77,41.55 144.41,42.88 142.91,43.39 C141.41,43.9 139.7,45.08 139.41,46.68 C139.12,48.28 139.67,50.22 138.28,50.96 C136.89,51.7 134.94,51.47 133.35,52.58 C131.0633,54.0101277 129.826795,56.6474839 130.19,59.32 C130.51,63.08 129.91,64.12 129.11,64.86 C128.31,65.6 126.99,67.27 127.91,68.69 C128.83,70.11 129.91,69.98 130.4,71.3 C130.89,72.62 130.26,74.3 132.4,75.81 C134.54,77.32 135.95,75.63 137.33,75.98 C138.71,76.33 138.79,77.98 141.86,78.67 C144.93,79.36 165.94,65.07 165.94,65.07 C165.94,65.07 170.72,63.72 171.14,61.48 C171.56,59.24 169.89,58.1 168.59,57.56 C167.29,57.02 167.5,55.07 168.39,53.7 C169.28,52.33 167.99,50.61 166.16,49.7 C164.33,48.79 164.71,46.55 164.83,45.24 C164.95,43.93 164.17,41.09 163.01,40.14 C161.85,39.19 160.87,38.63 160.46,37.89 C160.05,37.15 158.27,36.97 158.27,36.97 C158.061218,36.399384 157.637793,35.9328983 157.09,35.67 Z" id="Path" stroke="none" fill="#000000" fill-rule="nonzero"></path>
                        <path d="M159.53,44.29 C160.44,43.85 161.39,43.88 161.79,45 C162.19,46.12 161.08,47.59 159.7,47.9 L159.53,44.29 Z" id="Path" stroke="none" fill="url(#linearGradient-4)" fill-rule="nonzero"></path>
                        <path d="M149.38,59.05 C146.71,61.41 142.7,63.27 140.38,65.9 C138.06,68.53 136.53,72.99 135.38,76.43 C134.535541,79.2659327 133.867595,82.1514601 133.38,85.07 C133.38,85.07 140.2,86.82 143.17,86.28 L145,87.57 L164.42,86.73 L165.9,89.66 C167.614417,88.3412055 168.796543,86.4490938 169.23,84.33 C169.841514,80.1439317 169.689048,75.8816762 168.78,71.75 C167.97,68.19 167.21,65.75 164.58,64.01 C161.95,62.27 159.85,60.57 159.38,59.72 C158.91,58.87 149.38,59.05 149.38,59.05 Z" id="Path" stroke="none" fill="#F0B41C" fill-rule="nonzero"></path>
                        <path d="M150.54,45.77 C150.54,45.77 150.9,48.5 151.03,50.09 C151.128834,52.2935212 151.004872,54.5013909 150.66,56.68 C150.380261,57.5409462 149.946564,58.3439633 149.38,59.05 C149.38,59.05 151.3,62.05 152.92,64.38 C153.907598,65.8050185 155.014945,67.1432021 156.23,68.38 C156.23,68.38 157.31,65.82 158.05,63.79 C158.79,61.76 159.37,59.74 159.37,59.74 C158.835638,58.7060661 158.544888,57.5635902 158.52,56.4 C158.52,54.58 158.73,50.99 158.73,50.99 C158.73,50.99 160.03,50.06 160.52,47.16 C160.534182,46.1558824 160.463935,45.1523495 160.31,44.16 C160.534526,43.1223593 160.385798,42.0387727 159.89,41.1 C159.407496,40.2983723 158.788109,39.5876006 158.06,39 C157.508688,38.5937584 156.872957,38.3169076 156.2,38.19 C156.037056,39.1109048 155.43118,39.8925597 154.58,40.28 C153.463944,40.867016 152.561208,41.7907457 152,42.92 C151.515983,43.5172357 150.885503,43.9788984 150.17,44.26 L150.54,45.77 Z" id="Path" stroke="none" fill="url(#linearGradient-5)" fill-rule="nonzero"></path>
                        <path d="M159.27,40.86 C158.787933,40.1531919 158.181408,39.5398909 157.48,39.05 C157.017912,38.7305026 156.486771,38.5248995 155.93,38.45 C155.402865,39.3891466 154.654563,40.1855056 153.75,40.77 C152.63,41.43 152.15,42.44 151.19,43.62 C150.999491,43.9395655 150.601338,44.068002 150.26,43.92 L150.26,46.62 C150.53,46.62 150.7,48.34 150.97,49.83 C152.107718,50.8999273 153.476356,51.6937375 154.97,52.15 C155.702884,52.3576683 156.475624,52.3817091 157.22,52.22 C157.811419,52.0386314 158.384048,51.8008729 158.93,51.51 C159.90928,50.2072705 160.470631,48.6382756 160.54,47.01 C160.544938,46.0061615 160.474742,45.003361 160.33,44.01 C160.307375,42.8762612 159.937388,41.7767708 159.27,40.86 Z" id="Path" stroke="none" fill="#DC8C54" fill-rule="nonzero"></path>
                        <path d="M150.72,43.73 C149.78,43.36 148.84,43.47 148.52,44.61 C148.2,45.75 149.42,47.15 150.82,47.35 L150.72,43.73 Z" id="Path" stroke="none" fill="url(#linearGradient-6)" fill-rule="nonzero"></path>
                        <path d="M152.53,43.59 C153.061603,43.2820554 153.656995,43.1007003 154.27,43.06 C155.47,42.9 155.82,43.41 155.87,43.59 C155.92,43.77 154.45,43.42 153.87,43.48 C153.245423,43.6021272 152.630489,43.769229 152.03,43.98 C152.175648,43.8250921 152.344293,43.693549 152.53,43.59 L152.53,43.59 Z" id="Path" stroke="none" fill="#000000" fill-rule="nonzero"></path>
                        <path d="M157.62,44 C157.62,44 157.8,43.59 158.03,43.49 C158.651596,43.3033793 159.323024,43.3868542 159.88,43.72 C160.08064,43.8797865 160.244377,44.0810472 160.36,44.31 C159.933998,44.0628501 159.476515,43.8744748 159,43.75 C158.532067,43.781211 158.069144,43.8650739 157.62,44 L157.62,44 Z" id="Path" stroke="none" fill="#000000" fill-rule="nonzero"></path>
                        <circle id="Oval" stroke="none" fill="#21312A" fill-rule="nonzero" cx="154.02" cy="45.11" r="1"></circle>
                        <circle id="Oval" stroke="none" fill="#21312A" fill-rule="nonzero" cx="158.82" cy="45.11" r="1"></circle>
                        <path d="M154.51,48.39 C155.083457,48.3557987 155.652535,48.2687632 156.21,48.13 C156.346667,48.0534076 156.513333,48.0534076 156.65,48.13 C156.854515,48.0621222 157.075485,48.0621222 157.28,48.13 C157.638578,48.2786362 158.015136,48.3794999 158.4,48.43 C157.820178,48.9256517 157.082799,49.1986238 156.32,49.2 C155.62756,49.2061689 154.966768,48.9104554 154.51,48.39 L154.51,48.39 Z" id="Path" stroke="none" fill="#DE4F31" fill-rule="nonzero"></path>
                        <rect id="Rectangle" stroke="none" fill="#65615C" fill-rule="nonzero" transform="translate(161.710922, 52.422044) rotate(-5.570000) translate(-161.710922, -52.422044) " x="161.275922" y="22.4170445" width="1" height="60.01" rx="0.41"></rect>
                        <path d="M208.64,37 C199.83,34.12 191.38,32.81 183.74,34.94 C174.300958,34.0386469 164.7775,34.735073 155.57,37 C147.25,36.58 139.28,37.28 132.04,40.26 C126.12,40.59 119.52,43.06 112.67,46.26 C121.8,34.26 138.77,25.26 158.87,23.31 C178.97,21.36 197.36,27 208.64,37 Z" id="Path" stroke="none" fill="#F6E8D3" fill-rule="nonzero"></path>
                        <rect id="Rectangle" stroke="none" fill="#393832" fill-rule="nonzero" transform="translate(164.255387, 78.984201) rotate(-5.570000) translate(-164.255387, -78.984201) " x="162.650387" y="75.344201" width="3.21" height="7.28" rx="1.4"></rect>
                        <path d="M165.72,77.51 L162.53,77.82 L162.47,77.23 L165.67,76.92 L165.72,77.51 Z M165.78,78.08 L162.58,78.39 L162.64,78.98 L165.84,78.67 L165.78,78.08 Z M165.89,79.24 L162.7,79.55 L162.76,80.14 L165.95,79.83 L165.89,79.24 Z M166,80.4 L162.8,80.71 L162.86,81.3 L166.05,80.99 L166,80.4 Z" id="Shape" stroke="none" fill="#B1ADA9" fill-rule="nonzero" opacity="0.5" style="mix-blend-mode: multiply;"></path>
                        <polygon id="Path" stroke="none" fill="#FFFFFF" fill-rule="nonzero" opacity="0.1" points="159.45 23.31 159.26 23.31 159.26 23.31"></polygon>
                        <path d="M159.26,23.33 C157,30.92 155.57,37 155.57,37 C147.25,36.58 139.28,37.28 132.04,40.26 C133.5,33.89 147.07,26 159.26,23.33 Z" id="Path" stroke="none" fill="#FFFFFF" fill-rule="nonzero" opacity="0.1"></path>
                        <path d="M183.74,34.9 C174.298711,34.011717 164.775226,34.721668 155.57,37 C155.57,37 157.02,30.91 159.26,23.32 C159.26,23.33 173.45,24.83 183.74,34.9 Z" id="Path" stroke="none" fill="#FFFFFF" fill-rule="nonzero" opacity="0.18"></path>
                        <path d="M164.54,65.63 L168.3,65.63 C168.380793,65.6306975 168.455294,65.6737363 168.496259,65.7433768 C168.537224,65.8130173 168.538644,65.8990455 168.5,65.97 L164.56,73.19 C164.409374,73.471707 164.119324,73.6510802 163.8,73.66 L159.95,73.77 C159.86743,73.7729052 159.789646,73.7312995 159.746229,73.6610056 C159.702812,73.5907117 159.700434,73.5025315 159.74,73.43 L163.74,66.06 C163.90796,65.7811476 164.214762,65.6162418 164.54,65.63 L164.54,65.63 Z" id="Path" stroke="none" fill="#393832" fill-rule="nonzero"></path>
                        <path d="M165.75,173 C166.588101,173.212241 167.446101,173.336249 168.31,173.37 C168.85,173.27 171.18,170.91 171.18,170.91 C171.18,170.91 174.45,170.91 175.03,170.91 C175.466487,170.846063 175.911185,170.86643 176.34,170.97 C176.483809,171.081543 176.59445,171.230218 176.66,171.4 L166,175.08 L165.75,173 Z" id="Path" stroke="none" fill="#674636" fill-rule="nonzero"></path>
                        <path d="M116.58,154.44 C116.58,154.44 117.05,156.27 117.26,156.77 C118.005392,157.69817 118.828356,158.561279 119.72,159.35 C119.72,159.35 120.34,162.56 120.49,163.12 C120.635492,163.537485 120.703277,163.978089 120.69,164.42 C120.611552,164.582464 120.490613,164.72068 120.34,164.82 L114.61,155.08 L116.58,154.44 Z" id="Path" stroke="none" fill="#674636" fill-rule="nonzero"></path>
                        <path d="M142.9,69.54 C143.350509,70.6689798 143.649769,71.8525694 143.79,73.06 C143.936376,74.2641294 143.993199,75.4774607 143.96,76.69 C143.931736,77.8974972 143.838266,79.1025861 143.68,80.3 C143.533022,81.4950385 143.315981,82.6804128 143.03,83.85 C142.98,82.64 143.03,81.44 143.03,80.25 L143.13,76.67 C143.13,75.48 143.13,74.3 143.13,73.11 C143.13,71.92 143.05,70.74 142.9,69.54 Z" id="Path" stroke="none" fill="#ED8B4C" fill-rule="nonzero" style="mix-blend-mode: multiply;"></path>
                        <path d="M145.13,72.45 C145.238604,72.8551173 145.30232,73.2709508 145.32,73.69 C145.32,74.1 145.32,74.52 145.32,74.94 C145.32,75.77 145.21,76.6 145.1,77.42 C145.04,77.8266667 144.97,78.2366667 144.89,78.65 C144.81,79.06 144.72,79.46 144.62,79.86 C144.427819,80.6719634 144.163433,81.4651204 143.83,82.23 C143.94,81.41 144.83,74.9 144.83,74.9 C145,74.08 145.09,73.28 145.13,72.45 Z" id="Path" stroke="none" fill="#ED8B4C" fill-rule="nonzero" style="mix-blend-mode: multiply;"></path>
                        <path d="M135.88,85.54 C135.88,85.54 135.97,90.6 139.48,91.41 C142.99,92.22 147.76,87.27 149.83,85.02 C151.9,82.77 155.59,76.7 156.53,76.36 C157.76,75.92 159.53,76.16 161.33,75.42 C162.183986,74.8503028 162.929075,74.1323083 163.53,73.3 C163.38,73.09 162.99,73.3 162.99,73.3 C162.99,73.3 164.21,72.24 164.12,72.17 C164.03,72.1 163.8,71.88 163.19,72.28 C162.543866,72.6529082 161.876007,72.9868377 161.19,73.28 C161.19,73.28 162.19,72.63 162.61,72.36 C163.134661,71.8563459 163.610143,71.3038496 164.03,70.71 C164.03,70.71 163.56,70.44 163.31,70.62 C163.06,70.8 162.31,71.55 162.05,71.7 C161.79,71.85 160.47,72.49 160.47,72.49 C160.99892,72.1647889 161.509681,71.8109284 162,71.43 C162.32,71.12 162.95,70.33 162.95,70.33 C162.95,70.33 162.66,69.99 162.34,70.15 C161.86372,70.4263999 161.406072,70.7337255 160.97,71.07 C160.16813,71.5273826 159.315722,71.8898239 158.43,72.15 C157.936634,72.2309729 157.433366,72.2309729 156.94,72.15 C156.94,72.15 158.16,71.68 158.65,71.52 C159.227856,71.3209308 159.756376,71.0004094 160.2,70.58 C160.2,70.44 159.82,70.22 159.28,70.31 C158.74,70.4 157.39,70.8 156.74,70.96 C156.048611,71.100098 155.402702,71.4093097 154.86,71.86 C154.18,72.48 152.58,74.11 152.33,74.42 C150.282322,76.5379909 148.119015,78.5410528 145.85,80.42 C143.42,82.34 139.71,85.42 139.71,85.42 L135.88,85.54 Z" id="Path" stroke="none" fill="#DC8C54" fill-rule="nonzero"></path>
                        <path d="M162.16,90.62 L162.16,90.42 C162.038165,88.6400398 162.07833,86.8526904 162.28,85.08 C162.65,82.41 163.55,80.72 164.97,80.08 C168.28,78.55 172.92,82.79 174.65,85.08 L174.01,85.57 C172.29,83.3 168.01,79.57 165.31,80.82 C162.61,82.07 162.87,88.34 162.97,90.4 L162.97,90.6 L162.16,90.62 Z" id="Path" stroke="none" fill="#C48871" fill-rule="nonzero"></path>
                        <path d="M162.07,90.47 L167.4,87.63 L174.4,84.73 C174.4,84.73 180.86,92.31 180.72,93.73 C180.58,95.15 175.55,98.36 173.16,99.58 C170.77,100.8 166.95,101.65 165.96,101.33 C164.97,101.01 162.07,90.47 162.07,90.47 Z" id="Path" stroke="none" fill="#C2624A" fill-rule="nonzero"></path>
                        <path d="M167.22,87.73 L162.07,90.47 C162.07,90.47 165,101 166,101.31 C167,101.62 170.82,100.77 173.2,99.56 C175.58,98.35 180.63,95.1 180.76,93.71 C178.075666,95.5543436 175.156374,97.0308058 172.08,98.1 C171.44,98.16 168.59,90.82 167.22,87.73 Z" id="Path" stroke="none" fill="#B1ADA9" fill-rule="nonzero" opacity="0.5" style="mix-blend-mode: multiply;"></path>
                        <path d="M169.32,68.74 C167.97091,67.9845531 166.574705,67.316512 165.14,66.74 C164.9,66.98 165.25,67.6 165.64,67.74 L167.53,68.63 L164.43,67.54 C164.43,67.54 164.19,67.72 164.31,67.94 C165.027425,68.4070855 165.783518,68.8118967 166.57,69.15 L163.57,68.67 C163.57,68.67 163.34,69.05 163.69,69.23 C164.04,69.41 165.76,70.07 165.76,70.07 L163.1,69.54 C163.108691,69.9375153 163.398071,70.2730282 163.79,70.34 C164.52,70.56 164.79,70.68 164.79,70.68 L165.73,71.3 C165.73,71.3 164.6,72.79 164.64,72.78 C164.56,73.88 162.64,81.65 162.64,84.34 C162.64,87.41 163.49,89.13 164.71,89.19 C168.6,89.39 168.47,82.06 167.34,74.48 C168.07,73.09 170.53,69.65 169.32,68.74 Z" id="Path" stroke="none" fill="#DC8C54" fill-rule="nonzero"></path>
                        <rect id="Rectangle" stroke="none" fill="#F6E6CB" fill-rule="nonzero" transform="translate(172.506925, 88.447250) rotate(-24.040000) translate(-172.506925, -88.447250) " x="171.336925" y="88.1322501" width="2.34" height="1"></rect>
                        <path d="M170.24,156.89 C170.33,158.16 170.39,158.96 170.39,158.96 C168.979023,159.712788 167.485787,160.300015 165.94,160.71 C164.630922,161.044248 163.262787,161.075031 161.94,160.8 L161.68,158.87 C164.643969,158.845387 167.566282,158.169432 170.24,156.89 Z M129.8,145.47 L128.32,146.76 C128.32,146.76 128.86,148.29 129.94,150.54 C130.520751,151.826275 131.457679,152.919357 132.64,153.69 L134.26,152.69 C132.174658,150.708968 130.638079,148.221502 129.8,145.47 L129.8,145.47 Z" id="Shape" stroke="none" fill="#FFFFFF" fill-rule="nonzero" opacity="0.19"></path>
                        <path d="M150.12,67.25 C150.3,67.56 150.45,67.86 150.61,68.16 C150.77,68.46 150.91,68.75 151.05,69.06 C151.198004,69.3655568 151.328221,69.6794136 151.44,70 C151.556399,70.322931 151.633617,70.6586653 151.67,71 C151.419672,70.7525286 151.198254,70.4774331 151.01,70.18 C150.80934,69.89844 150.638426,69.5968262 150.5,69.28 C150.344436,68.9625502 150.230173,68.6264826 150.16,68.28 C150.077245,67.9428911 150.063638,67.5925115 150.12,67.25 L150.12,67.25 Z" id="Path" stroke="none" fill="#ED8B4C" fill-rule="nonzero" style="mix-blend-mode: multiply;"></path>
                        <path d="M156.06,84.6 C156.257274,84.3139725 156.508676,84.0693655 156.8,83.88 C157.077372,83.6866882 157.371948,83.5193156 157.68,83.38 C157.97,83.24 158.27,83.12 158.57,83 L159.5,82.64 C159.33095,82.9481353 159.095211,83.2146225 158.81,83.42 C158.536261,83.6163316 158.245033,83.7870517 157.94,83.93 C157.63,84.07 157.33,84.19 157.02,84.3 C156.71,84.41 156.4,84.51 156.06,84.6 Z" id="Path" stroke="none" fill="#ED8B4C" fill-rule="nonzero" style="mix-blend-mode: multiply;"></path>
                        <path d="M135.61,83 C135.977256,82.917208 136.353885,82.8835804 136.73,82.9 C137.096853,82.919805 137.461434,82.9699767 137.82,83.05 C138.17712,83.1274768 138.528065,83.231089 138.87,83.36 C139.222117,83.4945339 139.557642,83.6690072 139.87,83.88 C139.500624,83.9103835 139.129376,83.9103835 138.76,83.88 C138.4,83.83 138.05,83.77 137.7,83.69 C137.35,83.61 137,83.53 136.7,83.43 C136.327426,83.3112964 135.963269,83.167638 135.61,83 Z" id="Path" stroke="none" fill="#ED8B4C" fill-rule="nonzero" style="mix-blend-mode: multiply;"></path>
                        <ellipse id="Oval" stroke="none" fill="#6C7A78" fill-rule="nonzero" cx="173.06" cy="175.58" rx="16.64" ry="1"></ellipse>
                        <path d="M110,154.54 C110,154.54 109.64,152.65 109.37,151.3 C109.1,149.95 107.68,150.07 107.62,151.1 C107.56,152.13 110,154.54 110,154.54 Z" id="Path" stroke="none" fill="#485CA8" fill-rule="nonzero"></path>
                        <path d="M115.24,148.63 L116.15,145.45 C116.52,144.13 115.15,143.6 114.67,144.45 C114.19,145.3 115.24,148.63 115.24,148.63 Z" id="Path" stroke="none" fill="#485CA8" fill-rule="nonzero"></path>
                        <path d="M109.07,143.39 C109.07,143.39 109.2,141.48 109.29,140.1 C109.38,138.72 107.97,138.48 107.65,139.46 C107.33,140.44 109.07,143.39 109.07,143.39 Z" id="Path" stroke="none" fill="#485CA8" fill-rule="nonzero"></path>
                        <path d="M162.15,172.35 L161,169.51 C160.51,168.33 159.23,168.71 159.36,169.66 C159.49,170.61 162.15,172.35 162.15,172.35 Z" id="Path" stroke="none" fill="#485CA8" fill-rule="nonzero"></path>
                        <path d="M181.17,168.94 L183.6,167.07 C184.6,166.28 183.92,165.15 183.04,165.52 C182.16,165.89 181.17,168.94 181.17,168.94 Z" id="Path" stroke="none" fill="#485CA8" fill-rule="nonzero"></path>
                        <path d="M186.16,170.63 L189.21,170.26 C190.49,170.1 190.46,168.78 189.51,168.65 C188.56,168.52 186.16,170.63 186.16,170.63 Z" id="Path" stroke="none" fill="#485CA8" fill-rule="nonzero"></path>
                        <path d="M159,174.42 L156.37,172.85 C155.26,172.19 154.47,173.26 155.14,173.94 C155.81,174.62 159,174.42 159,174.42 Z" id="Path" stroke="none" fill="#485CA8" fill-rule="nonzero"></path>
                        <path d="M143.12,14.6 L141.39,12 C140.67,10.9 139.46,11.52 139.77,12.45 C140.08,13.38 143.12,14.6 143.12,14.6 Z" id="Path" stroke="none" fill="#485CA8" fill-rule="nonzero"></path>
                        <path d="M149.34,6.54 L147.62,3.9 C146.9,2.8 145.69,3.43 146,4.36 C146.31,5.29 149.34,6.54 149.34,6.54 Z" id="Path" stroke="none" fill="#485CA8" fill-rule="nonzero"></path>
                        <path d="M153,16.8 C153,16.8 152.42,14.8 152,13.37 C151.58,11.94 150.06,12.21 150.09,13.37 C150.12,14.53 153,16.8 153,16.8 Z" id="Path" stroke="none" fill="#485CA8" fill-rule="nonzero"></path>
                        <path d="M134.21,12.64 L133.21,9.2 C132.79,7.76 131.27,8.04 131.3,9.2 C131.33,10.36 134.21,12.64 134.21,12.64 Z" id="Path" stroke="none" fill="#485CA8" fill-rule="nonzero"></path>
                        <path d="M165.88,15.26 L168.93,13 C170.2,12 169.35,10.64 168.25,11.08 C167.15,11.52 165.88,15.26 165.88,15.26 Z" id="Path" stroke="none" fill="#485CA8" fill-rule="nonzero"></path>
                        <path d="M179.61,16 L182.61,13.73 C183.88,12.78 183.03,11.38 181.94,11.82 C180.85,12.26 179.61,16 179.61,16 Z" id="Path" stroke="none" fill="#485CA8" fill-rule="nonzero"></path>
                        <path d="M174,9.19 L177,6.93 C178.27,5.98 177.42,4.57 176.33,5.01 C175.24,5.45 174,9.19 174,9.19 Z" id="Path" stroke="none" fill="#485CA8" fill-rule="nonzero"></path>
                        <path d="M163.43,8.22 L166.43,5.95 C167.7,4.95 166.85,3.6 165.76,4.04 C164.67,4.48 163.43,8.22 163.43,8.22 Z" id="Path" stroke="none" fill="#485CA8" fill-rule="nonzero"></path>
                        <path d="M138.46,19.78 L136.3,17.25 C135.39,16.19 134.21,17.01 134.66,17.94 C135.11,18.87 138.46,19.78 138.46,19.78 Z" id="Path" stroke="none" fill="#485CA8" fill-rule="nonzero"></path>
                        <path d="M125.22,24.49 L123.06,22 C122.15,20.94 120.97,21.76 121.42,22.7 C121.87,23.64 125.22,24.49 125.22,24.49 Z" id="Path" stroke="none" fill="#485CA8" fill-rule="nonzero"></path>
                        <path d="M119.59,34.29 L117.43,31.76 C116.52,30.7 115.34,31.53 115.79,32.46 C116.24,33.39 119.59,34.29 119.59,34.29 Z" id="Path" stroke="none" fill="#485CA8" fill-rule="nonzero"></path>
                        <circle id="Oval" stroke="none" fill="#485CA8" fill-rule="nonzero" cx="173.12" cy="14.64" r="1"></circle>
                        <path d="M130.17,22.37 C130.174059,22.6175916 130.028039,22.8430704 129.800449,22.9406457 C129.572859,23.0382209 129.308864,22.9885292 129.132326,22.814885 C128.955788,22.6412408 128.90174,22.3781032 128.99554,22.1489318 C129.089341,21.9197603 129.312375,21.7700333 129.56,21.77 C129.893027,21.7699552 130.164541,22.037018 130.17,22.37 L130.17,22.37 Z" id="Path" stroke="none" fill="#485CA8" fill-rule="nonzero"></path>
                        <path d="M146,18.28 C146,18.6555536 145.695554,18.96 145.32,18.96 C144.944446,18.96 144.64,18.6555536 144.64,18.28 C144.64,17.9044464 144.944446,17.6 145.32,17.6 C145.695554,17.6 146,17.9044464 146,18.28 Z" id="Path" stroke="none" fill="#485CA8" fill-rule="nonzero"></path>
                        <circle id="Oval" stroke="none" fill="#485CA8" fill-rule="nonzero" cx="207.37" cy="20.11" r="1"></circle>
                        <path d="M116.33,29 C116.324498,29.352108 116.035569,29.6336195 115.683437,29.6299655 C115.331305,29.6263115 115.048281,29.338865 115.050078,28.9867186 C115.051892,28.6345723 115.337849,28.350043 115.69,28.35 C115.861485,28.3499791 116.025806,28.4187784 116.146121,28.5409733 C116.266436,28.6631681 116.332679,28.8285355 116.33,29 Z" id="Path" stroke="none" fill="#485CA8" fill-rule="nonzero"></path>
                        <circle id="Oval" stroke="none" fill="#485CA8" fill-rule="nonzero" cx="155.12" cy="168.46" r="1"></circle>
                        <path d="M178.45,167.84 C178.45,168.182417 178.172417,168.46 177.83,168.46 C177.487583,168.46 177.21,168.182417 177.21,167.84 C177.21,167.497583 177.487583,167.22 177.83,167.22 C178.172417,167.22 178.45,167.497583 178.45,167.84 L178.45,167.84 Z" id="Path" stroke="none" fill="#6C7A78" fill-rule="nonzero"></path>
                        <path d="M188.87,161.7 C188.87,161.904217 188.788875,162.100069 188.644472,162.244472 C188.500069,162.388875 188.304217,162.47 188.1,162.47 C187.782736,162.474042 187.49464,162.285499 187.371353,161.993141 C187.248067,161.700782 187.314162,161.362878 187.53852,161.13852 C187.762878,160.914162 188.100782,160.848067 188.393141,160.971353 C188.685499,161.09464 188.874042,161.382736 188.87,161.7 L188.87,161.7 Z" id="Path" stroke="none" fill="#485CA8" fill-rule="nonzero"></path>
                        <path d="M156.58,44.09 L156.58,43.99 C156.861059,44.9461057 157.253765,45.8657758 157.75,46.73 C157.92,47.13 157.48,47.44 157.12,47.44 C156.76,47.44 155.91,47.28 155.91,47.28" id="Path" stroke="url(#linearGradient-7)" stroke-width="0.1" fill="none"></path>
                        <polygon id="Path" stroke="none" fill="#D4A998" fill-rule="nonzero" points="289.09 97.65 281.28 104.97 297.1 104.97"></polygon>
                        <path d="M297.09,129.2 L281.28,129.2 L281.28,105 L297.09,105 L297.09,129.2 Z M289.2,108.13 C288.689471,108.13 288.229409,108.438098 288.034986,108.910157 C287.840562,109.382216 287.950208,109.92494 288.312642,110.284497 C288.675076,110.644054 289.218656,110.749372 289.689151,110.551194 C290.159645,110.353015 290.464052,109.890513 290.46,109.38 C290.454508,108.68803 289.891992,108.13 289.2,108.13 L289.2,108.13 Z" id="Shape" stroke="none" fill="#B6C2B3" fill-rule="nonzero"></path>
                        <rect id="Rectangle" stroke="none" fill="#969E97" fill-rule="nonzero" x="284.68" y="112.6" width="1.26" height="2.3"></rect>
                        <rect id="Rectangle" stroke="none" fill="#969E97" fill-rule="nonzero" x="287.28" y="112.6" width="1.26" height="2.3"></rect>
                        <rect id="Rectangle" stroke="none" fill="#969E97" fill-rule="nonzero" x="289.87" y="112.6" width="1.26" height="2.3"></rect>
                        <rect id="Rectangle" stroke="none" fill="#969E97" fill-rule="nonzero" x="292.47" y="112.6" width="1.26" height="2.3"></rect>
                        <rect id="Rectangle" stroke="none" fill="#C3CABD" fill-rule="nonzero" x="267.75" y="129.82" width="24.65" height="45.51"></rect>
                        <rect id="Rectangle" stroke="none" fill="#A0B09C" fill-rule="nonzero" x="267.75" y="148.98" width="24.65" height="1"></rect>
                        <rect id="Rectangle" stroke="none" fill="#D49467" fill-rule="nonzero" x="271.92" y="132.95" width="5.41" height="14.87"></rect>
                        <path d="M274.53,134.14 L273.12,134.14 L273.12,140.27 L274.53,140.27 L274.53,134.14 Z M276.24,140.27 L274.82,140.27 L274.82,134.14 L276.24,134.14 L276.24,140.27 Z M274.53,146.66 L273.12,146.66 L273.12,140.53 L274.53,140.53 L274.53,146.66 Z M276.24,146.66 L274.82,146.66 L274.82,140.53 L276.24,140.53 L276.24,146.66 Z" id="Shape" stroke="none" fill="#54534F" fill-rule="nonzero"></path>
                        <rect id="Rectangle" stroke="none" fill="#F2D4AD" fill-rule="nonzero" x="271.31" y="132.39" width="6.62" height="1.75"></rect>
                        <rect id="Rectangle" stroke="none" fill="#D49467" fill-rule="nonzero" x="282.83" y="132.95" width="5.41" height="14.87"></rect>
                        <path d="M285.45,134.14 L284,134.14 L284,140.27 L285.42,140.27 L285.45,134.14 Z M287.15,140.27 L285.74,140.27 L285.74,134.14 L287.15,134.14 L287.15,140.27 Z M285.45,146.66 L284,146.66 L284,140.53 L285.42,140.53 L285.45,146.66 Z M287.15,146.66 L285.74,146.66 L285.74,140.53 L287.15,140.53 L287.15,146.66 Z" id="Shape" stroke="none" fill="#54534F" fill-rule="nonzero"></path>
                        <rect id="Rectangle" stroke="none" fill="#F2D4AD" fill-rule="nonzero" x="282.22" y="132.39" width="6.62" height="1.75"></rect>
                        <rect id="Rectangle" stroke="none" fill="#D8B092" fill-rule="nonzero" x="275.8" y="152.75" width="8.85" height="22.58"></rect>
                        <rect id="Rectangle" stroke="none" fill="#A0B09C" fill-rule="nonzero" x="277" y="154.75" width="6.45" height="20.58"></rect>
                        <rect id="Rectangle" stroke="none" fill="#B0BDAC" fill-rule="nonzero" x="274.62" y="151.74" width="11.21" height="2.01"></rect>
                        <path d="M282.22,162.59 L278.05,162.59 L278.05,155.86 L282.22,155.86 L282.22,162.59 Z M282.22,167.11 L278.05,167.11 L278.05,173.59 L282.22,173.59 L282.22,167.11 Z M282.22,163.99 L278.05,163.99 L278.05,166.09 L282.22,166.09 L282.22,163.99 Z" id="Shape" stroke="#C25C4A" stroke-width="0.12" fill="none"></path>
                        <rect id="Rectangle" stroke="none" fill="#DEAD8A" fill-rule="nonzero" x="271.92" y="112.53" width="5.08" height="2.31"></rect>
                        <rect id="Rectangle" stroke="none" fill="#C5887B" fill-rule="nonzero" x="272.88" y="114.84" width="3.15" height="1.77"></rect>
                        <rect id="Rectangle" stroke="none" fill="#CD9972" fill-rule="nonzero" x="267.75" y="116.61" width="24.65" height="13.21"></rect>
                        <path d="M290.2,129.82 L289.61,129.82 L289.61,116.61 L290.2,116.61 L290.2,129.82 Z M287.4,116.61 L286.81,116.61 L286.81,129.82 L287.4,129.82 L287.4,116.61 Z M284.59,116.61 L284,116.61 L284,129.82 L284.59,129.82 L284.59,116.61 Z M281.79,116.61 L281.2,116.61 L281.2,129.82 L281.79,129.82 L281.79,116.61 Z M278.98,116.61 L278.39,116.61 L278.39,129.82 L279,129.82 L278.98,116.61 Z M276.18,116.61 L275.59,116.61 L275.59,129.82 L276.18,129.82 L276.18,116.61 Z M273.37,116.61 L272.78,116.61 L272.78,129.82 L273.37,129.82 L273.37,116.61 Z M270.57,116.61 L270,116.61 L270,129.82 L270.59,129.82 L270.57,116.61 Z" id="Shape" stroke="none" fill="#C68D61" fill-rule="nonzero"></path>
                        <rect id="Rectangle" stroke="none" fill="#E5D1C9" fill-rule="nonzero" x="292.4" y="123.22" width="23.7" height="52.11"></rect>
                        <rect id="Rectangle" stroke="none" fill="#CD9A85" fill-rule="nonzero" x="292.4" y="123.22" width="23.7" height="10.92"></rect>
                        <path d="M301.53,151 L301.53,137.31 C301.53,135.73 296.12,135.73 296.12,137.31 L296.12,151 L295.5,151 L295.5,152.75 L302.12,152.75 L302.12,151 L301.53,151 Z" id="Path" stroke="none" fill="#DEB995" fill-rule="nonzero"></path>
                        <path d="M298.73,138.5 L297.31,138.5 L297.31,144.63 L298.73,144.63 L298.73,138.5 Z M300.44,144.63 L299,144.63 L299,138.5 L300.42,138.5 L300.44,144.63 Z M298.73,151 L297.31,151 L297.31,144.87 L298.73,144.87 L298.73,151 Z M300.44,151 L299,151 L299,144.87 L300.42,144.87 L300.44,151 Z" id="Shape" stroke="none" fill="#54534F" fill-rule="nonzero"></path>
                        <ellipse id="Oval" stroke="none" fill="#FFFFFF" fill-rule="nonzero" cx="298.87" cy="137.24" rx="1.38" ry="1"></ellipse>
                        <path d="M312.09,151 L312.09,137.31 C312.09,135.73 306.67,135.73 306.67,137.31 L306.67,151 L306.06,151 L306.06,152.75 L312.67,152.75 L312.67,151 L312.09,151 Z" id="Path" stroke="none" fill="#DEB995" fill-rule="nonzero"></path>
                        <path d="M309.29,138.5 L307.87,138.5 L307.87,144.63 L309.29,144.63 L309.29,138.5 Z M310.99,144.63 L309.58,144.63 L309.58,138.5 L311,138.5 L310.99,144.63 Z M309.29,151.02 L307.87,151.02 L307.87,144.89 L309.29,144.89 L309.29,151.02 Z M310.99,151.02 L309.58,151.02 L309.58,144.89 L311,144.89 L310.99,151.02 Z" id="Shape" stroke="none" fill="#54534F" fill-rule="nonzero"></path>
                        <ellipse id="Oval" stroke="none" fill="#FFFFFF" fill-rule="nonzero" cx="309.42" cy="137.24" rx="1.38" ry="1"></ellipse>
                        <path d="M301.53,170.57 L301.53,156.85 C301.53,155.28 296.12,155.28 296.12,156.85 L296.12,170.57 L295.5,170.57 L295.5,172.32 L302.12,172.32 L302.12,170.57 L301.53,170.57 Z" id="Path" stroke="none" fill="#DEB995" fill-rule="nonzero"></path>
                        <path d="M298.73,158 L297.31,158 L297.31,164.14 L298.73,164.14 L298.73,158 Z M300.44,164.14 L299,164.14 L299,158 L300.42,158 L300.44,164.14 Z M298.73,170.53 L297.31,170.53 L297.31,164.39 L298.73,164.39 L298.73,170.53 Z M300.44,170.53 L299,170.53 L299,164.39 L300.42,164.39 L300.44,170.53 Z" id="Shape" stroke="none" fill="#54534F" fill-rule="nonzero"></path>
                        <ellipse id="Oval" stroke="none" fill="#FFFFFF" fill-rule="nonzero" cx="298.87" cy="156.79" rx="1.38" ry="1"></ellipse>
                        <path d="M312.09,170.57 L312.09,156.85 C312.09,155.28 306.67,155.28 306.67,156.85 L306.67,170.57 L306.06,170.57 L306.06,172.32 L312.67,172.32 L312.67,170.57 L312.09,170.57 Z" id="Path" stroke="none" fill="#DEB995" fill-rule="nonzero"></path>
                        <path d="M309.29,158 L307.87,158 L307.87,164.14 L309.29,164.14 L309.29,158 Z M310.99,164.14 L309.58,164.14 L309.58,158 L311,158 L310.99,164.14 Z M309.29,170.53 L307.87,170.53 L307.87,164.39 L309.29,164.39 L309.29,170.53 Z M310.99,170.53 L309.58,170.53 L309.58,164.39 L311,164.39 L310.99,170.53 Z" id="Shape" stroke="none" fill="#54534F" fill-rule="nonzero"></path>
                        <ellipse id="Oval" stroke="none" fill="#FFFFFF" fill-rule="nonzero" cx="309.42" cy="156.79" rx="1.38" ry="1"></ellipse>
                        <path d="M302.33,123.22 L300,134.14 L299.19,134.14 L301.55,123.22 L302.33,123.22 Z M304.13,123.22 L301.76,134.14 L302.58,134.14 L304.94,123.22 L304.13,123.22 Z M298.9,123.22 L296.53,134.14 L297.34,134.14 L299.71,123.22 L298.9,123.22 Z M292.4,132.82 L294.48,123.22 L293.67,123.22 L292.4,129.07 L292.4,132.82 Z M296.28,123.22 L293.92,134.14 L294.73,134.14 L297.09,123.22 L296.28,123.22 Z M314.6,123.22 L312.23,134.14 L313,134.14 L315.37,123.22 L314.6,123.22 Z M306.75,123.22 L304.38,134.14 L305.19,134.14 L307.56,123.22 L306.75,123.22 Z M311.98,123.22 L309.61,134.14 L310.43,134.14 L312.79,123.22 L311.98,123.22 Z M316.1,128.36 L314.85,134.14 L315.66,134.14 L316.1,132.14 L316.1,128.36 Z M309.36,123.22 L307,134.14 L307.81,134.14 L310.18,123.22 L309.36,123.22 Z" id="Shape" stroke="none" fill="#CF9F8B" fill-rule="nonzero"></path>
                        <path d="M261.58,166 C261.58,166 258.26,169.59 259.74,171.89 C261.22,174.19 263.64,171.89 263.64,171.89 C266.79,174.6 269.92,170.89 265.55,166.12 C265.86,160.71 261.19,160.68 261.58,166 Z" id="Path" stroke="none" fill="#DEB995" fill-rule="nonzero"></path>
                        <path d="M263.67,162.1 C263.91,162.9 263.57,163.87 263.67,164.87 C264.112063,165.966642 264.240177,167.164679 264.04,168.33 C263.85,170.19 264.56,169.44 264.84,175.33 C264.223499,175.489633 263.576501,175.489633 262.96,175.33 C263.48,169.61 262.55,169.99 263.28,167.84 C263.47972,166.937585 263.47972,166.002415 263.28,165.1 C263.284269,164.666634 263.348203,164.23592 263.47,163.82 C263.86,161.8 263.49,162.16 263.67,162.1 Z" id="Path" stroke="none" fill="#947B74" fill-rule="nonzero"></path>
                        <g id="Group" opacity="0.29" stroke="none" stroke-width="1" fill="none" fill-rule="evenodd" transform="translate(291.000000, 160.000000)">
                            <path d="M8.28,0.06 C11.4,0.06 14.28,1.06 14.4,6.29 L0.61,6.29 C0.19,1.18 4.1,0.06 8.28,0.06 Z" id="Path" fill="#969E97" fill-rule="nonzero"></path>
                        </g>
                        <path d="M303.61,169.689995 C303.271799,169.69024 302.935264,169.737355 302.61,169.83 C303.61,170.22 304.69,170.65 305.72,171.07 L306.67,171.46 C306.041699,170.363464 304.873784,169.687905 303.61,169.689995 L303.61,169.689995 Z" id="Path" stroke="none" fill="#6CB497" fill-rule="nonzero"></path>
                        <circle id="Oval" stroke="none" fill="#504F4B" fill-rule="nonzero" cx="303.61" cy="173.22" r="2.17"></circle>
                        <path d="M302.71,173.22 C302.71,173.717056 303.112944,174.12 303.61,174.12 C304.107056,174.12 304.51,173.717056 304.51,173.22 C304.51,172.722944 304.107056,172.32 303.61,172.32 C303.112944,172.32 302.71,172.722944 302.71,173.22 Z" id="Path" stroke="none" fill="#969E9D" fill-rule="nonzero"></path>
                        <circle id="Oval" stroke="none" fill="#504F4B" fill-rule="nonzero" cx="292.25" cy="173.22" r="2.17"></circle>
                        <path d="M291.35,173.22 C291.35,173.717056 291.752944,174.12 292.25,174.12 C292.747056,174.12 293.15,173.717056 293.15,173.22 C293.15,172.722944 292.747056,172.32 292.25,172.32 C291.752944,172.32 291.35,172.722944 291.35,173.22 Z" id="Path" stroke="none" fill="#969E9D" fill-rule="nonzero"></path>
                        <path d="M300.1,173.22 C301.42,173.22 302.02,173.37 302.23,172.75 C302.430568,172.144194 302.996855,171.735161 303.635,171.735161 C304.273145,171.735161 304.839432,172.144194 305.04,172.75 C305.25,173.37 305.46,173.22 309.59,173.22 C310.43,173.22 310.97,173.06 311.32,172.3 C311.472345,171.112681 311.495815,169.912367 311.39,168.72 C311.33624,167.323256 310.187777,166.218966 308.79,166.22 L306.2,166.22 C306.2,166.22 306.63,159.54 299.85,159.43 C291.57,159.29 290.85,162.63 290.66,166.22 C288.34,166.22 284.66,168.05 284.66,171.92 C284.744118,172.715878 285.453277,173.295693 286.25,173.22 C289.4,173.22 290.6,173.38 290.82,172.75 C291.020568,172.144194 291.586855,171.735161 292.225,171.735161 C292.863145,171.735161 293.429432,172.144194 293.63,172.75 C293.89,173.38 293.85,173.22 300.1,173.22 Z M291.83,166.22 C291.95,161.94 293.89,160.44 298.83,160.36 C303.29,160.28 304.95,162.19 304.95,166.22 L291.83,166.22 Z" id="Shape" stroke="none" fill="#ADB3AE" fill-rule="nonzero"></path>
                        <rect id="Rectangle" stroke="none" fill="#B5C2B2" fill-rule="nonzero" transform="translate(299.560000, 163.470000) rotate(180.000000) translate(-299.560000, -163.470000) " x="299.05" y="160.33" width="1.02" height="6.28"></rect>
                        <path d="M300.07,173.220026 L301.54,173.220026 C301.838506,173.222597 302.104832,173.032941 302.2,172.75 C302.400568,172.144194 302.966855,171.735161 303.605,171.735161 C304.243145,171.735161 304.809432,172.144194 305.01,172.75 C305.107759,173.031009 305.372472,173.219517 305.67,173.220026 L307.14,173.220026 C307.040008,171.340658 305.487001,169.868082 303.605,169.868082 C301.722999,169.868082 300.169992,171.340658 300.07,173.220026 L300.07,173.220026 Z" id="Path" stroke="none" fill="#FFFFFF" fill-rule="nonzero" opacity="0.17"></path>
                        <path d="M288.71,173.220026 L290.18,173.220026 C290.478506,173.222597 290.744832,173.032941 290.84,172.75 C291.040568,172.144194 291.606855,171.735161 292.245,171.735161 C292.883145,171.735161 293.449432,172.144194 293.65,172.75 C293.747759,173.031009 294.012472,173.219517 294.31,173.220026 L295.78,173.220026 C295.680008,171.340658 294.127001,169.868082 292.245,169.868082 C290.362999,169.868082 288.809992,171.340658 288.71,173.220026 L288.71,173.220026 Z" id="Path" stroke="none" fill="#FFFFFF" fill-rule="nonzero" opacity="0.17"></path>
                        <path d="M311.42,171 L311.42,171 C311.775074,170.994537 312.060042,170.705116 312.06,170.35 L312.06,169.61 C312.06,169.256538 311.773462,168.97 311.42,168.97 L311.42,168.97 C311.18804,168.97 311,169.15804 311,169.39 L311,170.58 C311,170.81196 311.18804,171 311.42,171 L311.42,171 Z" id="Path" stroke="none" fill="#BC4A36" fill-rule="nonzero"></path>
                        <path d="M284.78,171.1 C284.722072,170.957894 284.757878,170.794778 284.87,170.69 C285.084245,169.743905 285.538888,168.869062 286.19,168.15 C286.212883,167.992776 286.341601,167.872362 286.5,167.86 C287.19139,168.423964 287.388052,169.397819 286.969695,170.185887 C286.551338,170.973956 285.634506,171.356697 284.78,171.1 L284.78,171.1 Z" id="Path" stroke="none" fill="#4D4E4E" fill-rule="nonzero" opacity="0.28" style="mix-blend-mode: multiply;"></path>
                        <path d="M284.87,170.68 C284.778531,169.653982 285.294466,168.669016 286.19,168.16 C286.767688,168.569394 286.962042,169.338009 286.648385,169.97279 C286.334729,170.607571 285.606141,170.920145 284.93,170.71 L284.87,170.68 Z" id="Path" stroke="none" fill="#F6E8D4" fill-rule="nonzero"></path>
                        <path d="M309.28,171.5 L309.94,171.5 C310.015094,171.502837 310.087974,171.474249 310.141111,171.421111 C310.194249,171.367974 310.222837,171.295094 310.22,171.22 L310.22,171.22 C310.22005,171.146625 310.190235,171.076389 310.137417,171.025457 C310.084598,170.974524 310.013325,170.947282 309.94,170.95 L309.28,170.95 C309.206675,170.947282 309.135402,170.974524 309.082583,171.025457 C309.029765,171.076389 308.99995,171.146625 309,171.22 L309,171.22 C308.997163,171.295094 309.025751,171.367974 309.078889,171.421111 C309.132026,171.474249 309.204906,171.502837 309.28,171.5 Z" id="Path" stroke="none" fill="#F6E8D4" fill-rule="nonzero"></path>
                        <path d="M286.86,171.5 L287.52,171.5 C287.595094,171.502837 287.667974,171.474249 287.721111,171.421111 C287.774249,171.367974 287.802837,171.295094 287.8,171.22 L287.8,171.22 C287.80005,171.146625 287.770235,171.076389 287.717417,171.025457 C287.664598,170.974524 287.593325,170.947282 287.52,170.95 L286.86,170.95 C286.786675,170.947282 286.715402,170.974524 286.662583,171.025457 C286.609765,171.076389 286.57995,171.146625 286.58,171.22 L286.58,171.22 C286.577163,171.295094 286.605751,171.367974 286.658889,171.421111 C286.712026,171.474249 286.784906,171.502837 286.86,171.5 Z" id="Path" stroke="none" fill="#F6E8D4" fill-rule="nonzero"></path>
                        <rect id="Rectangle" stroke="none" fill="#4D4E4E" fill-rule="nonzero" opacity="0.22" style="mix-blend-mode: multiply;" transform="translate(297.955000, 167.510000) rotate(-180.000000) translate(-297.955000, -167.510000) " x="297.03" y="167.3" width="1.85" height="1" rx="0.21"></rect>
                        <rect id="Rectangle" stroke="none" fill="#4D4E4E" fill-rule="nonzero" opacity="0.22" style="mix-blend-mode: multiply;" transform="translate(307.295000, 167.510000) rotate(-180.000000) translate(-307.295000, -167.510000) " x="306.37" y="167.3" width="1.85" height="1" rx="0.21"></rect>
                    </g>
                </g>
            </g>
        </g>
    </g>
</svg>