<?xml version="1.0" encoding="UTF-8"?>
<svg width="344px" height="184px" viewBox="0 0 344 184" version="1.1" xmlns="http://www.w3.org/2000/svg" xmlns:xlink="http://www.w3.org/1999/xlink">
    <title>817ABA35-9FD5-41F1-925A-291D9F72DBD6</title>
    <defs>
        <rect id="path-1" x="0" y="0" width="344" height="184"></rect>
        <rect id="path-3" x="190.07" y="-24.1" width="44.25" height="92.45"></rect>
    </defs>
    <g id="Patient---Mobile" stroke="none" stroke-width="1" fill="none" fill-rule="evenodd">
        <g id="home_new_patient" transform="translate(-16.000000, -128.000000)">
            <g id="ill_welcome" transform="translate(16.000000, 128.000000)">
                <mask id="mask-2" fill="white">
                    <use xlink:href="#path-1"></use>
                </mask>
                <use id="Mask" fill="#FFFFFF" xlink:href="#path-1"></use>
                <g id="1-Op-2" mask="url(#mask-2)">
                    <g transform="translate(37.000000, 5.000000)">
                        <polygon id="Path" stroke="none" fill="#B7BADE" fill-rule="nonzero" points="275.74 165.61 286.55 165.61 287.98 149.86 274.31 149.86"></polygon>
                        <path d="M281.15,161.89 C279.123384,161.90641 277.119557,161.461875 275.29,160.59 L274.59,152.89 L287.71,152.89 L287.01,160.59 C285.180101,161.46088 283.176506,161.905364 281.15,161.89 L281.15,161.89 Z" id="Path" stroke="none" fill="#714837" fill-rule="nonzero" opacity="0.34" style="mix-blend-mode: multiply;"></path>
                        <path d="M288.87,152.39 L287.72,159.71 C283.622664,161.949303 278.667336,161.949303 274.57,159.71 L273.42,152.39 L288.87,152.39 Z" id="Path" stroke="none" fill="#B7BADE" fill-rule="nonzero"></path>
                        <circle id="Oval" stroke="none" fill="#ECEDFF" fill-rule="nonzero" cx="281.15" cy="150.96" r="7.85"></circle>
                        <path d="M96.6,64.23 C83.69,67.57 77.75,73.17 77.6493425,80.69 C77.55,88.21 88.89,116.12 88.89,116.12 C88.89,116.12 146.12,99.25 145.89,98.72 C145.66,98.19 142.32,63.36 130.41,60.82 C118.5,58.28 106.2,61.74 96.6,64.23 Z" id="Path" stroke="none" fill="#6C7A78" fill-rule="nonzero"></path>
                        <path d="M144.61,57.14 C139.37,51.34 134.42,44.97 126.07,42.85 C117.72,40.73 109.65,36.76 104.7,43.13 C99.75,49.5 93.7,76.38 97.48,90.13 C101.26,103.88 105.41,108.13 105.41,108.13 L135.27,96.13 L135.97,67.83 L144.61,57.14 Z" id="Path" stroke="none" fill="#134D82" fill-rule="nonzero"></path>
                        <path d="M127.61,101.29 C74.71,101.29 28,98.69 0,94.73 L0,133.49 C0,156.188903 18.4010968,174.59 41.1,174.59 L223.44,174.59 C239.772677,174.578958 253.005525,161.33268 253,145 L253,95 C224.8,98.82 179.15,101.29 127.61,101.29 Z" id="Path" stroke="none" fill="#B7BADE" fill-rule="nonzero"></path>
                        <path d="M127.61,96.32 C74.71,96.32 28,93.73 0,89.76 L0,123.94 C0,149.168367 20.4516326,169.62 45.68,169.62 L220.44,169.62 C229.084222,169.6147 237.372,166.174342 243.47876,160.056329 C249.58552,153.938315 253.010615,145.644217 253.000025,137 L253.000025,90 C224.8,93.86 179.15,96.32 127.61,96.32 Z" id="Path" stroke="none" fill="#ECEDFF" fill-rule="nonzero"></path>
                        <path d="M194.64,6.57 C194.16,6.57 193.77,6.29 193.77,5.94 C193.77,5.59 194.16,5.31 194.64,5.31 L194.71,5.31 C194.992791,4.90802861 195.453521,4.66883543 195.945,4.66883543 C196.436479,4.66883543 196.897209,4.90802861 197.18,5.31 L197.29,5.31 C197.419179,5.30793317 197.547742,5.32823257 197.67,5.37 C197.920146,5.08143446 198.288482,4.9230501 198.67,4.94 C199.29,4.94 199.8,5.31 199.8,5.76 C199.8,6.21 199.29,6.57 198.67,6.57 L194.64,6.57 Z" id="Path" stroke="none" fill="#FFFFFF" fill-rule="nonzero"></path>
                        <path d="M177.87,7.67 C178.47,7.67 178.96,7.32 178.96,6.89 C178.96,6.46 178.47,6.1 177.87,6.1 C177.745066,6.10119235 177.62077,6.1179891 177.5,6.15 C177.196775,5.55004307 176.559896,5.19402323 175.89,5.25 C175.238057,5.20430277 174.617083,5.53419534 174.29,6.1 C174.099299,6.02271392 173.895757,5.98200553 173.69,5.98 C173.05,5.98 172.53,6.36 172.53,6.83 C172.53,7.3 173.05,7.67 173.69,7.67 L177.87,7.67 Z" id="Path" stroke="none" fill="#FFFFFF" fill-rule="nonzero"></path>
                        <path d="M241.07,7.55 C242.07,7.55 242.8,6.98 242.8,6.29 C242.8,5.6 242,5 241.07,5 C240.870674,5.00064727 240.672301,5.02754525 240.48,5.08 C239.989624,4.11709597 238.967208,3.54470102 237.89,3.63 C236.843906,3.55493073 235.847846,4.08797852 235.33,5 C235.014475,4.8636412 234.6737,4.79548615 234.33,4.8 C233.33,4.8 232.46,5.41 232.46,6.16 C232.46,6.91 233.29,7.52 234.33,7.52 L241.07,7.55 Z" id="Path" stroke="none" fill="#FFFFFF" fill-rule="nonzero"></path>
                        <path d="M120.5,29.78 C118.9,32.61 114.89,40.86 114.89,40.86 C114.89,40.86 117,44.69 121,45.53 C125,46.37 127.23,44.87 127.23,44.87 L130.44,33.46 L120.5,29.78 Z" id="Path" stroke="none" fill="#134D82" fill-rule="nonzero"></path>
                        <path d="M136,67.75 L148.71,79.4 C148.71,79.4 148.93,80.04 149.31,81.1 C151.21,79.34 154.98,77.98 160.11,79.35 C159.69473,77.721462 159.194037,76.1159081 158.61,74.54 C156.61,69.44 150.4,63.78 144.61,57.14 C144.61,57.14 139.84,58.46 137.76,60.44 C135.68,62.42 136,67.75 136,67.75 Z" id="Path" stroke="none" fill="#134D82" fill-rule="nonzero"></path>
                        <path d="M100.34,110.58 C102.95,106.58 106.7,105.02 112.34,103.86 L109,98.6 C109,98.6 107.16,79.36 110.4,69.17 C113.64,58.98 105.4,42.7 105.4,42.7 C100.3,47.43 92.94,60.62 92.19,79.12 C91.6026293,90.1956776 94.4488994,101.182629 100.34,110.58 L100.34,110.58 Z" id="Path" stroke="none" fill="#134D82" fill-rule="nonzero"></path>
                        <path d="M228.4,119.00009 L221.34,119.00009 C220.108405,119.00009 219.11,118.001595 219.11,116.77 L219.11,105.17 C219.115381,105.024802 219.234703,104.91 219.38,104.91 L230.38,104.91 C230.448956,104.91 230.515088,104.937393 230.563848,104.986152 C230.612607,105.034912 230.640023,105.101044 230.640023,105.17 L230.640023,116.77 C230.6427,117.363994 230.407244,117.934295 229.986284,118.353375 C229.565324,118.772456 228.993976,119.005357 228.4,119.00009 L228.4,119.00009 Z" id="Path" stroke="none" fill="#EE584B" fill-rule="nonzero"></path>
                        <path d="M231.68,114.79 L230.5,114.79 C228.688506,114.79 227.22,113.321494 227.22,111.51 L227.22,109.77 C227.22,107.958506 228.688506,106.49 230.5,106.49 L231.68,106.49 C233.491494,106.49 234.96,107.958506 234.96,109.77 L234.96,111.51 C234.96,113.321494 233.491494,114.79 231.68,114.79 Z M230.5,107.92 C229.478273,107.92 228.65,108.748273 228.65,109.77 L228.65,111.51 C228.65,112.531727 229.478273,113.36 230.5,113.36 L231.68,113.36 C232.697819,113.354498 233.52,112.527834 233.52,111.51 L233.52,109.77 C233.52,108.752166 232.697819,107.925502 231.68,107.92 L230.5,107.92 Z" id="Shape" stroke="none" fill="#EE584B" fill-rule="nonzero"></path>
                        <rect id="Rectangle" stroke="none" fill="#FFFFFF" fill-rule="nonzero" x="221.59" y="111.98" width="6.69" height="1"></rect>
                        <rect id="Rectangle" stroke="none" fill="#FFFFFF" fill-rule="nonzero" x="221.59" y="113.81" width="6.69" height="1"></rect>
                        <circle id="Oval" stroke="none" fill="#E9DDD5" fill-rule="nonzero" transform="translate(224.872656, 104.601456) rotate(-14.280000) translate(-224.872656, -104.601456) " cx="224.872656" cy="104.601456" r="5.75"></circle>
                        <path d="M229.85,104.6 C229.850775,104.915521 229.820631,105.230358 229.76,105.54 C229.267805,103.232447 227.229461,101.583024 224.87,101.583024 C222.510539,101.583024 220.472195,103.232447 219.98,105.54 C219.919369,105.230358 219.889225,104.915521 219.889985,104.6 C219.889985,101.838576 222.128576,99.6 224.89,99.6 C227.651424,99.6 229.89,101.838576 229.89,104.6 L229.85,104.6 Z" id="Path" stroke="none" fill="#EE584B" fill-rule="nonzero"></path>
                        <path d="M229.76,105.54 C229.267805,107.847553 227.229461,109.496976 224.87,109.496976 C222.510539,109.496976 220.472195,107.847553 219.98,105.54 C220.472195,103.232447 222.510539,101.583024 224.87,101.583024 C227.229461,101.583024 229.267805,103.232447 229.76,105.54 L229.76,105.54 Z" id="Path" stroke="none" fill="#2E2E2E" fill-rule="nonzero"></path>
                        <g id="Group" opacity="0.39" stroke="none" stroke-width="1" fill="none" fill-rule="evenodd" transform="translate(221.000000, 99.000000)">
                            <path d="M0.94,1.92 C1.00870645,2.41257599 1.10891183,2.90024218 1.24,3.38 C1.40429711,3.90915411 1.6185972,4.42146526 1.88,4.91 C2.27909899,5.91064361 1.9499197,7.05454163 1.08,7.69 C0.94,7.77 0.99,7.76 0.99,7.53 C0.996447877,6.78395182 0.835856972,6.04591703 0.52,5.37 C-0.214478545,4.27486308 -0.0357739235,2.80693227 0.94,1.92 L0.94,1.92 Z" id="Path" fill="#FFFFFF" fill-rule="nonzero"></path>
                            <path d="M6.59,7.74 C6.59,5.15 5.47,5.15 5.72,3.42 C5.78493134,2.90656327 6.01683323,2.42870483 6.38,2.06 C6.81,1.65 6.24,2.32 7.43,4.79 C7.93744212,5.84416776 7.57664123,7.11126614 6.59,7.74 L6.59,7.74 Z" id="Path" fill="#FFFFFF" fill-rule="nonzero"></path>
                            <path d="M3.78,5.94 C3.84,3.34 2.66,3.34 2.92,1.62 C2.98048279,1.10525224 3.21305071,0.626021371 3.58,0.26 C4.01,-0.15 3.44,0.52 4.58,2.98 C5.08695482,4.02828242 4.74600045,5.2898136 3.78,5.94 Z" id="Path" fill="#FFFFFF" fill-rule="nonzero"></path>
                        </g>
                        <rect id="Rectangle" stroke="none" fill="#969E97" fill-rule="nonzero" transform="translate(60.716704, 142.749572) rotate(120.000000) translate(-60.716704, -142.749572) " x="47.4817037" y="125.344572" width="26.47" height="34.81" rx="7.36"></rect>
                        <path d="M53.85,125.569998 C54.3619725,125.573288 54.8645853,125.707547 55.31,125.96 L77.94,139 C79.3379578,139.810062 79.8202733,141.596416 79.02,143 L70.13,158.41 C69.5909854,159.311151 68.6200403,159.864894 67.57,159.870076 C67.057106,159.873745 66.5527067,159.739008 66.11,159.48 L43.47,146.47 C42.1028719,145.635977 41.6318653,143.875205 42.4,142.47 L51.29,127 C51.8363737,126.110354 52.8059731,125.568742 53.85,125.569998 L53.85,125.569998 Z M53.85,124.169996 C52.2959292,124.167971 50.858821,124.995166 50.08,126.34 L41.19,141.75 C39.9967063,143.827267 40.7075424,146.478373 42.78,147.68 L65.41,160.74 C66.0647324,161.12408 66.81094,161.32445 67.57,161.320073 C69.1214689,161.322044 70.5571494,160.499479 71.34,159.16 L80.23,143.75 C81.4232937,141.672733 80.7124576,139.021627 78.64,137.82 L56,124.75 C55.3463333,124.372102 54.6050379,124.172125 53.85,124.169996 L53.85,124.169996 Z" id="Shape" stroke="none" fill="#242638" fill-rule="nonzero"></path>
                        <rect id="Rectangle" stroke="none" fill="#B1ADA9" fill-rule="nonzero" transform="translate(155.547406, 127.947139) rotate(0.200000) translate(-155.547406, -127.947139) " x="123.442406" y="106.182139" width="64.21" height="43.53"></rect>
                        <rect id="Rectangle" stroke="none" fill="#6C7A78" fill-rule="nonzero" transform="translate(155.457872, 150.731686) rotate(0.200000) translate(-155.457872, -150.731686) " x="123.352872" y="149.051686" width="64.21" height="3.36"></rect>
                        <rect id="Rectangle" stroke="none" fill="#FFFFFF" fill-rule="nonzero" transform="translate(155.542389, 127.952121) rotate(0.200000) translate(-155.542389, -127.952121) " x="126.912389" y="108.542121" width="57.26" height="38.82"></rect>
                        <rect id="Rectangle" stroke="none" fill="#E2E1DF" fill-rule="nonzero" transform="translate(132.515867, 142.751659) rotate(0.200000) translate(-132.515867, -142.751659) " x="128.630867" y="139.751659" width="7.77" height="6"></rect>
                        <rect id="Rectangle" stroke="none" fill="#F0F0EF" fill-rule="nonzero" transform="translate(141.705707, 142.783738) rotate(0.200000) translate(-141.705707, -142.783738) " x="137.820707" y="139.783738" width="7.77" height="6"></rect>
                        <rect id="Rectangle" stroke="none" fill="#F0F0EF" fill-rule="nonzero" transform="translate(150.895546, 142.805817) rotate(0.200000) translate(-150.895546, -142.805817) " x="147.010546" y="139.805817" width="7.77" height="6"></rect>
                        <rect id="Rectangle" stroke="none" fill="#F0F0EF" fill-rule="nonzero" transform="translate(160.085385, 142.837896) rotate(0.200000) translate(-160.085385, -142.837896) " x="156.200385" y="139.837896" width="7.77" height="6"></rect>
                        <rect id="Rectangle" stroke="none" fill="#F0F0EF" fill-rule="nonzero" transform="translate(169.275190, 142.879975) rotate(0.200000) translate(-169.275190, -142.879975) " x="165.39019" y="139.879975" width="7.77" height="6"></rect>
                        <rect id="Rectangle" stroke="none" fill="#F0F0EF" fill-rule="nonzero" transform="translate(178.465029, 142.912053) rotate(0.200000) translate(-178.465029, -142.912053) " x="174.580029" y="139.912053" width="7.77" height="6"></rect>
                        <rect id="Rectangle" stroke="none" fill="#E2E1DF" fill-rule="nonzero" transform="translate(132.541838, 135.311809) rotate(0.200000) translate(-132.541838, -135.311809) " x="128.656838" y="132.311809" width="7.77" height="6"></rect>
                        <rect id="Rectangle" stroke="none" fill="#F0F0EF" fill-rule="nonzero" transform="translate(141.731677, 135.343888) rotate(0.200000) translate(-141.731677, -135.343888) " x="137.846677" y="132.343888" width="7.77" height="6"></rect>
                        <rect id="Rectangle" stroke="none" fill="#F0F0EF" fill-rule="nonzero" transform="translate(150.921516, 135.365967) rotate(0.200000) translate(-150.921516, -135.365967) " x="147.036516" y="132.365967" width="7.77" height="6"></rect>
                        <rect id="Rectangle" stroke="none" fill="#F0F0EF" fill-rule="nonzero" transform="translate(160.111321, 135.408046) rotate(0.200000) translate(-160.111321, -135.408046) " x="156.226321" y="132.408046" width="7.77" height="6"></rect>
                        <rect id="Rectangle" stroke="none" fill="#F0F0EF" fill-rule="nonzero" transform="translate(169.301160, 135.440125) rotate(0.200000) translate(-169.301160, -135.440125) " x="165.41616" y="132.440125" width="7.77" height="6"></rect>
                        <rect id="Rectangle" stroke="none" fill="#F0F0EF" fill-rule="nonzero" transform="translate(178.480999, 135.472169) rotate(0.200000) translate(-178.480999, -135.472169) " x="174.595999" y="132.472169" width="7.77" height="6"></rect>
                        <rect id="Rectangle" stroke="none" fill="#E2E1DF" fill-rule="nonzero" transform="translate(132.577808, 127.871959) rotate(0.200000) translate(-132.577808, -127.871959) " x="128.692808" y="124.871959" width="7.77" height="6"></rect>
                        <rect id="Rectangle" stroke="none" fill="#F0F0EF" fill-rule="nonzero" transform="translate(141.767647, 127.904038) rotate(0.200000) translate(-141.767647, -127.904038) " x="137.882647" y="124.904038" width="7.77" height="6"></rect>
                        <rect id="Rectangle" stroke="none" fill="#F0F0EF" fill-rule="nonzero" transform="translate(150.947452, 127.936082) rotate(0.200000) translate(-150.947452, -127.936082) " x="147.062452" y="124.936082" width="7.77" height="6"></rect>
                        <rect id="Rectangle" stroke="none" fill="#F0F0EF" fill-rule="nonzero" transform="translate(160.137291, 127.968161) rotate(0.200000) translate(-160.137291, -127.968161) " x="156.252291" y="124.968161" width="7.77" height="6"></rect>
                        <rect id="Rectangle" stroke="none" fill="#F0F0EF" fill-rule="nonzero" transform="translate(169.327130, 128.000240) rotate(0.200000) translate(-169.327130, -128.000240) " x="165.44213" y="125.00024" width="7.77" height="6"></rect>
                        <rect id="Rectangle" stroke="none" fill="#F0F0EF" fill-rule="nonzero" transform="translate(178.516935, 128.042319) rotate(0.200000) translate(-178.516935, -128.042319) " x="174.631935" y="125.042319" width="7.77" height="6"></rect>
                        <rect id="Rectangle" stroke="none" fill="#E2E1DF" fill-rule="nonzero" transform="translate(132.593778, 120.432074) rotate(0.200000) translate(-132.593778, -120.432074) " x="128.708778" y="117.432074" width="7.77" height="6"></rect>
                        <rect id="Rectangle" stroke="none" fill="#F0F0EF" fill-rule="nonzero" transform="translate(141.783583, 120.474153) rotate(0.200000) translate(-141.783583, -120.474153) " x="137.898583" y="117.474153" width="7.77" height="6"></rect>
                        <rect id="Rectangle" stroke="none" fill="#F0F0EF" fill-rule="nonzero" transform="translate(150.973422, 120.496232) rotate(0.200000) translate(-150.973422, -120.496232) " x="147.088422" y="117.496232" width="7.77" height="6"></rect>
                        <rect id="Rectangle" stroke="none" fill="#F0F0EF" fill-rule="nonzero" transform="translate(160.163261, 120.528311) rotate(0.200000) translate(-160.163261, -120.528311) " x="156.278261" y="117.528311" width="7.77" height="6"></rect>
                        <rect id="Rectangle" stroke="none" fill="#F0F0EF" fill-rule="nonzero" transform="translate(169.353066, 120.570390) rotate(0.200000) translate(-169.353066, -120.570390) " x="165.468066" y="117.57039" width="7.77" height="6"></rect>
                        <rect id="Rectangle" stroke="none" fill="#F0F0EF" fill-rule="nonzero" transform="translate(178.542905, 120.602469) rotate(0.200000) translate(-178.542905, -120.602469) " x="174.657905" y="117.602469" width="7.77" height="6"></rect>
                        <rect id="Rectangle" stroke="none" fill="#E2E1DF" fill-rule="nonzero" transform="translate(132.619714, 113.002224) rotate(0.200000) translate(-132.619714, -113.002224) " x="128.734714" y="110.002224" width="7.77" height="6"></rect>
                        <rect id="Rectangle" stroke="none" fill="#F0F0EF" fill-rule="nonzero" transform="translate(141.809553, 113.034303) rotate(0.200000) translate(-141.809553, -113.034303) " x="137.924553" y="110.034303" width="7.77" height="6"></rect>
                        <rect id="Rectangle" stroke="none" fill="#F0F0EF" fill-rule="nonzero" transform="translate(150.999392, 113.056382) rotate(0.200000) translate(-150.999392, -113.056382) " x="147.114392" y="110.056382" width="7.77" height="6"></rect>
                        <rect id="Rectangle" stroke="none" fill="#F0F0EF" fill-rule="nonzero" transform="translate(160.189197, 113.098461) rotate(0.200000) translate(-160.189197, -113.098461) " x="156.304197" y="110.098461" width="7.77" height="6"></rect>
                        <rect id="Rectangle" stroke="none" fill="#F0F0EF" fill-rule="nonzero" transform="translate(169.369036, 113.130505) rotate(0.200000) translate(-169.369036, -113.130505) " x="165.484036" y="110.130505" width="7.77" height="6"></rect>
                        <rect id="Rectangle" stroke="none" fill="#F0F0EF" fill-rule="nonzero" transform="translate(178.558875, 113.162584) rotate(0.200000) translate(-178.558875, -113.162584) " x="174.673875" y="110.162584" width="7.77" height="6"></rect>
                        <path d="M149.31,81.1 C150.89,85.64 155.22,97.98 156.44,101.2 C157.96,105.2 161.44,107.99 161.73,109.02 C162.02,110.05 162.73,109.59 162.73,109.59 L162.34,110.91 C163.058162,111.628999 164.134681,111.852946 165.08,111.48 C166.87,110.91 168.57,108.93 168.48,105.72 C168.39,102.51 163.67,100.44 163.67,100.44 C163.67,95.75 161.82,85.94 160.07,79.35 C155,78 151.21,79.34 149.31,81.1 Z" id="Path" stroke="none" fill="#F5CFC0" fill-rule="nonzero"></path>
                        <path d="M162.44,111.43 C162.657758,111.431567 162.856678,111.306754 162.95,111.11 L170,96.48 C170.128831,96.1981697 170.008906,95.8650449 169.73,95.73 C169.597405,95.6689002 169.445958,95.6630256 169.309029,95.7136707 C169.1721,95.7643158 169.060924,95.8673246 169,96 L161.93,110.63 C161.793127,110.91174 161.909236,111.251136 162.19,111.39 C162.268878,111.423334 162.354659,111.437059 162.44,111.43 L162.44,111.43 Z" id="Path" stroke="none" fill="#EF5123" fill-rule="nonzero"></path>
                        <path d="M100.14,110.6 C101.577151,112.867155 103.178082,115.02624 104.93,117.06 C108.736443,121.431694 112.80033,125.572384 117.1,129.46 C117.1,129.46 122.19,135.12 123.47,136.4 C124.75,137.68 126.01,144.47 127,143.76 C127.99,143.05 126.57,136.82 126.57,136.82 C126.57,136.82 129.7,142.06 131.25,141.91 C132.8,141.76 131.41,139.64 131.25,139.4 C131.57,139.6 134.35,141.46 134.62,140.93 C134.89,140.4 132.98,137.29 132.8,136.99 C133.07,137.24 135.8,139.59 135.9,138.52 C136,137.45 129.79,130.52 129.41,130.05 C129.74,130.26 133.41,132.65 135.19,131.31 C136.97,129.97 136.04,130.03 136.04,130.03 C133.747218,129.272792 131.559757,128.227784 129.53,126.92 C127.27,125.23 124.72,123.66 124.72,123.66 L112.09,103.88 C106.5,105 102.75,106.63 100.14,110.6 Z" id="Path" stroke="none" fill="#F5CFC0" fill-rule="nonzero"></path>
                        <ellipse id="Oval" stroke="none" fill="#917F5B" fill-rule="nonzero" cx="281.15" cy="150.51" rx="6.08" ry="6.92"></ellipse>
                        <path d="M290,46.49 C292.86,50.22 293.91,56.06 293.31,60.73 C292.83,64.33 290.24,67.56 289.14,70.23 C284.14,81.72 299.31,83.65 290.06,93.97 C282.91,101.52 293.43,103.97 293.5,112.97 C293.4,129.97 271.23,129.97 271.14,112.97 C271.2,104.05 281.72,101.52 274.58,93.97 C265.31,83.64 280.47,81.73 275.5,70.23 C274.39,67.57 271.81,64.32 271.32,60.73 C269.3,45 282.88,37.31 290,46.49 Z" id="Path" stroke="none" fill="#37B99A" fill-rule="nonzero"></path>
                        <path d="M282.2,54.62 C281.82,59.43 283.63,69.15 283.79,74.52 C284,78.37 283.05,82.06 283.5,91.34 C284.21,105.34 285.1,89.82 284.86,122.19 C284.73,129.43 285.52,145.39 285.91,152.62 C284.25,153.62 278.69,154.51 276.7,152.71 C278.26,111.36 280.43,114.71 280.09,100.71 C279.25,82.86 281.63,80.61 281.77,73.02 C281.88,67.22 281.05,54.45 282.2,54.62 Z" id="Path" stroke="none" fill="#A2BEA4" fill-rule="nonzero"></path>
                        <path d="M133.11,29.41 C137.11,29.81 136.58,23.34 136.87,20.63 C137.16,17.92 138.61,16.3 135.32,11.57 C131.25,5.74 128.01,9.19 123.64,9.05 C119.27,8.91 116.36,13.05 116.47,17.48 C116.58,21.91 112.26,26.65 118.47,32.28 C125.73,38.9 133.11,29.41 133.11,29.41 Z" id="Path" stroke="none" fill="#242638" fill-rule="nonzero"></path>
                        <circle id="Oval" stroke="none" fill="#F5CFC0" fill-rule="nonzero" transform="translate(118.115520, 26.196951) rotate(-37.140000) translate(-118.115520, -26.196951) " cx="118.11552" cy="26.1969506" r="4.45"></circle>
                        <path d="M120.44,26.53 C120.313148,27.4734567 119.629652,28.2471872 118.709053,28.4894658 C117.788454,28.7317443 116.812631,28.3947046 116.237791,27.6359156 C115.662951,26.8771267 115.602663,25.8465004 116.085112,25.0258635 C116.567561,24.2052267 117.497431,23.7567105 118.44,23.89 C119.718885,24.0708483 120.612114,25.2499104 120.44,26.53 L120.44,26.53 Z" id="Path" stroke="none" fill="#F19D9D" fill-rule="nonzero"></path>
                        <circle id="Oval" stroke="none" fill="#F5CFC0" fill-rule="nonzero" transform="translate(133.012519, 28.247851) rotate(-66.470000) translate(-133.012519, -28.247851) " cx="133.012519" cy="28.2478512" r="4.45"></circle>
                        <path d="M135.33,28.57 C135.152412,29.8495699 133.971504,30.7431563 132.691835,30.566285 C131.412166,30.3894138 130.517919,29.2090068 130.694073,27.9292389 C130.870228,26.6494709 132.050134,25.7545622 133.33,25.93 C133.945532,26.0143741 134.502242,26.3400706 134.877412,26.8352942 C135.252581,27.3305179 135.415408,27.9546107 135.33,28.57 Z" id="Path" stroke="none" fill="#F19D9D" fill-rule="nonzero"></path>
                        <path d="M134,28.34 C133.14,34.55 130.93,39.34 125,38.48 C118.8,37.54 116.62,32.26 117.48,26.05 C118.34,19.84 119.8,12.22 128.22,13.52 C136.27,14.77 134.89,22.12 134,28.34 Z" id="Path" stroke="none" fill="#F5CFC0" fill-rule="nonzero"></path>
                        <circle id="Oval" stroke="none" fill="#000000" fill-rule="nonzero" transform="translate(122.386803, 24.160811) rotate(-55.490000) translate(-122.386803, -24.160811) " cx="122.386803" cy="24.1608114" r="1"></circle>
                        <path d="M131.46,25.55 C131.408864,25.8495577 131.131712,26.0563217 130.83,26.02 C130.685441,26.0001431 130.554698,25.9236557 130.466549,25.8073743 C130.3784,25.6910929 130.340071,25.544549 130.36,25.4 C130.37725,25.2542507 130.453082,25.121801 130.570041,25.0331386 C130.687,24.9444762 130.835009,24.9072396 130.98,24.93 C131.12638,24.9474265 131.259637,25.0228849 131.34988,25.1394481 C131.440122,25.2560114 131.479795,25.4039218 131.46,25.55 L131.46,25.55 Z" id="Path" stroke="none" fill="#000000" fill-rule="nonzero"></path>
                        <path d="M120.15,21.24 C123.15,19.83 125.6,22.03 125.09,22.37 C124.74,22.61 124.68,21.51 120.88,21.56 L120.23,21.56 C120.164401,21.5415188 120.113725,21.4893187 120.097196,21.423201 C120.080667,21.3570833 120.100816,21.287177 120.15,21.24 L120.15,21.24 Z" id="Path" stroke="none" fill="#21312A" fill-rule="nonzero"></path>
                        <path d="M128.7,22.49 C131.7,21.08 134.14,23.28 133.63,23.62 C133.29,23.86 133.22,22.76 129.42,22.81 L128.78,22.81 C128.714401,22.7915188 128.663725,22.7393187 128.647196,22.673201 C128.630667,22.6070833 128.650816,22.537177 128.7,22.49 Z" id="Path" stroke="none" fill="#21312A" fill-rule="nonzero"></path>
                        <path d="M123.39,31.41 C123.27,32.28 124.15,33.12 125.39,33.29 C126.63,33.46 127.68,32.9 127.8,32.03 C127.92,31.16 126.8,31.67 125.62,31.5 C124.44,31.33 123.51,30.55 123.39,31.41 Z" id="Path" stroke="none" fill="#FFFFFF" fill-rule="nonzero"></path>
                        <path d="M118.27,21.6 C117.970895,22.9177655 117.760423,24.254092 117.64,25.6 L116.54,25.18 L116.85,21.59 L118.27,21.6 Z M134.67,23.6 C134.542707,25.0685654 134.325634,26.5279614 134.02,27.97 L135.48,27.37 L136,24 L134.67,23.6 Z M121,15.15 C125.53,18.79 125.62,19.04 128.19,19.15 C130.76,19.26 134.48,16.44 134.48,16.44 C134.48,16.44 132.26,12.44 128.48,12.22 C124.7,12 121,15.15 121,15.15 Z" id="Shape" stroke="none" fill="#242638" fill-rule="nonzero"></path>
                        <path d="M126.51,24.62 L128,28.62 C128.086472,28.843423 128.048994,29.0958645 127.901343,29.2845294 C127.753692,29.4731942 127.517656,29.5702424 127.28,29.54 L125,29.34" id="Path" stroke="#F19D9D" stroke-width="0.31" fill="none"></path>
                        <path d="M72.05,21.75 C71.6329434,19.9735727 70.6024488,18.4012716 69.14,17.31 C66.86,15.82 64.91,14.51 65.45,13.58 C65.99,12.65 68.28,13.58 69.61,14.82 C70.7562748,16.1408334 71.6266918,17.6776634 72.17,19.34 C72.17,19.34 69,10.7 70,10.18 C71,9.66 71.9,12.87 72.4,14.7 C72.9,16.53 73.4,19.09 73.4,19.09 C73.4,19.09 73.15,9.76 74.56,9.6 C75.97,9.44 75.05,18.85 75.05,18.85 C75.05,18.85 76.67,11.63 78.5,11.85 C80.33,12.07 75.86,20 75.86,20 C75.86,20 78.86,15.3 80.13,15.76 C81.4,16.22 79.55,17.58 78.35,18.91 C77.5528019,19.8087297 76.8050327,20.7501177 76.11,21.73 L72.05,21.75 Z" id="Path" stroke="none" fill="#37B99A" fill-rule="nonzero"></path>
                        <path d="M71,21.74 C70.4264438,20.4779233 69.7190576,19.2810661 68.89,18.17 C67.77,16.8 67.81,15.89 68.39,15.73 C68.97,15.57 70.3,16.87 71,18.9 C71.3679956,19.8244237 71.6459498,20.7821936 71.83,21.76 L71,21.74 Z" id="Path" stroke="none" fill="#37B99A" fill-rule="nonzero"></path>
                        <path d="M72.05,21.76 C72.05,21.76 69.61,14.54 70.05,13.36 C70.49,12.18 71.46,12.47 71.72,13.26 C71.98,14.05 72.72,21.76 72.72,21.76 L72.05,21.76 Z" id="Path" stroke="none" fill="#37B99A" fill-rule="nonzero"></path>
                        <path d="M73.16,21.72 C73.16,21.72 72.4,17.34 73.16,14.5 C73.92,11.66 74.94,11.12 75.57,11.27 C76.2,11.42 75.12,14.73 74.83,15.93 C74.54,17.13 74.03,21.78 73.96,21.7600643 C73.89,21.74 73.16,21.72 73.16,21.72 Z" id="Path" stroke="none" fill="#37B99A" fill-rule="nonzero"></path>
                        <path d="M74.21,21.76 C74.21,21.76 74.81,17.71 76.33,15.62 C77.45,14.09 78.67,14.15 78.95,14.88 C79.23,15.61 77.08,17.58 76.33,18.7 C75.7948117,19.6451739 75.3783299,20.6527913 75.09,21.7 L74.21,21.76 Z" id="Path" stroke="none" fill="#37B99A" fill-rule="nonzero"></path>
                        <path d="M75.72,21.64 C75.72,21.64 76.58,17.73 77.72,17.49 C79.37,17.15 76.67,21.76 76.67,21.76 L75.72,21.64 Z" id="Path" stroke="none" fill="#37B99A" fill-rule="nonzero"></path>
                        <polygon id="Path" stroke="none" fill="#485CA8" fill-rule="nonzero" points="77.94 36.79 69.91 36.79 67.95 21.64 79.9 21.64"></polygon>
                        <path d="M69.13,30.71 L69.07,30.24 L78.79,30.24 L78.73,30.71 L69.13,30.71 Z M68.87,28.71 L68.93,29.19 L78.93,29.19 L78.99,28.71 L68.87,28.71 Z M68.68,27.22 L68.74,27.7 L79.11,27.7 L79.17,27.22 L68.68,27.22 Z" id="Shape" stroke="none" fill="#485CA8" fill-rule="nonzero" opacity="0.1" style="mix-blend-mode: multiply;"></path>
                        <rect id="Rectangle" stroke="none" fill="#485CA8" fill-rule="nonzero" x="48.17" y="6.32" width="5.03" height="30.16"></rect>
                        <rect id="Rectangle" stroke="none" fill="#B7BADE" fill-rule="nonzero" x="48.17" y="11.34" width="5.03" height="20.11"></rect>
                        <rect id="Rectangle" stroke="none" fill="#F2F2F2" fill-rule="nonzero" x="50.06" y="13.86" width="1.26" height="15.08"></rect>
                        <rect id="Rectangle" stroke="none" fill="#6C7A78" fill-rule="nonzero" x="28.07" y="6.32" width="5.03" height="30.16"></rect>
                        <rect id="Rectangle" stroke="none" fill="#82A575" fill-rule="nonzero" x="28.07" y="11.34" width="5.03" height="20.11"></rect>
                        <rect id="Rectangle" stroke="none" fill="#B7BADE" fill-rule="nonzero" x="33.1" y="6.32" width="5.03" height="30.16"></rect>
                        <rect id="Rectangle" stroke="none" fill="#6C7A78" fill-rule="nonzero" x="15.5" y="6.32" width="7.54" height="30.16"></rect>
                        <rect id="Rectangle" stroke="none" fill="#FFFEF2" fill-rule="nonzero" x="15.5" y="13.86" width="7.54" height="15.08"></rect>
                        <rect id="Rectangle" stroke="none" fill="#B7BADE" fill-rule="nonzero" x="25.56" y="8.83" width="2.51" height="27.64"></rect>
                        <rect id="Rectangle" stroke="none" fill="#FFFEF2" fill-rule="nonzero" x="25.56" y="11.34" width="2.51" height="22.62"></rect>
                        <rect id="Rectangle" stroke="none" fill="#FFFEF2" fill-rule="nonzero" x="33.1" y="8.83" width="5.03" height="2.51"></rect>
                        <rect id="Rectangle" stroke="none" fill="#FFFEF2" fill-rule="nonzero" x="33.1" y="31.45" width="5.03" height="2.51"></rect>
                        <rect id="Rectangle" stroke="none" fill="#FFFEF2" fill-rule="nonzero" x="33.1" y="18.88" width="5.03" height="5.03"></rect>
                        <rect id="Rectangle" stroke="none" fill="#485CA8" fill-rule="nonzero" x="38.12" y="13.86" width="2.51" height="22.62"></rect>
                        <rect id="Rectangle" stroke="none" fill="#485CA8" fill-rule="nonzero" x="23.04" y="13.86" width="2.51" height="22.62"></rect>
                        <polygon id="Path" stroke="none" fill="#485CA8" fill-rule="nonzero" points="19.27 16.37 16.76 21.4 19.27 26.42 21.79 21.4"></polygon>
                        <circle id="Oval" stroke="none" fill="#FFFFFF" fill-rule="nonzero" cx="30.58" cy="13.86" r="1.26"></circle>
                        <rect id="Rectangle" stroke="none" fill="#FFFEF2" fill-rule="nonzero" x="40.64" y="11.34" width="7.54" height="25.13"></rect>
                        <rect id="Rectangle" stroke="none" fill="#82A575" fill-rule="nonzero" x="40.64" y="16.37" width="7.54" height="15.08"></rect>
                        <ellipse id="Oval" stroke="none" fill="#B7BADE" fill-rule="nonzero" cx="44.4" cy="23.91" rx="2.51" ry="5.03"></ellipse>
                        <rect id="Rectangle" stroke="none" fill="#B7BADE" fill-rule="nonzero" x="10.48" y="16.37" width="5.03" height="20.11"></rect>
                        <rect id="Rectangle" stroke="none" fill="#D7E4D4" fill-rule="nonzero" x="6.21" y="36.58" width="74.25" height="6.43"></rect>
                        <mask id="mask-4" fill="white">
                            <use xlink:href="#path-3"></use>
                        </mask>
                        <use id="Rectangle" stroke="none" fill="#E3F4FC" fill-rule="nonzero" transform="translate(212.195000, 22.125000) rotate(90.000000) translate(-212.195000, -22.125000) " xlink:href="#path-3"></use>
                        <rect id="Rectangle" stroke="none" fill="#C5E8EF" fill-rule="nonzero" mask="url(#mask-4)" x="167.52" y="0.97" width="89.35" height="42.31"></rect>
                        <g id="Group" stroke="none" stroke-width="1" fill="none" fill-rule="evenodd" mask="url(#mask-4)">
                            <g transform="translate(165.000000, 6.000000)">
                                <g id="Group" opacity="0.17" stroke-width="1" fill="none" fill-rule="evenodd" transform="translate(13.000000, 0.000000)">
                                    <path d="M30,32.12 C30.338026,31.2926236 30.2638257,30.3539889 29.8,29.59 C29.4548308,29.0133574 29.554434,28.2746334 30.04,27.81 C30.4624704,27.4023142 30.8020474,26.9167192 31.04,26.38 C31.6089292,24.9349972 31.3191627,23.2929866 30.29,22.13 C29.7628205,21.5459856 29.6931202,20.6808817 30.12,20.02 C30.2222847,19.8654448 30.309358,19.7013452 30.38,19.53 C30.8409062,18.2081417 30.3263195,16.7432294 29.14,16 C28.8007694,15.8042935 28.5650376,15.4690228 28.4956582,15.0835815 C28.4262787,14.6981403 28.5303049,14.3017131 28.78,14 C29.0202724,13.7292717 29.2160422,13.4221156 29.36,13.09 C30.2,11.09 28.74,8.79 26.11,8.03 L26.11,8.03 C25.72,7.92 25.51,7.59 25.64,7.29 L25.64,7.29 C26.71,4.69 24.8,1.79 21.39,0.87 C18.18,0.01 14.63,1.36 13.62,3.81 C13.3786952,4.37757618 13.2791639,4.99535667 13.33,5.61 C13.3367183,7.06231546 12.2356127,8.28046772 10.79,8.42 C8.18190431,8.81703507 5.93722385,10.4743575 4.79,12.85 C4.20944389,14.2418887 4.20944389,15.8081113 4.79,17.2 C5.28101582,18.4701297 4.65606334,19.8985925 3.39,20.4 C2.13100576,20.9899993 1.12895807,22.0169205 0.57,23.29 C-0.33,25.5 0.57,27.89 2.71,29.45 C3.0835164,29.6833478 3.24214064,30.1466976 3.09,30.56 L3.09,30.56 C2.62,31.7 3.44,32.98 4.93,33.41 L4.93,33.41 C5.1,33.41 5.2,33.6 5.14,33.73 L5.14,33.73 C4.48,35.34 5.64,37.13 7.73,37.73 C8.03949392,37.8212503 8.35806773,37.8782582 8.68,37.9 C9.37082031,37.9524994 9.9984709,38.3217056 10.38,38.9 C11.6127565,40.735602 13.4840021,42.047256 15.63,42.58 C20.06,43.82 24.99,42 26.42,38.58 C26.709803,37.8938729 26.8528671,37.1547084 26.84,36.41 C26.8515967,35.3111891 27.4770454,34.3112434 28.46,33.82 C29.1482656,33.4405677 29.6902253,32.8423006 30,32.12 Z" id="Path" fill="#37B99A" fill-rule="nonzero"></path>
                                    <path d="M28,31.15 C28.2350298,30.3838873 28.0901225,29.5515996 27.61,28.91 C27.2398307,28.4398827 27.2652431,27.7706897 27.67,27.33 C28.0104925,26.9479593 28.2661133,26.4980667 28.42,26.01 C28.8140992,24.6806294 28.4275291,23.2425888 27.42,22.29 C26.887905,21.824513 26.7469899,21.0536245 27.08,20.43 C27.1627174,20.2876605 27.2297751,20.1367807 27.28,19.98 C27.5808401,18.7424603 26.9990653,17.4592547 25.87,16.87 C25.5564936,16.7276795 25.3207829,16.4555326 25.2246746,16.1249202 C25.1285664,15.7943078 25.1816477,15.4382096 25.37,15.15 C25.5637966,14.8957641 25.7157128,14.6121874 25.82,14.31 C26.4,12.48 24.88,10.54 22.42,9.99 L22.42,9.99 C22.06,9.91 21.84,9.62 21.93,9.35 L21.93,9.35 C22.68,7 20.69,4.53 17.5,3.87 C14.5,3.26 11.4,4.62 10.69,6.87 C10.5198289,7.38568766 10.4820034,7.93587581 10.58,8.47 C10.6592551,9.72889734 9.75045981,10.834307 8.5,11 C6.1900863,11.428168 4.26315448,13.015053 3.4,15.2 C3.00821959,16.4880457 3.15242824,17.8796592 3.8,19.06 C4.0656047,19.5733904 4.10896361,20.1732652 3.91994969,20.7195155 C3.73093576,21.2657657 3.32610098,21.7105562 2.8,21.95 C1.71304232,22.5194123 0.883556946,23.4811863 0.48,24.64 C-0.16,26.64 0.9,28.71 2.95,29.99 C3.32629895,30.1662071 3.51431737,30.5935217 3.39,30.99 L3.39,30.99 C3.06,31.99 3.92,33.12 5.31,33.42 L5.31,33.42 C5.47,33.42 5.57,33.58 5.53,33.69 L5.53,33.69 C5.06,35.14 6.27,36.69 8.22,37.12 C8.51321383,37.1806137 8.81085185,37.2174004 9.11,37.23 C9.7402081,37.234131 10.3365539,37.5158404 10.74,38 C12.030845,39.5677322 13.8332063,40.6300276 15.83,41 C19.98,41.89 24.3,40.05 25.31,37 C25.5138707,36.371469 25.5820389,35.7068294 25.51,35.05 C25.4273209,34.0835251 25.9156986,33.1575611 26.76,32.68 C27.3408535,32.3322165 27.7800619,31.7902901 28,31.15 L28,31.15 Z" id="Path" fill="#F0B41C" fill-rule="nonzero" style="mix-blend-mode: multiply;"></path>
                                </g>
                                <path d="M71.51,32.09 C72.1935456,32.4249187 72.6277165,33.1188168 72.63,33.88 C72.6220096,34.3956614 72.7242929,34.9070781 72.93,35.38 C73.93,37.73 77.32,38.99 80.38,38.14 C81.8610184,37.7680632 83.1511033,36.8593017 84,35.59 C84.2725229,35.2005354 84.7059074,34.9544612 85.18,34.92 C85.4005651,34.9051668 85.6186779,34.8648998 85.83,34.8 C87.28,34.39 88.08,33.14 87.62,32.03 L87.62,32.03 C87.62,31.94 87.62,31.84 87.77,31.81 L87.77,31.81 C88.2224879,31.7484619 88.6248148,31.4905238 88.8696064,31.1050251 C89.1143981,30.7195264 89.1767422,30.2456992 89.04,29.81 L89.04,29.81 C88.9273991,29.5242698 89.037236,29.1989836 89.3,29.04 C90.7343923,28.1452169 91.3473236,26.3689668 90.77,24.78 C90.3691481,23.8920126 89.6579874,23.1808519 88.77,22.78 C87.8855207,22.4438038 87.4386972,21.4563239 87.77,20.57 C88.1677906,19.6095593 88.1677906,18.5304407 87.77,17.57 C86.9781692,15.9219336 85.4190971,14.7751162 83.61,14.51 C82.6856414,14.3263449 82.0149169,13.5223086 82,12.58 C82.0400661,12.1573177 81.9747882,11.7312933 81.81,11.34 C81.11,9.64 78.65,8.71 76.44,9.34 C74.23,9.97 72.76,11.97 73.5,13.77 L73.5,13.77 C73.59,13.98 73.5,14.21 73.18,14.29 L73.18,14.29 C71.36,14.81 70.36,16.37 70.93,17.78 C71.033184,18.0076896 71.1678322,18.2197605 71.33,18.41 C71.4938171,18.6161024 71.5603439,18.8830521 71.5124042,19.1419267 C71.4644645,19.4008013 71.3067572,19.6262261 71.08,19.76 C70.2564187,20.2900717 69.9113995,21.3209723 70.25,22.24 C70.3000029,22.3583501 70.360231,22.4721143 70.43,22.58 C70.7226114,23.0383427 70.6735229,23.6355861 70.31,24.04 C69.6000628,24.8414568 69.3992087,25.9731921 69.79,26.97 C69.9434807,27.3451748 70.1714011,27.6853544 70.46,27.97 C70.791879,28.2934052 70.8580964,28.8024516 70.62,29.2 C70.3061781,29.734794 70.2581588,30.3849013 70.49,30.96 C70.7001986,31.4361898 71.0577493,31.8322997 71.51,32.09 L71.51,32.09 Z" id="Path" fill="#37B99A" fill-rule="nonzero" opacity="0.14"></path>
                                <path d="M72.68,31.33 C73.2654523,31.6597941 73.6052454,32.3003236 73.55,32.97 C73.4993299,33.4208443 73.5436132,33.877303 73.68,34.31 C74.38,36.44 77.37,37.71 80.24,37.1 C81.6217133,36.8376031 82.8655017,36.0934562 83.75,35 C84.0309589,34.6664844 84.4439234,34.4727931 84.88,34.47 C85.0854359,34.4630488 85.289719,34.4362576 85.49,34.39 C86.84,34.09 87.68,33.03 87.36,32.02 L87.36,32.02 C87.36,31.94 87.36,31.85 87.51,31.83 L87.51,31.83 C88.51,31.62 89.06,30.83 88.84,30.15 L88.84,30.15 C88.7695149,29.8812437 88.8995257,29.6002527 89.15,29.48 C90.5145371,28.7925643 91.2236857,27.254002 90.86,25.77 C90.5786345,24.9682587 90.003128,24.3033878 89.25,23.91 C88.8862333,23.7439587 88.6064888,23.4359846 88.4760767,23.0579785 C88.3456646,22.6799725 88.3759998,22.2650208 88.56,21.91 C89.0144865,21.0957245 89.1156722,20.1308464 88.84,19.24 C88.2438848,17.7280196 86.9089291,16.6313138 85.31,16.34 C84.4277735,16.2205384 83.796865,15.4263878 83.88,14.54 C83.9516737,14.1700826 83.9275773,13.7879826 83.81,13.43 C83.32,11.89 81.16,10.95 79.1,11.38 C76.89,11.83 75.52,13.54 76.04,15.17 L76.04,15.17 C76.11,15.35 75.95,15.55 75.7,15.61 L75.7,15.61 C74,15.99 72.94,17.32 73.35,18.61 C73.4206214,18.8191145 73.5253705,19.0150968 73.66,19.19 C73.7894447,19.3889545 73.8263293,19.634238 73.7611221,19.8624634 C73.6959148,20.0906888 73.5350139,20.2794622 73.32,20.38 C72.5283107,20.7779493 72.1142708,21.6681352 72.32,22.53 C72.3563702,22.6376813 72.4032634,22.7415164 72.46,22.84 C72.6839771,23.274352 72.585203,23.8052628 72.22,24.13 C71.5109123,24.7801108 71.2318753,25.7761176 71.5,26.7 C71.6112669,27.0348178 71.7880309,27.3441549 72.02,27.61 C72.2836207,27.9255151 72.2836207,28.3844849 72.02,28.7 C71.6926952,29.1460718 71.5928023,29.719531 71.75,30.25 C71.9168584,30.711989 72.2478946,31.0964181 72.68,31.33 L72.68,31.33 Z" id="Path" fill="#C4E7EE" fill-rule="nonzero" style="mix-blend-mode: multiply;"></path>
                                <g id="Group" opacity="0.17" stroke-width="1" fill="none" fill-rule="evenodd" transform="translate(0.000000, 24.000000)">
                                    <path d="M29.33,14.07 C31.0117209,13.2695549 32.1261238,11.6190132 32.24,9.76 C32.24,6.76 28.87,4.28 24.7,4.28 C24.2349713,4.28271989 23.7706291,4.31612581 23.31,4.38 C22.41,2 19.42,0.26 15.87,0.26 C11.6,0.26 8.15,2.76 8.15,5.85 C8.15044813,6.37361845 8.24880508,6.89253617 8.44,7.38 C7.91651144,7.27477332 7.38395836,7.22118307 6.85,7.22 C3.53,7.22 0.85,9.22 0.85,11.59 C0.865970198,12.5253589 1.25050074,13.4166073 1.92,14.07 L29.33,14.07 Z" id="Path" fill="#ED8B4C" fill-rule="nonzero"></path>
                                    <path d="M5.62,14.07 C4.22847641,13.4053607 3.30615662,12.0391027 3.21,10.5 C3.21,8 6.01,5.97 9.45,5.97 C9.83468577,5.9710653 10.218872,5.9977913 10.6,6.05 C11.34,4.05 13.82,2.64 16.76,2.64 C20.29,2.64 23.14,4.71 23.14,7.27 C23.1416518,7.70151471 23.0601674,8.129308 22.9,8.53 C23.3352141,8.44833948 23.7771949,8.40815941 24.22,8.41 C26.97,8.41 29.22,10.02 29.22,12.02 C29.1858378,12.7749708 28.8679911,13.4892331 28.33,14.02 L5.62,14.07 Z" id="Path" fill="#EBA266" fill-rule="nonzero" opacity="0.55" style="mix-blend-mode: overlay;"></path>
                                </g>
                                <g id="Group" opacity="0.19" stroke-width="1" fill="none" fill-rule="evenodd" transform="translate(55.000000, 24.000000)">
                                    <path d="M28.68,14.07 C30.3617209,13.2695549 31.4761238,11.6190132 31.59,9.76 C31.59,6.76 28.22,4.28 24.06,4.28 C23.5916365,4.28236667 23.1239449,4.31577322 22.66,4.38 C21.77,2 18.78,0.26 15.22,0.26 C10.96,0.26 7.5,2.76 7.5,5.85 C7.5038672,6.37423022 7.60561164,6.89312687 7.8,7.38 C7.27305579,7.27531862 6.73723865,7.22173691 6.2,7.22 C2.88,7.22 0.2,9.22 0.2,11.59 C0.220234779,12.524435 0.604098882,13.4141387 1.27,14.07 L28.68,14.07 Z" id="Path" fill="#F0B41C" fill-rule="nonzero" opacity="0.52"></path>
                                    <path d="M5,14.07 C3.61091316,13.4042977 2.69212925,12.0376066 2.6,10.5 C2.6,8 5.39,5.97 8.83,5.97 C9.2180075,5.97106419 9.60551985,5.99778918 9.99,6.05 C10.73,4.05 13.2,2.64 16.14,2.64 C19.67,2.64 22.53,4.71 22.53,7.27 C22.526725,7.70104499 22.4454129,8.12793366 22.29,8.53 C22.7219317,8.44896712 23.1605346,8.40878976 23.6,8.41 C26.35,8.41 28.6,10.02 28.6,12.02 C28.5658378,12.7749708 28.2479911,13.4892331 27.71,14.02 L5,14.07 Z" id="Path" fill="#EBA266" fill-rule="nonzero" opacity="0.55" style="mix-blend-mode: overlay;"></path>
                                </g>
                            </g>
                        </g>
                        <rect id="Rectangle" stroke="none" fill="#E3F4FC" fill-rule="nonzero" mask="url(#mask-4)" x="186.28" y="0.27" width="1.86" height="43.58"></rect>
                    </g>
                </g>
            </g>
        </g>
    </g>
</svg>