<svg height="20" viewBox="0 0 20 20" width="20" xmlns="http://www.w3.org/2000/svg"><path d="m11.10475 6.647c-.31875-.32925-.30075-.84525.02625-1.164l3.34575-3.2445c.1635-.15825.3735-.2385.58125-.2385.2115 0 .42225.0825.582.24825zm-5.5005 8.26575c-.069.06675-.10425.156-.10425.24525 0 .1875.153.342.342.342.0855 0 .17175-.0315.23775-.096l.56175-.54675-.47475-.4905zm4.7475-6.31875-1.923 1.86375c-1.0335 1.002-1.56075 1.9725-2.0475 3.32775l.849.87675c1.36875-.44475 2.355-.94125 3.3885-1.94325l1.92225-1.8645zm5.60775-5.74425-4.953 4.80375 2.4945 2.5755 4.953-4.80225c.36375-.35175.546-.81975.546-1.2885 0-1.566-1.8975-2.397-3.0405-1.2885zm-1.4595 8.49975v5.6505h-12v-9h6.00975l1.5435-1.5h-9.05325v12h15v-8.60475z" fill="#ff9504" fill-rule="evenodd"/></svg>