<svg width="24" height="24" viewBox="0 0 24 24" fill="currentColor" xmlns="http://www.w3.org/2000/svg">
<path d="M5 21C4.71667 21 4.47917 20.9042 4.2875 20.7125C4.09583 20.5208 4 20.2833 4 20V19C3.16667 19 2.45833 18.7083 1.875 18.125C1.29167 17.5417 1 16.8333 1 16V11C1 10.45 1.19583 9.97917 1.5875 9.5875C1.97917 9.19583 2.45 9 3 9C3.55 9 4.02083 9.19583 4.4125 9.5875C4.80417 9.97917 5 10.45 5 11V15H19V11C19 10.45 19.1958 9.97917 19.5875 9.5875C19.9792 9.19583 20.45 9 21 9C21.55 9 22.0208 9.19583 22.4125 9.5875C22.8042 9.97917 23 10.45 23 11V16C23 16.8333 22.7083 17.5417 22.125 18.125C21.5417 18.7083 20.8333 19 20 19V20C20 20.2833 19.9042 20.5208 19.7125 20.7125C19.5208 20.9042 19.2833 21 19 21C18.7167 21 18.4792 20.9042 18.2875 20.7125C18.0958 20.5208 18 20.2833 18 20V19H6V20C6 20.2833 5.90417 20.5208 5.7125 20.7125C5.52083 20.9042 5.28333 21 5 21ZM7 13V11C7 10.0833 6.72083 9.2625 6.1625 8.5375C5.60417 7.8125 4.88333 7.3 4 7V6C4 5.16667 4.29167 4.45833 4.875 3.875C5.45833 3.29167 6.16667 3 7 3H17C17.8333 3 18.5417 3.29167 19.125 3.875C19.7083 4.45833 20 5.16667 20 6V7C19.1 7.23333 18.375 7.72083 17.825 8.4625C17.275 9.20417 17 10.05 17 11V13H7Z"/>
</svg>
