<svg width="20" height="20" viewBox="0 0 20 20" fill="none" xmlns="http://www.w3.org/2000/svg">
<g clip-path="url(#clip0_1982_8900)">
<path d="M17.4997 7.5C16.583 7.5 15.833 8.25 15.833 9.16667V12.5H4.16634V9.16667C4.16634 8.25 3.41634 7.5 2.49967 7.5C1.58301 7.5 0.833008 8.25 0.833008 9.16667V13.3333C0.833008 14.7083 1.95801 15.8333 3.33301 15.8333V16.6667C3.33301 17.125 3.70801 17.5 4.16634 17.5C4.62468 17.5 4.99967 17.125 4.99967 16.6667V15.8333H14.9997V16.6667C14.9997 17.125 15.3747 17.5 15.833 17.5C16.2913 17.5 16.6663 17.125 16.6663 16.6667V15.8333C18.0413 15.8333 19.1663 14.7083 19.1663 13.3333V9.16667C19.1663 8.25 18.4163 7.5 17.4997 7.5Z" fill="#30578E"/>
<path d="M5.83301 9.16667V10.8333H14.1663V9.16667C14.1663 7.61667 15.233 6.325 16.6663 5.95V5C16.6663 3.625 15.5413 2.5 14.1663 2.5H5.83301C4.45801 2.5 3.33301 3.625 3.33301 5V5.95C4.76634 6.325 5.83301 7.61667 5.83301 9.16667Z" fill="#30578E"/>
</g>
<defs>
<clipPath id="clip0_1982_8900">
<rect width="20" height="20" fill="white"/>
</clipPath>
</defs>
</svg>
