<svg id="Layer_1" data-name="Layer 1" xmlns="http://www.w3.org/2000/svg" width="48.96" height="36.65" viewBox="0 0 48.96 36.65">
  <g style="opacity: 0.5">
    <path d="M21.59,1.5V4c-.28,0-.56-.05-.85-.05A12.2,12.2,0,0,0,11.48,24.1l.1.11H10.7l-9.18,9.2L3.31,35.2,12.51,26v-.86l.29.25a12.14,12.14,0,0,0,7.94,2.95c.29,0,.57,0,.85,0v9.83H50.48V1.5ZM10.85,16.15a9.89,9.89,0,0,1,4.1-8v16A9.88,9.88,0,0,1,10.85,16.15Zm6.6,9.32V6.83a10,10,0,0,1,3.29-.57,9.87,9.87,0,0,1,8.38,4.66H20.81v2.5h9.43a9.49,9.49,0,0,1,.4,2.73,9.89,9.89,0,0,1-.49,3.05H20.81v2.5h8.12a9.9,9.9,0,0,1-8.19,4.35A9.73,9.73,0,0,1,17.45,25.47ZM48,35.65H24.09V27.88a12.41,12.41,0,0,0,3-1.29v.05H41.87v-2.5H30a12.17,12.17,0,0,0,2.13-3.51h3v-2.5H32.78a12.79,12.79,0,0,0,.17-2,12.79,12.79,0,0,0-.1-1.52h2.29v-2.5H32.26a12.13,12.13,0,0,0-1.93-3.51h9.23V6.12H27.73v0a12.11,12.11,0,0,0-3.64-1.74V4H48Z" transform="translate(-1.52 -1.5)" style="fill: #6c7978"/>
    <rect x="36.04" y="10.63" width="7.78" height="2.5" style="fill: #6c7978"/>
    <rect x="36.04" y="16.63" width="7.78" height="2.5" style="fill: #6c7978"/>
    <rect x="25.21" y="28.64" width="17.66" height="2.5" style="fill: #6c7978"/>
  </g>
</svg>
