<svg width="25" height="25" viewBox="0 0 25 25" fill="currentColor" xmlns="http://www.w3.org/2000/svg">
<path d="M20.8333 4.16663H4.16665C3.02081 4.16663 2.09373 5.10413 2.09373 6.24996L2.08331 18.75C2.08331 19.8958 3.02081 20.8333 4.16665 20.8333H20.8333C21.9791 20.8333 22.9166 19.8958 22.9166 18.75V6.24996C22.9166 5.10413 21.9791 4.16663 20.8333 4.16663ZM19.7916 18.75H5.20831C4.6354 18.75 4.16665 18.2812 4.16665 17.7083V8.33329L11.3958 12.8541C12.0729 13.2812 12.9271 13.2812 13.6041 12.8541L20.8333 8.33329V17.7083C20.8333 18.2812 20.3646 18.75 19.7916 18.75ZM12.5 11.4583L4.16665 6.24996H20.8333L12.5 11.4583Z" />
</svg>
