<svg width="24" height="24" viewBox="0 0 24 24" fill="currentColor" xmlns="http://www.w3.org/2000/svg">
<path fill-rule="evenodd" clip-rule="evenodd" d="M21 6.75V16.5H19.5V6.75H16.5C15.9033 6.75 15.331 6.51295 14.909 6.09099C14.4871 5.66903 14.25 5.09674 14.25 4.5V1.5H6C5.60218 1.5 5.22064 1.65804 4.93934 1.93934C4.65804 2.22064 4.5 2.60218 4.5 3V16.5H3V3C3 2.20435 3.31607 1.44129 3.87868 0.87868C4.44129 0.316071 5.20435 0 6 0L14.25 0L21 6.75ZM10.7415 21.282V20.499C10.7542 20.1695 10.6942 19.8413 10.566 19.5375C10.4665 19.3002 10.2983 19.098 10.083 18.957C9.87201 18.8261 9.62773 18.759 9.3795 18.7635C9.13021 18.7597 8.88504 18.8273 8.673 18.9585C8.45965 19.1002 8.29271 19.3016 8.193 19.5375C8.06475 19.8413 8.00484 20.1695 8.0175 20.499V21.282C8.0175 21.666 8.076 21.9865 8.193 22.2435C8.29246 22.48 8.45942 22.6819 8.673 22.824C8.88662 22.9508 9.1311 23.0162 9.3795 23.013C9.62689 23.0157 9.87025 22.9503 10.083 22.824C10.2981 22.6834 10.4663 22.4818 10.566 22.245C10.6922 21.9401 10.752 21.6118 10.7415 21.282ZM11.946 20.508V21.2775C11.946 21.8405 11.8435 22.327 11.6385 22.737C11.4444 23.1316 11.1367 23.4591 10.755 23.6775C10.374 23.8935 9.9155 24.0015 9.3795 24.0015C8.89928 24.0141 8.42394 23.9025 7.9995 23.6775C7.61723 23.4598 7.30936 23.1321 7.116 22.737C6.90086 22.2812 6.79554 21.7813 6.8085 21.2775V20.508C6.8085 19.939 6.911 19.4515 7.116 19.0455C7.321 18.6345 7.616 18.321 8.001 18.105C8.387 17.885 8.847 17.775 9.381 17.775C9.916 17.775 10.374 17.885 10.755 18.105C11.138 18.324 11.433 18.639 11.64 19.05C11.844 19.456 11.946 19.942 11.946 20.508ZM1.5 23.8875V17.889H3.6885C4.2975 17.889 4.8 18.0065 5.196 18.2415C5.592 18.4745 5.8865 18.8145 6.0795 19.2615C6.2755 19.7065 6.3735 20.2435 6.3735 20.8725C6.3735 21.5065 6.2755 22.0485 6.0795 22.4985C5.8825 22.9495 5.585 23.294 5.187 23.532C4.791 23.769 4.2915 23.8875 3.6885 23.8875H1.5ZM3.531 18.8565H2.685V22.917H3.5295C3.8065 22.917 4.048 22.876 4.254 22.794C4.45158 22.7147 4.62449 22.5842 4.755 22.416C4.887 22.246 4.985 22.035 5.049 21.783C5.12136 21.4927 5.15565 21.1942 5.151 20.895C5.151 20.445 5.092 20.0685 4.974 19.7655C4.87633 19.4865 4.68979 19.2472 4.443 19.0845C4.206 18.9325 3.901 18.8565 3.528 18.8565H3.531ZM13.665 20.5305C13.665 20.1575 13.7165 19.841 13.8195 19.581C13.9085 19.3422 14.0654 19.1346 14.271 18.984C14.4807 18.8415 14.7301 18.769 14.9835 18.777C15.2085 18.777 15.4075 18.8255 15.5805 18.9225C15.7501 19.0126 15.8917 19.1475 15.99 19.3125C16.0945 19.486 16.1562 19.6819 16.17 19.884H17.3175V19.7745C17.3075 19.4982 17.2403 19.227 17.1199 18.9781C16.9996 18.7291 16.8289 18.5079 16.6185 18.3285C16.4035 18.1444 16.1535 18.0056 15.8835 17.9205C15.5911 17.8203 15.2836 17.7711 14.9745 17.775C14.4405 17.775 13.985 17.8865 13.608 18.1095C13.233 18.3315 12.9475 18.648 12.7515 19.059C12.5545 19.469 12.456 19.958 12.456 20.526V21.273C12.456 21.841 12.553 22.329 12.747 22.737C12.942 23.143 13.2275 23.4565 13.6035 23.6775C13.9785 23.8935 14.4355 24.0015 14.9745 24.0015C15.4145 24.0015 15.807 23.9195 16.152 23.7555C16.497 23.5915 16.7725 23.3645 16.9785 23.0745C17.1854 22.7766 17.303 22.4259 17.3175 22.0635V21.9495H16.17C16.1565 22.143 16.0963 22.3304 15.9945 22.4955C15.8937 22.6539 15.7523 22.7823 15.585 22.8675C15.3973 22.9573 15.1915 23.0024 14.9835 22.9995C14.7303 23.0067 14.4807 22.9383 14.2665 22.803C14.0612 22.6563 13.9053 22.4508 13.8195 22.2135C13.7093 21.9125 13.6569 21.5934 13.665 21.273V20.5305ZM21.303 17.8905H22.644L20.7315 20.8995L22.6125 23.8875H21.2505L19.9755 21.765H19.923L18.645 23.8875H17.352L19.212 20.865L17.37 17.889H18.768L20.016 20.0475H20.0685L21.303 17.8905Z" />
</svg>
