<svg width="24" height="24" viewBox="0 0 24 24" fill="currentColor" xmlns="http://www.w3.org/2000/svg">
<path d="M2.3 21C2.01667 21 1.8 20.875 1.65 20.625C1.5 20.375 1.5 20.125 1.65 19.875L11.35 3.125C11.5 2.875 11.7167 2.75 12 2.75C12.2833 2.75 12.5 2.875 12.65 3.125L22.35 19.875C22.5 20.125 22.5 20.375 22.35 20.625C22.2 20.875 21.9833 21 21.7 21H2.3ZM12.1 9.7C11.8833 9.7 11.7042 9.77083 11.5625 9.9125C11.4208 10.0542 11.35 10.2333 11.35 10.45V14.55C11.35 14.7667 11.4208 14.9458 11.5625 15.0875C11.7042 15.2292 11.8833 15.3 12.1 15.3C12.3167 15.3 12.4958 15.2292 12.6375 15.0875C12.7792 14.9458 12.85 14.7667 12.85 14.55V10.45C12.85 10.2333 12.7792 10.0542 12.6375 9.9125C12.4958 9.77083 12.3167 9.7 12.1 9.7ZM12.1 18.075C12.3167 18.075 12.4958 18.0042 12.6375 17.8625C12.7792 17.7208 12.85 17.5417 12.85 17.325C12.85 17.1083 12.7792 16.9292 12.6375 16.7875C12.4958 16.6458 12.3167 16.575 12.1 16.575C11.8833 16.575 11.7042 16.6458 11.5625 16.7875C11.4208 16.9292 11.35 17.1083 11.35 17.325C11.35 17.5417 11.4208 17.7208 11.5625 17.8625C11.7042 18.0042 11.8833 18.075 12.1 18.075Z" />
</svg>
