<svg width="24" height="24" viewBox="0 0 24 24" fill="currentColor" xmlns="http://www.w3.org/2000/svg">
<path d="M22.3901 12.19C22.7301 11.75 22.6401 11.12 22.2001 10.79L12.6001 3.46C12.2401 3.19 11.7401 3.19 11.3901 3.46L6.00005 7.58V7C6.00005 6.45 5.55005 6 5.00005 6C4.45005 6 4.00005 6.45 4.00005 7V9.11L1.79005 10.79C1.35005 11.12 1.27005 11.75 1.60005 12.19C1.94005 12.63 2.56005 12.71 3.00005 12.38L4.00005 11.62V20C4.00005 20.55 4.45005 21 5.00005 21H11.0001V16C11.0001 15.45 11.4501 15 12.0001 15C12.5501 15 13.0001 15.45 13.0001 16V21H19.0001C19.5501 21 20.0001 20.55 20.0001 20V11.62L20.9901 12.38C21.4301 12.72 22.0601 12.63 22.3901 12.19ZM5.27005 5C4.53005 5 4.01005 4.2 4.37005 3.55C4.89005 2.62 5.87005 2 7.00005 2C7.38005 2 7.72005 1.78 7.89005 1.47C8.04005 1.16 8.39005 1 8.73005 1C9.47005 1 9.99005 1.8 9.63005 2.45C9.11005 3.38 8.13005 4 7.00005 4C6.62005 4 6.28005 4.22 6.11005 4.53C5.96005 4.84 5.61005 5 5.27005 5Z" />
</svg>
