<svg width="24" height="26" viewBox="0 0 24 26" fill="currentColor" xmlns="http://www.w3.org/2000/svg">
    <path d="M17.825 6.18583C17.4025 5.76333 16.72 5.76333 16.2975 6.18583L11 11.4725L5.70253 6.175C5.28003 5.7525 4.59753 5.7525 4.17503 6.175C3.75253 6.5975 3.75253 7.28 4.17503 7.7025L9.47253 13L4.17503 18.2975C3.75253 18.72 3.75253 19.4025 4.17503 19.825C4.59753 20.2475 5.28003 20.2475 5.70253 19.825L11 14.5275L16.2975 19.825C16.72 20.2475 17.4025 20.2475 17.825 19.825C18.2475 19.4025 18.2475 18.72 17.825 18.2975L12.5275 13L17.825 7.7025C18.2367 7.29083 18.2367 6.5975 17.825 6.18583Z" />
</svg>
