<?xml version="1.0" encoding="UTF-8"?>
<svg id="Layer_1" xmlns="http://www.w3.org/2000/svg" version="1.1" viewBox="0 0 20 20">
  <!-- Generator: Adobe Illustrator 29.7.1, SVG Export Plug-In . SVG Version: 2.1.1 Build 8)  -->
  <path d="M10,.4C4.7.4.4,4.7.4,10s4.3,9.6,9.6,9.6,9.6-4.3,9.6-9.6S15.3.4,10,.4ZM14.1,14.1c-.4.4-1,.4-1.4,0l-2.8-2.8-2.8,2.8c-.4.4-1,.4-1.4,0s-.4-1,0-1.4l2.8-2.8-2.8-2.8c-.4-.4-.4-1,0-1.4s1-.4,1.4,0l2.8,2.8,2.8-2.8c.4-.4,1-.4,1.4,0s.4,1,0,1.4l-2.8,2.8,2.8,2.8c.4.4.4,1,0,1.4Z"/>
</svg>