<svg width="24" height="24" viewBox="0 0 24 24" fill="currentColor" xmlns="http://www.w3.org/2000/svg">
<path d="M12 18.1L14.325 15.775C14.525 15.575 14.7667 15.475 15.05 15.475C15.3333 15.475 15.575 15.575 15.775 15.775C15.975 15.975 16.075 16.2167 16.075 16.5C16.075 16.7833 15.975 17.025 15.775 17.225L12.7 20.3C12.6 20.4 12.4917 20.4708 12.375 20.5125C12.2583 20.5542 12.1333 20.575 12 20.575C11.8667 20.575 11.7417 20.5542 11.625 20.5125C11.5083 20.4708 11.4 20.4 11.3 20.3L8.22499 17.225C8.02499 17.025 7.92499 16.7833 7.92499 16.5C7.92499 16.2167 8.02499 15.975 8.22499 15.775C8.42499 15.575 8.66665 15.475 8.94999 15.475C9.23332 15.475 9.47499 15.575 9.67499 15.775L12 18.1ZM12 5.99999L9.67499 8.32499C9.47499 8.52499 9.23332 8.62499 8.94999 8.62499C8.66665 8.62499 8.42499 8.52499 8.22499 8.32499C8.02499 8.12499 7.92499 7.88333 7.92499 7.59999C7.92499 7.31666 8.02499 7.07499 8.22499 6.87499L11.3 3.79999C11.4 3.69999 11.5083 3.62916 11.625 3.58749C11.7417 3.54583 11.8667 3.52499 12 3.52499C12.1333 3.52499 12.2583 3.54583 12.375 3.58749C12.4917 3.62916 12.6 3.69999 12.7 3.79999L15.775 6.87499C15.975 7.07499 16.075 7.31666 16.075 7.59999C16.075 7.88333 15.975 8.12499 15.775 8.32499C15.575 8.52499 15.3333 8.62499 15.05 8.62499C14.7667 8.62499 14.525 8.52499 14.325 8.32499L12 5.99999Z"/>
</svg>
