<svg xmlns="http://www.w3.org/2000/svg" width="32" height="32" viewBox="0 0 32 32">
  <path d="M16.001 20.133c-2.12 0-3.839-1.719-3.839-3.839s1.719-3.839 3.839-3.839c2.12 0 3.839 1.719 3.839 3.839 0 1.018-0.404 1.994-1.124 2.714s-1.696 1.124-2.714 1.124zM24.149 17.359c0.048-0.354 0.074-0.71 0.077-1.067-0.004-0.367-0.030-0.732-0.077-1.096l2.313-1.788c0.209-0.17 0.266-0.466 0.133-0.701l-2.195-3.788c-0.129-0.238-0.415-0.342-0.667-0.241l-2.731 1.096c-0.566-0.44-1.19-0.802-1.853-1.075l-0.4-2.905c-0.047-0.269-0.283-0.465-0.556-0.46h-4.385c-0.27-0.001-0.502 0.194-0.548 0.46l-0.4 2.905c-0.663 0.273-1.287 0.634-1.853 1.075l-2.737-1.096c-0.251-0.1-0.538 0.003-0.667 0.241l-2.195 3.795c-0.138 0.234-0.081 0.534 0.133 0.701l2.312 1.785c-0.047 0.364-0.073 0.729-0.077 1.096 0.003 0.357 0.029 0.713 0.077 1.067l-2.315 1.82c-0.215 0.167-0.272 0.467-0.133 0.701l2.193 3.795c0.134 0.232 0.415 0.334 0.667 0.241l2.731-1.108c0.563 0.448 1.187 0.813 1.853 1.085l0.4 2.905c0.046 0.266 0.278 0.461 0.548 0.46h4.387c0.27 0.001 0.502-0.194 0.548-0.46l0.4-2.905c0.664-0.277 1.287-0.642 1.853-1.085l2.731 1.108c0.251 0.092 0.533-0.009 0.667-0.241l2.193-3.795c0.132-0.235 0.076-0.531-0.133-0.701l-2.295-1.824z"></path>
</svg>
