<svg width="24" height="24" viewBox="0 0 24 24" fill="currentColor" xmlns="http://www.w3.org/2000/svg">
<path d="M18.1462 15.2727L12.5475 10.7277L11.4225 11.7589C9.9 13.1502 8.1675 12.2052 7.60875 11.5939C6.6 10.4914 6.67875 8.78519 7.77375 7.78019L10.8413 4.97144H7.69875C7.38 4.97144 7.07625 5.09894 6.85125 5.32394L4.8 7.37144H0.6C0.27 7.37144 0 7.64144 0 7.97144V15.1677C0 15.4977 0.27 15.7677 0.6 15.7677H5.48625L8.88 18.8389C9.9075 19.6752 11.4187 19.5177 12.255 18.4902L12.2625 18.4827L12.9338 19.0639C13.53 19.5514 14.4113 19.4577 14.895 18.8614L16.0725 17.4139L16.275 17.5789C16.7888 17.9952 17.5463 17.9202 17.9625 17.4027L18.3188 16.9639C18.7388 16.4464 18.66 15.6927 18.1462 15.2727ZM23.4 7.37144H19.2L17.1525 5.32394C16.9275 5.09894 16.6238 4.97144 16.305 4.97144H13.0838C12.7838 4.97144 12.495 5.08394 12.2738 5.28644L8.5875 8.66144C8.58375 8.66519 8.58 8.67269 8.57625 8.67644C7.95 9.26519 7.965 10.1989 8.4975 10.7764C8.8575 11.1702 9.81 11.5864 10.6013 10.8777C10.605 10.8739 10.6125 10.8739 10.6163 10.8702L12.6038 9.05144L13.6163 8.12519C13.86 7.90394 14.2388 7.91894 14.4638 8.16269C14.6888 8.40644 14.67 8.78519 14.4263 9.01019L13.4475 9.90644L18.9075 14.3389C19.365 14.7102 19.6388 15.2202 19.74 15.7602H23.4C23.73 15.7602 24 15.4902 24 15.1602V7.96769C24 7.63769 23.73 7.37144 23.4 7.37144Z"/>
</svg>
