<svg width="24" height="24" viewBox="0 0 24 24" fill="currentColor" xmlns="http://www.w3.org/2000/svg">
<path d="M14 12C14 12.74 13.6 13.38 13 13.72V21C13 21.55 12.55 22 12 22C11.45 22 11 21.55 11 21V13.72C10.4 13.37 10 12.74 10 12C10 10.9 10.9 9.99999 12 9.99999C13.1 9.99999 14 10.9 14 12ZM10.75 6.12999C8.48 6.58999 6.63 8.40999 6.14 10.68C5.74 12.54 6.21 14.3 7.22 15.62C7.57 16.07 8.25 16.09 8.65 15.69L8.72 15.62C9.06 15.28 9.06 14.75 8.78 14.37C8.1 13.47 7.8 12.27 8.12 11C8.47 9.57999 9.64 8.42999 11.07 8.11999C13.69 7.51999 16 9.48999 16 12C16 12.87 15.72 13.67 15.24 14.32C14.94 14.73 14.95 15.29 15.31 15.65C15.75 16.09 16.48 16.02 16.85 15.51C17.57 14.53 18 13.31 18 12C18 8.27999 14.61 5.34999 10.75 6.12999ZM10.83 2.06999C6.3 2.57999 2.61 6.24999 2.07 10.78C1.72 13.73 2.66 16.45 4.39 18.48C4.76 18.91 5.42 18.94 5.82 18.54L5.87 18.49C6.22 18.14 6.25 17.57 5.92 17.19C4.36 15.36 3.59 12.82 4.22 10.13C4.92 7.11999 7.4 4.73999 10.44 4.15999C15.53 3.17999 20 7.07999 20 12C20 13.96 19.28 15.76 18.1 17.16C17.76 17.56 17.79 18.14 18.15 18.51C18.57 18.93 19.26 18.9 19.64 18.44C21.11 16.7 22 14.46 22 12C22 6.08999 16.87 1.37999 10.83 2.06999Z" />
</svg>
