<svg width="24" height="24" viewBox="0 0 24 24" fill="currentColor" xmlns="http://www.w3.org/2000/svg">
<path d="M10 12C12.2091 12 14 10.2091 14 8C14 5.79086 12.2091 4 10 4C7.79086 4 6 5.79086 6 8C6 10.2091 7.79086 12 10 12Z" />
<path d="M10.35 14.01C7.62 13.91 2 15.27 2 18V19C2 19.55 2.45 20 3 20H11.54C9.07 17.24 10.31 14.11 10.35 14.01Z" />
<path fill-rule="evenodd" clip-rule="evenodd" d="M19.91 15.2C20.13 16.25 19.9 17.22 19.43 18.02L21.28 19.89C21.67 20.28 21.67 20.91 21.28 21.3C20.89 21.69 20.26 21.69 19.87 21.3L18.01 19.44C17.21 19.91 16.24 20.14 15.19 19.92C13.55 19.58 12.25 18.2 12.03 16.54C11.68 13.91 13.9 11.7 16.53 12.04C18.19 12.25 19.57 13.56 19.91 15.2ZM14 16C14 17.1 14.9 18 16 18C17.1 18 18 17.1 18 16C18 14.9 17.1 14 16 14C14.9 14 14 14.9 14 16Z" />
</svg>
