<svg width="20" height="20" viewBox="0 0 20 20" fill="currentColor" xmlns="http://www.w3.org/2000/svg">
<path d="M10 9.99984C10.4584 9.99984 10.8507 9.83664 11.1771 9.51025C11.5035 9.18387 11.6667 8.7915 11.6667 8.33317C11.6667 7.87484 11.5035 7.48248 11.1771 7.15609C10.8507 6.8297 10.4584 6.6665 10 6.6665C9.54171 6.6665 9.14935 6.8297 8.82296 7.15609C8.49657 7.48248 8.33337 7.87484 8.33337 8.33317C8.33337 8.7915 8.49657 9.18387 8.82296 9.51025C9.14935 9.83664 9.54171 9.99984 10 9.99984ZM10 16.1248C11.6945 14.5693 12.9514 13.1561 13.7709 11.8853C14.5903 10.6144 15 9.48595 15 8.49984C15 6.98595 14.5174 5.74637 13.5521 4.78109C12.5868 3.81581 11.4028 3.33317 10 3.33317C8.59726 3.33317 7.41323 3.81581 6.44796 4.78109C5.48268 5.74637 5.00004 6.98595 5.00004 8.49984C5.00004 9.48595 5.40976 10.6144 6.22921 11.8853C7.04865 13.1561 8.3056 14.5693 10 16.1248ZM10 18.3332C7.76393 16.4304 6.09379 14.663 4.98962 13.0311C3.88546 11.3991 3.33337 9.88873 3.33337 8.49984C3.33337 6.4165 4.00351 4.75678 5.34379 3.52067C6.68407 2.28456 8.23615 1.6665 10 1.6665C11.7639 1.6665 13.316 2.28456 14.6563 3.52067C15.9966 4.75678 16.6667 6.4165 16.6667 8.49984C16.6667 9.88873 16.1146 11.3991 15.0105 13.0311C13.9063 14.663 12.2362 16.4304 10 18.3332Z" />
</svg>
