<svg width="24" height="24" viewBox="0 0 24 24" fill="currentColor" xmlns="http://www.w3.org/2000/svg">
<path d="M10.805 12.005L14.705 15.905C14.8883 16.0883 14.98 16.3217 14.98 16.605C14.98 16.8883 14.8883 17.1217 14.705 17.305C14.5217 17.4883 14.2883 17.58 14.005 17.58C13.7217 17.58 13.4883 17.4883 13.305 17.305L8.705 12.705C8.605 12.605 8.53417 12.4967 8.4925 12.38C8.45083 12.2633 8.43 12.1383 8.43 12.005C8.43 11.8717 8.45083 11.7467 8.4925 11.63C8.53417 11.5133 8.605 11.405 8.705 11.305L13.305 6.70499C13.4883 6.52166 13.7217 6.42999 14.005 6.42999C14.2883 6.42999 14.5217 6.52166 14.705 6.70499C14.8883 6.88833 14.98 7.12166 14.98 7.40499C14.98 7.68833 14.8883 7.92166 14.705 8.10499L10.805 12.005Z"/>
</svg>
