<svg xmlns="http://www.w3.org/2000/svg" width="32" height="32" viewBox="0 0 32 32">
  <path d="M16 4c6.627 0 12 5.373 12 12s-5.373 12-12 12c-6.627 0-12-5.373-12-12s5.373-12 12-12zM19.969 10.625l-3.969 3.969-3.969-3.969-0.092-0.081-0.155-0.1c-0.382-0.197-0.851-0.128-1.159 0.181l-0.096 0.112c-0.289 0.389-0.257 0.942 0.096 1.295l3.969 3.969-3.969 3.969-0.081 0.092c-0.307 0.413-0.269 0.965 0.081 1.314l0.112 0.096c0.389 0.289 0.942 0.257 1.295-0.096l3.968-3.97 3.854 3.854 0.092 0.081c0.413 0.307 0.965 0.269 1.314-0.081l0.096-0.112c0.289-0.389 0.257-0.942-0.096-1.295l-3.854-3.854 3.97-3.968 0.081-0.092c0.307-0.413 0.269-0.965-0.081-1.314-0.388-0.388-1.018-0.388-1.406 0z"></path>
</svg>
