<svg width="20" height="20" viewBox="0 0 20 20" fill="none" xmlns="http://www.w3.org/2000/svg">
<path d="M9.99999 12.9791C9.88888 12.9791 9.78472 12.9617 9.68749 12.927C9.59027 12.8923 9.49999 12.8333 9.41666 12.7499L6.41666 9.74992C6.26388 9.59714 6.18749 9.4027 6.18749 9.16658C6.18749 8.93047 6.26388 8.73603 6.41666 8.58325C6.56944 8.43047 6.76736 8.35061 7.01041 8.34367C7.25347 8.33672 7.45138 8.40964 7.60416 8.56242L9.16666 10.1249V4.16659C9.16666 3.93047 9.24652 3.73256 9.40624 3.57284C9.56597 3.41311 9.76388 3.33325 9.99999 3.33325C10.2361 3.33325 10.434 3.41311 10.5937 3.57284C10.7535 3.73256 10.8333 3.93047 10.8333 4.16659V10.1249L12.3958 8.56242C12.5486 8.40964 12.7465 8.33672 12.9896 8.34367C13.2326 8.35061 13.4305 8.43047 13.5833 8.58325C13.7361 8.73603 13.8125 8.93047 13.8125 9.16658C13.8125 9.4027 13.7361 9.59714 13.5833 9.74992L10.5833 12.7499C10.5 12.8333 10.4097 12.8923 10.3125 12.927C10.2153 12.9617 10.1111 12.9791 9.99999 12.9791ZM4.99999 16.6666C4.54166 16.6666 4.1493 16.5034 3.82291 16.177C3.49652 15.8506 3.33333 15.4583 3.33333 14.9999V13.3333C3.33333 13.0971 3.41319 12.8992 3.57291 12.7395C3.73263 12.5798 3.93055 12.4999 4.16666 12.4999C4.40277 12.4999 4.60069 12.5798 4.76041 12.7395C4.92013 12.8992 4.99999 13.0971 4.99999 13.3333V14.9999H15V13.3333C15 13.0971 15.0799 12.8992 15.2396 12.7395C15.3993 12.5798 15.5972 12.4999 15.8333 12.4999C16.0694 12.4999 16.2674 12.5798 16.4271 12.7395C16.5868 12.8992 16.6667 13.0971 16.6667 13.3333V14.9999C16.6667 15.4583 16.5035 15.8506 16.1771 16.177C15.8507 16.5034 15.4583 16.6666 15 16.6666H4.99999Z" fill="#30578E"/>
</svg>
