<svg width="20" height="20" viewBox="0 0 20 20" fill="currentColor" xmlns="http://www.w3.org/2000/svg">
<path d="M5.11667 9.88333L2.8 12.2083C2.64167 12.375 2.64167 12.6333 2.8 12.8L5.11667 15.125C5.375 15.3917 5.825 15.2 5.825 14.8333V13.3333H10.8333C11.2917 13.3333 11.6667 12.9583 11.6667 12.5C11.6667 12.0417 11.2917 11.6667 10.8333 11.6667H5.825V10.175C5.825 9.8 5.375 9.61666 5.11667 9.88333ZM17.2083 7.20833L14.8917 4.88333C14.6333 4.61666 14.1833 4.80833 14.1833 5.175V6.66666H9.16667C8.70833 6.66666 8.33333 7.04166 8.33333 7.5C8.33333 7.95833 8.70833 8.33333 9.16667 8.33333H14.175V9.825C14.175 10.2 14.625 10.3833 14.8833 10.1167L17.2 7.79166C17.3667 7.63333 17.3667 7.36666 17.2083 7.20833Z" />
</svg>
