<svg width="24" height="24" viewBox="0 0 24 24" fill="currentColor" xmlns="http://www.w3.org/2000/svg">
<path d="M20.0341 3.96596C18.9329 2.86482 17.4852 2.3143 16.0374 2.3143C14.5897 2.3143 13.1419 2.86482 12.0408 3.96596L3.96594 12.0204C1.76371 14.2226 1.76371 17.8318 3.96594 20.0341C5.06707 21.1352 6.51482 21.6857 7.96258 21.6857C9.41032 21.6857 10.8581 21.1352 11.9592 20.0341L20.0137 11.9796C22.2363 9.77739 22.2363 6.16819 20.0341 3.96596H20.0341ZM10.5318 18.5863C9.85891 19.2593 8.94131 19.6466 7.98297 19.6466C7.00417 19.6466 6.107 19.2795 5.43409 18.5863C4.76116 17.9134 4.3738 16.9958 4.3738 16.0374C4.3738 15.0791 4.74087 14.1615 5.43409 13.4886L9.47152 9.45114L14.5897 14.5693L10.5318 18.5863ZM18.8514 6.5964C18.5863 6.86151 18.1581 6.86151 17.893 6.5964C16.8735 5.57685 15.181 5.57685 14.1615 6.5964L12.8973 7.86061C12.7546 8.00331 12.5914 8.06452 12.4079 8.06452C12.2243 8.06452 12.0613 8.00331 11.9185 7.86061C11.6534 7.59549 11.6534 7.16729 11.9185 6.90226L13.1827 5.63805C14.7528 4.06798 17.2813 4.06798 18.8514 5.63805C19.1165 5.9031 19.1165 6.3313 18.8514 6.5964Z" />
</svg>
