<svg width="25" height="24" viewBox="0 0 25 24" fill="currentColor" xmlns="http://www.w3.org/2000/svg">
<path d="M12.5 2C6.98 2 2.5 6.48 2.5 12C2.5 17.52 6.98 22 12.5 22C18.02 22 22.5 17.52 22.5 12C22.5 6.48 18.02 2 12.5 2ZM13.5 19H11.5V17H13.5V19ZM15.57 11.25L14.67 12.17C14.17 12.68 13.81 13.14 13.63 13.86C13.55 14.18 13.5 14.54 13.5 15H11.5V14.5C11.5 14.04 11.58 13.6 11.72 13.19C11.92 12.61 12.25 12.09 12.67 11.67L13.91 10.41C14.37 9.97 14.59 9.31 14.46 8.61C14.33 7.89 13.77 7.28 13.07 7.08C11.96 6.77 10.93 7.4 10.6 8.35C10.48 8.72 10.17 9 9.78 9H9.48C8.9 9 8.5 8.44 8.66 7.88C9.09 6.41 10.34 5.29 11.89 5.05C13.41 4.81 14.86 5.6 15.76 6.85C16.94 8.48 16.59 10.23 15.57 11.25Z"/>
</svg>
