<?xml version="1.0" encoding="UTF-8"?>
<svg id="Layer_1" xmlns="http://www.w3.org/2000/svg" version="1.1" viewBox="0 0 20 20">
  <!-- Generator: Adobe Illustrator 29.7.1, SVG Export Plug-In . SVG Version: 2.1.1 Build 8)  -->
  <path d="M10,0C4.5,0,0,4.5,0,10s4.5,10,10,10,10-4.5,10-10S15.5,0,10,0ZM14.3,14.3c-.4.4-1,.4-1.5,0l-2.9-2.9-2.9,2.9c-.4.4-1,.4-1.5,0s-.4-1,0-1.5l2.9-2.9-2.9-2.9c-.4-.4-.4-1,0-1.5s1-.4,1.5,0l2.9,2.9,2.9-2.9c.4-.4,1-.4,1.5,0s.4,1,0,1.5l-2.9,2.9,2.9,2.9c.4.4.4,1,0,1.5Z"/>
</svg>