<svg width="24" height="24" viewBox="0 0 24 24" fill="currentColor" xmlns="http://www.w3.org/2000/svg">
<path d="M12 2.14286C5.84532 2.14286 0.857147 6.23973 0.857147 11.2959C0.857147 13.4786 1.78862 15.4764 3.33817 17.0474C2.79409 19.2652 0.97467 21.2411 0.952906 21.2631C0.857147 21.3643 0.831031 21.5139 0.887616 21.6459C0.944201 21.7779 1.06608 21.8571 1.20536 21.8571C4.09119 21.8571 6.25447 20.4578 7.32523 19.5953C8.74855 20.1365 10.3286 20.449 12 20.449C18.1547 20.449 23.1429 16.3521 23.1429 11.2959C23.1429 6.23973 18.1547 2.14286 12 2.14286ZM6.42858 12.7041C5.65815 12.7041 5.03572 12.0748 5.03572 11.2959C5.03572 10.517 5.65815 9.88775 6.42858 9.88775C7.199 9.88775 7.82143 10.517 7.82143 11.2959C7.82143 12.0748 7.199 12.7041 6.42858 12.7041ZM12 12.7041C11.2296 12.7041 10.6071 12.0748 10.6071 11.2959C10.6071 10.517 11.2296 9.88775 12 9.88775C12.7704 9.88775 13.3929 10.517 13.3929 11.2959C13.3929 12.0748 12.7704 12.7041 12 12.7041ZM17.5714 12.7041C16.801 12.7041 16.1786 12.0748 16.1786 11.2959C16.1786 10.517 16.801 9.88775 17.5714 9.88775C18.3419 9.88775 18.9643 10.517 18.9643 11.2959C18.9643 12.0748 18.3419 12.7041 17.5714 12.7041Z" />
</svg>
