<svg width="24" height="24" viewBox="0 0 24 24" fill="currentColor" xmlns="http://www.w3.org/2000/svg">
<path d="M12.85 12.1C12.6833 12.2667 12.5 12.3083 12.3 12.225C12.1 12.1417 12 11.9833 12 11.75V3.95001C12 3.66668 12.0958 3.42918 12.2875 3.23751C12.4792 3.04585 12.7167 2.95001 13 2.95001H20C20.2833 2.95001 20.5208 3.04585 20.7125 3.23751C20.9042 3.42918 21 3.66668 21 3.95001V8.95001C21 9.23335 20.9042 9.47085 20.7125 9.66251C20.5208 9.85418 20.2833 9.95001 20 9.95001H15L12.85 12.1ZM19.95 21C17.8 21 15.7042 20.5208 13.6625 19.5625C11.6208 18.6042 9.8125 17.3375 8.2375 15.7625C6.6625 14.1875 5.39583 12.3792 4.4375 10.3375C3.47917 8.29585 3 6.20001 3 4.05001C3 3.75001 3.1 3.50001 3.3 3.30001C3.5 3.10001 3.75 3.00001 4.05 3.00001H8.1C8.33333 3.00001 8.54167 3.07501 8.725 3.22501C8.90833 3.37501 9.01667 3.56668 9.05 3.80001L9.7 7.30001C9.73333 7.53335 9.72917 7.74585 9.6875 7.93751C9.64583 8.12918 9.55 8.30001 9.4 8.45001L7 10.9C7.7 12.1 8.575 13.225 9.625 14.275C10.675 15.325 11.8333 16.2333 13.1 17L15.45 14.65C15.6 14.5 15.7958 14.3875 16.0375 14.3125C16.2792 14.2375 16.5167 14.2167 16.75 14.25L20.2 14.95C20.4333 15 20.625 15.1125 20.775 15.2875C20.925 15.4625 21 15.6667 21 15.9V19.95C21 20.25 20.9 20.5 20.7 20.7C20.5 20.9 20.25 21 19.95 21Z" />
</svg>
