<svg width="20" height="20" viewBox="0 0 20 20" fill="currentColor" xmlns="http://www.w3.org/2000/svg">
<path d="M9.99999 13.3333C9.76388 13.3333 9.56597 13.2535 9.40624 13.0938C9.24652 12.934 9.16666 12.7361 9.16666 12.5V6.54167L7.60416 8.10417C7.43749 8.27083 7.24305 8.35417 7.02083 8.35417C6.79861 8.35417 6.59722 8.26389 6.41666 8.08333C6.24999 7.91667 6.17013 7.71875 6.17708 7.48958C6.18402 7.26042 6.26388 7.06944 6.41666 6.91667L9.41666 3.91667C9.49999 3.83333 9.59027 3.77431 9.68749 3.73958C9.78472 3.70486 9.88888 3.6875 9.99999 3.6875C10.1111 3.6875 10.2153 3.70486 10.3125 3.73958C10.4097 3.77431 10.5 3.83333 10.5833 3.91667L13.5833 6.91667C13.75 7.08333 13.8299 7.28125 13.8229 7.51042C13.816 7.73958 13.7361 7.93056 13.5833 8.08333C13.4167 8.25 13.2187 8.33681 12.9896 8.34375C12.7604 8.35069 12.5625 8.27083 12.3958 8.10417L10.8333 6.54167V12.5C10.8333 12.7361 10.7535 12.934 10.5937 13.0938C10.434 13.2535 10.2361 13.3333 9.99999 13.3333ZM4.99999 16.6667C4.54166 16.6667 4.1493 16.5035 3.82291 16.1771C3.49652 15.8507 3.33333 15.4583 3.33333 15V13.3333C3.33333 13.0972 3.41319 12.8993 3.57291 12.7396C3.73263 12.5799 3.93055 12.5 4.16666 12.5C4.40277 12.5 4.60069 12.5799 4.76041 12.7396C4.92013 12.8993 4.99999 13.0972 4.99999 13.3333V15H15V13.3333C15 13.0972 15.0799 12.8993 15.2396 12.7396C15.3993 12.5799 15.5972 12.5 15.8333 12.5C16.0694 12.5 16.2674 12.5799 16.4271 12.7396C16.5868 12.8993 16.6667 13.0972 16.6667 13.3333V15C16.6667 15.4583 16.5035 15.8507 16.1771 16.1771C15.8507 16.5035 15.4583 16.6667 15 16.6667H4.99999Z" />
</svg>
