<svg width="24" height="24" viewBox="0 0 24 24" fill="currentColor" xmlns="http://www.w3.org/2000/svg">
<path d="M6.6 3C7.65 3 8.65 3.22067 9.6 3.662C10.55 4.104 11.35 4.71667 12 5.5C12.65 4.71667 13.45 4.104 14.4 3.662C15.35 3.22067 16.35 3 17.4 3C19.2667 3 20.8333 3.63333 22.1 4.9C23.3667 6.16667 24 7.73333 24 9.6C24 10.2333 23.9167 10.8583 23.75 11.475C23.5833 12.0917 23.35 12.7 23.05 13.3C22.8667 12.9833 22.65 12.7 22.4 12.45C22.15 12.2 21.8583 12 21.525 11.85C21.675 11.4667 21.7917 11.0917 21.875 10.725C21.9583 10.3583 22 9.98333 22 9.6C22 8.3 21.5583 7.20833 20.675 6.325C19.7917 5.44167 18.7 5 17.4 5C16.05 5 15.0127 5.37067 14.288 6.112C13.5627 6.854 12.8 7.68333 12 8.6C11.2 7.66667 10.4377 6.83333 9.713 6.1C8.98767 5.36667 7.95 5 6.6 5C5.3 5 4.20833 5.44167 3.325 6.325C2.44167 7.20833 2 8.3 2 9.6C2 9.98333 2.04167 10.3583 2.125 10.725C2.20833 11.0917 2.325 11.4667 2.475 11.85C2.14167 12 1.85 12.2 1.6 12.45C1.35 12.7 1.13333 12.9833 0.95 13.3C0.65 12.7 0.416667 12.0917 0.25 11.475C0.0833333 10.8583 0 10.2333 0 9.6C0 7.73333 0.633333 6.16667 1.9 4.9C3.16667 3.63333 4.73333 3 6.6 3ZM1 22C0.716667 22 0.479333 21.904 0.288 21.712C0.096 21.5207 0 21.2833 0 21V20.425C0 19.6917 0.366667 19.1043 1.1 18.663C1.83333 18.221 2.8 18 4 18C4.21667 18 4.421 18.0083 4.613 18.025C4.80433 18.0417 4.99167 18.0667 5.175 18.1C4.94167 18.4333 4.77067 18.7917 4.662 19.175C4.554 19.5583 4.5 19.9667 4.5 20.4V22H1ZM7 22C6.71667 22 6.479 21.904 6.287 21.712C6.09567 21.5207 6 21.2833 6 21V20.4C6 19.3167 6.55433 18.4373 7.663 17.762C8.771 17.0873 10.2167 16.75 12 16.75C13.8 16.75 15.25 17.0873 16.35 17.762C17.45 18.4373 18 19.3167 18 20.4V21C18 21.2833 17.904 21.5207 17.712 21.712C17.5207 21.904 17.2833 22 17 22H7ZM19.5 22V20.4C19.5 19.9667 19.4417 19.5583 19.325 19.175C19.2083 18.7917 19.0417 18.4333 18.825 18.1C19.0083 18.0667 19.196 18.0417 19.388 18.025C19.5793 18.0083 19.7833 18 20 18C21.2 18 22.1667 18.221 22.9 18.663C23.6333 19.1043 24 19.6917 24 20.425V21C24 21.2833 23.904 21.5207 23.712 21.712C23.5207 21.904 23.2833 22 23 22H19.5ZM4 17C3.45 17 2.97933 16.8043 2.588 16.413C2.196 16.021 2 15.55 2 15C2 14.45 2.196 13.979 2.588 13.587C2.97933 13.1957 3.45 13 4 13C4.55 13 5.02067 13.1957 5.412 13.587C5.804 13.979 6 14.45 6 15C6 15.55 5.804 16.021 5.412 16.413C5.02067 16.8043 4.55 17 4 17ZM20 17C19.45 17 18.979 16.8043 18.587 16.413C18.1957 16.021 18 15.55 18 15C18 14.45 18.1957 13.979 18.587 13.587C18.979 13.1957 19.45 13 20 13C20.55 13 21.021 13.1957 21.413 13.587C21.8043 13.979 22 14.45 22 15C22 15.55 21.8043 16.021 21.413 16.413C21.021 16.8043 20.55 17 20 17ZM12 16C11.1667 16 10.4583 15.7083 9.875 15.125C9.29167 14.5417 9 13.8333 9 13C9 12.1667 9.29167 11.4583 9.875 10.875C10.4583 10.2917 11.1667 10 12 10C12.8333 10 13.5417 10.2917 14.125 10.875C14.7083 11.4583 15 12.1667 15 13C15 13.8333 14.7083 14.5417 14.125 15.125C13.5417 15.7083 12.8333 16 12 16Z" />
</svg>
