<svg width="24" height="24" viewBox="0 0 24 24" fill="currentColor" xmlns="http://www.w3.org/2000/svg">
<path d="M5.23034 20.2831C4.74007 19.7805 6.21927 18.1656 4.65373 16.6071C4.64861 16.6019 4.64367 16.5967 4.63891 16.5911L1.72753 13.2232C1.2583 12.6806 1 11.966 1 11.2112V6.42341C1 5.69367 1.54532 5.09998 2.21559 5.09998C2.88586 5.09998 3.39881 5.65334 3.42991 6.35971L3.62089 9.95476C3.65674 10.6322 3.94486 11.2569 4.41098 11.6687C4.42086 11.6775 4.43019 11.6869 4.43878 11.6967L6.53465 14.1293C6.73057 14.3583 6.91534 14.4777 7.02985 14.4504C7.09681 14.4341 7.15224 14.3673 7.18169 14.3154L4.84325 11.2289C4.833 11.2154 4.82404 11.201 4.81636 11.1859C4.41994 10.4012 4.57525 9.83498 5.31997 9.34999C5.53986 9.20667 5.79267 9.16201 6.05079 9.22069C6.56301 9.33718 9.56238 13.2137 10.2478 14.3199C11.2344 15.9121 11.2913 19.2269 10.175 20.2829C9.30097 21.11 6.52148 21.6069 5.23034 20.2831Z" />
<path d="M18.7697 20.2831C19.2599 19.7805 17.7807 18.1656 19.3463 16.6071C19.3514 16.6019 19.3563 16.5967 19.3611 16.5911L22.2725 13.2232C22.7417 12.6806 23 11.966 23 11.2112V6.42341C23 5.69367 22.4547 5.09998 21.7844 5.09998C21.1141 5.09998 20.6012 5.65334 20.5701 6.35971L20.3791 9.95476C20.3433 10.6322 20.0551 11.2569 19.589 11.6687C19.5791 11.6775 19.5698 11.6869 19.5612 11.6967L17.4653 14.1293C17.2694 14.3583 17.0847 14.4777 16.9701 14.4504C16.9032 14.4341 16.8478 14.3673 16.8183 14.3154L19.1568 11.2289C19.167 11.2154 19.176 11.201 19.1836 11.1859C19.5801 10.4012 19.4247 9.83498 18.68 9.34999C18.4601 9.20667 18.2073 9.16201 17.9492 9.22069C17.437 9.33718 14.4376 13.2137 13.7522 14.3199C12.7656 15.9121 12.7087 19.2269 13.825 20.2829C14.699 21.11 17.4785 21.6069 18.7697 20.2831Z" />
<path d="M16.35 3.45705C15.195 2.4558 13.4737 2.6358 12.4162 3.7458L12 4.18455L11.5837 3.74955C10.5262 2.6358 8.80499 2.4558 7.64999 3.45705C6.32624 4.60455 6.25499 6.66705 7.43999 7.91205L11.5237 12.1945C11.7862 12.472 12.2137 12.472 12.48 12.1945L16.5637 7.91205C17.745 6.66705 17.6775 4.60455 16.35 3.45705Z" />
</svg>
