<svg height="20" viewBox="0 0 20 20" width="20" xmlns="http://www.w3.org/2000/svg"><path d="m1.84333333 7.216c-.975-.624-1.66416666-1.46625-1.84333333-2.51025.41083333-.0225.8725-.02475 1.26666667-.129 1.4625-.3885 2.46916666-2.0985 4.31083333-2.07675 1.73.05025 2.285 1.4205 3.29 1.76475.07666667.027.17916667.04875.29833333.06675v-.5325c-.49833333-.2595-.83333333-.744-.83333333-1.299 0-.828.74666667-1.5 1.66666667-1.5.92000003 0 1.66666663.672 1.66666663 1.5 0 .555-.335 1.0395-.8333333 1.299v.5325c.12-.01725.2233333-.03975.3-.06675 1.005-.34425 1.56-1.7145 3.29-1.76475 1.8416667-.02175 2.8483333 1.68825 4.3108333 2.07675.3941667.10425.8558334.1065 1.2666667.129-.1791667 1.044-.8675 1.8855-1.8416667 2.5095-.9566666-.378-1.7716666-.91725-2.47-1.5645.195.792.6391667 1.55475 1.2341667 2.18475-.5808333.22725-1.2116667.3975-1.8641667.51-.8458333-.59325-1.505-1.29225-2.0916666-2.20725-.0033334.84.2016666 1.60275.5675 2.3625-.9225.03075-1.8475-.051-2.7016667-.25125v5.19225c.7025.1965 1.5925.45825 2.1183333.90075 1.6733334 1.40775.6916667 3.5235-1.2825 3.59025v-.75c1.055-.47025 1.2533334-1.47075-.8358333-2.1585v3.22575c0 .41475-.3733333.75-.83333333.75-.46 0-.83333334-.33525-.83333334-.75v-3.672c-1.62916666-.3825-4.47-.8775-4.44916666-3.00225.015-1.272 1.29166666-2.32575 2.77583333-2.32575h.00833333c.46083334 0 .83333334.336.83333334.75 0 .41175-.36833334.7455-.82416667.75-.69666667.00675-1.16.48825-1.12416667.894.08166667.843 1.85 1.167 2.78 1.383v-4.77675c-.8525.1995-1.775.28125-2.695.2505.36583334-.75975.57083334-1.5225.56666667-2.3625-.58666667.915-1.24583333 1.61475-2.0925 2.208-.6525-.1125-1.28333333-.28275-1.86416667-.50925.595-.63075 1.04-1.39425 1.235-2.18625-.69833333.648-1.515 1.188-2.4725 1.56525zm4.79 7.55775c.71916667.1875 1.37916667.34725 1.95833334.468-1.40916667.65175-1.24583334 1.5015-.25916667 1.941v.75c-1.78166667-.06-2.75416667-1.788-1.69916667-3.159zm5.06083337-1.9545c.7408333-.19275 1.86-.483 1.9208333-1.17525.0358333-.40725-.43-.88725-1.125-.894-.4558333-.0045-.8241667-.33825-.8241667-.75 0-.414.3733334-.75.8333334-.75h.0091666c1.4766667 0 2.7608334 1.04925 2.775 2.32575.0141667.95475-.7091666 1.77525-1.655 2.2005-.5-.37875-1.1641666-.68175-1.9341666-.957z" fill="#ff9504" fill-rule="evenodd"/></svg>