<svg width="25" height="25" viewBox="0 0 25 25" fill="currentColor" xmlns="http://www.w3.org/2000/svg">
<path d="M20.7812 21.875C18.5417 21.875 16.3585 21.3759 14.2318 20.3776C12.105 19.3793 10.2214 18.0599 8.58073 16.4193C6.9401 14.7786 5.62066 12.895 4.6224 10.7682C3.62413 8.64149 3.125 6.45833 3.125 4.21875C3.125 3.90625 3.22917 3.64583 3.4375 3.4375C3.64583 3.22917 3.90625 3.125 4.21875 3.125H8.4375C8.68056 3.125 8.89757 3.20312 9.08854 3.35938C9.27951 3.51562 9.39236 3.71528 9.42708 3.95833L10.1042 7.60417C10.1389 7.84722 10.1345 8.06858 10.0911 8.26823C10.0477 8.46788 9.94792 8.64583 9.79167 8.80208L7.29167 11.3542C8.02083 12.6042 8.93229 13.776 10.026 14.8698C11.1198 15.9635 12.3264 16.9097 13.6458 17.7083L16.0938 15.2604C16.25 15.1042 16.454 14.987 16.7057 14.9089C16.9575 14.8307 17.2049 14.809 17.4479 14.8438L21.0417 15.5729C21.2847 15.625 21.4844 15.7422 21.6406 15.9245C21.7969 16.1068 21.875 16.3194 21.875 16.5625V20.7812C21.875 21.0938 21.7708 21.3542 21.5625 21.5625C21.3542 21.7708 21.0938 21.875 20.7812 21.875Z"/>
</svg>
