<svg height="20" viewBox="0 0 20 20" width="20" xmlns="http://www.w3.org/2000/svg"><path d="m3.11909091 1.10166667 2.32690909-1.10166667 3.30627273 6.575-2.22954546 1.1175c-.44018182 1.04916667 1.76645455 5.2408333 2.69754546 5.31.07363636-.0483333 2.18536367-1.1066667 2.18536367-1.1066667l3.3627272 6.61s-2.2614545 1.1283334-2.3350909 1.1633334c-6.43172725 2.9925-15.62809088-15.21500003-9.31418179-18.56750003zm1.57909091 1.06166666-.837.42c-4.33145455 2.30166667 3.41754545 17.65416667 7.89381818 15.57166667l.7944545-.395-1.8580909-3.6525-.83945451.4166667c-2.58790909 1.2891666-6.75981818-6.8491667-4.13590909-8.2816667l.82390909-.41416667zm6.40799998 6.37416667 2.3866364.725c.1824545-.6225.1309091-1.31583333-.1963637-1.93083333-.3264545-.61583334-.868909-1.03916667-1.4792727-1.22416667zm1.476-5.04916667c1.269.385 2.394 1.26333334 3.0730909 2.5425.6799091 1.28.7854546 2.71916667.4074546 4.01083337l-1.4686364-.44583337c.2659091-.90916666.1906364-1.92166666-.288-2.8225-.477-.90083333-1.269-1.51833333-2.1624545-1.78833333zm.7772727-2.655c1.935.5875 3.6515455 1.92666667 4.6873637 3.88 1.0382727 1.9525 1.1994545 4.14833334.6226363 6.11999997l-1.5054545-.4566666c.4614545-1.5791667.3321818-3.33833337-.4974545-4.9016667-.8312728-1.56416667-2.2058182-2.6375-3.7562728-3.1075z" fill="#ff9504" fill-rule="evenodd"/></svg>