<?xml version="1.0" encoding="UTF-8"?>
<svg width="24px" height="24px" viewBox="0 0 24 24" version="1.1" xmlns="http://www.w3.org/2000/svg" xmlns:xlink="http://www.w3.org/1999/xlink">
    <title>icons/podcast</title>
    <g id="icons/podcast" stroke="none" stroke-width="1" fill="none" fill-rule="evenodd">
        <g id="podcast" transform="translate(1.000000, 0.000000)" fill="#6C7978">
            <path d="M13.0982344,22.9013906 C12.8571563,23.7924844 11.9464688,24 11.0625,24 C10.1785781,24 9.26784375,23.7924844 9.0268125,22.9013906 C8.66845312,21.5687813 8.0625,18.2295937 8.0625,16.6757812 C8.0625,15.0278438 9.52228125,14.625 11.0625,14.625 C12.6027188,14.625 14.0625,15.0278438 14.0625,16.6757812 C14.0625,18.2202656 13.4591719,21.5591719 13.0982344,22.9013906 Z M5.8125,10.875 C5.8125,8.00671875 8.10717187,5.6788125 10.963125,5.6259375 C13.8675469,5.57217187 16.30875,7.96321875 16.3125,10.8681094 C16.3141406,12.164625 15.8488125,13.3896094 14.9963906,14.3515313 C14.91,14.4490312 14.8990312,14.5926563 14.9738906,14.69925 C15.2221406,15.0527344 15.394875,15.4575 15.4862812,15.9034688 C15.5306719,16.1201719 15.7943906,16.2059531 15.9551719,16.0539844 C17.3365312,14.7486563 18.1960781,12.8970469 18.1875636,10.8444844 C18.171,6.90084375 14.9116406,3.69942188 10.9682812,3.7505625 C7.076625,3.80109375 3.9375,6.9714375 3.9375,10.875 C3.9375,12.9151406 4.79517187,14.75475 6.16940625,16.0535625 C6.330375,16.2057187 6.59428125,16.1204531 6.63876562,15.9034219 C6.730125,15.4574531 6.90290625,15.0526875 7.15115625,14.6992031 C7.22596875,14.5927031 7.21514063,14.449125 7.12879687,14.3517188 C6.27778125,13.3914844 5.8125,12.1690781 5.8125,10.875 Z M11.0860781,2.19126736e-05 C4.98778125,-0.012703125 0.056578125,4.860375 0.00046875,10.9584375 C-0.0418125,15.5565469 2.72175,19.5136875 6.68273438,21.2233125 C6.88842188,21.3120937 7.10967188,21.13425 7.06959375,20.9138438 C6.97434913,20.3910109 6.88813317,19.8665734 6.81098438,19.3407656 C6.79795096,19.2529564 6.74431845,19.1764155 6.66623438,19.1341875 C3.87210938,17.6074687 1.875,14.6175 1.875,11.0625 C1.875,5.98495313 5.98415625,1.875 11.0625,1.875 C16.1400469,1.875 20.25,5.98410937 20.25,11.0625 C20.25,14.5609688 18.3029063,17.5805156 15.4587656,19.1341875 C15.3806734,19.1763832 15.3270347,19.2529156 15.3140156,19.3407188 C15.2368593,19.8665254 15.1506434,20.3909627 15.0554062,20.9137969 C15.0153281,21.13425 15.236625,21.3120469 15.4423594,21.2232656 C19.3733438,19.5265312 22.125,15.6161719 22.125,11.0625 C22.125,4.9606875 17.1848906,0.01275 11.0860781,2.19126736e-05 Z M11.0625,7.5 C9.40565625,7.5 8.0625,8.84315625 8.0625,10.5 C8.0625,12.1568438 9.40565625,13.5 11.0625,13.5 C12.7193438,13.5 14.0625,12.1568438 14.0625,10.5 C14.0625,8.84315625 12.7193438,7.5 11.0625,7.5 Z" id="Shape"></path>
        </g>
    </g>
</svg>