<svg height="20" viewBox="0 0 20 20" width="20" xmlns="http://www.w3.org/2000/svg"><path d="m19 16.66-4.8003526-4.7655c.7027118-1.09875 1.1084711-2.4 1.1084711-3.79425.0007556-3.91425-3.2090504-7.10025-7.15405923-7.10025-3.94500881 0-7.15405927 3.186-7.15405927 7.101 0 3.91575 3.20905046 7.10175 7.15405927 7.10175 1.33590799 0 2.58492153-.36525 3.65636803-.99975l4.8328436 4.797zm-15.33422886-8.559c0-2.45475 2.01368483-4.4535 4.48753253-4.4535 2.47460333 0 4.48828813 1.998 4.48828813 4.4535 0 2.45625-2.0136848 4.45425-4.48828813 4.45425-2.4738477 0-4.48753253-1.998-4.48753253-4.45425z" fill="#ff9504" fill-rule="evenodd"/></svg>