<svg width="24" height="24" viewBox="0 0 24 24" fill="none" xmlns="http://www.w3.org/2000/svg">
<path d="M15.5 11C15.9333 11 16.2917 10.8583 16.575 10.575C16.8583 10.2917 17 9.93333 17 9.5C17 9.06667 16.8583 8.70833 16.575 8.425C16.2917 8.14167 15.9333 8 15.5 8C15.0667 8 14.7083 8.14167 14.425 8.425C14.1417 8.70833 14 9.06667 14 9.5C14 9.93333 14.1417 10.2917 14.425 10.575C14.7083 10.8583 15.0667 11 15.5 11ZM8.5 11C8.93333 11 9.29167 10.8583 9.575 10.575C9.85833 10.2917 10 9.93333 10 9.5C10 9.06667 9.85833 8.70833 9.575 8.425C9.29167 8.14167 8.93333 8 8.5 8C8.06667 8 7.70833 8.14167 7.425 8.425C7.14167 8.70833 7 9.06667 7 9.5C7 9.93333 7.14167 10.2917 7.425 10.575C7.70833 10.8583 8.06667 11 8.5 11ZM12 22C10.6167 22 9.31667 21.7373 8.1 21.212C6.88333 20.6873 5.825 19.975 4.925 19.075C4.025 18.175 3.31267 17.1167 2.788 15.9C2.26267 14.6833 2 13.3833 2 12C2 10.6167 2.26267 9.31667 2.788 8.1C3.31267 6.88333 4.025 5.825 4.925 4.925C5.825 4.025 6.88333 3.31233 8.1 2.787C9.31667 2.26233 10.6167 2 12 2C13.3833 2 14.6833 2.26233 15.9 2.787C17.1167 3.31233 18.175 4.025 19.075 4.925C19.975 5.825 20.6873 6.88333 21.212 8.1C21.7373 9.31667 22 10.6167 22 12C22 13.3833 21.7373 14.6833 21.212 15.9C20.6873 17.1167 19.975 18.175 19.075 19.075C18.175 19.975 17.1167 20.6873 15.9 21.212C14.6833 21.7373 13.3833 22 12 22ZM12 20C14.2167 20 16.1043 19.221 17.663 17.663C19.221 16.1043 20 14.2167 20 12C20 9.78333 19.221 7.89567 17.663 6.337C16.1043 4.779 14.2167 4 12 4C9.78333 4 7.896 4.779 6.338 6.337C4.77933 7.89567 4 9.78333 4 12C4 14.2167 4.77933 16.1043 6.338 17.663C7.896 19.221 9.78333 20 12 20ZM8.125 17C8.24167 17 8.36267 16.9667 8.488 16.9C8.61267 16.8333 8.70833 16.75 8.775 16.65C9.14167 16.15 9.6 15.75 10.15 15.45C10.7 15.15 11.3167 15 12 15C12.6833 15 13.3 15.15 13.85 15.45C14.4 15.75 14.8583 16.15 15.225 16.65C15.2917 16.75 15.3833 16.8333 15.5 16.9C15.6167 16.9667 15.7333 17 15.85 17C16.15 17 16.371 16.8667 16.513 16.6C16.6543 16.3333 16.625 16.05 16.425 15.75C15.9917 15.1 15.3833 14.5623 14.6 14.137C13.8167 13.7123 12.95 13.5 12 13.5C11.05 13.5 10.1833 13.7123 9.4 14.137C8.61667 14.5623 8 15.1167 7.55 15.8C7.36667 16.0833 7.346 16.3543 7.488 16.613C7.62933 16.871 7.84167 17 8.125 17Z" fill="#E56F65"/>
</svg>
