<svg width="20" height="20" viewBox="0 0 20 20" fill="none" xmlns="http://www.w3.org/2000/svg">
<path d="M13.3333 14.1749V9.1666C13.3333 8.70827 12.9583 8.33327 12.5 8.33327C12.0417 8.33327 11.6667 8.70827 11.6667 9.1666V14.1749H10.175C9.79999 14.1749 9.61666 14.6249 9.88333 14.8833L12.2083 17.1999C12.375 17.3583 12.6333 17.3583 12.8 17.1999L15.125 14.8833C15.3917 14.6249 15.2 14.1749 14.8333 14.1749H13.3333ZM7.20833 2.7916L4.88333 5.1166C4.61666 5.37493 4.79999 5.82493 5.17499 5.82493H6.66666V10.8333C6.66666 11.2916 7.04166 11.6666 7.49999 11.6666C7.95833 11.6666 8.33333 11.2916 8.33333 10.8333V5.82493H9.82499C10.2 5.82493 10.3833 5.37493 10.1167 5.1166L7.79166 2.7916C7.63333 2.63327 7.36666 2.63327 7.20833 2.7916Z" fill="#30578E"/>
</svg>
