<svg width="730" height="389" viewBox="0 0 730 389" fill="none" xmlns="http://www.w3.org/2000/svg">
<path d="M537.845 103.74C539.036 102.547 539.835 101.021 540.136 99.3641C540.49 96.1419 540.568 92.8956 540.37 89.6603C540.476 87.673 540.37 85.432 540.37 85.432C539.797 85.1718 539.149 85.1267 538.545 85.3052C537.296 86.0161 536.551 87.3623 536.614 88.7935C535.962 86.7357 535.57 84.6052 535.447 82.4511C535.355 80.3163 535.577 78.1797 536.104 76.1087C536.423 74.9882 538.227 74.2271 537.526 73.0221C536.826 71.817 535.298 72.4512 534.725 73.0221L533.515 74.1848C533.515 74.1848 533.027 73.6986 532.221 74.3962C531.676 74.9176 531.243 75.5432 530.948 76.2355C530.948 76.2355 529.674 76.003 529.123 77.7366C528.378 80.6513 528.233 83.6863 528.698 86.6582C529.25 90.1888 530.014 93.508 530.014 93.508" fill="#7B5A4B"/>
<path d="M530.014 93.36C530.014 93.36 526.682 112.049 524.581 122.768C522.459 133.803 524.051 150.251 524.051 150.251L544.211 140.103C542.407 136.15 539.967 106.277 538.693 102.662" fill="#7B5A4B"/>
<path d="M598.918 108.899C589.602 114.163 580.647 130.4 572.286 141.647C563.925 152.894 559.766 154.099 555.309 151.943C550.853 149.786 546.821 143.127 545.335 139.469C540.102 140.563 534.996 142.192 530.099 144.332C526.916 146.064 524.047 148.315 521.61 150.991C521.61 150.991 522.353 153.866 523.626 157.46C524.48 159.738 525.948 161.735 527.871 163.232C527.871 163.232 531.308 176.995 551.214 182.259C571.119 187.523 585.167 179.722 595.778 171.371C608.383 161.393 619.8 142.154 619.8 142.154C619.8 142.154 626.463 125.241 616.553 115.495C606.643 105.749 598.918 108.899 598.918 108.899Z" fill="#485CA8"/>
<path opacity="0.07" d="M523.563 157.376C522.29 153.782 521.547 150.907 521.547 150.907C523.984 148.231 526.853 145.98 530.035 144.247C534.932 142.108 540.038 140.478 545.272 139.385C546.452 142.147 547.993 144.741 549.856 147.101C544.299 147.75 539.04 149.948 534.683 153.444C531.675 156.082 529.315 159.373 527.786 163.063C525.884 161.586 524.424 159.62 523.563 157.376Z" fill="white"/>
<rect width="16.7838" height="70.8529" rx="0.47" transform="matrix(0.984373 -0.176099 0.177386 0.984141 477.562 217.423)" fill="#494D7F"/>
<rect width="16.7838" height="70.8529" rx="0.47" transform="matrix(0.984373 -0.176099 0.177386 0.984141 460.097 217.411)" fill="#37B99A"/>
<rect width="16.7838" height="70.8529" rx="0.47" transform="matrix(0.984373 -0.176099 0.177386 0.984141 373.52 217.413)" fill="#07233E"/>
<rect width="16.7838" height="70.8529" rx="0.47" transform="matrix(0.984373 -0.176099 0.177386 0.984141 356.409 217.423)" fill="#494D7F"/>
<rect x="356.299" y="286.993" width="16.7858" height="77.948" rx="3.33" transform="rotate(-180 356.299 286.993)" fill="#494D7F"/>
<rect x="338.75" y="286.993" width="16.7858" height="77.948" rx="3.33" transform="rotate(180 338.75 286.993)" fill="#07233E"/>
<rect x="321.051" y="286.993" width="16.7857" height="77.948" rx="3.33" transform="rotate(-180 321.051 286.993)" fill="#EE584B"/>
<rect x="303.183" y="286.993" width="16.7858" height="77.948" rx="3.33" transform="rotate(-180 303.183 286.993)" fill="#494D7F"/>
<rect x="285.188" y="286.993" width="16.7858" height="77.948" rx="3.33" transform="rotate(180 285.188 286.993)" fill="#37B99A"/>
<rect x="336.097" y="231.793" width="11.3108" height="9.95755" transform="rotate(-180 336.097 231.793)" fill="white"/>
<rect x="353.71" y="231.793" width="11.3108" height="9.95755" transform="rotate(-180 353.71 231.793)" fill="white"/>
<rect width="11.3095" height="9.95869" transform="matrix(-0.985009 0.172503 -0.173765 -0.984787 494.557 232.475)" fill="white"/>
<rect width="11.3095" height="9.95869" transform="matrix(-0.985009 0.172502 -0.173765 -0.984787 476.889 232.474)" fill="white"/>
<rect x="318.335" y="231.793" width="11.3108" height="9.95755" transform="rotate(-180 318.335 231.793)" fill="white"/>
<rect x="300.573" y="231.793" width="11.3107" height="9.95755" transform="rotate(-180 300.573 231.793)" fill="white"/>
<rect x="282.769" y="231.793" width="11.3107" height="9.95755" transform="rotate(-180 282.769 231.793)" fill="white"/>
<path fill-rule="evenodd" clip-rule="evenodd" d="M516.072 197.861H252.656V296.739H516.072V197.861ZM506.183 207.734V286.866H262.545V207.734H506.183Z" fill="#ECE5CB"/>
<rect x="554.482" y="309.424" width="344.352" height="12.6848" transform="rotate(-180 554.482 309.424)" fill="#ECE5CB"/>
<rect x="536.253" y="360.184" width="12.7325" height="50.7603" transform="rotate(-180 536.253 360.184)" fill="#ECE5CB"/>
<g style="mix-blend-mode:multiply" opacity="0.17">
<rect x="536.253" y="315.555" width="12.7325" height="6.13098" transform="rotate(-180 536.253 315.555)" fill="#134D82"/>
</g>
<rect x="237.208" y="360.184" width="12.7325" height="50.7603" transform="rotate(-180 237.208 360.184)" fill="#ECE5CB"/>
<g style="mix-blend-mode:multiply" opacity="0.17">
<rect x="237.208" y="315.555" width="12.7325" height="6.13098" transform="rotate(-180 237.208 315.555)" fill="#134D82"/>
</g>
<path d="M610.208 323.779C610.208 323.779 610.632 322.468 611.375 322.659C612.118 322.849 614.516 324.561 615.449 324.9C616.383 325.238 621.179 328.176 621.179 328.176C621.179 328.176 608.065 355.766 598.94 362.002C589.815 368.239 583.215 366.442 583.215 366.442C583.285 364.564 584.04 362.775 585.337 361.411C586.165 360.459 591.703 356.929 592.361 353.715C593.019 350.502 593.528 345.259 593.825 344.624C594.122 343.99 597.157 342.51 597.157 342.51L610.208 323.779Z" fill="#292827"/>
<path d="M617.656 326.062C619.29 327.014 621.179 328.176 621.179 328.176C621.179 328.176 608.065 355.766 598.94 362.002C589.815 368.239 583.215 366.442 583.215 366.442C583.212 366.03 583.255 365.619 583.342 365.216C589.057 365.647 594.688 363.641 598.833 359.698C602.505 356.379 607.555 346.337 610.717 341.051C613.603 336.147 615.747 329.804 617.656 326.062Z" fill="#ACB2B2"/>
<path d="M610.717 332.257C610.47 334.095 610.029 335.902 609.402 337.648C608.913 338.155 603.269 341.199 600.468 342.806C597.985 344.202 595.183 346.295 593.443 345.977C593.508 345.506 593.608 345.039 593.74 344.582C594.038 343.906 597.072 342.468 597.072 342.468L610.208 323.842C610.208 323.842 610.632 322.532 611.375 322.722C611.798 322.871 612.197 323.077 612.563 323.335C611.948 326.591 611.29 329.804 610.717 332.257Z" fill="#181F29"/>
<path d="M595.099 306.887C599.867 312.833 605.134 318.364 610.844 323.42C610.844 323.42 609.019 332.658 608.531 336.316C604.308 338.933 599.904 341.25 595.353 343.25C595.675 341.813 595.456 340.309 594.738 339.022C593.507 337.563 573.729 318.24 573.729 318.24L595.099 306.887Z" fill="#7B5A4B"/>
<path d="M556.286 250.461C556.286 250.461 572.159 266.507 578.737 276.486C585.316 286.465 592.913 298.853 592.913 298.853C592.913 298.853 596.075 300.08 596.817 301.538C597.56 302.997 598.94 305.767 597.051 307.12C595.162 308.473 571.416 323.906 569.464 323.906C567.511 323.906 565.814 317.838 565.814 317.838C565.814 317.838 530.651 277.67 524.794 273.082C518.937 268.495 522.035 242.681 522.035 242.681L556.286 250.461Z" fill="#343A39"/>
<path opacity="0.07" d="M596.817 301.538C597.539 302.997 598.939 305.767 597.051 307.12C595.162 308.473 571.416 323.906 569.464 323.906C567.511 323.906 565.814 317.838 565.814 317.838C570.44 315.724 583.873 304.456 592.913 298.811C592.913 298.853 596.075 300.08 596.817 301.538Z" fill="white"/>
<path d="M308.595 181.202H288.074L287.586 171.773H309.083L308.595 181.202Z" fill="#C07F52"/>
<path d="M305.56 193.887H291.109L289.453 181.202H307.215L305.56 193.887Z" fill="#C07F52"/>
<path d="M305.921 196.804H290.727L289.241 194.331C289.188 194.24 289.188 194.127 289.241 194.036C289.293 193.945 289.39 193.888 289.496 193.887H307.088C307.194 193.888 307.291 193.945 307.343 194.036C307.396 194.127 307.396 194.24 307.343 194.331L305.921 196.804Z" fill="#C07F52"/>
<ellipse cx="298.345" cy="171.773" rx="10.759" ry="6.21554" fill="#C9916B"/>
<path d="M298.345 176.826C295.395 176.826 288.583 176.34 288.583 171.773C288.583 169.321 291.151 166.72 298.345 166.72C301.974 166.72 308.085 167.376 308.085 171.773C308.085 174.078 306.409 176.826 298.345 176.826Z" fill="#333333"/>
<g style="mix-blend-mode:multiply" opacity="0.32">
<path d="M289.835 184.056C292.427 182.643 295.382 182.032 298.324 182.301C300.955 182.301 304.881 182.555 306.812 183.95L307.173 181.202H289.453L289.835 184.056Z" fill="#485F96"/>
</g>
<g style="mix-blend-mode:multiply" opacity="0.32">
<path d="M291.045 193.295L291.109 193.887H305.56L305.645 193.295H291.045Z" fill="#485F96"/>
</g>
<path d="M269.506 152.788C269.506 152.788 275.554 152.048 279.119 154.353C284.268 158.213 288.847 162.775 292.722 167.904C293.549 169.071 294.147 170.384 294.483 171.773H289.411C289.411 171.773 288.647 169.892 287.14 169.659C285.48 169.476 284.019 168.486 283.236 167.016C283.021 165.678 281.879 164.682 280.52 164.648C278.631 164.31 278.185 163.042 277.761 161.456C277.286 159.907 275.884 158.823 274.259 158.75C272.498 158.475 272.392 156.319 272.328 155.621C272.265 154.923 271.395 155.008 270.715 154.395C270.254 153.905 269.849 153.366 269.506 152.788H269.506Z" fill="#21312A"/>
<path d="M302.738 171.773C302.738 171.773 310.208 154.458 315.237 147.017C318.345 142.45 321.899 138.201 325.847 134.332C326.023 134.885 326.066 135.471 325.975 136.044C325.39 137.008 324.94 138.046 324.638 139.131C324.962 140.278 324.962 141.493 324.638 142.64C323.959 143.972 322.643 144.311 322.643 145.452C322.643 146.594 323.534 147.566 322.643 148.983C321.752 150.399 320.203 150.082 319.821 151.203C319.439 152.323 319.927 153.444 319.417 154.564C318.908 155.685 317.592 155.769 317.295 156.53C316.998 157.291 317.062 158.2 316.234 159.194C315.407 160.188 314.112 160.019 313.645 160.885C313.354 161.887 312.879 162.826 312.245 163.655C311.417 164.479 311.099 163.972 310.696 164.86C310.292 165.748 310.483 166.065 309.826 166.974C309.168 167.883 308.17 167.904 307.703 168.792C307.237 169.68 306.494 171.773 306.494 171.773H302.738Z" fill="#21312A"/>
<path d="M291.597 116.277C295.547 124.451 298.34 133.131 299.894 142.07C301.322 151.938 301.826 161.917 301.401 171.879H293.358C293.358 171.879 289.984 149.955 290.324 147.397C290.663 144.839 289.772 144.332 289.729 143.169C289.729 141.055 290.727 140.209 290.578 139.3C290.43 138.391 289.666 137.799 289.857 136.15C290.048 134.501 290.854 134.374 290.854 133.211C290.854 132.049 289.581 131.097 290.069 129.216C290.557 127.334 291.597 127.102 291.597 125.727C291.597 124.353 290.769 123.465 290.663 121.499C290.702 119.721 291.017 117.959 291.597 116.277V116.277Z" fill="#21312A"/>
<path d="M297.666 171.773C297.666 171.773 295.417 161.054 294.101 155.854C292.29 149.255 289.756 142.874 286.546 136.826C284.594 133.799 282.123 131.137 279.246 128.962C279.361 130.08 279.61 131.18 279.989 132.239C280.571 133.647 280.571 135.228 279.989 136.636C279.173 138.253 279.48 140.208 280.753 141.499C281.949 142.965 282.272 144.954 281.602 146.721C280.879 148.451 281.291 150.447 282.642 151.752C284 152.823 284.477 154.663 283.809 156.255C283.113 158.477 283.523 160.896 284.912 162.767C286.737 164.881 287.395 165.24 287.289 166.636C287.185 168.855 287.989 171.022 289.517 172.64L297.666 171.773Z" fill="#37B99A"/>
<g style="mix-blend-mode:multiply" opacity="0.28">
<path fill-rule="evenodd" clip-rule="evenodd" d="M280.703 134.655C280.93 134.574 281.269 134.452 282.005 134.226L282.196 134.416C282.08 134.453 281.937 134.503 281.763 134.565C281.43 134.684 280.986 134.841 280.413 135.008V134.755C280.505 134.726 280.59 134.696 280.703 134.655ZM281.432 134.416L280.838 134.649C281.029 134.554 281.228 134.476 281.432 134.416ZM281.984 134.268C281.64 134.354 281.306 134.474 280.986 134.628C281.31 134.485 281.643 134.365 281.984 134.268Z" fill="#292827"/>
<path fill-rule="evenodd" clip-rule="evenodd" d="M281.581 135.685C282.071 135.595 282.553 135.468 283.024 135.304L283.215 135.579C282.579 135.761 281.936 135.918 281.289 136.052C282.401 136.423 283.18 137.487 283.139 138.707C283.09 140.166 281.889 141.324 280.424 141.324C278.959 141.324 277.758 140.166 277.709 138.707C277.661 137.249 278.782 136.014 280.244 135.917C280.68 135.795 281.128 135.717 281.581 135.685Z" fill="#292827"/>
<path fill-rule="evenodd" clip-rule="evenodd" d="M284.106 136.742L283.979 136.552H283.83H283.597L282.366 136.848C281.436 137.129 281.107 137.254 280.875 137.343C280.689 137.414 280.565 137.461 280.244 137.545L280.244 137.545L280.244 137.545L280.244 137.545C280.331 137.51 280.371 137.495 280.37 137.493C280.37 137.492 280.343 137.499 280.294 137.514L280.294 137.514L280.294 137.514C280.185 137.545 279.968 137.609 279.692 137.672H279.756V137.905C280.711 137.666 281.653 137.377 282.578 137.038L284.106 136.742ZM281.623 137.144L281.298 137.255C281.2 137.286 281.103 137.319 281.008 137.355L281.298 137.255C281.42 137.217 281.544 137.183 281.67 137.153C281.682 137.15 281.695 137.147 281.708 137.144H281.694H281.623Z" fill="#292827"/>
<path d="M284.063 136.742C283.681 136.742 283.872 136.742 283.894 136.742C283.915 136.742 283.979 136.805 284.063 136.742Z" fill="#292827"/>
<path fill-rule="evenodd" clip-rule="evenodd" d="M284.912 137.799L284.785 137.63L283.788 137.989C282.344 138.256 280.925 138.638 279.543 139.131V139.279C280.759 138.865 281.999 138.526 283.257 138.264C283.826 138.179 284.382 138.023 284.912 137.799ZM280.541 138.835L279.925 139.068C280.122 138.97 280.329 138.892 280.541 138.835Z" fill="#292827"/>
<path d="M282.727 138.518C282.854 138.518 282.727 138.518 282.896 138.518C282.514 138.539 282.705 138.518 282.727 138.518Z" fill="#292827"/>
<path fill-rule="evenodd" clip-rule="evenodd" d="M285.146 139.173L285.782 139.004L285.655 138.835C284.682 138.989 283.724 139.222 282.79 139.533C281.866 139.906 280.906 140.182 279.925 140.357V140.569C280.367 140.492 280.804 140.393 281.234 140.273C281.734 140.133 282.225 139.963 282.705 139.765C283.504 139.511 284.319 139.313 285.146 139.173Z" fill="#292827"/>
<path fill-rule="evenodd" clip-rule="evenodd" d="M284.361 140.843C284.394 140.836 284.428 140.829 284.461 140.822H284.467L284.361 140.843ZM284.461 140.822C285.158 140.672 285.836 140.446 286.483 140.146V139.977C286.365 140.013 286.242 140.051 286.111 140.093C285.626 140.246 285.035 140.432 284.233 140.632H284L282.769 140.928C281.873 141.198 281.533 141.322 281.293 141.409C281.158 141.458 281.055 141.495 280.901 141.541L281.092 141.731C281.917 141.495 282.308 141.343 282.558 141.245C282.778 141.16 282.889 141.117 283.087 141.097L284.233 140.822H284.461ZM285.188 140.421H285.294C284.997 140.484 284.997 140.463 285.188 140.421ZM282.005 141.224L281.93 141.25C281.744 141.294 281.563 141.357 281.39 141.435L281.93 141.25C281.96 141.242 281.991 141.235 282.022 141.229C281.866 141.287 281.712 141.349 281.559 141.414H281.602C281.741 141.347 281.884 141.284 282.028 141.228C282.034 141.226 282.041 141.225 282.047 141.224H282.038C282.051 141.219 282.063 141.214 282.076 141.209C282.228 141.154 282.381 141.103 282.536 141.055C282.38 141.1 282.227 141.152 282.076 141.209C282.062 141.214 282.049 141.219 282.036 141.224H282.005ZM282.036 141.224C282.031 141.226 282.027 141.227 282.022 141.229C282.024 141.229 282.026 141.228 282.028 141.228C282.031 141.227 282.035 141.225 282.038 141.224H282.036Z" fill="#292827"/>
<path d="M284.361 142.239C285.676 141.964 285.316 141.731 287.225 141.33L287.098 141.118C286.377 141.33 285.634 141.668 283.703 142.154H283.469L282.238 142.45L281.559 142.662L282.09 142.471L281.559 142.662C281.568 142.732 281.568 142.803 281.559 142.873L282.196 142.64L284.361 142.239Z" fill="#292827"/>
<path d="M283.936 142.344C283.554 142.344 283.766 142.344 283.766 142.344C283.766 142.344 283.851 142.387 283.936 142.344Z" fill="#292827"/>
<path fill-rule="evenodd" clip-rule="evenodd" d="M287.31 142.725C286.819 142.928 286.306 143.077 285.782 143.169C285.006 143.322 284.24 143.527 283.49 143.782C283.246 143.873 283.037 143.956 282.857 144.027C282.41 144.203 282.138 144.311 281.941 144.311C281.952 144.233 281.952 144.155 281.941 144.078C282.345 143.972 282.833 143.803 283.49 143.571C284.461 143.256 285.454 143.016 286.461 142.852L287.459 142.535L287.968 142.387C287.975 142.443 287.975 142.5 287.968 142.556L287.31 142.725Z" fill="#292827"/>
<path fill-rule="evenodd" clip-rule="evenodd" d="M288.605 143.613V143.761C288.11 143.976 287.599 144.153 287.077 144.289L284.955 144.776C283.99 145.13 283.005 145.426 282.005 145.664V145.41C282.355 145.336 282.61 145.262 282.737 145.225L282.737 145.225C282.796 145.208 282.828 145.199 282.829 145.201C282.83 145.204 282.79 145.222 282.705 145.262C283.016 145.171 283.142 145.123 283.319 145.055L283.319 145.055L283.319 145.055C283.552 144.967 283.874 144.844 284.827 144.543L286.079 144.268H286.313C287.281 144.037 287.949 143.823 288.461 143.659L288.605 143.613ZM284.063 144.86L283.469 145.093C283.659 144.991 283.858 144.906 284.063 144.839V144.86Z" fill="#292827"/>
<path d="M285.973 144.332H286.228C286.037 144.289 285.91 144.332 285.973 144.332Z" fill="#292827"/>
<path d="M286.483 144.459C286.101 144.459 286.313 144.459 286.313 144.459C286.313 144.459 286.355 144.501 286.483 144.459Z" fill="#292827"/>
<path fill-rule="evenodd" clip-rule="evenodd" d="M287.688 145.422C287.588 145.434 287.497 145.446 287.374 145.494C286.892 145.659 286.408 145.814 285.921 145.96C285.384 146.12 284.845 146.269 284.302 146.406C284.094 146.359 283.88 146.33 283.66 146.319C283.875 146.331 284.085 146.361 284.288 146.409C283.679 146.563 283.066 146.702 282.451 146.826L281.665 147.143C281.656 147.052 281.656 146.96 281.665 146.869C282.627 146.466 283.642 146.203 284.679 146.086C285.625 145.88 286.554 145.604 287.459 145.262C288.032 145.053 288.621 144.89 289.22 144.776V144.987C288.938 145.03 288.661 145.1 288.392 145.198C288.027 145.38 287.847 145.403 287.688 145.422ZM284.288 146.409C285.88 146.786 287.037 148.233 286.991 149.918C286.939 151.819 285.378 153.333 283.469 153.333C281.561 153.333 280 151.819 279.948 149.918C279.896 148.018 281.373 146.422 283.278 146.319C281.22 146.422 279.62 148.141 279.672 150.194C279.724 152.246 281.409 153.883 283.469 153.883C285.53 153.883 287.215 152.246 287.267 150.194C287.313 148.36 286.041 146.793 284.302 146.406C284.297 146.407 284.293 146.408 284.288 146.409Z" fill="#292827"/>
<path fill-rule="evenodd" clip-rule="evenodd" d="M287.31 146.742H287.146L288.59 146.333C288.167 146.482 287.741 146.618 287.31 146.742ZM288.59 146.333C289.009 146.186 289.425 146.026 289.835 145.854V145.981L288.59 146.333ZM284.45 147.505L287.146 146.742H287.077L285.846 147.038C285.036 147.293 284.681 147.42 284.45 147.505ZM283.428 147.794C283.526 147.774 283.625 147.754 283.724 147.735C284.071 147.644 284.187 147.601 284.402 147.523L284.45 147.505L283.428 147.794ZM281.971 148.177L282.366 148.095L283.428 147.794C282.936 147.897 282.45 148.025 281.971 148.177ZM281.971 148.177L281.347 148.306L281.963 148.179L281.971 148.177ZM285.146 147.418L284.551 147.651C284.737 147.523 284.936 147.416 285.146 147.334V147.418Z" fill="#292827"/>
<path d="M281.262 148.391L282.217 148.137L281.262 148.391Z" fill="#292827"/>
<path d="M279.989 132.281H280.116L279.968 132.133V132.302L279.989 132.281Z" fill="#292827"/>
<path d="M281.22 133.38H281.05H281.22L280.413 133.613C280.413 133.613 280.413 133.761 280.413 133.846L281.39 133.592L281.22 133.38Z" fill="#292827"/>
<path fill-rule="evenodd" clip-rule="evenodd" d="M289.708 161.456L290.854 161.181H291.088C291.824 161.027 292.537 160.778 293.21 160.441H293.57V160.251C292.722 160.564 291.858 160.832 290.981 161.054H290.812L289.326 161.393C288.469 161.663 288.128 161.789 287.9 161.874C287.682 161.955 287.567 161.997 287.204 162.09C286.602 162.206 286.007 162.355 285.422 162.534L284.721 162.682L284.87 162.873C286.51 162.501 288.126 162.028 289.708 161.456ZM291.83 160.716H291.979C291.682 160.78 291.661 160.674 291.873 160.674L291.83 160.716ZM288.69 161.52L288.567 161.562C288.4 161.608 288.235 161.664 288.074 161.731L288.567 161.562C288.622 161.546 288.677 161.532 288.732 161.52H288.69ZM285.846 162.323C285.477 162.425 285.101 162.503 284.721 162.556L285.846 162.323Z" fill="#292827"/>
<path fill-rule="evenodd" clip-rule="evenodd" d="M293.91 161.477V161.689C293.161 161.825 292.424 162.016 291.703 162.26C290.03 162.818 288.322 163.263 286.589 163.591L285.91 163.866L285.74 163.676C286.432 163.395 287.147 163.176 287.877 163.023C287.894 163.021 287.911 163.021 287.926 163.021C288.107 162.992 288.121 162.985 288.051 162.988C288.333 162.933 288.616 162.887 288.902 162.851C289.838 162.645 290.76 162.377 291.661 162.048C292.383 161.763 293.139 161.572 293.91 161.477ZM288.051 162.988C288.003 162.989 287.918 162.996 287.82 163.003L287.82 163.003H287.82C287.739 163.009 287.649 163.015 287.565 163.021C287.176 163.173 287.245 163.156 287.431 163.111L287.431 163.111L287.431 163.111C287.561 163.079 287.75 163.034 287.877 163.023C287.935 163.011 287.993 162.999 288.051 162.988Z" fill="#292827"/>
<path fill-rule="evenodd" clip-rule="evenodd" d="M292.953 163.362C292.674 163.487 292.429 163.597 291.809 163.718L289.793 164.162C288.873 164.508 287.93 164.791 286.971 165.008L286.822 164.818C286.912 164.791 286.999 164.765 287.08 164.74C287.575 164.591 287.878 164.5 287.586 164.627C287.933 164.536 288.05 164.493 288.264 164.415L288.264 164.415C288.462 164.342 288.743 164.239 289.368 164.038C289.471 164.005 289.584 163.969 289.708 163.93L290.96 163.634H291.194C292.437 163.324 293.175 163.07 293.749 162.873C293.881 162.827 294.004 162.785 294.122 162.746V162.957C293.493 163.119 293.208 163.247 292.953 163.362ZM292.297 163.422H292.127L292.127 163.422C292.046 163.449 291.999 163.465 292 163.469C292.002 163.474 292.09 163.459 292.297 163.422Z" fill="#292827"/>
<path fill-rule="evenodd" clip-rule="evenodd" d="M294.334 164.12V164.353C293.078 164.61 291.844 164.963 290.642 165.41C289.512 165.639 288.399 165.942 287.31 166.319C287.301 166.249 287.301 166.177 287.31 166.107L287.663 165.967C288.783 165.597 289.927 165.305 291.088 165.092C292.114 164.606 293.209 164.278 294.334 164.12ZM287.663 165.967C287.545 166.006 287.428 166.045 287.31 166.086L287.841 165.896L287.663 165.967ZM293.864 164.299C293.767 164.318 293.587 164.353 293.422 164.353V164.31C292.7 164.522 293.401 164.501 293.783 164.353C293.979 164.276 293.968 164.279 293.864 164.299ZM287.374 166.15C287.693 166.02 288.019 165.907 288.35 165.811L287.374 166.15ZM290.048 165.41H289.942V165.367C290.43 165.262 290.409 165.41 290.048 165.41Z" fill="#292827"/>
<path d="M290.005 165.6C290.154 165.6 290.005 165.6 290.175 165.6C289.793 165.621 290.005 165.6 290.005 165.6Z" fill="#292827"/>
<path fill-rule="evenodd" clip-rule="evenodd" d="M292.424 166.255C292.949 166.167 293.462 166.018 293.952 165.811L294.547 165.663V165.473L294.016 165.621L293.019 165.938C292.012 166.104 291.019 166.345 290.048 166.657C289.149 167.019 288.219 167.295 287.268 167.481V167.693C288.223 167.536 289.156 167.266 290.048 166.889C290.824 166.624 291.619 166.412 292.424 166.255Z" fill="#292827"/>
<path fill-rule="evenodd" clip-rule="evenodd" d="M287.544 168.834V169.046C288.917 168.694 289.46 168.492 289.781 168.372C290.001 168.29 290.117 168.247 290.324 168.221L291.47 167.946H291.682C292.455 167.803 293.205 167.554 293.91 167.207L294.759 166.974V166.763C294.529 166.83 294.293 166.91 294.022 167.002L294.022 167.002L294.022 167.002L294.022 167.002C293.439 167.2 292.692 167.453 291.491 167.756H291.236L290.005 168.052C289.076 168.334 288.746 168.459 288.514 168.547L288.514 168.547C288.328 168.618 288.205 168.665 287.883 168.75H287.544V168.834ZM292.467 167.503H292.637C292.276 167.566 292.276 167.545 292.467 167.503Z" fill="#292827"/>
<path fill-rule="evenodd" clip-rule="evenodd" d="M294.992 168.327C293.87 168.592 292.764 168.924 291.682 169.321L289.581 169.765C288.987 169.997 288.435 170.166 287.947 170.314V170.195V170.103C288.48 169.882 289.026 169.692 289.581 169.532L290.833 169.257H291.066C292.31 168.933 293.057 168.68 293.632 168.486C294.145 168.312 294.522 168.184 294.992 168.095V168.327ZM294.992 168.095H294.865C294.742 168.095 294.518 168.153 294.37 168.192C294.184 168.241 294.116 168.259 294.504 168.095C294.667 168.085 294.83 168.085 294.992 168.095ZM288.859 169.807L288.265 170.04C288.456 169.945 288.655 169.867 288.859 169.807ZM288.951 169.831C288.761 169.918 288.587 169.997 288.414 169.997L289.164 169.737C289.09 169.767 289.02 169.8 288.951 169.831ZM289.39 169.659L289.164 169.737C289.236 169.708 289.311 169.681 289.39 169.659Z" fill="#292827"/>
<path d="M291.236 169.426C290.833 169.426 291.045 169.426 291.066 169.426C291.088 169.426 291.151 169.49 291.236 169.426Z" fill="#292827"/>
<path fill-rule="evenodd" clip-rule="evenodd" d="M293.061 170.251C293.586 170.162 294.099 170.013 294.589 169.807L295.226 169.659V169.469L294.674 169.617L293.677 169.913C292.67 170.09 291.677 170.337 290.706 170.653C289.581 171.033 288.881 171.245 288.435 171.35C288.442 171.413 288.442 171.477 288.435 171.541C288.671 171.492 288.906 171.436 289.138 171.371C289.623 171.237 290.097 171.067 290.557 170.864C291.376 170.6 292.213 170.395 293.061 170.251Z" fill="#292827"/>
<path fill-rule="evenodd" clip-rule="evenodd" d="M295.459 170.991C295.053 171.205 294.617 171.355 294.165 171.435L292.17 171.815C291.629 172.015 291.134 172.182 290.683 172.323C290.515 172.376 290.352 172.425 290.196 172.471H289.623L289.475 172.344H289.432C289.687 172.344 289.889 172.312 289.989 172.296C290.034 172.289 290.059 172.285 290.06 172.289C290.061 172.293 290.024 172.309 289.942 172.344C290.258 172.254 290.386 172.206 290.558 172.141C290.79 172.054 291.102 171.937 292.064 171.646L293.316 171.35H293.549C294.377 171.139 294.992 170.949 295.459 170.801V170.991ZM291.342 171.921L290.748 172.154C290.939 172.059 291.138 171.981 291.342 171.921ZM290.897 172.132C291.22 171.99 291.554 171.87 291.894 171.773C291.552 171.864 291.218 171.985 290.897 172.132Z" fill="#292827"/>
<path d="M293.549 171.604C293.677 171.604 293.549 171.604 293.719 171.604C293.337 171.625 293.528 171.604 293.549 171.604Z" fill="#292827"/>
<path fill-rule="evenodd" clip-rule="evenodd" d="M281.199 148.454L282.238 148.179L282.26 148.327L289.729 146.213C289.148 146.476 288.544 146.689 287.926 146.848L285.804 147.334C284.307 147.878 282.766 148.295 281.199 148.581V148.454Z" fill="#292827"/>
<path d="M287.331 147.017C287.48 147.017 287.331 147.017 287.501 147.017C287.119 147.038 287.331 147.017 287.331 147.017Z" fill="#292827"/>
<path fill-rule="evenodd" clip-rule="evenodd" d="M281.411 149.765V149.998C282.374 149.748 283.079 149.507 283.56 149.341C283.896 149.226 284.124 149.148 284.254 149.131L285.4 148.856H285.613C286.349 148.703 287.063 148.454 287.735 148.116C288.52 147.855 289.331 147.677 290.154 147.587C290.166 147.517 290.166 147.446 290.154 147.376C289.522 147.402 288.898 147.531 288.308 147.757C287.985 147.845 287.785 147.921 287.556 148.008C287.183 148.151 286.733 148.322 285.549 148.623H285.379H285.188L283.894 148.919C283.024 149.193 282.68 149.32 282.449 149.404C282.235 149.483 282.119 149.525 281.772 149.617C282.065 149.58 281.914 149.623 281.58 149.717L281.58 149.717C281.528 149.732 281.471 149.748 281.411 149.765ZM288.923 147.651C289.088 147.651 289.268 147.621 289.366 147.605C289.469 147.588 289.48 147.586 289.284 147.651C288.902 147.778 288.223 147.799 288.923 147.587V147.651ZM286.483 148.412H286.652C286.27 148.475 286.27 148.454 286.483 148.412Z" fill="#292827"/>
<path d="M285.549 148.602C285.273 148.602 285.125 148.708 285.273 148.602H285.634H285.549Z" fill="#292827"/>
<path fill-rule="evenodd" clip-rule="evenodd" d="M281.941 150.949L282.069 151.139C282.298 151.034 282.541 150.963 282.79 150.928L283.936 150.653H284.17C284.433 150.601 284.693 150.537 284.949 150.461C284.222 151.171 283.782 152.168 283.81 153.259C283.862 155.311 285.547 156.948 287.607 156.948C289.668 156.948 291.353 155.311 291.405 153.259C291.452 151.391 290.13 149.798 288.339 149.45C288.41 149.44 288.478 149.43 288.544 149.421C289.062 149.349 289.494 149.288 290.684 148.856C290.693 148.786 290.693 148.715 290.684 148.645C290.033 148.873 289.366 149.057 288.69 149.194C288.422 149.242 288.156 149.293 287.89 149.348C287.987 149.309 287.955 149.315 287.861 149.332C287.757 149.351 287.577 149.384 287.416 149.384C286.786 149.416 286.199 149.599 285.689 149.897C285.106 150.067 284.529 150.256 283.957 150.463H283.724L282.472 150.759L281.941 150.949ZM285.689 149.897C285.419 150.054 285.171 150.244 284.949 150.461C285.41 150.324 285.859 150.148 286.292 149.934C287.358 149.615 287.907 149.514 288.339 149.45C288.163 149.416 287.982 149.394 287.798 149.384C287.837 149.369 287.867 149.358 287.89 149.348C287.149 149.502 286.415 149.685 285.689 149.897Z" fill="#292827"/>
<path fill-rule="evenodd" clip-rule="evenodd" d="M285.209 151.541C286.017 151.219 286.856 150.986 287.713 150.843C288.052 150.779 288.465 150.672 288.827 150.578L288.827 150.578C289.418 150.424 289.876 150.305 289.666 150.463C289.988 150.377 290.131 150.324 290.334 150.248C290.492 150.19 290.686 150.117 291.031 150.005C290.913 150.047 290.798 150.094 290.684 150.146L291.321 149.913V150.103C289.789 150.642 288.213 151.046 286.61 151.308L285.464 151.689C285.146 151.795 284.467 151.985 284.021 151.985L283.215 152.26L283.087 152.112C283.785 151.886 284.493 151.695 285.209 151.541ZM291.031 150.005C291.117 149.977 291.213 149.947 291.321 149.913C291.223 149.94 291.126 149.971 291.031 150.005ZM287.034 151.012L288.138 150.78C287.775 150.88 287.407 150.957 287.034 151.012ZM290.981 149.955L290.387 150.167C290.576 150.073 290.776 150.002 290.981 149.955Z" fill="#292827"/>
<path fill-rule="evenodd" clip-rule="evenodd" d="M285.273 152.894C284.772 152.977 284.275 153.09 283.788 153.232V153.422H284C285.849 153.089 287.672 152.623 289.454 152.027L290.599 151.752H290.833L291.576 151.583C291.568 151.513 291.568 151.442 291.576 151.372L290.854 151.562H290.684L289.199 151.9C288.419 152.145 288.059 152.277 287.806 152.37C287.558 152.461 287.414 152.514 287.077 152.598C286.471 152.665 285.869 152.763 285.273 152.894ZM288.541 151.985L288.371 152.052C288.226 152.098 288.085 152.153 287.947 152.218L288.371 152.052C288.448 152.027 288.526 152.005 288.605 151.985H288.541Z" fill="#292827"/>
<path d="M290.727 151.668C290.854 151.668 290.727 151.668 290.875 151.668C290.727 151.625 290.727 151.647 290.727 151.668Z" fill="#292827"/>
<path d="M286.61 153.888H286.843C286.674 153.845 286.589 153.888 286.61 153.888Z" fill="#292827"/>
<path fill-rule="evenodd" clip-rule="evenodd" d="M287.077 154.078H286.843L285.74 154.268C285.551 154.289 285.44 154.33 285.233 154.408C285.021 154.487 284.708 154.604 284.106 154.776V154.522L285.422 154.078L286.652 153.803H286.886C287.978 153.405 289.094 153.076 290.226 152.818C289.671 152.993 290.321 152.929 290.684 152.788C290.853 152.723 290.869 152.695 290.805 152.693C291.082 152.636 291.36 152.583 291.639 152.535H292V152.767C291.087 152.88 290.185 153.071 289.305 153.338C288.599 153.682 287.849 153.931 287.077 154.078ZM290.805 152.693C290.723 152.69 290.514 152.729 290.324 152.788C290.288 152.799 290.255 152.809 290.226 152.818C290.419 152.774 290.611 152.732 290.805 152.693ZM284.721 154.395L284.127 154.628C284.313 154.507 284.513 154.407 284.721 154.332V154.395Z" fill="#292827"/>
<path fill-rule="evenodd" clip-rule="evenodd" d="M285.146 155.917C285.882 155.761 286.595 155.512 287.268 155.177C288.464 154.947 289.65 154.665 290.821 154.332C291.287 154.199 291.751 154.058 292.212 153.909C292.222 153.839 292.222 153.767 292.212 153.697C291.118 154.04 290.011 154.34 288.894 154.597C288.834 154.585 288.601 154.626 288.393 154.691C288.316 154.713 288.256 154.733 288.209 154.749C288.065 154.78 287.921 154.81 287.777 154.839C287.445 154.922 287.246 154.998 287.011 155.088C286.646 155.228 286.193 155.402 285.018 155.685H284.849H284.679L283.809 155.896V156.15L284.912 155.896H285.146V155.917ZM288.209 154.749C287.816 154.888 288.412 154.823 288.753 154.691C288.9 154.634 288.931 154.605 288.894 154.597C288.666 154.65 288.438 154.7 288.209 154.749Z" fill="#292827"/>
<path fill-rule="evenodd" clip-rule="evenodd" d="M291.427 155.558C290.635 155.697 289.855 155.894 289.093 156.15C288.311 156.476 287.502 156.731 286.674 156.911C285.635 157.03 284.615 157.278 283.639 157.651V157.418C284.121 157.219 284.618 157.059 285.125 156.941C285.213 156.924 285.298 156.911 285.358 156.911C285.595 156.873 285.546 156.873 285.396 156.883C285.706 156.82 286.019 156.773 286.334 156.742C287.271 156.535 288.192 156.267 289.093 155.938C290.065 155.625 291.058 155.378 292.064 155.198L292.637 155.029V155.219C292.244 155.365 291.839 155.479 291.427 155.558ZM285.396 156.883C285.354 156.886 285.305 156.889 285.252 156.893C285.171 156.899 285.082 156.905 284.997 156.911C284.609 157.063 284.677 157.047 284.863 157.001C284.939 156.983 285.034 156.96 285.125 156.941C285.215 156.921 285.305 156.901 285.396 156.883Z" fill="#292827"/>
<path fill-rule="evenodd" clip-rule="evenodd" d="M287.629 157.947L286.483 158.327C286.265 158.498 285.843 158.543 285.499 158.58H285.499C285.373 158.594 285.258 158.606 285.167 158.623C284.661 158.811 284.144 158.967 283.618 159.088V158.919C283.874 158.873 283.966 158.838 284.108 158.783C284.356 158.688 284.758 158.533 286.44 158.158C287.248 157.845 288.088 157.618 288.944 157.482C289.528 157.295 290.124 157.147 290.727 157.038C290.967 156.974 291.097 156.934 291.225 156.89C291.282 156.87 291.339 156.849 291.405 156.825C291.635 156.74 291.98 156.614 292.849 156.34H292.913V156.573C291.197 157.189 289.428 157.649 287.629 157.947ZM292.085 156.594L292.024 156.618C291.841 156.673 291.663 156.743 291.491 156.826L292.024 156.618C292.051 156.609 292.079 156.601 292.106 156.594H292.085ZM290.302 157.122C290.302 157.122 289.836 157.27 290.324 157.122H290.302ZM289.19 157.45L289.241 157.439H289.263C289.238 157.443 289.214 157.446 289.19 157.45ZM288.138 157.672C288.484 157.578 288.835 157.504 289.19 157.45L288.138 157.672Z" fill="#292827"/>
<path fill-rule="evenodd" clip-rule="evenodd" d="M283.703 160.441L284.509 160.251H284.721C285.457 160.095 286.17 159.846 286.843 159.511C288.569 159.18 290.27 158.735 291.936 158.179L293.082 157.862V157.756V157.608L291.958 157.968C290.455 158.455 288.924 158.85 287.374 159.152C287.051 159.24 286.851 159.316 286.622 159.404L286.622 159.404C286.381 159.496 286.107 159.6 285.623 159.744H285.57L285.528 159.771C285.282 159.843 284.984 159.925 284.615 160.019H284.445H284.254L283.597 160.167C283.617 160.263 283.653 160.356 283.703 160.441ZM285.528 159.771L285.506 159.786C285.315 159.828 285.315 159.849 285.74 159.744H285.623C285.592 159.753 285.561 159.762 285.528 159.771ZM290.727 158.56H290.451C290.451 158.56 290.324 158.687 290.727 158.56ZM288.032 158.919C288.197 158.919 288.377 158.889 288.474 158.873C288.578 158.856 288.589 158.854 288.392 158.919C288.011 159.046 287.268 159.173 287.968 158.961L288.032 158.919Z" fill="#292827"/>
<path fill-rule="evenodd" clip-rule="evenodd" d="M287.586 160.864C286.532 161.034 285.496 161.295 284.488 161.646C284.39 161.664 284.289 161.664 284.191 161.646V161.477H284.403C285.032 161.236 285.68 161.046 286.339 160.907C286.273 160.927 286.208 160.948 286.143 160.97L287.247 160.737V160.7C287.588 160.603 287.932 160.517 288.279 160.441C288.257 160.457 288.236 160.472 288.216 160.486C288.048 160.57 287.985 160.613 287.996 160.613C288.007 160.614 288.091 160.572 288.216 160.486C288.244 160.472 288.274 160.457 288.308 160.441V160.435L288.377 160.42C288.481 160.398 288.585 160.377 288.69 160.357C288.916 160.3 289.057 160.258 289.202 160.209C289.281 160.182 289.361 160.153 289.455 160.119C289.709 160.026 290.07 159.895 290.812 159.659L292.064 159.363H292.297L293.486 159.046V159.321L292.467 159.575H292.234L291.088 159.849C290.884 159.873 290.77 159.916 290.552 160C290.182 160.141 289.512 160.398 287.586 160.864ZM288.308 160.435L288.279 160.441L288.308 160.42V160.435ZM287.247 160.7V160.674C286.94 160.737 286.637 160.815 286.339 160.907C286.527 160.867 286.717 160.832 286.907 160.801C287.02 160.766 287.133 160.733 287.247 160.7ZM293.358 159.109H293.252C293.156 159.138 293.104 159.154 293.104 159.157C293.105 159.16 293.184 159.144 293.358 159.109L293.358 159.109Z" fill="#292827"/>
</g>
<path d="M294.547 173.57C294.547 173.57 295.332 151.795 297.326 141.71C298.613 134.446 301.324 127.506 305.306 121.288C307.703 117.736 309.444 116.171 309.55 116.573C309.85 117.634 309.705 118.771 309.147 119.723C308.383 120.548 307.64 120.865 307.64 122.197C307.64 123.529 308.552 124.311 308.149 125.748C307.746 127.186 307.067 127.313 306.812 129.068C306.558 130.822 307.322 130.632 307.067 132.619C306.812 134.607 305.475 134.607 305.412 135.833C305.348 137.059 306.324 138.328 305.815 140.294C305.306 142.26 304.16 142.196 304.075 143.444C303.99 144.691 304.902 145.346 304.733 147.249C304.563 149.152 303.247 149.554 302.908 150.547C302.568 151.541 303.82 152.281 303.587 153.866C303.353 155.452 299.724 171.245 299.724 171.245L294.547 173.57Z" fill="#426F61"/>
<path d="M305.221 171.773C308.153 166.294 311.714 161.171 315.831 156.509C320.309 151.71 327.715 147.418 330.368 147.291C330.431 147.961 330.171 148.62 329.667 149.067C328.599 149.872 327.934 151.098 327.842 152.429C327.842 154.078 327.991 155.241 326.887 156.129C325.784 157.016 323.619 157.164 322.961 158.243C322.304 159.321 323.068 160.885 321.794 162.048C320.521 163.211 318.929 162.703 317.699 163.591C316.379 164.604 315.395 165.989 314.876 167.566C313.677 169.724 311.389 171.055 308.913 171.033L307.619 172.682L305.221 171.773Z" fill="#37B99A"/>
<path d="M316.616 124.226C312.951 128.993 309.679 134.048 306.833 139.342C302.262 150.95 298.892 162.993 296.775 175.283H304.839C305.636 174.861 306.164 174.065 306.239 173.168C306.211 171.971 306.805 170.844 307.81 170.187C308.658 169.701 308.977 167.883 308.743 166.467C308.313 164.826 308.818 163.082 310.059 161.921C311.487 160.791 312.36 159.106 312.457 157.291C312.457 155.642 311.629 152.492 312.054 150.949C312.478 149.406 314.622 147.714 314.876 145.748C315.131 143.782 313.794 140.78 314.706 138.708C315.619 136.636 316.828 136.065 317.104 133.994C317.38 131.922 315.958 130.695 315.958 129.765C315.958 128.835 316.786 128.285 316.956 127.207C317.011 126.202 316.896 125.194 316.616 124.226Z" fill="#4E7568"/>
<g style="mix-blend-mode:multiply" opacity="0.24">
<path fill-rule="evenodd" clip-rule="evenodd" d="M310.505 137.461C311.074 137.656 311.666 137.777 312.266 137.82C313.365 137.943 313.649 137.922 313.832 137.909C314.027 137.894 314.108 137.888 314.94 138.074C314.928 138.144 314.928 138.215 314.94 138.285C314.168 138.065 314.096 138.022 314.027 138.025C313.976 138.026 313.926 138.053 313.603 138.053C312.381 137.965 311.167 137.781 309.974 137.503H309.444V137.334C309.802 137.317 310.161 137.36 310.505 137.461Z" fill="#292827"/>
<path d="M308.659 138.687V138.856H309.359C309.986 138.847 310.611 138.904 311.226 139.025L314.537 139.511C314.547 139.456 314.547 139.398 314.537 139.342C313.752 139.237 312.415 139.046 311.46 138.856C310.505 138.666 309.422 138.771 308.659 138.687Z" fill="#292827"/>
<path fill-rule="evenodd" clip-rule="evenodd" d="M309.698 140.04C310.258 140.244 310.844 140.365 311.438 140.399C312.445 140.527 312.769 140.525 312.967 140.524C313.227 140.522 313.269 140.522 314.367 140.822H314.494C314.505 140.892 314.505 140.964 314.494 141.034C314.068 140.923 313.784 140.849 313.593 140.801C313.215 140.706 313.197 140.708 313.151 140.716C313.114 140.723 313.057 140.732 312.775 140.695C311.553 140.62 310.339 140.444 309.147 140.167L308.022 140.04V139.871C308.584 139.887 309.144 139.944 309.698 140.04Z" fill="#292827"/>
<path fill-rule="evenodd" clip-rule="evenodd" d="M311.291 141.664C311.485 141.647 311.579 141.639 312.521 141.9C313.228 142.032 313.945 142.103 314.664 142.112V142.323H314.24C313.653 142.232 313.559 142.19 313.46 142.17C313.377 142.154 313.291 142.154 312.903 142.154C312.437 142.035 312.124 141.954 311.911 141.9C311.505 141.798 311.459 141.791 311.414 141.796C311.374 141.8 311.334 141.813 311.035 141.774C309.812 141.696 308.598 141.513 307.406 141.224V141.055C307.593 141.073 307.778 141.109 307.958 141.16C308.519 141.359 309.105 141.48 309.698 141.52C310.839 141.704 311.109 141.68 311.291 141.664Z" fill="#292827"/>
<path d="M314.77 143.634C314.3 143.543 313.826 143.479 313.348 143.444C313.242 143.444 313.497 143.444 313.348 143.444C313.2 143.444 311.226 143.296 311.99 143.296C311.99 143.296 309.868 143.042 308.107 142.704L306.706 142.535V142.746C307.12 142.737 307.534 142.78 307.937 142.873C313.263 143.761 312.075 143.296 314.622 143.719H314.813L314.77 143.634Z" fill="#292827"/>
<path fill-rule="evenodd" clip-rule="evenodd" d="M308.404 143.93C308.97 144.136 309.563 144.257 310.165 144.289C311.133 144.404 311.466 144.405 311.662 144.405C311.934 144.405 311.944 144.405 313.03 144.712C313.665 144.858 314.311 144.95 314.961 144.987V145.198H314.685C314.24 145.129 314.078 145.088 313.983 145.064C313.848 145.029 313.848 145.029 313.348 145.029C312.004 144.684 311.929 144.623 311.855 144.624C311.811 144.625 311.768 144.649 311.46 144.649C310.236 144.57 309.022 144.386 307.831 144.099C307.41 144.066 307.071 144.016 306.797 143.975C306.545 143.938 306.349 143.909 306.197 143.909V143.719H306.494C306.897 143.827 307.194 143.83 307.488 143.832C307.766 143.835 308.042 143.837 308.404 143.93Z" fill="#292827"/>
<path fill-rule="evenodd" clip-rule="evenodd" d="M310.719 145.649C310.916 145.632 311.015 145.624 311.948 145.875C312.87 146.059 313.808 146.158 314.749 146.171V146.361H313.645L312.33 146.171C310.976 145.827 310.901 145.773 310.832 145.78C310.79 145.785 310.751 145.812 310.441 145.812C309.219 145.723 308.006 145.54 306.812 145.262L305.688 145.135V144.966C306.257 144.989 306.825 145.052 307.385 145.156C307.954 145.352 308.546 145.473 309.147 145.516C310.264 145.689 310.534 145.665 310.719 145.649Z" fill="#292827"/>
<path d="M311.056 147.101C311.056 147.101 308.934 146.826 307.173 146.509C306.388 146.382 305.772 146.34 305.221 146.298C305.212 146.368 305.212 146.439 305.221 146.509C305.818 146.515 306.413 146.565 307.003 146.657C312.287 147.545 311.247 147.101 313.688 147.503H313.815H314.112C313.73 147.503 312.988 147.313 312.33 147.27C312.224 147.27 312.478 147.27 312.33 147.27C312.181 147.27 310.292 147.101 311.056 147.101Z" fill="#292827"/>
<path fill-rule="evenodd" clip-rule="evenodd" d="M310.611 148.412C310.008 148.39 309.413 148.268 308.849 148.053C308.498 147.96 308.218 147.958 307.934 147.955C307.634 147.952 307.332 147.95 306.94 147.841C306.243 147.682 305.532 147.597 304.818 147.587V147.799H305.751C306.593 147.968 307.443 148.095 308.298 148.179C309.491 148.455 310.705 148.639 311.927 148.729C312.32 148.714 312.712 148.771 313.083 148.898C313.122 148.912 313.161 148.926 313.2 148.941L313.348 148.75C312.437 148.52 312.372 148.522 312.141 148.527C311.948 148.531 311.637 148.537 310.611 148.412ZM308.489 148.01C308.457 147.994 308.497 147.99 308.51 147.989L308.489 148.01ZM308.51 147.989L308.51 147.989L308.513 147.989L308.51 147.989Z" fill="#292827"/>
<path fill-rule="evenodd" clip-rule="evenodd" d="M304.414 148.877C305.063 148.839 305.713 148.933 306.324 149.152C306.846 149.3 306.967 149.31 307.425 149.348C308.01 149.396 309.146 149.49 312.372 149.976C312.376 150.033 312.376 150.089 312.372 150.145L309.889 149.765C309.273 149.657 308.648 149.607 308.022 149.617C307.58 149.533 307.134 149.477 306.685 149.448C305.344 149.091 305.266 149.032 305.192 149.037C305.148 149.041 305.106 149.067 304.796 149.067H304.414C304.404 149.004 304.404 148.94 304.414 148.877Z" fill="#292827"/>
<path d="M310.611 151.139C310.017 151.099 309.432 150.978 308.871 150.78C308.238 150.677 307.601 150.606 306.961 150.568C306.003 150.375 305.03 150.269 304.054 150.251L311.969 151.372V151.245C311.515 151.232 311.061 151.197 310.611 151.139Z" fill="#292827"/>
<path d="M316.383 126.298V126.446H317.041V126.277L316.383 126.298Z" fill="#292827"/>
<path d="M316.722 127.63C316.319 127.63 316.022 127.63 315.619 127.63V127.799L316.51 127.905H316.701C316.709 127.842 316.709 127.778 316.701 127.715C316.616 127.609 316.192 127.588 316.722 127.63Z" fill="#292827"/>
<path d="M314.897 128.835V128.983C315.258 128.983 315.683 129.131 316.107 129.195V129.004H315.874C315.544 128.972 315.218 128.916 314.897 128.835Z" fill="#292827"/>
<path d="M315.831 130.548H316.192L316.065 130.315C315.4 130.296 314.739 130.211 314.091 130.061L313.964 130.252L314.473 130.378C315.343 130.463 314.749 130.4 315.831 130.548Z" fill="#292827"/>
<path d="M315.428 131.541C314.579 131.414 313.9 131.372 313.306 131.309L313.157 131.52H313.348C313.974 131.499 314.601 131.548 315.216 131.668L316.977 131.943C316.969 131.88 316.969 131.816 316.977 131.753L315.428 131.541Z" fill="#292827"/>
<path d="M316.659 133.19C316.531 133.19 314.537 133.021 315.301 133.042C315.576 133.042 314.664 133.042 314.643 133.042L312.521 132.704L312.393 132.873C315.895 133.444 315.704 133.232 317.232 133.444V133.19H316.659C316.744 133.19 316.489 133.19 316.659 133.19Z" fill="#292827"/>
<path d="M313.348 135.304C312.33 135.135 311.545 135.114 310.802 135.051L310.696 135.22H311.226C311.859 135.211 312.491 135.26 313.115 135.368C314.622 135.621 315.619 135.769 316.319 135.854V135.706C315.619 135.685 314.409 135.516 313.348 135.304Z" fill="#292827"/>
<path d="M314.07 136.869C313.47 136.821 312.879 136.701 312.309 136.509C311.566 136.319 311.205 136.509 310.42 136.298H310.017V136.467C310.606 136.577 311.201 136.655 311.799 136.7C312.983 136.987 314.191 137.171 315.407 137.249L315.534 137.038C315.043 137.012 314.554 136.956 314.07 136.869Z" fill="#292827"/>
<path d="M306.6 165.219C305.879 165.029 305.454 165.219 304.69 165.008C302.186 164.522 302.993 165.008 301.019 164.564V164.754C301.821 164.918 302.643 164.968 303.459 164.902C304.299 165.085 305.15 165.212 306.006 165.283C306.43 165.283 307.47 165.642 308.701 165.79C308.701 165.79 308.701 165.642 308.701 165.579H308.425C307.802 165.552 307.186 165.431 306.6 165.219Z" fill="#292827"/>
<path fill-rule="evenodd" clip-rule="evenodd" d="M302.464 166.03C302.661 166.012 302.76 166.004 303.693 166.255C304.276 166.42 304.83 166.47 305.463 166.528C306.05 166.582 306.705 166.642 307.513 166.805L308.871 167.016V167.164L307.279 166.911C306.656 166.803 306.023 166.754 305.39 166.763C304.96 166.694 304.802 166.653 304.708 166.629C304.571 166.593 304.571 166.593 304.054 166.593C302.722 166.235 302.644 166.177 302.571 166.183C302.528 166.187 302.487 166.213 302.186 166.213C301.689 166.204 301.192 166.162 300.701 166.086V165.896H300.892C302.009 166.069 302.279 166.046 302.464 166.03Z" fill="#292827"/>
<path d="M307.534 168.179C306.933 168.136 306.341 168.015 305.772 167.82C305.051 167.629 304.648 167.82 303.863 167.608C301.507 167.143 302.122 167.608 300.361 167.185V167.397C301.116 167.543 301.886 167.593 302.653 167.545C303.141 167.545 303.162 167.735 305.199 167.925C306.372 168.201 307.564 168.385 308.765 168.475C308.765 168.475 308.765 168.348 308.765 168.285L307.534 168.179Z" fill="#292827"/>
<path fill-rule="evenodd" clip-rule="evenodd" d="M304.032 168.919C304.598 169.127 305.192 169.248 305.794 169.278C306.824 169.408 307.133 169.382 307.307 169.368C307.503 169.352 307.529 169.35 308.213 169.595V169.765C307.85 169.619 307.457 169.561 307.067 169.595C305.845 169.506 304.632 169.322 303.438 169.046C302.069 168.919 301.535 168.793 301.238 168.722C301.088 168.687 300.998 168.665 300.892 168.665H300V168.454C300.715 168.458 301.427 168.543 302.122 168.708C302.525 168.816 302.828 168.819 303.124 168.821C303.405 168.824 303.681 168.826 304.032 168.919ZM303.672 168.877C303.629 168.877 303.735 168.898 303.693 168.877H303.672Z" fill="#292827"/>
<path fill-rule="evenodd" clip-rule="evenodd" d="M302.359 170.144C302.908 170.187 303.51 170.234 304.223 170.357L307.109 170.801L306.982 170.949C306.303 170.864 305.369 170.737 304.032 170.505C303.416 170.395 302.791 170.346 302.165 170.357C301.723 170.273 301.277 170.216 300.828 170.188L299.703 169.892V169.68L300.467 169.87C301.088 170.045 301.683 170.092 302.359 170.144Z" fill="#292827"/>
<path d="M306.239 172.069C305.646 172.024 305.061 171.903 304.499 171.71C303.867 171.607 303.229 171.536 302.589 171.498C300.34 171.054 300.764 171.371 299.321 171.118V171.329C300.026 171.41 300.738 171.41 301.443 171.329C302.285 171.499 303.135 171.626 303.99 171.71C304.372 171.71 305.327 172.027 306.452 172.175V171.963L306.239 172.069Z" fill="#292827"/>
<path d="M303.459 172.915C302.738 172.724 302.335 172.915 301.571 172.703C300.712 172.524 299.838 172.432 298.961 172.428V172.619C299.427 172.651 299.895 172.651 300.361 172.619C301.201 172.801 302.051 172.929 302.908 172.999C304.005 173.256 305.118 173.439 306.239 173.549C306.249 173.486 306.249 173.422 306.239 173.359L305.242 173.253C304.634 173.229 304.033 173.115 303.459 172.915Z" fill="#292827"/>
<path fill-rule="evenodd" clip-rule="evenodd" d="M298.621 173.591L299.491 173.803C300.749 174.022 302.016 174.177 303.29 174.268C303.461 174.302 303.638 174.341 303.818 174.38C304.417 174.511 305.048 174.648 305.603 174.648L305.433 174.817L303.035 174.437C302.42 174.316 301.794 174.266 301.168 174.289L299.831 174.099L298.621 173.803C298.609 173.733 298.609 173.661 298.621 173.591Z" fill="#292827"/>
<path d="M298.388 175.177H299.534L298.409 174.944C298.409 174.944 298.388 175.113 298.388 175.177Z" fill="#292827"/>
<path d="M303.99 150.441C304.554 150.496 305.123 150.496 305.688 150.441C306.529 150.613 307.379 150.74 308.234 150.822C309.421 151.097 310.627 151.281 311.842 151.372H311.948L304.032 150.251L303.99 150.441Z" fill="#292827"/>
<path fill-rule="evenodd" clip-rule="evenodd" d="M306.452 151.858C307.02 152.056 307.612 152.177 308.213 152.217C309.227 152.309 309.544 152.289 309.735 152.277C309.984 152.262 310.019 152.26 311.099 152.534C311.42 152.613 311.746 152.67 312.075 152.704C312.065 152.767 312.065 152.831 312.075 152.894H311.375C310.89 152.768 310.571 152.68 310.358 152.619C309.985 152.512 309.938 152.487 309.892 152.489C309.849 152.49 309.806 152.513 309.507 152.513C308.284 152.435 307.07 152.251 305.879 151.964C305.164 151.923 304.454 151.824 303.756 151.668V151.499L304.542 151.647C304.934 151.755 305.237 151.758 305.536 151.76C305.82 151.763 306.1 151.765 306.452 151.858Z" fill="#292827"/>
<path fill-rule="evenodd" clip-rule="evenodd" d="M307.708 153.363C307.904 153.349 308.006 153.341 308.934 153.592C310.01 153.837 311.102 154.006 312.202 154.099V154.247C312.048 154.202 311.928 154.207 311.758 154.214C311.532 154.224 311.217 154.238 310.611 154.141C310.042 154.051 309.949 154.009 309.851 153.989C309.766 153.972 309.678 153.972 309.274 153.972C307.931 153.628 307.863 153.566 307.795 153.567C307.755 153.568 307.716 153.592 307.406 153.592C306.182 153.523 304.967 153.339 303.778 153.042H303.459V152.852C303.762 152.815 304.069 152.815 304.372 152.852C304.937 153.059 305.531 153.181 306.133 153.211C307.256 153.396 307.524 153.376 307.708 153.363Z" fill="#292827"/>
<path fill-rule="evenodd" clip-rule="evenodd" d="M305.236 154.349C305.582 154.386 306.026 154.433 306.452 154.543C308.199 154.948 308.683 154.973 309.147 154.997C309.579 155.02 309.995 155.041 311.396 155.367C311.734 155.405 312.076 155.405 312.415 155.367V155.579C311.299 155.475 310.858 155.364 310.576 155.293C310.397 155.248 310.283 155.219 310.102 155.219C308.912 155.276 307.721 155.134 306.579 154.797C306.103 154.697 305.864 154.671 305.503 154.631C305.253 154.604 304.944 154.57 304.457 154.501L303.459 154.331H303.141V154.099H303.587C303.749 154.114 303.91 154.134 304.071 154.157C303.89 154.141 303.809 154.141 304.138 154.205H304.361C304.499 154.23 304.638 154.258 304.775 154.289C304.887 154.312 305.047 154.329 305.236 154.349ZM304.361 154.205H304.605C304.557 154.205 304.419 154.191 304.279 154.177C304.206 154.17 304.133 154.163 304.071 154.157C304.168 154.171 304.264 154.187 304.361 154.205Z" fill="#292827"/>
<path d="M310.165 156.446C309.444 156.255 309.041 156.446 308.255 156.234C305.454 155.706 306.855 156.234 303.396 155.537H302.908V155.748H303.523C304.658 156.083 305.842 156.225 307.025 156.171C307.513 156.171 307.534 156.361 309.571 156.551C310.038 156.551 311.205 156.953 312.521 157.059V156.868H311.969C311.351 156.809 310.745 156.667 310.165 156.446Z" fill="#292827"/>
<path fill-rule="evenodd" clip-rule="evenodd" d="M309.59 159.106C310.156 159.148 310.774 159.193 311.502 159.321L311.905 159.257C311.897 159.321 311.897 159.385 311.905 159.448H311.29C310.674 159.338 310.048 159.289 309.422 159.3C308.84 159.209 308.749 159.167 308.654 159.147C308.572 159.131 308.487 159.131 308.086 159.131C307.669 159.02 307.375 158.937 307.165 158.877C306.703 158.743 306.654 158.716 306.608 158.72C306.567 158.723 306.529 158.75 306.218 158.75C304.996 158.662 303.783 158.478 302.589 158.2H302.398V157.989C302.664 158.005 302.927 158.048 303.183 158.116C303.746 158.309 304.331 158.43 304.924 158.475C306.052 158.659 306.323 158.636 306.507 158.62C306.704 158.602 306.803 158.594 307.746 158.856C308.349 159.015 308.934 159.058 309.59 159.106Z" fill="#292827"/>
<path fill-rule="evenodd" clip-rule="evenodd" d="M304.854 159.876C305.52 159.936 306.834 160.054 310.717 160.674L311.184 160.695L311.056 160.843C310.356 160.78 309.338 160.632 307.215 160.293C306.601 160.172 305.974 160.123 305.348 160.145C304.906 160.056 304.46 159.993 304.011 159.955C302.672 159.612 302.592 159.557 302.519 159.564C302.475 159.569 302.433 159.596 302.122 159.596V159.427C302.673 159.384 303.225 159.471 303.735 159.68C304.236 159.82 304.384 159.833 304.854 159.876Z" fill="#292827"/>
<path fill-rule="evenodd" clip-rule="evenodd" d="M302.823 161.012L301.825 160.843L301.847 160.695H302.016L302.376 160.753C302.307 160.757 302.334 160.783 302.568 160.843H302.941L303.205 160.885C303.325 160.909 303.499 160.93 303.704 160.955C304.045 160.996 304.471 161.047 304.881 161.139C306.488 161.453 308.11 161.686 309.741 161.837H310.059L309.868 161.985C309.361 161.917 309.099 161.85 308.911 161.802C308.745 161.759 308.637 161.731 308.468 161.731C307.278 161.796 306.085 161.652 304.945 161.308C304.469 161.208 304.23 161.182 303.869 161.143C303.619 161.115 303.31 161.082 302.823 161.012ZM302.941 160.843H303.035C302.939 160.802 302.501 160.744 302.376 160.753L302.941 160.843Z" fill="#292827"/>
<path fill-rule="evenodd" clip-rule="evenodd" d="M307.322 163.105L305.985 162.915C305.675 162.836 305.433 162.773 305.243 162.725C304.61 162.562 304.547 162.547 304.482 162.536C304.432 162.527 304.381 162.521 304.054 162.45C303.189 162.415 302.33 162.302 301.486 162.112V161.921C301.907 162.048 302.341 162.126 302.78 162.154C303.909 162.328 304.179 162.304 304.361 162.288C304.556 162.27 304.65 162.262 305.581 162.513C306.71 162.726 307.851 162.867 308.998 162.936V163.105C308.44 163.058 307.879 163.058 307.322 163.105Z" fill="#292827"/>
<path d="M308.489 164.289C307.746 164.078 307.364 164.289 306.579 164.057C303.756 163.528 305.178 164.057 301.719 163.359H301.295V163.57C301.471 163.556 301.649 163.556 301.825 163.57C302.968 163.903 304.158 164.046 305.348 163.993C306.19 164.163 307.04 164.29 307.895 164.374C308.168 164.397 308.438 164.446 308.701 164.522C308.701 164.522 308.701 164.374 308.701 164.31L308.489 164.289Z" fill="#292827"/>
</g>
<path d="M219.743 260.63C222.353 269.678 225.578 289.551 228.677 292.765C232.836 296.666 238.35 298.81 244.062 298.748C250.874 298.917 263.67 294.879 264.816 296.803L265.941 298.748C265.941 298.748 250.386 307.627 243.256 310.693C238.199 312.714 232.921 314.134 227.531 314.921L227.849 317.669C225.587 319.607 222.941 321.048 220.082 321.898C218.27 322.281 216.417 322.444 214.565 322.384C212.641 318.406 211.489 314.103 211.169 309.699C210.681 302.595 210.512 295.978 208.092 291.306C205.673 286.634 195.763 265.302 195.763 265.302L219.743 260.63Z" fill="#E7794F"/>
<path d="M227.531 315.005C232.921 314.218 238.199 312.799 243.256 310.777C250.386 307.712 265.941 298.832 265.941 298.832L264.816 296.887C263.67 294.963 250.874 299.001 244.062 298.832C241.682 298.779 239.32 298.409 237.038 297.733C237.908 306.908 229.632 312.405 229.632 312.405L223.265 312.067C220.634 311.94 214.968 308.452 210.957 307.479C210.957 308.261 210.957 309.022 211.127 309.805C211.446 314.208 212.598 318.512 214.522 322.489C216.375 322.55 218.227 322.387 220.04 322.003C222.898 321.153 225.545 319.712 227.807 317.775L227.531 315.005Z" fill="#332828"/>
<path d="M179.635 317.5C178.871 324.857 180.696 335.808 179.784 340.417C178.871 345.026 177.322 349.783 176.707 352.235C176.26 355.691 176.054 359.174 176.091 362.658H187.487L187.933 359.127C192.411 360.311 196.983 361.11 201.599 361.516C210.93 362.007 220.28 362.007 229.61 361.516C229.876 360.086 229.349 358.625 228.231 357.69C226.364 356.463 222.841 356.759 214.522 353.461C206.204 350.163 200.05 345.005 199.434 340.586C198.819 336.168 198.734 317.12 198.734 317.12L179.635 317.5Z" fill="#E7794F"/>
<path d="M228.125 357.753C226.258 356.527 222.735 356.823 214.416 353.525C211.088 352.267 207.952 350.552 205.1 348.43L201.79 351.22C198.713 353.821 194.256 358.43 194.256 358.43C194.256 358.43 193.026 358.747 190.246 356.738C186.265 353.788 182 351.238 177.513 349.127C177.174 350.311 176.876 351.242 176.685 352.151C176.238 355.606 176.033 359.089 176.07 362.573H187.466L187.911 359.043C192.394 360.256 196.974 361.083 201.599 361.516C210.93 362.006 220.28 362.006 229.611 361.516C229.827 360.087 229.26 358.652 228.125 357.753Z" fill="#332828"/>
<path d="M150.329 355.026C134.477 352.912 116.376 344.793 112.874 335.999C109.373 327.204 110.094 296.782 110.625 285.682L106.784 285.344L102.943 285.682C103.473 296.782 104.152 327.162 100.672 335.999C97.1919 344.836 79.0904 352.912 63.2384 355.026C47.3864 357.14 37.6459 359.022 37.455 362.658H176.134C175.922 359.022 166.16 357.098 150.329 355.026Z" fill="#795D5C"/>
<ellipse cx="106.423" cy="275.387" rx="15.6823" ry="11.6277" fill="#795D5C"/>
<path d="M93.8814 202.005C93.8814 202.005 87.2605 184.648 85.8811 181.181C84.5018 177.714 92.5021 164.902 91.441 154.12C90.38 143.338 78.9207 131.562 75.78 125.664C72.6393 119.766 69.159 106.637 66.7186 106.235C64.2782 105.833 45.816 101.478 45.816 101.478C39.5558 108.243 29.2849 122.197 27.7146 137.799C26.1442 153.401 36.5849 198.876 42.5692 212.068C48.5535 225.261 58.0817 242.597 58.0817 242.597C58.0817 242.597 70.9628 259.954 99.1654 259.256C108.46 259.023 120.768 254.626 133.119 248.812C128.641 229.489 124.44 210.271 119.283 191.561C106.572 196.614 93.8814 202.005 93.8814 202.005Z" fill="#181E29"/>
<path d="M222.82 250.567C222.028 250.327 221.448 249.65 221.334 248.833C221.334 248.833 214.968 190.547 194.172 182.217C173.375 173.887 149.608 179.786 134.965 185.346C130.466 187.058 124.822 189.299 119.198 191.561C124.355 210.271 128.556 229.489 133.034 248.812C150.523 240.233 167.354 230.383 183.391 219.341L198.734 265.154C203.317 266.177 208.071 266.177 212.655 265.154C216.547 264.338 220.3 262.963 223.796 261.074C223.796 261.074 224.815 251.074 222.82 250.567Z" fill="#EE584B"/>
<path d="M161.916 216.001C179.338 215.303 196.06 215.536 201.387 224.774C206.713 234.013 206.968 261.56 206.501 274.752C206.034 287.945 205.843 310.143 205.843 310.143C205.843 310.143 206.989 309.847 206.989 311.01C206.989 312.173 206.522 317.712 206.522 317.712C201.47 319.14 196.24 319.852 190.988 319.826C186.261 319.871 181.534 319.638 176.834 319.128C177.359 312.277 177.507 305.403 177.28 298.536C176.834 289.276 173.799 276.549 173.799 269.15C173.799 261.75 174.266 256.655 174.266 256.655L155.931 258.516L161.916 216.001Z" fill="#EE584B"/>
<path d="M159.836 168.221C162.977 167.883 170.977 166.107 170.977 166.107C170.977 166.107 174.118 158.137 177.704 157.207C180.851 156.749 184.054 157.505 186.659 159.321C186.999 159.892 192.58 153.761 193.726 154.585C194.872 155.41 192.453 159.321 190.246 161.625C188.039 163.93 186.299 164.522 185.492 166.72C184.686 168.919 181.545 176.678 178.404 177.946C172.627 179.307 166.706 179.967 160.77 179.912C160.536 179.447 159.836 168.221 159.836 168.221Z" fill="#E7794F"/>
<path d="M87.8547 153.063C94.8151 159.786 106.656 171.815 106.656 171.815L153.788 169.13L155.422 184.183C155.422 184.183 115.718 199.912 102.009 198.982C94.0974 198.549 86.9032 194.274 82.7617 187.545L87.8547 153.063Z" fill="#2D313A"/>
<path opacity="0.1" d="M40.723 107.482C46.0282 111.711 59.6945 120.484 62.5381 120.801L67.4189 113.74L72.6392 118.243C70.5171 112.514 68.3951 106.468 66.7186 106.235C64.2782 105.876 45.816 101.478 45.816 101.478C44.7974 102.578 41.8052 106.129 40.723 107.482Z" fill="white"/>
<path d="M160.409 167.418L161.916 179.786L153.215 180.61L152.048 168.792L160.409 167.418Z" fill="#FDF2DD"/>
<path d="M170.277 171.921C169.952 171.926 169.645 171.777 169.449 171.519C169.279 171.301 169.204 171.024 169.24 170.75C169.275 170.476 169.42 170.228 169.64 170.061L209.684 139.173C209.972 138.876 210.407 138.773 210.799 138.909C211.19 139.046 211.466 139.397 211.504 139.808C211.543 140.22 211.338 140.616 210.978 140.822L170.913 171.71C170.732 171.851 170.507 171.926 170.277 171.921Z" fill="#332828"/>
<g style="mix-blend-mode:multiply" opacity="0.44">
<path d="M93.8814 202.005C92.1213 204.09 90.2136 206.048 88.173 207.861C86.1511 209.687 84.0255 211.395 81.8067 212.978C79.5885 214.558 77.2547 215.972 74.825 217.206C72.4128 218.541 69.7956 219.469 67.0794 219.954C69.5882 218.939 71.9966 217.694 74.2733 216.233C75.398 215.514 76.5227 214.796 77.6262 214.119C78.7297 213.443 79.8544 212.597 80.9366 211.815C83.0587 210.145 93.8814 202.005 93.8814 202.005Z" fill="#795D5C"/>
</g>
<g style="mix-blend-mode:multiply" opacity="0.44">
<path d="M104.683 200.61C103.43 203.236 101.961 205.753 100.29 208.136C98.6375 210.537 96.7999 212.806 94.7939 214.923C92.7913 217.067 90.5726 219.001 88.173 220.694C85.7832 222.411 83.1222 223.719 80.3 224.563C82.8349 223.193 85.2239 221.571 87.4303 219.722L89.043 218.326C89.5948 217.861 90.1041 217.375 90.6134 216.889C91.6532 215.916 92.7355 214.901 93.648 213.844C95.6003 211.73 97.489 209.616 99.314 207.396C101.139 205.176 102.9 202.957 104.683 200.61Z" fill="#795D5C"/>
</g>
<path d="M162.743 154.458C162.638 154.479 162.53 154.479 162.425 154.458L133.395 145.621C133.131 145.544 132.909 145.363 132.782 145.12C132.654 144.877 132.63 144.592 132.716 144.332C132.794 144.068 132.975 143.846 133.218 143.715C133.461 143.585 133.746 143.555 134.01 143.634L163.04 152.429C163.626 152.511 164.035 153.05 163.953 153.634C163.871 154.218 163.329 154.625 162.743 154.543V154.458Z" fill="#332828"/>
<path d="M133.076 164.902C136.51 162.187 139.391 158.843 141.565 155.05C142.923 152.649 145.234 150.93 147.931 150.315C151.011 149.282 154.15 148.435 157.332 147.778C158.837 148.133 160.059 149.223 160.579 150.674C160.639 151.135 160.412 151.587 160.006 151.816L157.035 151.097L155.189 151.689C155.189 151.689 156.929 152.387 156.929 153.803C156.929 155.219 158.435 155.41 158.435 156.467C158.431 158.243 157.722 159.946 156.462 161.202C154.801 162.438 153.284 163.857 151.942 165.431C151.008 166.932 145.979 174.12 144.048 174.12C143.581 174.12 136.26 171.794 135.22 170.42C134.285 168.673 133.566 166.821 133.076 164.902H133.076Z" fill="#E7794F"/>
<path d="M138.297 181.625C132.727 187.364 126.469 192.398 119.665 196.614C106.423 204.225 98.4439 208.221 85.8811 205.282C73.3183 202.343 58.2939 185.325 50.8666 175.261C43.4393 165.198 16.9768 140.801 38.1977 125.326C44.9247 120.379 61.9015 137.101 71.2811 153.761C78.3797 165.565 86.6706 176.616 96.0247 186.741C101.7 184.767 107.201 182.327 112.471 179.447C115.421 177.608 120.959 173.655 125.564 170.335C129.04 174.88 133.363 178.713 138.297 181.625Z" fill="#232932"/>
<path d="M145.448 173.887C145.448 173.887 142.626 177.249 138.297 181.625C133.363 178.713 129.04 174.88 125.564 170.335C129.724 167.355 133.076 164.902 133.076 164.902C134.807 167.207 136.925 169.195 139.337 170.779C142.477 172.492 145.448 173.887 145.448 173.887Z" fill="#FDF2DD"/>
<path d="M28.6483 145.431C38.0704 142.556 53.0523 153.296 54.6439 175.283C56.2355 197.269 52.3308 217.375 61.1375 228.707C69.9442 240.038 83.9076 249.298 101.075 246.761C118.243 244.224 131.039 225.937 146.424 224.098C161.81 222.258 169.64 228.326 173.12 236.783C176.601 245.239 169.173 259.002 154.319 266.169C133.47 275.898 110.34 279.737 87.4515 277.268C59.5884 274.266 41.6991 260.165 33.5715 241.328C25.4439 222.491 17.7195 195.409 16.9768 174.12C16.234 152.83 22.6003 147.291 28.6483 145.431Z" fill="#E9DDD5"/>
<path d="M86.4329 75.559C86.3285 75.5859 86.219 75.5859 86.1146 75.559C85.9313 75.3705 85.9313 75.0711 86.1146 74.8825C87.1959 73.1641 88.1057 71.3443 88.8308 69.4492C88.8736 69.3297 88.9635 69.2328 89.0796 69.1809C89.1958 69.129 89.3283 69.1266 89.4462 69.1744C89.5624 69.2211 89.6547 69.3124 89.7026 69.4277C89.7505 69.543 89.7499 69.6726 89.7009 69.7875C88.9592 71.7787 88.006 73.6852 86.8573 75.4745C86.74 75.5738 86.5795 75.6058 86.4329 75.559Z" fill="#181E29"/>
<path d="M51.6942 45.8555C51.6942 47.9696 49.8268 49.7455 46.9407 51.6059C44.1487 53.0283 42.6612 56.1395 43.3119 59.1956C43.9698 62.4514 46.7709 63.7622 46.007 65.538C45.243 67.3139 43.4817 69.5549 45.0308 72.3878C46.58 75.2207 52.1823 76.3412 53.9861 76.3624C55.7898 76.3835 88.6186 56.9335 88.6186 56.9335C90.6058 54.4943 91.0334 51.1437 89.7221 48.2867C87.3029 43.8682 83.7166 44.5658 81.7006 43.5722C79.6846 42.5786 80.0241 38.4983 77.4564 37.3355C74.8887 36.1727 71.6419 38.8154 70.305 38.3292C68.2371 37.3081 66.791 35.3557 66.4215 33.0861C65.7849 30.1686 66.0608 28.0968 63.9174 26.4477C61.9517 24.9442 59.2028 24.9968 57.2965 26.5746C55.6201 27.9488 53.0523 25.8347 50.527 26.3632C46.5113 27.3806 43.704 30.9877 43.7151 35.1157C43.7151 40.3164 46.198 42.3037 48.1927 43.2974C50.1875 44.291 51.6942 44.1642 51.6942 45.8555Z" fill="#E8DBCB"/>
<path d="M88.6186 56.9547C90.2951 59.5973 89.6584 63.8467 89.1067 66.5317C88.4972 68.8876 87.7025 71.1921 86.7299 73.4237C86.5401 77.2382 85.745 80.9985 84.3744 84.5652C82.6343 88.3706 81.3398 92.3241 75.3767 92.7469C72.991 92.9138 70.9321 94.475 70.1352 96.7214C69.4773 98.5607 68.777 100.675 68.3314 102.218C67.3552 105.707 66.0395 113.571 66.0395 113.571C62.07 112.225 58.1986 110.607 54.4529 108.73C51.2749 107.345 48.4367 105.289 46.1343 102.704C48.4205 97.2386 50.3278 91.6229 51.8427 85.8971C52.925 79.9987 53.3282 75.4533 53.3282 75.4533C59.1427 74.7979 63.0474 70.9291 66.0608 65.4323C69.1955 64.6726 71.8938 62.6927 73.5517 59.9356C74.8149 57.7117 75.5957 55.2485 75.8436 52.7053C77.6513 54.1986 79.7559 55.2938 82.0189 55.9187C84.1748 56.5004 86.3876 56.8477 88.6186 56.9547Z" fill="#E7794F"/>
<path d="M86.8573 70.1891C87.5099 72.2136 88.3927 74.1572 89.4887 75.9818C89.6276 76.3646 89.5832 76.7896 89.3681 77.1357C89.1531 77.4817 88.791 77.7108 88.3852 77.7577C87.6078 77.8055 86.8283 77.8055 86.0509 77.7577L86.8573 70.1891Z" fill="#E7794F"/>
<path d="M84.6503 80.8866C82.7616 80.3369 81.0003 79.0685 80.6396 79.9564C80.2788 80.8443 80.873 82.4933 83.5893 83.4658C83.9655 83.6049 84.3575 83.6972 84.7564 83.7407C85.0934 82.8851 85.3768 82.0096 85.6053 81.1192L84.6503 80.8866Z" fill="white"/>
<path d="M82.0826 70.4005C82.0826 70.9925 81.743 71.4576 81.2337 71.3942C80.7244 71.3307 80.5971 70.8233 80.6608 70.2314C80.7244 69.6394 80.9791 69.1743 81.5096 69.2377C82.0401 69.3012 82.1462 69.7663 82.0826 70.4005Z" fill="#181E29"/>
<g style="mix-blend-mode:multiply" opacity="0.44">
<path d="M53.8163 42.0923C53.7197 40.9629 53.3639 39.8707 52.7765 38.9C52.5079 38.4848 52.1534 38.1316 51.7366 37.864C51.5305 37.7332 51.3097 37.6268 51.0788 37.5469C50.8029 37.4201 50.4846 37.2932 50.1875 37.1241C49.573 36.7985 49.0428 36.3354 48.6384 35.7711C48.2185 35.1478 48.0102 34.4068 48.0442 33.6569C48.1725 32.3514 48.871 31.1683 49.9541 30.4223C49.2922 31.4296 48.9792 32.625 49.0628 33.8261C49.2837 34.8014 49.9873 35.5979 50.9303 35.9402C51.1704 36.0624 51.4185 36.1683 51.673 36.2573C52.0033 36.3801 52.3169 36.5435 52.6067 36.7436C53.201 37.1424 53.6714 37.699 53.9648 38.3503C54.4386 39.5641 54.3848 40.9195 53.8163 42.0923Z" fill="#C29068"/>
<path d="M60.034 38.2869C60.1837 37.5141 60.2266 36.7245 60.1614 35.9402C60.1167 35.6821 59.9903 35.445 59.8006 35.2636H59.6521H59.546H59.4186L58.8457 34.9042C58.0527 34.4284 57.3665 33.7951 56.8297 33.0438C56.5606 32.6553 56.3729 32.2167 56.2779 31.7542C56.1781 31.2901 56.2379 30.8061 56.4477 30.38C56.5017 31.2176 56.9202 31.9898 57.5936 32.4941C58.2057 32.9959 58.8669 33.435 59.5672 33.8049L60.225 34.1854H60.416L60.7768 34.4603C61.2089 34.8811 61.4405 35.4656 61.4134 36.067C61.3748 36.5668 61.2224 37.0512 60.9678 37.4835C60.7045 37.8021 60.3888 38.0738 60.034 38.2869Z" fill="#C29068"/>
<path d="M54.4742 48.8364C54.7884 49.9742 54.9665 51.1451 55.0047 52.3247C55.1088 53.5913 54.804 54.858 54.1346 55.9398C53.9332 56.2216 53.6899 56.4711 53.4131 56.6798L52.9675 56.9546L52.6067 57.166C52.1474 57.4422 51.7204 57.7684 51.3335 58.1385C50.5758 58.8173 50.043 59.7094 49.8055 60.6966C49.6843 61.1944 49.6485 61.7091 49.6994 62.2188C49.6994 62.7685 49.8055 63.3182 49.8692 63.9101C49.9241 64.5291 49.9241 65.1516 49.8692 65.7705C49.7941 66.4389 49.5535 67.0782 49.1689 67.631L48.9355 67.9692C48.8773 68.0707 48.8276 68.1768 48.7869 68.2864C48.6983 68.51 48.6411 68.7448 48.6172 68.984C48.5873 69.5109 48.6743 70.0378 48.8718 70.5273C49.272 71.5592 50.1371 72.3426 51.2061 72.6415C49.9603 72.552 48.8509 71.8232 48.2776 70.7176C47.9577 70.1611 47.769 69.5394 47.7259 68.8995C47.7158 68.5567 47.7587 68.2144 47.8532 67.8847C47.902 67.7172 47.9659 67.5544 48.0442 67.3984L48.2564 66.9967C48.496 66.5696 48.6271 66.0906 48.6384 65.6014C48.6417 65.0682 48.5848 64.5363 48.4686 64.0158C48.3582 63.4286 48.2803 62.8357 48.2352 62.24C48.1405 61.6021 48.1405 60.9539 48.2352 60.3161C48.5643 59.0222 49.3096 57.8712 50.3573 57.0392C50.8285 56.6252 51.3487 56.2702 51.9064 55.9821L52.3308 55.7919L52.6279 55.6227C52.8232 55.4981 53.0015 55.3489 53.1585 55.1788C53.7792 54.3084 54.1464 53.2841 54.2195 52.219C54.3658 51.0969 54.4509 49.9677 54.4742 48.8364Z" fill="#C29068"/>
<path d="M58.9942 62.8953C59.2443 62.1801 59.3873 61.4322 59.4186 60.6755C59.4913 60.0611 59.2527 59.451 58.782 59.0476C58.4121 58.8381 58.0759 58.5744 57.7846 58.2654C57.4436 57.8893 57.2092 57.4296 57.1056 56.9335C56.953 56.014 57.1097 55.0701 57.5512 54.2485C57.9217 53.4673 58.466 52.7804 59.1428 52.2401C59.6963 51.7951 60.1515 51.2409 60.4797 50.6122C61.0358 49.2189 61.1251 47.6839 60.7343 46.236C61.1228 46.9347 61.3951 47.6915 61.5407 48.4769C61.6742 49.3106 61.6162 50.1635 61.371 50.9716C61.0745 51.7696 60.6033 52.4918 59.9916 53.0857C59.5091 53.599 59.1212 54.193 58.8457 54.8405C58.5696 55.412 58.4594 56.0491 58.5274 56.6798C58.5705 56.9488 58.6798 57.203 58.8457 57.4197C59.0771 57.6965 59.3406 57.9449 59.6309 58.1597C59.9864 58.5086 60.2238 58.9595 60.3099 59.4493C60.4076 59.895 60.4076 60.3566 60.3099 60.8023C60.056 61.5996 59.6033 62.3197 58.9942 62.8953Z" fill="#C29068"/>
<path d="M65.9122 48.3713C65.6322 49.5287 65.8149 50.7493 66.4215 51.775C66.5557 52.0063 66.7278 52.2136 66.9308 52.3881C67.0198 52.4837 67.1195 52.5688 67.2279 52.6418L67.6523 53.0435C67.948 53.3762 68.1397 53.7877 68.2041 54.2274C68.2581 54.6647 68.1996 55.1084 68.0343 55.517C67.7257 56.1939 67.2514 56.7827 66.6549 57.2295C66.3816 57.4439 66.0906 57.6349 65.7849 57.8003L65.4241 58.0117L65.1695 58.202C64.8734 58.5956 64.7864 59.1074 64.9361 59.5762C65.0676 60.2162 65.3596 60.8126 65.7849 61.3098C65.1763 61.014 64.6783 60.5326 64.3631 59.9356C64.1978 59.6051 64.097 59.2464 64.066 58.8785C64.0303 58.4553 64.1347 58.032 64.3631 57.6735C64.474 57.4997 64.6099 57.343 64.7663 57.2083L64.9997 57.0181L65.1907 56.8912L65.8486 56.3204C66.2418 55.9723 66.5595 55.5479 66.7823 55.0731C66.9661 54.732 66.9241 54.314 66.6762 54.016L66.4215 53.7412C66.2835 53.6178 66.1558 53.4834 66.0395 53.3395C65.8078 53.0524 65.6217 52.7315 65.4878 52.3881C64.8707 51.0744 65.034 49.5282 65.9122 48.3713V48.3713Z" fill="#C29068"/>
<path d="M81.1489 55.6862C81.6167 54.8076 81.6558 53.7641 81.255 52.8532C80.9098 52.0114 80.2119 51.3624 79.3451 51.0774C78.1571 50.6962 77.1473 49.9004 76.5015 48.8364C75.9281 47.7662 75.9281 46.4817 76.5015 45.4115C76.4864 46.4437 76.8399 47.4477 77.4989 48.2444C78.1423 48.9676 78.9828 49.4891 79.9181 49.7455C80.5424 49.9571 81.104 50.3204 81.5521 50.8025C81.9942 51.2913 82.2949 51.8905 82.4221 52.5361C82.5813 53.139 82.5813 53.7726 82.4221 54.3754C82.1808 54.958 81.7254 55.4268 81.1489 55.6862Z" fill="#C29068"/>
<path d="M75.78 52.6841C75.4418 52.8684 75.0619 52.963 74.6765 52.9589C74.2992 52.9562 73.9229 52.9209 73.5518 52.8532C73.3638 52.8312 73.1787 52.7886 73 52.7264C72.7864 52.6734 72.5798 52.5954 72.3846 52.4938C71.9698 52.2634 71.6308 51.9183 71.4085 51.5002C71.0764 50.7428 70.959 49.9093 71.0689 49.0901C71.1442 48.3785 71.2647 47.6724 71.4297 46.976L71.557 46.4474C71.5791 46.2932 71.5791 46.1366 71.557 45.9823C71.5394 45.6762 71.4675 45.3756 71.3448 45.0944C71.0645 44.5083 70.6035 44.0268 70.0291 43.7202C69.4334 43.3767 68.7784 43.1472 68.098 43.0437C67.3966 42.914 66.6773 42.914 65.9759 43.0437C66.6618 42.8314 67.3822 42.7524 68.098 42.8111C68.8298 42.8543 69.5483 43.0261 70.2201 43.3185C70.9278 43.6325 71.5208 44.1568 71.9178 44.8195C72.1171 45.1707 72.24 45.5596 72.2785 45.9612C72.2887 46.1584 72.2887 46.3559 72.2785 46.5531C72.289 46.7362 72.289 46.9197 72.2785 47.1028C72.2785 47.8216 72.2785 48.5193 72.2785 49.2169C72.2785 49.5552 72.2785 49.8935 72.2785 50.1894C72.3057 50.4557 72.3626 50.718 72.4483 50.9717C72.618 51.4156 72.9788 51.6905 73.6579 52.0076C73.955 52.1767 74.2733 52.3036 74.5916 52.4516C74.9691 52.6041 75.3726 52.6831 75.78 52.6841Z" fill="#C29068"/>
<path d="M66.9096 38.0543C66.6906 38.7068 66.3026 39.2902 65.7849 39.7456C65.315 40.2095 64.7787 40.6014 64.1933 40.9084C63.5993 41.2177 62.963 41.4385 62.3047 41.5638C61.9659 41.5952 61.6249 41.5952 61.2861 41.5638H60.3523C59.2837 41.575 58.2653 42.0174 57.53 42.79C56.6599 43.5511 55.8535 44.5236 54.8349 45.2846C55.3805 44.1579 56.0268 43.0824 56.766 42.0712C57.182 41.5254 57.7011 41.0658 58.2939 40.7181C58.9387 40.3455 59.6706 40.1486 60.416 40.1473H61.3285H62.1349C62.6924 40.0833 63.2407 39.9556 63.7689 39.7668C64.326 39.5904 64.8658 39.3639 65.3817 39.0902C65.9403 38.8232 66.4554 38.474 66.9096 38.0543Z" fill="#C29068"/>
</g>
<path fill-rule="evenodd" clip-rule="evenodd" d="M75.4404 73.318C77.2462 74.3846 79.3042 74.9537 81.4035 74.967C82.4183 75.0962 83.4426 74.8144 84.2471 74.1848C85.2679 72.5646 85.9868 70.7741 86.3692 68.8995V68.6246L86.1782 68.4344C84.8506 67.3478 83.2648 66.6198 81.5733 66.3202C79.5479 65.9721 77.4836 65.908 75.4404 66.13H75.1646L75.0584 66.4048C74.8462 66.9756 73.0849 71.7535 75.4404 73.318ZM75.9709 72.5358C74.5916 71.6267 75.3555 68.4555 75.8436 66.9967C77.6903 66.8216 79.5521 66.8855 81.3823 67.187C82.8095 67.4617 84.1533 68.0623 85.3082 68.9417C84.9743 70.569 84.3489 72.1231 83.4619 73.5294C82.6343 74.4173 78.093 73.9945 75.9709 72.5358Z" fill="#181E29"/>
<path d="M88.8733 70.6542C88.797 70.676 88.7161 70.676 88.6398 70.6542C87.8168 70.1009 86.8525 69.7929 85.8599 69.7663C85.6051 69.8086 85.3588 69.6541 85.2869 69.4069C85.2336 69.151 85.393 68.8988 85.6477 68.8361C86.8758 68.7853 88.0902 69.1099 89.1279 69.7663C89.2392 69.8238 89.3211 69.9254 89.3534 70.0461C89.3857 70.1668 89.3655 70.2955 89.2977 70.4005C89.2207 70.5628 89.0532 70.6629 88.8733 70.6542Z" fill="#181E29"/>
<path d="M75.5041 67.0391C75.4346 67.0579 75.3613 67.0579 75.2919 67.0391L74.2733 66.4894C71.939 65.2209 66.4215 62.2611 64.5965 62.8742C64.4213 62.9179 64.2786 63.0442 64.2146 63.2125C64.089 63.4128 63.8371 63.4944 63.6174 63.4057C63.3976 63.3171 63.2736 63.084 63.3233 62.8531C63.4994 62.4346 63.847 62.1114 64.2782 61.9652C66.2518 61.2886 70.4747 63.3393 74.7401 65.6649L75.6526 66.1511C75.763 66.2094 75.8453 66.3093 75.8812 66.4285C75.9171 66.5477 75.9036 66.6762 75.8436 66.7854C75.7778 66.9193 75.6515 67.0136 75.5041 67.0391Z" fill="#181E29"/>
<path d="M66.5276 64.2273C64.4081 62.2101 61.3209 61.5703 58.5698 62.5783C53.9012 64.333 53.2646 70.5063 55.5776 73.5929C57.8907 76.6795 63.1959 76.3413 63.1959 76.3413C63.4556 74.0675 63.9028 71.8189 64.5329 69.6183C65.0431 67.7682 65.7104 65.9647 66.5276 64.2273Z" fill="#E7794F"/>
<path d="M60.6919 66.1722C59.5708 66.5654 58.7222 67.4921 58.4319 68.6403C58.1416 69.7885 58.4484 71.0052 59.2488 71.8804C60.4542 72.9559 62.05 73.4909 63.6628 73.3603C63.875 72.2609 64.1721 70.929 64.5541 69.6183C64.9361 68.3075 65.1695 67.631 65.4454 66.8699C64.0595 65.9046 62.2982 65.6461 60.6919 66.1722Z" fill="#D5554D"/>
<path d="M562.631 357.034C578.483 354.92 596.584 346.802 600.085 338.007C603.587 329.212 602.865 298.79 602.335 287.691L606.176 287.331L610.017 287.691C609.486 298.79 608.807 329.149 612.287 338.007C615.768 346.865 633.869 354.92 649.721 357.034C665.573 359.148 675.314 361.03 675.505 364.666H536.89C537.038 361.03 546.8 359.127 562.631 357.034Z" fill="#795D5C"/>
<ellipse cx="606.537" cy="277.416" rx="15.6822" ry="11.6277" fill="#795D5C"/>
<path d="M684.311 147.461C674.825 144.564 659.971 155.325 658.316 177.291C656.66 199.257 660.629 219.404 651.822 230.736C643.015 242.068 629.052 251.328 611.884 248.791C594.716 246.254 581.92 227.967 566.599 226.212C551.277 224.457 543.383 230.44 539.903 238.897C536.423 247.353 543.85 261.095 558.705 268.283C579.557 278.002 602.683 281.84 625.572 279.382C653.435 276.38 671.324 262.258 679.452 243.442C687.579 224.626 695.24 197.396 695.94 176.128C696.641 154.86 690.359 149.321 684.311 147.461Z" fill="#E9DDD5"/>
<path opacity="0.94" d="M427.623 195.832H426.923C426.923 195.177 434.647 130.421 442.52 111.964L443.178 112.239C435.347 130.505 427.708 195.177 427.623 195.832Z" fill="#99B1A9"/>
<path opacity="0.52" d="M448.526 193.612C448.292 191.984 440.589 171.054 439.316 164.416C438.318 159.3 438.722 143.697 438.722 143.697H431.018C431.018 143.697 431.422 159.3 430.424 164.416C429.151 171.054 421.448 191.9 421.214 193.612C421.081 194.401 421.017 195.201 421.023 196.001H448.611C448.652 195.204 448.623 194.404 448.526 193.612Z" fill="#89A79E"/>
<rect opacity="0.94" x="430.467" y="142.45" width="8.743" height="1.28962" rx="0.25" fill="#89A79E"/>
<path d="M443.984 137.418C441.619 139.746 438.6 141.302 435.326 141.879C436.331 138.725 438.26 135.942 440.865 133.888C443.378 131.755 446.346 130.222 449.544 129.406C448.502 132.553 446.572 135.335 443.984 137.418Z" fill="#95AEA6"/>
<path d="M448.462 104.227C448.144 102.556 447.847 99.047 447.443 97.6305C447.411 97.5863 447.36 97.56 447.305 97.56C447.251 97.56 447.199 97.5863 447.167 97.6305C445.809 98.8144 443.666 101.415 442.584 102.556C442.244 101.14 441.374 97.5248 440.844 95.8547C440.819 95.7884 440.755 95.7444 440.684 95.7444C440.614 95.7444 440.55 95.7884 440.525 95.8547C439.371 98.4199 438.489 101.098 437.894 103.846C436.722 107.652 438.869 111.685 442.69 112.852C446.511 114.02 450.558 111.881 451.73 108.074C452.768 105.436 453.481 102.681 453.852 99.8715C453.863 99.8071 453.831 99.7428 453.772 99.7135C453.713 99.6843 453.642 99.6969 453.597 99.7447C452.345 100.569 449.884 102.747 448.462 104.227Z" fill="#D5554D"/>
<path d="M419.304 256.74C419.304 256.74 418.201 239.15 421.193 239.15C424.185 239.15 424.822 256.74 424.822 256.74C424.822 256.74 428.727 233.062 431.188 232.871C433.65 232.681 432.101 256.74 432.101 256.74C432.101 256.74 434.499 237.396 436.345 237.438C438.191 237.48 436.833 256.74 436.833 256.74C436.833 256.74 439.486 240.25 441.226 240.313C443.709 240.313 439.804 256.74 439.804 256.74H419.304Z" fill="#2D544B"/>
<path d="M420.174 256.74C420.174 256.74 415.294 246.169 416.397 245.197C417.501 244.224 423.506 256.74 423.506 256.74C423.506 256.74 425.034 238.854 426.626 238.664C428.217 238.474 428.536 256.74 428.536 256.74C428.536 256.74 430.488 236.529 432.631 236.169C434.774 235.81 434.223 256.74 434.223 256.74C434.223 256.74 437.915 242.744 439.316 242.639C440.716 242.533 438.403 256.74 438.403 256.74H420.174Z" fill="#426E60"/>
<path d="M437.554 286.465H421.724L417.861 256.74H441.395L437.554 286.465Z" fill="#FDF1DD"/>
<g style="mix-blend-mode:multiply" opacity="0.1">
<path fill-rule="evenodd" clip-rule="evenodd" d="M419.304 268.685V267.734H439.867L439.74 268.685H419.304ZM419.686 270.672V271.602H439.358L439.485 270.672H419.686ZM420.174 274.541L420.068 273.611H439.167L439.061 274.541H420.174Z" fill="#455A8B"/>
</g>
<path d="M533.452 353.694C533.452 353.694 534.789 353.335 535.043 354.075C535.298 354.814 535.171 357.711 535.404 358.683C535.638 359.656 535.765 365.258 535.765 365.258H480.59C480.381 362.852 481.703 360.571 483.901 359.55C487.678 357.711 495.488 356.379 498.543 355.153C501.599 353.927 506.225 351.516 507.032 351.39C508.323 351.727 509.554 352.262 510.682 352.975L533.452 353.694Z" fill="#292827"/>
<path d="M526.131 358.514C521.614 359.422 516.922 358.774 512.825 356.675C510.512 355.47 506.331 353.525 505.631 351.918C506.063 351.71 506.51 351.533 506.968 351.39C508.259 351.727 509.491 352.262 510.618 352.975L533.452 353.694C533.452 353.694 534.789 353.335 535.043 354.075C535.145 354.504 535.195 354.944 535.192 355.385C532.221 355.914 527.913 358.197 526.131 358.514Z" fill="#181F29"/>
<path d="M531.988 336.252C531.988 336.252 531.86 343.736 532.242 346.654C532.624 349.571 533.452 353.694 533.452 353.694C531.384 354.774 529.259 355.741 527.085 356.59C522.684 357.819 517.979 357.351 513.907 355.279C511.34 353.694 507.987 351.749 507.987 351.749C509.356 349.915 510.1 347.692 510.109 345.407C509.981 341.876 509.727 336.231 509.727 336.231L531.988 336.252Z" fill="#7B5A4B"/>
<path d="M648.087 187.46C651.249 203.274 655.408 230.588 643.843 245.176C632.278 259.763 618.208 255.408 601.401 255.894C584.594 256.381 531.818 255.556 531.818 255.556C531.818 255.556 534.513 279.15 533.94 290.334C533.367 301.517 533.94 320.502 533.94 324.646C533.94 328.79 537.102 332.426 536.38 335.09C535.659 337.753 526.852 338.261 519.785 338.493C512.719 338.726 505.504 338.261 504.761 337.521C504.018 336.781 502.809 329.064 502.809 329.064L505.737 328.832C505.737 328.832 497.079 304.139 496.591 279.826C496.103 255.514 495.042 238.96 509.026 228.263C521.632 218.643 541.728 214.901 559.66 212.195C567.944 210.802 576.295 209.835 584.679 209.299L582.557 195.684L648.087 187.46Z" fill="#6C7A78"/>
<path d="M550.513 158.75C547.415 155.685 542.916 146.277 540.412 137.609C538.29 130.653 535.892 123.55 530.884 122.091C527.74 121.252 524.532 120.673 521.292 120.357C519.34 119.935 517.048 119.702 517.048 119.702C516.713 120.23 516.571 120.857 516.645 121.478C517.167 122.817 518.395 123.754 519.828 123.909C517.672 124.241 515.483 124.298 513.313 124.078C511.207 123.899 509.14 123.407 507.18 122.62C506.119 122.133 505.631 120.357 504.315 120.759C503 121.161 503.424 122.873 503.912 123.507C504.4 124.142 504.888 124.903 504.888 124.903C504.888 124.903 504.315 125.304 504.888 126.192C505.33 126.806 505.884 127.329 506.522 127.736C506.522 127.736 506.119 128.941 507.732 129.85C510.519 131.023 513.513 131.627 516.539 131.626C520.104 131.626 523.52 131.393 523.52 131.393C523.52 131.393 524.263 138.835 526.046 149.554C527.913 160.632 535.256 175.494 535.256 175.494L550.513 158.75Z" fill="#7B5A4B"/>
<path d="M599.364 96.9752C612.924 104.269 623.45 113.254 632.447 131.52C645.689 158.327 651.546 203.591 652.416 211.667C652.442 211.934 652.333 212.197 652.124 212.367C651.915 212.537 651.634 212.591 651.376 212.512C639.631 208.774 627.431 206.64 615.11 206.17C604.866 205.681 594.607 206.736 584.679 209.299C584.679 209.299 568.721 161.689 568.721 144.649C568.721 127.609 576.764 111.457 576.764 111.457L599.364 96.9752Z" fill="#485CA8"/>
<path d="M561.4 50.1683C558.599 53.5721 557.495 59.0477 557.495 64.3964C557.495 69.7452 556.646 77.0812 560.424 81.3094C562.717 83.8583 565.91 85.4262 569.336 85.6857C569.336 85.6857 572.392 96.8906 573.984 101.267C575.12 104.612 576.056 108.022 576.785 111.478C581.535 110.661 586.064 108.876 590.09 106.235C598.027 101.499 599.364 96.9963 599.364 96.9963C599.364 96.9963 592.785 83.5081 591.194 75.3476C589.602 67.1871 582.536 55.1788 573.856 51.5213C565.177 47.8639 561.4 50.1683 561.4 50.1683Z" fill="#7B5A4B"/>
<path d="M557.792 64.0793C557.792 64.0793 553.548 68.3075 553.696 69.5549C553.845 70.8022 557.707 71.0982 557.707 71.0982L557.792 64.0793Z" fill="url(#paint0_linear_1029_4564)"/>
<path d="M561.888 62.9376C561.888 63.4239 562.185 63.8256 562.546 63.8256C562.906 63.8256 563.203 63.4239 563.203 62.9376C563.203 62.4514 562.906 62.0286 562.546 62.0286C562.185 62.0286 561.888 62.4302 561.888 62.9376Z" fill="#181F29"/>
<path d="M568.296 57.6734C567.173 56.3692 565.58 55.5568 563.861 55.4113C560.954 55.1788 560.19 56.257 560.232 57.2717C561.391 57.1752 562.555 57.1752 563.713 57.2717L568.296 57.6734Z" fill="#292827"/>
<path d="M558.11 73.5929C560.138 73.6219 562.12 72.991 563.755 71.7959L563.288 71.225C561.665 72.3929 559.684 72.961 557.686 72.8318V73.5717L558.11 73.5929Z" fill="white"/>
<path d="M587.82 74.7979C589.029 75.2207 590.451 76.3623 591.533 76.912C593.125 76.0029 600.022 60.9292 592.404 50.0414C588.177 43.7165 580.993 39.9901 573.368 40.1684C573.368 40.1684 573.368 35.6653 569.761 35.4328C567.654 35.2922 565.764 36.7157 565.326 38.7731C565.326 38.7731 564.88 34.8197 561.591 34.6928C558.301 34.566 558.111 38.4771 558.111 38.4771C557.578 37.689 556.732 37.1661 555.786 37.0408C554.841 36.9155 553.887 37.1998 553.166 37.8218C550.301 40.0627 552.869 45.9612 556.837 49.3649C560.968 52.9745 566.008 55.3939 571.416 56.3627C571.31 59.0959 572.149 61.7825 573.793 63.9735C575.736 66.4263 578.558 68.0329 581.666 68.4555L587.82 74.7979Z" fill="#292827"/>
<path d="M579.459 61.7537C582.135 59.9796 585.6 59.9054 588.35 61.5635C593.019 64.4175 592.488 71.2885 589.369 74.2483C586.249 77.208 580.626 75.707 580.626 75.707C580.824 73.1739 580.824 70.6292 580.626 68.0961C580.403 65.955 580.013 63.8345 579.459 61.7537Z" fill="#7B5A4B"/>
<path d="M585.358 65.0518C586.508 65.7209 587.248 66.9179 587.329 68.2425C587.41 69.5671 586.822 70.8446 585.761 71.6478C584.248 72.5462 582.434 72.7978 580.732 72.3455C580.732 71.077 580.732 69.576 580.541 68.1173C580.35 66.6585 580.265 65.834 580.117 64.9249C581.782 64.1216 583.734 64.1688 585.358 65.0518Z" fill="#714837"/>
<path d="M590.706 110.358C583.873 118.624 581.178 136.869 577.273 150.251C573.368 163.634 569.952 166.297 565.071 165.811C560.19 165.325 553.994 160.547 551.32 157.63C546.809 160.489 542.606 163.805 538.778 167.524C536.373 170.262 534.451 173.386 533.091 176.762C533.091 176.762 534.789 179.194 537.229 182.111C538.841 183.944 540.925 185.304 543.256 186.043C543.256 186.043 551.32 197.713 571.819 195.768C592.319 193.823 602.696 181.519 609.656 169.997C617.975 156.255 621.879 134.247 621.879 134.247C621.879 134.247 622.113 116.002 609.423 110.4C596.733 104.797 590.706 110.358 590.706 110.358Z" fill="#485CA8"/>
<g style="mix-blend-mode:multiply" opacity="0.57">
<path d="M514.862 131.372C512.392 131.206 509.967 130.627 507.69 129.66C506.077 128.835 506.48 127.545 506.48 127.545C505.842 127.139 505.287 126.615 504.846 126.002C504.273 125.114 504.846 124.713 504.846 124.713C507.323 126.736 510.224 128.18 513.334 128.941C513.677 129.844 514.196 130.67 514.862 131.372Z" fill="url(#paint1_linear_1029_4564)"/>
</g>
<path opacity="0.07" d="M537.229 182.111C534.789 179.194 533.091 176.762 533.091 176.762C534.451 173.386 536.373 170.262 538.778 167.524C542.606 163.805 546.809 160.489 551.32 157.63C553.394 159.807 555.757 161.692 558.344 163.232C553.379 165.826 549.241 169.751 546.396 174.564C544.471 178.096 543.396 182.026 543.256 186.043C540.925 185.304 538.841 183.944 537.229 182.111Z" fill="white"/>
<path opacity="0.07" d="M534.385 326.992C535.149 330.164 537.102 332.933 536.508 335.09C535.765 337.775 526.979 338.261 519.913 338.493C512.846 338.726 505.631 338.261 504.888 337.521C504.146 336.781 502.936 329.064 502.936 329.064L505.865 328.832C515.41 329.634 525.023 329.014 534.385 326.992V326.992Z" fill="white"/>
<path d="M480.803 363.208C486.044 363.208 515.308 363.884 519.425 363.546C524.885 363.015 530.298 362.075 535.616 360.734C535.616 362.7 535.765 365.258 535.765 365.258H480.59C480.54 364.568 480.612 363.873 480.803 363.208Z" fill="#ACB2B2"/>
<path d="M703.325 228.432C699.081 228.263 682.274 212.872 672.725 194.606C668.15 184.952 664.724 174.799 662.517 164.352L657.976 170.23C659.562 178.222 662.165 185.98 665.722 193.316C670.92 204.246 677.785 214.308 686.073 223.146C691.109 228.053 696.741 232.315 702.837 235.831L703.325 228.432Z" fill="#F0B41C"/>
<path d="M703.325 162.788C698.933 157.355 698.933 156.446 692.588 150.78C689.631 147.931 686.244 145.563 682.55 143.761L679.07 146.869C683.852 149.872 688.355 153.297 692.524 157.101C698.381 162.936 698.89 165.558 698.89 165.558L703.325 162.788Z" fill="#F0B41C"/>
<path d="M707.485 153.296C704.62 151.181 698.529 160.758 698.529 160.758L690.869 160.272C690.869 160.272 685.839 233.569 688.428 239.404C691.017 245.239 703.729 244.753 711.05 241.983C718.371 239.214 720.26 225.303 718.859 208.157C717.554 192.298 712.508 176.971 704.132 163.422C704.132 163.422 710.647 155.642 707.485 153.296Z" fill="#F0B41C"/>
<path d="M705.596 174.944C700.452 167.219 694.325 160.191 687.367 154.036C684.311 151.118 680.704 148.833 676.757 147.313C675.192 147.871 673.936 149.061 673.298 150.59C678.481 153.637 683.357 157.177 687.855 161.16C692.675 166.385 697.088 171.968 701.055 177.862L705.596 174.944Z" fill="#F0B41C"/>
<path d="M698.444 235.43C694.2 235.26 677.393 219.848 667.844 201.603C661.181 188.792 657.361 170.589 657.361 170.589C655.278 172.231 653.71 174.432 652.841 176.932C654.571 184.972 657.257 192.779 660.841 200.187C666.023 211.145 672.889 221.231 681.192 230.081C686.228 234.988 691.86 239.249 697.956 242.766L698.444 235.43Z" fill="#F0B41C"/>
<path d="M695.749 207.544C695.339 207.544 695.007 207.213 695.007 206.804C695.007 206.396 695.339 206.064 695.749 206.064C703.355 205.798 710.914 204.757 718.307 202.957L718.498 204.415C711.04 206.219 703.419 207.267 695.749 207.544Z" fill="#947E7D"/>
<path d="M579.926 194.331L585.698 192.386C591.56 189.846 596.876 186.207 601.359 181.667C610.462 171.393 619.184 154.184 621.964 134.184" stroke="#2A3076" stroke-width="0.1"/>
<path d="M524.709 120.865C526.024 120.865 532.836 122.049 535.319 125.537C536.019 126.552 538.333 131.372 538.333 131.372C541.41 139.829 541.685 144.67 546.036 151.266" stroke="#4E2A18" stroke-width="0.1"/>
<defs>
<linearGradient id="paint0_linear_1029_4564" x1="554.336" y1="69.9233" x2="557.137" y2="69.945" gradientUnits="userSpaceOnUse">
<stop stop-color="#714837"/>
<stop offset="1" stop-color="#7B5A4B"/>
</linearGradient>
<linearGradient id="paint1_linear_1029_4564" x1="508.275" y1="126.289" x2="507.984" y2="128.849" gradientUnits="userSpaceOnUse">
<stop stop-color="#D5554D"/>
<stop offset="0.88" stop-color="white"/>
</linearGradient>
</defs>
</svg>
