<?xml version="1.0" encoding="utf-8"?>
<!-- Generator: Adobe Illustrator 24.2.1, SVG Export Plug-In . SVG Version: 6.00 Build 0)  -->
<svg version="1.1" id="Layer_1" xmlns="http://www.w3.org/2000/svg" xmlns:xlink="http://www.w3.org/1999/xlink" x="0px" y="0px"
	 viewBox="0 0 525.1 331.5" style="enable-background:new 0 0 525.1 331.5;" xml:space="preserve">
<style type="text/css">
	.st0{fill:#E9DED6;}
	.st1{fill:#19C59F;}
	.st2{fill-rule:evenodd;clip-rule:evenodd;fill:#FFFFFF;}
	.st3{fill:#D8DEED;}
	.st4{fill:#20322A;}
	.st5{fill:#3551E1;}
	.st6{fill:#ECA266;}
	.st7{fill:#FFFFFF;}
	.st8{fill:#EF574B;}
</style>
<path id="bg_1" class="st0" d="M4,77.8h517c2.2,0,4,1.7,4,3.9v245.9c0,2.1-1.8,3.9-4,3.9H4c-2.2,0-4-1.7-4-3.9V81.7
	C0,79.6,1.8,77.8,4,77.8z"/>
<path id="bg_2" class="st1" d="M4,249.5h517c2.2,0,4,1.8,4,4v74c0,2.2-1.8,4-4,4H4c-2.2,0-4-1.8-4-4v-74C0,251.3,1.8,249.5,4,249.5z
	"/>
<path id="coat" class="st2" d="M329.8,331.5l25.9-52.2c0.9-1.8,0.3-4-1.4-5.1c-0.1-0.1-47.9-32.1-48-32.2c-1.9-1.2-4.3-0.6-5.5,1.3
	c-5.3,8.6-10.3,16.7-14.9,24.2c-2.6-15.8-5.6-26.7-8.9-32.7c-20.2-46-18.8-93.8-75.6-94.5c0,0.1,0.1,0.2,0.1,0.2
	c-32.4-6.2-92.9-17.5-124.2,14.5c-24.6,43-44.4,88.3-47.4,176.4H329.8z"/>
<path id="shirt" class="st3" d="M225.5,331.5h8l-33.6-190.5l-46.9-5.4C165,254.6,171,314.2,171,314.2S189.2,319.9,225.5,331.5z"/>
<path id="hair_3" class="st4" d="M199.3,102.2c14.4,7.2,41.7,8.4,49.7,4.2c27.6-5.5,15.8-26.2-2.3-43.5"/>
<path id="stethoscope" class="st5" d="M229.2,175.3c-3.8-70.2-108-70.4-112.1-0.4c-9.8,0.1-18.1,8-18.1,18
	c1.1,12.3-5.1,39,11.8,43.3c2.1,0.1,2.8-3.1,0.8-3.8c-13.4-4.4-7.3-29.4-8.6-39.5c0-18.5,29.4-18.5,29.5,0v26.6
	c0,5.4-3.1,10.3-8,12.6c-2.4,1.1-0.6,4.7,1.7,3.6c15.1-5.6,9.2-30.9,10.3-42.8c0-9-6.7-16.5-15.4-17.8
	c3.8-64.9,100.6-64.9,104.2,0.3c-13.5,2.3-12.7,24,2.4,24.1C242.9,199.4,243.5,177,229.2,175.3z M227.6,195.5
	c-10.6,0.1-10.6-16.5,0-16.3C238.2,179,238.2,195.7,227.6,195.5z"/>
<g id="person" transform="translate(29.000000, 0.242424)">
	<g id="Combined-Shape_4_" transform="translate(82.853793, 6.097373)">
		<g id="Skin">
			<path class="st6" d="M249.6,250.9v0.8l-0.3,0.1c-2,5.2-4.1,10.7-6.4,16.5c-1.1-0.8-47.7-32.1-48.9-32.7
				c7.4-9.9,16.7-32.6,26.3-34c8.1,3-7.3,29-1.3,26.3c12.2-5.3,35.2-57,43.1-50.8c2.1,1.7,4.5,36.7,0.5,46.6
				C258.7,233.3,249.6,250.9,249.6,250.9z M86.4,109.9l1.6,24.7l-13.2,11.3c-22.4-11.2-33.7-16.8-33.7-16.8s0-16.9,0-50.7
				c-11.1-11-13.9-21.9-12-36.5c0.4-2.8,10-11.4,16.1-15.2c5.8-3.7,18.2,8.5,19.4,9.2c0,0-1.1-34.1-1.1-34.1c-0.1-2.1,1.5-4,3.8-4.1
				c17.9-1.8,44.7-12.1,63.9,16.1c9.7,24.9,2.9,67-9.8,86.7C111.7,115.2,104.5,114.1,86.4,109.9z"/>
		</g>
	</g>
	
		<g id="Group-2" transform="translate(120.666115, 55.441384) rotate(-5.000000) translate(-120.666115, -55.441384) translate(59.666115, 5.941384)">
		<g id="Combined-Shape_7_">
			<path class="st4" d="M104.3,114l-0.5,14.8l-18.7-23.4L104.3,114z M147.2,69.4c1.1-3,5.6-3.3,5.8,0.8c0,4.7-5.6,10.1-6.8,7.2
				C145.4,75.5,146.5,71.7,147.2,69.4z M118.6,63.2c1.1-3,5.6-3.3,5.8,0.8c0,4.7-5.6,10.1-6.8,7.2C116.7,69.3,117.8,65.6,118.6,63.2
				z M137.2,69.5c0.1-1.7,2.8-1.5,2.7,0.2c0,0-1,13.3-1,13.3c-0.6,3.5-4.1,2.7-6.8,2.1c-1.5-0.5-4.1,0-4-2.1
				c0.4-1.8,2.3-0.9,3.6-0.7c1.4,0.1,3.6,1.1,4.6,0.5C136.1,82.8,137.2,69.5,137.2,69.5z M125.9,91.8c-0.9-0.5-3.1-1.7-3.1-3.1
				c0.1-2,2.2-0.6,4.8,0.3c4.2,1.4,7.6,2,7.6,2C132.8,95.2,129.2,94.1,125.9,91.8z"/>
		</g>
	</g>
	<g id="eyebrow">
		<path class="st4" d="M208.2,60.4c-8.5-3.8,8.8-6.9,11.5-2C221.9,63.1,211.7,61.5,208.2,60.4z"/>
	</g>
	<g id="eyebrow_1_">
		<path class="st4" d="M178.1,57.2c-8.5-3.6,8.8-7,11.6-2C192.6,59.8,181.4,58.4,178.1,57.2z"/>
	</g>
	<g id="hair_2">
		<path class="st4" d="M154.1,99c-23.4,5.9-59.4,0.8-70.8-7.6C46.2,76.2,68.1,50.2,98.5,31l19,24l0.2,21.5l18,0.4L154.1,99z"/>
	</g>
	<g id="hair_1">
		<path class="st4" d="M213.3,18.5C192.4-8.7,168.7,2.9,149.7,2.1c-26.9,1.4-32.6-4.3-48.3,11.6C84,39.4,90.9,73,105.3,86.3
			c11.6,12.8,28,6.7,31,3.3c4.7-9.4-13.3-33.8,15.2-27.6c-0.6-3.9-1.7-7.7-2.3-11.6c8.4-2.3,26-16.6,30.7-29
			C186.5,23.9,204.4,24.4,213.3,18.5z"/>
	</g>
	<g id="ear">
		<path class="st6" d="M143,76.8c-12.5,2.9-27.2-9.4-21.9-24.2c2.5-9.4,15.5-14.6,22.1-8.9c8.7,6.8,8.5,14.9,12.4,22.7"/>
	</g>
</g>
<path id="path" class="st7" d="M302.6,209.2c-2.8,0.4-3.3-4-0.4-4c38.3,1.2,57-55.2,73.7-79.9c2.4-4.1,7.6-5.4,11.8-3
	c2.2,1.3,0.2,4.8-2,3.5c-2.2-1.3-5.1-0.6-6.3,1.6C362.1,153.5,342.7,210.1,302.6,209.2z"/>
<g id="clipboard">
	<path class="st8" d="M328.6,240.3c-3.2-1.8-4.3-6-2.4-9.1c0,0,63.5-109.9,63.5-109.9c1.8-3.2,6-4.3,9.1-2.4s4.3,6,2.4,9.1
		l-63.5,109.9C335.9,241,331.8,242.1,328.6,240.3z"/>
</g>
<g id="arm_lines">
	<path class="st4" d="M253.7,323.6c3.4,2.1,9.3-12.9,13.9-18.5c4.3-6.7,9.3-14.4,13.8-21.2c0.9-1.1,0.9-2.4-0.3-3.3
		c-2.7-3.3-14.3,19.7-16.9,22.3C260.9,309.6,250.2,321.2,253.7,323.6z"/>
	<path class="st4" d="M97.3,318.4c33.6-16.2,84.6,3.6,120.9,13.1c0,0,12.4,0,12.4,0c-35.4-12.6-71.2-20.9-106.4-23.6l23.2-69.9
		c0.4-1.1-0.3-2.4-1.6-2.6c-1-0.2-2,0.5-2.3,1.5L120,307.5C117,306.9,84,315.8,97.3,318.4z"/>
</g>
</svg>
