<?xml version="1.0" encoding="utf-8"?>
<!-- Generator: Adobe Illustrator 24.2.1, SVG Export Plug-In . SVG Version: 6.00 Build 0)  -->
<svg version="1.1" id="Layer_1" xmlns="http://www.w3.org/2000/svg" xmlns:xlink="http://www.w3.org/1999/xlink" x="0px" y="0px"
	 viewBox="0 0 519 343.3" style="enable-background:new 0 0 519 343.3;" xml:space="preserve">
<style type="text/css">
	.st0{fill:#F7EFEA;}
	.st1{fill:#E9DED6;}
	.st2{fill:#EF574B;}
	.st3{fill:#F2B500;}
	.st4{fill:#19C59F;}
	.st5{opacity:0.177;fill:#444444;enable-background:new    ;}
	.st6{fill:#482D1F;}
	.st7{fill:#ECA266;}
	.st8{opacity:0.2;fill:#8C2A00;enable-background:new    ;}
	.st9{fill:#6C7878;}
	.st10{fill-rule:evenodd;clip-rule:evenodd;fill:#FFFFFF;}
</style>
<g id="record" transform="translate(488.000000, 0.000000)">
	<path class="st0" d="M-403.4,0h242.2c11,0,20,9,20,20v116c0,11-9,20-20,20h-242.2c-11,0-20-9-20-20V20C-423.4,9-414.5,0-403.4,0z"
		/>
	<path id="Combined-Shape" class="st1" d="M-362.9,127.5c-47.9-0.8-47.8-72.7,0-73.5C-315.1,54.8-315.1,126.7-362.9,127.5z
		 M-362.9,90.6c6.3,0.1,6.3-9.8,0-9.7C-369.2,80.8-369.2,90.7-362.9,90.6z M-362.9,93c-4.9,0-8.8,3.9-8.8,8.8h17.6
		C-354,96.9-358,93-362.9,93z"/>
	<g id="Icons-_x2F_-User" transform="translate(27.617976, 26.918901)">
	</g>
	<path id="Combined-Shape_1_" class="st1" d="M-300.7,83.9h60.8c9.4-0.1,9.5,14.7,0,14.6c0,0-60.8,0-60.8,0
		C-310.1,98.6-310.2,83.7-300.7,83.9z M-300.7,107.6h117.2c4,0,7.3,3.3,7.3,7.3s-3.3,7.3-7.3,7.3h-117.2
		C-310.1,122.3-310.2,107.5-300.7,107.6z M-300.7,60.2h89.6c4,0,7.3,3.3,7.3,7.3s-3.3,7.3-7.3,7.3h-89.6
		C-310.1,74.9-310.2,60-300.7,60.2z M-423.4,17.1c0-9.4,7.6-17.1,17-17.1h248.3c19.5,0.9,17.3,20.1,17,34.2h-282.3V17.1z"/>
	<g id="Text" transform="translate(115.697495, 211.167095)">
	</g>
	<path id="Burron-Copy" class="st2" d="M-400.5,10.1c9.6-0.1,9.6,14.9,0,14.8C-410.1,25-410.1,10-400.5,10.1z"/>
	<path id="Burron-Copy-2" class="st3" d="M-376.4,10.1c9.6-0.1,9.6,14.9,0,14.8C-386,25-386,10-376.4,10.1z"/>
	<path id="Burron-Copy-3" class="st4" d="M-351.6,10.1c9.6-0.1,9.6,14.9,0,14.8C-361.2,25-361.2,10-351.6,10.1z"/>
</g>
<g id="Chair" transform="translate(542.000000, 450.300000)">
	<path id="Path_1_" class="st1" d="M-23.4-278.6c0-2.4-3.5-4.4-53.4-4.4h-10.4c-49.8,0-91.4,2-91.4,4.4V-107h155.2V-278.6z"/>
</g>
<g id="woman" transform="translate(9.154215, 0.000000)">
	<path id="T-shirt" class="st4" d="M370.4,162.3c5-1.7,22.4-8.2,27.7-8.8c20.7-15.2,55.7-4.9,66.2,22.7
		c8.1,20.6,18.8,43.9,17.8,44.2c-0.2,0.1-4.9,3.4-11.3,5.5c10.7,52.3,37,103.7-18.4,111.5c-26.9,2-64.2,4.8-68.6-3
		c-2.8-5-16.1-36-39.8-93.1c-8.9,2.9-13.5,4.3-13.9,4.4c-1.2,0.2-5.4-13.7-8.2-35.6C316.9,183.7,343.1,151.5,370.4,162.3z"/>
	<path id="Combined-Shape_2_" class="st5" d="M370.5,162.4c-27.1,11.3-39.9,52-26.5,79c-8.9,2.9-13.6,4.4-14,4.4
		c-1.2,0.2-5.4-13.7-8.2-35.6C316.9,183.7,343.2,151.4,370.5,162.4z"/>
	<path id="Finger" class="st6" d="M329,165.3c-2.6,11,20.4,1.8,20.4,2.3l-2.5-6.5L329,165.3z"/>
	<path id="Skin" class="st7" d="M384,160.3l17.9,83.7l4.3-22.7c22.6,4.4,40.8,6.6,55.1,6.6c-6.8,30-16.5,131.2-74,110.6
		c1,0.3,1.9,0.6,3,0.8l-113.1,1.7l0,0c-0.5-0.1-1,0-1.4-0.1c0,0-46.3-3.4-46.3-3.4c-12.1-0.7-22.6-11.5-26.3-22.5
		c-1.8-14,14.3-14.1,23.9-15.4c16.6-3.2,40.5,2,57.1,4.2c21.7-6.8,50.6-15.8,57.8-17.3l-9-41.6l10.6-4.2c3.3,7.6,6.5,14.7,9.4,21.4
		c-3.3-31.7-3-66.7-6.9-97.8l-10,0.2c-6,2.4-18.5,6.3-19.9-2.1c-0.1,0.2,23.3-9.5,32.7-13.9c-19.7,4-36.5-53.9-23.8-72.1
		c10.8-14.5,28.2-11.6,42.8-11.2c1.5,0,2.8,1.2,2.9,2.7l1.2,24.2c0,0.2,0.1,0.4,0.1,0.8c9.7-3.9,16.7-1.7,20.8,6.8
		c6.3,12.7,0.6,9.9-2.2,13.3c-2.4,2.9-4.9,3.4-7.1,4.6l7.5,0.1c1,2.8,1.8,8.8,1.8,11.8c0,0,5,24.2,5,24.2S391,157.5,384,160.3z
		 M367.1,145.9l-0.6-2.7c-10.2,4.1-7.1,3.3-12.3,4.6C357.1,147.3,364.4,146.3,367.1,145.9z"/>
	<path id="Shadow" class="st6" d="M373,145.1c-1.4,0.1-4.5,0.8-5.9,0.7l-0.6-2.7l10.3-4.4C375.5,141.9,374.2,144,373,145.1z"/>
	<path id="Eyes" class="st6" d="M328.9,111.1c0.3,1.7,1,4.4,0.3,5.7c-1.1,2.1-4.8-2.2-4.5-5.4C324.9,108.4,328.4,108.9,328.9,111.1z
		 M349.4,107.5c0.3,1.7,1,4.4,0.3,5.7c-1.1,2.1-4.8-2.2-4.5-5.4C345.4,104.8,348.9,105.3,349.4,107.5z"/>
	<path id="Nose" class="st6" d="M333.7,110.9c0.6,1.9-1.8,12,2.2,11.6c0.7,0,3.5-0.3,4.7-0.4c1.2-0.1,1.1-2-0.2-1.9
		c-1.3-0.1-4.3,0.9-4.8,0.1c0,0,0-9.4,0-9.4C335.6,109.6,333.6,109.6,333.7,110.9z"/>
	<path id="Mouth" class="st6" d="M342.5,127.4c0.8-0.3,2.8-1.4,2.3-2.6c-0.9-0.5-9.4,1.9-9,1.4C337.2,129.4,339.8,128.7,342.5,127.4
		z"/>
	<path id="Glasses" class="st6" d="M365.8,100.5l3.2-1.1c1.8-0.6,2.8,2.1,0.9,2.7c-1.4,0.5-4.2,1.4-5.6,1.9c5.1,17-21,24.5-26.2,7.9
		c-0.8,0.1-2.3,0.4-3.1,0.5c0.7,17.1-25.8,18.8-27.3,1.7c-1.8-16.1,23.3-20.1,26.9-4.5l1.4-0.2l0.4,2.8c-1.7-1.2-1.7-1.2-1.7-1.3
		l-1.5-1.1l1.4-0.2c0.1,0.3,0.1,0.5,0.2,0.8c0.1-1.1,1.9-1.1,2.8-1.3c-1.7-14.2,19.2-20.1,25.6-7.7L365.8,100.5z M333.7,112.5
		c-1.8,0.3-2.3-2.5-0.4-2.8c1-0.2,3.3-0.5,4.3-0.7c0.1,1,0.3,1.9,0.5,2.8C337.1,112,334.7,112.4,333.7,112.5z M336.4,112.1
		c-0.7,0.1-1.2-0.2-1.5-0.6L336.4,112.1z M352.1,118.5c14-1,12-22.5-1.9-21.1C336.3,98.4,338.2,119.9,352.1,118.5z M320.4,102.3
		c-14,1-12,22.5,1.9,21.1C336.3,122.4,334.3,100.9,320.4,102.3z"/>
	<path id="Shadow-Arm" class="st8" d="M390.1,339.2L277,340.9l0,0c-0.5-0.1-1,0-1.4-0.1c0,0-46.3-3.4-46.3-3.4
		c-12.1-0.7-22.6-11.5-26.3-22.5c-1.8-14,14.3-14.1,23.9-15.4c16.6-3.2,40.5,2,57.1,4.2c21.7-6.8,50.6-15.8,57.8-17.3l-9-41.6
		l10.6-4.2C360.6,271.7,358.5,335.1,390.1,339.2z"/>
	<path id="Shadow_1_" class="st6" d="M400.9,244.4c-0.6-1.8,2.3-2.6,2.8-0.8c-0.5,0.8,12.1,34.1,8.6,33.4
		C409.8,279.7,401.7,244.7,400.9,244.4z M461.3,229c-1.9,0-1.9-2.9,0-2.8c4,0,7.8-0.5,11.3-1.7C480.2,227.1,463.8,229.5,461.3,229z"
		/>
	<path id="Hair" class="st6" d="M381.3,116.8c26.8-6.7,0.1-42.6-10.9-15.6c-7.2-7.5-12.6-12.4-20.2-19.6c-3.8,1.3-27.9,9.7-29.7,8.9
		c1.8-27.7,28.8-26.5,47.6-25.8c15.9-0.3,20.7-2.8,29.7,1.8c11.5-29.7,32.8-27.8,37.5-27.3c33,4.1,26,61.1-24.7,49.1
		c0.8,19.6-8.9,28-17.7,39.9C387.4,124.9,384.1,121.4,381.3,116.8z"/>
</g>
<g id="mouse" transform="translate(466.000000, 529.000000)">
	<path id="Mouse" class="st9" d="M-267.6-213.9c10.9-10.6,33.1-19,69.8,2c5.6,3.1,3.6,12.8-2.6,12.8l-63.9-0.4
		C-269.2-199.4-271.2-210.3-267.6-213.9z"/>
</g>
<g id="table" transform="translate(167.500000, 612.000000)">
	<path id="Combined-Shape_5_" class="st1" d="M-167.5-268.7c-0.4-6.9-0.2-13.6,8.5-14c0,0,479,0,479,0c3.9,0,7,3.1,7,7s-3.1,7-7,7
		h-473.5C-153.5-268.7-167.5-268.7-167.5-268.7z"/>
</g>
<g id="computer" transform="translate(52.000000, 77.000000)">
	<path class="st9" d="M24.3,238.4l9.6-38.8h-72.2c-7.5,0-13.7-5.7-13.7-12.6V77.1c-0.1-7,6-12.7,13.6-12.7h219.7
		c7.5,0,13.7,5.7,13.7,12.6v110c0,6.9-6.2,12.6-13.7,12.6h-88l-4,38.8h26c9.3-0.1,9.2,14.4,0,14.2c0,0-111.5,0-111.5,0
		c-9.2,0.1-9.4-14.4,0-14.2C3.9,238.4,24.3,238.4,24.3,238.4z"/>
	<path id="Shadow_2_" class="st10" d="M96.3,171.3l0.3,67.2h-7.2L96.3,171.3z"/>
</g>
</svg>
