<svg width="280" height="150" viewBox="0 0 280 150" fill="none" xmlns="http://www.w3.org/2000/svg">
<g clip-path="url(#clip0_1806_25349)">
<rect width="280" height="150" fill="white"/>
<mask id="mask0_1806_25349" style="mask-type:luminance" maskUnits="userSpaceOnUse" x="0" y="0" width="280" height="150">
<rect width="280" height="150" fill="white"/>
</mask>
<g mask="url(#mask0_1806_25349)">
<path d="M165.737 63.0489C172.127 70.125 173.567 90.3424 172.981 97.1821C172.395 104.022 155.571 115.386 155.571 115.386L132.674 88.2962C132.674 88.2962 140.887 78.1631 140.252 72.0489C139.617 65.9348 142.157 53.6413 152.527 56.3152C162.896 58.9891 163.206 60.2527 165.737 63.0489Z" fill="#BFD6C4"/>
<path d="M162.408 73.8261C165.721 79.2636 171.19 89.7065 166.697 96.2935C163.669 100.496 159.729 103.955 155.172 106.41L136.361 85.8587L143.972 80.4701L144.631 76.8831L162.408 73.8261Z" fill="#26283A"/>
<path d="M246.864 85.1576C208.006 88.125 169.286 90.0489 130.704 90.2201C98.1951 90.2201 65.5936 88.981 32.8998 86.5027C29.3551 86.5027 25.9557 87.913 23.4492 90.4233C20.9428 92.9337 19.5347 96.3384 19.5347 99.8886V128.495C19.5347 135.082 24.7847 138.978 30.5393 141.677C43.7986 147.905 134.164 148.37 190.782 145.924C219.784 145.043 243.079 143.258 249.224 140.364C254.979 137.666 260.229 133.777 260.229 127.19V98.5435C260.229 91.1507 254.245 85.1576 246.864 85.1576Z" fill="#BFD6C5"/>
<path d="M246.864 78.5869C208.006 81.5543 169.286 83.4782 130.704 83.6576C98.1951 83.6576 65.5936 82.4185 32.8998 79.9402C29.3551 79.9402 25.9557 81.3505 23.4492 83.8608C20.9428 86.3712 19.5347 89.7759 19.5347 93.3261V121.932C19.5347 128.519 24.7847 132.408 30.5393 135.114C43.7986 141.342 134.164 141.758 190.782 139.321C219.784 138.44 243.079 136.647 249.224 133.761C254.979 131.062 260.229 127.166 260.229 120.579V91.9728C260.229 84.58 254.245 78.5869 246.864 78.5869Z" fill="#DDE9E8"/>
<path d="M116.94 82.4755C119.537 81.3913 121.596 81.7582 124.73 83.038L125.186 79.3696C125.186 79.3696 130.444 69.3424 135.409 65.413C140.374 61.4837 141.693 50.7391 141.693 50.7391C137.623 51.3669 129.663 55.4103 123.167 64.2473C118.357 70.8016 116.794 76.9891 116.94 82.4755Z" fill="#DC8C54"/>
<path d="M122.842 64.2554C125.08 67.1331 129.703 69.8234 130.835 69.9619C133.212 67.7853 137.981 62.7228 137.981 62.7228L141.457 50.8859C138.698 50.4375 128.32 55.1657 122.842 64.2554Z" fill="#F0929C"/>
<ellipse cx="181.764" cy="6.72554" rx="0.154648" ry="0.154891" fill="white"/>
<path d="M93.2544 100.272C93.1018 100.269 92.9635 100.181 92.8963 100.043L87.8579 89.6739C87.764 89.4734 87.8472 89.2345 88.0451 89.1359C88.1411 89.0884 88.252 89.0816 88.353 89.1168C88.454 89.1521 88.5367 89.2265 88.5824 89.3234L93.6044 99.7174C93.6521 99.8147 93.6592 99.9269 93.6241 100.029C93.5889 100.132 93.5145 100.216 93.4172 100.264C93.364 100.276 93.3087 100.279 93.2544 100.272Z" fill="#EF5123"/>
<rect width="23.2675" height="34.4685" transform="matrix(-0.820694 -0.571368 0.570174 -0.821524 123.405 131.259)" fill="#F7EFEA"/>
<path d="M114.873 113.111L125.072 120.204C125.151 120.263 125.251 120.287 125.348 120.27C125.445 120.253 125.531 120.196 125.585 120.114L132.666 109.908C132.725 109.829 132.749 109.729 132.732 109.631C132.715 109.534 132.659 109.448 132.577 109.394L122.378 102.293C122.213 102.181 121.989 102.221 121.873 102.383L114.767 112.598C114.657 112.769 114.704 112.997 114.873 113.111Z" fill="#EE584B"/>
<path d="M114.165 113.764C114.377 114.066 114.789 114.149 115.101 113.951L125.487 108.098L127.481 106.973C127.774 109.639 127.945 112.313 128.01 114.995C128.037 115.364 128.358 115.641 128.727 115.614C129.095 115.587 129.372 115.266 129.345 114.897C129.28 111.872 129.06 108.856 128.702 105.848C128.679 105.612 128.536 105.406 128.324 105.301C128.112 105.197 127.861 105.209 127.66 105.334L117.274 111.188L114.36 112.818C114.206 112.915 114.098 113.07 114.061 113.249C114.024 113.428 114.062 113.613 114.165 113.764Z" fill="white"/>
<path d="M117.209 77.9266C117.013 79.5057 116.929 81.0966 116.957 82.6875C117.045 86.1172 117.333 89.5387 117.82 92.9348C117.82 92.9348 118.015 97.4429 118.113 98.5109C118.21 99.5788 116.232 103.158 116.957 103.207C117.681 103.255 119.399 99.8723 119.399 99.8723C119.399 99.8723 118.845 103.443 119.61 103.948C120.375 104.454 120.538 102.97 120.571 102.807C120.636 103.019 121.206 104.918 121.531 104.78C121.857 104.641 122.15 102.497 122.182 102.334C122.182 102.546 122.557 104.641 122.996 104.201C123.436 103.761 123.24 98.2255 123.224 97.8832C123.297 98.1033 124.038 100.59 125.389 100.639C126.74 100.688 126.26 100.37 126.26 100.37C125.499 99.1607 124.894 97.8594 124.461 96.4973C124.063 94.8668 123.493 93.2364 123.493 93.2364L125.186 79.4266C122.19 77.788 119.879 77.0951 117.209 77.9266Z" fill="#DC8C54"/>
<rect width="8.64561" height="18.0615" rx="2.38" transform="matrix(0.534792 0.844984 -0.844232 0.535977 72.123 106.896)" fill="#383A4A"/>
<path fill-rule="evenodd" clip-rule="evenodd" d="M70.8136 107.764C71.0566 107.606 71.3382 107.519 71.6275 107.511C72.1954 107.498 72.7291 107.782 73.0357 108.261L75.9333 112.834C76.405 113.59 76.1839 114.584 75.4368 115.068L62.9101 123.016C62.6557 123.182 62.3588 123.27 62.0554 123.269C61.502 123.268 60.9869 122.986 60.688 122.519L57.7903 117.946C57.3187 117.19 57.5398 116.196 58.2868 115.712L70.8136 107.764ZM72.5147 108.571C72.3214 108.268 71.9862 108.086 71.6275 108.09C71.4338 108.09 71.2442 108.146 71.0822 108.253L58.5554 116.201C58.0743 116.511 57.9326 117.151 58.238 117.636L61.1357 122.209C61.3241 122.513 61.6577 122.695 62.0147 122.69C62.2085 122.69 62.3981 122.634 62.5601 122.527L75.0868 114.579C75.568 114.269 75.7097 113.628 75.4043 113.144L72.5147 108.571Z" fill="#242638"/>
<rect width="0.578154" height="3.85434" transform="matrix(0.851272 -0.524724 0.523545 0.851998 60.4341 117.1)" fill="#B8B8B8"/>
<rect width="0.578182" height="3.82155" transform="matrix(0.831652 -0.555297 0.554102 0.832449 70.8716 110.552)" fill="#B8B8B8"/>
<path d="M177.255 110.054L179.753 112.076C180.287 111.788 180.856 111.571 181.446 111.432C182.035 111.346 182.634 111.374 183.213 111.514C183.213 111.514 183.937 108.929 184.425 108.848C184.914 108.766 185.711 110.853 185.744 111.611C185.744 111.856 186.599 114.497 186.599 114.497C186.599 114.497 190.221 111.75 193.688 111.587C197.156 111.424 203.106 112.72 205.898 117.799C208.689 122.878 206.671 126.872 205.621 127.337C202.365 128.788 191.238 128.152 183.27 128.005C180.714 128.101 178.434 126.407 177.784 123.929C177.17 121.907 176.796 119.819 176.668 117.709C176.681 116.036 176.814 114.366 177.067 112.712C177.173 112.288 176.856 110.266 177.255 110.054Z" fill="#181E29"/>
<path d="M180.038 115.508C180.038 115.859 179.754 116.144 179.403 116.144C179.053 116.144 178.769 115.859 178.769 115.508C178.769 115.157 179.053 114.872 179.403 114.872C179.754 114.872 180.038 115.157 180.038 115.508Z" fill="#E6BC75"/>
<path d="M184.417 115.149C184.417 115.501 184.133 115.785 183.782 115.785C183.432 115.785 183.147 115.501 183.147 115.149C183.147 114.798 183.432 114.514 183.782 114.514C184.133 114.514 184.417 114.798 184.417 115.149Z" fill="#E6BC75"/>
<path d="M179.631 89.9755H188.658C188.784 89.9755 188.886 90.0777 188.886 90.2038V99.644C188.886 100.725 188.011 101.601 186.932 101.601H181.357C180.278 101.601 179.403 100.725 179.403 99.644V90.2038C179.403 90.0777 179.505 89.9755 179.631 89.9755Z" fill="#37B99A"/>
<path fill-rule="evenodd" clip-rule="evenodd" d="M188.788 98.1359H189.757C191.249 98.1359 192.459 96.9241 192.459 95.4293V93.9864C192.459 92.4916 191.249 91.2799 189.757 91.2799H188.788C187.294 91.2799 186.082 92.4903 186.078 93.9864V95.4293C186.082 96.9254 187.294 98.1359 188.788 98.1359ZM187.712 92.9113C187.998 92.6267 188.385 92.4679 188.788 92.4701H189.757C190.594 92.4701 191.274 93.1476 191.279 93.9864V95.4293C191.279 96.2713 190.597 96.9538 189.757 96.9538H188.788C187.947 96.9538 187.266 96.2713 187.266 95.4293V93.9864C187.266 93.5828 187.427 93.1959 187.712 92.9113Z" fill="#37B99A"/>
<rect x="181.438" y="95.8206" width="5.51862" height="0.53804" fill="white"/>
<rect x="181.438" y="97.3288" width="5.51862" height="0.53804" fill="white"/>
<ellipse cx="184.14" cy="89.7228" rx="4.74535" ry="4.75272" fill="white"/>
<path d="M188.251 89.7228C188.254 89.9963 188.229 90.2695 188.177 90.538C187.905 88.5161 186.181 87.0076 184.144 87.0076C182.107 87.0076 180.384 88.5161 180.111 90.538C179.966 89.0818 180.607 87.6585 181.794 86.8042C182.98 85.95 184.531 85.7946 185.863 86.3966C187.195 86.9986 188.105 88.2666 188.251 89.7228Z" fill="#37B99A"/>
<path d="M188.178 90.4891C187.905 92.5111 186.182 94.0196 184.144 94.0196C182.107 94.0196 180.384 92.5111 180.111 90.4891C180.384 88.4672 182.107 86.9587 184.144 86.9587C186.182 86.9587 187.905 88.4672 188.178 90.4891Z" fill="#61433A"/>
<g opacity="0.39">
<path d="M181.731 86.682C181.786 87.0892 181.868 87.4922 181.976 87.8886C182.116 88.3265 182.293 88.7519 182.505 89.1603C182.831 89.9852 182.56 90.927 181.845 91.4511C181.723 91.5163 181.772 91.5081 181.772 91.3125C181.774 90.6985 181.64 90.0918 181.381 89.5353C180.783 88.627 180.932 87.4183 181.731 86.682Z" fill="white"/>
<path d="M186.395 91.4918C186.395 89.3478 185.467 89.3478 185.679 87.9212C185.731 87.4983 185.923 87.1052 186.224 86.8043C186.574 86.4619 186.11 87.0163 187.087 89.0543C187.499 89.9257 187.203 90.9677 186.395 91.4918Z" fill="white"/>
<path d="M184.076 90C184.076 87.856 183.148 87.856 183.36 86.4375C183.41 86.0118 183.602 85.6155 183.905 85.3125C184.255 84.9782 183.791 85.5244 184.768 87.5625C185.183 88.4335 184.887 89.4781 184.076 90Z" fill="white"/>
</g>
<path d="M42.2357 92.9837H51.0346L52.1985 80.144H41.0718L42.2357 92.9837Z" fill="url(#paint0_linear_1806_25349)"/>
<g style="mix-blend-mode:multiply" opacity="0.34">
<path d="M46.631 89.9511C44.9816 89.9628 43.351 89.6005 41.8613 88.8913L41.2915 82.6141H51.9706L51.4008 88.8913C49.9116 89.6021 48.2806 89.9645 46.631 89.9511Z" fill="#714837"/>
</g>
<path d="M52.9066 82.1984L51.9706 88.1658C48.6355 89.9913 44.6021 89.9913 41.2671 88.1658L40.3311 82.1984L52.9066 82.1984Z" fill="url(#paint1_linear_1806_25349)"/>
<ellipse cx="46.6312" cy="81.0326" rx="6.38954" ry="6.39946" fill="#F1D39D"/>
<path d="M43.7419 82.2228C43.8232 82.1331 43.9209 82.0435 44.0023 81.9456H44.0512C44.0919 81.9456 44.2058 81.8967 44.0512 81.9456L44.6779 81.7826C44.9709 81.7826 45.2639 81.7826 45.557 81.7826H45.8256C46.9814 76.2962 50.1802 69.7011 51.4744 67.1984C52.8907 64.4511 58.4093 59.4049 60.9163 62.1522C63.4233 64.8994 59.2232 68.6739 55.6988 71.7717C52.3774 74.6866 49.7942 78.3495 48.1616 82.4592C48.2527 82.5 48.3399 82.5492 48.4221 82.606L48.7965 82.8342C48.8453 82.8342 49.0163 82.9973 49.0651 83.0217C49.2442 83.1766 49.4314 83.3397 49.6023 83.5027C49.7732 83.6657 50.05 83.9918 50.2779 84.2364C49.1411 85.362 47.5629 85.9221 45.9722 85.7645C44.3814 85.6069 42.9434 84.748 42.0488 83.4212C42.6775 83.1217 43.2502 82.7164 43.7419 82.2228Z" fill="url(#paint2_linear_1806_25349)"/>
<g style="mix-blend-mode:multiply" opacity="0.17">
<path d="M45.7683 81.7418H45.8904C47.0462 76.2554 50.2451 69.6603 51.5393 67.1576C52.9555 64.4185 58.4579 59.3804 60.9648 62.0951C57.6439 65.0054 52.2555 69.9619 50.5218 73.5081C48.6579 77.3397 47.3718 84.1793 47.3718 84.1793L45.2393 83.8777L45.7683 81.7418Z" fill="url(#paint3_linear_1806_25349)"/>
</g>
<path d="M46.7615 82.663C48.2511 77.6168 52.1825 67.6467 51.9057 62.6332C51.629 57.6196 49.2685 58.2636 48.2918 59.3152C47.315 60.3669 45.915 62.3315 45.5488 67.4674C45.1825 72.6033 45.0767 82.7527 45.0767 82.7527L46.7615 82.663Z" fill="url(#paint4_linear_1806_25349)"/>
<path d="M47.429 83.5516C47.3883 83.413 46.2731 71.4946 45.6952 68.2908C45.1173 65.087 43.6848 62.8614 42.7487 62.9266C41.8127 62.9918 41.7883 66.6033 42.708 71.3397C43.6278 76.0761 45.9638 83.4783 45.9638 83.4783L47.429 83.5516Z" fill="url(#paint5_linear_1806_25349)"/>
<path d="M57.3671 71.4212C59.288 73.5815 55.5031 76.019 53.4275 77.788C51.352 79.5571 50.0008 81.4239 50.245 84.2609C49.6099 84.8876 48.8297 85.3469 47.9741 85.5978C46.8264 81.7011 47.8113 76.6304 49.2927 74.4049C50.7741 72.1793 55.4543 69.2935 57.3671 71.4212Z" fill="url(#paint6_linear_1806_25349)"/>
<g style="mix-blend-mode:multiply" opacity="0.17">
<path d="M49.293 74.4049C50.8233 72.1304 55.4465 69.2609 57.3675 71.413C53.2977 73.769 49.2279 76.1902 47.893 85.2717C46.8756 81.4484 47.8524 76.5571 49.293 74.4049Z" fill="url(#paint7_linear_1806_25349)"/>
</g>
<path d="M45.8579 84.1549C45.9963 83.7147 46.1021 69 51.0509 65.2826C55.9998 61.5652 50.8474 72.538 49.9114 75.587C48.9754 78.6359 47.6486 85.3696 47.6486 85.3696L45.8579 84.1549Z" fill="url(#paint8_linear_1806_25349)"/>
<g style="mix-blend-mode:multiply" opacity="0.17">
<path d="M52.7765 64.5571C49.3825 70.829 47.3833 77.762 46.916 84.8804L45.8579 84.1549C45.9963 83.7147 46.1021 69 51.0509 65.2826C51.8974 64.6467 52.4509 64.4429 52.7765 64.5571Z" fill="url(#paint9_linear_1806_25349)"/>
</g>
<path d="M42.5694 69.0081C45.7276 69.2609 47.3718 82.0109 46.6392 85.6956L46.0125 85.7772C45.2895 85.7048 44.5888 85.4857 43.9532 85.1331C43.9532 84.4647 43.8636 83.3478 43.7008 81.5217C43.3753 77.5924 39.4113 68.7554 42.5694 69.0081Z" fill="url(#paint10_linear_1806_25349)"/>
<g style="mix-blend-mode:multiply" opacity="0.17">
<path d="M45.2392 79.3777C44.6937 75.8019 43.6297 72.325 42.0811 69.0571C42.2393 69.0101 42.405 68.9935 42.5694 69.0082C45.7276 69.2609 47.3718 82.0109 46.6392 85.6957L46.0776 85.769C45.9229 84.3587 45.6462 81.8234 45.2392 79.3777Z" fill="url(#paint11_linear_1806_25349)"/>
</g>
<path d="M44.7674 85.4837C44.3279 84.4321 42.8872 81.0489 40.9744 77.3315C38.6791 72.8723 38.3372 70.2554 38.8826 70.1005C39.4279 69.9457 40.5674 69.913 42.0244 73.5897C43.2047 76.6304 45.5814 85.1984 45.7686 85.7527C45.427 85.6957 45.0917 85.6056 44.7674 85.4837Z" fill="url(#paint12_linear_1806_25349)"/>
<path d="M39.0127 75.2772C42.9197 76.4837 44.572 84.7255 44.7511 85.4919L44.5638 85.4185L43.0418 84.4647C42.7373 84.2038 42.4641 83.9083 42.2278 83.5842L42.1627 83.4864C42.1627 83.4212 42.0731 83.3641 42.0406 83.2989C40.3557 80.8207 36.229 74.413 39.0127 75.2772Z" fill="url(#paint13_linear_1806_25349)"/>
<path d="M55.1369 76.4511C58.2137 76.3451 57.2695 79.3533 54.6648 80.837C52.9177 81.9999 51.2827 83.3236 49.7811 84.7908L47.1113 85.6549C47.5292 84.0819 48.1046 82.5551 48.8288 81.0978C49.6509 79.6794 51.5799 76.5815 55.1369 76.4511Z" fill="url(#paint14_linear_1806_25349)"/>
<path d="M47.5753 76.1576C49.6672 76.8831 48.4462 83.038 47.8114 85.6793C47.4136 85.771 47.0068 85.8175 46.5986 85.8179H46.3381C46.3381 85.4674 46.3381 85.0027 46.3381 84.4728C46.2567 82.2554 44.9381 75.2446 47.5753 76.1576Z" fill="url(#paint15_linear_1806_25349)"/>
<rect width="5.05489" height="21.4473" rx="0.37" transform="matrix(0.98421 -0.177007 0.176475 0.984305 249.698 16.9108)" fill="#6C7A78"/>
<rect width="5.0549" height="21.4473" rx="0.37" transform="matrix(0.98421 -0.177007 0.176476 0.984305 244.449 16.9108)" fill="#37B99A"/>
<rect width="5.0549" height="21.4473" rx="0.37" transform="matrix(0.98421 -0.177007 0.176476 0.984305 190.062 16.9107)" fill="#6C7A78"/>
<rect width="5.0549" height="21.4473" rx="0.37" transform="matrix(0.98421 -0.177007 0.176476 0.984305 184.902 16.9111)" fill="#494D7F"/>
<rect width="3.40248" height="3.00801" transform="matrix(-0.984853 0.173394 -0.172872 -0.984944 254.821 21.4531)" fill="white"/>
<rect width="3.40248" height="3.00801" transform="matrix(-0.984853 0.173394 -0.172872 -0.984944 249.499 21.4594)" fill="white"/>
<path fill-rule="evenodd" clip-rule="evenodd" d="M261.279 10.9891H181.967V40.9239H261.279V10.9891ZM258.324 13.9728V37.9321H184.954V13.9728H258.324Z" fill="#BFD6C5"/>
<path d="M211.685 26.087C212.601 25.9782 213.529 26.1397 214.354 26.5516C215.788 27.633 217.063 28.9119 218.139 30.3505C218.361 30.6801 218.521 31.0476 218.611 31.4348H217.203C217.203 31.4348 216.992 30.913 216.576 30.8478C216.116 30.7854 215.717 30.4983 215.51 30.0815C215.444 29.7128 215.135 29.437 214.761 29.413C214.24 29.3152 214.118 28.9647 214.004 28.5163C213.884 28.061 213.481 27.7373 213.011 27.7174C212.515 27.6359 212.49 27.0408 212.474 26.837C212.458 26.6331 212.214 26.6658 212.035 26.4946C211.903 26.3726 211.785 26.2358 211.685 26.087H211.685Z" fill="#2D544B"/>
<path d="M223.544 31.4755C224.575 29.1068 225.761 26.8084 227.093 24.5951C227.965 23.3265 228.963 22.1493 230.072 21.0815C230.11 21.2368 230.11 21.3991 230.072 21.5543C229.912 21.8257 229.786 22.116 229.697 22.4185C229.789 22.7381 229.789 23.0771 229.697 23.3967C229.51 23.7717 229.144 23.8533 229.144 24.2119C229.144 24.5706 229.38 24.7989 229.144 25.1984C228.908 25.5978 228.468 25.5 228.33 25.8098C228.192 26.1196 228.33 26.4375 228.216 26.7473C228.102 27.0571 227.711 27.0815 227.614 27.2935C227.516 27.5054 227.549 27.7581 227.313 28.0272C227.077 28.2962 226.71 28.2554 226.588 28.5C226.508 28.7779 226.375 29.038 226.197 29.2663C225.97 29.4946 225.872 29.356 225.766 29.6005C225.66 29.8451 225.701 29.9429 225.514 30.1875C225.327 30.4321 225.05 30.4484 224.944 30.6929C224.838 30.9375 224.594 31.5081 224.594 31.5081L223.544 31.4755Z" fill="#2D544B"/>
<path d="M218.139 15.8967C219.213 18.19 219.966 20.6204 220.378 23.1196C220.748 25.8802 220.862 28.6693 220.72 31.4511H218.489C218.489 31.4511 217.602 25.3206 217.675 24.6033C217.749 23.8859 217.529 23.7473 217.529 23.3967C217.529 22.8342 217.814 22.5815 217.765 22.3206C217.716 22.0598 217.521 21.8967 217.578 21.4402C217.635 20.9837 217.863 20.9429 217.863 20.625C217.863 20.3071 217.513 20.038 217.651 19.5081C217.789 18.9783 218.082 18.9049 218.09 18.538C218.099 18.1712 217.863 17.9022 217.838 17.3315C217.864 16.8405 217.965 16.3564 218.139 15.8967Z" fill="#2D544B"/>
<path d="M219.694 31.4429C219.694 31.4429 219.1 28.1821 218.742 26.7391C218.261 24.8902 217.573 23.1016 216.691 21.4076C216.154 20.5598 215.473 19.8122 214.68 19.1984C214.71 19.5127 214.778 19.8221 214.884 20.1196C215.044 20.5141 215.044 20.956 214.884 21.3505C214.665 21.8003 214.746 22.3386 215.087 22.7038C215.418 23.1178 215.502 23.6781 215.307 24.1712C215.108 24.6531 215.22 25.2078 215.592 25.5734C215.969 25.8758 216.096 26.3942 215.901 26.837C215.7 27.4548 215.809 28.1318 216.194 28.6549C216.699 29.25 216.878 29.356 216.845 29.7391C216.812 30.3598 217.029 30.9679 217.448 31.4266L219.694 31.4429Z" fill="#375A51"/>
<g opacity="0.17">
<path fill-rule="evenodd" clip-rule="evenodd" d="M215.437 20.6739C215.287 20.7112 215.14 20.7602 214.998 20.8206V20.8858L215.494 20.731L215.437 20.6739Z" fill="black"/>
<path d="M215.698 21C215.564 21.0405 215.428 21.0731 215.291 21.0978C215.164 21.1074 215.039 21.1292 214.916 21.163C215.006 21.163 215.12 21.163 215.014 21.163H214.9V21.2283C215.315 21.1223 215.307 21.1875 215.714 21.0489L215.698 21Z" fill="black"/>
<path fill-rule="evenodd" clip-rule="evenodd" d="M216.015 21.375V21.3261H215.917L215.567 21.4076C215.33 21.4784 215.235 21.513 215.171 21.5365C215.11 21.559 215.076 21.5712 214.973 21.5951H214.9H214.834V21.6603C214.86 21.6551 214.885 21.6496 214.91 21.644C214.987 21.6267 215.065 21.6076 215.141 21.587C215.313 21.5408 215.482 21.4864 215.648 21.4239L216.015 21.375Z" fill="black"/>
<path fill-rule="evenodd" clip-rule="evenodd" d="M216.234 21.6277V21.6766C216.104 21.7328 215.967 21.7738 215.828 21.7989C215.476 21.8735 215.128 21.966 214.786 22.0761V22.0353C214.845 22.0146 214.905 21.9946 214.965 21.9753C215.018 21.9581 215.071 21.9416 215.125 21.9256C215.398 21.8437 215.677 21.777 215.958 21.7255L216.234 21.6277ZM215.608 21.8069C215.605 21.807 215.603 21.8071 215.6 21.8071H215.608C215.608 21.807 215.608 21.807 215.608 21.8069ZM215.608 21.8069C215.643 21.8057 215.676 21.798 215.684 21.7944C215.692 21.7908 215.674 21.7914 215.608 21.8069Z" fill="black"/>
<path fill-rule="evenodd" clip-rule="evenodd" d="M216.471 22.0598H216.3C216.067 22.1114 215.839 22.1795 215.616 22.2636C215.368 22.3673 215.109 22.4385 214.843 22.4755V22.4266C215.12 22.3737 215.392 22.2974 215.657 22.1984C215.922 22.1108 216.194 22.0481 216.471 22.0109V22.0598Z" fill="black"/>
<path fill-rule="evenodd" clip-rule="evenodd" d="M216.682 22.3369C216.494 22.4263 216.294 22.4894 216.088 22.5244H216.055L215.738 22.5978C215.679 22.6018 215.646 22.6134 215.58 22.6372C215.509 22.6627 215.399 22.702 215.176 22.7609L215.127 22.7119L215.648 22.5407L215.99 22.4674H216.055C216.34 22.394 216.527 22.3369 216.682 22.288V22.3369ZM215.429 22.6223L215.266 22.6875C215.316 22.6559 215.371 22.6338 215.429 22.6223Z" fill="black"/>
<path d="M216.08 22.9157C216.446 22.8424 216.348 22.7772 216.894 22.6712V22.6141C216.69 22.6712 216.479 22.7609 215.95 22.8913C216.039 22.8913 216.055 22.8913 215.95 22.8913H215.885L215.535 22.9647L215.355 23.0217L215.502 22.9647L215.355 23.0217V23.0788L215.535 23.0136L216.08 22.9157Z" fill="black"/>
<path d="M215.909 22.9647C215.909 22.9647 215.909 22.9647 215.958 22.9647C215.852 22.9647 215.901 22.9565 215.909 22.9647Z" fill="black"/>
<path d="M216.463 23.1766C216.611 23.1529 216.755 23.1118 216.894 23.0543L217.073 23.0136V22.9647C216.984 22.9647 217.016 22.9647 217.073 22.9647L216.935 23.0054L216.658 23.087C216.382 23.1312 216.11 23.1966 215.844 23.2826L215.413 23.4212C215.413 23.4212 215.413 23.462 215.413 23.4864L215.844 23.3397C216.047 23.2726 216.253 23.2181 216.463 23.1766Z" fill="black"/>
<path fill-rule="evenodd" clip-rule="evenodd" d="M217.252 23.3478V23.2989L217.191 23.3182C217.046 23.3644 216.865 23.4223 216.609 23.4864H216.544L216.202 23.5598C216.1 23.5915 216.024 23.616 215.965 23.6355L215.958 23.6331L215.902 23.6555C215.875 23.6627 215.849 23.6721 215.824 23.6838L215.794 23.6946L215.794 23.6946L215.794 23.6946C215.735 23.7159 215.7 23.7283 215.6 23.7554C215.626 23.7444 215.638 23.7393 215.638 23.7386C215.638 23.738 215.629 23.7405 215.612 23.7452L215.612 23.7452L215.612 23.7452C215.575 23.7554 215.502 23.7758 215.404 23.7962V23.8695C215.68 23.805 215.952 23.7234 216.218 23.625L216.796 23.4945C216.953 23.4618 217.106 23.4126 217.252 23.3478ZM215.884 23.6627L215.902 23.6555L215.914 23.6525L215.884 23.6627ZM215.884 23.6627C215.861 23.6707 215.841 23.6777 215.824 23.6838C215.814 23.6883 215.804 23.6932 215.795 23.6983L215.884 23.6627ZM215.914 23.6525L215.965 23.6355L215.978 23.6399L215.982 23.6413C215.978 23.6416 215.975 23.642 215.971 23.6425C215.952 23.6447 215.932 23.648 215.914 23.6525Z" fill="black"/>
<path fill-rule="evenodd" clip-rule="evenodd" d="M216.902 23.8288C216.992 23.8288 217.024 23.8288 217.187 23.7473C217.261 23.722 217.337 23.703 217.415 23.6902V23.6331C217.323 23.6507 217.231 23.6725 217.141 23.6984H217.138L217.137 23.6996C217.063 23.7209 216.99 23.7449 216.918 23.7717C216.667 23.8649 216.408 23.9385 216.145 23.9918C215.865 24.0232 215.591 24.0945 215.331 24.2038V24.2853L215.551 24.1875C216.009 24.0993 216.46 23.9794 216.902 23.8288ZM217.118 23.7252L217.137 23.6996L217.141 23.6984H217.228C217.185 23.7082 217.145 23.718 217.118 23.7252ZM217.114 23.731L217.118 23.7252C217.077 23.7359 217.065 23.7407 217.114 23.731ZM215.893 24.0163H215.787L215.77 24.0388C215.687 24.063 215.631 24.0927 215.762 24.0489L215.77 24.0388C215.811 24.0269 215.858 24.0163 215.893 24.0163Z" fill="black"/>
<path fill-rule="evenodd" clip-rule="evenodd" d="M216.878 24.1794H216.812L216.471 24.2527C216.223 24.3297 216.128 24.3641 216.062 24.3876C216.003 24.4089 215.969 24.4212 215.868 24.4484C215.948 24.413 215.867 24.4351 215.737 24.4706L215.737 24.4706C215.628 24.5006 215.484 24.5401 215.372 24.5625H215.209L215.494 24.5054L217.433 24.0028C217.287 24.0733 217.117 24.124 216.878 24.1794ZM217.433 24.0028C217.48 23.9798 217.525 23.9547 217.569 23.9266V23.9674L217.433 24.0028Z" fill="black"/>
<path d="M215.201 24.6277L215.462 24.5543L215.201 24.6277Z" fill="black"/>
<path d="M214.883 20.1277V20.0869C214.88 20.1031 214.88 20.1197 214.883 20.1359V20.1277Z" fill="black"/>
<path d="M215.225 20.4294H215.176H215.225L214.997 20.4946C215.001 20.5134 215.001 20.5328 214.997 20.5516L215.274 20.4864L215.225 20.4294Z" fill="black"/>
<path fill-rule="evenodd" clip-rule="evenodd" d="M217.512 28.2962L217.83 28.2228H217.895C218.109 28.1854 218.317 28.1196 218.513 28.0272H218.595V27.9701C218.368 28.0593 218.133 28.1302 217.895 28.182H217.846L217.439 28.2717C217.22 28.3362 217.12 28.3706 217.054 28.394L217.033 28.4015C216.973 28.4234 216.939 28.4356 216.837 28.4592C216.902 28.4337 216.86 28.4457 216.771 28.4711L216.771 28.4711C216.661 28.5025 216.48 28.5545 216.34 28.5815H216.205C216.299 28.5657 216.446 28.5326 216.446 28.5326L216.181 28.5815H216.145L216.15 28.5873L216.137 28.5897C216.141 28.5897 216.145 28.5894 216.151 28.5889L216.186 28.6304C216.634 28.5471 217.078 28.4354 217.512 28.2962ZM216.151 28.5889C216.165 28.5877 216.183 28.585 216.205 28.5815H216.181L216.15 28.5873L216.151 28.5889ZM216.739 28.4511C216.641 28.4837 216.601 28.5326 216.739 28.4592V28.4511Z" fill="black"/>
<path fill-rule="evenodd" clip-rule="evenodd" d="M218.652 28.3777V28.3125C218.446 28.3424 218.244 28.3943 218.05 28.4674C217.798 28.5606 217.54 28.6342 217.277 28.6875C217.2 28.696 217.124 28.7071 217.049 28.7208C217.117 28.6986 217.091 28.6563 216.918 28.7283C216.841 28.7607 216.829 28.7673 216.848 28.7635C216.695 28.801 216.544 28.8491 216.397 28.9076L216.446 28.9647L216.634 28.8832C217.116 28.7983 217.592 28.6784 218.058 28.5245C218.253 28.4642 218.451 28.4152 218.652 28.3777ZM216.848 28.7635L216.875 28.7568C216.864 28.7598 216.854 28.7623 216.848 28.7635ZM217 28.73C217.016 28.7268 217.032 28.7237 217.049 28.7208C217.039 28.7237 217.029 28.7263 217.016 28.7283H217.024C217.017 28.7283 217.009 28.7289 217 28.73ZM217 28.73C216.963 28.7345 216.916 28.7466 216.882 28.7552L216.875 28.7568C216.917 28.7471 216.958 28.7382 217 28.73ZM218.375 28.4185H218.278H218.27C218.223 28.4354 218.227 28.4348 218.255 28.4302C218.281 28.426 218.328 28.4185 218.375 28.4185Z" fill="black"/>
<path fill-rule="evenodd" clip-rule="evenodd" d="M218.709 28.7283C218.507 28.8084 218.301 28.8765 218.09 28.9321L217.488 29.0544C217.222 29.1477 216.95 29.2239 216.674 29.2826C216.67 29.2638 216.67 29.2444 216.674 29.2255C216.776 29.2011 216.851 29.1889 216.889 29.1827L216.889 29.1827C216.907 29.1799 216.916 29.1784 216.916 29.1775C216.916 29.1766 216.904 29.1766 216.878 29.1766C216.984 29.1521 217.018 29.1399 217.085 29.1163L217.085 29.1163C217.151 29.0929 217.249 29.0583 217.48 28.9891L217.822 28.9076H217.895C218.205 28.8359 218.406 28.773 218.559 28.7253L218.559 28.7253L218.559 28.7253C218.614 28.7078 218.663 28.6924 218.709 28.6794V28.7283Z" fill="black"/>
<path d="M217.919 28.981C217.919 28.981 217.919 28.981 217.96 28.981C217.854 28.9891 217.911 28.981 217.919 28.981Z" fill="black"/>
<path fill-rule="evenodd" clip-rule="evenodd" d="M218.766 29.0544V29.1196C218.428 29.1943 218.093 29.2869 217.765 29.3967C217.451 29.4621 217.141 29.5465 216.837 29.6495V29.5842L216.878 29.5704C217.21 29.4606 217.55 29.3753 217.895 29.3152C218.171 29.1858 218.464 29.0979 218.766 29.0544ZM218.657 29.1049C218.63 29.1102 218.581 29.1196 218.538 29.1196H218.636C218.691 29.0984 218.686 29.0992 218.657 29.1049ZM217.569 29.4049C217.643 29.4049 217.7 29.3478 217.569 29.3886V29.4049Z" fill="black"/>
<path d="M217.586 29.4538C217.626 29.4538 217.586 29.4538 217.634 29.4538C217.529 29.462 217.586 29.4538 217.586 29.4538Z" fill="black"/>
<path fill-rule="evenodd" clip-rule="evenodd" d="M218.685 29.519C218.548 29.5745 218.406 29.6155 218.261 29.6413C218.041 29.6811 217.824 29.7355 217.61 29.8043C217.348 29.9084 217.075 29.9822 216.796 30.0245V29.9592C217.073 29.9087 217.346 29.835 217.61 29.7391C217.876 29.654 218.149 29.5886 218.424 29.5435L218.701 29.462C218.739 29.4565 218.777 29.4565 218.815 29.462V29.519H218.685Z" fill="black"/>
<path fill-rule="evenodd" clip-rule="evenodd" d="M216.894 30.3506C216.893 30.3696 216.893 30.3886 216.894 30.4076C217.282 30.3141 217.433 30.2592 217.522 30.2268C217.58 30.2055 217.612 30.194 217.667 30.1875L217.985 30.1141H218.05C218.266 30.0775 218.477 30.0117 218.676 29.9185L218.88 29.8614V29.7962C218.821 29.8135 218.759 29.8339 218.689 29.8571C218.528 29.91 218.324 29.9776 218.001 30.0571H217.936L217.586 30.1386C217.349 30.2094 217.254 30.244 217.19 30.2675C217.128 30.29 217.095 30.3022 216.992 30.3261H216.894V30.3506Z" fill="black"/>
<path fill-rule="evenodd" clip-rule="evenodd" d="M218.042 30.4973C218.209 30.4652 218.278 30.4346 218.356 30.4002C218.457 30.3559 218.572 30.3052 218.929 30.2364V30.163H218.823C218.715 30.2082 218.734 30.2033 218.786 30.19C218.829 30.1792 218.892 30.163 218.929 30.163C218.817 30.1846 218.722 30.2174 218.596 30.2606C218.436 30.3152 218.228 30.3864 217.879 30.4728H217.814L217.464 30.5543C217.221 30.6229 217.126 30.6581 217.062 30.6818C217.042 30.6891 217.025 30.6953 217.008 30.7011V30.7581C217.16 30.718 217.309 30.669 217.455 30.6114L218.042 30.4973Z" fill="black"/>
<path d="M218.424 30.7581C218.569 30.7336 218.711 30.6925 218.847 30.6359H218.986V30.5788H218.872L218.595 30.6603C218.302 30.75 218.335 30.6603 217.781 30.856C217.577 30.9362 217.368 31.0015 217.154 31.0516V31.1087C217.364 31.0688 217.569 31.006 217.765 30.9212C217.981 30.8543 218.201 30.7998 218.424 30.7581Z" fill="black"/>
<path fill-rule="evenodd" clip-rule="evenodd" d="M218.725 31.0924C218.835 31.0743 218.942 31.0414 219.043 30.9946V30.9294C218.921 30.9701 218.758 31.019 218.554 31.0679H218.489L218.202 31.1349L218.123 31.1413C217.879 31.228 217.673 31.2842 217.498 31.3321L217.498 31.3321L217.498 31.3321L217.48 31.337H217.545C217.649 31.313 217.682 31.3008 217.743 31.2784L217.743 31.2784C217.808 31.2549 217.902 31.2203 218.139 31.1495L218.202 31.1349L218.725 31.0924Z" fill="black"/>
<path d="M218.554 31.1413C218.554 31.1413 218.554 31.1413 218.603 31.1413C218.497 31.1495 218.546 31.1413 218.554 31.1413Z" fill="black"/>
<path d="M219.108 31.3451V31.3043L218.872 31.3777L218.628 31.4592H218.823H218.88L219.108 31.3451Z" fill="black"/>
<path fill-rule="evenodd" clip-rule="evenodd" d="M215.201 24.644L215.486 24.5706L215.494 24.5788L216.091 24.4239L217.569 24.0407C217.406 24.1126 217.238 24.1699 217.065 24.2119L216.487 24.3424C216.067 24.4895 215.638 24.604 215.201 24.6848V24.644Z" fill="black"/>
<path d="M216.886 24.2609C216.886 24.2609 216.886 24.2609 216.935 24.2609C216.829 24.2609 216.886 24.2527 216.886 24.2609Z" fill="black"/>
<path fill-rule="evenodd" clip-rule="evenodd" d="M215.233 25.0679C215.237 25.0491 215.237 25.0297 215.233 25.0109C215.266 25.0021 215.296 24.9939 215.32 24.987L215.32 24.987C215.386 24.9686 215.416 24.9604 215.38 24.9783C215.486 24.9537 215.52 24.9415 215.587 24.918C215.653 24.8945 215.751 24.8599 215.982 24.7908L216.397 24.7011H216.438C216.761 24.6228 216.889 24.5768 216.992 24.5402C217.06 24.5158 217.117 24.4956 217.211 24.4728C217.375 24.41 217.549 24.3742 217.724 24.3669V24.4239C217.495 24.4546 217.269 24.5037 217.049 24.5707C216.852 24.6641 216.644 24.7299 216.43 24.7663H216.365L216.047 24.8397C215.991 24.8437 215.904 24.8713 215.775 24.9119C215.642 24.9539 215.465 25.0099 215.233 25.0679ZM217.451 24.4418C217.423 24.4471 217.372 24.4565 217.325 24.4565C217.13 24.4565 217.325 24.4973 217.431 24.4565C217.486 24.4354 217.482 24.4362 217.451 24.4418Z" fill="black"/>
<path fill-rule="evenodd" clip-rule="evenodd" d="M215.38 25.394V25.3451L215.518 25.288L215.868 25.2065H215.933C216.229 25.101 216.53 25.0137 216.836 24.9453C216.774 24.9715 216.921 24.9546 217.008 24.9212C217.063 24.9 217.058 24.9008 217.029 24.9065C217.014 24.9094 216.992 24.9136 216.969 24.9168C217.063 24.8975 217.157 24.8799 217.252 24.8641C217.439 24.8265 217.624 24.7775 217.805 24.7174V24.7744C217.463 24.8887 217.342 24.9063 217.204 24.9265C217.076 24.9451 216.933 24.966 216.585 25.0679C216.386 25.1566 216.179 25.2222 215.966 25.2636H215.901L215.583 25.3369C215.513 25.3476 215.445 25.3668 215.38 25.394ZM216.969 24.9168C216.95 24.9193 216.929 24.9212 216.91 24.9212C216.873 24.9315 216.849 24.9394 216.836 24.9453C216.88 24.9354 216.924 24.9259 216.969 24.9168Z" fill="black"/>
<path fill-rule="evenodd" clip-rule="evenodd" d="M216.283 25.5163C216.508 25.4253 216.743 25.3624 216.983 25.3288C217.058 25.3114 217.147 25.2879 217.23 25.266C217.419 25.2161 217.577 25.1743 217.464 25.231C217.553 25.2053 217.594 25.1908 217.656 25.1687C217.658 25.1677 217.661 25.1667 217.664 25.1658C217.719 25.1461 217.792 25.1203 217.928 25.0761V25.1331C217.5 25.274 217.062 25.3803 216.617 25.4511L216.3 25.5571C216.168 25.5913 216.035 25.6186 215.901 25.6386L215.673 25.712V25.6712C215.873 25.6054 216.076 25.5537 216.283 25.5163Z" fill="black"/>
<path fill-rule="evenodd" clip-rule="evenodd" d="M215.885 25.981L216.3 25.8913C216.383 25.8752 216.481 25.8511 216.57 25.8292C216.644 25.8111 216.712 25.7945 216.759 25.7853C216.828 25.772 216.855 25.7742 216.796 25.8098C216.893 25.7856 216.934 25.7713 217.003 25.7473C217.073 25.7228 217.173 25.6881 217.391 25.6223L217.806 25.5326H217.855L218.05 25.4837V25.5408L217.846 25.5897H217.781L217.464 25.6631C216.966 25.8225 216.457 25.9478 215.942 26.0381H215.885V25.981Z" fill="black"/>
<path fill-rule="evenodd" clip-rule="evenodd" d="M216.796 26.2255H216.731L216.43 26.2908C216.379 26.2947 216.349 26.3062 216.294 26.327C216.235 26.3495 216.147 26.3828 215.974 26.4293V26.356L216.332 26.2418L216.674 26.1603H216.747C217.043 26.0532 217.345 25.9643 217.652 25.8941C217.692 25.8866 217.758 25.875 217.806 25.875H217.738C217.849 25.8508 217.961 25.829 218.074 25.8098H218.164V25.875C217.91 25.9018 217.659 25.9537 217.415 26.0299C217.219 26.1233 217.01 26.1892 216.796 26.2255ZM217.738 25.875H217.7L217.7 25.875L217.7 25.875C217.639 25.8927 217.616 25.8994 217.616 25.9003C217.616 25.9008 217.625 25.8991 217.64 25.8964L217.652 25.8941C217.68 25.8876 217.709 25.8812 217.738 25.875Z" fill="black"/>
<path fill-rule="evenodd" clip-rule="evenodd" d="M216.259 26.7391C216.27 26.737 216.281 26.7348 216.292 26.7325L216.259 26.7391ZM216.299 26.731H216.3L216.292 26.7325C216.295 26.732 216.297 26.7315 216.299 26.731ZM217.15 26.4047C217.299 26.3591 217.36 26.3545 217.428 26.3493C217.541 26.3407 217.674 26.3306 218.253 26.1359V26.2011C217.801 26.3383 217.342 26.4525 216.878 26.5435C216.692 26.6265 216.498 26.6894 216.299 26.731H216.235L215.925 26.8043V26.7228L216.161 26.6739H216.21H216.259C216.574 26.5964 216.701 26.5505 216.802 26.5141C216.872 26.4892 216.928 26.4688 217.024 26.4456C217.072 26.4293 217.113 26.4159 217.149 26.4049H217.162C216.967 26.462 217.122 26.4456 217.236 26.4049C217.295 26.3837 217.29 26.3845 217.26 26.3902C217.234 26.395 217.19 26.4033 217.15 26.4047ZM217.15 26.4047C217.149 26.4047 217.149 26.4048 217.149 26.4049H217.138" fill="black"/>
<path fill-rule="evenodd" clip-rule="evenodd" d="M217.976 26.6576C217.756 26.6941 217.538 26.7459 217.325 26.8125C217.103 26.9059 216.871 26.9742 216.633 27.0163C216.355 27.0503 216.081 27.1187 215.819 27.2201C215.823 27.1985 215.823 27.1764 215.819 27.1549C215.969 27.0943 216.123 27.0481 216.281 27.0167C216.285 27.0164 216.288 27.0163 216.291 27.0163H216.316C216.339 27.0127 216.355 27.0072 216.364 27.0015C216.434 26.9899 216.505 26.9812 216.576 26.9755C216.838 26.9221 217.094 26.8457 217.341 26.7473C217.677 26.6288 217.797 26.6149 217.905 26.6025C217.975 26.5945 218.04 26.587 218.155 26.5516L218.302 26.5109V26.5598L217.976 26.6576ZM216.364 27.0015C216.396 26.9813 216.338 26.959 216.186 27.0163C216.074 27.0582 216.101 27.0522 216.158 27.0394C216.196 27.0308 216.248 27.0191 216.281 27.0167C216.308 27.0112 216.336 27.0061 216.364 27.0015Z" fill="black"/>
<path fill-rule="evenodd" clip-rule="evenodd" d="M216.633 27.4158L216.951 27.3098C217.446 27.2311 217.934 27.1083 218.408 26.9429V26.8777C218.272 26.9199 218.182 26.9493 218.118 26.9711L218.188 26.9429C218.138 26.953 218.09 26.971 218.045 26.9963L218 27.0126L217.966 27.0245C217.924 27.0394 217.886 27.0517 217.806 27.0734C217.871 27.048 217.828 27.0581 217.739 27.0815L217.69 27.0944C217.579 27.1237 217.426 27.164 217.309 27.1875C217.073 27.2287 216.842 27.2914 216.617 27.375C216.183 27.4658 216.062 27.509 215.987 27.5357C215.934 27.5546 215.904 27.5653 215.803 27.5788V27.6277C215.95 27.5946 216.094 27.551 216.235 27.4973C216.369 27.4777 216.502 27.4505 216.633 27.4158ZM218.045 26.9963C218.038 27.0001 218.032 27.004 218.025 27.0081L218.118 26.9711C218.089 26.9809 218.065 26.9891 218.045 26.9963ZM217.61 27.1136C217.605 27.1154 217.602 27.1164 217.602 27.1165C217.602 27.1166 217.606 27.1155 217.614 27.1131C217.627 27.1091 217.652 27.1014 217.692 27.0897V27.0815C217.653 27.0977 217.623 27.1088 217.61 27.1136Z" fill="black"/>
<path fill-rule="evenodd" clip-rule="evenodd" d="M215.844 28.0027L216.064 27.9456H216.129C216.343 27.9063 216.552 27.8377 216.748 27.7418C217.23 27.656 217.706 27.5362 218.172 27.3831C218.271 27.3504 218.371 27.3232 218.473 27.3016V27.2609H218.392C218.353 27.2822 218.357 27.2812 218.381 27.2754C218.402 27.2701 218.438 27.2609 218.473 27.2609L218.18 27.3505C217.761 27.4843 217.334 27.5932 216.902 27.6766C216.635 27.7701 216.364 27.849 216.088 27.913H215.991L215.812 27.962C215.812 27.962 215.844 27.9783 215.844 28.0027ZM218.18 27.3261H218.123C218.158 27.3261 218.191 27.3213 218.204 27.3195C218.207 27.319 218.209 27.3188 218.209 27.3189C218.209 27.319 218.206 27.3197 218.199 27.3213C218.195 27.3224 218.188 27.324 218.18 27.3261ZM217.138 27.5951H217.032C216.972 27.6128 216.949 27.6195 216.949 27.6204C216.95 27.6223 217.065 27.5951 217.138 27.5951Z" fill="black"/>
</g>
<path d="M219.881 31.4429C220.004 28.4676 220.29 25.5012 220.736 22.5571C221.11 20.5249 221.879 18.5861 222.999 16.8505C223.674 15.8641 224.163 15.4321 224.212 15.5462C224.286 15.8418 224.243 16.1549 224.089 16.4185C223.878 16.6549 223.666 16.7446 223.666 17.1114C223.666 17.4783 223.91 17.6902 223.796 18.106C223.683 18.5217 223.495 18.538 223.414 19.0272C223.333 19.5163 223.552 19.4674 223.479 20.0217C223.406 20.5761 223.039 20.5679 223.007 20.9185C222.974 21.269 223.259 21.6114 223.113 22.1658C222.966 22.7201 222.649 22.6957 222.624 23.038C222.6 23.3804 222.852 23.5679 222.795 24.106C222.738 24.644 222.38 24.7418 222.283 25.019C222.185 25.2962 222.535 25.5082 222.462 25.9484C222.388 26.3886 221.322 31.4429 221.322 31.4429H219.881Z" fill="#426F61"/>
<path d="M225.229 31.4918C226.042 29.8915 227.039 28.3921 228.2 27.0244C229.453 25.6956 231.529 24.5054 232.27 24.481C232.286 24.6699 232.21 24.8551 232.066 24.9782C231.771 25.2005 231.584 25.5387 231.553 25.9076C231.553 26.3723 231.553 26.7228 231.285 26.9429C231.016 27.163 230.373 27.2282 230.186 27.4973C229.999 27.7663 230.186 28.2391 229.852 28.557C229.519 28.875 229.038 28.7364 228.713 28.981C228.335 29.255 228.05 29.6394 227.899 30.0815C227.567 30.67 226.945 31.0343 226.271 31.0353L225.905 31.5L225.229 31.4918Z" fill="#375A51"/>
<path d="M226.14 17.2581C225.111 18.582 224.188 19.9859 223.381 21.4565C222.086 24.6812 221.123 28.0302 220.508 31.4511H222.746C222.965 31.2855 223.109 31.0388 223.145 30.7663C223.141 30.4582 223.311 30.1743 223.585 30.0326C223.821 29.9022 223.91 29.3967 223.845 28.9973C223.733 28.5377 223.879 28.0534 224.228 27.7337C224.625 27.4188 224.873 26.9518 224.911 26.4456C224.832 25.8567 224.797 25.2627 224.805 24.6685C224.928 24.2283 225.53 23.7717 225.619 23.2174C225.709 22.663 225.335 21.8315 225.619 21.2527C225.904 20.6739 226.197 20.519 226.295 19.9402C226.393 19.3614 225.978 19.019 225.986 18.7418C225.994 18.4647 226.214 18.3261 226.262 18.0245C226.264 17.7641 226.222 17.5052 226.14 17.2581V17.2581Z" fill="#4E7568"/>
<g opacity="0.17">
<path fill-rule="evenodd" clip-rule="evenodd" d="M224.415 20.9348C224.569 20.9925 224.731 21.0281 224.895 21.0408C225.17 21.0761 225.264 21.0762 225.317 21.0763C225.388 21.0764 225.39 21.0764 225.644 21.1549V21.212C225.599 21.199 225.563 21.1882 225.533 21.1793C225.422 21.1458 225.407 21.1385 225.391 21.1391C225.377 21.1396 225.363 21.1467 225.278 21.1467C224.937 21.1223 224.599 21.0678 224.268 20.9837H224.114V20.9348C224.214 20.9199 224.315 20.9199 224.415 20.9348Z" fill="black"/>
<path d="M223.894 21.2772V21.3261H224.089C224.264 21.3215 224.439 21.3379 224.61 21.375L225.53 21.5217C225.526 21.5057 225.526 21.4889 225.53 21.4728L224.651 21.3587C224.342 21.3098 224.106 21.3016 223.894 21.2772Z" fill="black"/>
<path fill-rule="evenodd" clip-rule="evenodd" d="M224.163 21.6603C224.32 21.7189 224.484 21.7546 224.651 21.7663C224.93 21.8009 225.026 21.8003 225.085 21.7999C225.165 21.7994 225.179 21.7993 225.498 21.8886C225.494 21.9074 225.494 21.9268 225.498 21.9457C225.163 21.8606 225.144 21.8462 225.127 21.8477C225.116 21.8487 225.105 21.856 225.017 21.856C224.677 21.8266 224.34 21.7721 224.008 21.6929L223.699 21.6522V21.6033C223.788 21.633 223.861 21.634 223.937 21.635C224.006 21.6359 224.077 21.6369 224.163 21.6603Z" fill="black"/>
<path fill-rule="evenodd" clip-rule="evenodd" d="M224.617 22.116C224.674 22.1128 224.702 22.1112 224.96 22.182C225.143 22.2358 225.332 22.2686 225.522 22.2799V22.3451H225.4L225.034 22.288C224.661 22.1909 224.641 22.1739 224.621 22.1747C224.609 22.1753 224.598 22.182 224.513 22.182C224.172 22.1561 223.835 22.1016 223.503 22.019V21.9701H223.658C223.815 22.0255 223.98 22.0585 224.146 22.0679C224.481 22.1237 224.562 22.1191 224.617 22.116Z" fill="black"/>
<path d="M225.579 22.6712C225.448 22.6425 225.315 22.6234 225.18 22.6141C225.18 22.6141 224.594 22.5652 224.806 22.5734C224.806 22.5734 224.22 22.4918 223.723 22.394L223.341 22.3451V22.4022C223.455 22.3917 223.569 22.3917 223.683 22.4022C225.156 22.663 224.83 22.5326 225.538 22.6549H225.587L225.579 22.6712Z" fill="black"/>
<path fill-rule="evenodd" clip-rule="evenodd" d="M224.301 22.8261C224.134 22.8143 223.97 22.7786 223.813 22.7201C223.714 22.6925 223.639 22.6916 223.562 22.6906C223.48 22.6896 223.397 22.6886 223.284 22.6549H223.202V22.7038C223.353 22.7318 223.505 22.7508 223.658 22.7609C223.989 22.8441 224.327 22.8987 224.667 22.9239C224.73 22.9239 224.752 22.9202 224.765 22.9183C224.769 22.9175 224.772 22.9171 224.775 22.917C224.782 22.917 224.789 22.9193 224.813 22.927C224.854 22.941 224.948 22.9722 225.188 23.038C225.311 23.0459 225.434 23.0623 225.554 23.0869H225.636V23.0217C225.457 23.0118 225.28 22.9845 225.107 22.9402C224.835 22.8817 224.8 22.881 224.742 22.88C224.688 22.879 224.614 22.8777 224.301 22.8261ZM223.715 22.7282V22.7038C223.699 22.7282 223.723 22.7364 223.715 22.7282Z" fill="black"/>
<path fill-rule="evenodd" clip-rule="evenodd" d="M224.445 23.23C224.503 23.2256 224.531 23.2235 224.79 23.2989C225.037 23.3444 225.287 23.3717 225.539 23.3804C225.542 23.3965 225.542 23.4132 225.539 23.4293H225.237L224.871 23.3804C224.495 23.2785 224.474 23.2626 224.456 23.265C224.446 23.2664 224.436 23.2744 224.35 23.2744C224.01 23.2451 223.673 23.1906 223.341 23.1114L223.023 23.0706V23.0217C223.117 23.0514 223.19 23.0524 223.265 23.0534C223.335 23.0544 223.406 23.0553 223.496 23.0788C223.65 23.1365 223.812 23.1722 223.976 23.1848C224.308 23.2403 224.391 23.2341 224.445 23.23Z" fill="black"/>
<path d="M224.537 23.6413C224.537 23.6413 223.943 23.5598 223.463 23.4701C223.283 23.4356 223.101 23.4138 222.917 23.4049V23.462C223.084 23.4628 223.25 23.4792 223.414 23.5109C224.879 23.7717 224.578 23.6495 225.27 23.7636H225.319H225.4C225.236 23.7291 225.07 23.7046 224.904 23.6902C224.904 23.6902 224.334 23.6413 224.537 23.6413Z" fill="black"/>
<path fill-rule="evenodd" clip-rule="evenodd" d="M223.927 23.894C224.081 23.9517 224.243 23.9874 224.407 24C224.701 24.0377 224.787 24.0353 224.837 24.0339C224.895 24.0323 224.904 24.0321 225.131 24.0978L225.102 24.1386L225.091 24.1549C225.077 24.1491 225.062 24.1436 225.048 24.1386C224.949 24.1042 224.845 24.0876 224.741 24.0897C224.4 24.0637 224.063 24.0092 223.731 23.9266C223.493 23.9022 223.257 23.8641 223.023 23.8125H222.795V23.7554C222.999 23.7578 223.201 23.7852 223.398 23.837C223.508 23.8666 223.591 23.8676 223.675 23.8687C223.752 23.8696 223.829 23.8705 223.927 23.894Z" fill="black"/>
<path fill-rule="evenodd" clip-rule="evenodd" d="M222.689 24.1141C222.872 24.105 223.055 24.1327 223.227 24.1956C223.372 24.2393 223.402 24.2424 223.534 24.2556C223.697 24.272 224.016 24.304 224.903 24.4484V24.4973L224.212 24.3831C224.041 24.3454 223.866 24.329 223.691 24.3342C223.57 24.3095 223.447 24.2932 223.324 24.2853C222.951 24.1829 222.931 24.1641 222.911 24.1643C222.9 24.1644 222.888 24.1712 222.803 24.1712H222.689V24.1141Z" fill="black"/>
<path d="M224.407 24.7582C224.24 24.7464 224.076 24.7107 223.919 24.6522C223.715 24.5951 223.609 24.6522 223.39 24.587C223.121 24.5381 222.849 24.5081 222.576 24.4973L224.773 24.8234C224.725 24.7908 224.651 24.7908 224.407 24.7582Z" fill="black"/>
<path d="M226.076 17.837V17.8777H226.263V17.8288L226.076 17.837Z" fill="black"/>
<path d="M226.165 18.2038H225.856V18.2527H226.108H226.157V18.2038C226.133 18.2038 225.994 18.1957 226.165 18.2038Z" fill="black"/>
<path d="M225.652 18.5462V18.587L225.986 18.644V18.587H225.921L225.652 18.5462Z" fill="black"/>
<path d="M225.905 19.019H226.027V18.9538C225.843 18.9459 225.661 18.9214 225.481 18.8804L225.441 18.9293L225.579 18.9701L225.905 19.019Z" fill="black"/>
<path d="M225.791 19.2962C225.555 19.2554 225.368 19.2473 225.188 19.231V19.288H225.237C225.412 19.2828 225.587 19.2992 225.758 19.337L226.247 19.4185C226.247 19.4185 226.247 19.4185 226.247 19.3614L225.791 19.2962Z" fill="black"/>
<path d="M226.133 19.7364C226.133 19.7364 225.546 19.6793 225.75 19.6875C225.831 19.6875 225.571 19.6875 225.571 19.6875L224.96 19.5897V19.6386C225.937 19.8016 225.88 19.7445 226.303 19.8016H226.141L226.133 19.7364Z" fill="black"/>
<path fill-rule="evenodd" clip-rule="evenodd" d="M225.079 19.9933C225.024 19.9805 224.991 19.9728 224.936 19.9728H224.716V19.9158C224.906 19.9168 225.094 19.9415 225.278 19.9891C225.392 20.0229 225.473 20.0239 225.554 20.0249C225.606 20.0256 225.659 20.0262 225.721 20.0359C225.668 20.0321 225.573 20.0256 225.709 20.0381H225.734C225.757 20.0421 225.781 20.0473 225.807 20.0544C225.934 20.0979 226.065 20.128 226.198 20.144C226.194 20.1601 226.194 20.1768 226.198 20.1929C226.075 20.1731 225.964 20.1455 225.871 20.1225C225.772 20.0981 225.694 20.0788 225.644 20.0788C225.3 20.0443 225.164 20.0128 225.079 19.9933ZM225.734 20.0381H225.75C225.75 20.0381 225.738 20.0371 225.721 20.0359C225.725 20.0366 225.729 20.0373 225.734 20.0381Z" fill="black"/>
<path d="M225.205 20.3804C224.97 20.3431 224.734 20.3186 224.497 20.3071V20.356H224.651C224.826 20.3514 225.001 20.3678 225.172 20.4049L226.059 20.5435V20.5027L225.205 20.3804Z" fill="black"/>
<path d="M225.465 20.7799C225.299 20.7695 225.134 20.7366 224.977 20.682C224.802 20.6513 224.625 20.6295 224.448 20.6168H224.342V20.6657C224.431 20.6657 224.578 20.7065 224.838 20.731C225.167 20.8145 225.502 20.869 225.839 20.894V20.8451C225.713 20.8331 225.588 20.8113 225.465 20.7799Z" fill="black"/>
<path d="M223.259 28.6875C223.056 28.6304 222.942 28.6875 222.73 28.6223C222.038 28.4837 222.258 28.6223 221.705 28.4837V28.5408C221.928 28.5946 222.158 28.6166 222.388 28.606C222.519 28.606 222.527 28.6549 223.096 28.712C223.219 28.712 223.503 28.8179 223.845 28.8587C223.849 28.8399 223.849 28.8204 223.845 28.8016H223.772C223.596 28.7896 223.423 28.7512 223.259 28.6875Z" fill="black"/>
<path fill-rule="evenodd" clip-rule="evenodd" d="M222.104 28.9039C222.163 28.8995 222.19 28.8975 222.445 28.9728C222.608 29.0146 222.756 29.0286 222.922 29.0443C223.081 29.0593 223.257 29.0759 223.479 29.1196L223.853 29.1848V29.2419L223.406 29.1603C223.233 29.1322 223.059 29.1159 222.885 29.1114L222.519 29.0625C222.145 28.9599 222.122 28.9445 222.102 28.9471C222.09 28.9487 222.079 28.9565 221.998 28.9565L221.583 28.9158V28.8587H221.631C221.964 28.9142 222.048 28.908 222.104 28.9039Z" fill="black"/>
<path d="M223.512 29.5109C223.345 29.4991 223.18 29.4634 223.023 29.4049C222.82 29.356 222.706 29.4049 222.494 29.3478C221.835 29.2092 222.006 29.3478 221.518 29.2174V29.2744C221.729 29.3199 221.945 29.3364 222.161 29.3234C222.392 29.3746 222.625 29.4127 222.861 29.4375C223.186 29.5204 223.519 29.575 223.854 29.6005C223.854 29.6005 223.854 29.6005 223.854 29.5435L223.512 29.5109Z" fill="black"/>
<path d="M223.023 29.8206C222.856 29.8089 222.692 29.7732 222.535 29.7147C222.332 29.6576 222.218 29.7147 222.006 29.6494C221.814 29.602 221.617 29.5774 221.42 29.5761V29.6331H221.672C221.903 29.6853 222.137 29.7234 222.372 29.7473C222.704 29.826 223.042 29.8778 223.382 29.9022C223.489 29.9068 223.596 29.9259 223.699 29.9592H223.642H223.699C223.341 29.8043 223.634 29.9022 223.023 29.8206Z" fill="black"/>
<path fill-rule="evenodd" clip-rule="evenodd" d="M222.044 30.0471C222.202 30.0607 222.376 30.0755 222.584 30.1141L223.349 30.2364V30.2853L222.535 30.1549C222.363 30.1228 222.189 30.1064 222.014 30.106L221.639 30.057L221.33 29.9755V29.9103L221.542 29.9755C221.709 30.0185 221.867 30.032 222.044 30.0471Z" fill="black"/>
<path d="M223.145 30.5951C222.978 30.5833 222.814 30.5477 222.657 30.4891C222.454 30.4321 222.348 30.4891 222.128 30.4239C221.501 30.3016 221.623 30.4239 221.216 30.3179V30.375C221.408 30.396 221.602 30.396 221.794 30.375C222.025 30.4272 222.259 30.4653 222.494 30.4891C222.608 30.4891 222.86 30.5788 223.17 30.6196C223.166 30.6007 223.166 30.5814 223.17 30.5625L223.145 30.5951Z" fill="black"/>
<path d="M222.372 30.8315C222.169 30.7745 222.055 30.8315 221.843 30.7663C221.605 30.7123 221.363 30.6822 221.119 30.6766V30.7337C221.246 30.7462 221.374 30.7462 221.501 30.7337C221.735 30.7853 221.971 30.8234 222.209 30.8478C222.507 30.9187 222.809 30.9705 223.113 31.0027C223.109 30.9866 223.109 30.9699 223.113 30.9538H222.861C222.693 30.9365 222.528 30.8953 222.372 30.8315Z" fill="black"/>
<path fill-rule="evenodd" clip-rule="evenodd" d="M221.021 31.0027L221.257 31.0679C221.43 31.1169 221.592 31.1294 221.779 31.1439C221.935 31.156 222.109 31.1695 222.323 31.2065L222.926 31.3125L222.885 31.3533L222.25 31.2554C222.079 31.2183 221.904 31.2019 221.729 31.2065L221.363 31.1495L221.021 31.0598V31.0027Z" fill="black"/>
<path d="M220.956 31.4511H221.273L220.956 31.3777V31.4511Z" fill="black"/>
<path d="M222.568 24.5543C222.725 24.567 222.883 24.567 223.04 24.5543C223.273 24.6069 223.51 24.645 223.748 24.6685C224.076 24.7512 224.411 24.8058 224.749 24.8315L222.551 24.5054L222.568 24.5543Z" fill="black"/>
<path fill-rule="evenodd" clip-rule="evenodd" d="M223.251 24.9375C223.408 24.995 223.573 25.028 223.74 25.0353C224.051 25.0787 224.124 25.0744 224.176 25.0713C224.232 25.068 224.264 25.0661 224.537 25.125L224.806 25.1821V25.231H224.619C224.493 25.1982 224.407 25.1745 224.347 25.1576C224.229 25.124 224.215 25.117 224.202 25.1177C224.19 25.1184 224.179 25.125 224.098 25.125C223.757 25.099 223.42 25.0445 223.088 24.9619C222.891 24.9511 222.694 24.9211 222.502 24.8723V24.8315L222.722 24.8723C222.832 24.906 222.915 24.907 222.998 24.908C223.076 24.909 223.153 24.9099 223.251 24.9375Z" fill="black"/>
<path fill-rule="evenodd" clip-rule="evenodd" d="M223.588 25.3769C223.647 25.3737 223.677 25.372 223.935 25.4429C224.222 25.4986 224.514 25.5341 224.806 25.5489V25.5978C224.66 25.5809 224.512 25.5809 224.366 25.5978L223.992 25.5408C223.619 25.4436 223.599 25.4266 223.579 25.4275C223.567 25.428 223.556 25.4348 223.471 25.4348C223.133 25.4098 222.798 25.3552 222.47 25.2717H222.38V25.2228C222.464 25.2119 222.549 25.2119 222.633 25.2228C222.79 25.2814 222.954 25.3171 223.121 25.3288C223.451 25.3845 223.532 25.38 223.588 25.3769Z" fill="black"/>
<path fill-rule="evenodd" clip-rule="evenodd" d="M222.937 25.6489C223.029 25.661 223.14 25.6756 223.243 25.7038C223.736 25.8177 223.878 25.8268 224.006 25.8351C224.126 25.8428 224.233 25.8497 224.602 25.9402C224.697 25.946 224.792 25.946 224.887 25.9402V25.9973C224.581 25.9632 224.458 25.932 224.38 25.9124C224.328 25.8992 224.297 25.8913 224.244 25.8913C223.914 25.9005 223.584 25.8565 223.268 25.7609C223.079 25.7214 222.889 25.6914 222.698 25.6712L222.421 25.6223H222.332V25.5734H222.445C222.513 25.579 222.58 25.5872 222.647 25.5978C222.691 25.6049 222.735 25.613 222.779 25.6223C222.814 25.6326 222.87 25.6401 222.937 25.6489Z" fill="black"/>
<path fill-rule="evenodd" clip-rule="evenodd" d="M224.021 26.1961C224.099 26.197 224.174 26.198 224.269 26.2255C224.43 26.2912 224.6 26.3324 224.773 26.3478H224.928V26.4049C224.654 26.3687 224.382 26.317 224.114 26.25C223.876 26.2302 223.639 26.1948 223.406 26.144C223.076 26.1523 222.746 26.1082 222.429 26.0136H222.258V25.9565H222.397C222.908 26.0659 223.034 26.072 223.162 26.078C223.271 26.0833 223.381 26.0886 223.74 26.1603C223.853 26.194 223.939 26.1951 224.021 26.1961ZM224.178 26.2139C224.174 26.2148 224.17 26.216 224.179 26.2255V26.2135C224.181 26.2129 224.182 26.2119 224.179 26.2092V26.2135C224.179 26.2136 224.178 26.2137 224.178 26.2139Z" fill="black"/>
<path fill-rule="evenodd" clip-rule="evenodd" d="M223.936 26.6027C223.94 26.602 223.943 26.6015 223.946 26.6014C223.953 26.6011 223.961 26.6035 223.99 26.6123C224.02 26.6215 224.074 26.6379 224.175 26.6658C224.224 26.6792 224.284 26.6954 224.358 26.7147L224.733 26.7717H224.839C224.842 26.7502 224.842 26.7281 224.839 26.7065C224.644 26.7005 224.45 26.6732 224.261 26.625C224.003 26.5542 223.974 26.5558 223.917 26.559C223.862 26.5621 223.781 26.5667 223.447 26.5109C223.283 26.5015 223.121 26.4686 222.966 26.4131C222.939 26.4057 222.914 26.4002 222.889 26.3961C222.896 26.3965 222.901 26.3968 222.901 26.3968H222.918C222.905 26.3962 222.893 26.3956 222.884 26.3952C222.82 26.385 222.765 26.3843 222.71 26.3836L222.71 26.3836C222.693 26.3834 222.677 26.3832 222.659 26.3827C222.597 26.3754 222.534 26.3671 222.472 26.3576C222.461 26.3547 222.449 26.3515 222.437 26.3478C222.33 26.3217 222.221 26.3026 222.112 26.2908C222.231 26.3171 222.351 26.3394 222.472 26.3576C222.543 26.3762 222.602 26.3811 222.659 26.3827C222.705 26.3879 222.75 26.3926 222.796 26.3967C223.136 26.4984 223.484 26.5693 223.837 26.6087C223.902 26.6087 223.924 26.6048 223.936 26.6027ZM222.889 26.3961C222.858 26.3946 222.784 26.3908 222.884 26.3952C222.886 26.3955 222.887 26.3958 222.889 26.3961Z" fill="black"/>
<path fill-rule="evenodd" clip-rule="evenodd" d="M224.123 26.9859C224.279 26.9981 224.45 27.0115 224.651 27.0489L224.725 27.0652V27.1141H224.562C224.389 27.0865 224.215 27.0702 224.041 27.0652L223.666 27.0163C223.295 26.9145 223.274 26.8985 223.254 26.9009C223.242 26.9023 223.231 26.9103 223.146 26.9103C222.806 26.881 222.468 26.8265 222.136 26.7473H222.087V26.6902C222.16 26.6829 222.234 26.6829 222.307 26.6902C222.464 26.7478 222.629 26.7835 222.796 26.7962C223.128 26.8517 223.21 26.8455 223.265 26.8414C223.323 26.837 223.35 26.835 223.609 26.9103C223.777 26.9589 223.939 26.9716 224.123 26.9859Z" fill="black"/>
<path fill-rule="evenodd" clip-rule="evenodd" d="M222.767 27.1756C222.953 27.1943 223.321 27.2315 224.415 27.4158L224.505 27.4239C224.508 27.4373 224.508 27.4513 224.505 27.4647C224.309 27.4484 224.008 27.4076 223.438 27.3016C223.266 27.2735 223.092 27.2571 222.917 27.2527L222.551 27.2038C222.18 27.102 222.158 27.086 222.139 27.0884C222.127 27.0898 222.116 27.0978 222.03 27.0978V27.0408C222.181 27.0335 222.332 27.0614 222.47 27.1223C222.598 27.1586 222.64 27.1628 222.767 27.1756Z" fill="black"/>
<path fill-rule="evenodd" clip-rule="evenodd" d="M221.949 27.4484V27.3994L221.981 27.4157L222.09 27.4343C222.1 27.4395 222.117 27.4467 222.144 27.4565H222.22L222.315 27.4728C222.471 27.488 222.626 27.5125 222.779 27.5462C223.133 27.6181 223.489 27.6757 223.847 27.7189C223.824 27.7174 223.801 27.7174 223.772 27.7174C223.445 27.7292 223.118 27.6879 222.803 27.5951C222.613 27.5522 222.42 27.5196 222.225 27.4973L221.949 27.4484ZM223.907 27.726C223.887 27.7236 223.867 27.7213 223.847 27.7189C223.865 27.72 223.884 27.7222 223.907 27.726ZM223.907 27.726C223.981 27.7346 224.056 27.7426 224.13 27.75H224.22L224.171 27.7907C224.034 27.7533 223.96 27.7349 223.907 27.726ZM222.22 27.4565H222.282C222.22 27.4427 222.035 27.4053 222.09 27.4343L222.22 27.4565Z" fill="black"/>
<path fill-rule="evenodd" clip-rule="evenodd" d="M223.463 28.0924L223.088 28.0435C223.003 28.0196 222.936 28.0009 222.883 27.9864C222.718 27.9409 222.693 27.9359 222.669 27.9367C222.648 27.9373 222.628 27.9422 222.519 27.9293C222.28 27.9254 222.042 27.8925 221.811 27.8315V27.7826C221.928 27.816 222.047 27.8378 222.169 27.8478C222.501 27.8993 222.583 27.8931 222.638 27.8889C222.696 27.8846 222.723 27.8825 222.983 27.9538C223.294 28.0194 223.609 28.063 223.927 28.0842V28.1331C223.774 28.1064 223.618 28.0928 223.463 28.0924Z" fill="black"/>
<path d="M223.788 28.4266C223.577 28.3696 223.471 28.4266 223.259 28.3614C222.805 28.3176 222.354 28.2496 221.908 28.1576H221.794V28.2065H221.94C222.257 28.3012 222.587 28.3452 222.917 28.337C223.151 28.3885 223.387 28.4266 223.625 28.4511C223.699 28.4707 223.77 28.498 223.837 28.5326C223.841 28.5138 223.841 28.4944 223.837 28.4755L223.788 28.4266Z" fill="black"/>
</g>
<rect x="211.904" y="31.3206" width="20.1454" height="6.54619" fill="#795D5C"/>
<rect x="211.904" y="34.6794" width="20.1454" height="3.04076" fill="url(#paint16_linear_1806_25349)"/>
<rect x="211.904" y="31.4755" width="20.1454" height="3.04076" fill="url(#paint17_linear_1806_25349)"/>
<path d="M216.243 33.4891C216.243 33.6277 216.169 33.75 216.072 33.75C215.974 33.75 215.893 33.6277 215.893 33.4891C215.893 33.3505 215.974 33.2283 216.072 33.2283C216.169 33.2283 216.243 33.3424 216.243 33.4891Z" fill="#A2806F"/>
<path d="M225.302 33.4239C225.302 33.5706 225.229 33.6848 225.131 33.6848C225.034 33.6848 224.952 33.5706 224.952 33.4239C224.952 33.2772 225.034 33.163 225.131 33.163C225.229 33.163 225.302 33.2446 225.302 33.4239Z" fill="#A2806F"/>
<path d="M230.878 32.9348C230.878 33.0734 230.805 33.1956 230.707 33.1956C230.609 33.1956 230.528 33.0734 230.528 32.9348C230.528 32.7962 230.609 32.6739 230.707 32.6739C230.805 32.6739 230.878 32.788 230.878 32.9348Z" fill="#A2806F"/>
<g style="mix-blend-mode:multiply" opacity="0.56">
<rect x="211.904" y="31.3206" width="4.16743" height="6.54619" fill="#9D8785"/>
</g>
<path d="M146.512 51.2446C153.479 52.5815 157.793 53.6005 160.349 61.6141C162.905 69.6277 162.644 74.3152 162.644 74.3152C162.644 74.3152 160.056 77.731 152.877 78.0245C145.698 78.3179 144.363 77.7065 144.363 77.7065C144.363 77.7065 139.341 75.2609 137.167 71.5272C134.994 67.7935 136.069 65.9348 136.972 62.9348C137.876 59.9348 141.213 52.6223 141.213 52.6223L146.512 51.2446Z" fill="#F0929C"/>
<path d="M148.001 39.7255C148.457 42.0081 149.914 51.9538 149.914 51.9538C149.914 51.9538 145.119 57.4157 142.254 57.106C139.389 56.7962 140.993 50.5842 140.993 50.5842L140.871 41.3641L148.001 39.7255Z" fill="url(#paint18_linear_1806_25349)"/>
<path d="M158.517 96.7337C156.889 94.288 154.545 93.2609 151.045 92.5353L153.137 89.2744C153.137 89.2744 154.293 77.25 152.266 70.875C150.239 64.5 155.408 54.3342 155.408 54.3342C158.59 57.2853 163.181 65.5353 163.653 77.0951C163.994 84.0141 162.201 90.8705 158.517 96.7337Z" fill="#DC8C54"/>
<path d="M150.923 69.4647C154.008 69.7174 158.867 68.4375 162.098 66.5543C161.854 65.5842 161.602 64.7038 161.341 63.9212C159.526 58.3614 157.036 53.5924 152.925 54.1386C148.815 54.6848 147.325 60.7989 150.581 68.6495C150.695 68.9266 150.817 69.1956 150.923 69.4647Z" fill="#F0929C"/>
<path d="M158.517 96.7337C157.622 98.1636 156.624 99.526 155.53 100.81C153.153 103.539 150.617 106.125 147.936 108.554C147.936 108.554 144.753 112.092 143.955 112.891C143.158 113.69 142.376 117.937 141.75 117.497C141.123 117.057 142.018 113.16 142.018 113.16C142.018 113.16 140.073 116.421 139.104 116.34C138.136 116.258 139.007 114.921 139.104 114.766C138.909 114.897 137.167 116.054 136.996 115.728C136.825 115.402 138.022 113.454 138.136 113.283C137.965 113.437 136.288 114.913 136.198 114.236C136.109 113.56 140.016 109.207 140.268 108.937C140.048 109.076 137.753 110.568 136.654 109.753C135.555 108.937 136.125 108.937 136.125 108.937C137.558 108.464 138.925 107.812 140.195 106.997C141.611 105.937 143.198 104.959 143.198 104.959L151.078 92.5924C154.545 93.2609 156.881 94.2554 158.517 96.7337Z" fill="#DC8C54"/>
<path d="M143.044 104.829C144.33 104.894 147.537 106.37 147.928 108.905L148.44 108.473C148.647 108.305 148.708 108.017 148.587 107.78C148.085 106.803 147.353 105.964 146.454 105.334C145.71 104.743 144.846 104.32 143.923 104.095C143.681 104.045 143.435 104.157 143.313 104.372L143.044 104.829Z" fill="#F05825"/>
<path d="M173.673 20.2337C173.201 17.7147 169.294 17.8696 167.845 19.3207C166.396 20.7717 164.451 19.9239 163.083 19.8098C161.716 19.6957 159.014 19.712 157.923 21.3261C156.832 22.9402 154.936 24.0408 153.218 23.6739C151.501 23.3071 149.962 22.8587 147.879 23.4864C145.502 24.2446 144.851 25.981 143.874 26.3478C142.108 27.0245 139.991 26.1277 137.745 27.8641C136.321 28.9728 133.024 32.4375 135.303 36.1712C137.387 39.5299 146.08 41.1685 146.08 41.1685C146.08 41.1685 150.337 43.3777 153.194 41.6495C155.473 40.2717 154.7 38.731 156.669 38.0299C158.639 37.3288 159.722 37.5 161.488 35.8696C162.717 34.7283 162.261 32.8859 163.93 32.3315C165.598 31.7772 166.372 32.5027 168.244 30.7011C170.116 28.8995 169.229 26.0299 170.783 25.3451C172.932 24.3913 174.186 22.8261 173.673 20.2337Z" fill="black"/>
<path d="M138.063 32.7636C137.099 33.47 136.439 34.5158 136.215 35.6902C136.061 37.1775 136.143 38.6799 136.459 40.1413C136.732 41.6654 137.228 43.1407 137.932 44.519C138.95 46.5897 140.7 47.5598 142.238 47.4212C144.048 47.3527 145.725 46.4499 146.78 44.9755C148.099 43.1087 147.895 40.8261 147.529 39.0571C147.422 38.4092 147.273 37.7692 147.081 37.1413C145.687 37.4635 144.244 36.8601 143.492 35.6413C142.556 34.2228 140.464 34.288 139.666 34.0109C139.049 33.7143 138.502 33.289 138.063 32.7636V32.7636Z" fill="#DC8C54"/>
<path d="M145.795 35.8696C146.742 35.0866 148.048 34.9038 149.173 35.3967C151.069 36.2609 151.175 38.8696 150.117 40.1005C149.059 41.3315 146.861 41.0543 146.861 41.0543C146.816 40.0895 146.694 39.1299 146.495 38.1848C146.323 37.3957 146.089 36.6215 145.795 35.8696Z" fill="url(#paint19_linear_1806_25349)"/>
<path d="M148.18 36.7989C148.639 36.9956 148.969 37.4096 149.059 37.9014C149.149 38.3932 148.987 38.8975 148.628 39.2446C148.089 39.647 147.413 39.8199 146.748 39.7255C146.687 39.1777 146.597 38.6335 146.479 38.0951C146.381 37.6467 146.276 37.2799 146.186 36.9212C146.793 36.564 147.534 36.5185 148.18 36.7989Z" fill="#DC8C54"/>
<path d="M141.628 38.6576C141.684 38.894 141.807 39.0652 142.002 39.0163C142.197 38.9674 142.238 38.7636 142.189 38.5272C142.14 38.2908 142.026 38.1196 141.807 38.1685C141.587 38.2174 141.554 38.4212 141.628 38.6576Z" fill="#181E29"/>
<path d="M136.744 39.7581C136.801 39.9864 136.915 40.1576 137.11 40.1087C137.306 40.0598 137.338 39.8641 137.281 39.6359C137.224 39.4076 137.126 39.2446 136.923 39.2935C136.719 39.3424 136.671 39.538 136.744 39.7581Z" fill="#181E29"/>
<path d="M136.19 37.8261C137.208 37.4918 137.517 37.8261 137.558 38.1195C137.155 38.0944 136.751 38.1357 136.361 38.2418L136.19 38.2826C136.19 38.1358 136.19 37.9891 136.19 37.8424C136.192 37.837 136.192 37.8314 136.19 37.8261Z" fill="#21312A"/>
<path d="M142.824 36.8804C142.406 36.5852 141.881 36.4843 141.384 36.6032C140.325 36.7255 140.187 37.1657 140.268 37.4185C140.626 37.2306 141.01 37.0987 141.408 37.0272C141.876 36.9447 142.349 36.8956 142.824 36.8804Z" fill="#21312A"/>
<path d="M142.141 42.4647C141.994 41.9918 141.034 42.5217 140.008 42.6848C138.982 42.8478 138.689 42.7826 138.38 43.1087C138.071 43.4348 138.982 44.413 140.431 44.0788C141.88 43.7445 142.287 42.9375 142.141 42.4647Z" fill="white"/>
<path d="M139.186 38.1033V37.9973C138.963 39.1752 138.599 40.322 138.103 41.413C137.94 41.9266 138.502 42.2283 138.917 42.2283C139.401 42.1493 139.879 42.0404 140.35 41.9022" stroke="url(#paint20_linear_1806_25349)" stroke-width="0.15"/>
<rect x="111.414" y="4.01901" width="44.0054" height="66.614" transform="rotate(90 111.414 4.01901)" fill="#E3F4FC"/>
<rect x="45.9229" y="4.98914" width="64.3837" height="42.0734" fill="#C5E8EF"/>
<mask id="mask1_1806_25349" style="mask-type:luminance" maskUnits="userSpaceOnUse" x="45" y="4" width="66" height="44">
<rect x="45.9229" y="4.98914" width="64.3837" height="42.0734" fill="white"/>
</mask>
<g mask="url(#mask1_1806_25349)">
<path opacity="0.17" d="M61.3308 42.0326C61.5485 41.2825 61.5054 40.4806 61.2087 39.7582C60.9618 39.2277 61.0177 38.6055 61.3552 38.1277C61.6361 37.7374 61.8481 37.3018 61.9819 36.8397C62.3527 35.5613 62.1789 34.1863 61.5017 33.0408C61.15 32.4722 61.1072 31.7646 61.3877 31.1576C61.4531 31.0115 61.5102 30.8618 61.5587 30.7093C61.8757 29.5723 61.5657 28.3523 60.7447 27.5054C60.2839 27.039 60.1907 26.3218 60.5168 25.7527C60.6751 25.4977 60.8009 25.2238 60.8912 24.9375C61.4252 23.1129 60.5175 21.1758 58.775 20.4212C58.5187 20.3124 58.3854 20.0278 58.4657 19.7609C59.1362 17.4321 57.9464 14.9714 55.7063 14.0544C54.6892 13.6941 53.5684 13.773 52.6116 14.2723C51.6548 14.7715 50.948 15.6462 50.6598 16.6875C50.5053 17.2163 50.4447 17.7682 50.4808 18.3179C50.595 19.436 49.9181 20.4835 48.8529 20.837C46.9519 21.3884 45.4728 22.8883 44.9459 24.7989C44.5712 26.0735 44.5712 27.4292 44.9459 28.7038C45.2839 29.7506 44.921 30.8968 44.0424 31.5571C43.1518 32.1839 42.5048 33.0997 42.211 34.1495C41.6474 36.102 42.176 38.2072 43.5947 39.6603C43.8486 39.9238 43.9419 40.3035 43.8389 40.6549C43.5681 41.6727 44.0847 42.7353 45.0517 43.1495C45.1615 43.1977 45.2201 43.3186 45.1901 43.4348C44.7696 44.8826 45.4873 46.418 46.8668 47.0218C47.0667 47.0978 47.274 47.1525 47.4854 47.1848C47.9833 47.2543 48.409 47.5787 48.6087 48.0408C49.275 49.5304 50.4958 50.7004 52.011 51.3016C53.4102 51.8193 54.9618 51.7281 56.291 51.0501C57.6202 50.3721 58.6062 49.1689 59.011 47.731C59.203 47.0997 59.2964 46.4425 59.2877 45.7826C59.2623 44.8876 59.6495 44.0307 60.3377 43.4593C60.8058 43.0958 61.1522 42.5982 61.3308 42.0326Z" fill="#485CA8"/>
<g style="mix-blend-mode:multiply" opacity="0.17">
<path d="M60.0527 41.1603C60.2007 40.4827 60.1116 39.7746 59.8004 39.1549C59.5523 38.7147 59.5523 38.1766 59.8004 37.7364C60.0299 37.3735 60.1951 36.9736 60.2888 36.5544C60.5498 35.3973 60.3039 34.1837 59.6132 33.2201C59.2726 32.7475 59.1901 32.1358 59.3934 31.5897C59.8492 30.4634 59.5192 29.1711 58.5795 28.4022C58.1453 28.005 58.0378 27.3623 58.319 26.8451C58.4473 26.6091 58.5432 26.3569 58.6039 26.0951C58.9731 24.4326 58.0223 22.7609 56.4062 22.231C56.1705 22.1498 56.0337 21.9038 56.0888 21.6603C56.556 19.5307 55.3077 17.3996 53.2237 16.769C52.2847 16.5086 51.2801 16.6444 50.4437 17.1449C49.6072 17.6454 49.0118 18.4669 48.7957 19.4185C48.6853 19.8886 48.6632 20.3751 48.7306 20.8533C48.8907 21.8529 48.3307 22.8285 47.3876 23.1929C45.7055 23.7828 44.4507 25.2063 44.0748 26.9511C43.8163 28.1036 43.907 29.3071 44.3353 30.4076C44.7085 31.3188 44.4444 32.3672 43.6841 32.9919C42.9158 33.6089 42.3839 34.4729 42.1783 35.4375C41.8037 37.2133 42.4282 39.0522 43.8062 40.231C44.0569 40.4419 44.1699 40.7749 44.0992 41.0951C43.8926 42.0356 44.4309 42.98 45.3446 43.2799C45.4491 43.3114 45.5125 43.4173 45.4911 43.5245C45.2366 44.8115 45.97 46.089 47.2085 46.5163C47.3936 46.5742 47.5849 46.6097 47.7783 46.6223C48.2298 46.6521 48.6335 46.9144 48.8446 47.3152C49.5357 48.6066 50.7045 49.5753 52.1004 50.0136C53.4014 50.4148 54.8105 50.254 55.988 49.5699C57.1655 48.8859 58.0045 47.7406 58.3027 46.4103C58.4387 45.8423 58.4827 45.256 58.433 44.6739C58.3568 43.8762 58.658 43.0887 59.2469 42.5462C59.6546 42.1808 59.9366 41.6958 60.0527 41.1603Z" fill="#485CA8"/>
</g>
<rect x="55.4053" y="22.7609" width="16.0674" height="24.7011" fill="#647BBB"/>
<path fill-rule="evenodd" clip-rule="evenodd" d="M57.6356 27.5136H57.3589V25.0027H57.6356V27.5136ZM60.6473 25.0027H60.3705V27.5136H60.6473V25.0027ZM63.3821 25.0027H63.6589V27.5136H63.3821V25.0027ZM66.6705 25.0027H66.3938V27.5136H66.6705V25.0027ZM69.4054 25.0027H69.6903V27.5136H69.4054V25.0027Z" fill="#161632"/>
<path fill-rule="evenodd" clip-rule="evenodd" d="M57.6356 32.462H57.3589V29.9429H57.6356V32.462ZM60.6473 29.9429H60.3705V32.462H60.6473V29.9429ZM63.3821 29.9429H63.6589V32.462H63.3821V29.9429ZM66.6705 29.9429H66.3938V32.462H66.6705V29.9429ZM69.4054 29.9429H69.6903V32.462H69.4054V29.9429Z" fill="#161632"/>
<path fill-rule="evenodd" clip-rule="evenodd" d="M57.6356 37.443H57.3589V34.8913H57.6356V37.443ZM60.6473 34.9321H60.3705V37.443H60.6473V34.9321ZM63.3821 34.9321H63.6589V37.443H63.3821V34.9321ZM66.6705 34.9321H66.3938V37.443H66.6705V34.9321ZM69.4054 34.9321H69.6903V37.443H69.4054V34.9321Z" fill="#161632"/>
<path fill-rule="evenodd" clip-rule="evenodd" d="M60.6473 39.8152H60.3705V42.3342H60.6473V39.8152ZM57.6356 42.3342H57.3589V39.8315H57.6356V42.3342ZM63.3821 39.8152H63.6589V42.3342H63.3821V39.8152ZM66.6705 39.8152H66.3938V42.3342H66.6705V39.8152ZM69.4054 39.8152H69.6903V42.3342H69.4054V39.8152Z" fill="#161632"/>
<path fill-rule="evenodd" clip-rule="evenodd" d="M57.6356 47.2908H57.3589V44.7799H57.6356V47.2908ZM60.6473 44.7799H60.3705V47.2908H60.6473V44.7799ZM63.3821 44.7799H63.6589V47.2908H63.3821V44.7799ZM66.6705 44.7799H66.3938V47.2908H66.6705V44.7799ZM69.4054 44.7799H69.6903V47.2908H69.4054V44.7799Z" fill="#161632"/>
<path opacity="0.14" d="M95.6309 41.8859C96.1627 42.3233 96.4631 42.9822 96.4448 43.6712C96.4426 44.1762 96.5139 44.6787 96.6564 45.1631C96.9579 46.2745 97.7147 47.2064 98.7397 47.7282C99.7648 48.2501 100.963 48.3133 102.037 47.9022C103.204 47.4341 104.142 46.527 104.649 45.375C104.791 45.0303 105.097 44.7814 105.463 44.7147C105.624 44.6893 105.782 44.6483 105.936 44.5924C106.999 44.1326 107.551 42.9491 107.222 41.837C107.198 41.7475 107.243 41.654 107.327 41.6169C108.081 41.2885 108.472 40.4495 108.239 39.6603C108.166 39.3897 108.236 39.1002 108.426 38.894C109.52 37.7812 109.928 36.1627 109.492 34.6631C109.266 33.8572 108.769 33.1544 108.084 32.6739C107.408 32.1671 107.13 31.2849 107.392 30.481C107.686 29.5026 107.686 28.4594 107.392 27.481C107.009 26.0123 105.894 24.8467 104.446 24.3995C103.622 24.1349 103.093 23.3304 103.176 22.4674C103.203 22.0521 103.156 21.6354 103.038 21.2364C102.815 20.4384 102.272 19.7684 101.538 19.3855C100.804 19.0025 99.9444 18.9407 99.1634 19.2147C97.4336 19.9242 96.5196 21.8289 97.0471 23.625C97.1106 23.8314 97.0089 24.0526 96.8111 24.1386C95.4657 24.738 94.7855 26.2549 95.232 27.6603C95.3012 27.8818 95.3998 28.0929 95.525 28.2881C95.7725 28.7261 95.6993 29.2754 95.346 29.6332C94.7249 30.2829 94.4956 31.2143 94.7437 32.0788C94.7735 32.1977 94.8172 32.3126 94.8739 32.4212C95.0809 32.8908 95.0476 33.4318 94.7843 33.8723C94.2631 34.7518 94.1277 35.8079 94.4099 36.7908C94.5168 37.1405 94.679 37.4707 94.8902 37.769C95.1335 38.1302 95.1793 38.5896 95.0123 38.9919C94.7764 39.5439 94.7418 40.1614 94.9146 40.7364C95.0288 41.1846 95.279 41.5863 95.6309 41.8859Z" fill="#37B99A"/>
<g style="mix-blend-mode:multiply">
<path d="M96.4771 41.1359C96.9304 41.5499 97.1601 42.1553 97.0957 42.7663C97.0623 43.2148 97.098 43.6657 97.2015 44.1033C97.4334 45.1143 98.0713 45.9848 98.9648 46.5094C99.8584 47.034 100.928 47.1663 101.922 46.875C103.009 46.539 103.92 45.7858 104.454 44.7799C104.615 44.4725 104.922 44.2693 105.268 44.2419C105.417 44.2333 105.564 44.2087 105.707 44.1685C106.69 43.8421 107.269 42.8262 107.05 41.8125C107.037 41.7328 107.081 41.6547 107.156 41.625C107.84 41.4002 108.251 40.7025 108.117 39.9946C108.061 39.7482 108.146 39.4913 108.336 39.3261C109.394 38.4229 109.87 37.0098 109.574 35.6495C109.412 34.918 109.004 34.2645 108.418 33.7989C107.835 33.3164 107.634 32.5102 107.921 31.8098C108.247 30.9656 108.315 30.0434 108.117 29.1604C107.832 27.82 106.869 26.7259 105.577 26.2745C104.849 26.0007 104.416 25.2494 104.543 24.481C104.592 24.1141 104.575 23.7416 104.495 23.3805C104.328 22.6513 103.872 22.0217 103.231 21.637C102.591 21.2524 101.821 21.146 101.1 21.3424C99.4951 21.8273 98.5337 23.4688 98.8945 25.1087C98.9424 25.2971 98.8353 25.4902 98.6504 25.5489C97.4296 25.9561 96.7057 27.2134 96.9655 28.4756C97.0093 28.6784 97.0834 28.8736 97.1852 29.0544C97.3822 29.4581 97.2818 29.9441 96.9411 30.2364C96.3349 30.7664 96.0664 31.5857 96.2411 32.3723C96.2638 32.4784 96.2965 32.5821 96.3387 32.6821C96.4987 33.1105 96.4346 33.5907 96.1678 33.962C95.637 34.7015 95.4474 35.6332 95.6469 36.5218C95.7232 36.8504 95.8584 37.1625 96.0457 37.443C96.2374 37.7789 96.2374 38.1913 96.0457 38.5272C95.8021 39.0019 95.733 39.5473 95.8504 40.068C95.9388 40.4823 96.1587 40.8569 96.4771 41.1359Z" fill="#C4E7EE"/>
</g>
<g opacity="0.17">
<path d="M65.2376 47.8451C67.0724 46.4194 67.7987 43.9828 67.0445 41.783C66.2903 39.5832 64.2226 38.1074 61.9004 38.1114C61.5647 38.1122 61.2297 38.1422 60.8992 38.2011C60.1671 35.5085 57.5578 33.7746 54.7962 34.1456C52.0346 34.5166 49.9738 36.8778 49.976 39.6685C49.975 40.1814 50.0462 40.6918 50.1876 41.1848C49.8134 41.0832 49.4276 41.0311 49.0399 41.0299C47.4302 41.0371 45.9564 41.9348 45.2093 43.3628C44.4623 44.7909 44.5644 46.5155 45.4748 47.8451H65.2376Z" fill="#485CA8"/>
<g style="mix-blend-mode:overlay" opacity="0.55">
<path d="M48.1528 47.8451C46.6356 46.6653 46.0351 44.65 46.6585 42.8303C47.2819 41.0107 48.9913 39.7892 50.9121 39.7908C51.185 39.7912 51.4574 39.8157 51.726 39.8641C52.3335 37.6388 54.491 36.2068 56.7739 36.5137C59.0569 36.8207 60.7609 38.7718 60.7609 41.0788C60.7682 41.5025 60.7162 41.9251 60.6063 42.3342C60.9166 42.2488 61.2368 42.2049 61.5586 42.2038C62.8928 42.2056 64.1159 42.9484 64.7343 44.1325C65.3528 45.3165 65.2645 46.7464 64.5051 47.8451H48.1528Z" fill="#485CA8"/>
</g>
</g>
<g opacity="0.19">
<path opacity="0.52" d="M104.405 47.8451C106.23 46.4147 106.949 43.9833 106.196 41.7885C105.444 39.5936 103.385 38.1175 101.068 38.1114C100.73 38.1126 100.392 38.1426 100.059 38.2011C99.315 35.5235 96.7136 33.8054 93.9633 34.1751C91.213 34.5448 89.1562 36.8892 89.1437 39.6685C89.1427 40.1814 89.2139 40.6918 89.3553 41.1848C88.981 41.0837 88.5953 41.0316 88.2076 41.0299C86.5943 41.0286 85.1141 41.9258 84.3667 43.3577C83.6193 44.7897 83.7288 46.5191 84.6507 47.8451H104.405Z" fill="#485CA8"/>
<g style="mix-blend-mode:overlay" opacity="0.55">
<path d="M87.3203 47.8451C85.8031 46.6653 85.2026 44.65 85.826 42.8303C86.4494 41.0107 88.1588 39.7892 90.0796 39.7908C90.3525 39.7912 90.6249 39.8157 90.8935 39.8641C91.501 37.6388 93.6585 36.2068 95.9414 36.5137C98.2243 36.8207 99.9284 38.7718 99.9284 41.0788C99.9313 41.5022 99.8793 41.9242 99.7738 42.3342C100.853 42.0326 102.011 42.2554 102.902 42.9362C103.793 43.6169 104.313 44.6767 104.307 45.7989C104.309 46.5311 104.085 47.2459 103.664 47.8451H87.3203Z" fill="#485CA8"/>
</g>
</g>
<rect x="104.503" y="29.6902" width="7.81395" height="17.7717" fill="#7FD0E0"/>
<path fill-rule="evenodd" clip-rule="evenodd" d="M106.741 31.2636H107.018V33.7826H106.741V31.2636ZM109.753 31.2636H110.03V33.7826H109.753V31.2636Z" fill="#161632"/>
<path fill-rule="evenodd" clip-rule="evenodd" d="M106.741 35.8125H107.018V38.3234H106.741V35.8125ZM109.753 35.8125H110.03V38.3234H109.753V35.8125Z" fill="#161632"/>
<path fill-rule="evenodd" clip-rule="evenodd" d="M106.741 40.3533H107.018V42.8723H106.741V40.3533ZM109.753 40.3533H110.03V42.8723H109.753V40.3533Z" fill="#161632"/>
<path fill-rule="evenodd" clip-rule="evenodd" d="M106.741 44.9022H107.018V47.4131H106.741V44.9022ZM109.753 44.9022H110.03V47.4131H109.753V44.9022Z" fill="#161632"/>
<rect x="87.8252" y="22.1984" width="7.13837" height="24.7011" fill="#46C7F4"/>
<path fill-rule="evenodd" clip-rule="evenodd" d="M89.1108 23.7799V23.5027H93.4411V23.7799H89.1108ZM89.1108 26.5191V26.7962H93.4411V26.5191H89.1108ZM89.1108 29.8125V29.5354H93.4411V29.8125H89.1108ZM89.1108 32.5517V32.8288H93.4411V32.5517H89.1108ZM93.4411 35.568V35.8533H89.1108V35.568H93.4411Z" fill="#161632"/>
<path fill-rule="evenodd" clip-rule="evenodd" d="M89.2573 38.9429V38.6658H93.6038V38.9429H89.2573ZM89.2573 41.6821V41.9593H93.6038V41.6821H89.2573ZM89.2573 44.6984V44.9756H93.6038V44.6984H89.2573Z" fill="#161632"/>
<rect x="59.4346" y="4.27991" width="1.34303" height="43.3288" fill="#E3F4FC"/>
<path d="M65.4576 10.5408C65.1368 10.5042 64.8945 10.2323 64.8945 9.90898C64.8945 9.58561 65.1368 9.31374 65.4576 9.27719H65.5146C65.6428 8.89559 65.9999 8.63855 66.4018 8.63855C66.8038 8.63855 67.1609 8.89559 67.289 9.27719H67.3704C67.4665 9.27741 67.5611 9.29972 67.6472 9.3424C67.8341 8.99077 68.2475 8.82597 68.6246 8.95272C69.0017 9.07946 69.2321 9.46061 69.1694 9.85401C69.1067 10.2474 68.7694 10.5378 68.3716 10.5408H65.4576Z" fill="white"/>
<path d="M53.3788 11.6495C53.7131 11.7534 54.0763 11.6317 54.2808 11.3472C54.4853 11.0627 54.4853 10.6791 54.2808 10.3946C54.0763 10.1101 53.7131 9.98841 53.3788 10.0924C53.2924 10.08 53.2047 10.08 53.1183 10.0924C52.9838 9.56824 52.5172 9.19794 51.977 9.18655C51.4367 9.17516 50.955 9.52546 50.7986 10.0435C50.667 9.96891 50.5184 9.9296 50.3672 9.92935C49.9042 9.92935 49.5288 10.3053 49.5288 10.769C49.5288 11.2328 49.9042 11.6087 50.3672 11.6087L53.3788 11.6495Z" fill="white"/>
<path d="M98.9192 11.519C99.3641 11.519 99.7753 11.2813 99.9977 10.8954C100.22 10.5095 100.22 10.034 99.9977 9.64809C99.7753 9.26218 99.3641 9.02445 98.9192 9.02445C98.7749 9.02296 98.6314 9.04782 98.496 9.09782C98.2793 8.26095 97.5339 7.67009 96.6709 7.65113C95.8079 7.63218 95.0374 8.18974 94.7843 9.0163C94.2978 8.72793 93.683 8.77566 93.2465 9.13569C92.8101 9.49572 92.6456 10.0909 92.835 10.6245C93.0244 11.158 93.5271 11.5157 94.0925 11.519H98.9192Z" fill="white"/>
</g>
</g>
</g>
<defs>
<linearGradient id="paint0_linear_1806_25349" x1="41.0718" y1="92.9796" x2="52.1985" y2="92.9796" gradientUnits="userSpaceOnUse">
<stop stop-color="#E0B292"/>
<stop offset="1" stop-color="#EBBB8D"/>
</linearGradient>
<linearGradient id="paint1_linear_1806_25349" x1="40.3473" y1="89.5351" x2="52.9229" y2="89.5351" gradientUnits="userSpaceOnUse">
<stop stop-color="#E0B292"/>
<stop offset="1" stop-color="#EBBB8D"/>
</linearGradient>
<linearGradient id="paint2_linear_1806_25349" x1="42.1098" y1="61.3288" x2="42.1098" y2="85.8179" gradientUnits="userSpaceOnUse">
<stop stop-color="#37B99A"/>
<stop offset="1" stop-color="#6C7A78"/>
</linearGradient>
<linearGradient id="paint3_linear_1806_25349" x1="52.0012" y1="69.4925" x2="49.2196" y2="68.2114" gradientUnits="userSpaceOnUse">
<stop stop-color="#6C7A78"/>
<stop offset="1" stop-color="white"/>
</linearGradient>
<linearGradient id="paint4_linear_1806_25349" x1="-4928.08" y1="58.5815" x2="-4928.08" y2="82.7283" gradientUnits="userSpaceOnUse">
<stop stop-color="#37B99A"/>
<stop offset="1" stop-color="#6C7A78"/>
</linearGradient>
<linearGradient id="paint5_linear_1806_25349" x1="51.7133" y1="80.2678" x2="51.7133" y2="100.974" gradientUnits="userSpaceOnUse">
<stop stop-color="#37B99A"/>
<stop offset="1" stop-color="#6C7A78"/>
</linearGradient>
<linearGradient id="paint6_linear_1806_25349" x1="-4936.07" y1="76.9565" x2="-4924.64" y2="85.5248" gradientUnits="userSpaceOnUse">
<stop stop-color="#37B99A"/>
<stop offset="1" stop-color="#6C7A78"/>
</linearGradient>
<linearGradient id="paint7_linear_1806_25349" x1="-4926.26" y1="77.2484" x2="-4924.16" y2="76.0395" gradientUnits="userSpaceOnUse">
<stop stop-color="#6C7A78"/>
<stop offset="1" stop-color="white"/>
</linearGradient>
<linearGradient id="paint8_linear_1806_25349" x1="48.2389" y1="56.9784" x2="35.7632" y2="62.0136" gradientUnits="userSpaceOnUse">
<stop stop-color="#37B99A"/>
<stop offset="1" stop-color="#6C7A78"/>
</linearGradient>
<linearGradient id="paint9_linear_1806_25349" x1="-4924.53" y1="76.9339" x2="-4922.59" y2="76.8379" gradientUnits="userSpaceOnUse">
<stop stop-color="#6C7A78"/>
<stop offset="1" stop-color="white"/>
</linearGradient>
<linearGradient id="paint10_linear_1806_25349" x1="-4921.91" y1="66.8895" x2="-4930.84" y2="71.2761" gradientUnits="userSpaceOnUse">
<stop stop-color="#37B99A"/>
<stop offset="1" stop-color="#6C7A78"/>
</linearGradient>
<linearGradient id="paint11_linear_1806_25349" x1="-4921" y1="74.578" x2="-4922.5" y2="74.542" gradientUnits="userSpaceOnUse">
<stop stop-color="#6C7A78"/>
<stop offset="1" stop-color="white"/>
</linearGradient>
<linearGradient id="paint12_linear_1806_25349" x1="-4919.5" y1="66.1785" x2="-4929.65" y2="71.1299" gradientUnits="userSpaceOnUse">
<stop stop-color="#37B99A"/>
<stop offset="1" stop-color="#6C7A78"/>
</linearGradient>
<linearGradient id="paint13_linear_1806_25349" x1="-4920.92" y1="75.1957" x2="-4920.92" y2="85.4919" gradientUnits="userSpaceOnUse">
<stop stop-color="#37B99A"/>
<stop offset="1" stop-color="#6C7A78"/>
</linearGradient>
<linearGradient id="paint14_linear_1806_25349" x1="-4936.11" y1="80.395" x2="-4929.05" y2="88.9389" gradientUnits="userSpaceOnUse">
<stop stop-color="#37B99A"/>
<stop offset="1" stop-color="#6C7A78"/>
</linearGradient>
<linearGradient id="paint15_linear_1806_25349" x1="-4924.91" y1="76.0761" x2="-4924.91" y2="85.8179" gradientUnits="userSpaceOnUse">
<stop stop-color="#37B99A"/>
<stop offset="1" stop-color="#6C7A78"/>
</linearGradient>
<linearGradient id="paint16_linear_1806_25349" x1="215.981" y1="38.3209" x2="218.064" y2="31.8146" gradientUnits="userSpaceOnUse">
<stop stop-color="#E0B292"/>
<stop offset="1" stop-color="#EBBB8D"/>
</linearGradient>
<linearGradient id="paint17_linear_1806_25349" x1="185.047" y1="28.1253" x2="185.162" y2="38.5442" gradientUnits="userSpaceOnUse">
<stop stop-color="#E0B292"/>
<stop offset="1" stop-color="#EBBB8D"/>
</linearGradient>
<linearGradient id="paint18_linear_1806_25349" x1="140.545" y1="57.1208" x2="149.914" y2="57.1208" gradientUnits="userSpaceOnUse">
<stop stop-color="#CA6138"/>
<stop offset="1" stop-color="#DC8C54"/>
</linearGradient>
<linearGradient id="paint19_linear_1806_25349" x1="145.795" y1="41.0391" x2="150.784" y2="41.0391" gradientUnits="userSpaceOnUse">
<stop stop-color="#CA6138"/>
<stop offset="1" stop-color="#DC8C54"/>
</linearGradient>
<linearGradient id="paint20_linear_1806_25349" x1="137.827" y1="43.1375" x2="140.529" y2="42.7279" gradientUnits="userSpaceOnUse">
<stop stop-color="#822A20"/>
<stop offset="1" stop-color="#DC8C54"/>
</linearGradient>
<clipPath id="clip0_1806_25349">
<rect width="280" height="150" rx="8" fill="white"/>
</clipPath>
</defs>
</svg>
