<svg width="360" height="360" viewBox="0 0 360 360" fill="none" xmlns="http://www.w3.org/2000/svg">
<g clip-path="url(#clip0_302_430)">
<path fill-rule="evenodd" clip-rule="evenodd" d="M323.918 28.7974L54.123 232.344C48.3827 236.464 50.8428 245.529 57.4032 246.353L351.8 299.094L292.756 346.066L7.38042 245.529L253.394 13.14L323.918 28.7974ZM191.071 148.288L243.554 193.612L209.932 257.066L77.9043 233.168L191.071 148.288ZM204.191 138.399L318.178 52.6956L250.934 179.603L204.191 138.399ZM255.854 205.149L343.599 280.964L226.333 260.362L255.854 205.149ZM263.235 190.316L337.039 51.8714L360 275.195L263.235 190.316ZM6.56035 262.01L105.786 296.621L41.8223 342.769L6.56035 262.01ZM124.647 303.214L246.834 346.89H63.1435L124.647 303.214ZM85.2847 149.936L101.686 50.2233L223.872 19.7326L85.2847 149.936ZM68.8838 155.705L6.56036 93.8992L85.2847 56.8159L68.8838 155.705ZM62.3235 171.362L0 229.872V109.557L62.3235 171.362Z" fill="#30578E"/>
</g>
<defs>
<clipPath id="clip0_302_430">
<rect width="360" height="360" fill="white"/>
</clipPath>
</defs>
</svg>
