<?xml version="1.0" standalone="no"?>
<!DOCTYPE svg PUBLIC "-//W3C//DTD SVG 20010904//EN"
 "http://www.w3.org/TR/2001/REC-SVG-20010904/DTD/svg10.dtd">
<svg version="1.0" xmlns="http://www.w3.org/2000/svg"
 width="700.000000pt" height="700.000000pt" viewBox="0 0 700.000000 700.000000"
 preserveAspectRatio="xMidYMid meet">
<metadata>
Created by potrace 1.14, written by Peter Selinger 2001-2017
</metadata>
<g transform="translate(0.000000,700.000000) scale(0.100000,-0.100000)"
fill="#000000" stroke="none">
<path d="M4884 6703 c-63 -58 -307 -289 -443 -418 -188 -178 -245 -233 -286
-271 -22 -20 -103 -96 -180 -169 -77 -73 -156 -147 -175 -165 -19 -18 -104
-98 -189 -179 -212 -200 -298 -282 -351 -331 -25 -23 -115 -108 -199 -189 -85
-80 -169 -159 -185 -174 -17 -16 -92 -87 -166 -157 -74 -70 -153 -145 -175
-165 -22 -21 -109 -103 -194 -184 -181 -171 -176 -166 -362 -341 -79 -74 -186
-176 -238 -226 -53 -50 -109 -104 -126 -119 -16 -15 -93 -87 -170 -160 -77
-73 -157 -148 -177 -167 -21 -19 -104 -98 -185 -175 -82 -78 -164 -155 -183
-173 -19 -18 -96 -90 -170 -160 -74 -70 -155 -147 -180 -170 -49 -45 -312
-294 -368 -348 -19 -18 -33 -35 -30 -37 2 -2 57 -23 123 -45 66 -23 149 -52
185 -65 117 -42 199 -71 1370 -483 344 -121 670 -236 725 -255 55 -19 172 -60
260 -92 203 -72 286 -101 625 -220 151 -53 349 -123 440 -155 224 -80 664
-235 780 -275 52 -19 174 -61 270 -95 96 -34 258 -91 358 -126 101 -35 188
-66 193 -70 5 -3 17 -7 26 -9 10 -2 55 -17 100 -33 77 -28 83 -29 105 -14 13
9 178 140 368 291 190 151 377 300 415 330 39 31 79 63 90 72 11 10 70 56 130
104 61 47 112 90 113 96 2 5 -5 9 -15 10 -10 0 -25 2 -33 4 -32 6 -187 34
-215 38 -16 3 -142 26 -280 51 -137 25 -266 48 -285 51 -19 3 -42 8 -50 10 -8
2 -35 7 -60 10 -25 4 -92 15 -150 26 -157 29 -271 50 -305 56 -57 9 -155 26
-215 38 -14 3 -65 12 -115 20 -49 9 -110 20 -135 25 -25 6 -58 12 -75 14 -16
2 -59 9 -95 16 -66 13 -76 15 -140 25 -19 3 -69 12 -110 20 -41 7 -91 16 -110
19 -19 3 -46 8 -59 11 -20 4 -357 64 -446 80 -16 2 -41 7 -55 10 -28 6 -35 7
-165 29 -49 9 -101 18 -115 21 -14 3 -63 12 -110 20 -47 8 -96 17 -110 20 -14
2 -77 13 -140 25 -63 11 -126 22 -140 25 -14 3 -41 7 -60 11 -19 3 -55 9 -80
14 -25 5 -61 12 -80 15 -19 2 -47 7 -62 10 -43 8 -74 13 -193 35 -60 11 -123
22 -140 25 -16 3 -55 10 -85 15 -95 16 -114 20 -140 25 -35 7 -190 35 -220 40
-23 3 -121 21 -260 46 -30 6 -68 12 -85 15 -16 3 -66 12 -110 20 -44 9 -93 18
-110 20 -16 3 -66 12 -110 20 -44 8 -96 17 -115 20 -19 4 -39 7 -45 8 -5 2
-32 6 -60 11 -94 15 -139 54 -151 131 -10 68 15 113 93 171 35 27 70 53 76 58
7 6 84 65 172 131 88 66 378 285 645 486 267 201 602 453 745 561 143 108 265
199 270 204 6 5 84 64 175 133 91 68 255 192 365 275 110 83 385 290 610 460
226 170 482 363 570 430 88 67 345 260 570 430 1127 850 1014 763 995 769 -14
4 -141 33 -185 42 -11 2 -92 20 -180 40 -88 20 -170 38 -181 40 -12 2 -81 18
-154 34 -73 16 -142 32 -154 34 -65 13 -480 107 -486 111 -3 2 -28 -17 -56
-42z"/>
<path d="M3900 6503 c-228 -57 -423 -106 -433 -108 -10 -2 -280 -70 -600 -151
-320 -80 -586 -147 -592 -148 -5 -1 -74 -18 -152 -36 -155 -38 -144 -30 -158
-110 -4 -25 -49 -296 -59 -360 -3 -19 -7 -44 -10 -55 -2 -11 -9 -55 -16 -98
-6 -43 -14 -91 -17 -105 -3 -15 -6 -36 -8 -47 -2 -11 -6 -38 -9 -60 -4 -22 -9
-56 -12 -75 -4 -19 -8 -44 -9 -55 -2 -16 -47 -290 -71 -430 -3 -16 -7 -43 -10
-60 -2 -16 -9 -55 -14 -85 -14 -82 -19 -111 -25 -155 -4 -22 -15 -91 -26 -154
-11 -62 -18 -115 -17 -117 2 -1 33 25 69 59 61 57 266 250 363 340 22 22 70
67 106 100 36 34 135 127 220 207 85 80 188 177 230 216 41 40 91 86 110 104
19 18 95 89 168 158 74 69 143 134 155 145 12 10 89 82 171 160 185 175 272
257 311 293 30 27 267 250 354 332 25 24 93 88 151 142 218 203 275 260 260
259 -8 -1 -202 -48 -430 -106z"/>
<path d="M6532 5953 c-6 -15 -30 -62 -52 -103 -40 -72 -106 -195 -178 -330
-19 -36 -54 -103 -79 -150 -25 -47 -62 -116 -83 -155 -176 -329 -266 -496
-315 -590 -32 -60 -74 -139 -93 -175 -19 -36 -53 -99 -75 -140 -22 -41 -56
-106 -77 -145 -21 -38 -61 -115 -90 -170 -29 -55 -67 -125 -83 -155 -16 -30
-54 -102 -85 -160 -30 -58 -58 -109 -62 -115 -16 -23 -142 -267 -138 -269 28
-24 183 -160 193 -169 6 -7 36 -32 65 -57 29 -25 60 -52 69 -60 9 -9 50 -45
91 -80 41 -36 77 -67 80 -70 3 -3 41 -36 85 -75 44 -38 85 -74 91 -80 6 -5 39
-35 74 -65 35 -30 74 -64 86 -75 24 -22 25 -23 194 -170 63 -55 117 -102 120
-105 3 -3 41 -36 85 -75 44 -38 85 -74 91 -80 6 -5 37 -32 69 -60 32 -27 63
-55 69 -61 6 -5 67 -59 136 -119 69 -60 127 -112 130 -115 3 -3 34 -30 70 -60
36 -30 69 -59 73 -65 4 -5 6 13 3 40 -9 82 -17 158 -21 195 -2 19 -7 66 -10
103 -4 37 -8 76 -10 85 -1 9 -6 53 -10 97 -4 44 -8 94 -10 110 -2 17 -6 59
-10 95 -4 36 -8 81 -10 100 -2 19 -9 82 -15 140 -6 58 -13 123 -15 145 -2 22
-7 67 -10 100 -6 63 -12 122 -20 190 -5 41 -11 101 -20 215 -3 36 -8 72 -10
80 -2 8 -7 51 -10 95 -3 44 -8 91 -10 105 -2 14 -7 54 -10 90 -3 36 -8 81 -10
100 -2 19 -7 64 -10 100 -3 36 -8 81 -10 100 -2 19 -9 82 -15 140 -6 58 -13
123 -15 145 -5 46 -13 129 -20 200 -3 28 -7 68 -10 90 -2 22 -7 74 -11 115 -3
41 -8 84 -10 95 -2 10 -6 51 -10 90 -3 38 -7 77 -9 85 -2 8 -7 56 -11 105 -3
50 -8 98 -9 107 -2 9 -6 48 -10 85 -3 37 -8 82 -10 98 -2 17 -6 64 -10 105 -3
41 -8 86 -10 100 -3 14 -9 75 -15 135 -6 61 -12 126 -15 145 -2 19 -7 69 -10
110 -8 85 -18 104 -33 63z"/>
<path d="M6154 5952 c-29 -24 -72 -57 -183 -139 -211 -157 -977 -733 -991
-746 -8 -7 -130 -98 -270 -202 -140 -105 -257 -192 -260 -195 -3 -3 -112 -85
-242 -183 l-237 -179 37 -31 c20 -18 42 -37 47 -43 6 -5 64 -57 130 -115 66
-57 122 -106 125 -109 3 -3 36 -32 75 -65 38 -33 76 -67 85 -75 26 -24 171
-153 230 -205 30 -26 71 -62 90 -79 19 -17 47 -41 62 -54 l26 -22 40 72 c22
40 63 118 92 173 29 55 71 134 93 175 22 41 60 113 85 160 25 47 59 112 77
145 18 33 61 114 95 180 34 66 77 147 95 180 42 77 186 348 260 490 32 61 72
137 90 170 18 33 54 101 80 150 26 50 67 126 90 170 23 44 69 130 100 190 32
61 69 130 82 154 27 50 27 56 -3 33z"/>
<path d="M1610 5872 c-19 -9 -91 -43 -160 -75 -69 -33 -163 -77 -210 -99 -116
-55 -261 -124 -345 -163 -38 -18 -191 -90 -340 -160 -148 -70 -305 -144 -348
-164 l-78 -36 338 -337 c186 -185 458 -456 605 -601 263 -259 268 -263 273
-233 6 39 54 331 61 371 2 17 9 55 14 85 5 30 12 71 15 90 3 19 7 46 10 60 3
14 7 41 10 60 3 19 10 60 15 90 10 60 18 109 26 155 2 17 6 41 9 55 3 14 7 41
10 60 3 19 10 60 15 90 13 76 13 76 70 425 28 171 53 318 56 328 6 21 -1 21
-46 -1z"/>
<path d="M0 3695 c0 -976 2 -1164 13 -1153 17 16 248 233 302 284 22 20 103
96 180 169 77 73 156 147 175 165 92 85 283 264 365 341 49 48 110 104 134
126 l44 40 -194 192 c-107 106 -374 371 -594 590 -220 218 -406 401 -412 405
-10 6 -13 -229 -13 -1159z"/>
<path d="M3673 4087 c-15 -13 -507 -383 -1093 -822 l-1065 -799 155 -28 c85
-15 169 -30 186 -32 17 -3 37 -7 45 -10 8 -3 32 -7 54 -10 22 -3 65 -10 95
-16 30 -6 69 -13 85 -16 17 -2 127 -22 245 -44 118 -22 226 -41 240 -44 14 -2
52 -9 85 -15 83 -15 98 -18 195 -35 47 -8 121 -22 165 -30 88 -17 91 -17 250
-46 61 -10 200 -35 310 -55 110 -20 209 -38 220 -39 11 -2 63 -12 115 -22 52
-10 101 -18 109 -19 13 0 41 48 206 360 34 66 76 145 92 175 17 30 56 105 88
165 32 61 72 137 90 170 18 33 60 114 95 180 35 66 69 129 77 140 7 11 13 26
12 35 0 8 -39 48 -87 88 -48 40 -103 86 -122 103 -19 17 -62 54 -94 82 -33 29
-64 57 -70 62 -6 6 -72 62 -146 125 -74 63 -137 117 -140 120 -3 3 -52 46
-110 95 -58 49 -118 102 -135 117 -115 102 -109 100 -152 65z"/>
<path d="M4920 2907 c-30 -56 -75 -140 -100 -187 -74 -138 -143 -266 -220
-410 -155 -289 -190 -357 -190 -367 0 -5 33 -15 73 -21 39 -6 83 -14 97 -16
14 -3 57 -10 95 -17 80 -13 79 -13 200 -34 50 -9 115 -20 145 -25 30 -6 66
-12 80 -15 14 -3 79 -14 145 -26 66 -11 131 -22 145 -25 14 -2 75 -13 135 -23
61 -11 121 -22 135 -25 14 -3 41 -8 60 -11 19 -2 47 -7 63 -10 54 -10 84 -15
252 -45 94 -16 224 -38 290 -50 66 -12 134 -23 150 -26 17 -2 41 -7 55 -9 27
-6 56 -11 108 -21 17 -3 32 -4 32 -1 0 2 -57 53 -127 113 -70 60 -135 116
-143 124 -9 8 -45 40 -80 70 -36 30 -67 57 -70 60 -3 3 -34 30 -70 60 -36 30
-67 57 -70 60 -3 3 -36 32 -75 65 -38 33 -75 65 -81 70 -6 6 -37 33 -69 60
-32 28 -63 55 -69 60 -7 6 -41 35 -76 65 -36 30 -67 57 -70 60 -3 4 -55 49
-116 101 -149 127 -398 342 -404 349 -5 5 -129 111 -160 137 -14 11 -23 -1
-70 -90z"/>
<path d="M164 1823 c18 -43 103 -238 189 -433 85 -195 161 -371 169 -390 9
-19 25 -57 37 -85 40 -90 53 -119 101 -230 45 -104 61 -140 116 -263 13 -29
24 -57 24 -62 0 -26 27 -15 102 39 157 113 183 132 254 184 40 29 82 59 94 67
110 77 769 555 783 569 17 16 14 18 -45 38 -35 12 -142 49 -238 83 -96 34
-245 85 -330 115 -85 29 -247 85 -360 125 -113 39 -340 119 -505 176 -165 58
-324 114 -353 124 -30 11 -58 20 -63 20 -4 0 7 -35 25 -77z"/>
<path d="M2364 1062 c-41 -29 -195 -139 -284 -202 -8 -6 -145 -103 -305 -217
-159 -113 -342 -243 -405 -287 -63 -45 -117 -85 -120 -91 -3 -7 589 -10 1767
-10 974 0 1769 3 1767 7 -3 5 -10 8 -16 8 -7 0 -48 13 -92 29 -162 58 -365
131 -536 191 -96 34 -184 66 -195 71 -50 21 -1510 539 -1520 538 -5 0 -33 -17
-61 -37z"/>
</g>
</svg>
