<svg width="106" height="14" viewBox="0 0 106 14" fill="currentColor" xmlns="http://www.w3.org/2000/svg">
    <path fill-rule="evenodd" clip-rule="evenodd" d="M28.4816 14C30.0758 14 31.4586 13.6254 32.6301 12.8763V11.4947C32.0987 11.9123 31.4828 12.2316 30.7823 12.4526C30.0818 12.6737 29.315 12.7842 28.4816 12.7842C27.2981 12.7842 26.2535 12.5447 25.3477 12.0658C24.4419 11.5868 23.7384 10.9083 23.2372 10.0303C22.7361 9.15219 22.4855 8.14211 22.4855 7C22.4855 5.85789 22.7361 4.84781 23.2372 3.96974C23.7384 3.09167 24.4419 2.41316 25.3477 1.93421C26.2535 1.45526 27.2981 1.21579 28.4816 1.21579C30.1724 1.21579 31.5552 1.64561 32.6301 2.50526V1.12368C31.4586 0.374561 30.0758 0 28.4816 0C26.9962 0 25.6889 0.291667 24.5597 0.875C23.4305 1.45833 22.5549 2.27807 21.9329 3.33421C21.311 4.39035 21 5.61228 21 7C21 8.38772 21.311 9.60965 21.9329 10.6658C22.5549 11.7219 23.4305 12.5417 24.5597 13.125C25.6889 13.7083 26.9962 14 28.4816 14ZM42.7231 14C44.1965 14 45.4978 13.7083 46.627 13.125C47.7562 12.5417 48.6318 11.7219 49.2537 10.6658C49.8757 9.60965 50.1867 8.38772 50.1867 7C50.1867 5.61228 49.8757 4.39035 49.2537 3.33421C48.6318 2.27807 47.7562 1.45833 46.627 0.875C45.4978 0.291667 44.1965 0 42.7231 0C41.2377 0 39.9303 0.291667 38.8011 0.875C37.6719 1.45833 36.7964 2.27807 36.1744 3.33421C35.5524 4.39035 35.2415 5.61228 35.2415 7C35.2415 8.38772 35.5524 9.60965 36.1744 10.6658C36.7964 11.7219 37.6719 12.5417 38.8011 13.125C39.9303 13.7083 41.2377 14 42.7231 14ZM42.7231 12.7842C41.5396 12.7842 40.4949 12.5447 39.5892 12.0658C38.6834 11.5868 37.9799 10.9083 37.4787 10.0303C36.9775 9.15219 36.7269 8.14211 36.7269 7C36.7269 5.85789 36.9775 4.84781 37.4787 3.96974C37.9799 3.09167 38.6834 2.41316 39.5892 1.93421C40.4949 1.45526 41.5396 1.21579 42.7231 1.21579C43.9067 1.21579 44.9483 1.45526 45.848 1.93421C46.7477 2.41316 47.4452 3.09167 47.9403 3.96974C48.4355 4.84781 48.6831 5.85789 48.6831 7C48.6831 8.14211 48.4355 9.15219 47.9403 10.0303C47.4452 10.9083 46.7477 11.5868 45.848 12.0658C44.9483 12.5447 43.9067 12.7842 42.7231 12.7842ZM59.7613 13.8158C60.6188 13.8158 61.3736 13.6592 62.0257 13.3461C62.6779 13.0329 63.1821 12.5877 63.5384 12.0105C63.8946 11.4333 64.0728 10.7702 64.0728 10.0211C64.0728 9.18596 63.8222 8.46754 63.321 7.86579C62.8198 7.26404 62.1344 6.85877 61.2649 6.65C61.9412 6.36754 62.4635 5.96842 62.8319 5.45263C63.2002 4.93684 63.3844 4.33509 63.3844 3.64737C63.3844 2.95965 63.2183 2.35482 62.8862 1.83289C62.5541 1.31096 62.0861 0.905702 61.4823 0.617105C60.8784 0.328509 60.178 0.184211 59.3809 0.184211H53.3847V13.8158H59.7613ZM59.1454 6.20789H54.7977V1.4H59.0548C59.9123 1.4 60.6007 1.62105 61.12 2.06316C61.6393 2.50526 61.8989 3.08246 61.8989 3.79474C61.8989 4.5193 61.6453 5.10263 61.1381 5.54474C60.6309 5.98684 59.9666 6.20789 59.1454 6.20789ZM59.6526 12.6H54.7977V7.42368H59.6526C60.5342 7.42368 61.2438 7.66009 61.7812 8.13289C62.3186 8.6057 62.5873 9.22895 62.5873 10.0026C62.5873 10.7886 62.3186 11.418 61.7812 11.8908C61.2438 12.3636 60.5342 12.6 59.6526 12.6ZM67.6513 13.8158L69.3541 10.2974H77.4336L79.1364 13.8158H80.6762L74.0822 0.184211H72.7236L66.1115 13.8158H67.6513ZM76.5752 9.08158H69.6732L73.1333 1.95263L76.5752 9.08158ZM92.2185 13.8158V12.6H85.081V0.184211H83.668V13.8158H92.2185ZM98.5895 13.8158V1.4H103.444V0.184211H92.2854V1.4H97.1403V13.8158H98.5895Z"/>
    <path fill-rule="evenodd" clip-rule="evenodd" d="M12.5968 1.0989L2.10478 9.01458C1.88154 9.17482 1.97722 9.52734 2.23234 9.55939L13.6811 11.6104L11.385 13.4371L0.287012 9.52734L9.85421 0.49L12.5968 1.0989ZM7.43052 5.74576L9.47152 7.50836L8.16401 9.976L3.02961 9.04663L7.43052 5.74576ZM7.94077 5.36119L12.3736 2.02827L9.75854 6.96356L7.94077 5.36119ZM9.94988 7.95702L13.3622 10.9054L8.80182 10.1042L9.94988 7.95702ZM10.2369 7.38017L13.1071 1.99622L14 10.681L10.2369 7.38017ZM0.255121 10.1683L4.11389 11.5143L1.62642 13.3089L0.255121 10.1683ZM4.84738 11.7707L9.59909 13.4692H2.45558L4.84738 11.7707ZM3.31662 5.80985L3.95444 1.93213L8.70615 0.746378L3.31662 5.80985ZM2.67881 6.03419L0.255121 3.63064L3.31662 2.18851L2.67881 6.03419ZM2.42369 6.64309L-3.8147e-06 8.91845V4.23954L2.42369 6.64309Z"/>
</svg>
