<svg xmlns="http://www.w3.org/2000/svg" width="142" height="132" viewBox="0 0 142 132">
  <path fill="#FFF" d="M14.47979,125.140609 L120.619668,45.0635873 C122.877964,43.4425949 121.910123,39.8764118 119.329214,39.5522133 L3.5109272,18.8035112 L26.7391074,0.32419847 L139.008644,39.8764118 L42.2245608,131.30038 L14.47979,125.140609 Z M66.7431955,78.1318312 L46.0959242,60.3009154 L59.3230823,35.3376332 L111.263874,44.7393888 L66.7431955,78.1318312 Z M61.5813776,82.0222128 L16.7380853,115.738854 L43.1924017,65.8122893 L61.5813776,82.0222128 Z M41.25672,55.7621368 L6.7370633,25.9358776 L52.8708101,34.0408393 L41.25672,55.7621368 Z M38.3531975,61.5977092 L9.3179722,116.063052 L0.284791,28.2052669 L38.3531975,61.5977092 Z M139.331258,33.3924424 L100.295011,19.7761067 L125.458873,1.62099235 L139.331258,33.3924424 Z M92.8748985,17.1825189 L44.8054697,2.84217094e-14 L117.070919,2.84217094e-14 L92.8748985,17.1825189 Z M108.360351,77.4834343 L101.908079,116.711449 L53.8386509,128.706792 L108.360351,77.4834343 Z M114.812623,75.214045 L139.331258,99.5289302 L108.360351,114.117861 L114.812623,75.214045 Z M117.393532,69.054274 L141.912167,46.0361827 L141.912167,93.3691593 L117.393532,69.054274 Z" transform="rotate(-180 71.098 65.65)"/>
</svg>
