<?xml version="1.0" encoding="UTF-8"?>
<svg width="126px" height="21px" viewBox="0 0 126 21" version="1.1" xmlns="http://www.w3.org/2000/svg" xmlns:xlink="http://www.w3.org/1999/xlink">
    <!-- Generator: Sketch 64 (93537) - https://sketch.com -->
    <title>logo / text</title>
    <desc>Created with Sketch.</desc>
    <g id="Cobalt-Custom" stroke="none" stroke-width="1" fill="none" fill-rule="evenodd">
        <g id="cobalt-/-header-/-logo" transform="translate(-122.000000, -17.000000)" fill="#333333">
            <g id="logo-/-text" transform="translate(122.954677, 17.000000)">
                <g id="Group">
                    <path d="M11.2749,20.748 C13.6773,20.748 15.7612,20.1929 17.5266,19.0827 L17.5266,19.0827 L17.5266,17.0352 C16.7258,17.654 15.7976,18.1272 14.742,18.4548 C13.6864,18.7824 12.5307,18.9462 11.2749,18.9462 C9.4913,18.9462 7.917,18.5913 6.552,17.8815 C5.187,17.1717 4.12685,16.16615 3.37155,14.86485 C2.61625,13.56355 2.2386,12.0666 2.2386,10.374 C2.2386,8.6814 2.61625,7.18445 3.37155,5.88315 C4.12685,4.58185 5.187,3.5763 6.552,2.8665 C7.917,2.1567 9.4913,1.8018 11.2749,1.8018 C13.8229,1.8018 15.9068,2.4388 17.5266,3.7128 L17.5266,3.7128 L17.5266,1.6653 C15.7612,0.5551 13.6773,0 11.2749,0 C9.0363,0 7.06615,0.43225 5.36445,1.29675 C3.66275,2.16125 2.34325,3.3761 1.40595,4.9413 C0.46865,6.5065 0,8.3174 0,10.374 C0,12.4306 0.46865,14.2415 1.40595,15.8067 C2.34325,17.3719 3.66275,18.58675 5.36445,19.45125 C7.06615,20.31575 9.0363,20.748 11.2749,20.748 Z M32.7369,20.748 C34.9573,20.748 36.91835,20.31575 38.62005,19.45125 C40.32175,18.58675 41.64125,17.3719 42.57855,15.8067 C43.51585,14.2415 43.9845,12.4306 43.9845,10.374 C43.9845,8.3174 43.51585,6.5065 42.57855,4.9413 C41.64125,3.3761 40.32175,2.16125 38.62005,1.29675 C36.91835,0.43225 34.9573,0 32.7369,0 C30.4983,0 28.52815,0.43225 26.82645,1.29675 C25.12475,2.16125 23.80525,3.3761 22.86795,4.9413 C21.93065,6.5065 21.462,8.3174 21.462,10.374 C21.462,12.4306 21.93065,14.2415 22.86795,15.8067 C23.80525,17.3719 25.12475,18.58675 26.82645,19.45125 C28.52815,20.31575 30.4983,20.748 32.7369,20.748 Z M32.7369,18.9462 C30.9533,18.9462 29.379,18.5913 28.014,17.8815 C26.649,17.1717 25.58885,16.16615 24.83355,14.86485 C24.07825,13.56355 23.7006,12.0666 23.7006,10.374 C23.7006,8.6814 24.07825,7.18445 24.83355,5.88315 C25.58885,4.58185 26.649,3.5763 28.014,2.8665 C29.379,2.1567 30.9533,1.8018 32.7369,1.8018 C34.5205,1.8018 36.09025,2.1567 37.44615,2.8665 C38.80205,3.5763 39.8531,4.58185 40.5993,5.88315 C41.3455,7.18445 41.7186,8.6814 41.7186,10.374 C41.7186,12.0666 41.3455,13.56355 40.5993,14.86485 C39.8531,16.16615 38.80205,17.1717 37.44615,17.8815 C36.09025,18.5913 34.5205,18.9462 32.7369,18.9462 Z M58.4136,20.475 C59.7058,20.475 60.8433,20.24295 61.8261,19.77885 C62.8089,19.31475 63.56875,18.655 64.10565,17.7996 C64.64255,16.9442 64.911,15.9614 64.911,14.8512 C64.911,13.6136 64.53335,12.5489 63.77805,11.6571 C63.02275,10.7653 61.9899,10.1647 60.6795,9.8553 C61.6987,9.4367 62.48585,8.8452 63.04095,8.0808 C63.59605,7.3164 63.8736,6.4246 63.8736,5.4054 C63.8736,4.3862 63.62335,3.48985 63.12285,2.71635 C62.62235,1.94285 61.9171,1.34225 61.0071,0.91455 C60.0971,0.48685 59.0415,0.273 57.8403,0.273 L57.8403,0.273 L48.804,0.273 L48.804,20.475 L58.4136,20.475 Z M57.4854,9.2001 L50.9334,9.2001 L50.9334,2.0748 L57.3489,2.0748 C58.6411,2.0748 59.6785,2.4024 60.4611,3.0576 C61.2437,3.7128 61.635,4.5682 61.635,5.6238 C61.635,6.6976 61.2528,7.5621 60.4884,8.2173 C59.724,8.8725 58.723,9.2001 57.4854,9.2001 L57.4854,9.2001 Z M58.2498,18.6732 L50.9334,18.6732 L50.9334,11.0019 L58.2498,11.0019 C59.5784,11.0019 60.64765,11.35225 61.45755,12.05295 C62.26745,12.75365 62.6724,13.6773 62.6724,14.8239 C62.6724,15.9887 62.26745,16.92145 61.45755,17.62215 C60.64765,18.32285 59.5784,18.6732 58.2498,18.6732 L58.2498,18.6732 Z M70.3038,20.475 L72.87,15.2607 L85.0458,15.2607 L87.612,20.475 L89.9325,20.475 L79.9953,0.273 L77.9478,0.273 L67.9833,20.475 L70.3038,20.475 Z M83.7522,13.4589 L73.3509,13.4589 L78.5652,2.8938 L83.7522,13.4589 Z M107.3268,20.475 L107.3268,18.6732 L96.5706,18.6732 L96.5706,0.273 L94.4412,0.273 L94.4412,20.475 L107.3268,20.475 Z M116.928,20.475 L116.928,2.0748 L124.2444,2.0748 L124.2444,0.273 L107.4276,0.273 L107.4276,2.0748 L114.744,2.0748 L114.744,20.475 L116.928,20.475 Z" id="COBALT"></path>
                </g>
            </g>
        </g>
    </g>
</svg>