<?xml version="1.0" encoding="UTF-8"?>
<svg width="48px" height="40px" viewBox="0 0 48 40" version="1.1" xmlns="http://www.w3.org/2000/svg" xmlns:xlink="http://www.w3.org/1999/xlink">
    <!-- Generator: Sketch 64 (93537) - https://sketch.com -->
    <title>hipaa logo</title>
    <desc>Created with Sketch.</desc>
    <g id="Symbols" stroke="none" stroke-width="1" fill="none" fill-rule="evenodd">
        <g id="nav/footer" transform="translate(-307.000000, 0.000000)" fill="#2F529F">
            <path d="M327.357923,1.0658141e-14 C327.363694,0.111696709 327.373258,0.213889044 327.373505,0.316081379 C327.374989,0.911770084 327.397333,1.50859606 327.367239,2.10282256 C327.341021,2.62263873 327.496107,3.09655772 327.653171,3.57364483 C327.825819,4.09801011 328.018254,4.61603913 328.197827,5.1382111 C328.276318,5.36664102 328.271536,5.3723274 328.485491,5.3728148 L329.660374,5.373881 L329.660374,5.373881 L331.208358,5.37354591 C331.14141,5.47728169 331.115768,5.55412902 331.061929,5.59409614 C330.717954,5.85006438 330.367794,6.09790922 330.019696,6.34843479 C329.628889,6.62974803 329.238082,6.91106127 328.846781,7.19278068 C329.186717,8.12445308 329.473308,9.05498821 329.809039,10.0462051 C328.968145,9.44710459 328.20096,8.9004812 327.394612,8.32599456 L327.394612,12.4434196 C327.717234,12.426198 328.015286,12.3292859 328.314987,12.2110092 C328.797641,12.0205968 329.226375,11.7530121 329.566723,11.3705625 C329.864527,11.0359598 330.114182,10.6721941 330.274545,10.2390546 C330.37472,9.96870791 330.480254,9.69901113 330.55825,9.42184082 C330.633773,9.15352502 330.692724,8.87676088 330.768742,8.61193814 C330.94477,7.9989466 331.10068,7.36678384 331.421983,6.81000621 C331.863331,6.04510714 332.11686,5.68800261 333.050097,5.2702163 C333.330999,5.14454735 333.627485,5.05299666 333.945984,5.04454833 C334.127619,5.03975552 334.308099,4.97289997 334.488991,4.97363107 C334.656609,4.97419971 334.821507,4.93610098 335.00108,5.02740796 C335.142314,5.09921879 335.37853,4.99077144 335.518775,5.06331338 C335.676087,5.14479105 335.874211,5.05665219 335.994174,5.21107797 C336.472789,5.23309237 336.866399,5.48166832 337.28598,5.66866892 C337.698223,5.8522577 338.072046,6.09360382 338.449413,6.33300033 C339.053103,6.71609974 339.616639,7.15395084 340.195759,7.57035617 C340.512691,7.79829869 340.838529,8.01356871 341.151009,8.24874106 C341.372878,8.41567687 341.624677,8.55483066 341.866911,8.69837108 C342.23727,8.91778404 342.627912,9.10624685 343.018884,9.28942945 C343.649864,9.5848774 344.295519,9.84539475 344.946864,10.0965702 C345.505701,10.3120027 346.070722,10.4991657 346.643328,10.6687823 C346.925137,10.752372 347.214944,10.8106168 347.494198,10.9012739 C347.80066,11.0007855 348.120066,11.0428647 348.431392,11.1177624 C348.642626,11.1685337 348.869442,11.1932288 349.09024,11.2201985 C349.407172,11.2588658 349.726249,11.2877851 350.04516,11.3014324 C350.360609,11.3149985 350.677129,11.3041132 350.993155,11.3054941 C351.003296,11.3054941 351.013355,11.3217409 351.023414,11.330433 C350.800885,11.4959066 350.613067,11.6994789 350.371822,11.8478121 C350.012016,12.0690935 349.560115,12.2250627 349.147789,12.3722586 C348.608822,12.5647019 348.06194,12.552923 347.52289,12.5087317 C347.038422,12.4689271 346.555355,12.3566617 346.07773,12.2342421 C345.421851,12.0662503 344.793674,11.8195427 344.146617,11.6280742 C343.976443,11.5776279 343.804372,11.5251508 343.644834,11.4496844 C342.8652,11.0807197 342.079381,10.7223967 341.316566,10.321832 C340.907126,10.1068869 340.520689,9.84685696 340.146454,9.56562495 C339.612929,9.16481654 339.021112,8.8404493 338.473736,8.45645632 C338.010539,8.13160167 337.511642,7.87002829 337.013157,7.61113562 C336.61056,7.40212062 336.176716,7.24818224 335.748807,7.09107574 C335.510942,7.00374923 334.673759,6.9326695 334.470935,7.00521144 C333.967009,7.18538838 333.431752,7.31406299 333.037812,7.7138966 C332.942089,7.81105242 332.84851,7.91097021 332.745696,8.00040881 C332.302864,8.38570153 332.114469,8.93053777 331.826641,9.41306755 C331.826476,9.64312216 331.654406,9.80299061 331.578718,10.0023388 C331.439957,10.3679729 331.26599,10.7195535 331.052448,11.0458704 C330.589251,11.7535807 330.030167,12.3394401 329.173772,12.6196161 C328.803908,12.7405735 328.445091,12.9099463 328.069042,13.0308224 C327.980905,13.0591731 327.897549,13.079969 327.80735,13.0932913 C327.66793,13.1137623 327.530158,13.144225 327.385048,13.1716821 L327.385048,13.8211477 C327.642865,13.8126994 327.89557,13.7967775 328.160478,13.75876 C328.548976,13.7030335 328.928487,13.6235055 329.289365,13.4907692 C329.769134,13.314329 330.25418,13.1327711 330.633526,12.7656747 C331.295919,12.1247387 331.297568,12.1264446 331.826641,11.0659352 C332.107296,10.5034711 332.351262,9.91939889 332.677429,9.38398579 C333.082829,8.71835464 333.242944,8.41315861 333.935431,8.12883972 C334.071141,8.07311321 334.423857,7.97417024 334.529556,7.97368283 C334.763133,7.97262679 335.00009,7.94906894 335.229463,7.97969415 C335.495277,8.01519339 335.758206,8.08732916 336.015941,8.16433896 C336.426288,8.28708349 336.771088,8.53752782 337.121412,8.7679886 C337.732522,9.17001552 338.34998,9.56042598 338.984505,9.92622255 C339.469798,10.2059923 339.9682,10.4611482 340.480289,10.683973 C341.493666,11.1248298 342.462685,11.6532568 343.464189,12.116859 C344.24671,12.4790813 345.043246,12.8075102 345.866084,13.0706271 C346.012513,13.1174991 346.169083,13.1327711 346.316913,13.1759875 C346.385593,13.1961336 346.444461,13.2486107 346.509431,13.2873593 C346.266702,13.4512895 345.991571,13.4031177 345.741009,13.4633933 C345.495889,13.5224504 345.227766,13.5017358 344.970526,13.4938561 C344.802579,13.4886571 344.636362,13.441054 344.468497,13.4174961 C344.300631,13.393857 344.136805,13.4300062 343.960365,13.3493408 C343.807093,13.2791547 343.603445,13.2946704 343.422058,13.266076 C342.694531,13.1513736 341.991079,12.9629921 341.299004,12.7201025 C341.097417,12.6494289 340.884288,12.6105179 340.648814,12.5499986 C340.664727,12.6179914 340.658048,12.7192902 340.705951,12.7750167 C341.208723,13.3591701 341.831376,13.7862984 342.561624,14.1081473 C342.485771,14.1538821 342.424346,14.2221186 342.360696,14.2240682 C342.017545,14.2347911 341.662273,14.2828816 341.33355,14.2142389 C340.99617,14.1438903 340.651865,14.0884887 340.315062,14.0039242 C339.991204,13.9225277 339.680784,13.8026264 339.358987,13.7182243 C338.893482,13.5961296 338.443395,13.415709 337.989927,13.2516164 C337.871943,13.2089685 337.765831,13.1343957 337.617094,13.054624 C337.661039,13.344548 337.846301,13.5047414 338.026534,13.618144 C338.225153,13.7431631 338.373478,13.9080681 338.537963,14.0610316 C338.752412,14.2605423 338.95672,14.4707758 339.179496,14.69027 C338.840962,14.776378 338.548682,14.6633815 338.263656,14.5907584 C337.783558,14.4683388 337.315414,14.3001844 336.843973,14.1459211 C336.760452,14.1186265 336.687155,14.0623314 336.606603,14.0244764 C336.136316,13.8032763 335.666523,13.5810201 335.193927,13.3646128 C334.945097,13.2506416 334.785724,13.2588462 334.631462,13.3747671 C334.428968,13.5269183 334.409758,13.7326027 334.559567,13.9592455 C334.727845,14.2138327 334.911211,14.4488426 335.196236,14.5875902 C335.209263,14.5939265 335.203986,14.6365743 335.210912,14.6910823 C335.031833,14.7453466 334.843768,14.7087101 334.661062,14.7150463 C334.455187,14.7220325 334.248901,14.716671 334.042779,14.716671 L333.450468,14.716671 C333.627732,14.9368151 333.806399,15.0912409 333.949365,15.284334 C334.07749,15.4573624 334.144768,15.6487496 334.207429,15.8319322 C334.352703,16.2564609 334.289795,16.6446781 334.231421,17.2247699 C334.189208,17.6440184 334.030576,18.017126 333.873264,18.3823539 C333.692949,18.8008713 333.380798,19.1566761 332.993455,19.4283225 C332.856342,19.5244223 332.705296,19.6033817 332.576759,19.7091484 C332.216706,20.0054087 331.804545,20.2193789 331.405246,20.4543888 C330.747718,20.8416311 330.047811,21.1469896 329.368021,21.491178 C329.224313,21.5640448 329.023056,21.6135976 329.026436,21.8281365 C329.029734,22.0385325 329.22489,22.0979145 329.372061,22.1624143 C329.91309,22.3993738 330.404566,22.7054634 330.825632,23.1157762 C331.15353,23.4353506 331.357508,23.837215 331.550685,24.2411916 C331.614995,24.3757963 331.633381,24.5337151 331.659847,24.6832668 C331.689034,24.8476844 331.601474,25.0311919 331.744192,25.1773319 C331.607245,25.318354 331.718551,25.5181896 331.636844,25.6607552 C331.497423,25.9038885 331.401123,26.1681426 331.180491,26.3719586 C330.742688,26.7761789 330.307277,27.1727631 329.798898,27.4982676 C329.515687,27.6796631 329.275019,27.9336817 328.991561,28.1288869 C328.910761,28.1845322 328.888912,28.3233611 328.827323,28.4501673 C329.023551,28.6154784 329.155386,28.8181572 329.39053,28.9480503 C329.586675,29.0564164 329.750418,29.2462602 329.883326,29.4314736 C329.958189,29.5356968 330.078729,29.5949976 330.128528,29.7283026 C330.171484,29.8433299 330.311894,29.9014122 330.362435,30.039185 C330.409266,30.1668848 330.544317,30.2602226 330.613161,30.3835358 C330.825302,30.7639545 331.018067,31.1537963 331.001742,31.6053759 C330.987478,31.9974111 330.835031,32.3498853 330.624457,32.6683224 C330.445461,32.938994 330.27842,33.2235566 330.021674,33.4415074 C329.914656,33.5324894 329.866094,33.705599 329.750253,33.7668494 C329.612234,33.83996 329.593106,33.9943858 329.469433,34.0593729 C329.151758,34.22639 328.950089,34.5185886 328.704474,34.7302031 C328.665229,34.9258145 328.687243,35.1043667 328.793519,35.2361282 C328.887593,35.3528615 329.037155,35.4277592 329.166847,35.5145171 C329.567135,35.7824267 329.753881,36.0628464 329.848615,36.5409083 C329.870711,36.6525237 329.913832,36.7608899 329.928343,36.8731552 C329.990097,37.3497549 329.784305,37.7560872 329.533496,38.1312257 C329.252593,38.551449 328.894601,38.9067664 328.469331,39.197909 C328.291571,39.3195162 328.123706,39.4793034 328.007453,39.6573683 C327.875453,39.8594784 327.715585,39.9215412 327.474587,39.8970085 C327.399559,39.3849096 327.552501,38.9548569 327.8757,38.5388578 C328.148028,38.1883332 328.458612,37.8586857 328.628209,37.4272521 C328.692684,37.2632407 328.696147,37.1146638 328.68312,36.9677928 C328.671825,36.8394431 328.599435,36.6909474 328.505608,36.5998841 C328.247049,36.3489524 328.027159,36.0578098 327.70363,35.8700781 C327.577236,35.7968051 327.494375,35.6507464 327.379277,35.5242651 L327.379277,39.9836852 C327.009412,39.9836852 326.660654,40.0274703 326.329046,39.9715813 C325.980782,39.9129304 325.631035,39.942662 325.291676,39.8886414 C325.081762,39.8552543 324.872342,39.8460748 324.664984,39.8149622 C324.470158,39.7858805 324.252328,39.7891298 324.086854,39.7227617 C323.860202,39.6318608 323.624729,39.6939236 323.400056,39.5902691 C323.207291,39.5012366 322.949309,39.5584253 322.742528,39.4877518 C322.449918,39.3876715 322.144198,39.3478669 321.852742,39.2522545 C321.44223,39.1175686 321.031883,38.9823953 320.621948,38.8460034 C320.116208,38.6776866 319.61022,38.5109945 319.129132,38.2785841 C318.741046,38.0913398 318.344056,37.921967 317.958196,37.7305798 C317.327134,37.4176665 316.725341,37.0544694 316.136575,36.6700703 C315.83506,36.4731591 315.526785,36.2858336 315.230547,36.0814489 C315.045202,35.9535054 314.881624,35.7953429 314.699825,35.6618755 C313.736082,34.9546525 312.918356,34.0917853 312.097167,33.2390723 C311.674618,32.8003276 311.31407,32.2972457 310.938846,31.8120352 C310.433435,31.1585891 310.008,30.4580273 309.574155,29.7635581 C309.275938,29.2861461 309.082514,28.7462651 308.817029,28.2473261 C308.679175,27.9885146 308.596314,27.7137001 308.484266,27.44839 C308.366942,27.170651 308.263963,26.8873882 308.143423,26.6128173 C308.026759,26.347101 307.945876,26.0682248 307.851143,25.7989342 C307.782133,25.6027542 307.722523,25.3894337 307.672312,25.1809874 C307.624821,24.9839138 307.538827,24.7837533 307.526542,24.5950468 C307.502797,24.2292502 307.298242,23.9003338 307.338147,23.5294195 C307.192295,23.3300714 307.335509,23.0615119 307.175064,22.8641945 C307.161625,22.847704 307.174899,22.8113112 307.173002,22.7844228 C307.145877,22.4029481 307.151978,22.0156245 307.08404,21.6413796 C306.926481,20.7733946 307.051143,19.902079 307.010414,19.0335254 C307.002993,18.8746318 306.980237,18.6964045 307.040507,18.5596065 C307.111661,18.3979509 307.074146,18.2468557 307.088657,18.0922674 C307.103251,17.9379229 307.065242,17.7774858 307.170447,17.6367073 C307.190152,17.6103875 307.167726,17.5566106 307.174239,17.5170497 C307.2012,17.3521447 307.134087,17.1882958 307.243991,17.0152674 C307.32578,16.8864304 307.195841,16.6743285 307.338147,16.5281073 C307.281752,16.1548372 307.471302,15.8194222 307.518545,15.4601243 C307.55878,15.1542784 307.656811,14.8451832 307.752452,14.5442925 C307.881814,14.137554 308.01975,13.7332526 308.164448,13.3315506 C308.283339,13.001497 308.431829,12.6811914 308.539259,12.3478884 C308.600931,12.1565012 308.748514,12.0628384 308.901539,12.0450482 C309.253842,12.0041875 309.563767,11.8478933 309.89216,11.7457822 C310.206042,11.6482203 310.515967,11.5321369 310.825067,11.4177595 C311.614265,11.1257234 312.36224,10.7517222 313.103124,10.365942 C313.628404,10.0924272 314.111059,9.74433969 314.600309,9.40746241 C315.202019,8.9932504 315.794743,8.56392886 316.437678,8.20203152 C316.893207,7.94565711 317.336286,7.66206932 317.814406,7.45029236 C318.254847,7.25533083 318.693639,7.05370812 319.188413,6.9831158 C319.411931,6.95119085 319.632811,6.9243024 319.857319,6.91788492 C320.203191,6.90813684 320.511384,7.04184796 320.828235,7.15646909 C321.172293,7.2808383 321.47892,7.46824507 321.756112,7.6892827 C322.053175,7.92624219 322.251464,8.25556471 322.430542,8.58789288 C322.63955,8.97586633 322.863563,9.35855956 323.036128,9.76221116 C323.170025,10.0756118 323.320741,10.377721 323.480279,10.6776368 C323.769097,11.2205234 324.128325,11.6913555 324.632582,12.0767294 C325.05208,12.3974412 325.536054,12.5486988 325.996283,12.7655123 C326.087553,12.808485 326.188306,12.8315555 326.282132,12.8698167 C326.449173,12.9377283 326.610938,13.0089705 326.79991,13.0153067 C326.95244,13.0204245 327.103404,13.0683525 327.279679,13.1019022 L327.279679,12.5208356 C326.943865,12.5621837 326.66758,12.4049147 326.374969,12.3099522 C325.721069,12.0979315 325.230252,11.6548814 324.805229,11.1543989 C324.494645,10.7887648 324.292728,10.344415 324.158007,9.87853821 C324.010424,9.36855134 323.805209,8.87367399 323.746341,8.34069791 C323.535025,7.9649908 323.461316,7.53859369 323.29378,7.14436523 C323.123936,6.74485656 322.897202,6.39823121 322.609456,6.08401821 C322.102726,5.53065241 321.857029,5.4108323 321.091576,5.19921781 C320.947291,5.15933193 320.811663,5.14438488 320.669026,5.12846302 C320.473705,5.10669232 320.277725,5.04397969 320.085042,5.05445887 C319.49908,5.08630259 318.926556,5.17890932 318.356671,5.34706363 C317.622713,5.5636334 316.934514,5.95282535 316.469008,6.2518476 C315.735545,6.72292339 315.04784,7.25825526 314.336226,7.75890022 C313.730888,8.18480992 313.122829,8.62038647 312.449965,8.94987146 C312.175906,9.08415121 311.917182,9.25003098 311.639989,9.37691844 C311.018161,9.66156227 310.381823,9.91371251 309.745566,10.1652941 C309.725861,10.1730113 309.695932,10.1557897 309.63896,10.1429548 C309.899333,9.71866975 310.135961,9.29032303 310.414637,8.89040819 C310.733631,8.432736 311.096158,8.00487668 311.428591,7.55597776 C312.080513,6.67548275 312.905659,5.9553436 313.676554,5.18516433 C313.863795,4.9980825 314.064475,4.81660581 314.285685,4.67233428 C314.49395,4.53634861 314.671132,4.36462 314.875523,4.22392276 C315.110501,4.06218592 315.338802,3.88298379 315.564464,3.70743718 C315.9246,3.42709874 316.309717,3.17957884 316.698381,2.95716022 C317.258949,2.63644851 317.810613,2.29201647 318.412241,2.03905389 C319.007933,1.78852833 319.588289,1.50802743 320.204593,1.29974353 C320.612219,1.16197071 321.013332,0.999502772 321.427307,0.876595775 C321.782248,0.771154081 322.13686,0.657832692 322.499305,0.585290757 C322.970664,0.490896883 323.431387,0.330703494 323.92105,0.336389871 C324.080917,0.196017571 324.302375,0.321524055 324.453668,0.234441239 C324.629119,0.133548647 324.802756,0.219006784 324.964602,0.17042887 C325.307012,0.0676678973 325.670198,0.156537861 325.999746,0.0780658456 C326.447442,-0.0285943576 326.88846,0.0557265037 327.357923,1.0658141e-14 Z M323.309693,14.3069269 C323.022771,14.3275603 322.729831,14.2849937 322.445548,14.318787 C322.233078,14.3440508 322.043611,14.4967707 321.812177,14.4728879 C321.455834,14.6706926 321.101222,14.8706906 320.83516,15.1882342 C320.733831,15.3091916 320.469913,15.9476094 320.448229,16.1268115 C320.399502,16.5288384 320.4789,17.2970681 320.612549,17.7653007 C320.76747,18.3075374 321.049032,18.7782883 321.46309,19.1622 C321.672179,19.3561055 321.919113,19.5103688 322.148898,19.6828286 C322.581011,20.007277 323.04899,20.2794108 323.521256,20.538141 C324.076548,20.842281 324.655008,21.106129 325.229098,21.3757445 C325.436621,21.473144 325.609269,21.5967009 325.723378,21.7569755 C325.735415,22.0031957 325.594758,22.109531 325.430685,22.1895464 C325.180206,22.3115598 324.88776,22.3794714 324.679495,22.5492504 C324.349948,22.8178912 324.002179,23.0636239 323.70792,23.3855542 C323.252803,23.8836809 323.096068,24.4744143 323.01263,25.0947981 C322.957472,25.5043798 323.1288,25.8850422 323.401046,26.1884511 C323.853359,26.6925891 324.368828,27.1297091 324.952235,27.4890069 C325.207496,27.6461947 325.438435,27.8432683 325.671847,28.0324622 C325.807063,28.1420468 325.900148,28.284125 325.888522,28.4933025 C325.639115,28.687208 325.449813,28.9617788 325.15712,29.1465861 C324.96386,29.2685995 324.857172,29.5157945 324.67999,29.6721699 C324.298252,30.0091284 324.086277,30.4489291 323.869519,30.8872676 C323.706106,31.217565 323.681041,31.5831178 323.780392,31.920645 C323.93622,32.4500468 324.220091,32.9250218 324.616009,33.3242055 C324.913732,33.6242026 325.217637,33.9183508 325.518822,34.2150172 C325.635405,34.3298821 325.75578,34.4412538 325.867745,34.5603428 C326.143701,34.8535975 326.106929,35.1953488 325.774413,35.4240224 C325.680257,35.4888471 325.57464,35.5372626 325.476526,35.5968883 C325.232478,35.7450591 325.097757,35.9712144 324.977794,36.2225523 C324.824769,36.5428579 324.816525,36.8733989 324.814793,37.2135255 C324.813556,37.4408182 324.882813,37.6670548 325.00022,37.8257047 C325.20931,38.108399 325.373795,38.4261863 325.65445,38.6627396 C326.065787,39.0094462 326.451482,39.3858031 326.84806,39.7496501 C326.858119,39.7588295 326.865951,39.7743452 326.877494,39.7773509 C326.949637,39.7959535 327.022521,39.8117941 327.117502,39.8337273 C327.165735,39.3187039 326.978411,38.911478 326.688027,38.5343087 C326.450987,38.2262695 326.199271,37.9261099 325.994716,37.5978435 C325.830066,37.3337518 325.818771,37.0243316 325.975918,36.7434246 C326.141805,36.4466769 326.352791,36.1899775 326.651173,35.9948535 C326.862653,35.8565121 327.05682,35.666912 327.20127,35.4610651 C327.380843,35.2050156 327.308618,34.5877999 327.104063,34.3185905 C326.960438,34.1296403 326.806259,33.9458891 326.637074,33.7792782 C326.467889,33.6125049 326.268116,33.476438 326.092913,33.3151885 C325.882256,33.1212018 325.678031,32.9197416 325.481143,32.7121888 C325.336116,32.5593064 325.166849,32.4096735 325.082257,32.2256785 C324.989337,32.0235684 324.865252,31.7973318 324.90895,31.5707703 C324.973507,31.2357614 325.106744,30.9072512 325.34634,30.6571318 C325.789089,30.1948293 326.238682,29.737807 326.784492,29.3828145 C326.94502,29.2783476 327.090377,29.1305018 327.170352,28.9358652 C327.287511,28.6508152 327.349101,28.3560171 327.264096,28.0618689 C327.181153,27.7747068 326.999848,27.5269432 326.770806,27.3330377 C326.606568,27.1941276 326.404733,27.0982715 326.218647,26.9847065 C325.686441,26.659933 325.176908,26.3068902 324.765324,25.8348396 C324.428439,25.4484096 324.247052,24.9225821 324.560934,24.4186066 C324.656162,24.2658055 324.729294,24.1034188 324.862119,23.9745005 C325.15341,23.6914813 325.490872,23.4749115 325.864035,23.3176426 C326.150956,23.1968477 326.403414,23.029262 326.664941,22.8649256 C327.210092,22.5225245 327.30565,22.018224 327.286605,21.4559224 C327.282977,21.3490998 327.241175,21.2147388 327.166971,21.1444714 C326.909814,20.9010132 326.707073,20.5969544 326.339269,20.4724228 C326.064633,20.3794099 325.80731,20.2344072 325.546525,20.1044329 C325.035178,19.8493582 324.52276,19.5961519 324.018257,19.3283235 C323.376229,18.9873033 322.779218,18.5846265 322.292771,18.0388967 C322.15269,17.8817902 322.061255,17.701532 322.018381,17.5013715 C321.994306,17.3892686 321.989607,17.2789529 321.949619,17.164413 C321.918619,17.0756243 322.034212,16.9354144 322.020113,16.7973167 C322.014589,16.7437835 322.071478,16.6855388 322.094976,16.6275377 C322.284608,16.1580054 322.901242,15.9558952 323.271766,16.0275436 C323.366582,16.0459025 323.469561,16.0755529 323.568087,16.1026038 C323.908435,16.1959416 324.255461,16.3267283 324.457131,16.6140529 C324.629613,16.8598669 324.818009,17.1040562 324.940363,17.3882938 C325.036992,17.6127433 325.184163,17.8147722 325.371157,17.9846324 C325.961489,18.521264 326.800405,18.3523786 327.127561,17.6867474 C327.22889,17.4805756 327.235981,17.2552326 327.150399,17.0537723 C326.991108,16.6791213 326.735435,16.4149484 326.34669,16.2521555 C326.120121,16.157193 325.930324,15.9889575 325.802693,15.7572782 C325.685616,15.5449326 325.558563,15.3178024 325.376434,15.1668697 C325.235776,15.0502177 325.106826,14.9104953 324.95207,14.8140705 C324.452514,14.502782 323.92847,14.2623294 323.309693,14.3069269 Z M327.380266,28.9060523 L327.380266,34.4736662 C327.61945,34.1379262 327.766126,33.7707486 328.138134,33.5843979 C328.501733,33.1619 329.003928,32.8861107 329.336938,32.4202339 C329.653541,31.977265 329.698805,31.3968483 329.431507,30.9310527 C329.341638,30.7745149 329.21813,30.6305683 329.086377,30.5049806 C328.766311,30.2001095 328.454655,29.8792353 328.096828,29.6228609 C327.826561,29.4291179 327.580946,29.2274951 327.380266,28.9060523 Z M327.382245,22.3313809 L327.382245,27.8403439 C327.461478,27.7210924 327.503609,27.6422142 327.560252,27.5751962 C327.827056,27.2592773 328.178204,27.0457132 328.520367,26.8228072 C329.033527,26.4885294 329.547347,26.1625374 329.921747,25.659293 C330.295816,25.1564547 330.258055,24.6897656 329.881099,24.2206394 C329.548419,23.8065086 329.097425,23.5394925 328.610978,23.3277968 C328.121892,23.115045 327.702723,22.8127734 327.382245,22.3313809 Z M339.911975,21.8108362 C339.960798,21.875382 339.984063,21.9453332 339.847613,21.955508 C339.698681,21.966716 339.531919,21.9149681 339.433169,22.0880178 L339.433169,26.6900117 C339.502115,26.7495497 339.574628,26.8121878 339.671086,26.8953344 L340.103446,26.8953344 L340.103446,27.0309443 L338.137023,27.0309443 C338.168269,26.9669549 338.193742,26.8896906 338.206733,26.8915189 C338.413319,26.9204532 338.554948,26.8321398 338.668642,26.6770548 L338.668302,22.3942927 L338.668302,22.3942927 C338.668133,22.0613091 338.61379,22.0100381 338.248339,21.9527258 C338.209196,21.9466051 338.180496,21.8818207 338.117239,21.8108362 L339.911975,21.8108362 Z M333.916217,21.8108362 C333.9682,21.9080208 333.969809,21.9586729 333.8446,21.9719899 C333.552417,22.0029044 333.467201,22.089782 333.465994,22.346055 C333.463419,22.8726314 333.465189,23.3990493 333.465189,23.9383878 L336.442697,23.9383878 L336.442697,23.2922755 C336.442697,23.0149172 336.437627,22.7374004 336.444467,22.4602007 C336.449215,22.2713054 336.409543,22.1062697 336.216096,21.9572461 C336.145525,21.8975574 335.932202,22.0908917 335.864367,21.8289907 L337.592194,21.8289907 C337.550189,21.8893135 337.527819,21.9572461 337.493137,21.9641424 C337.393838,21.9838801 337.271043,21.9332279 337.208036,22.0507029 C337.150098,22.1588243 337.083309,22.2610006 337.083792,22.3971828 C337.088298,23.7047854 337.083389,25.0123881 337.090793,26.3199908 C337.091597,26.46624 337.151868,26.6121722 337.188884,26.7779213 C337.308943,26.8579818 337.463122,26.9000731 337.637015,26.8899268 C337.671053,26.8879451 337.709115,26.9535789 337.786204,27.0270602 L335.92842,27.0270602 C335.979759,26.9617435 336.005107,26.8954755 336.041157,26.8891341 C336.305256,26.8428417 336.276689,26.8360246 336.371804,26.5808614 C336.443421,26.3891124 336.440524,26.2056073 336.44149,26.01584 C336.444789,25.4380566 336.442697,24.8602731 336.442697,24.2756726 L333.465189,24.2756726 C333.465189,25.0039857 333.457625,25.7270672 333.468971,26.4497523 C333.473478,26.7365435 333.643991,26.8734391 333.946151,26.8844573 C333.986305,26.8859634 334.026701,26.8829512 334.066694,26.8859634 C334.076994,26.8866768 334.086087,26.9024511 334.101376,26.9164022 L334.101376,27.0309443 L332.367434,27.0309443 C332.321405,26.9638837 332.301127,26.898567 332.430199,26.8850914 C332.456673,26.8823171 332.484194,26.8877865 332.510507,26.8841402 C332.694057,26.8587745 332.722703,26.8165247 332.74266,26.6459403 C332.902632,25.2722282 332.788044,23.89376 332.817415,22.5178284 C332.820312,22.3841828 332.79585,22.2337324 332.731153,22.1203794 C332.687378,22.0434895 332.55388,22.0105934 332.454984,21.9716729 C332.364456,21.9359231 332.266526,21.9184841 332.158617,21.8893928 C332.188632,21.8457162 332.19346,21.8344602 332.20199,21.8274846 C332.211163,21.8199542 332.223797,21.8115518 332.234982,21.8115518 C332.796413,21.8107591 333.358005,21.8108362 333.916217,21.8108362 Z M351.811163,21.4845794 C352.062864,21.6927918 352.117674,21.9573266 352.221992,22.1826164 C352.273131,22.2930445 352.323292,22.4132428 352.370924,22.5303212 C352.594568,23.0798344 352.852631,23.6143228 353.057107,24.1730315 C353.156124,24.4434778 353.308563,24.6945477 353.414757,24.9673749 C353.570296,25.3671329 353.763191,25.7523586 353.949071,26.1394728 C354.025984,26.2997372 354.10094,26.4736306 354.221815,26.5965384 C354.362102,26.739397 354.54945,26.840137 354.759147,26.8651783 C354.836957,26.8744559 354.916725,26.8666562 355,26.8666562 L355,27.0155904 L353.290864,27.0155904 C353.32251,26.9019603 353.389636,26.7953089 353.367696,26.7126315 C353.319493,26.531513 353.220721,26.3646804 353.152209,26.1882417 C353.015266,25.835036 352.824492,25.5043264 352.721887,25.1364244 C352.689914,25.0217269 352.609738,24.9740253 352.482583,24.975421 C351.925595,24.9815787 351.368525,24.9780483 350.800771,24.9780483 C350.727936,25.1887238 350.672963,25.4122893 350.57517,25.6149188 C350.430968,25.9134441 350.322001,26.2215754 350.232608,26.539477 C350.167196,26.7724844 350.215317,26.8510567 350.455681,26.8659993 C350.521746,26.8701045 350.588383,26.8666562 350.651757,26.8666562 C350.703385,26.9653436 350.709013,27.0311899 350.579982,27.0309443 L348.241839,27.0308615 C348.267041,26.8933395 348.318099,26.7695287 348.302847,26.6544207 C348.287024,26.5343866 348.202362,26.4249438 348.156688,26.3073727 C348.0195,25.9542491 347.836638,25.6203375 347.730688,25.2535028 C347.703202,25.1584279 347.624658,25.0782136 347.567075,24.9870796 L345.750522,24.9870796 C345.63038,25.2983308 345.521087,25.6085968 345.390914,25.9097495 C345.284638,26.1555649 345.247038,26.4215776 345.143373,26.6682961 C345.100716,26.7700213 345.202424,26.8454737 345.296139,26.8624689 C345.398825,26.8810241 345.507222,26.8666562 345.619206,26.8666562 L345.619206,27.016822 L343.769865,27.016822 C343.764972,26.987265 343.757142,26.9405486 343.744826,26.8666562 C343.859828,26.8666562 343.951912,26.8704329 344.043506,26.8659172 C344.281423,26.8541766 344.464938,26.7536829 344.566809,26.52749 C344.784499,26.0438231 345.033835,25.571158 345.206012,25.0715632 C345.293039,24.8188512 345.426557,24.5901952 345.50714,24.3334602 C345.654278,23.8652286 345.872457,23.4195753 346.057603,22.9637412 C346.223011,22.5565119 346.390948,22.1446849 346.590857,21.7500995 C346.630578,21.6716093 346.672908,21.5944328 346.728371,21.4895056 C346.812706,21.5568298 346.909276,21.5941865 346.925262,21.6535467 C347.001604,21.9380325 347.209261,22.1585603 347.269617,22.4569214 C347.315945,22.6856595 347.466264,22.8922298 347.564791,23.1111976 C347.8545,23.7561963 348.162642,24.3942162 348.420623,25.0519407 C348.550062,25.3819114 348.753723,25.675921 348.838384,26.0278131 C348.916195,26.351544 349.189347,26.5471946 349.410951,26.7751117 C349.626928,26.6501514 349.706614,26.4191145 349.777899,26.2113126 C349.880994,25.910981 350.016469,25.6248532 350.139464,25.3357697 C350.26295,25.0455367 350.369307,24.7476682 350.500785,24.4603088 C350.631774,24.1735242 350.762844,23.8858364 350.849545,23.5797576 C350.908107,23.3731052 351.034202,23.196256 351.104671,22.9877152 C351.253767,22.5469059 351.471212,22.1292496 351.664677,21.7039578 C351.695263,21.6367157 351.747055,21.5792438 351.811163,21.4845794 Z M340.775273,21.814056 C341.402106,21.814056 342.029024,21.8108362 342.655857,21.8152444 C343.07096,21.818255 343.42613,21.9649005 343.723121,22.2411581 C344.063579,22.5576621 344.127274,22.9601252 344.041512,23.367421 C343.995789,23.5841806 343.919305,23.8060107 343.743768,24.0052616 C343.429139,24.3626457 343.042874,24.6263065 342.567922,24.6682166 C342.504645,24.6737623 342.443291,24.7002235 342.381435,24.718366 C342.210997,24.7685947 342.108433,24.7279522 341.95488,24.5292559 C342.062961,24.5212542 342.152317,24.5114303 342.241925,24.5086574 C342.763436,24.492337 343.161236,24.3035438 343.343544,23.8079121 C343.351819,23.7854122 343.396539,23.7673489 343.3947,23.7501571 C343.356751,23.4118662 343.476952,23.0683465 343.25402,22.7348092 C342.954688,22.2871086 342.569426,22.0388967 342.007123,22.052048 C341.775415,22.0575145 341.726515,22.1028312 341.726181,22.3297317 C341.724425,23.4124208 341.725429,24.4951099 341.725429,25.5778782 C341.725429,25.8287046 341.71615,26.0800856 341.729106,26.3302782 C341.736128,26.4655946 341.758195,26.6093088 341.817627,26.7295723 C341.852985,26.8010333 341.96792,26.85657 342.05828,26.8793076 C342.15959,26.9048181 342.273521,26.8851703 342.386617,26.8851703 L342.386617,27.0309443 L340.584857,27.0309443 C340.537128,26.9651083 340.515896,26.9024413 340.649471,26.8846949 C340.911355,26.8499944 340.878421,26.8371599 340.984496,26.5716769 C341.056466,26.3913607 341.054627,26.2221361 341.055045,26.0458604 C341.058054,24.8970977 341.056633,23.7483349 341.056633,22.5996513 C341.056633,22.5204263 341.060896,22.4409636 341.055881,22.3619763 C341.038494,22.0863524 340.925231,21.9826469 340.634592,21.972823 C340.583436,21.97108 340.532029,21.9725853 340.43448,21.9725853 C340.480454,21.8916173 340.496587,21.8250683 340.525592,21.8194433 C340.605921,21.8039945 340.691684,21.814056 340.775273,21.814056 Z M346.647869,22.6347558 C346.401062,23.3288518 346.086558,23.947906 345.940888,24.6571089 C346.463212,24.6319855 346.943858,24.6751715 347.449054,24.6295224 C347.178431,23.95587 346.921347,23.3154691 346.647869,22.6347558 Z M351.688657,22.6187458 C351.425048,23.3352558 351.187212,23.9814039 350.947093,24.6336276 L352.490168,24.6336276 C352.226722,23.9713053 351.971433,23.3295907 351.688657,22.6187458 Z M331.47945,16.0969986 C331.326919,16.1281925 331.161445,16.1258367 331.021777,16.1845689 C330.750603,16.2986214 330.44307,16.3761998 330.264321,16.6294061 C330.089365,16.8774134 329.939556,17.144267 329.796507,17.4120954 C329.678688,17.6326456 329.527147,17.8213521 329.359859,18.0066468 C329.058674,18.3402747 328.428848,18.4968126 327.920965,18.2333708 C327.657376,18.0965728 327.531642,17.8839023 327.390078,17.5807371 L327.390078,21.1408971 C327.602548,20.8568219 327.808999,20.6111704 328.140443,20.4789215 C328.551944,20.3147476 328.944647,20.1049203 329.346255,19.9165387 C329.912348,19.6510661 330.457581,19.3504192 330.992837,19.0277578 C331.3505,18.8122441 331.67477,18.5552198 332.005472,18.3076187 C332.256281,18.119887 332.449623,17.8590447 332.527784,17.5515741 C332.575934,17.3622177 332.584674,17.1535277 332.56266,16.9588098 C332.525641,16.6299747 332.399907,16.3272969 332.052468,16.206502 C331.871988,16.1438706 331.686561,16.0545945 331.47945,16.0969986 Z M329.736484,14.7236571 L327.387851,14.7236571 L327.387851,17.0608397 C327.573361,16.6240446 327.847256,16.3770121 328.20566,16.2107262 C328.491509,16.0780711 328.68345,15.8440361 328.85989,15.5939979 C328.972268,15.4347793 329.090664,15.2779165 329.222499,15.1342949 C329.355489,14.9893735 329.484109,14.8365724 329.736484,14.7236571 Z M327.245298,3.02539676 C326.973547,3.83318736 326.701796,4.64122167 326.425675,5.46209094 L323.55407,5.46209094 C324.32645,6.10546398 325.166107,6.57580867 325.881349,7.17937707 C325.712329,7.64484772 325.549906,8.06572092 325.407187,8.49301161 C325.261088,8.93053777 325.134282,9.37431895 324.988018,9.85148729 C325.774826,9.28837341 326.538218,8.74199373 327.291799,8.2026814 L327.291554,4.77502304 C327.291432,4.20668311 327.291249,3.63922772 327.290974,3.07178136 C327.290974,3.060896 327.280586,3.04838597 327.272011,3.0396127 C327.264838,3.03230165 327.25313,3.02937722 327.245298,3.02539676 Z" id="hipaa-logo"></path>
        </g>
    </g>
</svg>