<svg width="40" height="40" viewBox="0 0 40 40" fill="currentColor" xmlns="http://www.w3.org/2000/svg">
    <path fill-rule="evenodd" clip-rule="evenodd" d="M35.9909 3.19972L6.01367 25.816C5.37585 26.2738 5.6492 27.281 6.37813 27.3725L39.0888 33.2326L32.5285 38.4518L0.820046 27.281L28.1549 1.46001L35.9909 3.19972ZM21.2301 16.4765L27.0615 21.5125L23.3257 28.5629L8.65603 25.9075L21.2301 16.4765ZM22.6879 15.3777L35.3531 5.85507L27.8815 19.9559L22.6879 15.3777ZM28.4282 22.7944L38.1777 31.2182L25.1481 28.9291L28.4282 22.7944ZM29.2483 21.1462L37.4487 5.7635L40 30.5773L29.2483 21.1462ZM0.728928 29.1123L11.754 32.9579L4.64692 38.0855L0.728928 29.1123ZM13.8497 33.6905L27.426 38.5433H7.01594L13.8497 33.6905ZM9.47608 16.6596L11.2984 5.58037L24.8747 2.19252L9.47608 16.6596ZM7.65376 17.3005L0.728928 10.4333L9.47608 6.31289L7.65376 17.3005ZM6.92483 19.0403L0 25.5413V12.173L6.92483 19.0403Z"/>
</svg>
