<?xml version="1.0" encoding="UTF-8"?>
<svg width="219px" height="194px" viewBox="0 0 219 194" version="1.1" xmlns="http://www.w3.org/2000/svg" xmlns:xlink="http://www.w3.org/1999/xlink">
    <!-- Generator: Sketch 64 (93537) - https://sketch.com -->
    <title>logo / icon and text</title>
    <desc>Created with Sketch.</desc>
    <g id="site" stroke="none" stroke-width="1" fill="none" fill-rule="evenodd">
        <g id="sign-in" transform="translate(-78.000000, -160.000000)">
            <g id="logo-/-icon-and-text" transform="translate(78.328897, 160.000000)">
                <g id="Group">
                    <path d="M51.1508925,125.140609 L157.290771,45.0635873 C159.549067,43.4425949 158.581226,39.8764118 156.000317,39.5522133 L40.1820297,18.8035112 L63.4102099,0.32419847 L175.679747,39.8764118 L78.8956633,131.30038 L51.1508925,125.140609 Z M103.414298,78.1318312 L82.7670267,60.3009154 L95.9941848,35.3376332 L147.934977,44.7393888 L103.414298,78.1318312 Z M98.2524801,82.0222128 L53.4091878,115.738854 L79.8635042,65.8122893 L98.2524801,82.0222128 Z M77.9278225,55.7621368 L43.4081658,25.9358776 L89.5419126,34.0408393 L77.9278225,55.7621368 Z M75.0243,61.5977092 L45.9890747,116.063052 L36.9558935,28.2052669 L75.0243,61.5977092 Z M176.002361,33.3924424 L136.966114,19.7761067 L162.129976,1.62099235 L176.002361,33.3924424 Z M129.546001,17.1825189 L81.4765722,-9.9475983e-14 L153.742022,-9.9475983e-14 L129.546001,17.1825189 Z M145.031454,77.4834343 L138.579182,116.711449 L90.5097534,128.706792 L145.031454,77.4834343 Z M151.483726,75.214045 L176.002361,99.5289302 L145.031454,114.117861 L151.483726,75.214045 Z M154.064635,69.054274 L178.58327,46.0361827 L178.58327,93.3691593 L154.064635,69.054274 Z" id="Shape" fill="#FFFFFF" transform="translate(107.769582, 65.650190) rotate(-180.000000) translate(-107.769582, -65.650190) "></path>
                    <path d="M19.8020152,193.557414 C24.0213308,193.557414 27.6812674,192.582497 30.7818251,190.632662 L30.7818251,190.632662 L30.7818251,187.036654 C29.3753866,188.123447 27.7451965,188.954525 25.8912548,189.529886 C24.0373131,190.105247 22.0075665,190.392928 19.8020152,190.392928 C16.669493,190.392928 13.9045627,189.76962 11.5072243,188.523004 C9.10988593,187.276388 7.24795311,185.510349 5.92142586,183.224886 C4.59489861,180.939423 3.93163498,178.310342 3.93163498,175.337643 C3.93163498,172.364943 4.59489861,169.735862 5.92142586,167.450399 C7.24795311,165.164937 9.10988593,163.398897 11.5072243,162.152281 C13.9045627,160.905665 16.669493,160.282357 19.8020152,160.282357 C24.2770469,160.282357 27.9369835,161.401115 30.7818251,163.638631 L30.7818251,163.638631 L30.7818251,160.042624 C27.6812674,158.092788 24.0213308,157.117871 19.8020152,157.117871 C15.8703802,157.117871 12.4102218,157.877028 9.42153992,159.395342 C6.43285805,160.913657 4.11543093,163.047288 2.46925856,165.796236 C0.823086185,168.545184 -6.28951897e-14,171.725653 -6.28951897e-14,175.337643 C-6.28951897e-14,178.949632 0.823086185,182.130101 2.46925856,184.879049 C4.11543093,187.627997 6.43285805,189.761629 9.42153992,191.279943 C12.4102218,192.798257 15.8703802,193.557414 19.8020152,193.557414 Z M57.4955513,193.557414 C61.3952218,193.557414 64.839398,192.798257 67.8280798,191.279943 C70.8167617,189.761629 73.1341888,187.627997 74.7803612,184.879049 C76.4265336,182.130101 77.2496198,178.949632 77.2496198,175.337643 C77.2496198,171.725653 76.4265336,168.545184 74.7803612,165.796236 C73.1341888,163.047288 70.8167617,160.913657 67.8280798,159.395342 C64.839398,157.877028 61.3952218,157.117871 57.4955513,157.117871 C53.5639163,157.117871 50.1037579,157.877028 47.115076,159.395342 C44.1263942,160.913657 41.808967,163.047288 40.1627947,165.796236 C38.5166223,168.545184 37.6935361,171.725653 37.6935361,175.337643 C37.6935361,178.949632 38.5166223,182.130101 40.1627947,184.879049 C41.808967,187.627997 44.1263942,189.761629 47.115076,191.279943 C50.1037579,192.798257 53.5639163,193.557414 57.4955513,193.557414 Z M57.4955513,190.392928 C54.3630292,190.392928 51.5980989,189.76962 49.2007605,188.523004 C46.8034221,187.276388 44.9414892,185.510349 43.614962,183.224886 C42.2884347,180.939423 41.6251711,178.310342 41.6251711,175.337643 C41.6251711,172.364943 42.2884347,169.735862 43.614962,167.450399 C44.9414892,165.164937 46.8034221,163.398897 49.2007605,162.152281 C51.5980989,160.905665 54.3630292,160.282357 57.4955513,160.282357 C60.6280735,160.282357 63.3850127,160.905665 65.7663688,162.152281 C68.147725,163.398897 69.9936755,165.164937 71.3042205,167.450399 C72.6147655,169.735862 73.270038,172.364943 73.270038,175.337643 C73.270038,178.310342 72.6147655,180.939423 71.3042205,183.224886 C69.9936755,185.510349 68.147725,187.276388 65.7663688,188.523004 C63.3850127,189.76962 60.6280735,190.392928 57.4955513,190.392928 Z M102.591331,193.077947 C104.860811,193.077947 106.858593,192.670399 108.584677,191.855304 C110.31076,191.040209 111.645279,189.881496 112.588232,188.379163 C113.531185,186.876831 114.002662,185.150748 114.002662,183.200913 C114.002662,181.027326 113.339398,179.157402 112.012871,177.591141 C110.686343,176.02488 108.872357,174.970051 106.570913,174.426654 C108.360925,173.69147 109.74339,172.652624 110.718308,171.310114 C111.693226,169.967605 112.180684,168.401343 112.180684,166.611331 C112.180684,164.821318 111.741172,163.247066 110.862148,161.888574 C109.983124,160.530082 108.744499,159.475253 107.146274,158.724087 C105.548048,157.972921 103.694106,157.597338 101.584449,157.597338 L101.584449,157.597338 L85.7140684,157.597338 L85.7140684,193.077947 L102.591331,193.077947 Z M100.961141,173.275932 L89.4539163,173.275932 L89.4539163,160.761825 L100.721407,160.761825 C102.990887,160.761825 104.812864,161.337186 106.187338,162.487909 C107.561812,163.638631 108.249049,165.140963 108.249049,166.994905 C108.249049,168.880811 107.577795,170.399125 106.235285,171.549848 C104.892776,172.70057 103.134728,173.275932 100.961141,173.275932 L100.961141,173.275932 Z M102.30365,189.91346 L89.4539163,189.91346 L89.4539163,176.440418 L102.30365,176.440418 C104.63706,176.440418 106.514975,177.055735 107.937395,178.286369 C109.359816,179.517003 110.071027,181.139202 110.071027,183.152966 C110.071027,185.198695 109.359816,186.836876 107.937395,188.06751 C106.514975,189.298143 104.63706,189.91346 102.30365,189.91346 L102.30365,189.91346 Z M123.473992,193.077947 L127.980989,183.920114 L149.365247,183.920114 L153.872243,193.077947 L157.947719,193.077947 L140.495095,157.597338 L136.899087,157.597338 L119.398517,193.077947 L123.473992,193.077947 Z M147.093308,180.755627 L128.825589,180.755627 L137.983422,162.200228 L147.093308,180.755627 Z M188.497186,193.077947 L188.497186,189.91346 L169.60616,189.91346 L169.60616,157.597338 L165.866312,157.597338 L165.866312,193.077947 L188.497186,193.077947 Z M205.359696,193.077947 L205.359696,160.761825 L218.20943,160.761825 L218.20943,157.597338 L188.674221,157.597338 L188.674221,160.761825 L201.523954,160.761825 L201.523954,193.077947 L205.359696,193.077947 Z" id="COBALT" fill="#333333"></path>
                </g>
            </g>
        </g>
    </g>
</svg>