<svg width="83" height="14" viewBox="0 0 83 14" fill="currentColor" xmlns="http://www.w3.org/2000/svg">
    <path fill-rule="evenodd" clip-rule="evenodd" d="M7.48165 14C9.0758 14 10.4586 13.6254 11.6301 12.8763V11.4947C11.0987 11.9123 10.4828 12.2316 9.7823 12.4526C9.08184 12.6737 8.31496 12.7842 7.48165 12.7842C6.29811 12.7842 5.25346 12.5447 4.34769 12.0658C3.44192 11.5868 2.73844 10.9083 2.23725 10.0303C1.73606 9.15219 1.48546 8.14211 1.48546 7C1.48546 5.85789 1.73606 4.84781 2.23725 3.96974C2.73844 3.09167 3.44192 2.41316 4.34769 1.93421C5.25346 1.45526 6.29811 1.21579 7.48165 1.21579C9.17242 1.21579 10.5552 1.64561 11.6301 2.50526V1.12368C10.4586 0.374561 9.0758 0 7.48165 0C5.99619 0 4.68886 0.291667 3.55967 0.875C2.43048 1.45833 1.5549 2.27807 0.932942 3.33421C0.310981 4.39035 0 5.61228 0 7C0 8.38772 0.310981 9.60965 0.932942 10.6658C1.5549 11.7219 2.43048 12.5417 3.55967 13.125C4.68886 13.7083 5.99619 14 7.48165 14ZM21.7231 14C23.1965 14 24.4978 13.7083 25.627 13.125C26.7562 12.5417 27.6318 11.7219 28.2537 10.6658C28.8757 9.60965 29.1867 8.38772 29.1867 7C29.1867 5.61228 28.8757 4.39035 28.2537 3.33421C27.6318 2.27807 26.7562 1.45833 25.627 0.875C24.4978 0.291667 23.1965 0 21.7231 0C20.2377 0 18.9303 0.291667 17.8011 0.875C16.6719 1.45833 15.7964 2.27807 15.1744 3.33421C14.5525 4.39035 14.2415 5.61228 14.2415 7C14.2415 8.38772 14.5525 9.60965 15.1744 10.6658C15.7964 11.7219 16.6719 12.5417 17.8011 13.125C18.9303 13.7083 20.2377 14 21.7231 14ZM21.7231 12.7842C20.5396 12.7842 19.4949 12.5447 18.5892 12.0658C17.6834 11.5868 16.9799 10.9083 16.4787 10.0303C15.9775 9.15219 15.7269 8.14211 15.7269 7C15.7269 5.85789 15.9775 4.84781 16.4787 3.96974C16.9799 3.09167 17.6834 2.41316 18.5892 1.93421C19.4949 1.45526 20.5396 1.21579 21.7231 1.21579C22.9067 1.21579 23.9483 1.45526 24.848 1.93421C25.7478 2.41316 26.4452 3.09167 26.9403 3.96974C27.4355 4.84781 27.6831 5.85789 27.6831 7C27.6831 8.14211 27.4355 9.15219 26.9403 10.0303C26.4452 10.9083 25.7478 11.5868 24.848 12.0658C23.9483 12.5447 22.9067 12.7842 21.7231 12.7842ZM38.7613 13.8158C39.6188 13.8158 40.3736 13.6592 41.0257 13.3461C41.6779 13.0329 42.1821 12.5877 42.5384 12.0105C42.8946 11.4333 43.0728 10.7702 43.0728 10.0211C43.0728 9.18596 42.8222 8.46754 42.321 7.86579C41.8198 7.26404 41.1344 6.85877 40.2649 6.65C40.9412 6.36754 41.4635 5.96842 41.8319 5.45263C42.2002 4.93684 42.3844 4.33509 42.3844 3.64737C42.3844 2.95965 42.2183 2.35482 41.8862 1.83289C41.5541 1.31096 41.0861 0.905702 40.4823 0.617105C39.8784 0.328509 39.178 0.184211 38.3809 0.184211H32.3847V13.8158H38.7613ZM38.1454 6.20789H33.7977V1.4H38.0548C38.9123 1.4 39.6007 1.62105 40.12 2.06316C40.6393 2.50526 40.8989 3.08246 40.8989 3.79474C40.8989 4.5193 40.6453 5.10263 40.1381 5.54474C39.6309 5.98684 38.9666 6.20789 38.1454 6.20789ZM38.6526 12.6H33.7977V7.42368H38.6526C39.5342 7.42368 40.2438 7.66009 40.7812 8.13289C41.3186 8.6057 41.5873 9.22895 41.5873 10.0026C41.5873 10.7886 41.3186 11.418 40.7812 11.8908C40.2438 12.3636 39.5342 12.6 38.6526 12.6ZM46.6513 13.8158L48.3541 10.2974H56.4336L58.1364 13.8158H59.6762L53.0822 0.184211H51.7236L45.1115 13.8158H46.6513ZM55.5752 9.08158H48.6732L52.1333 1.95263L55.5752 9.08158ZM71.2185 13.8158V12.6H64.081V0.184211H62.668V13.8158H71.2185ZM77.5895 13.8158V1.4H82.4444V0.184211H71.2854V1.4H76.1403V13.8158H77.5895Z" />
</svg>
