<?xml version="1.0" encoding="UTF-8"?>
<svg width="24px" height="24px" viewBox="0 0 24 24" version="1.1" xmlns="http://www.w3.org/2000/svg" xmlns:xlink="http://www.w3.org/1999/xlink">
    <title>F9275A29-7C08-4459-8EDD-B95086937641</title>
    <g id="MHIC---Panel-Management" stroke="none" stroke-width="1" fill="none" fill-rule="evenodd">
        <g id="ICONS" transform="translate(-240.000000, -144.000000)">
            <g id="icon_pin_off" transform="translate(240.000000, 144.000000)">
                <rect id="Rectangle" x="0" y="0" width="24" height="24"></rect>
                <path d="M14,4 L14,9 C14,10.12 14.37,11.16 15,12 L9,12 C9.65,11.14 10,10.1 10,9 L10,4 L14,4 M17,2 L7,2 C6.45,2 6,2.45 6,3 C6,3.55 6.45,4 7,4 C7,4 7,4 7,4 L8,4 L8,9 C8,10.66 6.66,12 5,12 L5,14 L10.97,14 L10.97,21 L11.97,22 L12.97,21 L12.97,14 L19,14 L19,12 C19,12 19,12 19,12 C17.34,12 16,10.66 16,9 L16,4 L17,4 C17,4 17,4 17,4 C17.55,4 18,3.55 18,3 C18,2.45 17.55,2 17,2 L17,2 Z" id="Shape" fill="#C5CED6" fill-rule="nonzero"></path>
            </g>
        </g>
    </g>
</svg>